<?xml version="1.0" encoding="UTF-8" standalone="no"?><!DOCTYPE svg PUBLIC "-//W3C//DTD SVG 1.1//EN" "http://www.w3.org/Graphics/SVG/1.1/DTD/svg11.dtd"><svg width="100%" height="100%" viewBox="0 0 261 264" version="1.1" xmlns="http://www.w3.org/2000/svg" xmlns:xlink="http://www.w3.org/1999/xlink" xml:space="preserve" xmlns:serif="http://www.serif.com/" style="fill-rule:evenodd;clip-rule:evenodd;stroke-linejoin:round;stroke-miterlimit:2;"><path d="M259.729,132.615c0,23.66 -0.001,47.32 -0.002,70.979c0,1.052 -0.003,2.104 -0.037,3.155c-1.109,34.793 -13.514,46.324 -48.539,47.733c-23.585,0.949 -47.128,3.497 -70.623,5.969c-33.582,3.534 -66.984,5.664 -100.447,-1.701c-20.017,-3.787 -35.548,-19.909 -38.587,-40.053c-1.154,-8.857 -1.641,-17.789 -1.456,-26.719c0.602,-42.533 1.787,-85.058 2.148,-127.592c0.194,-14.227 3.927,-28.184 10.859,-40.61c5.108,-10.049 14.795,-17.012 25.948,-18.65c18.17,-2.798 36.209,-5.856 54.866,-3.271c8.085,1.12 16.666,-2.017 24.994,-1.849c34.159,0.69 68.347,1.209 102.443,3.193c20.729,1.206 31.216,11.374 35.411,31.898c2.106,10.825 3.251,21.815 3.421,32.841c0.515,21.548 0.152,43.117 0.152,64.677l-0.551,-0Zm-19.107,-6.962c0,-24.866 0.074,-48.411 -0.062,-71.956c0.02,-4.734 -0.449,-9.456 -1.399,-14.094c-3.032,-13.988 -8.379,-18.357 -22.767,-19.106c-6.823,-0.355 -13.66,-0.696 -20.489,-0.665c-46.194,0.209 -92.401,-0.078 -138.573,1.044c-23.539,0.572 -31.475,7.543 -35.401,35.25c-0.368,5.246 -0.432,10.508 -0.192,15.761c-0.792,33.605 -1.618,67.209 -2.477,100.812c-0.299,11.019 -1.722,22.053 -1.355,33.037c0.755,22.591 12.571,34.621 34.644,36.708c7.852,0.742 15.666,1.911 23.525,2.546c15.578,1.632 31.322,0.559 46.535,-3.171c6.832,-29.711 18.468,-56.674 40.129,-77.561c21.402,-20.637 46.401,-35.873 77.883,-38.607Zm-98.923,115.324c3.572,0.435 7.171,0.622 10.769,0.559c22.964,-1.894 45.942,-3.695 68.851,-6.134c13.162,-1.401 18.289,-7.115 18.825,-20.71c0.827,-20.956 1.03,-41.939 1.336,-62.913c-0.223,-2.332 -0.717,-4.631 -1.474,-6.848c-48.676,4.472 -91.617,49.576 -98.307,96.045Zm-83.775,-147.724c0.109,-23.787 16.01,-40.159 38.893,-40.045c25.114,0.125 41.347,17.08 40.742,43.591c-0.476,20.856 -11.418,36.386 -35.043,35.254c-28.756,-1.378 -46.615,-19.797 -44.591,-38.8Zm16.436,-0.972c-0.285,11.558 12.626,21.694 27.919,21.919c10.822,0.159 17.884,-6.359 17.228,-17.404c-1.07,-18.021 -10.086,-26.482 -23.023,-26.43c-11.965,0.244 -21.767,9.953 -22.125,21.915l-0,0Zm136.244,-52.196c-6.437,0.404 -8.881,5.013 -9.932,10.219c-0.059,5.351 3.93,9.956 9.235,10.661c5.914,-0.308 10.531,-5.418 10.239,-11.333c0.044,-0.351 0.066,-0.704 0.066,-1.058c0,-4.693 -3.862,-8.555 -8.555,-8.555c-0.352,0 -0.703,0.022 -1.052,0.065Z" style="fill-rule:nonzero;"/></svg>