<svg width="100%" height="100%" xmlns="http://www.w3.org/2000/svg" fill="none" viewBox="0 0 24 24"><path fill="#CB5928" d="M21 6.206c0-.79-.47-1.51-1.19-1.83l-7-3.11c-.52-.23-1.11-.23-1.62 0l-7 3.11C3.47 4.696 3 5.416 3 6.206v4.7c0 5.55 3.84 10.74 9 12 2.3-.56 4.33-1.9 5.88-3.71l-3.12-3.12a4.994 4.994 0 0 1-6.29-.64 5.003 5.003 0 0 1 0-7.07 5.003 5.003 0 0 1 7.07 0 5.006 5.006 0 0 1 .64 6.29l2.9 2.9c1.21-1.96 1.92-4.27 1.92-6.65z"/><path fill="#CB5928" d="M12 14.906a3 3 0 1 0 0-6 3 3 0 0 0 0 6"/></svg>