<?xml version="1.0" encoding="UTF-8" standalone="no"?><!DOCTYPE svg PUBLIC "-//W3C//DTD SVG 1.1//EN" "http://www.w3.org/Graphics/SVG/1.1/DTD/svg11.dtd"><svg width="100%" height="100%" viewBox="0 0 309 400" version="1.1" xmlns="http://www.w3.org/2000/svg" xmlns:xlink="http://www.w3.org/1999/xlink" xml:space="preserve" xmlns:serif="http://www.serif.com/" style="fill-rule:evenodd;clip-rule:evenodd;stroke-linejoin:round;stroke-miterlimit:2;"><path d="M293.551,52.476c0,-2.083 -1.25,-4.167 -2.5,-5.417c-1.667,-1.25 -3.75,-2.083 -5.833,-2.083c-27.5,1.667 -55.833,1.667 -83.333,0l-0.417,0c-2.917,-10.417 -9.167,-18.75 -17.917,-22.5c-8.333,-3.75 -16.667,-2.917 -24.167,-2.5l-2.917,0.417l-1.667,0c-0.417,-0.833 -0.417,-2.917 -0.833,-4.167c-0.833,-4.167 -1.667,-9.167 -5,-13.333c-1.25,-1.25 -2.917,-2.083 -4.583,-2.5c-8.333,-1.667 -17.5,2.083 -23.333,9.167c-3.75,4.583 -5.833,9.583 -6.25,15l-11.25,1.667c-2.5,0.417 -6.667,0.833 -10,3.75c-3.75,3.333 -4.583,7.5 -5,10c-0.417,1.667 -0.417,3.75 -0.833,5.417c-1.25,-0.833 -2.5,-1.25 -3.75,-1.25l-60,0c-1.25,-1.25 -2.5,-2.083 -4.583,-2.083c-4.583,-0.417 -8.333,2.5 -8.75,7.083c-13.75,111.667 -14.167,225.417 -1.25,337.5c0.417,3.75 3.333,6.667 7.083,7.083c47.083,3.75 94.583,5.833 142.5,5.833c47.5,0 95,-2.083 142.083,-5.833c4.167,-0.417 7.5,-4.167 7.5,-8.333l-15,-332.917Zm-189.167,-9.167c0,-0.417 0,-0.833 0.417,-1.25l1.25,0l19.167,-2.5c2.5,-0.417 4.583,-1.667 5.833,-3.75c1.25,-2.083 1.667,-4.583 0.417,-7.083c-1.25,-2.917 0.417,-6.667 2.083,-8.75c1.25,-1.25 2.917,-2.5 4.583,-3.333c0.417,0.833 0.417,1.667 0.417,2.5c0.833,5 2.083,12.5 9.583,15.833c3.333,1.667 6.667,1.667 9.583,1.25l2.917,-0.417c5.833,-0.417 11.667,-0.833 15.833,0.833c5.417,2.5 8.75,9.167 9.583,14.583c0.833,5.417 0.417,11.25 -0.417,16.667l-85.833,3.75c0.833,-9.167 2.5,-18.75 4.583,-28.333Zm-80,335c-11.667,-105.833 -11.25,-212.917 0.833,-318.333l58.333,0c0.417,0 0.833,0 1.667,-0.417c-0.833,5.417 -1.25,10.417 -1.25,15.833c0,3.333 1.667,6.25 4.583,7.5c1.25,2.917 4.167,5 7.5,5l0.417,0l96.667,-4.167c3.75,0 7.083,-2.917 7.5,-6.667c0.833,-5 1.667,-10.417 2.083,-16.25c25,1.25 50.417,1.667 75.417,0.417l14.167,317.083c-89.167,7.083 -178.75,7.083 -267.917,0Z" style="fill:#1d1d1b;fill-rule:nonzero;"/><path d="M168.968,135.393l-49.167,3.75c-27.083,1.667 -54.583,3.75 -81.25,1.667c-4.583,-0.417 -8.333,2.917 -8.75,7.5c-0.417,4.583 2.917,8.333 7.5,8.75c8.75,0.833 17.5,0.833 26.25,0.833c19.167,0 38.75,-1.25 57.5,-2.917l49.583,-3.75c4.583,-0.417 7.5,-4.167 7.5,-8.75c-0.833,-4.167 -4.583,-7.5 -9.167,-7.083Z" style="fill:#1d1d1b;fill-rule:nonzero;"/><path d="M213.135,181.226c1.667,1.667 3.75,2.917 6.25,2.917l1.667,0c2.917,-0.417 5.417,-2.917 6.25,-5.417c7.083,-24.167 17.083,-47.917 29.167,-70c2.083,-3.75 0.833,-8.333 -2.5,-10.417c-2.917,-1.667 -6.25,-1.667 -8.75,0c-3.333,-0.417 -6.667,1.25 -8.333,4.583c-1.25,2.5 -0.833,5.833 0.417,7.917c-8.333,15.833 -15,32.083 -20.833,48.75c-3.333,-5 -6.667,-10 -9.583,-15c-2.083,-3.75 -7.083,-5 -10.833,-2.917c-3.75,2.083 -5,7.083 -2.917,10.833c5.417,9.583 12.5,19.583 20,28.75Z" style="fill:#1d1d1b;fill-rule:nonzero;"/><path d="M87.301,248.309c22.917,0 46.25,-1.25 69.167,-4.167c3.333,-0.417 6.25,-2.917 6.667,-6.25c1.25,-5 -0.417,-10 -4.167,-13.333c-3.333,-2.917 -8.333,-2.917 -11.25,0.417c-1.25,1.25 -1.667,2.917 -2.083,4.167c-36.25,3.75 -72.917,4.167 -109.167,0.833c-4.583,-0.417 -8.333,2.917 -8.75,7.083c-0.417,4.583 2.917,8.333 7.083,8.75c17.5,1.667 35,2.5 52.5,2.5Z" style="fill:#1d1d1b;fill-rule:nonzero;"/><path d="M260.635,181.643l-7.5,0.417c-4.583,0.417 -7.5,4.167 -7.5,8.75c0,2.5 1.25,4.167 2.917,5.833l-24.167,48.333l-21.25,-20.833c-3.333,-2.917 -8.333,-2.917 -11.25,0c-2.917,3.333 -2.917,8.333 0,11.25l29.167,28.333c1.667,1.667 3.333,2.083 5.417,2.083l1.25,0c2.5,-0.417 4.583,-2.083 5.833,-4.167l34.167,-68.333c1.25,-2.5 1.25,-5.833 -0.417,-7.917c-0.833,-2.917 -3.75,-4.167 -6.667,-3.75Z" style="fill:#1d1d1b;fill-rule:nonzero;"/><path d="M170.635,305.393c-3.333,-2.5 -8.333,-2.083 -11.25,1.667c-0.417,0.833 -0.833,1.667 -1.25,2.5l-70.417,7.5c-12.5,1.25 -27.083,2.917 -38.75,-2.083c-4.167,-1.667 -8.75,0.417 -10.417,4.167c-1.667,4.167 0.417,8.75 4.167,10.417c8.333,3.333 17.5,4.583 25.833,4.583c7.083,0 14.167,-0.833 20.417,-1.25l79.167,-8.333c3.75,-0.417 6.667,-3.333 7.083,-7.083c0.833,-4.583 -1.25,-9.167 -4.583,-12.083Z" style="fill:#1d1d1b;fill-rule:nonzero;"/><path d="M260.218,293.309c-2.083,-1.25 -4.167,-1.667 -6.667,-1.25c-15,4.167 -30,6.25 -45.417,7.083c-1.667,-2.5 -4.583,-3.75 -7.917,-3.333c-4.167,0.833 -7.5,4.583 -6.667,9.167l0,0.833c0,0.833 -0.417,1.25 0,2.083c0,1.25 0.417,2.5 0.833,3.75c2.083,14.583 3.333,29.583 3.333,44.583c0,2.5 1.25,4.583 2.917,6.25c1.25,1.25 3.333,1.667 5,1.667c0.833,0 1.25,0 2.083,-0.417c16.25,-4.167 33.333,-7.083 50,-8.333c3.75,-0.417 6.667,-3.333 7.083,-7.083c1.25,-16.25 0.833,-32.917 -1.25,-49.167c-0,-2.5 -1.25,-4.583 -3.333,-5.833Zm-10.417,46.667c-12.083,1.25 -24.167,3.333 -35.833,5.833c-0.417,-10.417 -1.25,-20.417 -2.5,-30.833c12.5,-0.833 25.417,-2.5 37.5,-5.417c0.833,10.417 1.25,20.417 0.833,30.417Z" style="fill:#1d1d1b;fill-rule:nonzero;"/><path d="M34.801,202.059l3.333,0c16.25,0 32.5,-2.083 48.333,-3.75c22.917,-2.917 45,-5.417 66.667,-2.5c11.25,1.667 16.25,-4.167 17.5,-9.583c0.833,-4.167 -2.083,-8.333 -6.25,-9.167c-3.333,-0.417 -6.25,0.833 -7.917,2.917l-0.833,0c-23.75,-3.333 -47.5,-0.417 -70.833,2.5c-16.25,2.083 -32.917,4.167 -49.583,3.75c-4.583,0 -7.917,3.333 -8.333,7.917c-0,4.167 3.333,7.917 7.917,7.917Z" style="fill:#1d1d1b;fill-rule:nonzero;"/><path d="M58.968,289.559c31.667,0 63.333,-1.667 95,-5.417c3.75,-0.417 8.75,-3.333 9.583,-7.917c0.833,-3.75 -0.417,-7.5 -3.333,-9.583c-3.75,-2.5 -8.75,-1.667 -11.25,1.667c-35.417,3.75 -71.25,5.417 -107.083,4.583c-4.167,0 -7.917,3.333 -8.333,7.917c0,4.583 3.333,7.917 7.917,8.333c5.833,-0 11.667,0.417 17.5,0.417Z" style="fill:#1d1d1b;fill-rule:nonzero;"/><path d="M161.468,347.893c-1.25,0.833 -2.5,2.083 -3.333,3.333c-7.083,1.667 -14.583,1.667 -23.333,1.667c-28.75,0 -57.917,-0.833 -87.083,-2.083c-4.583,-0.417 -8.333,3.333 -8.333,7.5c-0.417,4.583 3.333,8.333 7.5,8.333c27.5,1.667 55.417,2.083 82.5,2.083l5.417,0c10.417,0 19.583,-0.417 29.167,-2.917c1.667,-0.417 6.667,-2.083 8.333,-6.667c1.25,-2.917 0.833,-5.833 -0.417,-8.333c-1.667,-3.75 -6.25,-5 -10.417,-2.917Z" style="fill:#1d1d1b;fill-rule:nonzero;"/></svg>