<?xml version="1.0" encoding="UTF-8" standalone="no"?><!DOCTYPE svg PUBLIC "-//W3C//DTD SVG 1.1//EN" "http://www.w3.org/Graphics/SVG/1.1/DTD/svg11.dtd"><svg width="100%" height="100%" viewBox="0 0 373 358" version="1.1" xmlns="http://www.w3.org/2000/svg" xmlns:xlink="http://www.w3.org/1999/xlink" xml:space="preserve" xmlns:serif="http://www.serif.com/" style="fill-rule:evenodd;clip-rule:evenodd;stroke-linejoin:round;stroke-miterlimit:2;"><path d="M369.987,18.983c-1.25,-5.792 -5.083,-12.875 -9.875,-15.542c-5.833,-3.208 -14.125,-4.083 -20.917,-3c-17.125,2.667 -34.167,5.875 -51.167,9.125c-17.333,3.333 -33.667,10.458 -47.875,20.958l-32.208,23.833c-13.458,10.75 -26.417,22.167 -39.375,33.5c-4.167,3.667 -7.833,7.917 -11.583,12.042c-5.667,6.292 -11.083,12.75 -16.833,18.958c-0.958,1.042 -2.875,1.542 -4.25,1.125c-23.958,-7.542 -48.208,-13.208 -73.542,-10.375c-5.458,0.625 -12.042,2.25 -15.708,5.875c-13.458,13.125 -26,27.167 -38.625,41.083c-4.833,5.292 -9.417,10.708 -6.208,19.167c3.292,8.833 10.125,8.5 17.5,9c23.292,1.583 46.542,3.625 71.708,5.667c-4.458,9.75 -8.042,17.333 -11.417,25c-3.458,7.917 -4,15.25 3.958,21.292c13.708,10.417 26.667,21.875 40.958,31.333c11.417,7.542 24.167,8.833 36.125,-0.625c2.875,-2.25 6.458,-3.625 9.833,-5.458c1.458,1.458 4.042,2.792 4.167,4.375c1.833,19.25 3.292,38.542 5,57.792c0.417,4.5 -0.125,10.333 2.417,13.042c2.708,2.917 9.5,5.083 12.875,3.708c17.292,-7.125 34.75,-14.375 50.875,-23.792c13.625,-7.958 20,-20.667 16.708,-37.917c-4.25,-22.083 -13.5,-41.5 -26.958,-59.875c8.625,-7.708 16.583,-14.583 24.292,-21.708c15.292,-14.167 29.792,-29.292 45.875,-42.458c21.042,-17.25 37.292,-37.625 47.792,-62.667c0.958,-2.333 2.083,-4.625 3.542,-6.667c14.375,-20.333 17.958,-42.917 12.917,-66.792Zm-280.625,155.583c-17.458,-3.125 -35.125,-5.125 -52.708,-7.667c-2.583,-0.375 -5.083,-1.417 -8.917,-2.5c10.292,-11.667 19.042,-23.208 29.583,-32.833c4.083,-3.75 12.208,-4.75 18.292,-4.292c17.292,1.25 34.5,3.917 54.75,6.375c-9.958,13.708 -17.75,24.083 -25.208,34.708c-4.042,5.75 -8.583,7.542 -15.792,6.25l0,-0.042Zm28.542,66.792c-5,-4.292 -9.625,-9.083 -14.042,-14.042c-6.5,-7.292 -4.5,-17.25 4.708,-28.292c17.667,15.167 35.333,30.333 53.042,45.542c-18.083,11.792 -26.875,11.25 -43.708,-3.208Zm122.25,44.5c1.5,6.042 -0.333,10.708 -7.333,13.917c-10.625,4.792 -20.375,11.5 -32.958,18.792c5.792,-22.083 -1.958,-38.542 -6.875,-55.292c-2.292,-7.792 -2.458,-13.208 6.333,-17.25c7.958,-3.667 14.958,-9.458 25.667,-16.458c5.375,19.792 10.583,37.958 15.125,56.333l0.042,-0.042Zm112.5,-249.292c-1.75,20.917 -9.708,39.542 -22.958,56.083c-8.25,10.292 -14.625,22.042 -22.833,32.333c-6.167,7.708 -13.875,14.25 -21,21.208c-1.958,1.917 -4.333,3.417 -6.333,5.333c-21.667,20.583 -42.875,41.667 -65.083,61.667c-7.708,6.958 -17.292,12.792 -27.042,16.167c-4.958,1.75 -12.417,-2.542 -18.333,-5.042c-3.667,-1.542 -6.708,-4.708 -9.708,-7.5c-12.292,-11.458 -24.583,-22.958 -36.583,-34.75c-1.667,-1.625 -1.875,-4.458 -0.5,-6.333c14.792,-19.875 29.75,-39.625 44.458,-59c9.167,-12.083 19.917,-22.875 31.917,-32.125c16.333,-12.542 32.083,-24.625 47.792,-36.792c4.375,-3.375 7.917,-7.917 12.5,-10.917c18.417,-12.167 39.917,-14.5 60.958,-17.958c4,-0.667 8.083,-1 12.125,-1.458c15.833,-1.833 21.917,3.167 20.583,19.167l0.042,-0.083Z" style="fill-rule:nonzero;"/><path d="M111.279,281.358c-7.125,-2.333 -10.75,2.625 -10.083,10.125c1.667,17.958 -7.417,31.458 -18.5,44c-1.375,1.583 -4.458,2.875 -6.292,2.458c-1.5,-0.375 -3.583,-3.833 -3.167,-5.417c1.333,-5.458 2.625,-11.375 5.792,-15.792c3.625,-5.042 8.25,-9.958 3,-15.167c-4.5,-4.458 -10.083,-6 -17.458,-1.167c-10.083,6.625 -22.042,10.333 -36.583,3.708c7.125,-5.583 12.458,-10.458 18.417,-14.208c4.75,-3 10.458,-4.875 7.125,-12c-3.292,-7.083 -8.833,-7.542 -16.167,-5.917c-6.042,1.333 -12.75,-0.167 -19.125,-0.417c-0.25,-1.667 -0.5,-3.375 -0.75,-5.042c7.25,-3.125 14.25,-7.458 21.833,-9c7.542,-1.542 15.75,0.417 23.5,-0.667c1.5,-0.208 2.958,-1.083 4.333,-2.167c3.5,-2.792 3.792,-8.208 0.375,-11.083c-0.625,-0.5 -1.25,-0.875 -1.958,-1.042c-17.292,-3.667 -34.208,-1.875 -49.583,7.25c-4.917,2.917 -9.208,7.583 -12.625,12.292c-7.125,9.875 -3,18.042 13.083,27.208c-13.167,28.542 10.333,38.625 37.125,35.042c0.083,3.958 0.25,7.083 0.25,10.208c0.083,9.667 5.333,17.375 13.208,20.583c9,3.667 19.292,2.167 27.5,-4.208c18.875,-14.75 27.375,-35.083 28.208,-58.333c0.125,-3.75 -6.75,-9.708 -11.5,-11.25l0.042,-0Z" style="fill-rule:nonzero;"/><path d="M282.154,45.983c-14.875,-2.25 -24.958,5.208 -34.375,15.542c-12,13.167 -12.375,32.167 0.417,44.958c9.25,10.708 21.333,13.5 35.25,11.25c14.792,-2.375 32.375,-20.625 34.208,-33.875c2.708,-19.75 -20.125,-35.542 -35.5,-37.875Zm10.875,45.208c-10.042,9.958 -23,11.458 -31.25,4.042c-10.333,-9.25 -9.125,-20.875 2.833,-28c10.042,-5.958 27.333,-1.5 32.917,8.708c3.667,6.75 0,11.542 -4.5,15.25Z" style="fill-rule:nonzero;"/></svg>