<?xml version="1.0" encoding="UTF-8" standalone="no"?><!DOCTYPE svg PUBLIC "-//W3C//DTD SVG 1.1//EN" "http://www.w3.org/Graphics/SVG/1.1/DTD/svg11.dtd"><svg width="100%" height="100%" viewBox="0 0 267 246" version="1.1" xmlns="http://www.w3.org/2000/svg" xmlns:xlink="http://www.w3.org/1999/xlink" xml:space="preserve" xmlns:serif="http://www.serif.com/" style="fill-rule:evenodd;clip-rule:evenodd;stroke-linejoin:round;stroke-miterlimit:2;"><g><path d="M265.678,52.187c-0.212,-20.525 -15.925,-41.146 -36.917,-48.762l0.108,-0.554l-1.837,-0.525c-13.8,-3.946 -28.996,-2.104 -43.692,-0.325c-9.125,1.108 -17.742,2.146 -25.892,1.858c-13.812,-0.5 -24.229,-0.587 -34.808,-0.283c-8.725,0.267 -17.613,-0.204 -26.613,-0.675c-8.804,-0.458 -17.912,-0.933 -27.021,-0.688c-11.413,0.317 -27.796,1.621 -38.254,9.292c-13.646,10.017 -19.688,29.783 -24.1,44.233c-4.421,14.479 -5.546,30.217 -6.321,45.096c-0.467,8.875 -0.442,17.654 0.079,26.096c0.146,2.392 0.092,5.054 0.029,8.167c-0.138,6.154 -0.279,12.512 1.471,18.104c4.083,13.075 15.8,24.312 30.575,29.333c4.075,1.383 9.183,2.567 14.021,3.25c5.25,0.746 10.021,-0.137 14.658,-0.996l0.537,-0.1c2.942,-0.546 5.558,-1.025 8.608,-1.029c0.646,-0.029 1.696,-0.017 2.858,-0.042c2.179,-0.054 7.758,-0.183 9.746,0.296c0.092,0.346 0.192,0.708 0.3,1.083c0.425,1.462 0.508,3.446 0.588,5.367c0.037,0.779 0.071,1.546 0.117,2.275c0.1,1.442 0.158,2.883 0.208,4.333c0.108,2.842 0.221,5.779 0.667,8.767c0.496,3.275 0.296,6.742 0.079,10.512c-0.258,4.508 -0.525,9.167 0.492,13.854c1.833,8.438 5.683,13.471 11.438,14.962c1.121,0.292 2.3,0.438 3.512,0.438c12.896,0 29.521,-16.875 44.292,-33.613c0.971,-1.108 1.804,-2.046 2.463,-2.771c1.592,-1.738 3.133,-3.613 4.692,-5.508c3.65,-4.446 7.425,-9.042 11.992,-11.783c2.396,-1.429 4.017,-1.033 7.596,-0.158l2.021,0.479c7.029,1.575 14.1,1.05 20.929,0.542l4.192,-0.296c15.296,-1.05 31.113,-2.138 43.613,-13.35c9.096,-8.162 14.846,-19.262 17.1,-32.979c1.679,-10.196 2.479,-20.713 3.254,-30.95c0.4,-5.317 0.8,-10.621 1.321,-15.871c0.35,-3.471 0.787,-6.933 1.237,-10.408c1.521,-11.846 3.088,-24.1 0.663,-36.671Zm-69.621,25.892c-7.337,5.975 -14.346,13.004 -21.417,21.492c-5.842,5.85 -10.758,11.071 -15.958,16.6l-4.037,4.283c-2.567,3.092 -5.142,6.246 -7.704,9.4l-0.392,0.454c-3.196,3.688 -5.304,6.121 -7.908,8.871l-0.058,0.129c-3.271,5.192 -7.296,15.85 -15.292,10.579c-1.633,-1.075 -2.583,-3.704 -3.608,-5.267c-1.975,-3.004 -4.179,-5.596 -6.25,-8.567c-3.6,-5.167 -9.075,-9.183 -12.067,-14.8c-0.196,-0.367 -0.438,-0.775 -0.588,-0.925l-0.217,-0.275c-2.867,-3.942 -5.833,-8.013 -8.738,-11.646l-0.138,-0.217l-0.279,-0.562l-4.662,-4.662c-1.738,-1.738 -3.442,-4.754 -2.517,-7.542c0.975,-4.579 6.054,-7.133 10.358,-7.167l0.05,-0.325c0.142,0 1.429,0.013 2.4,0.5c-0.012,0 0.175,0.071 0.358,0.167c0.5,0.158 1.013,0.333 1.488,0.571l-0.058,0.15c0.558,0.317 1.113,0.663 1.671,1.033c2.233,2.2 4.542,5.688 6.067,7.996l0.558,0.842c0.229,0.196 3.942,4.275 5.833,6.542c0.012,0.012 2.187,2.55 3.25,3.612c1.192,1.192 1.975,2.367 2.733,3.504l2.067,2.042c1.533,1.904 2.625,3.358 3.708,4.8c0.888,1.075 1.838,2.096 2.829,3.162c0.367,0.396 0.738,0.796 1.108,1.196c0.367,-0.492 0.738,-0.992 1.121,-1.5l1.204,-1.617c3.3,-4.033 6.675,-8.163 10.404,-11.9c0.946,-1.646 3.825,-4.562 4.492,-5.225l23.221,-26.542c0.642,-0.983 1.471,-2.229 2.738,-3.108c0.071,-0.121 0.154,-0.292 0.25,-0.479c0.592,-1.15 1.458,-2.842 2.892,-3.104c0.521,-0.629 1.496,-1.783 2.304,-2.596c0.842,-0.838 1.708,-1.796 2.617,-2.792c4.163,-4.567 9.438,-10.317 16.246,-9.508c5.812,0.992 7.642,3.904 8.146,6.204c1.196,5.579 -4.088,12.825 -8.225,16.196Z" style="fill-rule:nonzero;"/></g></svg>