<?xml version="1.0" encoding="UTF-8"?><svg id="Layer_1" xmlns="http://www.w3.org/2000/svg" width="520" height="520" viewBox="0 0 520 520"><defs><style>.cls-1,.cls-2,.cls-3,.cls-4{fill:#231f20;}.cls-2{opacity:.25;}.cls-3{opacity:.35;}.cls-4{opacity:.45;}</style></defs><path class="cls-1" d="M190.32,469.63s7.42,1.8,6.08,3.39c-2.07,2.45-13.93,3.2-13.93,3.2l5.23-2.67,2.63-3.92Z"/><path class="cls-1" d="M218.73,469.63c-.31-.19-5.72,2.04-4.83,3.29,1.46,2.05,16.19,1.7,16.19,1.7l-6.99-2.53-4.37-2.46Z"/><path class="cls-1" d="M172.27,124.81c-.12.19-.25.38-.36.57-.04.07,0,.14-.05.21-.16.24-.35.49-.49.73-.05.09-.1.27-.08.29.05.07.23.11.09.12-.02,0-.15.02-.33.05-.22.04-.49.1-.76.15-.61.14-1.17.24-1.23.11-.06-.11-.06-.26-.09-.41-.02-.19-.04-.26-.04-.33,0-.15.14-.29.3-.42.2-.16.09-.36.15-.53.06-.2.14-.39.21-.59.05-.12.1-.24.13-.36.05-.18.14-.36.1-.55-.03-.15-.19-.3-.3-.45-.02-.03-.07-.07-.08-.1-.02-.06.03-.09.2-.11.15-.02.38-.02.71,0h.45c.49.04.93.11,1.19.22.49.29.62.56.54.83-.03.2-.14.39-.2.59h-.07Z"/><path class="cls-1" d="M187.42,121.98c-.12.19-.24.38-.32.58-.03.07,0,.14-.04.21-.13.25-.3.52-.37.78-.04.12-.03.23-.02.34.01.14.05.28-.05.44-.03.05-.22.08-.43.08-.21,0-.46-.02-.52-.1-.2-.27-.37-.56-.3-.88.04-.19-.11-.37-.12-.56-.02-.21-.01-.42,0-.63,0-.13.02-.26.02-.39.01-.19.07-.39.01-.58-.03-.15-.25-.3-.34-.45-.02-.03-.06-.07-.06-.1,0-.12.17-.16.81-.17h.44c.49,0,.9.05,1.07.14.58.25.51.48.49.73-.03.18-.12.37-.2.56h-.06Z"/><path class="cls-1" d="M216.76,427.21c1.14-1.13,2.47-1.57,3.68-1.88.45-.11.88-.25,1.31-.32,1.51-.21,3.02-.33,4.52-.43.67-.06,1.33-.11,1.99-.16.84-.13,1.71-.02,2.56.22.27.08.24.22.03.47-.21.23-.59.66-1.05.89-.2.08-.4.21-.61.25l-.62.13c-.41.08-.82.16-1.23.24-.83.06-1.67.1-2.52.11-1.02,0-2.05.33-3.03.53-1.05.24-2.09.53-2.88,1.07-.49.33-.86.74-1.07,1.25-.15.39-.24.9-.33,1.44-.09.53-.17,1.07-.22,1.6-.09.83-.03,1.66-.04,2.49,0,.18.03.37-.03.54-.2.66-.49.84-.92.93-.1.02-.2.05-.29.06-.3.03-.55-.29-.79-.82-.18-.39-.25-.78-.25-1.16-.01-.38-.01-.77,0-1.15.03-.77.12-1.54.21-2.32.08-.58.13-1.1.31-1.87.19-.78.64-1.59,1.19-2.17l.04.04Z"/><path class="cls-1" d="M216.72,427.9c.76-1.08,1.78-1.96,2.87-2.6.4-.24.78-.5,1.2-.68,1.48-.63,3.05-.93,4.57-1.03.67-.04,1.34-.09,2.01-.13.85-.13,1.7.07,2.54.28.26.08.23.22,0,.44-.22.21-.62.58-1.09.76l-.62.22c-.2.07-.41.06-.61.1-.4.05-.81.09-1.21.14-.8.12-1.59.15-2.4.2-.97.07-1.88.5-2.74.93-.95.47-1.82,1.08-2.5,1.87-.43.48-.8,1.03-1.08,1.63-.43.9-.74,1.9-.85,2.92-.1.8.06,1.59.02,2.37,0,.17.01.34,0,.52,0,.33-.06.55-.16.71-.09.16-.2.26-.33.34-.06.04-.12.09-.17.11-.16.08-.4-.17-.69-.66-.14-.37-.26-.75-.38-1.15l-.16-.6c-.04-.2-.03-.41-.04-.61-.01-.82.07-1.67.25-2.51.27-1.25.77-2.5,1.52-3.6l.04.02Z"/><path class="cls-1" d="M172.16,431.68c.53-1.2,1.6-2.26,2.73-2.85.41-.22.8-.46,1.22-.6,1.48-.45,2.9-.63,4.36-.58.64.02,1.27-.01,1.9.04.4.05.81.06,1.2.18.39.15.76.34,1.11.57.22.15.15.29-.1.51-.25.2-.68.59-1.11.77-.75.21-1.44.29-2.14.29-.7.01-1.39.07-2.13,0-.88-.03-1.75.32-2.49.62-.84.34-1.51.8-2.02,1.52-.32.43-.58.95-.74,1.51-.25.84-.34,1.77-.22,2.69.1.72.39,1.39.58,2.09.05.15.11.3.15.46.1.6-.09.86-.41,1.08-.08.05-.15.11-.22.15-.22.12-.57-.04-.93-.42-.45-.58-.78-1.24-1.04-1.96-.23-.73-.38-1.51-.42-2.34-.07-1.24.14-2.54.67-3.77l.06.02Z"/><path class="cls-1" d="M170.9,434.62c.17-.25.36-.47.55-.68.07-.08.1-.17.18-.24.26-.25.62-.39.93-.53.14-.06.26-.14.38-.21.15-.09.31-.2.52-.17.06,0,.12.17.16.35.04.18.08.41.03.47-.17.25-.28.47-.52.6-.14.08-.2.25-.29.38-.11.14-.22.28-.32.44-.06.1-.12.2-.15.31-.06.16-.12.33-.12.5,0,.14.15.26.18.37,0,.03.03.05.04.07,0,.1-.1.15-.49.26l-.26.08c-.29.08-.55.08-.7-.02-.2-.15-.4-.33-.45-.53-.06-.2-.08-.42-.04-.62.06-.3.2-.59.33-.85h.04Z"/><path class="cls-1" d="M150.69,277.59s-5.16,38.16-6.73,48.29c-1.57,10.14-4.17,79.81-4.17,79.81l.91,24.82s34.59,1.23,57.53-1.36c22.94-2.59,61.33-8.39,61.33-8.39l-2.44-12.79s-14.12-48.59-16.24-57.62-7.16-51.95-7.16-51.95l-2.9-26.09s-19.09,6.91-27.4,8.18c-13.81,2.1-52.72-2.9-52.72-2.9Z"/><path class="cls-1" d="M220.22,207.72c-.07-.24-.12-.5-.21-.73-.07-.24-.1-.51-.18-.74-.05-.17-.16-.32-.21-.5-.21-.59-.43-1.22-.79-1.72-.15-.24-.39-.37-.6-.51-.15-.06-.3-.11-.45-.18-.16,0-.3-.12-.47-.28-.1-.1-.1-.25.01-.47.06-.11.15-.25.27-.38.13-.16.29-.25.44-.23,1.11.11,2.05.81,2.5,1.64.25.52.62.95.86,1.44.25.54.46,1.1.57,1.67.08.35.15.7.22,1.04.11.52.18,1.05.3,1.56.12.39.18.79.21,1.19,0,.09.02.17.01.27-.02.34-.12.48-.32.55-.05.02-.09.04-.14.05-.15.02-.29-.09-.44-.29-.22-.31-.48-.61-.72-.92-.3-.29-.32-.64-.45-.97-.16-.49-.29-1-.47-1.48l.05-.02Z"/><path class="cls-1" d="M292.55,217.47s6.42,4.32,7.85,2.24c1.43-2.07-1.61-5.94-1.61-5.94,0,0-2.96-5.54-4.92-.65-1.95,4.89-1.32,4.34-1.32,4.34Z"/><path class="cls-1" d="M286.63,216.64c-.61-.5-1.21-1.01-1.79-1.62-.21-.22-.47-.4-.65-.66-.66-.9-1.17-2.04-1.23-3.22.01-.52.08-1.03.2-1.51.16-.61.5-1.25,1.11-1.54.19-.09.31.12.43.41.1.29.3.67.33.89.02.39.17.74.3,1.05l.1.23v.25c-.02.17-.03.34-.02.54.03.51.47.87.84,1.27.42.45.9.92,1.44,1.36.33.27.67.54,1.03.78.54.36,1.09.73,1.7.96.46.2.97.26,1.46.37.11.02.22.03.32.06.19.06.3.16.35.33.05.16.05.35,0,.62-.02.12-.03.24-.05.36-.07.37-.35.67-.74.82-.54.09-1.09.09-1.62.03-.27-.03-.54-.07-.79-.15-.25-.09-.49-.2-.73-.32-.71-.34-1.38-.79-2.03-1.24l.04-.06Z"/><path class="cls-1" d="M283.44,170.15c.41.81.81,1.62.98,2.68.05.38.13.8.03,1.25-.08.39-.27.8-.55,1.1-.27.3-.57.49-.84.64-.52.28-1.03.5-1.56.69-.47.17-.92.36-1.4.49-.61.14-1.23.34-1.87.13-.2-.09-.18-.19-.05-.43.13-.28.35-.64.64-.76,1.02-.53,2-.85,3.03-1.32.32-.14.56-.32.65-.47.08-.14.12-.3.13-.54.02-.53-.25-1.24-.61-1.92-.22-.42-.48-.83-.76-1.24-.43-.62-.86-1.27-1.34-1.91-.36-.5-.83-.96-1.17-1.55-.07-.13-.15-.26-.19-.41-.09-.27-.09-.47.01-.62.09-.15.25-.26.49-.35.11-.04.22-.09.33-.12.36-.1.74.03,1.01.25.17.17.34.34.5.5.13.18.26.36.39.54.28.41.55.81.83,1.22.44.64.91,1.36,1.36,2.13l-.04.03Z"/><path class="cls-1" d="M283.51,173.99c.11-.06.23-.14.31-.24.03-.03.02-.08.05-.12.12-.13.25-.28.31-.45.03-.08,0-.15-.01-.22-.04-.09-.13-.15-.02-.28.07-.09,1.24-.4,1.34-.22.14.29.17.62,0,.92-.1.18-.04.36-.08.54-.05.19-.13.38-.22.55-.06.11-.12.21-.18.31-.1.15-.25.27-.32.43-.06.12-.05.3-.14.41-.02.03-.02.06-.05.08-.09.07-.2.02-.47-.22l-.18-.17c-.19-.19-.33-.38-.39-.5-.07-.17-.16-.33-.18-.42-.01-.09,0-.15.02-.21.02-.09.09-.15.18-.22l.04.02Z"/><path class="cls-1" d="M273.63,190.81s0,.09.08.17c.07.08.16.15.35.24.35.18.97.31,1.67.47.5.12,1.01.11,1.5.27l2.58.81,1.3.4c.67.18,1.36.44,1.73,1.03.03.04.06.08.08.13.14.25.23.51.27.79.06.27.06.58,0,.89-.04.47-.09.93-.13,1.4-.06.5-.09,1.01-.24,1.51-.19.5-.39,1-.64,1.49-.17.31-.15.27-.32-.01-.16-.28-.67-.8-.99-1.4-.21-.34-.24-.68-.32-1.01-.08-.34-.12-.67-.14-1.01l-.02-.25v-.13s.04-.01.06-.02c.11,0,.19-.03.1-.02-.01,0,.04-.04.05-.1.01-.05.01-.12-.02-.19l-.03-.05s-.15-.06-.22-.09l-.53-.2c-1.18-.47-2.49-.53-3.74-.82l-2.09-.6c-.75-.24-1.68-.6-2.39-1.37-.42-.45-.78-1.07-.86-1.72-.04-.32-.03-.65.04-.97.05-.31.18-.66.26-.85.14-.34.28-.65.34-.83.05-.17.08-.37,0-.55-.03-.08-.08-.16-.13-.23-.06-.08-.09-.11-.21-.26-.23-.28-.45-.56-.64-.87-.61-.96-1.17-2-1.25-3.29-.02-.28-.03-.57.03-.86.25-1.1.73-1.34,1.36-1.11.15.05.3.1.43.17.45.27.6.74.63,1.12.04.58.23,1.13.53,1.71.15.28.32.57.52.83.09.13.2.26.31.37l.18.19s.11.11.19.21c.08.09.15.18.23.27.21.27.38.57.5.88.47,1.11-.03,2.65-.19,3.05-.05.13-.09.28-.1.3h-.02s-.02.04-.02.06l-.07.03Z"/><path class="cls-1" d="M195.73,206.98s8.35,1.41,9.97-.21-7.86-7.12-8.67-4.38-1.3,4.58-1.3,4.58Z"/><path class="cls-1" d="M184.75,205.29c-.75-.58-1.49-1.25-2.11-2.04-.22-.29-.47-.56-.65-.89-.64-1.13-.91-2.56-.62-3.77.1-.54.23-1.06.38-1.56.25-.62.58-1.2.97-1.73.12-.17.16-.12.2.07.03.19.13.57.12.95-.01.34-.01.67,0,.99-.02.31-.1.6-.12.88-.09.58-.08,1.1-.1,1.64,0,.66.38,1.28.79,1.85.45.64,1.03,1.21,1.7,1.72.41.31.85.61,1.31.88.7.41,1.42.86,2.14,1.18.57.25,1.18.33,1.74.43.12.02.25.02.37.05.44.09.55.23.6.76.01.12.03.24.03.36.01.4-.25.71-.71.76-.67.06-1.37.01-1.99-.21-.62-.21-1.19-.5-1.73-.8-.78-.44-1.55-.93-2.34-1.48l.02-.04Z"/><path class="cls-1" d="M166,94.59s11.25,7.9,21.15,7.45,19.48-12.04,17.74-23.77c-1.74-11.72-13.57-21.58-24.31-18.07-11.87,3.88-15.31,11.77-15.31,11.77,0,0-22.26-12.99-33.51-5.95-11.25,7.03-21.24,19.38-22.69,25.25-1.45,5.87-2.92,30.7-5.18,33.88-2.26,3.18-14.41,12.68-16.16,17.92s-3.48,11.7-.91,16.15c2.57,4.46,5.64,9.56,12.19,10.25,6.55.69,15.87-.21,15.87-.21,0,0,1.25,4.33,3.22,6.48s7.98,8.87,14.28,8.18c6.3-.68,15.18-4.85,15.18-4.85l7.87-9.54,2.94-10.31s-10.67-8.13-13.02-11.89c-2.35-3.77-6.81.63-11.15-2.71-4.34-3.34-5.32-8.71-5.32-8.71l6.11-4.82,4.59-2.35s2.25-2.13,2.4-5.12c.33-6.49.25-9.41.25-9.41,0,0,9.28-.49,12.84-3.16,3.56-2.67,7.73-8.06,7.73-8.06l3.18-8.39Z"/><path class="cls-1" d="M159.89,471.25c-1.27.8-2.26,1.8-2.47,2.58-.07.2-.1.39-.09.6-.01.23,0,.22.03.3.04.06.02.11.17.2.14.09.33.21.62.3,1.12.39,2.8.45,4.4.4,1.63-.06,3.31-.23,4.99-.44,2.47-.31,4.91-.84,7.45-1.18,2.28-.31,4.55-.46,6.71-.66,2.13-.22,4.27-.51,5.58-1.43.34-.22.6-.5.84-.8.14-.17.16-.23.25-.41.07-.18.14-.35.19-.59.23-.87.31-1.93.35-2.98.06-2.12-.11-4.31-.32-6.5-.38-3.88-1.08-7.78-1.85-11.6-.98-4.92-2.11-9.83-2.72-14.85-.06-1.6.14-1.43.96-.26.42.58.91,1.44,1.45,2.49.27.52.54,1.1.81,1.71.13.31.26.63.4.95.1.33.21.67.31,1.03.68,2.49,1.36,4.99,1.94,7.52.54,2.54,1.03,5.09,1.45,7.67.41,2.58.77,5.18.93,7.84.09,1.33.12,2.68.07,4.06-.02.69-.07,1.4-.17,2.12-.1.73-.23,1.47-.54,2.3-.84,2.24-2.72,3.45-4.47,4.11-1.75.62-3.43.86-5.05,1.07-1.58.19-3.16.39-4.74.58-1.53.2-3.07.48-4.66.72-3.46.51-6.95,1.06-10.61,1.14-.92.01-1.85-.01-2.81-.12-.96-.11-1.96-.3-3-.77-.52-.26-1.05-.56-1.52-1.08-.46-.5-.79-1.13-.94-1.79-.13-.68-.13-1.22-.04-1.81.04-.29.09-.58.19-.85.08-.28.18-.55.32-.8.62-1.26,1.55-2.16,2.49-2.88.95-.73,1.94-1.3,2.94-1.81,2-1.02,4.03-1.8,6.04-2.58,1.58-.61,3.17-1.19,4.68-1.85.76-.33,1.5-.67,2.19-1.05.34-.19.68-.39.99-.6.16-.1.3-.22.44-.33.15-.11.27-.24.34-.3.15-.17.24-.34.29-.6.07-.28.1-.64.12-.98.04-.71,0-1.46-.06-2.21-.12-1.5-.36-3.02-.62-4.53-.86-4.9-2.26-9.62-3.37-14.47-.24-1.07-.51-2.11-.72-3.2-.39-2.02-.57-3.39-.53-4.38.06-.99.28-1.59.62-2.06.16-.22.32-.49.47-.6.27-.19.52.12.82.79.3.68.71,1.75,1.06,3.18.55,2.11,1.17,4.26,1.78,6.44.62,2.18,1.14,4.42,1.67,6.68.53,2.26,1.02,4.56,1.44,6.91.4,2.38.81,4.7.77,7.45,0,.24-.02.5-.05.77l-.04.4-.09.46c-.04.31-.21.72-.36,1.09-.14.39-.44.69-.65,1.04-.32.3-.51.51-.7.65-.2.15-.4.33-.59.46-.39.28-.78.52-1.16.74-.77.43-1.52.8-2.26,1.14-1.49.67-2.95,1.22-4.38,1.8-2.84,1.15-5.67,2.26-7.93,3.74l-.05-.07Z"/><path class="cls-1" d="M225.18,471.06c2.74.99,6.17,1.12,9.61,1.32,3.44.19,6.87.39,10.23.36,1.04-.02,2.07-.06,3.05-.19l.71-.11c.12-.02.23-.04.34-.07l.22-.05c.12-.03.25-.06.35-.14.07-.05.13-.13.17-.21.05-.12.03-.26-.02-.38-.03-.06-.06-.12-.11-.17-.06-.07-.04-.06-.23-.24-.62-.58-1.45-1.12-2.29-1.66-1.69-1.07-3.56-2.03-5.43-2.98-1.88-.95-3.79-1.88-5.71-2.88-.96-.5-1.91-1.02-2.87-1.62-.48-.3-.95-.62-1.43-.98-.47-.4-.97-.78-1.44-1.53-.12-.26-.26-.58-.33-.81l-.17-.62c-.5-2.02-.83-3.96-1.16-5.94-.33-1.97-.57-3.95-.76-5.92-.25-2.53-.43-5.09-.36-7.68.16-2.57.56-5.2,1.64-7.64.85-1.47.94-1.08,1.03.32.02.68.14,1.65.24,2.74.08.56.15,1.16.2,1.78.09.64.16,1.3.19,1.99.05,3.41.35,6.88.83,10.33.25,1.72.48,3.46.77,5.17.14.86.3,1.71.46,2.55l.27,1.23.14.55.03.13v.02s0,.03,0,.03c.02.03-.02.01.06.08.07.07.11.14.24.24.19.18.46.38.72.57.55.39,1.18.77,1.82,1.15,1.29.75,2.67,1.47,4.05,2.2,2.47,1.31,5.09,2.52,7.7,3.96,1.31.74,2.61,1.5,3.88,2.65.14.14.36.31.55.56l.57.69c.16.25.3.5.43.76.1.26.18.54.27.81.07.55.11,1.13-.1,1.66-.1.27-.2.53-.38.75-.17.23-.3.48-.5.67-.19.15-.38.29-.58.41-.21.11-.38.27-.61.34-.46.15-.91.35-1.39.42-1.04.21-1.91.26-2.83.33-.91.05-1.8.08-2.69.09-1.78.01-3.53-.03-5.29-.1l-5.23-.24c-1.74-.09-3.5-.17-5.3-.38-2.19-.26-4.5-.73-6.61-1.92-1.04-.6-2-1.4-2.77-2.34-.18-.25-.38-.46-.55-.74-.17-.28-.35-.56-.46-.84-.27-.55-.46-1.09-.64-1.64-1.01-3.27-1.42-6.52-1.82-9.77-.38-3.25-.64-6.49-.88-9.72-.37-5.01-.77-9.92-.96-14.89-.04-1.09-.1-2.17-.11-3.27-.02-2.05.07-3.4.25-4.35.09-.47.21-.84.36-1.15.18-.3.39-.54.6-.75.19-.19.36-.45.5-.55.4-.36,1.2,1.32,1.27,4.27.51,8.77.96,18.05,1.94,27.23.38,3.39.82,6.81,1.57,10.01.39,1.57.85,3.15,1.53,3.9.78,1.01,1.9,1.7,3.26,2.19l-.02.08Z"/><path class="cls-1" d="M266.43,179.81c1.37-5.12,2.78-10.23,4.22-15.34.53-1.86.98-3.75,1.56-5.61l.5-1.57.07-.2c.03-.1.07-.22.11-.32l.25-.65c.06-.24.21-.38.33-.55.13-.17.25-.34.39-.49.51-.22,1.11-.36,1.68-.39l.64-.06.55-.04,2.17-.12c1.44-.08,2.88-.06,4.32-.08h8.61s4.56.03,4.56.03l1.16.02c.56.03,1.16.01,1.68.11.27.04.51.1.74.17.22.09.46.11.58.37.3.39.32.86.31,1.38-.04.68-.28,1.44-.51,2.15l-.46,1.4-.98,2.73c-.66,1.81-1.34,3.57-2.1,5.32-.41.51-.56.75-.59.73-.03-.02,0-.31-.18-.87-.19-.57-.21-1.34-.25-2.28,0-.46,0-.97.06-1.49.07-.52.17-1.05.32-1.6l.78-2.85.37-1.39.09-.34c.03-.1.06-.27.06-.22,0,0,0,0,0,0,0,0,.02-.02.01-.03,0,0,0,0-.01,0-.03,0,.06,0-.07,0h-.36s-1.45,0-1.45,0c-3.9-.04-7.84-.17-11.79-.28-1.48-.05-2.98-.02-4.48-.02-.75,0-1.51.01-2.25.03l-1.07.04c-.16.01-.27.02-.39.05-.09.11-.12.26-.17.4l-.38,1.25c-.25.87-.51,1.73-.76,2.59-1.47,5.1-2.89,10.25-4.28,15.39-.85,3.17-1.7,6.34-2.51,9.51-.6,2.41-1.21,4.82-1.81,7.23-.29,1.21-.58,2.41-.84,3.61-.08.41-.16.71-.19,1.07.28.21.67.21,1,.28.81.12,1.83.21,2.75.28.94.07,1.88.12,2.82.15,1.88.06,3.77.09,5.66.11.83,0,1.65.01,2.49.02,3.11.08,4.09.3,4.73,1.12.14.19.34.37.42.56.28.63-1.02,1.09-3.31,1.14-3.41.07-6.9-.01-10.45-.24-1.79-.1-3.55-.2-5.45-.46-.88-.13-1.79-.29-2.45-.67-.37-.17-.39-.56-.76-.76-.1-.14-.13-.31-.15-.49-.02-.18-.08-.34-.05-.56.04-.42.02-.82.11-1.26l.21-1.05.29-1.33c1.19-5.23,2.53-10.41,3.85-15.6h.07Z"/><path class="cls-1" d="M181.38,196.6c.35-.96.73-1.9,1.03-2.87.12-.35.14-.72.25-1.07.45-1.23.9-2.47,1.18-3.76.14-.57.14-1.16.22-1.73.03-.37.05-.74.1-1.11.08-.37.26-.74.42-1.11.12-.23.31-.2.62,0,.29.2.81.58,1.06,1.04.4,1.61.16,3.24-.36,4.79-.32.92-.34,1.93-.61,2.88-.3,1.04-.66,2.05-1.03,3.05l-.7,1.84c-.35.93-.74,1.84-1.02,2.77-.22.72-.28,1.48-.43,2.22-.03.16-.05.33-.09.49-.17.59-.46.7-1.11.62-.14-.02-.28-.02-.4-.04-.37-.06-.81-.47-.85-.96-.08-1.44.3-2.79.69-4.13.3-.99.65-1.96.96-2.94l.07.02Z"/><path class="cls-1" d="M147.16,180.72c-3.05,1.81-6.48,2.92-9.94,3.36-.62.11-1.27.14-1.91.19-.64.07-1.29.05-1.93.02-4.52-.29-8.84-1.97-12.34-4.63-1.55-1.18-3.04-2.46-4.29-3.95-1.67-1.84-2.93-4.14-3.24-6.62.15-.85-.03-.67.58-.22.32.22.65.56,1.06.94.21.19.45.39.68.6.12.11.22.22.35.33.09.13.18.26.27.39l1.03,1.35c.38.42.69.88,1.04,1.32l1.12,1.26,1.22,1.17c1.68,1.5,3.59,2.76,5.66,3.76,2.5,1.18,5.43,1.6,8.21,1.47,3.07-.18,6.2-.93,9.01-2.33,1.73-.87,3.35-1.96,4.83-3.23,2.22-1.94,4.13-4.29,5.52-6.9,1.08-2.03,1.72-4.21,2.19-6.4.09-.49.15-.97.28-1.45.33-1.8.61-2.35,1.43-2.68.18-.08.35-.18.51-.23.51-.15.98.7.98,2.21.09,2.26-.41,4.53-1.17,6.75-.77,2.21-1.81,4.4-3.26,6.33-2.09,2.9-4.81,5.35-7.85,7.24l-.05-.06Z"/><path class="cls-1" d="M137.75,130.99c-.69.44-1.54.81-2.43,1.03-.45.11-.86.16-1.23.2-.32.03-.6.05-.75.09-.32.06-.56.17-.94.48-.18.13-.37.34-.55.51-.17.2-.41.44-.53.61-.39.48-.58,1.12-.71,1.79-.23,1.19-.03,2.55.61,3.72.66,1.14,1.63,2.21,2.95,2.87,1.2.61,2.65.99,3.93,1.14.84.1,1.69.06,2.56-.08.44-.06.9-.08,1.36-.15.23-.03.46-.06.7-.1.24-.03.5,0,.74-.03.64,0,.54-.03.19.42-.34.5-.96,1.47-2.07,2.1-1,.46-2.15.75-3.32.84-1.18.13-2.33-.13-3.37-.39-.53-.15-1-.28-1.54-.48-.56-.22-1.11-.44-1.63-.77-1.03-.62-2.03-1.4-2.68-2.45-.81-1.22-1.45-2.56-1.76-4.01-.32-1.44-.29-3,.24-4.44.26-.79.74-1.54,1.27-2.18.5-.54,1-1.08,1.68-1.57.64-.49,1.57-.92,2.42-1.02.83-.1,1.34-.08,1.82-.2.58-.16,1.17-.49,1.74-.93.52-.41,1-.92,1.43-1.53,1.3-1.85,2.28-4.08,2.8-6.35.38-1.78.34-3.58.17-5.29-.06-.37-.11-.74-.17-1.12-.06-.34-.09-.63-.09-.87.02-.25.06-.45.12-.63.11-.35.39-.61.77-.87.17-.12.32-.26.48-.34.45-.28,1.35.15,1.86,1.36.6,1.79.82,3.74.67,5.67-.17,1.93-.64,3.83-1.33,5.65-.53,1.35-1.17,2.67-2,3.93-.2.32-.41.63-.66.94-.23.31-.48.62-.77.92-.25.3-.6.61-.94.9-.34.28-.65.49-.99.73l-.05-.07Z"/><path class="cls-1" d="M203.63,162.75c.05.95-.11,1.77-.3,2.51-.06.27-.08.55-.21.8-.41.89-.87,1.69-1.29,2.47-.2.34-.36.7-.52,1.04-.21.45-.45.88-.71,1.3-.08.13-.09.11-.1-.03,0-.14-.06-.41-.06-.7.05-1.04,0-2.06.32-2.96.18-.54.13-1.16.14-1.71.06-.6.12-1.18.07-1.72-.01-.34-.11-.63-.19-.92-.14-.4-.41-.8-.87-1.06-.36-.19-.83-.19-1.28-.22-.1,0-.21.02-.3-.03-.16-.08-.27-.15-.28-.36.02-.29.06-.56.13-.86l.08-.38c.05-.19.14-.35.3-.56.08-.11.18-.23.29-.36.12-.16.19-.13.29-.18.56-.19,1.06-.07,1.6.11.53.2,1.07.53,1.58,1.01.76.71,1.32,1.86,1.38,2.79l-.07.02Z"/><path class="cls-1" d="M206.8,165.61c.23.97.24,1.96.12,2.85-.04.33-.03.65-.11.96-.31,1.09-.79,2.04-1.33,2.9-.23.39-.41.78-.59,1.18-.12.25-.27.49-.43.71-.13.24-.46.38-.7.56-.18.1-.27.02-.42-.21-.1-.17-.2-.34-.28-.48-.05-.1-.11-.2-.15-.3-.03-.05-.04-.1-.07-.16,0-.04,0-.08,0-.12.03-.28.04-.57.09-.84.08-.25.17-.49.27-.73.19-.48.39-.93.66-1.37.34-.52.34-1.15.4-1.71.08-.62.08-1.22-.04-1.81-.07-.37-.19-.72-.36-1.07-.26-.52-.59-1.07-1.08-1.47-.38-.32-.89-.47-1.36-.65-.11-.04-.23-.06-.32-.11-.36-.19-.26-.57.07-1.21l.22-.43c.13-.23.29-.4.49-.55.2-.15.45-.28.65-.27,1.17.09,2.12.81,2.95,1.74.6.7,1.12,1.58,1.4,2.55l-.07.03Z"/><path class="cls-1" d="M198.73,191.14c1-2.24,2.47-4.12,3.8-5.84.49-.63.89-1.31,1.35-1.92,1.67-2.11,2.85-4.45,3.27-7.12.06-.59.13-1.19.13-1.79-.02-.6-.05-1.21-.09-1.8-.02-.74-.15-1.47-.34-2.12-.09-.33-.14-.67-.27-.98-.06-.16-.14-.31-.23-.46-.09-.15-.16-.34-.28-.49-.3-.41-.32-.33.19-.35.23.02.7-.05,1.15.16.46.18.99.52,1.37.99.57.89.83,1.84,1.04,2.75.12.47.06.89.1,1.34,0,.44.04.88,0,1.32-.09,1.78-.44,3.58-1.14,5.25-.85,1.98-1.83,3.97-3.08,5.64-1.38,1.82-2.82,3.43-3.86,5.25-.35.55-.6,1.13-.88,1.71-.22.61-.45,1.16-.64,1.85-.6,2.01-1.31,3.97-1.91,5.93-.45,1.53-.82,3.04-1.2,4.56-.09.33-.15.66-.24,1-.15.62-.42.99-.6,1.25-.2.26-.39.39-.63.47-.11.04-.22.1-.32.11-.31.05-.48-.53-.53-1.54.15-2.92.86-5.88,1.73-8.69.31-1.05.61-2.09.92-3.14.16-.54.26-1,.47-1.63.18-.59.37-1.19.63-1.75l.06.02Z"/><path class="cls-1" d="M170.93,209.97c-.52.84-.97,1.72-1.45,2.6-.17.32-.26.68-.42,1.01-.58,1.17-1.11,2.38-1.68,3.61-.24.55-.41,1.12-.59,1.68-.22.72-.46,1.45-.79,2.14-.11.22-.2.16-.31-.06-.1-.23-.28-.64-.31-1.09-.07-1.59-.03-3.18.47-4.7.38-.88.52-1.87.83-2.81.35-1.02.78-2.03,1.3-2.98.3-.59.64-1.17.96-1.75.5-.87,1.06-1.71,1.53-2.57.36-.68.6-1.42.89-2.14.07-.16.11-.32.19-.47.32-.54.65-.55,1.36-.22.16.08.32.14.47.23.49.27.8.8.73,1.28-.26,1.4-.96,2.54-1.63,3.69-.51.85-1.04,1.69-1.5,2.56l-.07-.03Z"/><path class="cls-1" d="M207.43,233.98c-.36,1.51-.68,3.02-1.11,4.52l-.6,2.25-.71,2.22c-.32,1.08-.62,2.18-1.02,3.24-.66,1.88-1.5,3.71-2.31,5.53-.43.9-.91,1.78-1.35,2.67-.48.88-1,1.73-1.48,2.6-.42.78-.9,1.52-1.36,2.27-.47.74-.88,1.52-1.38,2.24-.63.93-1.27,1.85-1.95,2.75-.75.84-1.43,1.73-2.3,2.47-.54.46-.54.33-.38-.29.13-.65.45-1.75,1.11-2.81,1.07-1.97,2.19-3.86,3.19-5.84.55-.96.98-1.98,1.48-2.97.51-.98.96-2,1.43-3.01,1.23-2.38,1.96-5.09,2.76-7.71.85-2.89,1.63-5.82,2.29-8.79.41-1.82.78-3.66,1.1-5.51.48-2.8.93-5.63,1.2-8.45.19-2.19.18-4.36.3-6.54.02-.48.02-.95.06-1.44.18-1.79.54-2.33,1.37-2.63.19-.07.39-.17.57-.2.62-.11,1.08.67,1.23,2.01.18,1.98.17,4,.11,6.04-.13,2.04-.35,4.1-.62,6.17-.39,3.07-.95,6.15-1.56,9.21h-.08Z"/><path class="cls-1" d="M147.97,213.57c-1.09,4.96-1.99,9.98-2.8,15.03l-.78,5.55-.79,4.89-.83,4.87c-.54,3.25-1.05,6.54-1.85,9.82-.71,2.89-1.63,5.81-3.04,8.43-.89,1.68-1.85,3.33-2.96,4.87-.53.79-1.12,1.52-1.71,2.26-.15.18-.28.38-.45.55l-.52.49-1.02.99c-.86.81-.72.71-.29-.19.21-.46.49-1.12.77-1.96.3-.81.79-1.67,1.31-2.59,1.91-3.23,3.37-6.6,4.41-10.06,1.09-3.46,1.62-7.17,2.25-10.94.37-2.26.65-4.6.94-6.94.31-2.33.63-4.68.95-7.01.75-5.12,1.57-10.24,2.55-15.35.59-3.14,1.29-6.27,2.04-9.38,1.16-4.71,2.61-9.38,4.28-13.92,1.28-3.53,2.74-6.95,4.48-10.27.43-.71.82-1.42,1.27-2.12.79-1.33,1.52-2.07,2.03-2.58.53-.5.95-.69,1.42-.75.21-.03.45-.09.62-.07.57.08.23,1.35-.81,3.25-1.45,2.88-2.82,5.86-4.09,8.93-.31.77-.62,1.54-.94,2.32-.28.79-.56,1.58-.85,2.37-.64,1.55-1.11,3.19-1.68,4.78-1.54,4.8-2.81,9.75-3.85,14.76h-.08Z"/><path class="cls-1" d="M231.63,241.53c-.98-3.36-1.99-6.72-3.08-10.05-.4-1.21-.88-2.4-1.29-3.61-1.41-4.28-2.9-8.53-4.51-12.74-.73-1.86-1.56-3.68-2.44-5.45-.57-1.13-1.19-2.23-1.79-3.33-.28-.56-.58-1.1-.87-1.64-.16-.26-.29-.53-.42-.81-.14-.27-.29-.52-.44-.77-.37-.52-.31-.75.53-.59.38.1.96.32,1.54.66.59.36,1.1.88,1.57,1.5l.58.84.5.88c.34.58.64,1.18.95,1.77.61,1.18,1.18,2.38,1.73,3.59,1.08,2.42,2.07,4.87,2.89,7.39.99,3.01,2.32,6.03,3.41,9.07,1.2,3.35,2.32,6.72,3.41,10.1l1.96,6.26c.98,3.16,1.85,6.37,2.81,9.52.75,2.45,1.62,4.81,2.37,7.24.16.54.36,1.05.5,1.6.55,2.02.37,2.76-.33,3.36-.16.14-.32.31-.49.4-.57.32-1.27-.4-1.84-1.8-1.55-4.2-2.91-8.69-4.28-13.22-1.02-3.37-2.04-6.75-3.06-10.13l.07-.03Z"/><path class="cls-1" d="M248.42,217.56c.66.78,1.42,1.49,2.22,2.14.29.24.63.39.94.62,1.08.78,2.26,1.43,3.53,1.93.56.22,1.15.37,1.74.49.38.06.76.13,1.14.2.38.04.77.1,1.16.16.24.04.21.12,0,.22-.21.1-.6.27-1.07.34-1.65.14-3.42.08-4.98-.62-.47-.21-.95-.38-1.42-.59-.49-.18-.97-.39-1.42-.64-1.01-.53-1.94-1.19-2.84-1.88-.53-.45-1.07-.89-1.56-1.38-.76-.72-1.43-1.54-2.15-2.28-.55-.59-1.21-1.08-1.79-1.66-.13-.13-.28-.23-.39-.38-.41-.53-.37-.82.19-1.34.13-.12.25-.24.39-.35.46-.36,1.01-.4,1.4-.13,1.15.8,1.97,1.85,2.88,2.87.67.76,1.36,1.51,2.07,2.24l-.04.05Z"/><path class="cls-1" d="M287.09,246.41c-2.67,2.31-5.49,4.47-8.56,6.28l-1.71.96c-.57.32-1.13.65-1.76.87-4.23,1.83-9.17,2.63-13.62,1.68-1.99-.33-3.94-.79-5.83-1.33-1.21-.35-2.43-.7-3.6-1.17-1.16-.5-2.32-.99-3.4-1.66-.67-.42-.56-.42.14-.4.7,0,1.99,0,3.39.28,2.46.54,4.87,1.18,7.3,1.52,2.42.37,4.84.53,7.2.49,2.85-.14,5.7-1.34,8.34-2.74,2.94-1.51,5.72-3.46,8.31-5.64.82-.65,1.59-1.36,2.36-2.06.79-.69,1.53-1.43,2.26-2.18,2.23-2.26,4.39-4.64,6.27-7.18,1.49-1.96,2.64-4.1,3.91-6.15.27-.46.5-.93.78-1.38,1.02-1.7,1.6-2.08,2.47-2.09.2,0,.41-.03.59,0,.58.1.61,1.07.1,2.53-1.71,4.2-4.46,8.1-7.49,11.76-2.26,2.71-4.72,5.29-7.37,7.67l-.06-.05Z"/><path class="cls-1" d="M274.45,184.77c-.28.08-.55.16-.8.26-.23.08-.58.24-.56.21-.1.02-.26.07-.28.2-.03.09,0,.2.07.28.05.06.12.09.19.11.01,0,.14.04.26.09l.37.12c.91.27,1.99.4,3.07.46,1.08.07,2.19.06,3.3,0,.99-.03,1.96-.25,2.94-.3,1.26-.12,2.52-.26,3.83-.22.4-.04.35.02.04.18-.15.09-.38.15-.63.37-.13.09-.26.23-.41.32-.15.08-.32.17-.49.24-.62.25-1.24.5-1.86.73-.31.11-.63.24-.95.32l-.98.17c-1.31.21-2.64.33-4,.31-.81,0-1.64,0-2.5-.03-.86-.03-1.75-.09-2.68-.4-.64-.22-1.33-.58-1.75-1.1-.46-.51-.67-1.16-.7-1.81,0-.68.38-1.27.89-1.71.52-.44,1.23-.76,1.61-.91,1.1-.43,2.19-.69,3.27-.94,1.64-.37,3.29-.6,4.91-.89,1.26-.22,2.48-.56,3.74-.79.28-.05.55-.12.83-.16,1.05-.11,1.41.04,1.66.76.06.15.13.3.16.44.1.45-.29,1.03-1,1.2-2.12.61-4.39.99-6.64,1.42-1.66.32-3.35.64-4.88,1.14l-.02-.06Z"/><path class="cls-1" d="M286.84,207.34c-.3.61-.62,1.2-.96,1.77-.14.2-.2.43-.35.63-.5.69-1.04,1.34-1.69,1.88-.26.26-.51.52-.75.77-.34.31-.61.66-.93.97-.1.1-.11.06-.08-.06.03-.12.08-.35.19-.58.32-.87.31-1.88.71-2.61.32-.41.41-.95.58-1.44.18-.54.43-1.05.61-1.6.12-.33.23-.67.31-1.01.12-.52.27-1.05.26-1.59,0-.42-.22-.84-.36-1.25-.03-.09-.11-.18-.09-.27.04-.33.25-.43,1.06-.51l.49-.05c.48-.04,1.13.1,1.34.38.44.42.45.86.5,1.31.02.45-.03.9-.14,1.34-.14.66-.39,1.31-.64,1.94l-.06-.02Z"/><path class="cls-1" d="M151.24,428.96c5.3.08,10.67-.12,16.03-.39,5.36-.28,10.73-.66,16.1-1.09,10.74-.87,21.47-1.94,32.18-3.14,3.91-.44,7.82-.92,11.72-1.43l11.7-1.47c3.44-.43,6.87-.89,10.29-1.38,1.71-.25,3.42-.5,5.12-.78.84-.14,1.7-.28,2.52-.44l.88-.18c.15-.04.3-.05.39-.14.06-.12.04-.26.04-.39,0-.09,0-.09-.02-.24l-.08-.59c-.12-.8-.3-1.63-.48-2.46-.37-1.66-.8-3.33-1.24-4.99-.89-3.33-1.86-6.65-2.84-9.98-1.97-6.64-4.03-13.27-6.07-19.91-2.02-6.65-4.1-13.27-5.89-20.02-1.58-5.99-2.92-12.05-4.1-18.12-1.15-6.08-2.12-12.18-2.97-18.25-2.15-15.6-3.52-31.38-3.54-47.11.02-4.9.33-4.25,1.03-.14.35,2.06.81,4.98,1.34,8.5.5,3.53.97,7.66,1.41,12.15l1.17,11.93c.41,3.97.86,7.94,1.38,11.89,1.03,7.91,2.28,15.8,3.85,23.62,1.56,7.84,3.5,15.53,5.8,23.22,2.32,7.71,4.64,15.43,6.97,23.17,1.38,4.64,2.8,9.32,4.16,14.06.68,2.37,1.35,4.76,1.96,7.19.31,1.21.6,2.44.85,3.7.13.66.23,1.21.32,2,.1,1.03.16,2.11-.43,2.87-.65.66-1.74.82-2.62,1.11l-1.87.38c-1.24.24-2.47.46-3.7.66-2.46.42-4.93.81-7.39,1.19-4.93.75-9.85,1.45-14.76,2.09-10.8,1.39-21.63,2.59-32.47,3.66-10.84,1.06-21.7,1.99-32.61,2.54-4,.18-8,.34-12.03.34-2.01,0-4.03-.04-6.06-.15-1.01-.05-2.04-.17-3.06-.25-1.07-.18-1.91-.22-3.54-.71-.39-.22-.91-.34-1.08-.81-.2-.42-.29-.92-.37-1.42l-.09-.74-.05-.52-.08-1.04c-.09-1.37-.15-2.73-.21-4.1-.1-2.72-.15-5.43-.19-8.14-.21-20.32.43-40.7,1.43-60.83.81-15.64,1.74-30.98,3.52-46.4.39-3.4.79-6.72,1.3-10.13.95-6.33,1.81-10.47,2.58-13.34.77-2.87,1.48-4.46,2.27-5.68.36-.55.77-1.3,1.06-1.6,1-.99.2,4.13-1.26,13.26-2.13,13.57-3.48,27.66-4.55,41.98-1.05,14.32-1.78,28.87-2.23,43.47-.28,9.21-.46,18.45-.5,27.69-.02,4.62,0,9.24.08,13.85.04,2.3.1,4.61.2,6.89.05,1.14.11,2.28.2,3.39l.09.95s0,.05.04.05h.03s-.03,0,.19.04l1.09.17c.71.13,1.53.15,2.29.23,1.56.11,3.15.18,4.75.19l.02.09Z"/><path class="cls-2" d="M391.88,123.82c.45,1.57,8.06,18.77,11.27,18.09s36.25-20.97,36.25-20.97l-11.78-17.14-35.75,20.02Z"/><path class="cls-1" d="M394.37,142.53c-1.66-2.51-3.22-5.09-4.73-7.74-.75-1.33-1.47-2.69-2.11-4.15-.31-.75-.61-1.49-.83-2.38-.07-.23-.09-.4-.15-.76-.08-.34-.06-.66-.05-.99-.02-.66.24-1.27.52-1.84.19-.23.39-.45.63-.64l.36-.29.31-.23.9-.61,1.78-1.14c2.29-1.43,4.53-2.9,6.84-4.25,8.18-4.74,16.37-9.34,24.99-13.4l1.47-.65.76-.31.39-.15.54-.19c.38-.11.76-.22,1.13-.26.37-.06.76,0,1.08.19.32.18.58.47.85.75.13.14.27.27.4.43l.31.39c1.33,1.71,2.52,3.41,3.72,5.12,1.53,2.19,3.07,4.38,4.54,6.62.72,1.12,1.37,2.3,2.02,3.47.35.57.6,1.21.84,1.84.23.64.52,1.25.71,1.91.22.84.28,1.22.19,1.24-.09.03-.38-.28-.99-.73-.62-.45-1.46-1.09-2.54-1.84-.98-.8-1.93-1.86-2.86-3.07l-4.48-6.73-2.27-3.32-1.15-1.62-.57-.77c-.11-.15-.05-.08-.07-.11v-.02s-.05-.04-.09-.04h-.04s-.02.01-.02.01l-.1.04-.43.16-.88.36c-1.19.51-2.41,1.08-3.62,1.65-2.42,1.16-4.85,2.38-7.29,3.6-5.83,2.93-11.64,6.49-17.37,9.91l-3.85,2.34-1.89,1.2-.91.61-.27.19c-.06.04-.12.08-.17.13-.13.16-.12.39-.1.59,0,.07.06.37.12.57.04.22.13.45.2.69.31.93.73,1.89,1.19,2.84.92,1.89,1.99,3.76,3.13,5.57,1.19,1.9,2.44,3.77,3.73,5.61.65.92,1.3,1.83,1.97,2.74l1.01,1.34.85,1.07c.14.16.28.4.53.33.22-.04.42-.11.65-.2.67-.28,1.46-.68,2.19-1.07,1.49-.79,2.97-1.65,4.45-2.51,2.95-1.74,5.88-3.52,8.8-5.29,4.54-2.75,8.92-5.59,13.6-8.11,1.03-.55,2.04-1.11,3.11-1.62,4-1.85,5.54-1.99,6.7-1.36.27.15.59.28.77.46.57.63-.92,1.55-3.66,2.88-4.09,1.99-8.19,4.38-12.35,6.83-4.16,2.5-8.39,5.04-12.62,7.58-1.58.95-3.17,1.9-4.8,2.82-.81.46-1.64.92-2.49,1.37-.43.22-.86.45-1.31.66l-.69.32-.41.17c-.21.08-.4.17-.62.24-.86.29-1.74.49-2.54.2-.41-.1-.74-.34-1.06-.64-.33-.28-.62-.64-.91-.99l-.96-1.24-.84-1.14c-1.11-1.52-2.18-3.06-3.22-4.61l.06-.05Z"/><path class="cls-1" d="M432.05,124.38c0,2.31-1.88,4.17-4.17,4.17-.4,0-.77-.06-1.13-.16-.55,1.62-2.1,2.8-3.93,2.8-2.3,0-4.16-1.88-4.16-4.17s1.86-4.17,4.16-4.17c.4,0,.77.06,1.13.16.55-1.62,2.1-2.79,3.93-2.79,2.3,0,4.17,1.86,4.17,4.16Z"/><path class="cls-1" d="M406.04,123.34c-1.11.56-2.21,1.12-3.31,1.71-.4.21-.77.48-1.17.69-1.42.74-2.85,1.48-4.27,2.22-.64.32-1.26.68-1.86,1.04-.4.22-.76.5-1.19.66-.45.13-.93.22-1.38.34-.29.06-.24.07-.09-.14.16-.19.36-.72.66-1.23.07-.1.13-.22.21-.31l.28-.21.56-.4,1.14-.79c.38-.25.77-.51,1.17-.74.41-.22.83-.42,1.25-.62,1.02-.47,1.95-1.17,2.93-1.75,1.08-.64,2.18-1.26,3.27-1.87l2.04-1.12c1.03-.56,2.09-1.08,3.1-1.67.79-.45,1.5-.99,2.27-1.48.17-.11.32-.23.5-.32.66-.33.94-.31,1.3.08.08.09.18.17.24.27.23.32.11.75-.3,1.11-1.22,1.08-2.65,1.89-4.08,2.74-1.07.61-2.15,1.25-3.25,1.83l-.03-.04Z"/><path class="cls-1" d="M403.75,130.65c-.45.14-.88.3-1.34.42-.16.05-.3.15-.47.19-.59.15-1.18.3-1.75.49-.25.09-.48.21-.73.31-.15.07-.3.14-.46.2-.18.03-.39-.01-.58-.02-.13-.02-.12-.04-.1-.19.03-.13.03-.48.1-.75.23-.3.47-.56.75-.77.3-.17.61-.31.95-.4.41-.11.73-.41,1.1-.61.4-.23.83-.4,1.26-.58.26-.11.53-.22.79-.34.39-.19.8-.34,1.16-.58.27-.19.5-.47.74-.71.05-.05.1-.12.16-.16.22-.16.37-.07.69.41l.22.32c.23.37.3.75.2.97-.32.65-.82,1.04-1.39,1.3-.41.21-.86.37-1.28.55l-.03-.05Z"/><path class="cls-3" d="M321.92,43.81c.43,1.65,4.83,25.8,1.36,29.38-3.17,3.26-27.56-5.81-27.56-5.81l34.2,12.99-2.68-34.1-2.16-3.95-3.15,1.48Z"/><path class="cls-1" d="M327.7,73.72c-.41-5.82-1.1-11.68-1.77-17.52-.24-2.13-.6-4.25-.87-6.37l-.38-2.8-.38-2.44c-.02-.14-.05-.3-.09-.45,0-.09-.1-.12-.17-.1-.07,0-.14.03-.22.05-.07.03-.15.05-.22.08-.1.04-.1.03-.28.13-.4.2-.8.42-1.21.65-3.23,1.84-6.39,3.96-9.53,6.07-2.78,1.88-5.52,3.87-8.21,5.85-1.72,1.28-3.46,2.56-5.21,3.8-1.75,1.25-3.54,2.46-5.46,3.46-1.19.64-1.32.13-.72-1,.3-.57.76-1.3,1.38-2.11.63-.79,1.46-1.58,2.45-2.32,3.48-2.65,7.06-5.19,10.69-7.67,3.64-2.48,7.31-4.94,11.19-7.19.59-.34,1.17-.67,1.76-1.01l.91-.5.46-.25.55-.28c1.02-.51,2.08-.9,2.96-.74.11,0,.23.06.35.09.09.1.18.16.25.24.15.15.3.3.43.51.23.43.38.98.52,1.52l.19.8.11.51.21,1.01.39,2.02c.25,1.35.48,2.69.7,4.03.95,5.9,1.62,11.83,2.2,17.77.17,1.83.33,3.67.45,5.51l.08,1.39c.02.49.04.84.05,1.62.01.68,0,1.37-.11,1.96-.06.3-.15.55-.25.8-.06.12-.12.23-.2.34l-.07.08h0c.04.06-.06-.06-.05-.05h0s0,0,0,0h-.02s-.05.03-.05.03c-.06.02-.12.04-.18.06-.64.29-1.72,0-2.69-.27l-1.25-.37-1-.31c-1.33-.42-2.66-.87-3.98-1.32-2.64-.9-5.25-1.84-7.85-2.78-4.04-1.47-8.04-2.81-12-4.43-.87-.36-1.74-.68-2.6-1.08-3.22-1.46-4.07-2.31-4.3-3.44-.05-.26-.15-.54-.14-.76.02-.37.4-.5,1.07-.43.67.07,1.64.31,2.8.8,6.91,2.78,14.3,5.58,21.79,8.18l4.18,1.41,3.44,1.09s.04.03.06.03c.01-.01.02-.03.02-.06,0,0,0,0,0-.02l-.02-.53-.06-1.08-.16-2.19h.08Z"/><path class="cls-1" d="M317.23,63.04c1.48-3.35,2.91-6.73,4.4-10.08.33-.75.24-1.73-.57-2.15-.68-.36-1.8-.24-2.15.57-1.48,3.35-2.91,6.73-4.4,10.08-.33.75-.24,1.73.57,2.15.68.36,1.8.24,2.15-.57h0Z"/><path class="cls-1" d="M313.3,65.48c-.38.01-.62.09-.96.25-.17.09-.34.22-.46.36-.26.3-.35.46-.49.84-.07.19-.09.43-.11.62-.02.2.03.44.06.62.03.2.13.39.22.57.07.13.21.29.29.38.02.03.05.06.08.08.27.23.5.39.85.48.37.1.66.08,1.04,0,.15-.03.35-.14.46-.18.04-.02.08-.04.12-.07.14-.09.27-.19.39-.31s.23-.28.32-.4c.02-.03.05-.07.07-.1.01-.02.02-.04.03-.06.06-.14.12-.28.18-.42.01-.04.03-.08.04-.12.04-.17.06-.35.07-.53,0-.04,0-.08,0-.12-.02-.15-.03-.36-.08-.53-.12-.35-.25-.6-.51-.87s-.53-.4-.88-.53c-.05-.02-.1-.04-.15-.05-.18-.03-.36-.07-.54-.07s-.37.04-.55.07c-.06.01-.11.03-.16.05-.15.06-.34.13-.49.22s-.29.2-.42.32c-.28.26-.42.56-.56.91-.06.2-.07.4-.03.6,0,.2.07.39.18.56.09.17.22.32.39.42.14.13.31.22.51.27l.4.05c.27,0,.52-.07.76-.2l.3-.23c.19-.19.31-.41.39-.66,0,0,0-.02.01-.03l-.15.36s.05-.09.08-.14l-.23.3s.08-.09.12-.12l-.3.23c.06-.04.12-.08.19-.11l-.36.15c.07-.03.14-.05.21-.06l-.4.05c.07,0,.15-.01.22,0l-.4-.05c.07,0,.13.03.2.05l-.36-.15c.05.02.1.05.15.09l-.3-.23s.07.06.1.1l-.23-.3s.05.08.07.13l-.15-.36s.03.1.04.15l-.05-.4c0,.07,0,.13,0,.2l.05-.4c-.01.08-.03.15-.06.22l.15-.36c-.03.07-.07.14-.12.2l.23-.3c-.04.05-.09.1-.14.14l.3-.23s-.09.06-.15.08l.36-.15s-.09.03-.14.04l.4-.05s-.1,0-.15,0l.4.05s-.08-.02-.12-.03l.36.15s-.07-.04-.11-.06l.3.23s-.07-.06-.09-.09l.23.3s-.05-.08-.07-.13l.15.36c-.03-.06-.04-.13-.05-.19l.05.4c0-.08,0-.15,0-.23l-.05.4c.01-.07.03-.15.06-.22l-.15.36c.02-.05.05-.1.09-.15l-.23.3s.06-.07.09-.09l-.3.23s.07-.04.1-.06l-.36.15s.07-.02.11-.03l-.4.05s.04,0,.06,0c.21,0,.4-.04.58-.13.19-.06.35-.16.48-.31.15-.14.25-.3.31-.48.09-.18.14-.37.13-.58l-.05-.4c-.07-.25-.2-.47-.39-.66l-.3-.23c-.23-.14-.49-.2-.76-.2h0Z"/><path class="cls-1" d="M207.25,66.75c1.79,2.84,2.86,6,3.38,9.14.5,3.16.51,6.44-.18,9.61-.53,2.31-1.34,4.57-2.6,6.57-2.2,3.56-5.5,6.25-9.09,8.05-1.81.88-3.7,1.57-5.63,2.05-1.94.45-3.9.73-5.87.83-3.5.12-7.03-.24-10.36-1.22-4.24-1.27-8.38-3.48-11.18-6.94-.77-1.17-.67-.98.41-.47,1.03.58,3.01,1.38,5.1,2.46,1.82,1.04,3.79,1.79,5.78,2.36,2,.57,4.05.99,6.13,1.12,4.15.27,8.38-.25,12.28-1.76,4.72-1.74,8.71-5.58,10.61-10.19,2.15-5.07,1.65-11.1-.27-16.34-1.21-3.22-3.37-6.02-6.23-7.88-4.37-2.79-10.06-3.42-15.3-2.43-4.11.74-7.88,2.52-11.33,4.66-.77.47-1.47,1-2.19,1.53-2.61,2.05-3.64,2.51-4.58,2.67-.22.03-.48.1-.64.09-.28-.02-.26-.35.02-.99.28-.63.81-1.57,1.7-2.6,5.55-5.84,13.93-9.45,22.76-9.41,1.64,0,3.3.22,4.94.54,1.64.39,3.27.89,4.8,1.68,3.07,1.51,5.78,3.92,7.62,6.78l-.07.06Z"/><path class="cls-1" d="M153.76,109.59l1.16-.57c.39-.19.73-.46,1.1-.68.76-.44,1.41-1.02,2.09-1.58.52-.39.85-.96,1.31-1.41,1.53-1.66,2.95-3.55,3.84-5.71.25-.46.35-.97.53-1.46.14-.5.34-.98.41-1.49.12-.65.16-1.31.38-1.95.07-.33.11-.65.24-.98.14-.33.28-.66.42-1,.19-.42.21-.37.43,0,.11.18.29.45.53.78.11.17.26.35.36.55.08.2.15.4.19.62.3,3.05-.78,6.09-2.48,8.59-.26.37-.5.76-.73,1.15l-.79,1.13c-.49.79-1.07,1.51-1.69,2.19l-.51.57-.56.51-1.13,1.01c-.39.32-.82.6-1.23.89-.42.28-.81.61-1.27.83l-1.64.89-1.72.71c-.43.2-.88.32-1.34.43l-1.36.36c-.93.14-1.85.3-2.78.4-.72.03-1.44.11-2.17.2l-2.19-.02c-.33,0-.64-.02-.96-.11-1.17-.32-1.48-.64-1.47-1.44,0-.18-.01-.37.01-.54.09-.58.68-.96,1.46-.99,1.16-.02,2.27-.06,3.38-.03.56-.06,1.11-.1,1.67-.12.56-.02,1.1-.18,1.66-.24.2-.03.41-.05.62-.1l.6-.17c.4-.11.81-.22,1.22-.32l1.19-.45c.4-.15.8-.29,1.17-.52l.04.07Z"/><path class="cls-1" d="M96.84,130.46c1.72-1.54,3.26-3.16,4.56-4.95.32-.44.62-.92.91-1.37.22-.38.42-.81.59-1.28.34-.95.57-2.03.75-3.15.66-4.5.75-9.36,1.24-14.15.33-3.51.73-7.06,1.53-10.54.73-3.07,1.69-6.1,2.98-9.01,1.3-2.9,2.92-5.67,4.85-8.2,1.95-2.52,4.19-4.8,6.66-6.78,2.46-1.99,5.15-3.69,8.02-5.05,2.54-1.21,5.25-2.11,8.05-2.63,2.8-.5,5.68-.59,8.47-.22,7.16.98,14.02,4.16,19.03,9.17,1.44,1.71,1.22,1.47-.56.8-1.78-.7-5.08-1.71-8.51-3.32-6.04-2.99-12.77-4.34-19.15-2.93-6.4,1.44-12.44,5.17-17.25,10-2.88,2.9-5.19,6.48-6.88,10.35-1.68,3.89-2.74,8.08-3.44,12.3-.79,4.65-1.06,9.4-1.37,14.22-.16,2.41-.33,4.84-.76,7.32-.22,1.24-.53,2.5-1.08,3.75-.13.31-.32.62-.48.93l-.51.8c-.33.54-.72,1.04-1.09,1.54-3.77,5-9.03,8.12-12.65,12.52-2.8,3.18-4.1,7.48-4.13,11.77-.07,4.28,1.32,8.59,4.3,11.59,2.25,2.36,5.29,3.81,8.46,4.46,3.19.66,6.51.61,9.76.15,1.43-.21,2.82-.52,4.23-.89,2.61-.69,4.25-1.34,5.42-1.72.59-.19,1.05-.33,1.47-.4.43-.05.8-.06,1.16-.06.34.02.71-.09.95-.07.2.02.26.13.18.38-.07.25-.29.62-.66,1.06-.73.93-2.23,1.83-4.22,2.68-2.98,1.22-6.14,2.01-9.42,2.38-3.27.37-6.7.27-10.08-.55-3.37-.8-6.74-2.49-9.29-5.13-1.27-1.31-2.37-2.8-3.19-4.42-.86-1.63-1.44-3.39-1.79-5.15-.53-2.62-.54-5.29-.18-7.91.4-2.62,1.19-5.21,2.6-7.59,2.95-4.65,7.06-7.6,10.49-10.76l.06.05Z"/><path class="cls-1" d="M169.94,157.99c.52-.01,1.01.04,1.46.12.19.02.58.12.76.18.23.07.42.14.61.21.76.28,1.42.57,2.09.86.66.28,1.32.56,1.95.79.6.24,1.33.43,1.42.41,1.38-.06,2.7-.23,3.99-.55,1.29-.32,2.56-.81,3.86-1.38,1.89-.78,3.36-1.85,4.68-3.25,1.16-1.22,2.11-2.7,2.95-4.29.41-.8.8-1.62,1.17-2.46.32-.68.56-1.61.82-2.49l.4-1.36.11-.35.06-.19c.04-.09,0-.05.12-.32.15-.4.67-.78.9-.84.11-.04.11-.02.17-.03.09,0,.2-.01.25-.09.04-.08.06-.17.09-.26l.04-.14.09-.32.18-.66c.44-1.77.8-3.56,1.05-5.37.46-3.22.5-6.51.23-9.71-.18-2.06-.46-4.11-.87-6.13-.45-2.02-.91-4.03-1.36-6.04-.28-1.28,0-1.25.91-.41.46.42,1.11,1.04,1.71,1.89.62.84,1.2,1.91,1.5,3.15.58,2.19,1.02,4.41,1.24,6.65.17,2.25.18,4.5.05,6.74-.13,2.24-.43,4.47-.88,6.68-.22,1.1-.51,2.19-.8,3.28l-.25.81-.17.56c-.07.23-.13.48-.22.68-.16.43-.45.79-.85,1.01-.19.1-.4.18-.63.24-.11.02-.25.06-.35.06h-.07s-.03,0-.03,0l-.36-.87c-.02-.05-.07-.12-.07-.13-.06-.08-.02,0,.07.02h0c-.2-.07,1.79.6.95.32h0s0,.01,0,.01v.02s-.03.05-.03.05l-.04.1-.15.43-.29.92c-.2.64-.4,1.28-.6,1.93-.1.32-.23.7-.39,1.07l-.42.93c-.28.62-.58,1.24-.89,1.87-1.22,2.47-2.84,4.99-5.2,6.79-1.25.99-2.76,1.74-4.1,2.31-1.38.6-2.84,1.16-4.37,1.51-.76.18-1.53.31-2.3.4-.38.05-.76.08-1.15.11l-.57.04c-.22.01-.6,0-.8-.04-.94-.17-1.62-.44-2.34-.71l-2.07-.83c-.63-.26-1.27-.52-1.84-.71-.15-.05-.26-.08-.37-.1l-.43-.06c-.28-.03-.54-.03-.79-.01-.5.06-.83.21-1.33.6l-.21.16c-.09.07-.21.15-.31.22-.22.14-.44.26-.69.34-.49.19-1.01.13-1.51.04l-1.33-.4c-.42-.13-.85-.24-1.26-.39-2.66-.9-5.2-2.14-7.59-3.61-2.39-1.46-4.6-3.19-6.59-5.12-3.14-2.96-5.78-6.36-7.77-10.19-.47-.83-.83-1.69-1.21-2.57-.38-.81-.53-1.54-.69-2.13-.15-.6-.27-1.08-.27-1.51,0-.84.11-1.35.34-1.78.1-.2.19-.44.3-.56.35-.4,1.12.86,2.09,3.08,1.38,3.31,3.14,6.52,5.41,9.42,2.26,2.9,4.99,5.47,8.05,7.6.82.63,1.75,1.1,2.61,1.66.92.46,1.81,1.01,2.76,1.4l1.42.63,1.46.53c.48.18.97.36,1.47.48l.75.21.37.11.19.05s.04.02.06,0c0,.03.03,0,.04.02h.02s.36-.28.36-.28c.37-.28.89-.6,1.46-.81.58-.22,1.17-.3,1.71-.33v.08Z"/><path class="cls-1" d="M193.4,156.78c-.79,1.14-1.62,2.33-2.63,3.46-1,1.12-2.19,2.19-3.61,2.97-1.41.79-3,1.23-4.56,1.36l-1.17.04c-.39,0-.96-.06-1.34-.15-.83-.2-1.54-.47-2.21-.76-1.95-.84-3.71-1.72-5.47-2.42-.92-.35-1.83-.64-2.7-.75l-.62-.03c-.21-.01-.38.05-.57.06-.2.01-.2.04-.3.06-.08.02-.15.06-.23.11-.18.08-.36.28-.27.48.1.2.19.3.44.52.89.69,1.94,1.36,2.97,2.04,2.07,1.39,4.16,2.87,6.06,4.6,1.2,1.11,2.35,2.28,3.35,3.61.51.67.96,1.3,1.4,2.15.38.82.63,1.65.82,2.44.45,2.04.81,3.89,1.56,5.53.17.42.41.8.63,1.19.2.41.43.81.68,1.2.28.37.52.79.86,1.14.31.36.44.98.84,1.28.95.8.83.7-.12.21-.44-.28-1.46-.21-2.33-.73-.44-.25-.98-.49-1.46-.87-.25-.19-.51-.39-.77-.59-.19-.26-.4-.52-.59-.8-.62-1.02-1.16-2.11-1.47-3.21-.3-1.1-.5-2.16-.7-3.12-.2-.96-.41-1.8-.73-2.44-.1-.16-.14-.29-.27-.48l-.38-.57c-.27-.37-.54-.75-.83-1.1-2.33-2.93-5.58-5.18-8.93-7.59l-1.32-.97-.68-.52-.34-.28c-.14-.11-.35-.29-.5-.44-.68-.61-1.14-1.35-1.26-2.15-.11-.84.34-1.61.99-2.13.94-.7,2.22-1.15,3.02-1.2.44-.03.88-.01,1.31,0,.41.06.83.11,1.23.19,1.58.35,2.98.94,4.32,1.55,1.28.59,2.52,1.21,3.73,1.69.59.22,1.2.44,1.69.49.13,0,.23.04.38.04l.47-.02c.31-.02.63,0,.93-.07,2.48-.25,4.57-1.73,6.22-3.77,1.04-1.24,1.95-2.66,2.92-4.08.48-.71,1-1.43,1.55-2.13l.71-.96c.19-.34.42-.66.58-1.02.69-1.35,1.14-2.85,1.56-4.43.11-.39.21-.8.34-1.21.07-.21.12-.41.2-.62.07-.18.19-.54.33-.76.28-.5.59-1,1.08-1.27.11-.09.23-.15.37-.18.13-.04.26-.11.39-.12.28.02.56-.04.82.02.64.15,1.24.46,1.65,1,.4.5.73,1.22.84,1.69.3,1.04.36,2.05.37,3.04-.07,4.17-.98,8.11-2.43,11.92-.33.84-.65,1.66-1.06,2.47-.77,1.51-1.41,2.44-1.98,3-.61.54-1.08.75-1.57.8-.22.03-.47.1-.64.07-.29-.04-.3-.39-.13-.97.17-.59.48-1.44,1.02-2.43,1.53-2.98,2.7-6.3,3.45-9.7.36-1.7.62-3.43.64-5.09,0-.82-.06-1.63-.22-2.28-.05-.14-.09-.32-.14-.42.03.06.02.04.02.04h0s0,0,0,0c0,0,0,0,0,0h0s.02-.05-.04.12c-.09.27-.18.54-.27.86-.35,1.25-.69,2.68-1.25,4.1-.28.71-.6,1.42-.99,2.12-.21.34-.39.69-.64,1.02l-.7.93c-.78.97-1.52,2.08-2.29,3.22l-.06-.03Z"/><path class="cls-1" d="M200.13,210.11c-2.53-.13-4.96-.53-7.35-1.02-.87-.18-1.76-.29-2.62-.52-3.03-.8-5.98-1.87-8.84-3.1-1.26-.56-2.57-1.07-3.8-1.7-.79-.4-1.59-.8-2.35-1.3-.38-.25-.72-.55-1.05-.86-.17-.16-.33-.31-.49-.48-.15-.18-.26-.4-.39-.6-.29-.53-.11-.6.53-.68.68-.12,1.71-.21,2.6.11,2.98,1.42,6.02,2.82,9.22,4.19,1.91.83,4.06,1.2,6.13,1.64,2.28.49,4.59.89,6.9,1.07,1.41.1,2.85.17,4.19-.01.49-.06.63-.08.9-.16.24-.06.49-.16.68-.33.32-.24.27-.7.07-1-.09-.16-.21-.31-.34-.44l-.2-.19c-.07-.06-.21-.18-.32-.27-1.24-.99-2.8-1.62-4.29-2.24-.33-.15-.66-.26-.98-.42-.3-.14-.54-.27-.74-.4-.19-.14-.32-.3-.43-.45-.21-.29-.27-.63-.27-1.03,0-.18-.04-.36-.03-.5,0-.44.81-.9,1.95-.78.8.16,1.61.37,2.4.65.77.32,1.53.68,2.27,1.12.75.44,1.48.92,2.21,1.54l.27.24.14.13c.07.06.14.12.21.2.27.29.56.57.78.89.47.62.82,1.29.95,1.98.22.88-.02,1.86-.51,2.61-.53.62-1.14,1.19-2.03,1.48-.41.2-.85.29-1.28.39-.51.14-.69.13-.98.18-1.09.13-2.11.15-3.12.13v-.08Z"/><path class="cls-1" d="M199.33,282.39c-2.66.23-5.31.48-7.97.56-1.33.05-2.66.15-3.99.15l-3.99.03c-1.94.06-3.88,0-5.82-.07-6.83-.39-13.62-1.14-20.32-2.36-1.5-.21-2.97-.54-4.46-.8-1.48-.29-2.98-.48-4.44-.82-3.75-.83-7.63-1.3-11.11-3.14-1.05-.68-.93-.53.16-.69.54-.05,1.37-.41,2.25-.36.89-.01,1.92.05,2.99.27,7.57,1.65,15.18,2.98,22.91,4.06,1.16.16,2.33.3,3.51.42,1.19.07,2.38.13,3.57.2,2.39.16,4.8.13,7.19.17l1.97.04,1.97-.02,3.94-.04,3.94-.19c1.31-.07,2.63-.11,3.94-.26l4.84-.45,4.81-.66c2.43-.32,4.84-.83,7.27-1.24,2.4-.51,4.8-1.04,7.16-1.65,1.82-.52,3.62-1.07,5.4-1.64,1.76-.63,3.52-1.27,5.28-1.9.78-.27,1.52-.59,2.3-.89,2.88-1.07,3.88-1.2,4.82-.56.21.14.47.26.62.42.51.51-.47,1.52-2.57,2.46-6.21,2.82-13.12,4.96-20.19,6.48-1.3.32-2.62.57-3.95.8l-3.97.72-4,.56c-1.33.18-2.67.38-4.01.5l-.02-.08Z"/><path class="cls-1" d="M232.63,195.88c1.92,3.25,3.85,6.48,5.91,9.59.75,1.14,1.59,2.21,2.38,3.31,1.38,1.95,2.81,3.85,4.38,5.6.39.43.79.87,1.21,1.27.41.42.83.81,1.27,1.18.86.76,1.78,1.43,2.74,1.94,1.65.86,3.85,1.14,5.61.77.58-.12,1.12-.34,1.66-.61.52-.31,1.06-.63,1.58-1.01.53-.38,1.05-.8,1.57-1.24l.78-.66c.26-.22.64-.34.92-.56.74-.49.6-.46.29.23-.17.33-.19,1.01-.5,1.58-.28.61-.61,1.32-1.16,2-.91,1.22-2.26,2.36-3.96,2.96-1.7.67-3.49.54-5.04.28-.38-.06-.78-.14-1.21-.28-.42-.12-.85-.24-1.22-.42-.79-.32-1.48-.74-2.16-1.16-1.3-.89-2.44-1.93-3.44-3.04-2.39-2.64-4.73-5.37-6.74-8.25-2.21-3.17-4.23-6.43-6.21-9.7l-3.62-6.05c-1.83-3.04-3.63-6.12-5.59-9.03-1.53-2.26-3.21-4.35-4.93-6.38-.37-.45-.78-.86-1.16-1.3-1.42-1.64-1.73-2.24-1.47-3.16.06-.21.09-.44.18-.62.15-.3.47-.37.93-.23.46.14,1.07.48,1.68,1.07,3.7,3.46,6.6,7.79,9.39,12.12,2.06,3.23,4,6.53,6,9.77l-.06.05Z"/><path class="cls-1" d="M295.59,176.01c-.29-.57-.62-1.15-.95-1.6-.35-.48-.8-.97-1.27-1.44-.95-.94-2.03-1.82-3.17-2.64-1.14-.81-2.33-1.58-3.55-2.27-.61-.35-1.23-.68-1.86-.99l-.94-.45-.47-.21-.39-.17c-.23-.1-.49-.18-.74-.19-.11,0-.28.02-.31.15,0,.13.08.23.14.33.05.09.11.18.18.28l.11.15.06.07.19.23,1.83,2.1c.62.71,1.25,1.42,1.87,2.16l.48.59c.25.31.47.62.69.93.43.63.72,1.26.7,1.89,0,.08-.03.16-.04.24-.01.04-.04.08-.06.11l-.03.06s.17.05.09.03h0s0,.02,0,.02v.02c0,.12-.04.3-.13.44-.16.28-.4.47-.66.66-.53.37-1.31.54-2.03.72l-.54.11-.36.06-.71.12-1.41.21c-1.86.27-3.71.53-5.51.88-.8.16-1.58.36-2.34.59-.19.06-.38.12-.56.19l-.27.1-.17.07c-.22.09-.37.17-.55.28-.16.12-.32.25-.41.43-.1.18,0,.4.12.55.28.3.7.37,1.07.42l.63.06c.24.01.49.03.74.02.5,0,1-.02,1.51-.06,1.02-.07,2.03-.24,3.06-.36,1.03-.13,2.05-.31,3.08-.48.52-.08,1.03-.17,1.55-.28.52-.09,1.07-.09,1.6-.17,1.35-.15,1.1-.34.16.34-.91.74-2.67,2.26-5.15,2.94-.54.16-1.09.32-1.65.45-.56.1-1.12.2-1.7.28-1.15.15-2.31.25-3.57.19l-.48-.03-.77-.11c-.52-.1-1.07-.21-1.51-.43-.92-.41-1.62-1.03-1.94-1.85-.19-.4-.24-.85-.28-1.29.06-.43.17-.85.38-1.23.4-.75,1.15-1.42,2.11-1.88.23-.13.46-.21.69-.31.24-.1.48-.21.59-.24.29-.1.58-.19.87-.27.57-.17,1.14-.29,1.7-.41,1.12-.25,2.21-.45,3.31-.63l3.25-.48,1.59-.23.78-.13c.06,0,.13,0,.2,0,.09,0,.18-.02.27-.04.08-.02.23-.06.19-.16.07-.18-.09-.34-.19-.5l-.09-.12-.3-.36-.64-.73-1.34-1.47-1.38-1.49-.69-.76c-.33-.36-.73-.83-1.07-1.25-.69-.87-1.23-1.76-1.4-2.5-.1-.38-.09-.69-.03-1.06,0-.19.11-.4.26-.56.13-.17.27-.32.44-.42.7-.44,1.57-.52,2.65-.37.55.11,1.11.25,1.68.43.53.17,1.25.44,1.51.55,1.42.59,2.77,1.28,4.09,2.03,1.31.75,2.58,1.56,3.81,2.45,1.23.88,2.43,1.83,3.54,2.93.67.67,1.35,1.45,1.87,2.29.52.83.96,1.69,1.33,2.56.75,1.76,1.26,3.58,1.59,5.43.25,1.39.38,2.86.38,4.25.04,1.4,0,2.8-.08,4.2-.17,2.79-.58,5.56-1.14,8.27-.88,4.21-2.03,8.27-3.41,12.25-.31.87-.58,1.74-.91,2.61-1.24,3.23-1.84,4.16-2.88,4.54-.23.09-.48.23-.68.25-.66.09-.68-1.43.08-3.84,2.2-7.15,4.87-14.43,5.64-21.97.15-1.4.24-2.8.26-4.2.03-.7,0-1.41-.01-2.11,0-.72-.04-1.38-.11-2.05-.14-1.34-.39-2.68-.76-3.98-.35-1.3-.81-2.57-1.4-3.73l.06-.04Z"/><path class="cls-1" d="M275.35,190.3s.03.1.09.15c-.04,0,.21.11.42.19.21.08.43.16.67.23.93.29,1.96.49,3.01.64.77.11,1.55.12,2.34.22l.96.12.71.09c.27.03.53.07.8.11.5.1,1.01.21,1.32.47l.2.23s.07.08.1.13l.02.04v.02s.02,0,.02,0h0s0,0,0,0h0s-.07.05.07-.05l.03.07c.07.18.1.37.12.58.01.54-.16,1.17-.34,1.78l-.21.75-.14.53c-.18.7-.31,1.4-.34,2.08-.02.55.05,1.09.22,1.57l.15.34c.06.12.14.26.21.39.15.26.3.52.46.76.4.66.92,1.18,1.33,1.79.47.54.94,1.14,1.68,1.38.46.07.44.08,0,.22-.22.04-.56.14-1.01.15-.47.04-1.01-.07-1.51-.31-.43-.23-.88-.45-1.21-.78-.33-.32-.63-.66-.92-1.01-.28-.35-.55-.7-.8-1.07-.21-.3-.58-.89-.72-1.4-.35-1.05-.38-2.06-.31-3,.04-.47.11-.92.19-1.37.04-.22.11-.44.16-.65l.09-.32.02-.08s0,0,.01-.01l.02-.03c.07-.09.13-.22.19-.36.02-.06.06-.13.04-.19-.04-.05-.1-.05-.16-.07-.12-.02-.25-.03-.38-.04l-.95-.04-1.21-.07c-1.12-.09-2.26-.21-3.41-.41-.57-.1-1.15-.22-1.74-.38-.61-.19-1.08-.29-1.94-.73-.94-.47-1.66-1.2-1.96-2.08-.13-.45-.17-.92-.1-1.37.08-.46.32-.86.67-1.15.5-.46,1.21-.77,1.93-.98.17-.06.38-.11.53-.15l.4-.1.8-.16c1.06-.2,2.1-.33,3.13-.46,1.61-.21,3.17-.51,4.76-.69.35-.04.7-.1,1.05-.12,1.32-.07,1.78.14,2.04.88.06.17.14.34.16.51.07.57-.41,1-1.33,1.19-2.71.58-5.63.98-8.37,1.51-.51.09-1.01.19-1.48.3l-.35.09c-.05.01-.02,0-.03,0,0,0-.01,0-.02,0-.04-.02-.12.02-.1.08l-.09.04Z"/><path class="cls-1" d="M296.36,221.39c-2.14-.62-4.08-1.46-6-2.34-.7-.32-1.42-.58-2.1-.93-2.4-1.23-4.67-2.66-6.9-4.14-.99-.65-1.99-1.31-2.98-1.96-.63-.43-1.24-.9-1.81-1.42-.28-.27-.59-.5-.8-.85-.19-.37-.37-.73-.53-1.1-.18-.47-.16-.39.25-.23.2.08.53.15.94.19.19.03.44.01.64.07.18.07.35.17.52.27.6.39,1.24.75,1.87,1.12.61.4,1.24.79,1.86,1.17,1.26.77,2.53,1.55,3.81,2.34,1.53.95,3.29,1.63,4.98,2.36,1.85.8,3.73,1.56,5.63,2.13,1.16.34,2.36.64,3.47.69.38.02.62.02.94-.09.35-.13.66-.46.62-.85-.04-.4-.21-.69-.52-1.09-.82-1.05-2.07-1.79-3.21-2.62-.25-.18-.53-.33-.78-.52-.94-.7-1.09-1.13-.8-1.94.07-.18.11-.38.2-.55.27-.55,1.01-.72,1.86-.34,1.25.58,2.52,1.26,3.63,2.27.57.52,1.12,1.04,1.65,1.75l.2.27.27.42c.17.29.34.57.44.89.27.62.4,1.26.38,1.9-.04.31-.03.62-.15.91l-.14.45c-.07.14-.17.26-.25.39-.09.13-.16.27-.26.38l-.34.32c-.23.21-.45.43-.71.6-.3.14-.6.27-.91.38-.3.12-.66.13-.98.2-.32.08-.7.05-1.02.05-.24,0-.44-.02-.65-.05-.85-.09-1.6-.26-2.34-.44v-.08Z"/><path class="cls-4" d="M292.53,169.97c-.02-.84,2.3-8.86,2.3-8.86-2.98.07-20.7-.65-20.7-.65l-10.41,38.7s20.17,1.41,20.37.1c.2-1.3,2.46-4.91.95-5.64-1.51-.73-12.42-.74-12.1-2.74.33-2-3.35-5.29-1.95-7.07,1.39-1.78-.05-4.22,1.42-4.82,1.47-.6,16.2-4.27,12.25-7.94s-5.3-7.5-3.17-6.81c2.14.69,11.03,5.75,11.03,5.75Z"/><path class="cls-1" d="M158.37,260.23c.13,1.01-.1,2.11-.82,2.94-.26.29-.51.58-.84.75-.58.29-1.21.41-1.84.31-.63-.07-1.24-.43-1.6-.95-.31-.45-.47-.93-.51-1.41-.02-.31,0-.64.12-.95.12-.31.37-.6.69-.73.21-.08.34.26.48.6.13.35.42.65.45.7.03.13.12.31.19.4.09.09.01.05.14.22.17.19.51-.01.69-.18.22-.15.38-.41.39-.81,0-.24-.04-.5-.16-.74-.08-.17-.21-.35-.33-.46-.05-.05-.09-.07-.1-.07,0,0,0,0,0-.03,0,.05,0,.02,0,.03,0-.04,0-.06-.01-.07-.01,0,.06.11.07.12.01.02.02.06.03.11.02.13.05.27.07.4.01.07.05.14.04.2-.02.24-.22.29-.95.35l-.5.04c-.55.04-1.03-.15-1.18-.54-.23-.58-.24-1.21.2-2.05.23-.4.69-.92,1.43-1.16.36-.12.73-.15,1.06-.12.36.03.7.14.96.27.78.43,1.04.85,1.34,1.31.27.47.46.96.55,1.48l-.06.02Z"/><path class="cls-1" d="M195.58,225.62c.48.42.75.93.9,1.41.14.49.2.94.11,1.41-.04.34-.07.67-.17.99-.25.6-.78,1.01-1.32,1.24-.24.09-.49.13-.73.18-.25,0-.5-.01-.74-.08-.46-.13-.89-.32-1.28-.59-.48-.33-.97-.96-.74-1.59.06-.2.51-.1.96-.04.45.08.89,0,.88-.03.05-.04-.14.07.23.34l.06.03c.2.04.24-.15.3-.27.12-.15.06-.45-.01-.59-.04-.09-.08-.14-.15-.16-.07-.03-.36-.03-.5.22-.11.19.04.46.1.51,0,.02.04.02.03.02-.04,0-.24.07-.81.44l-.38.26c-.4.3-.91.39-1.27,0-.26-.28-.44-.65-.54-1.04-.1-.39-.06-.78.02-1.15.2-.72.69-1.32,1.35-1.77.49-.34,1.16-.53,1.86-.5.7.03,1.37.29,1.88.7l-.04.06Z"/><path class="cls-1" d="M229.27,248.49c-.07,1.07-.53,1.91-1.17,2.56-.23.23-.46.5-.77.66-.56.27-1.23.38-1.84.25-.68-.14-1.19-.57-1.48-1.01-.27-.39-.44-.81-.49-1.27-.11-.54.1-1.35.73-1.58.19-.07.29.2.43.49.11.3.4.59.49.61.13.09.28.18.41.25.06.11.07.18.05.3-.03.07.09.08.16.04.08-.04.14-.12.24-.18.22-.14.45-.44.53-.74.06-.17.06-.4.02-.56-.02-.06-.04-.1-.06-.13-.01-.01,0-.02-.01-.02,0-.01-.09-.02-.18.04-.07.05-.12.16-.13.26,0,.05,0,.1.02.14,0,.04.09.08-.03,0-.06-.04-.12-.07-.17-.08-.1-.03-.07-.02-.09-.02h.02s.01,0,0,0c-.03,0-.06.01-.09.02-.13.02-.28.06-.47.12-.17.05-.33.11-.48.17-.27.1-.52.15-.77.08-.25-.06-.51-.25-.63-.59-.2-.49-.05-1.03.12-1.46.19-.44.47-.79.8-1.08.66-.56,1.61-.79,2.72-.52.41.11.82.33,1.16.64.16.15.32.32.43.48.1.15.19.31.26.46.3.61.37,1.13.37,1.66h-.07Z"/><path class="cls-1" d="M281.51,232.92c.22,1.06,0,1.99-.41,2.79-.15.29-.28.6-.52.85-.42.42-.92.71-1.47.87-.55.16-1.22.17-1.78-.11-.58-.26-.91-.78-1.04-1.25-.05-.16-.08-.31-.08-.48-.02-.16.05-.34.05-.5.07-.33.33-.61.66-.71.22-.06.37.24.59.56.2.33.54.57.57.55-.02,0,.08-.01.11-.01.05-.02-.13.05-.22.15-.05.05-.08.1-.08.11h0s.15-.36.15-.36h0s0,0,0,0c0,0,0-.02,0-.02,0-.06,0-.05.01-.02.01.02.04.05.08.07.22.11.43-.23.54-.41.16-.23.28-.59.26-.91,0-.2-.06-.38-.14-.51-.04-.05-.07-.09-.12-.13-.03-.03-.06-.05-.1-.07-.08-.04-.22-.05-.34,0-.21.07-.28.41-.15.5-.03-.02-.09-.06-.13-.08-.07-.03-.06-.02-.08-.03,0,0,.03,0,0,0-.05,0-.11,0-.18,0-.13,0-.3,0-.5.03-.19.02-.37.05-.55.07-.6.11-1.2-.07-1.28-.72-.12-.95.47-1.83,1.13-2.29.67-.5,1.53-.69,2.44-.53.34.06.69.18,1.01.36.34.2.6.41.81.64.44.47.71,1.03.86,1.55l-.07.03Z"/><path class="cls-1" d="M328.9,131.78c3.07,3.58,6.56,6.98,9.4,10.65.54.69,1.4,1.07,2.22.58.68-.4,1.12-1.52.58-2.22-3.07-3.97-6.65-7.5-9.91-11.31-.57-.67-1.71-.59-2.3,0-.66.66-.57,1.63,0,2.3h0Z"/><path class="cls-1" d="M330.22,141.44c3.65-2.62,7.3-5.23,10.95-7.85.71-.51,1.06-1.42.58-2.22-.41-.7-1.51-1.1-2.22-.58-3.65,2.62-7.3,5.23-10.95,7.85-.71.51-1.06,1.42-.58,2.22.41.7,1.51,1.1,2.22.58h0Z"/><path class="cls-1" d="M349.13,143.93c-1.14,1.98-2.66,3.83-4.6,5.11-.69.48-1.39.96-2.16,1.29-2.72,1.16-5.7,1.42-8.49,1.03-1.24-.19-2.47-.43-3.64-.83-1.49-.5-3.03-1.07-4.19-2.19-.37-.32-.18-.48.32-.53.25-.02.58-.02.95,0,.37.03.78.08,1.15.26,2.73,1.16,5.64,1.62,8.57,1.49,1.77-.05,3.51-.78,5.04-1.65,1.73-.92,3.18-2.29,4.3-3.95.67-1.03,1.28-2.13,1.68-3.31.65-1.77,1.05-3.68,1.04-5.57,0-1.47-.34-2.89-.8-4.22-.09-.3-.22-.57-.34-.86-.1-.27-.18-.49-.22-.69-.06-.19-.1-.35-.09-.5.04-.31.18-.54.39-.79.1-.11.18-.24.28-.33.17-.15.38-.15.66-.02.27.13.64.38.88.82,1.45,2.59,1.86,5.84,1.44,8.9-.31,2.28-1.01,4.52-2.12,6.56l-.05-.02Z"/><path class="cls-1" d="M334.85,152.94c-5.24-.39-10.29-2.86-13.5-7.05-1.16-1.52-2.13-3.22-2.67-5.06-.99-3.23-.84-6.7.09-9.85,1.01-3.13,2.84-6.04,5.43-8.08,2.31-1.87,5.08-2.94,7.86-3.48,1.79-.37,3.66-.43,5.51-.13.46.06.92.18,1.38.31.45.12.91.28,1.33.51.42.22.82.51,1.21.77.36.33.74.61,1.03.99.74.94.41.91-.51.63-.22-.08-.52-.12-.84-.17-.16-.02-.33-.04-.49-.07-.18,0-.36-.01-.55-.02-.19,0-.37-.02-.57-.01-.2,0-.42.05-.61.01-.38-.06-.82-.05-1.23-.13-.38-.04-.77-.06-1.15-.08-.39.01-.78,0-1.17.03-.39.04-.78.05-1.17.12-.39.05-.79.05-1.18.13-1.56.23-3.11.67-4.53,1.31-2.79,1.21-5.07,3.62-6.5,6.51-1.77,3.49-1.65,7.96,0,11.54.92,1.97,2.31,3.73,4.07,5.09,1.76,1.35,3.82,2.37,6,2.92,2.69.66,5.57.65,8.18-.23,1.96-.68,3.76-1.8,5.22-3.33,1.46-1.52,2.55-3.39,3.23-5.37l.21-.57.14-.59c.09-.4.18-.79.25-1.18.06-.8.2-1.59.12-2.38,0-1.58-.4-3.11-.98-4.5-.15-.3-.29-.59-.44-.89-.13-.3-.37-.54-.54-.82-.16-.26-.31-.49-.45-.71-.16-.2-.3-.39-.42-.56-.25-.34-.4-.68-.57-.92-.33-.49-.43-.92-.41-1.42,0-.23-.03-.48,0-.67.06-.32.38-.4.96-.25.57.16,1.43.52,2.27,1.35,1.34,1.14,2.2,2.77,2.88,4.43.25.86.58,1.72.66,2.62.06.45.14.9.17,1.35v1.35c.03.45-.01.9-.07,1.35l-.17,1.34-.32,1.31c-.1.44-.22.88-.39,1.29l-.48,1.27c-.18.41-.4.81-.6,1.22-.38.83-.93,1.56-1.43,2.32-1.6,2.18-3.76,4.03-6.3,5.16-2.51,1.18-5.28,1.53-7.94,1.39v-.07Z"/><path class="cls-1" d="M173.35,126.53c-.53.96-1.15,1.78-2.12,1.87-.33.02-.64,0-.94-.15-.54-.28-1.01-.82-1.33-1.4-.07-.16-.14-.31-.2-.46l-.11-.48c-.03-.33-.03-.52,0-.78.04-.43.12-.83.27-1.2.16-.49.56-.87.99-1.09.14-.07.15-.02.14.14-.02.15,0,.43,0,.67,0,.43-.05.76.02,1.08.04.3.21.62.09.7-.04.24.14.34.29.46.21.21.47.04.61-.16.09-.13.18-.3.2-.51.03-.37-.06-.83-.25-1.07-.01-.02-.03-.04-.05-.06-.19-.19-.46-.15-.68-.06-.02.1,0-.11,0-.17-.02-.15-.05-.18-.04-.16,0,0,0,0,.01.01-.07-.09-.17-.2-.3-.32-.12-.11-.25-.21-.38-.32-.22-.17-.39-.36-.42-.61-.05-.24.07-.54.37-.74.35-.23.77-.33,1.13-.34.26-.03.6.01.89.12.6.2,1.14.62,1.53,1.17.16.28.31.55.39.77.18.47.26.95.26,1.43,0,.12,0,.23-.01.37l-.06.45c-.04.3-.12.58-.21.86l-.06-.02Z"/><path class="cls-1" d="M188.73,123.84c-.53.96-1.15,1.78-2.12,1.87-.33.02-.64,0-.94-.15-.54-.28-1.01-.82-1.33-1.4-.07-.16-.14-.31-.2-.46l-.11-.48c-.03-.33-.03-.52,0-.78.04-.43.12-.83.27-1.2.16-.49.56-.87.99-1.09.14-.07.15-.02.14.14-.02.15,0,.43,0,.67,0,.43-.05.76.02,1.08.04.3.21.62.09.7-.04.24.14.34.29.46.21.21.47.04.61-.16.09-.13.18-.3.2-.51.03-.37-.06-.83-.25-1.07-.01-.02-.03-.04-.05-.06-.19-.19-.46-.15-.68-.06-.02.1,0-.11,0-.17-.02-.15-.05-.18-.04-.16,0,0,0,0,.01.01-.07-.09-.17-.2-.3-.32-.12-.11-.25-.21-.38-.32-.22-.17-.39-.36-.42-.61-.05-.24.07-.54.37-.74.35-.23.77-.33,1.13-.34.26-.03.6.01.89.12.6.2,1.14.62,1.53,1.17.16.28.31.55.39.77.18.47.26.95.26,1.43,0,.12,0,.23-.01.37l-.06.45c-.04.3-.12.58-.21.86l-.06-.02Z"/><path class="cls-1" d="M181.33,119.44c-.23.06-.46.12-.75.17-.12.03-.32.05-.53.05-.08,0-.33-.02-.48-.06-.05-.01-.08-.02-.13-.04-.08-.03-.16-.07-.24-.12-.16-.09-.31-.22-.41-.35l.55.4c-.14-.05-.28-.13-.39-.22-.06-.05-.11-.1-.16-.16-.07-.09-.13-.19-.18-.31-.18-.57-.06-.69,0-.95.12-.27.24-.36.3-.43.15-.14.24-.19.33-.25.18-.11.34-.19.5-.26.28-.13.53-.28.8-.37.97-.3,1.93-.49,2.9-.6.43-.05.85-.13,1.27-.19.53-.13,1.1-.07,1.65.1.17.06.14.25,0,.49-.14.23-.36.57-.63.7-.47.27-.95.3-1.43.44-.48.12-.96.22-1.48.27-.61.07-1.17.4-1.71.65-.18.09-.36.18-.52.27l-.19.12h-.02c-.04-.05-.23-.22-.34-.31-.09-.09-.23-.15-.27-.16-.06,0-.02,0-.04,0,.02,0,.04-.04.04-.07l.09.02s.07-.07.07-.11c0-.02.08-.21.07-.31.02-.12-.03-.27,0-.22h.04s.19,0,.29-.01c.38-.06.82-.17,1.25-.29.65-.18,1.32-.35,1.96-.57.5-.17.98-.43,1.49-.62.11-.04.22-.1.34-.13.43-.12.61.01.77.43.04.1.08.19.1.28.09.31-.03.66-.29.82-.78.48-1.61.84-2.49,1.18-.66.25-1.33.49-2.08.73l-.02-.05Z"/><path class="cls-1" d="M169.37,123.13c-.47-.06-.94-.11-1.42-.11-.17,0-.33.06-.51.06-.62-.02-1.27-.06-1.89.02-.28.04-.54.12-.81.16-.35.07-.67.22-1.09.12-.13-.03-.15-.09-.12-.27.03-.18.06-.55.23-.7.3-.27.59-.58.94-.76.36-.14.73-.25,1.12-.27.47-.03.9-.29,1.36-.37.51-.1,1.03-.15,1.55-.19.32-.02.64-.03.96-.05.48-.03.97,0,1.45-.05.37-.03.74-.21,1.12-.31.08-.02.17-.07.25-.07.31.05.39.26.4.89v.43c-.01.47-.16.87-.37,1.08-.31.31-.6.37-.9.46-.3.06-.59.12-.89.09-.45-.02-.91-.09-1.37-.1v-.06Z"/><path class="cls-1" d="M170.17,121.73c-.32,0-.65.01-.98.05-.12.02-.23.07-.36.08-.44.06-.91.12-1.35.18-.2.03-.41.04-.61.06-.26.03-.53.02-.79-.06-.08-.02-.07-.07,0-.14.06-.07.17-.19.29-.28.22-.13.42-.28.63-.41.21-.13.46-.14.71-.18.3-.04.58-.21.88-.31.33-.11.68-.2,1.03-.28.22-.05.44-.08.67-.11.34-.04.69-.04,1.05-.06.25,0,.6-.17,1.12.13.1.07.21.14.28.26.15.2.15.43.03.56-.1.13-.25.17-.43.15-.08,0-.16-.02-.23-.05-.34-.14-.17-.1-.32-.09-.09.02-.13.08-.09.02h0s0-.02,0-.02h0s-.08.13-.08.13l-.02.03s-.03.05-.04.1c-.01.04-.03.1-.05.17-.02.09,0,.03-.02.06-.05.02-.3.02-.46.02-.27,0-.56.02-.87.04v-.03Z"/><path class="cls-1" d="M186.09,123.93l1.88,2.75c.23.33.52.64.73,1,.18.32.36.66.54,1,.18.37.34.67.52,1.26.13.56.07,1.14-.17,1.65l-.19.37c-.09.1-.17.23-.24.31-.13.19-.29.32-.43.48-.52.51-1.02.94-1.53,1.35-.64.54-1.31,1.01-2.19,1.12-.3,0-.33-.09-.34-.46-.03-.41.01-1.03.29-1.41.23-.36.51-.62.79-.87.27-.26.52-.51.76-.76.23-.24.43-.48.59-.68.08-.13.1-.06.15-.11.05-.02.1-.06.15-.11.04-.07.08-.13.02-.25-.03-.13-.2-.35-.3-.52l-.86-1.14-1.86-2.69-1.19-1.66c-.62-.83-1.2-1.69-1.87-2.47-.51-.62-1.16-1.12-1.7-1.73-.12-.14-.25-.26-.36-.41-.4-.55-.3-.89.18-1.33.11-.1.22-.21.33-.3.39-.3.9-.3,1.32-.05,1.21.76,2.1,1.87,3.02,3,.68.84,1.33,1.73,2,2.61l-.05.04Z"/><path class="cls-1" d="M157.72,116.53c.49-.28.99-.55,1.5-.8.24-.12.48-.23.72-.34.07-.03.53-.24.16-.07.12-.05.25-.1.37-.15,1.04-.41,2.11-.75,3.2-1.01.76-.18,1.29-1.09,1.05-1.85-.26-.79-1.03-1.25-1.85-1.05-2.33.56-4.59,1.48-6.67,2.68-.68.39-.98,1.37-.54,2.05s1.33.96,2.05.54h0Z"/><path class="cls-1" d="M174.6,110.85c.06-.05.42-.38.13-.11.1-.1.24-.18.36-.26.24-.17.49-.33.75-.48.22-.13.45-.25.68-.37.13-.07.27-.13.4-.19.07-.03.13-.06.2-.09-.19.08-.21.09-.05.02.52-.2,1.04-.37,1.58-.5.29-.07.58-.13.87-.18.07-.01.15-.02.22-.03-.22.03-.24.03-.07.01.15-.01.29-.03.44-.04.78-.06,1.54-.65,1.5-1.5-.03-.76-.66-1.56-1.5-1.5-2.84.22-5.45,1.29-7.64,3.1-.61.5-.56,1.61,0,2.12.65.59,1.47.54,2.12,0h0Z"/><path class="cls-1" d="M183.14,143.44c-.28.49-.53,1.04-.61,1.61-.07.46-.08.82,0,1.28.02.11.05.22.09.32.08.19.15.38.27.56.23.33.51.59.9.7s.83.05,1.18-.15.62-.52.82-.87c.15-.26.27-.56.34-.85s.11-.61.09-.91c-.05-.79-.33-1.49-.86-2.07-.21-.23-.58-.37-.88-.37s-.67.14-.88.37-.38.55-.37.88.14.63.37.88c.03.04.07.08.1.12l-.2-.25c.09.12.17.26.23.4l-.13-.3c.07.17.12.34.14.52l-.04-.33c.02.19.02.39,0,.58l.04-.33c-.03.18-.07.35-.14.52l.13-.3c-.06.14-.14.27-.23.4l.2-.25c-.05.07-.11.13-.17.18l.25-.2s-.05.03-.07.04l.3-.13s-.05.02-.08.03l.33-.04s-.05,0-.08,0l.33.04h-.04c.1.03.2.07.3.12-.02,0-.05-.02-.07-.04l.25.2s-.06-.05-.08-.09l.2.25c-.06-.08-.1-.17-.15-.26l.13.3c-.05-.13-.09-.26-.11-.4l.04.33c-.02-.17-.02-.34,0-.51l-.04.33c.04-.28.12-.55.23-.81l-.13.3c.08-.18.16-.35.26-.52.16-.29.21-.65.13-.96-.08-.29-.3-.6-.57-.75-.59-.31-1.37-.16-1.71.45h0Z"/><path class="cls-1" d="M77.96,84.15c-.06.18-.33.11-.68-.03-.11-.05-.35-.27-.35-.35,0-.15,0-.3,0-.44,0-.04.12-.32.27-.64.16-.29.24-.77.38-.91.18-.35.44-.63.71-.89.54-.54,1.17-.99,1.85-1.35.15-.08.31-.14.49-.15.6-.06,1.13-.27,1.65-.52.09-.04.19-.05.24-.19.05-.12.45-.29.88-.42.43-.11.89-.11.99-.09.54.16,1.05.26,1.55.41.07.02.15-.02.21.11.16.28.3.24.45.26.21.03.41.11.61.21.1.05.19.21.27.34.08.11,0,.49-.03.53-.09.12-.04.3-.04.46,0,.05,0,.12,0,.17,0,.05-.28.24-.55.44-.27.21-.53.41-.58.41-.04-.03-1.38.43-1.51.56-.07.05-.16,0-.25-.02-.04,0-1.05.45-1.08.47-.23.02-.4.19-.71.02-.06-.03-.1,0-.14.01-.35.17-.76.22-1.15.33-.2.05-.36.18-.54.27-.03.02-.08,0-.13,0-.05,0-.11,0-.15.02-.43.22-.95.33-1.32.67-.06.09-.79.09-.87.22-.06.04-.47-.02-.49.06Z"/><path class="cls-1" d="M89.23,74.21c.16.16,0,.45-.09.69-.03.08-.19.15-.26.11-.13-.07-.28-.14-.43-.21-.07-.05-.94-1.02-1.39-1.31-.19-.15-.37-.3-.54-.46-.16-.17-.27-.35-.39-.53-.24-.38-.5-.75-.71-1.14-.17-.41-.34-.81-.49-1.23-.07-.18-.11-.38-.1-.58,0-.69-.16-1.33-.39-1.97-.04-.11-.04-.22-.19-.3-.3-.12-.47-1.96-.4-2.2.18-.61.28-1.2.43-1.79.02-.08-.02-.17.11-.25.31-.19.24-.36.29-.54.05-.25.14-.49.25-.73.06-.12.22-.24.35-.35.12-.1.5-.04.54,0,.13.11.31.02.47.01.06,0,.13,0,.17,0,.05,0,.28.34.54.68.14.17.27.34.38.47.09.14.14.24.14.27-.02.04.44,1.85.56,2.04.05.1,0,.22-.03.33-.02.06.54,1.44.51,1.5,0,.31.17.58-.05.94-.04.07-.02.13,0,.19.14.5.15,1.04.21,1.57.03.27.14.52.21.78.02.05-.01.11-.03.16-.01.07-.03.14-.02.2.1.66.18,1.23.29,1.96.02.07-.01.32-.02.57,0,.25.04.47.07.56.03.09-.07.5,0,.57Z"/></svg>