<?xml version="1.0" encoding="UTF-8"?><svg id="apple_icon" xmlns="http://www.w3.org/2000/svg" viewBox="0 0 200 200"><defs><style>.cls-1{fill:#d3d7d8;}.cls-2{fill:#1b2b3a;}</style></defs><path class="cls-1" d="M179.72,117.34c-1.38,21.49-8.34,40.59-24.66,55.41-8.21,7.46-18.08,12.11-28.52,15.68-10.16,3.48-20.62,5.16-31.29,5.16-20.4,0-38.46-6.63-53.83-20.13-7.67-6.73-12.95-15.23-16.78-24.63-4.78-11.74-8.39-23.84-7.52-36.62,.88-12.85,2.51-25.7,10.52-36.58,9.92-13.46,23.03-22.1,39.45-25.34,6.53-1.29,13.13-.18,19.6,1.12,5.29,1.06,10.44,2.65,15.43,4.72,4.77,1.97,9.68,2.97,14.87,2.83,8.09-.23,16.11,.21,24.08,1.92,11.26,2.41,19.64,8.89,26.79,17.6,6.45,7.85,9.16,17.01,10.64,26.75,.61,3.99,1.41,7.97,1.21,12.11Z"/><path class="cls-2" d="M111.82,27.2c2.3-5.47,4.27-10.67,7.54-15.18,1.05-1.45,2.09-2.94,3.36-4.18,1.82-1.78,3.43-1.86,5.21-.52,1.75,1.31,2.47,3.02,1.57,5.12-1.18,2.75-2.5,5.44-3.7,8.18-3.56,8.09-6.7,16.32-8.33,25.07-.5,2.67-.48,5.36-.58,8.05-.06,1.64-.07,3.3-.26,4.93-.24,2.08-1.16,3.74-3.47,4.1-2.04,.32-4.53-1.13-5.4-3.23-.88-2.12-.98-4.39-.68-6.63,.64-4.74,.71-9.54,1.75-14.25,.69-3.1,.46-3.27-2.9-2.85-6.68,.84-13.34,1.73-20.11,1.2-12.42-.97-23.52-5.41-33.65-12.48-1.09-.76-2.09-1.72-2.97-2.72-2.33-2.64-2.08-4.69,.89-6.68,3.68-2.47,7.91-3.6,12.19-4.32,7.57-1.27,15.17-1.48,22.77-.05,7.88,1.48,14.62,5.15,20.47,10.55,1.96,1.81,3.89,3.65,6.29,5.91Z"/><path class="cls-2" d="M149.09,109.15c-.07-6.01-.83-11.89-3.43-17.4-.25-.54-.48-1.1-.66-1.66-.44-1.4-.27-2.74,.92-3.65,1.35-1.03,2.82-.76,4.16,.15,1.39,.95,2.36,2.29,3.07,3.78,4.24,8.9,5.64,18.16,3.34,27.85-.41,1.74-.97,3.46-2.02,4.94-.94,1.32-2.24,2.01-3.87,1.6-1.82-.47-2.73-1.79-2.73-3.62,0-1.18,.14-2.39,.41-3.54,.66-2.78,.84-5.6,.81-8.44Z"/><path class="cls-2" d="M150.91,136.52c-.21,2.92-2.56,5.18-5.18,5-2.53-.17-4.58-2.56-4.45-5.18,.13-2.79,2.55-5.36,5-5.31,2.6,.06,4.84,2.71,4.64,5.49Z"/></svg>