<?xml version="1.0" encoding="UTF-8"?><svg id="bathtub_icon" xmlns="http://www.w3.org/2000/svg" viewBox="0 0 200 200"><defs><style>.cls-1{fill:#d3d7d8;}.cls-2{fill:#1b2b3a;}</style></defs><path class="cls-1" d="M155.32,163.68c-5.88,1.2-9.31-1.91-11.86-6.65-.75-1.4-1.85-2.68-2.31-4.16-.87-2.84-2.82-3.47-5.36-3.13-10.79,1.47-21.66,1.03-32.46,.7-15.04-.45-29.94-2.34-44.3-7.22-1.23-.42-2.46-.86-3.7-1.24-3.27-.99-3.3-.94-5.4,1.82-3.15,4.14-6.36,8.23-9.47,12.4-1.96,2.62-4.41,4.07-7.75,3.92-2.88-.13-5.79,.24-8.62-.58-1.87-.54-3.68-1.3-3.82-3.58-.14-2.28,.99-4.04,3.2-4.58,3.07-.76,4.95-2.77,6.59-5.23,2.17-3.25,4.57-6.31,7.13-9.26,1.16-1.34,1.65-2.67-.27-3.96-12.46-8.35-18.76-20.88-23.13-34.61-3.09-9.69-5.02-19.59-4.18-29.86,.35-4.32,.63-8.66,1.66-12.87,1.5-6.12,4.75-8.66,11.03-9.09,5.67-.38,10.97,.77,15.69,3.92,4.44,2.96,8.86,6,12.63,9.84,15.03,15.34,33.67,23.56,54.42,27.52,4.09,.78,8.32,1.13,12.49,1.12,9.08-.02,18.15,.78,27.25,.12,9.68-.7,19.18-2.48,28.63-4.55,4.78-1.05,9.4-1.2,13.86,1.37,3,1.73,4.54,4.26,5.24,7.54,2.81,13.17-1.66,24.13-10.11,33.93-6.6,7.66-14.58,13.53-23.44,18.29-1.21,.65-3.16,.73-3.09,2.57,.08,2.09,1.17,3.9,3.06,4.93,.99,.54,2.17,.74,3.29,.99,1.44,.32,2.77,.81,3.78,1.95,2.17,2.49,1.45,5.38-1.67,6.52-.81,.3-1.67,.52-2.53,.6-2.15,.21-4.32,.33-6.47,.49Z"/><path class="cls-1" d="M124.39,73.38c-6.31,.02-11.55-4.98-11.52-11.01,.03-5.85,4.17-9.78,10.3-9.77,6.01,.01,11.06,4.76,11.25,10.34,.16,4.65-5.32,11.24-10.03,10.44Z"/><path class="cls-1" d="M160.41,43c-.08,3.49-4,6.96-7.63,6.77-3.62-.2-6.24-3.16-6.15-6.95,.1-3.87,3.04-6.69,6.97-6.66,3.91,.03,6.89,3.03,6.8,6.84Z"/><path class="cls-2" d="M142.3,108.68c-11.86-.41-23.68-1.57-34.63-2.11-17.79-.88-35.29-3.65-52.06-10.19-15.02-5.85-27.77-14.67-37.99-27.14-1.92-2.34-3.9-4.65-5.79-7.02-.71-.9-1.43-1.9-1.41-3.11,.03-1.44,.04-3.1,1.61-3.73,1.33-.53,2.02,.81,2.74,1.65,2.82,3.29,5.6,6.61,8.41,9.91,9.84,11.57,22.49,18.78,36.6,23.85,11.77,4.23,23.94,6.47,36.32,7.85,15.94,1.78,31.98,2.91,48.03,2.77,14.64-.13,31.58,0,45.32-5.66,.8-.33,1.59-.7,2.42-.95,1.24-.37,2.29,0,3.03,1.07,.73,1.07,.64,2.17,.04,3.27-.76,1.38-2.15,1.84-3.47,2.43-14.88,6.69-32.07,7.68-49.16,7.1Z"/><path class="cls-2" d="M39.88,134.2c.57,.2,1.41,.41,2.18,.78,2.99,1.43,5.96,2.89,8.91,4.4,.75,.39,1.48,.92,2.06,1.53,.85,.91,1.04,2.06,.48,3.21-.57,1.17-1.64,1.76-2.86,1.42-4.61-1.3-9-3.1-12.43-6.6-.94-.96-1.41-2.2-.76-3.56,.42-.88,1.23-1.14,2.42-1.17Z"/><path class="cls-2" d="M143.5,153.93c-.58-.12-1.3-.21-1.97-.44-1.23-.42-1.81-1.42-1.91-2.64-.11-1.36,.75-2.13,1.98-2.44,1.11-.28,2.26-.43,3.38-.65,2.67-.54,5.34-1.16,8.02-1.62,1.58-.27,3.36-.38,3.96,1.59,.53,1.74-.84,2.59-2.13,3.3-3.48,1.93-7.32,2.47-11.34,2.9Z"/><path class="cls-2" d="M118.73,62.3c0-1.68,.25-3.53,.88-5.18-.02,0-.03-.02-.05-.03-1.09-.38-1.99,.18-2.55,1.09-1.16,1.89-1.81,3.92-.93,6.11,.56,1.39,1.42,2.64,3.17,2.26,.06-.01,.11-.04,.17-.06-.48-1.35-.68-2.83-.68-4.18Z"/><path class="cls-2" d="M151.33,39.92c.4-.57,.92-.99,1.49-1.22-.18-.13-.38-.23-.63-.29-1.34-.36-2.87,.92-3.3,2.7-.29,1.19-.01,2.41,.62,3.14,.17-1.55,.91-3.01,1.83-4.33Z"/></svg>