<?xml version="1.0" encoding="UTF-8"?><svg id="bicycle_icon" xmlns="http://www.w3.org/2000/svg" viewBox="0 0 200 200"><defs><style>.cls-1{fill:#d3d7d8;}.cls-2{fill:#1b2b3a;}</style></defs><path class="cls-2" d="M4.82,125.15c.69-7.31,3.8-14.49,9.27-20.4,4.38-4.72,9.33-6.09,14.83-8.84,12.99-3.66,24.75-1.23,34.02,8.82,9.44,10.24,11.7,22.28,6.44,35.33-5.49,13.61-18.96,22.16-32.83,21.17-8.11-.58-15.99-3.63-21.84-9.36-7.54-7.4-10.79-17.16-9.89-26.72Zm57.74,2.63c.33-11.52-7.86-24.2-23.99-25.17-11.86-.71-24.34,12.41-24.28,24.76,.07,13.38,10.55,23.98,23.79,24.07,13.83,.1,24.46-10.18,24.48-23.67Z"/><path class="cls-2" d="M163.47,92.61c15.93-.77,33.19,12.97,32.87,32.97-.32,20.15-15.2,33.57-33.43,33.88-18.08,.31-34.13-13.46-33.78-33.13,.33-18.54,13.23-33.55,34.34-33.73Zm-24.62,32.71c-.04,13.73,10.32,24.28,23.86,24.29,13.45,0,24.38-10.32,24.29-23.5-.1-15.22-11.2-25.22-24.33-25.19-10.35,.03-23.82,9.03-23.82,24.41Z"/><path class="cls-1" d="M56.01,57.34c.16-.07,.29-.19,.42-.19,5.71,0,8.91,3.01,10.35,8.39,.55,2.05,1.6,3.96,2.42,5.94,.8,1.9,2.22,2.83,4.3,2.78,1.68-.04,3.38,.14,5.04-.04,10.47-1.16,21.02-1.07,31.49-2.38,6.5-.82,13.07-1.14,19.57-2.08,3.66-.53,3.95-1.05,2.54-4.38-.18-.42-.38-.83-.59-1.24-1.73-3.38-1.98-3.45-4.99-1.27-2.22,1.62-4.34,3.37-6.88,4.52-4.73,2.15-9.73,.49-12.05-4.08-.93-1.84-.13-3.32,1.98-3.57,1.74-.21,3.31,.52,4.88,1.07,2.42,.85,4.57,.39,6.39-1.29,4.49-4.15,9.02-8.28,12.49-13.37,1.66-2.44,1.37-3.37-1.26-4.53-.83-.37-1.76-.53-2.58-.93-1.07-.52-1.53-1.48-1.32-2.66,.21-1.21,1.06-2.03,2.2-1.96,3.38,.23,6.77,.68,8.96,3.74,1.97,2.75,1.32,5.53-.27,8.16-1.02,1.7-2.19,3.31-3.38,4.9-1.24,1.66-1.33,3.3-.36,5.12,1.5,2.84,2.75,5.81,4.38,8.57,5.14,8.71,8.89,18.09,13.18,27.21,3.91,8.29,7.82,16.58,11.82,24.82,.72,1.49,1.88,2.77,2.79,4.18,1.77,2.73,1.27,5.12-1.36,6.57-2.48,1.37-5.63,.54-6.43-2.29-3.7-13.19-11.65-24.5-16.15-37.33-1.06-3.02-2.52-5.9-3.87-8.81-1.38-2.99-2.26-3.08-4.42-.35-2.76,3.47-5.46,6.98-8.12,10.52-5.31,7.09-10.54,14.25-15.89,21.31-1.73,2.29-2.06,4.32-.88,7.13,2.41,5.75-.17,14.05-5.18,17.76-4.52,3.35-9.68,2.79-14.49,1.24-9.05-2.92-12.55-11.72-8.09-20.28,1.49-2.87,1.41-4.9-.23-7.51-4.97-7.89-9.59-15.98-13.65-24.39-.2-.41-.39-.83-.63-1.22-1.39-2.28-2.11-2.39-3.58-.23-2.06,3.03-3.94,6.18-5.92,9.27-5.37,8.36-10.53,16.84-15.42,25.49-1.21,2.14-2.21,4.18-1.8,6.88,.38,2.51-1.37,4.54-3.59,5.17-2.14,.61-4.79-.37-6.04-2.29-1.09-1.68-1.48-3.61-.04-5.11,5.17-5.4,7.7-12.43,11.72-18.54,5.96-9.06,11.43-18.44,17.32-27.55,1.82-2.81,1.98-5.19,.39-8.06-1.78-3.2-3.29-6.55-4.86-9.87-.44-.92-1.06-1.91-.31-2.97Zm65.28,20.77c-5.49,.04-10.93,.81-16.44,.83-4.56,.02-9.13,.62-13.68,1.02-4.72,.41-9.43,.63-14.15,.81-2.45,.09-2.97,.84-1.95,2.75,4.53,8.48,9.16,16.91,13.75,25.36,.83,1.53,2.11,2.15,3.83,1.74,2.1-.5,4.28-.85,6.35-.28,3.04,.85,4.81-.39,6.49-2.8,6.37-9.16,13.92-17.38,21.02-25.95,.39-.47,.85-.9,1.14-1.42,.55-1,.3-1.91-.89-2.01-1.82-.15-3.65-.04-5.48-.04Zm-17.81,45.89c-1.86,.42-2.53,1.74-3.56,2.59-2.35,1.94-3.08,1.96-5.48-.11-1.04-.89-1.93-1.95-2.99-2.82-1.82-1.5-2.92-1.07-3.45,1.25-.32,1.41-.05,2.73,.52,4,1.42,3.1,6.51,4.91,10.36,3.73,3.92-1.21,5.42-3.93,4.6-8.63Z"/><path class="cls-2" d="M63.84,61.78c-5.7,.52-10.24,0-14.76-.82-2.14-.39-4.13-1.09-5.77-2.58-2.46-2.25-2.43-4.87,.08-7.05,1.55-1.35,3.49-1.92,5.42-2.31,8.64-1.75,17.29-1.72,25.92,.07,2.41,.5,4.66,1.43,6.67,2.91,1.69,1.25,2.93,2.74,2.48,5.01-.46,2.29-2.22,3.32-4.26,3.59-3.93,.53-7.88,.85-11.84,1.16-1.67,.13-3.36,.02-3.93,.02Z"/></svg>