<?xml version="1.0" encoding="UTF-8"?><svg id="cactus_icon" xmlns="http://www.w3.org/2000/svg" viewBox="0 0 200 200"><defs><style>.cls-1{fill:#d3d7d8;}.cls-2{fill:#1b2b3a;}</style></defs><path class="cls-1" d="M128.38,57.1c-.14,4.2,.37,8.42-.4,12.59-.16,.87-.28,1.83,.5,2.42,.96,.73,1.95,.2,2.84-.3,1.93-1.08,2.75-2.91,3.23-4.94,.96-4.09,1.85-8.21,2.88-12.29,.94-3.71,2.52-7.09,5.51-9.68,3.11-2.68,5.96-3.13,9.61-1.32,4.96,2.45,6.91,6.71,7.26,12,.8,11.86-2.26,22.63-8.54,32.68-3.35,5.36-7.33,10.1-12.02,14.23-3.85,3.39-8.85,4.14-13.63,5.3-3.79,.92-4.68,1.8-5.24,5.38-.39,2.47,.03,3.12,2.67,3.22,3.91,.14,7.83,.08,11.75,.08,2.04,0,4.06,.12,6.04,.67,3.21,.89,3.99,1.8,4.12,5.2,.05,1.44-.01,2.91-.21,4.34-1.58,11.5-3.89,22.86-6.52,34.16-1.55,6.64-3.12,13.27-4.53,19.94-1.5,7.08-4.63,11.88-12.92,11.89-4.32,0-8.7,.47-13.02,.21-6.65-.39-13.27-1.15-19.9-1.85-6.14-.66-9.7-3.73-11.31-10.1-3.71-14.67-5.95-29.57-7.91-44.52-.52-4-.31-8.12-.15-12.17,.16-3.97,2.09-5.97,6.01-6.89,3.42-.8,6.89-.87,10.37-.93,2.94-.05,3.44-.76,2.46-3.47-1.24-3.41-2.55-6.79-3.47-10.31-.49-1.85-1.75-2.9-3.48-3.58-6.85-2.71-12.95-6.78-17.96-12.02-7.61-7.96-12.19-17.62-13.1-28.73-.28-3.44-.49-6.98,.6-10.37,.49-1.51,1.06-3.03,1.86-4.39,3.37-5.71,9.36-6.2,13.53-1.13,2.65,3.22,3.97,7.05,4.7,11.1,.31,1.73,.66,3.43,1.9,4.78,.41,.44,.9,.75,1.52,.61,.68-.15,.89-.76,.91-1.33,.06-2.32,.06-4.63,.07-6.95,.03-8.31,2.44-16.02,6.05-23.39,5.45-11.12,16.95-16.67,29.03-14.11,5.26,1.11,9.19,4.15,12.07,8.6,3.62,5.61,5.32,11.84,6.07,18.42,.64,5.63,.95,11.27,.76,16.93Z"/><path class="cls-2" d="M99.34,140.44c-9.9,.22-18.42-.05-26.7-2.62-1.79-.56-3.59-1.18-5.24-2.06-2.1-1.13-2.82-2.81-2.04-4.2,.95-1.7,2.51-1.78,4.16-1.3,11.31,3.3,22.92,3.18,34.49,2.74,12.71-.48,25.47-.76,37.91-3.94,1.41-.36,2.86-.59,4.3-.22,2.4,.62,3.02,2.9,1.23,4.62-1.3,1.25-3.03,1.66-4.71,2.11-7,1.89-14.1,3.29-21.34,3.72-7.8,.47-15.56,1.66-22.07,1.15Z"/><path class="cls-2" d="M100.97,114.82c6.09,.15,12.16,.02,18.14-1.34,.7-.16,1.44-.25,2.15-.2,1.23,.08,2.25,.62,2.69,1.86,.52,1.46-.11,2.61-1.3,3.34-.97,.59-2.08,1.05-3.19,1.29-9.3,2-18.66,2.03-28.04,.63-1.13-.17-2.26-.55-3.32-.99-1.25-.51-2.38-1.31-1.98-2.92,.33-1.34,1.49-1.71,2.7-1.73,1.88-.03,3.76,.04,5.64,.05,2.17,.01,4.34,0,6.52,0Z"/><path class="cls-2" d="M124.19,40.88c-2.06-.09-3.23-1.79-2.27-3.43,2.38-4.07,5.77-7.2,10.09-9.18,1-.46,2.04-.18,2.69,.77,.76,1.11,.43,2.29-.26,3.25-2.38,3.34-5.47,5.95-8.91,8.13-.47,.3-1.08,.37-1.35,.45Z"/><path class="cls-2" d="M76.29,22.72c.94,.04,1.66,.53,2.19,1.24,1.92,2.54,3.72,5.17,5.11,8.05,.58,1.21,.99,2.58-.26,3.57-1.41,1.12-2.8,.43-3.88-.64-2.51-2.5-4.24-5.51-5.02-8.97-.43-1.91,.47-3.26,1.86-3.25Z"/><path class="cls-2" d="M123.71,95.57c-.07,.28-.1,.57-.21,.84-.77,1.92-7.57,5.76-9.53,5.39-1.71-.32-2.48-1.94-1.75-3.68,1.1-2.62,6.26-5.52,9.04-5.08,1.59,.25,2.52,1.22,2.45,2.53Z"/><path class="cls-2" d="M54.1,86.37c-.37,0-.52,0-.66,0-1.58-.07-3.48,.11-3.88-1.88-.46-2.31,1.55-2.92,3.2-3.27,2.66-.56,5.34-1.27,8.09-1.01,1.31,.12,2.66,.59,2.73,2.22,.06,1.35-1.01,1.99-2.12,2.42-2.44,.93-4.99,1.35-7.35,1.52Z"/><path class="cls-2" d="M107.53,13.2c0,4-.93,5.84-2.64,5.99-1.74,.16-2.86-1.37-3.29-4.79-.18-1.41-.18-2.87-.02-4.28,.17-1.46,.71-2.92,2.47-3.07,1.79-.15,2.5,1.17,2.85,2.65,.33,1.39,.5,2.82,.62,3.51Z"/><path class="cls-2" d="M98.88,110.14c-.07,1.34-.89,2.16-2.43,2.19-2.2,.05-6.34-3.28-6.73-5.38-.29-1.57,.65-2.88,2.21-3.08,2.47-.31,6.93,3.58,6.95,6.27Z"/><path class="cls-2" d="M94.46,67.91c2.58,.74,5.13,2.1,6.88,4.51,1.13,1.55,.17,3.2-1.75,3.39-1.98,.2-6.75-2.5-7.67-4.34-.91-1.82,.2-3.58,2.54-3.56Z"/><path class="cls-2" d="M158.24,84.64c-2,0-3.42-.15-4.73-.85-1.11-.59-1.79-1.46-1.52-2.79,.23-1.12,1.04-1.7,2.11-1.87,2.33-.36,4.59-.1,6.75,.88,.96,.43,1.78,1.08,1.73,2.24-.07,1.4-1.17,1.9-2.32,2.18-.83,.2-1.71,.19-2.03,.22Z"/><path class="cls-2" d="M53.26,55.12c-.1,1.52-1.03,2.2-2.29,2.19-2.41-.02-4.51-.93-6.09-2.8-.58-.68-.84-1.54-.46-2.43,.37-.88,1.12-1.42,2.04-1.32,2.5,.29,4.75,1.19,6.37,3.25,.25,.32,.32,.79,.45,1.11Z"/></svg>