<?xml version="1.0" encoding="UTF-8"?><svg id="calendar_icon" xmlns="http://www.w3.org/2000/svg" viewBox="0 0 200 200"><defs><style>.cls-1{fill:#d3d7d8;}.cls-2{fill:#1b2b3a;}</style></defs><path class="cls-1" d="M112.14,34.41c6.59,0,13.2-.27,19.77,.07,8.82,.46,17.64,.69,26.46,.85,4.82,.08,8.85,1.74,11.25,6.62,2.62,5.32,4.61,10.82,6.18,16.5,4.19,15.16,6.62,30.7,10.02,46.03,2.04,9.2,3.12,18.5,4.04,27.85,.03,.28,.04,.56,.05,.84,.35,6.43-.5,7.34-6.91,7.32-9.11-.03-18.23-.06-27.34-.14-1.39-.01-2.8-.2-4.17-.44-2.35-.41-3.77,.51-4.44,2.76-2.15,7.19-7.3,9.94-14.41,9.52-26.2-1.57-52.43-.84-78.64-.61-11.76,.1-23.53,.54-35.3,.76-1.39,.03-2.78,.4-4.17,.5-5.96,.45-9.68-2.89-9.76-8.81-.04-2.66-.15-5.33,.52-7.95,6.45-25.13,12.72-50.31,20.55-75.06,1.78-5.61,4.05-11.06,6.62-16.37,2.71-5.58,7-8.67,13.29-8.48,11.09,.33,22.13-.68,33.19-1.11,11.07-.43,22.13-.59,33.2-.63Z"/><path class="cls-2" d="M99.79,129.12c-11.37,.11-23.38-1.3-35.45-.97-8.12,.22-16.25-.14-24.36,.76-3.6,.4-7.28,.19-10.93,.1-4.7-.12-5.86-1.62-5.1-6.39,.37-2.35,.92-4.68,1.34-7.02,3.34-18.71,9.96-36.48,15.71-54.5,1.35-4.22,3.84-6.21,8.21-6.31,11.62-.24,23.19-1.15,34.86-.54,12.02,.62,24.07,1.49,36.13,1.11,3.08-.1,6.14-.59,9.22-.64,5.95-.11,7.23,1.27,7.1,7.09-.09,3.82-1.07,7.49-1.85,11.18-3.65,17.27-7.71,34.46-11.87,51.62-.52,2.15-1.75,3.5-3.84,3.98-1.35,.31-2.77,.49-4.15,.51-4.77,.06-9.53,.02-14.99,.02Zm-56.73-25.37c-2.1-.12-3.65-.09-5.17-.33-2.06-.32-3.13,.42-3.59,2.46-1.16,5.19-2.5,10.35-3.63,15.54-.49,2.24,.08,2.97,2.3,2.88,4.19-.17,8.38-.55,12.56-.91,1.14-.1,2.19-.47,2.46-1.86,.96-4.95,1.98-9.88,2.92-14.84,.37-1.95-.59-2.92-2.52-2.94-1.96-.02-3.92,0-5.33,0Zm19.63,19.08v-.06c2.24,0,4.47,0,6.71,0,1.43,0,2.44-.57,2.73-2.06,.9-4.66,1.79-9.33,2.64-14,.21-1.13-.26-1.99-1.5-2.03-4.33-.13-8.62-.94-12.97-.8-1.86,.06-2.79,.99-3.15,2.72-1.01,4.78-2.04,9.56-3.08,14.34-.28,1.27,.26,1.87,1.5,1.89,2.38,.02,4.75,0,7.13,0Zm23.77,.08c2.28,.15,3.81,.25,5.35,.35,3.13,.2,3.5,.1,4.15-2.78,.93-4.09,1.59-8.25,2.37-12.37,.3-1.6-.36-2.42-1.96-2.46-4.06-.1-8.12-.19-12.19-.25-1.66-.02-2.59,.96-2.94,2.48-.91,3.96-1.84,7.91-2.6,11.9-.45,2.35,.07,2.91,2.67,3.1,1.95,.14,3.92,.03,5.14,.03Zm26.36-16.63v-.1c-.98,0-1.95,0-2.93,0-4.1,.04-4.37,.21-5.37,4.26-.91,3.66-1.67,7.35-2.52,11.02-.32,1.4,.13,2.17,1.64,2.16,3.77-.01,7.54,.14,11.27-.62,1.35-.28,2.28-.79,2.58-2.28,.72-3.56,1.6-7.08,2.3-10.64,.59-3,.04-3.6-3.2-3.78-1.25-.07-2.51-.01-3.77-.01Zm-17.51-21.44q8.11,.18,9.54-6.43c.09-.41,.14-.83,.26-1.23,.59-1.99-.19-2.88-2.21-2.93-2.92-.08-5.85-.11-8.76-.36-6.65-.57-6.74-.54-7.82,5.9-.09,.55-.2,1.1-.26,1.65-.18,1.71,.6,2.63,2.31,2.78,2.77,.24,5.55,.5,6.94,.62Zm-23.94-.89c8.69,.12,9.01-.14,9.99-7.79,.02-.14,.04-.28,.07-.41,.27-1.4-.27-2.16-1.73-2.18-2.8-.04-5.6-.12-8.4-.1-7.26,.05-6.58-.98-8.55,7.17-.03,.14-.07,.27-.09,.41-.28,2.2,.07,2.73,2.41,2.88,2.09,.13,4.2,.03,6.3,.03Zm-27.27,14.42v-.09c1.12,0,2.24,.01,3.36,0,5.58-.06,5.78-.23,6.8-5.66,.1-.55,.16-1.11,.26-1.66,.3-1.61-.43-2.33-2.01-2.45-3.35-.26-6.69-.62-10.04-.86-3.34-.24-3.35-.19-4.43,3.01-.27,.8-.51,1.6-.73,2.41-1.43,5.18-1.29,5.35,4.27,5.29,.84,0,1.68,0,2.52,0Zm52.63,1.66c3.4,.1,3.65-.09,4.51-4.58,.13-.69,.24-1.38,.32-2.07,.22-1.94-.69-2.89-2.61-2.92-3.92-.06-7.83-.11-11.75-.19-1.82-.04-2.92,.77-3.24,2.56-.25,1.37-.48,2.75-.7,4.13-.27,1.66,.59,2.23,2.13,2.32,3.35,.18,6.69,.44,11.34,.75Zm-48.56-16.81c8,.06,7.54,1.59,9.73-6.71,.7-2.65,.26-3.32-2.42-3.6-3.32-.35-6.68-.42-10.02-.62-1.15-.07-1.89,.49-2.22,1.51-.76,2.39-1.48,4.8-2.17,7.21-.41,1.42,.26,2.15,1.66,2.19,1.81,.05,3.63,.01,5.44,.01Zm74.21,2.28c1.85,.32,3.01-.42,3.44-2.22,.46-1.9,.86-3.81,1.31-5.72,.39-1.65-.38-2.37-1.94-2.43-2.37-.08-4.78,.09-7.11-.24-7.43-1.03-6.15,.14-7.46,6.1-.06,.27-.11,.55-.13,.83-.18,2.39,.25,2.97,2.73,3.16,3.06,.23,6.15-.05,9.17,.52Zm-53.32,4.03v-.23c-.7,0-1.4,.03-2.1,0-6.34-.36-6.36-.34-7.15,5.97-.02,.14-.03,.28-.06,.42-.37,1.73,.17,2.67,2.09,2.67,3.78,0,7.56,.17,11.34,.12,2.78-.03,5.66-5.44,4.34-7.96-.46-.89-1.33-.96-2.16-.97-2.1-.04-4.2-.01-6.3-.01Zm5.66-21.51v.04c1.68,0,3.37,.02,5.05,0,3.66-.06,4.62-1,4.88-4.7,.17-2.42-.29-3.11-2.69-3.21-3.36-.15-6.73-.12-10.1-.1-4.55,.02-5.1,.65-5.61,5.33-.2,1.82,.3,2.68,2.15,2.67,2.1-.02,4.21,0,6.31,0Zm24.81-7.13v-.07c-2.1-.12-4.2-.26-6.3-.37-2.73-.15-3.11,.12-3.75,2.76-.17,.68-.19,1.39-.36,2.07-.51,2.08,.41,2.81,2.4,2.8,3.93-.02,7.86,.06,11.79,.06,3.75,0,4.32-.47,5.18-4.04,.62-2.6,.37-3.05-2.22-3.19-2.24-.12-4.49-.02-6.73-.02Zm21.69,8v.18c1.12,0,2.24,0,3.36,0,4.94,.03,5.83-.76,6.63-5.49,.29-1.75-.07-2.75-2-2.72-4.19,.05-8.39,.1-12.58,.16-1.62,.02-2.65,.75-2.83,2.45-.11,.97-.19,1.95-.36,2.91-.34,1.91,.64,2.53,2.34,2.52,1.82-.01,3.64,0,5.45,0Zm-6.58,31.29v.1c.98,0,1.96,.01,2.94,0,3.9-.05,4.26-.32,5.25-3.96,.22-.81,.4-1.63,.6-2.45,.41-1.69-.02-2.73-1.99-2.73-3.36,0-6.72-.06-10.08-.06-.85,0-1.67,.17-2.28,.87-.86,.99-1.93,6.45-1.25,7.28,1.26,1.56,3.12,.69,4.71,.92,.68,.1,1.4,.02,2.1,.02ZM54.2,60.12v-.08c-1.12,0-2.24,0-3.36,0-4.03,.04-4.56,.48-5.22,4.34-.43,2.53-.18,2.85,2.52,3.03,2.79,.19,5.58,.32,8.38,.5,3.85,.24,5.34-1.15,5.49-5.03,.06-1.71-.59-2.71-2.35-2.75-1.82-.04-3.64,0-5.46,0Z"/><path class="cls-2" d="M167.16,44.19c-.96,10.21-2.96,20.25-4.98,30.28-2.73,13.61-5.64,27.18-8.37,40.78-1.43,7.15-2.63,14.34-3.96,21.5-.23,1.23-.54,2.47-.98,3.64-.49,1.28-1.48,2.08-2.93,1.91-1.41-.16-2.21-1.11-2.62-2.42-.44-1.4-.02-2.77,.17-4.16,2.37-17.09,5.61-34.01,9.76-50.77,3.24-13.06,6.08-26.22,9.11-39.33,.25-1.09,.55-2.18,.95-3.22,.37-.95,1.06-1.75,2.21-1.58,1.39,.21,1.67,1.31,1.7,2.52,0,.28-.04,.56-.06,.84Z"/><path class="cls-2" d="M44.39,38.05c-.03-2.75,.74-5.24,2.56-7.34,3.55-4.11,10.22-3.21,12.57,1.7,.61,1.27,1.21,2.7,.17,3.94-1.16,1.36-2.78,.9-4.3,.62-1.17-.22-1.72-2.35-3.15-1.32-1.39,1.01-.89,2.81-1,4.3-.06,.83,0,1.68-.17,2.5-.26,1.32-.97,2.32-2.42,2.53-1.42,.2-2.39-.53-3.12-1.67-.71-1.11-1.15-3.09-1.15-5.25Z"/><path class="cls-2" d="M94.44,38.45c.14,.75,.4,1.84,.52,2.95,.17,1.68-.34,3.09-2.05,3.71-1.56,.56-2.69-.27-3.62-1.43-3.39-4.21-1.38-13.51,3.44-15.9,3.64-1.81,8.06,.19,8.97,4.06,.58,2.45-.56,3.8-3.08,3.64-.28-.02-.55-.07-.83-.12-3.28-.56-3.56-.33-3.36,3.1Z"/><path class="cls-2" d="M65.68,37.52c.23-2.42,.79-4.72,2.12-6.75,1.63-2.5,4.1-3.24,6.91-2.97,2.77,.27,4.6,1.84,5.58,4.41,.46,1.21,.74,2.5-.39,3.49-1.05,.93-2.34,.79-3.55,.34-.5-.19-.88-.68-1.36-.94-1.61-.88-2.22-.6-2.49,1.22-.23,1.54,.08,3.05,.31,4.57,.37,2.52-.37,4.1-2.04,4.39-2.01,.35-3.09-.97-3.89-2.52-.85-1.64-1.07-3.45-1.2-5.23Z"/><path class="cls-2" d="M139.92,34.17c-1.16,2.3-.9,4.38-.64,6.46,.2,1.57-.22,2.82-1.87,3.25-1.57,.4-2.66-.42-3.47-1.71-2.16-3.44-1.01-11.01,2.07-13.64,3.54-3.02,9.62-1.2,10.91,3.27,.92,3.19-.74,4.84-4.01,4.15-1.2-.25-1.71-1.38-3-1.79Z"/><path class="cls-2" d="M116.94,38.89c0,1.12,.18,2.27-.04,3.35-.51,2.5-2.93,3.19-4.75,1.41-.48-.47-.9-1.1-1.13-1.74-1.49-4.11-1.01-8.05,1.49-11.59,1.82-2.58,5.35-3.47,8.32-2.4,1.36,.49,2.49,1.32,3.14,2.63,.71,1.42,1.27,3-.02,4.28-1.1,1.09-2.56,.83-3.93,.26-2.76-1.15-2.82-1.12-3.02,1.7-.05,.7,0,1.4,0,2.1h-.04Z"/></svg>