<?xml version="1.0" encoding="UTF-8"?><svg id="candle_icon" xmlns="http://www.w3.org/2000/svg" viewBox="0 0 200 200"><defs><style>.cls-1{fill:#d3d7d8;}.cls-2{fill:#1b2b3a;}</style></defs><path class="cls-1" d="M151.3,106.27c-.95,14.89-.98,32.84-1.32,50.78-.11,5.92-.52,11.93-1.57,17.84-1.08,6.11-4.07,10.87-9.27,14.13-6.97,4.37-14.76,6.55-22.82,7.7-14.27,2.03-28.37,1.11-42.25-2.82-3.9-1.1-7.67-2.5-11.34-4.25-6.92-3.29-10.49-8.78-11.41-16.26-1.99-16.08-2.73-32.26-1.81-48.4,.73-12.88,.35-25.84,2.59-38.66,2.18-12.41,4.03-14.79,16.34-17.73,7.4-1.77,14.87-3.03,22.55-2.83,5.64,.15,11.27,0,16.94-.56,4.58-.46,9.36,.3,13.98,.99,7.05,1.05,13.9,2.99,20.64,5.35,4.79,1.68,7.18,4.7,7.84,9.9,.93,7.27,.65,14.53,.92,24.82Z"/><path class="cls-1" d="M120.7,31.55c-.01,16.03-6.63,32.5-23.93,28.04-4.67-1.2-9.76-5.43-9.65-12.41,.11-7.23,3.48-12.98,8.18-18.07,3.39-3.67,6.96-7.18,10.55-10.66,2.48-2.41,4.48-5.06,5.43-8.43,.3-1.07,.5-2.38,1.84-2.58,1.62-.23,2.1,1.23,2.74,2.31,3.04,5.08,4.85,13.38,4.85,21.79Z"/><path class="cls-2" d="M104.37,98.56c-14.2-.1-27.55-3.23-39.56-11.16-1.76-1.16-3.44-2.44-4.77-4.1-.73-.91-1.37-1.96-.59-3.09,.81-1.17,1.99-.84,3.05-.33,1.75,.85,3.46,1.77,5.19,2.65,17.28,8.78,35.25,9.86,53.77,4.86,5.32-1.44,10.51-3.22,15.51-5.55,1.46-.68,2.97-1.29,4.64-1.3,1.39,0,2.57,.43,3.24,1.72,.69,1.33,.28,2.58-.64,3.58-.75,.82-1.7,1.49-2.65,2.08-12.79,7.94-21.94,10.54-37.21,10.64Z"/><path class="cls-2" d="M96.49,72.64c.46-6.63,1.98-13.41,3.35-20.22,.32-1.59,.98-3.36,3.04-3.16,2.29,.22,2.75,2.24,2.57,4.02-.59,5.94-1.39,11.86-2.14,17.78-.22,1.76-.5,3.52-.89,5.25-.38,1.69-1.3,3.12-3.25,3-2-.12-2.58-1.68-2.68-3.43-.05-.97,0-1.94,0-3.23Z"/></svg>