<?xml version="1.0" encoding="UTF-8"?><svg id="cat_icon" xmlns="http://www.w3.org/2000/svg" viewBox="0 0 200 200"><defs><style>.cls-1{fill:#d3d7d8;}.cls-2{fill:#1b2b3a;}</style></defs><path class="cls-1" d="M173.52,92.33c.72,10.87-3.18,20.19-9.32,28.87-7.24,10.24-16.25,18.55-27.01,24.85-8.86,5.19-18.65,8.11-28.73,9.88-4.78,.84-9.68,1.6-14.51,1.51-17.5-.32-34.22-3.58-48.42-14.81-10.97-8.67-17.73-19.75-18.95-33.88-.49-5.67,.6-11.18,2.34-16.5,3.64-11.15,8.7-21.55,17.48-29.68,2.01-1.86,2.42-4.03,2.39-6.58-.08-6.58-.52-13.21,1.71-19.6,.28-.81,.46-1.66,.73-2.47,1.78-5.38,3.7-6.31,9-4,3.56,1.56,6.73,3.81,9.55,6.51,2.17,2.09,4.34,4.18,6.39,6.38,1.34,1.44,2.76,1.83,4.62,1.22,7.33-2.43,14.92-2.42,22.54-2.49,6.83-.06,13.4,.84,19.82,3.18,4.88,1.78,4.81,1.54,8.38-2.37,4.23-4.64,9.4-7.97,15.46-9.71,5.38-1.55,7.42-.29,8.71,5.05,.88,3.63,1.68,7.27,1.48,11.04-.12,2.27,.65,4.09,2.1,5.88,6.86,8.47,12.1,17.73,13.74,28.75,.45,3.01,.45,5.99,.49,8.99Z"/><path class="cls-2" d="M128.5,103.11c1.12,.23,2.49,.23,3.29,.01,8.11-2.23,16.25-4.39,24.39-6.42,5.5-1.37,11.04-2.66,16.67-3.44s11.51-.72,17.26-1.3c.66-.32,1.18-.82,1.24-1.7,.11-1.66-1.25-2.1-2.52-2.42-3.39-.84-6.85-.71-10.25-.35-14.12,1.51-27.99,4.29-41.47,8.84-3.12,1.05-6.21,2.21-9.02,3.96-2.46,1.53-1.32,2.46,.41,2.82Z"/><path class="cls-2" d="M185.14,111.61c-2.12-.57-4.27-.99-6.44-1.3-2.72-.35-5.46-.54-8.21-.64-5.16-.19-10.34-.13-15.51-.14-2.89,0-24.13-.14-24.26,3.28-.02,.42,.26,.8,.57,1.08,2.49,2.29,7.01,1.63,10.05,1.27,4.29-.52,8.43-.85,12.77-.93,8.6-.17,17.21,.04,25.78,.75,1.27,.11,2.57,.03,3.84-.14,1.01-.13,2-.58,2.06-1.82,.03-.61-.25-1.06-.65-1.42Z"/><path class="cls-2" d="M130.35,128.9c2.19,1.47,8.22,1.56,9.88,1.77,3.39,.43,6.81,.67,10.19,1.19,7.72,1.19,15.42,2.46,23.16,3.51,1.7,.23,1.64-1.56,.64-2.55-1.71-1.7-4.86-2.37-7.11-2.84-9.26-1.93-18.52-3.86-28.02-4.13-2.89-.08-5.82-.46-8.54,.81-.51,.24-1.09,.69-.96,1.24,.09,.38,.36,.7,.78,.98Z"/><path class="cls-2" d="M33.72,113.38c-6.06-.33-12.7,1.11-19.43,1-1.42-.02-2.87,.16-4.23-.43-.83-.36-1.46-.95-1.41-1.93,.04-.76,.54-1.29,1.19-1.67,1.54-.89,3.29-1.09,4.96-1.18,7.27-.39,14.49-1.51,21.79-1.22,2.73,.11,5.4,.58,8.02,1.28,1.32,.35,3.13,.73,2.81,2.59-.26,1.51-1.92,1.51-3.18,1.53-3.28,.06-6.57,.02-10.52,.02Z"/><path class="cls-2" d="M17.31,89.86c10.52,1.35,20.78,3.66,30.26,8.63,1.32,.69,3.31,1.48,2.43,3.38-.93,2-2.78,.78-4.11,.21-8.74-3.74-17.88-5.78-27.28-6.91-1.68-.2-3.41-.43-4.95-1.25-.92-.49-1.68-1.17-1.5-2.34,.18-1.19,1.12-1.6,2.16-1.7,.99-.09,1.99-.02,2.99-.02Z"/><path class="cls-2" d="M49.39,120.83c.03,.82-.43,1.39-1.07,1.73-1.26,.67-2.55,1.32-3.89,1.81-8.37,3.02-16.49,6.62-24.42,10.65-1.27,.64-2.62,1.14-3.97,1.59-.69,.23-1.49,.1-1.86-.64-.36-.71-.06-1.42,.47-1.95,.6-.61,1.23-1.21,1.94-1.68,8.69-5.72,18.06-9.93,28.06-12.75,1.11-.31,2.24-.53,3.39-.21,.73,.21,1.26,.65,1.35,1.46Z"/><path class="cls-2" d="M54.53,45.88c0-2.31,.32-4.6,1.22-6.72,1.05-2.48,3.27-3.01,5.12-1.08,2.2,2.3,3.65,5.13,4.31,8.26,.49,2.35-1.05,3.69-2.82,4.82-1.71,1.1-3.44,2.25-5.55,1.14-2.7-1.42-2.27-4.02-2.27-6.43Z"/><path class="cls-2" d="M94.62,103.95c-4.49-.03-7.98-3.48-7.61-7.52,.24-2.61,1.61-3.98,4.22-3.77,1.83,.14,3.7,.55,5.44,1.17,3.15,1.11,4.87,3.68,4.35,6.09-.51,2.38-3.17,4.06-6.4,4.03Z"/><path class="cls-2" d="M152.49,46.33c-.06,4.09-1.51,5.33-5.34,4.7-.14-.02-.28-.06-.42-.09-6.13-1.23-7.72-2.54-3.36-8.83,.99-1.43,2.4-2.45,3.89-3.31,2.43-1.4,3.49-.97,4.41,1.78,.22,.67,.36,1.38,.45,2.09,.16,1.27,.26,2.56,.37,3.66Z"/><path class="cls-2" d="M117.4,87.93c.11,2.42-2.12,4.74-4.57,4.75-2.28,.02-4.46-2-4.6-4.27-.16-2.46,1.92-4.85,4.35-4.99,2.42-.14,4.71,2,4.82,4.51Z"/><path class="cls-2" d="M87.58,83.05c-.07,2.41-1.99,4.35-4.35,4.39-2.32,.05-4.33-1.97-4.33-4.35,0-2.58,2.15-4.75,4.57-4.63,2.36,.12,4.17,2.15,4.1,4.58Z"/></svg>