<?xml version="1.0" encoding="UTF-8"?><svg id="checklist_note_icon" xmlns="http://www.w3.org/2000/svg" viewBox="0 0 200 200"><defs><style>.cls-1{fill:#d3d7d8;}.cls-2{fill:#1b2b3a;}</style></defs><path class="cls-1" d="M102.99,6.36c17.19,0,34.38,.02,51.57,0,9.67-.01,19.29,1.43,28.98,1.07,.66-.02,1.33,.1,1.99,.21,4.3,.74,5.14,1.64,4.91,5.95-.18,3.49-.56,6.98-1.03,10.45-2.67,19.49-5.1,39.01-7.39,58.54-2.25,19.23-5.97,38.22-8.19,57.42-.96,8.27-1.53,16.59-2.28,24.89-.68,7.63-1.33,15.27-2.06,22.9-.3,3.15-.99,3.8-4.62,3.84-13.67,.15-27.32,1.02-41,1.1-28.85,.17-57.7,1.34-86.56,.8-8.33-.16-16.63-1.11-24.98-.97-3.39,.06-4.11-1.02-3.65-4.38,1.63-12.06,3.34-24.11,5.01-36.17,2.54-18.33,5.06-36.67,7.61-55,1.47-10.57,3.15-21.11,4.45-31.7,2.11-17.21,5.03-34.31,6.6-51.58,.49-5.35,.97-5.8,6.11-6.65,3.48-.58,6.96-.75,10.47-.74,18.02,.01,36.05,0,54.07,0v.03Z"/><path class="cls-2" d="M49.15,171.97c-4.83,.18-9.67,.43-14.43-.77-5.36-1.35-6.64-2.86-6.75-8.26-.14-6.83,2.09-13.12,4.49-19.35,1-2.61,3.22-3.68,5.83-4.14,7.29-1.28,14.63-1.54,21.86-.09,3.75,.75,6.81,.46,9.74-2.01,1.39-1.17,3.01-2.13,4.86-2.47,1.03-.19,2.02-.03,2.7,.86,.7,.91,.47,1.9,.02,2.83-.67,1.39-1.76,2.47-3.02,3.28-3.13,2.01-4.33,4.7-4.01,8.45,.42,4.87-.96,9.58-1.97,14.31-.97,4.56-3.91,6.95-8.34,7.31-3.64,.29-7.32,.06-10.99,.06Zm7.76-25.32c-6.39-.87-11.65-.77-16.91-.66-1.55,.03-2.29,1.18-2.51,2.64-.6,3.94-1.2,7.89-1.78,11.84-.3,2.08,.66,3.19,2.75,3.19,6.49,0,12.97-.03,19.46-.06,1.23,0,2.55-.33,2.74-1.66,.37-2.54,1.5-5.02,.9-8.45-2.26,1.73-4.05,3.13-5.87,4.49-2.14,1.6-4.35,3.09-7.05,3.59-4.08,.74-7.95-2.22-8.06-6.12-.07-2.62,1.55-3.77,3.64-2.18,2.27,1.73,3.93,1.03,5.81-.32,2.15-1.55,4.11-3.3,6.88-6.3Z"/><path class="cls-2" d="M53.21,122.23c-3.49-.16-6.99-.21-10.47-.52-4.11-.36-6.15-2.16-6.58-6.17-.79-7.28,.92-14.24,3.41-20.99,1.03-2.8,3.79-3.73,6.52-3.9,7.31-.45,14.66-.7,21.92,.33,2.83,.4,5.21,.33,7.51-1.4,.79-.59,1.74-.97,2.66-1.35,1.33-.55,2.67-.56,3.61,.7,.96,1.28,.42,2.58-.41,3.68-.69,.92-1.48,1.86-2.43,2.48-3.36,2.2-4.65,5.31-5.03,9.21-.33,3.46-.45,6.97-1.46,10.36-1.57,5.29-3.2,6.69-8.77,7.24-.66,.07-1.33,.11-1.99,.11-2.83,.01-5.66,0-8.49,0v.21Zm9.29-24.55c-5.57-.96-10.67-.75-15.74-.66-1.83,.03-2.48,1.54-2.72,3.08-.56,3.61-1.08,7.23-1.49,10.85-.26,2.29,1.03,3.33,3.23,3.47,6,.36,11.94-.57,17.9-.94,1.98-.12,3.38-4.64,2.06-6.1-.71-.79-1.52-.32-2.2,.16-1.77,1.23-3.47,2.59-5.5,3.39-4.61,1.82-8.87-.82-9.32-5.75-.11-1.21-.03-2.37,1.08-3.11,1.15-.76,2.32-.47,3.15,.47,1.62,1.82,3.18,1.43,4.73,.04,1.46-1.3,3.42-2.06,4.83-4.91Z"/><path class="cls-2" d="M63.36,37.46c5.04-.73,9.68-.79,14.23,.56,2.05,.61,3.42-.86,5.07-1.54,1.97-.82,4.31-3.51,6.08-.79,1.47,2.26-1.33,3.96-2.98,4.99-4.81,3.02-6.09,7.48-6.36,12.72-.16,2.97-.92,5.91-1.43,8.85-.54,3.12-2.49,4.98-5.44,5.87-.95,.29-1.92,.67-2.9,.7-6.81,.24-13.64,.55-20.39-.77-3.96-.78-4.33-1.35-4.29-5.3,.06-6.02,.91-11.94,2.39-17.76,1.5-5.91,3.21-7.24,9.43-7.52,2.32-.1,4.66-.02,6.6-.02Zm7.16,16.46c-2.28,1.15-4.25,2.4-6.39,3.17-3.98,1.43-7.4-.51-8.46-4.53-.36-1.36-.46-2.68,.84-3.6,1.11-.78,2.21-.43,3.23,.31,.91,.66,1.7,1.92,3.01,1.3,2.91-1.38,5.73-2.94,7.69-6.68-4.88,0-9.02,0-13.15,0-1.93,0-3.23,.91-3.58,2.79-.71,3.93-1.32,7.87-1.92,11.82-.28,1.85,.61,2.9,2.48,2.91,4.49,.03,8.98,.02,13.47-.03,2.25-.03,3.29-1.32,3.26-3.53-.02-1.15,.31-2.32-.48-3.93Z"/><path class="cls-2" d="M109.2,97.5c4.23,2.05,9.45-.68,14.42,.15,6.24,1.05,12.58-.05,18.78,1.64,2.64,.72,5.63,.11,8.46,.19,3.92,.1,6.14,1.37,6.4,3.53,.26,2.16-1.45,3.49-5.73,4.33-2.45,.48-4.93,.82-7.39,1.26-1.87,.34-3.82,.37-5.33-.72-2.5-1.8-4.93-1.53-7.54-.52-1.99,.76-4.03,.65-5.75-.57-2.04-1.44-4.05-1.28-6.16-.47-3.88,1.5-7.64,2.34-11.3-.68-1.24-1.02-2.9-.36-4.39-.37-1.58-.01-3.09-.36-3.61-2.08-.58-1.92,.5-3.21,2.04-4.11,1.91-1.12,4-1.62,7.1-1.59Z"/><path class="cls-2" d="M107.64,139.62c.57,.1,1.87,.01,2.82,.54,3.32,1.84,6.69,1.54,10.21,.86,3.13-.6,6.32-.69,9.34,.62,1.64,.71,3.23,.51,4.89,.18,4.03-.8,7.97-.02,11.86,.95,.95,.24,1.91,.67,2.71,1.23,2.4,1.68,2.45,4.04,.04,5.69-2.62,1.8-5.69,2.26-8.62,1.28-2.74-.93-5.19-.7-7.76,.25-1.93,.72-3.95,1.07-5.8-.06-2.7-1.65-5.41-1.27-8.19-.42-4.7,1.44-9.19,1.92-12.76-2.51-1.1-1.37-2.74-.94-4.21-.96-1.64-.03-3.05-.54-3.41-2.3-.34-1.7,.69-2.86,2.07-3.65,1.91-1.09,4.01-1.61,6.81-1.7Z"/><path class="cls-2" d="M118.07,49.57c.33,.06,.67,.21,.98,.16,7.72-1.23,15.47-.8,23.24-.74,4.42,.04,8.97-.14,13.45-.51,1.82-.15,3.68-.11,5.44,.55,1.82,.69,3.35,1.73,3.25,3.92-.09,1.9-1.42,3.02-3.09,3.55-3.85,1.21-7.84,1.98-11.83,1.22-2.4-.45-4.61-.33-6.89,.28-1.62,.43-3.22,.64-4.92,.2-4.91-1.27-10.02-.77-14.75,.18-4.47,.9-7.82-.94-11.45-2.26-2.22-.81-2.13-3.72-.11-5.36,1.98-1.62,4.31-1.57,6.68-1.19Z"/></svg>