<?xml version="1.0" encoding="UTF-8"?><svg id="coffee_cup_icon" xmlns="http://www.w3.org/2000/svg" viewBox="0 0 200 200"><defs><style>.cls-1{fill:#d3d7d8;}.cls-2{fill:#1b2b3a;}</style></defs><path class="cls-1" d="M99.05,185.37c-18.03,.4-35.84-1.62-53.54-4.86-8.36-1.53-16.22-4.63-23.64-8.71-3-1.65-5.79-3.76-8.43-5.97-4.31-3.61-5.07-8.79-2.16-13.84,2.99-5.2,7.33-8.92,12.82-11.35,5.48-2.42,11.22-3.88,17.11-4.84,1.5-.24,3-.48,4.49-.77,3.33-.65,3.63-.97,2.53-4.04-1.74-4.84-2.93-9.8-3.55-14.89-.58-4.79-1.3-9.57-1.36-14.43-.06-5.09-.65-10.12-.1-15.27,.98-9.22,5.88-15.51,14.89-17.59,13.21-3.05,26.52-5.21,40.16-5.4,5.64-.08,11.3-.53,16.96-.7,8.34-.25,16.53,1.19,24.76,2,4.92,.49,9.64,2.18,13.62,5.56,2.37,2.01,3.65,4.35,4.28,7.31,2.24,10.47,1.83,20.89-.66,31.22-2.2,9.15-4.75,18.19-9.72,26.35-1.5,2.46-.99,3.45,1.96,3.88,9.11,1.3,17.62,4.68,26.25,7.6,4.38,1.48,8.03,4.24,11.45,7.32,6.25,5.62,4.34,13.33-1.63,17.19-4.32,2.79-8.94,4.92-13.83,6.53-9.78,3.22-19.83,4.78-30.08,5.44-8.81,.57-17.59,1.66-26.4,2.21-5.37,.33-10.78,.06-16.17,.06Z"/><path class="cls-2" d="M94.91,10.74c3.44,2.36,4.57,5.81,4.3,9.75-.26,3.74-1,7.41-3.11,10.62-1.95,2.97-3.1,6.11-2.76,9.75,.18,1.9,.3,4.07-2.2,4.74-1.73,.46-3.27-1.08-4.03-3.9-1.08-4-.92-7.94,.71-11.77,.7-1.65,1.45-3.3,2.36-4.84,2.08-3.49,2.81-7.17,1.93-11.14-.25-1.12-.24-2.19,.31-3.22h2.49Z"/><path class="cls-2" d="M106.13,70.3c10.8,.38,21.68,.74,32.48,2.39,1.92,.29,3.83,.67,5.47,1.77,2.5,1.68,2.85,4.03,.89,6.33-1.93,2.27-4.47,3.7-7.26,4.61-5.92,1.95-11.98,3.22-18.23,3.51-6.34,.3-12.7,.36-19.02,.39-11.42,.07-22.91-.22-33.94-3.95-2.5-.85-4.89-1.94-7.02-3.49-2.79-2.03-2.67-4.07,.37-5.67,4.11-2.16,8.73-2.55,13.2-3.3,10.9-1.83,21.94-2.23,33.07-2.6Z"/><path class="cls-2" d="M154.86,131.29c-2.33-.1-4.28,.07-6.16-.49-2.73-.81-3.57-2.23-2.98-4.94,.92-4.23,2.37-5.43,7.33-5.68,5.43-.27,10.7-.96,15.33-4.2,2.28-1.6,4.38-3.37,6.01-5.62,4.01-5.54,2-11.05-4.58-12.6-3.14-.74-6.29-.64-9.46-.22-1.23,.16-2.45,.37-3.69,.46-2.18,.15-3.71-.86-4.62-2.81-.95-2.04-.92-4.02,.58-5.81,1.09-1.31,2.45-2.33,4.13-2.59,5.43-.86,10.82-1.97,16.39-.84,11.29,2.3,17.25,11.76,14.25,22.87-1.1,4.08-3.05,7.76-6.01,10.72-7.41,7.4-16.21,11.8-26.51,11.76Z"/><path class="cls-2" d="M99.46,167.38c-17.54-1.31-33.26-6.72-45.38-20.21-1.86-2.07-3.55-4.25-4.75-6.76-.64-1.33-1.63-2.93,.16-4.05,1.5-.94,2.65,.31,3.53,1.34,2.34,2.74,4.9,5.23,7.6,7.62,9.14,8.1,19.99,12.26,31.89,13.7,18.02,2.19,33.4-3.92,46.79-15.73,1.14-1,2.11-2.21,3.51-2.88,1.21-.58,2.44-.66,3.5,.24,1.07,.9,1.22,2.14,.83,3.41-.59,1.9-1.83,3.39-3.19,4.79-5.67,5.85-12.37,10.15-19.85,13.28-6.55,2.74-19.29,5.44-24.62,5.24Z"/><path class="cls-2" d="M109.13,26.2c-.12,2.56-1.24,4.77-2.52,6.9-1.22,2.01-2.43,3.98-2.62,6.41-.09,1.13-.51,2.24-1.81,2.46-1.45,.25-2.26-.78-2.93-1.85-1.27-2.04-1.27-4.24-.3-6.32,1.91-4.08,4.57-7.82,5.14-12.49,.17-1.4,1.74-1.66,2.94-.66,1.73,1.44,2.2,3.41,2.1,5.57Z"/></svg>