<?xml version="1.0" encoding="UTF-8"?><svg id="crying_emoji" xmlns="http://www.w3.org/2000/svg" viewBox="0 0 200 200"><defs><style>.cls-1{fill:#d3d7d8;}.cls-2{fill:#1b2b3a;}</style></defs><path class="cls-1" d="M99.16,187.69c-48.69,.77-88.13-39.52-87.82-87.36C11.67,48.09,51.69,12.73,99.16,12.31c48.74-.44,87.81,38.66,87.76,87.58-.05,49.1-40.63,88.39-87.76,87.8Z"/><path class="cls-2" d="M51.83,165.66c.53-8.9,1.09-17.8,1.59-26.7,.18-3.16,.26-6.33,.31-9.49,.11-8.06,.28-16.11,.74-24.16,.24-4.19,.04-4.3-3.97-5.28-2.88-.7-5.38-2.03-7.61-3.89-1.15-.96-2.1-2.18-1.17-3.74,.89-1.49,2.37-1.56,3.8-.85,5.48,2.74,11.34,2.88,17.28,2.79,4.11-.06,7.98-.95,11.73-2.54,1.32-.56,2.64-1.19,4.02-1.55,1.78-.47,3.57-.31,4.38,1.68,.73,1.8-.38,3.07-1.78,3.95-1.34,.83-2.8,1.47-4.24,2.13-3.75,1.7-3.93,1.96-3.64,5.77,.88,11.79,.67,23.57,.05,35.37-.46,8.76-.46,17.55-1.12,26.3-.37,4.88-.51,9.77-.93,14.65-.36,4.12-1.37,4.78-5.29,3.48-2.86-.95-5.62-2.22-8.46-3.24-3.87-1.4-5.78-3.97-5.41-8.2,.18-2.14,.03-4.32,.03-6.48h-.3Z"/><path class="cls-2" d="M129.85,173.28c1.39-16.52,.55-33.11,2.3-49.61,.67-6.28,1.32-12.6,1.26-18.95-.02-2.61-.8-4.35-3.27-5.44-2.24-.99-4.31-2.35-6.04-4.12-1.06-1.08-1.87-2.38-.84-3.84,1.02-1.45,2.51-1.24,3.89-.54,5.29,2.7,10.75,4.85,16.7,5.62,5.17,.67,10.32,.92,15.45-.28,.42-.1,.84-.19,1.27-.25,2.65-.42,4.28,.25,4.65,1.88,.35,1.54-.85,3.1-3.36,3.83-2.2,.64-4.51,.89-6.76,1.4-3.22,.74-3.86,1.39-4.22,4.55-.42,3.72-.8,7.43-.87,11.19-.28,13.82-1.32,27.6-2.29,41.38-.25,3.59-.32,7.2-.24,10.79,.05,2.47-.85,4.07-3.05,5.18-3.34,1.69-6.53,3.67-9.92,5.26-2.45,1.16-3.43,.55-3.92-2.07-.37-1.98-.52-3.99-.76-5.99Z"/><path class="cls-2" d="M103.32,128.4c-1.52,.04-2.75,.76-3.91,1.65-.91,.7-1.75,1.56-2.76,2.05-2.15,1.04-4.13-.37-3.98-2.77,.04-.7,.24-1.45,.59-2.05,2.46-4.21,6.31-6.42,11.04-6.46,4.58-.04,7.77,2.67,9.86,6.64,.33,.62,.51,1.35,.6,2.05,.17,1.39-.3,2.57-1.53,3.33-1.28,.79-2.53,.5-3.61-.38-.89-.72-1.64-1.61-2.47-2.41-1.07-1.04-2.27-1.78-3.84-1.65Z"/></svg>