<?xml version="1.0" encoding="UTF-8"?><svg id="cutlery_icon" xmlns="http://www.w3.org/2000/svg" viewBox="0 0 200 200"><defs><style>.cls-1{fill:#d3d7d8;}.cls-2{fill:#1b2b3a;}</style></defs><path class="cls-1" d="M167.43,45.12c-.32,9.88-1.75,19.6-5.69,28.71-4.4,10.17-11.09,18.18-22.28,21.51-3.84,1.14-4.09,1.64-4.1,5.54-.02,12.56-.25,25.14,.17,37.69,.37,11.08,1.59,22.13,2.26,33.21,.27,4.46,.34,8.96,.07,13.42-.33,5.53-3.6,8.65-9.16,9.12-2.72,.23-5.48,.37-8.1-.82-3.17-1.45-4.89-3.75-5.16-7.34-.78-10.24,0-20.4,.67-30.61,1.05-15.85,3.53-31.52,5.46-47.26,.37-3.01,.97-5.98,1.42-8.98,.5-3.35,.24-3.98-2.8-5.44-4.32-2.07-7.67-5.2-9.99-9.3-5.49-9.7-7.89-20.1-6.22-31.23,1.39-9.27,2.67-18.58,6.27-27.36,5.99-14.58,18.77-20.63,33.35-19.3,6.88,.63,12,4.6,16,10.08,3.48,4.77,5.45,10.19,6.51,15.91,.76,4.1,1.56,8.24,1.29,12.47Z"/><path class="cls-1" d="M79.09,32.7c0-6.91-.02-12.54,0-18.17,.02-4.16,1.03-6.01,3.26-6.17,2.13-.15,3.76,1.56,4.59,5.45,.96,4.51,1.79,9.07,2.36,13.64,.38,3.01,.92,5.98,1.4,8.97,2.01,12.58,2.95,25.18,1.22,37.89-1.27,9.35-6.36,15.69-14.92,19.1-4.5,1.79-5.15,1.72-4.74,7.68,.77,11.07,1.17,22.16,1.78,33.24,.58,10.5,1.36,20.99,1.76,31.51,.21,5.61,.71,11.22,.7,16.84,0,1.88-.09,3.75-.73,5.55-1.46,4.08-5.13,6.43-9.44,6.04-6.39-.58-9.3-2.93-10.91-9.23-.78-3.06-1.3-6.21-1.42-9.4-.42-11.14,.65-22.18,2.12-33.21,1.08-8.14,2.23-16.26,2.39-24.52,.11-5.6,.78-11.21,.65-16.84-.11-4.91-.35-5.43-4.96-6.67-7.25-1.95-10.74-7.37-13.12-13.83-1.05-2.85-1.74-5.86-1.73-8.89,.09-19.2,.74-38.36,5.65-57.09,.4-1.53,.68-3.12,1.65-4.43,1.65-2.25,3.69-2.21,5.22,.09,.83,1.24,1.15,2.66,1.12,4.12-.07,5.19-.1,10.36-.41,15.56-.62,10.49-1.2,21.05,.84,31.5,.3,1.55,.76,3.08,1.24,4.59,.3,.94,.64,2.08,1.91,2.03,1.31-.05,1.58-1.2,1.62-2.2,.14-3.46,1.06-6.84,1-10.33-.09-5.63-.02-11.26,.01-16.89,.05-7.94,1.1-15.81,1.87-23.7,.18-1.88,.76-3.69,2.11-5.12,2.07-2.2,4.49-1.96,6.09,.6,.97,1.54,1.1,3.26,1.09,5.01-.03,14.14,1.37,28.25,.86,42.4-.1,2.92,.21,5.77,1.47,8.45,.51,1.09,1.19,2.09,2.53,2.03,1.41-.06,1.89-1.17,2.09-2.37,.32-1.85,.73-3.69,.85-5.55,.62-9.64,1.33-19.29,.9-27.68Z"/><path class="cls-2" d="M114.43,57.54c-.13-7.83,.82-14.66,2.62-21.38,.68-2.53,1.55-4.98,3.64-6.74,.89-.75,1.93-1.42,3.12-.62,.98,.66,1.04,1.71,.73,2.72-1.75,5.71-1.84,11.65-2.52,17.51-.74,6.37-.21,12.66,1.58,18.83,.69,2.38,2.04,4.44,3.19,6.6,.79,1.48,1.13,3.07-.32,4.36-1.38,1.23-2.94,.92-4.43,.12-2.98-1.6-4.6-4.29-5.71-7.34-1.75-4.82-2.18-9.83-1.9-14.05Z"/></svg>