<?xml version="1.0" encoding="UTF-8"?><svg id="dead_emoji" xmlns="http://www.w3.org/2000/svg" viewBox="0 0 200 200"><defs><style>.cls-1{fill:#d3d7d8;}.cls-2{fill:#1b2b3a;}</style></defs><path class="cls-1" d="M99.84,192.33c-51.66,.86-93.4-41.84-93.14-92.43C7,44.5,49.56,6.83,100.09,6.56c51.4-.27,92.6,40.96,92.6,92.67,0,52.08-43,93.68-92.85,93.11Z"/><path class="cls-2" d="M108.78,126.52c.09,2.33-.45,4.54-1.22,6.7-1.33,3.73-4.28,5.46-7.97,5.93-3.67,.47-6.52-1.11-8.46-4.23-2.82-4.54-2.78-9.24-.51-13.93,2.01-4.17,6.08-6.15,10.57-5.37,4.03,.7,6.68,3.62,7.37,8.19,.14,.9,.15,1.82,.22,2.73Zm-12.18,.24c.11,.86,.13,1.63,.31,2.36,.3,1.24,.89,2.39,2.32,2.47,1.74,.1,2.31-1.23,2.63-2.63,.38-1.66,.43-3.34-.3-4.93-.49-1.06-1.32-1.7-2.53-1.56-.99,.12-1.69,.76-1.98,1.68-.26,.86-.32,1.79-.46,2.6Z"/><path class="cls-2" d="M66.74,85.85c.13-1.47-.69-2.22-1.34-3.04-.94-1.2-1.83-2.44-2.09-3.99-.21-1.27-.04-2.46,1.06-3.28,1.11-.83,2.28-.64,3.42-.02,.13,.07,.25,.17,.39,.24,1.31,.65,2,2.65,3.75,2.17,1.52-.42,2.03-2.18,3.11-3.22,.54-.52,1.13-1.05,1.8-1.34,1.69-.71,3.12,.31,2.98,2.14-.14,1.85-.99,3.51-1.89,5.09-1.18,2.08-1.3,3.91,.44,5.8,1.53,1.68,3.41,3.66,1.69,6-1.8,2.45-4.1,1.07-6.08-.14-1.5-.91-2.53-.53-3.48,.78-.53,.73-1.12,1.45-1.81,2.03-1.1,.91-2.38,1.46-3.77,.63-1.59-.95-1.66-2.5-1.15-4.01,.43-1.28,1.16-2.46,1.78-3.68,.41-.8,.87-1.59,1.18-2.16Z"/><path class="cls-2" d="M123.75,85.04c0-1.07-.64-1.74-1.14-2.51-.66-1.01-1.38-2.02-1.83-3.13-.59-1.45,.06-2.68,1.2-3.62,1.14-.93,2.6-.75,3.33,.16,2.79,3.49,5.17,2.84,7.85-.14,.94-1.04,2.56-1.04,3.75,.04,1.23,1.12,.95,2.49,.28,3.77-.49,.94-1.05,1.87-1.74,2.67-1.48,1.72-1.74,3.41-.42,5.36,.76,1.13,1.37,2.39,1.45,3.8,.14,2.79-2.04,4.23-4.54,2.93-.66-.34-1.35-.83-1.75-1.43-1.48-2.26-2.91-2.08-4.68-.3-1,1-2.42,1.59-3.71,.51-1.48-1.24-.74-2.76-.11-4.17,.61-1.38,1.81-2.47,2.06-3.95Z"/></svg>