<?xml version="1.0" encoding="UTF-8"?><svg id="dairy_notebook_icon" xmlns="http://www.w3.org/2000/svg" viewBox="0 0 200 200"><defs><style>.cls-1{fill:#d3d7d8;}.cls-2{fill:#1b2b3a;}</style></defs><path class="cls-1" d="M126.4,185.45c-7.31-.3-14.63-.35-21.91-.96-21.73-1.84-43.52-2.45-65.29-3.46-2.39-.11-4.69-.81-7.13-.64-1.96,.14-2.92-1.36-2.91-3.11,.03-4.23-.83-8.4,.03-12.7,1.01-5.06,1.28-10.29,1.61-15.43,.46-7.03,1.36-14.01,1.97-21.02,.86-9.91,2.31-19.77,3.36-29.67,.53-5.02,.99-10.04,1.45-15.06,.81-8.89,2.53-17.61,3.91-26.39,1.17-7.47,2.1-14.98,3.04-22.49,.66-5.27,1.28-10.55,2.35-15.75,.74-3.59,2.26-4.96,5.94-5.38,1.44-.17,2.92-.1,4.38-.03,15.68,.66,31.38,.97,47.01,2.14,9.67,.72,19.37,1.08,29.02,1.94,8.45,.75,16.85,2.14,25.28,3.17,4.87,.6,9.76,1.08,14.65,1.57,1.46,.15,2.89,.3,4.26,.91,2.41,1.09,3.89,2.82,3.77,5.55-.44,9.95-.17,19.94-1.68,29.84-.64,4.2-1.07,8.46-1.37,12.66-.53,7.42-1.71,14.78-1.92,22.23-.3,10.76-1.53,21.45-2.8,32.13-.62,5.27-.98,10.59-1.38,15.87-.63,8.34-1.87,16.65-2.04,25.02-.1,4.94-1.17,9.76-1.55,14.66-.24,3.22-1.53,4.4-4.64,5.15-2.21,.54-4.46,.61-6.73,.51-10.23-.45-20.46-.86-30.69-1.29v.04Z"/><path class="cls-2" d="M101.19,105.45c13.47,.58,25.29,.98,37.05,2.44,1.59,.2,3.16,.44,4.63,1.12,1.16,.54,1.96,1.41,1.87,2.78-.09,1.38-.98,2.18-2.23,2.49-1.02,.25-2.1,.38-3.15,.34-4.38-.19-8.76-.34-13.12-.98-2.62-.38-5.29-.52-7.94-.65-10.89-.52-21.78-1.05-32.67-1.46-4.53-.17-8.99-.89-13.49-1.31-.26-.02-.53-.04-.79-.12-1.65-.47-3.82-.7-3.66-2.92,.16-2.32,2.35-2.08,4.06-2.18,10.38-.61,20.73,.39,29.44,.44Z"/><path class="cls-2" d="M100.9,145.68c-8.62-.36-17.24-.73-25.86-1.07-2.13-.09-4.23-.35-6.29-.92-1.34-.37-2.66-.96-2.58-2.57,.09-1.84,1.61-2.36,3.12-2.44,3.71-.19,7.43-.43,11.13-.3,16.32,.55,32.63,1.23,48.94,1.87,1.6,.06,3.18,.18,4.65,.91,1,.5,1.83,1.19,1.86,2.38,.03,1.36-.86,2.19-2.04,2.67-1.89,.78-3.89,.75-5.88,.67-9.02-.38-18.04-.75-27.05-1.13v-.06Z"/><path class="cls-2" d="M103.3,81.12c-9.26-.78-18.59-.38-27.81-1.79-1.05-.16-2.13-.12-3.09-.67-.59-.34-1.11-.78-1.08-1.53,.03-.73,.52-1.2,1.14-1.49,.98-.46,2.02-.61,3.1-.63,18.86-.48,37.68,.16,56.46,2.1,2.38,.25,4.76,.38,7.15,.53,1.6,.11,3.17,.37,4.66,.98,1.03,.42,1.9,1.11,1.85,2.33-.06,1.39-1.05,2.08-2.28,2.43-1.43,.41-2.9,.21-4.36,.14-8.62-.42-17.16-1.84-25.8-1.99-3.32-.06-6.63-.26-9.95-.4Z"/><path class="cls-2" d="M89.04,43.71c11.51,1.49,23.62,1.18,35.65,2.2,6.33,.54,12.63,1.52,18.92,2.44,2.69,.39,4.08,1.68,3.97,3.17-.11,1.58-1.96,2.58-4.86,2.35-3.3-.27-6.61-.59-9.87-1.15-6.7-1.14-13.48-1.18-20.22-1.57-9.01-.52-17.99-1.17-26.91-2.57-1.45-.23-2.88-.49-4.19-1.17-.74-.38-1.3-.96-1.22-1.87,.08-.92,.73-1.36,1.53-1.61,2.22-.69,4.48-.27,7.21-.22Z"/><path class="cls-2" d="M20.61,119.18c.31-7.94,7.05-13.05,14.84-11.22,1.29,.3,2.59,.63,3.8,1.14,1.65,.69,2.47,1.97,2.04,3.83-.4,1.73-1.4,2.87-3.26,2.94-1.72,.06-3.45-.05-5.17,.02-1.59,.07-2.88,.7-3.14,2.46-.24,1.63-.24,3.24,1.59,4.08,1.08,.49,2.36,.78,2.55,2.22,.26,2.02-.23,3.99-.96,5.82-.56,1.4-1.97,1.01-3.15,.73-5.34-1.24-9.34-6.52-9.12-12.02Z"/><path class="cls-2" d="M41.35,58.71c-.93-.04-1.86-.14-2.78-.1-2.84,.13-3.96,1.99-2.83,4.6,.55,1.26,1.58,2.07,2.61,2.92,1.84,1.53,2.01,5.04,.42,6.72-.72,.76-1.61,.76-2.57,.58-5.14-.98-9.76-6.35-9.94-11.58-.17-4.88,3.91-9.72,9.24-11,3.03-.72,6.03-.8,8.99,.36,2.81,1.1,3.79,2.52,3.26,4.65-.59,2.35-1.75,3.07-4.81,2.97-.53-.02-1.06-.04-1.59-.07v-.07Z"/><path class="cls-2" d="M48.2,32.86c-.89-.19-2.18-.57-3.49-.72-1.61-.19-3.39-.19-4.19,1.5-.9,1.9,.17,3.32,1.83,4.27,1.38,.79,2.17,1.71,1.92,3.51-.53,3.69-1.41,4.35-4.97,3.26-.63-.19-1.26-.42-1.88-.66-3.76-1.43-6.46-4.01-6.82-8.06-.38-4.21,1.91-7.35,5.46-9.48,4.72-2.83,9.58-2.79,14.44-.37,2.32,1.16,3.08,2.57,2.53,4.35-.58,1.87-1.98,2.64-4.83,2.41Z"/><path class="cls-2" d="M32.5,139.29c1.46,.07,2.91,.21,4.2,1.01,1.52,.94,2.22,2.27,1.76,4.03-.41,1.56-1.42,2.51-3.1,2.59-.93,.04-1.87-.04-2.78,.08-2.13,.29-4.36,.7-5.15,3.06-.72,2.16-.21,4.36,1.54,5.82,1.81,1.52,1.98,3.31,1.69,5.34-.38,2.71-1.54,3.45-4.12,2.3-4.29-1.91-7.06-5.25-7.65-9.92-.93-7.33,6.24-14.7,13.62-14.32Z"/><path class="cls-2" d="M25.57,91.44c.17-7.42,7.96-13.23,14.4-11.42,1.86,.52,3.42,1.46,4.08,3.43,.89,2.67-.4,4.81-3.2,5.15-1.31,.16-2.65,.06-3.97,.12-1.33,.06-2.8,.03-3.33,1.59-.46,1.37,0,2.79,1.12,3.58,2.62,1.85,1.96,4.39,1.72,6.84-.16,1.66-1.25,2.18-2.84,1.85-3.78-.79-5.98-3.26-7.07-6.79-.51-1.63-.7-3.36-.9-4.35Z"/></svg>