<?xml version="1.0" encoding="UTF-8"?><svg id="dumbbell_icon" xmlns="http://www.w3.org/2000/svg" viewBox="0 0 200 200"><defs><style>.cls-1{fill:#d3d7d8;}.cls-2{fill:#1b2b3a;}</style></defs><path class="cls-1" d="M194.69,116.37c-.09,5.7,.08,9.95-.93,14.21-1.73,7.26-5.61,12.74-11.65,17.17-9.33,6.85-28.3,8.67-37.56,2.75-6.05-3.87-9.65-9.48-12.69-15.59-3.28-6.59-3.13-6.54-10.67-5.83-5.88,.55-11.79,.71-17.68,1.11-6.92,.47-13.83,1.04-20.75,1.49-3.09,.2-6.2,.31-9.3,.28-2.48-.02-3.8,1.02-4.34,3.45-.87,3.9-2.14,7.67-3.79,11.34-3.5,7.81-9.76,12.22-17.81,13.89-4.85,1.01-9.9,1.53-14.95,.81-7.42-1.06-13.04-4.85-17.88-10.49C-.6,133.17-.19,104.77,10.8,86.38c5.49-9.19,13.22-15.55,24.2-16.89,9.99-1.22,19.13,1.29,26.93,7.68,4.3,3.52,5.83,8.81,7.29,13.95,1.28,4.5,1.17,4.63,5.94,4.48,4.87-.15,9.72-.74,14.57-1.09,9.87-.72,19.75-1.04,29.63-1.52,1.33-.06,2.67,.01,3.99-.08,4.09-.29,5.09-1.04,6.04-5.1,1.34-5.7,3.12-11.1,7.8-15.07,2.39-2.03,4.88-3.87,7.91-4.78,8.48-2.54,17.08-3.56,25.81-1.52,8.43,1.97,14.5,6.79,18.1,14.85,3.13,7.02,4.44,14.32,4.85,21.92,.27,4.86,1.08,9.69,.83,13.17Z"/><path class="cls-2" d="M50.32,121.12c.07,5.84,.03,11.15-.89,16.42-.99,5.68-3.31,10.69-7.1,15.02-.39,.44-.77,.9-1.21,1.29-1.96,1.7-3.88,1.95-5.12,.62-1.56-1.68-.76-3.3,.34-4.79,1.57-2.14,3.32-4.15,4.41-6.62,1.2-2.73,2.12-5.55,2.18-8.53,.24-11.81,.81-23.62-.88-35.38-.76-5.31-2.3-10.37-4.59-15.21-1.43-3.03-3.2-5.66-6.89-6.27-1.14-.19-2.49-.59-2.33-2.15,.15-1.45,1.47-1.73,2.64-1.91,4.08-.62,7.21,.94,9.52,4.28,4.18,6.05,6.89,12.73,8.14,19.94,1.35,7.87,2.05,15.81,1.79,23.29Z"/><path class="cls-2" d="M187.82,119.27c.39,6.04-.53,11.83-2.49,17.48-1.18,3.4-3,6.42-5.45,9.03-.93,.99-2.07,1.84-3.51,.94-1.27-.8-1.68-2.11-1.26-3.49,.42-1.4,2.29-2.57,3-3.85,4.09-7.37,5.6-17.5,4.52-25.8-.78-6-1.93-11.51-2.97-17.47-1.25-7.2-4.64-12.47-9.3-18.28-.55-.69-1.05-1.43-1.51-2.19-.57-.93-.93-1.94,.06-2.8,1.08-.94,2.25-.56,3.28,.1,4.04,2.62,7.28,5.88,9.26,10.43,3.04,6.99,4.71,14.31,5.44,21.83,.46,4.69,1.33,9.37,.93,14.07Z"/><path class="cls-2" d="M154.18,111.67c.08,3.56-.07,7.1-1.14,10.53-1.85,5.94-5.71,9.43-12.01,10.27-3.85,.51-7.64,.69-11.47,0-1.38-.25-2.76-.65-2.82-2.29-.06-1.7,1.46-2.13,2.73-2.39,3.04-.61,6.12-.97,9.23-1.1,5.01-.21,7.06-1.86,8.79-6.61,1.36-3.74,.97-7.59,.81-11.42-.08-1.91-.4-3.82-.54-5.73-.27-3.7-2.21-6.07-5.73-7.03-4-1.1-8.1-1.59-12.27-1.34-1.93,.11-4.4,.55-4.7-1.93-.31-2.54,2.36-2.74,4.16-2.98,5.31-.7,10.61-.59,15.84,.82,3.79,1.02,6.04,3.56,7.16,7.2,1.41,4.55,2.13,9.21,1.95,13.99Z"/><path class="cls-2" d="M75.21,115.79c.28,4.63-.35,8.84-1.75,12.92-.38,1.1-.88,2.2-1.56,3.13-.84,1.16-2.1,1.62-3.52,1.09-1.42-.53-2-1.7-1.96-3.13,.02-.72,.2-1.46,.43-2.16,2.76-8.26,1.98-16.55,.3-24.87-.29-1.44-.6-2.89-.65-4.34-.03-1.06,.57-1.97,1.69-2.35,1.14-.39,2.03,.13,2.74,.93,1.21,1.35,1.81,3.03,2.32,4.72,1.41,4.68,2.23,9.46,1.96,14.06Z"/></svg>