<?xml version="1.0" encoding="UTF-8"?><svg id="facial_mask_icon" xmlns="http://www.w3.org/2000/svg" viewBox="0 0 200 200"><defs><style>.cls-1{fill:#d3d7d8;}</style></defs><path class="cls-1" d="M181.43,101.49c-.27,11.42-.8,22.83-2.77,34.1-1.64,9.32-4.82,18.08-10.76,25.6-3.9,4.94-9,8.62-14.09,12.19-6.93,4.86-13.8,9.78-20.58,14.84-2.38,1.77-4.84,3.45-7.39,4.96-3.34,1.99-6.95,3.16-10.88,3.63-5.44,.65-10.82,1.86-16.36,1.56-7.86-.43-15.04-2.61-21.62-7.17-7.55-5.24-15.39-10.07-23.2-14.92-8.41-5.21-14.53-12.59-20.03-20.58-1.35-1.95-2.32-4.15-3.01-6.44-2.69-8.81-5.09-17.65-5.25-26.99-.07-4.58-1.01-9.14-.74-13.76,.98-16.72,1.49-33.5,6.14-49.78,3.57-12.51,9.8-23.42,18.8-32.88,9.63-10.12,20.83-17.76,34.28-21.51,14.01-3.91,28.02-3.79,41.96,1.28,13.82,5.03,24.45,13.94,34.29,24.62,12.59,13.65,17.2,30.14,19.49,47.76,1.02,7.79,2.04,15.6,1.73,23.5Zm-46.55,8.78c5.22,.5,10.4-.87,14.25-5,10.44-11.2,8.11-31.11-5.85-36.47-1.66-.64-3.22-1.52-4.88-2.15-4.82-1.82-9.36-1.15-13.44,1.95-5.21,3.96-9.11,8.89-10.61,15.42-2.86,12.44,6.32,27.29,20.53,26.25Zm-87.09-20.17c0,.68,0,1.57,0,2.46-.09,10.52,9.54,17.62,18.77,17.5,10.58-.14,24.49-9.31,23.34-24.55-.9-11.99-10.94-20.42-22.87-18.65-12.4,1.84-20.23,13.5-19.24,23.25Zm57.53,64.74c4.23-.43,8.58-1.37,12.49-3.55,3.52-1.97,6.18-5.05,8.67-8.16,1.41-1.75,.91-2.87-1.23-3.68-1.68-.64-3.49-.55-5.24-.79-7.33-1-14.75-.52-22.09-1.49-2.76-.36-5.62-.28-8.41-.09-2.65,.18-3.27,1.16-2.81,3.85,.56,3.26,1.9,6.05,4.22,8.59,3.91,4.3,9.02,4.63,14.39,5.32Z"/></svg>