<?xml version="1.0" encoding="UTF-8"?><svg id="falling_in_love_emoji" xmlns="http://www.w3.org/2000/svg" viewBox="0 0 200 200"><defs><style>.cls-1{fill:#d3d7d8;}.cls-2{fill:#1b2b3a;}</style></defs><path class="cls-1" d="M195.77,97.73c1.51,50.45-40.07,95.74-94.51,95.88-54.57,.15-94.39-42.29-95.41-92.19C4.6,40.79,52.98,3.46,101.58,3.33c51.36-.14,95.9,43.65,94.19,94.4Z"/><path class="cls-2" d="M146.37,80.51c.02,3.22-.6,5.47-1.51,7.64-2.06,4.87-5.51,8.65-9.49,12.01-1.77,1.49-3.62,1.79-5.52,.26-4.54-3.65-8.64-7.66-10.98-13.17-.74-1.75-1.23-3.56-1.32-5.43-.32-6.8,6.13-10.94,12.15-7.75,1.56,.83,2.78,1.92,4.54,.33,2.35-2.12,5.11-3.19,8.15-1.51,3.29,1.82,3.88,5.05,3.97,7.62Z"/><path class="cls-2" d="M78.88,81.28c-.92,7.03-4.57,13.41-9.82,18.98-1.32,1.4-3.03,1.59-4.73,.72-1.1-.56-2.19-1.22-3.13-2.01-4.28-3.58-7.29-8.12-9.38-13.22-1.39-3.38-1.14-6.87,1.46-9.63,2.54-2.7,5.8-2.88,9.04-1.31,1.84,.89,3.18,.49,4.68-.67,2.37-1.83,5-2.57,7.84-1,2.91,1.61,3.95,4.25,4.04,8.14Z"/><path class="cls-2" d="M97.07,127.63c-4.64,0-8.35-2.4-9.91-6.39-.58-1.48-.78-2.99-.35-4.55,.43-1.57,1.04-3.03,2.9-3.18,1.71-.13,2.4,1.2,2.93,2.53,.64,1.62,1.29,3.17,3.22,3.66,2.31,.59,4.17-.25,5.83-2.7,2.04-3.02,3.32-3.74,4.97-2.78,1.6,.93,2.01,3.15,1.11,5.92-1.44,4.43-5.82,7.5-10.7,7.5Z"/></svg>