<?xml version="1.0" encoding="UTF-8"?><svg id="hanger_icon" xmlns="http://www.w3.org/2000/svg" viewBox="0 0 200 200"><defs><style>.cls-1{fill:#d3d7d8;}.cls-2{fill:#1b2b3a;}</style></defs><path class="cls-1" d="M110.72,74.88c.45,1.17,1.52,1.15,2.42,1.41,18.39,5.2,35.35,13.5,51.65,23.39,10.58,6.42,20,14.02,27.35,23.99,2.76,3.75,5.22,7.77,5.18,12.73-.03,4.14-.94,5.38-5.02,5.31-15.9-.26-31.8,.57-47.7-.7-8.31-.67-16.72,.07-25.07-.34-20.23-.99-40.49-.38-60.71-1.12-10.6-.39-21.19-.44-31.78-.8-4.33-.15-8.64-.63-12.96-1.03-1.11-.1-2.23-.38-3.27-.78-2.96-1.12-3.68-2.59-2.84-5.61,.47-1.72,1.39-3.23,2.27-4.77,5.63-9.8,14.12-16.57,23.66-22.14,6.94-4.05,13.92-8.06,21.13-11.59,12.7-6.21,25.56-12.1,38.42-17.97,7.46-3.4,14.03-7.84,18.62-14.75,3.75-5.65,2.95-11.7-1.8-15.59-2.39-1.95-4.79-2.33-7.54-.75-2.16,1.23-3.88,2.8-5.13,4.95-.97,1.66-1.95,3.35-3.13,4.86-1.71,2.18-4.02,2.74-5.92,1.58-2.12-1.3-2.52-3.34-1.73-5.48,2.12-5.77,9.06-14.5,17.88-15.06,13.79-.87,22.97,11.82,17.6,24.56-2.04,4.84-5.52,8.63-8.91,12.49-.92,1.05-2.41,1.65-2.63,3.23ZM18.45,129.96c6.13,.32,11.55,.86,16.92,1.01,17.98,.51,35.97,.28,53.96,.96,17.63,.67,35.3-.25,52.95,.2,2.09,.05,4.18,.07,6.26,.23,11.36,.9,22.72,1.91,34.13,1.63,4.97-.12,5.54-1.15,3.04-5.32-.25-.41-.52-.81-.79-1.22-7.05-10.62-17.03-17.92-28.03-23.75-16.52-8.75-34.15-14.91-51.82-20.88-2.43-.82-4.62-.6-7,.31-12.62,4.84-24.77,10.72-36.96,16.51-10.05,4.78-19.77,10.05-28.87,16.41-5.11,3.57-10.27,7.21-13.79,13.9Z"/><path class="cls-2" d="M59.33,138.25c0,1.29,.05,2.57,0,3.86-.3,6.35-6.39,9.63-12,6.5-1.72-.96-2.4-2.51-2.56-4.37-.42-4.69,.31-9.31,1-13.91,.42-2.79,2.23-3.78,5.79-3.91,4.14-.15,6.14,.98,7.25,4.18,.87,2.49,.51,5.09,.53,7.65Z"/><path class="cls-2" d="M143.05,138.08c.06-1.3,0-3.4,.27-5.45,.49-3.58,2.38-5.01,6.35-5.1,3.59-.09,5.6,1.26,6.38,4.49,1.06,4.41,1.05,8.91,.63,13.38-.34,3.55-2.4,5.23-5.7,5.21-4.32-.02-7.47-2.11-7.88-5.51-.25-2.05-.05-4.15-.05-7.01Z"/></svg>