<?xml version="1.0" encoding="UTF-8"?><svg id="heart_icon" xmlns="http://www.w3.org/2000/svg" viewBox="0 0 200 200"><defs><style>.cls-1{fill:#d3d7d8;}.cls-2{fill:#1b2b3a;}</style></defs><path class="cls-1" d="M55.53,29.65c14.82,.33,24.58,4.49,32.77,12.39,4.4,4.25,8.3,8.94,11.9,13.88,1.84,2.53,2.32,2.59,3.59-.32,3.68-8.43,9.73-14.81,17-20.15,6.98-5.12,14.83-8.35,23.4-9.43,9.98-1.26,18.54,2.35,26,8.75,9.44,8.1,15.12,18.31,16.89,30.68,1.9,13.28-.49,25.94-5.7,38.07-6.77,15.78-16.5,29.63-28.67,41.75-12.28,12.24-25.7,22.95-41.06,31.17-5.13,2.75-10.17,3.36-15.7,1.89-7.36-1.95-14.38-4.81-21.02-8.42-8.29-4.49-16.25-9.58-23.57-15.56-14.16-11.57-25.6-25.37-33.52-41.92-2.89-6.03-4.19-12.58-5.06-19.18-1.88-14.31,1.41-27.64,7.91-40.32,6.29-12.25,21.91-23.96,34.83-23.29Z"/><path class="cls-2" d="M43.77,60.1c-.28,1.02-.57,2.31-.97,3.56-2.64,8.2-3.17,16.58-2.01,25.08,.18,1.3,.61,2.57,.94,3.84,.23,.89,.58,1.77,.73,2.67,.28,1.72-.18,3.23-1.89,3.96-1.69,.72-3.11,0-4.22-1.32-1.22-1.44-1.88-3.19-2.38-4.97-2.31-8.21-2.21-16.45-.14-24.69,.68-2.7,1.58-5.33,2.95-7.77,.52-.92,1.09-1.82,1.79-2.6,.92-1.03,2.08-1.71,3.52-1.01,1.22,.59,1.52,1.74,1.68,3.25Z"/><path class="cls-2" d="M40.93,112.41c.07-2.72,1.98-3.84,4.08-2.48,1.84,1.19,3.1,2.91,3.55,5.1,.26,1.26-.1,2.39-1.24,3.12-1.14,.73-2.31,.58-3.36-.15-2-1.4-2.74-3.49-3.03-5.58Z"/></svg>