<?xml version="1.0" encoding="UTF-8"?><svg id="house_icon" xmlns="http://www.w3.org/2000/svg" viewBox="0 0 200 200"><defs><style>.cls-1{fill:#d3d7d8;}.cls-2{fill:#1b2b3a;}</style></defs><path class="cls-1" d="M8.25,127.8c-.45-11.45,1.23-22.85,.71-34.3-.12-2.64,1.1-4.72,2.55-6.7,7.05-9.58,14.04-19.22,21.75-28.29,6.52-7.67,13.09-15.29,19.51-23.04,2.42-2.92,5.21-4.4,9.06-4.4,31.14,.04,62.28,.01,93.42-.06,2.9,0,4.78,.84,6.19,3.58,7.02,13.72,14.26,27.33,21.34,41.02,1.68,3.25,3.06,6.66,4.61,9.97,.8,1.7,1.03,3.48,1.09,5.34,.54,17.1-1.19,34.15-1.01,51.24,.04,3.82-1.19,4.83-4.93,5.14-.46,.04-.92,.04-1.37,.04-18.92,.07-37.81,1.48-56.74,1.01-5.19-.13-10.3,1.13-15.52,.84-31.26-1.72-62.55-.5-93.82-.92-5.44-.07-6.41-.79-6.78-6.29-.31-4.71-.06-9.46-.06-14.19Z"/><path class="cls-2" d="M34.92,145.6c.13,.82,.1,2.39,.97,2.85,.41,.22,.89,.22,1.36,.22,6.41,0,12.81,.01,19.22,.03,2.04,0,6.93,.88,8.15-.65,1.43-1.8,.64-5.33,.54-7.42-.18-3.64-.19-7.3-.35-10.94-.37-8.33-1.05-16.64-1.1-24.98-.03-4.86-1.61-6.39-6.41-6.39-5.79,0-11.58,.42-17.37,.7-2.28,.11-3.68,1.3-4.03,3.61-.16,1.06-.46,2.11-.46,3.16,.03,8.7-1.26,17.36-.87,26.08,.21,4.57-.4,9.16,.34,13.72Z"/><path class="cls-2" d="M189.61,91.56c-.23-.27-.57-.46-1.05-.54-1.04-.16-2.14-.12-3.19,.04-2.73,.41-5.49,.57-8.22,.35-6.86-.55-13.7-.18-20.56-.01-17.7,.44-35.33,1.91-52.97,3.21-3.88,.29-5.78-.85-7.74-3.84-11.54-17.62-22.77-35.44-33.44-53.61-.69-1.18-1.4-2.38-2.26-3.43-.92-1.13-2.15-1.79-3.63-.98-1.45,.8-1.68,2.13-1.17,3.55,.41,1.14,.94,2.26,1.55,3.31,3.34,5.82,6.85,11.56,10.06,17.45,7.83,14.35,16.22,28.35,26.1,41.41,1.14,1.51,1.1,3.02,1.07,4.73-.19,9.76-1.62,19.48-1.2,29.26,0,3.97-.02,7.94,0,11.91,.01,1.68,.01,3.37,.23,5.03,.25,1.88,2.07,1.48,3.65,1.59,2.86,.2,2.8-3.85,2.81-5.82,.11-12.36,1.2-24.7,.92-37.07-.02-1.07-.05-2.14,.01-3.21,.18-3.23,.52-3.71,3.76-3.91,14.46-.88,28.92-1.97,43.4-2.44,12.5-.41,25-1.22,37.52-1,1.92,.03,4.82,.34,4.78-2.35-.02-1.28,.25-2.82-.45-3.64Z"/></svg>