<?xml version="1.0" encoding="UTF-8"?><svg id="jogging_icon" xmlns="http://www.w3.org/2000/svg" viewBox="0 0 200 200"><defs><style>.cls-1{fill:#d3d7d8;}</style></defs><path class="cls-1" d="M120.54,182.38c1.18-11.37,.49-22.79,.89-34.18,.16-4.6-1.91-7.1-4.97-10.18-3.61-3.64-7.37-7.13-11.26-10.46-.42-.36-.87-.73-1.4-.88-1.37-.37-2.5,1.52-3.22,2.4-3.81,4.71-7.34,9.63-11.67,13.93-3.06,3.03-6.48,4.47-10.81,4.53-7.38,.11-14.22-2.14-21.16-4.08-3.61-1.01-7.26-1.9-10.94-2.65-4.06-.83-5.33-.22-7.52,3.32-1.08,1.75-2.27,3.36-3.97,4.51-4.51,3.05-10.29,.79-10.87-4.58-.77-7.05-.6-14.17,1.47-21.04,2.06-6.86,6.71-9.47,14.02-8.2,8.28,1.44,16.23,4.1,24.23,6.56,1.52,.47,3.01,1.07,4.55,1.39,3.37,.69,5.22-.63,5.72-4.07,.85-5.85,1.53-11.73,2.44-17.58,.65-4.19-1.38-7.26-3.9-10.12-3.16-3.58-6.02-7.4-8.68-11.34-2.78-4.11-4.72-8.52-4.64-13.71,.1-6.6,2.99-11.78,8.05-15.56,8.14-6.08,17.44-9.48,27.6-10.39,.72-.06,1.46-.07,2.14-.27,1.62-.48,1.9-1.46,.94-2.96-.15-.24-.37-.44-.55-.67-6.32-8.08-5.75-17.64,1.46-24.9,11.1-11.17,31.11-5.91,35.41,9.3,2.45,8.67-.37,16.38-7.88,21.52-.6,.41-1.23,.76-1.8,1.21-1.92,1.5-2.18,2.27-.53,3.8,6.67,6.21,12.08,13.6,18.76,19.79,3.09,2.86,3.48,3.01,7.18,1.04,5.1-2.71,10.14-5.52,15.18-8.33,2.03-1.13,4.04-2.24,6.47-2.23,1.97,0,3.8,.28,4.75,2.29,1,2.1,1.13,4.28-.47,6.11-1.8,2.06-3.7,4.09-5.81,5.82-6.02,4.95-12.22,9.67-18.75,13.96-4.5,2.95-8.85,3.85-13.67,.7-3.01-1.97-6.27-3.54-9.13-5.78-1.8-1.42-2.89-.93-3.29,1.26-.18,.98-.13,2.01-.16,3.02-.11,4.47,.2,8.95-.7,13.39-.42,2.07,.16,3.99,1.33,5.76,2.95,4.46,5.82,8.96,8.78,13.4,2.4,3.6,4.93,7.12,7.31,10.73,2.18,3.3,2.55,6.99,2.06,10.82-1.42,11.05-1.73,22.14-1.47,33.26,.08,3.32,.5,3.81,3.89,4.74,2.52,.69,5.02,1.39,7.27,2.75,3.1,1.87,4.34,5.53,3.33,9.51-.85,3.36-3.05,5.08-7.01,5.16-6.78,.14-13.5,1.41-20.31,.91-1.44-.11-2.91-.04-4.31-.32-2.94-.6-4.21-2.08-4.37-5.06-.13-2.45-.03-4.91-.03-7.36Zm-33.1-115.81c.1-3.5-.89-4.8-3.08-4.63-2.54,.19-5.49,2.41-6.09,4.84-.99,4.05-.15,7.75,2.7,10.85,1.77,1.93,3.95,1.5,4.54-.98,.84-3.5,1.37-7.07,1.93-10.08Z"/></svg>