<?xml version="1.0" encoding="UTF-8"?><svg id="joy_controller_icon" xmlns="http://www.w3.org/2000/svg" viewBox="0 0 200 200"><defs><style>.cls-1{fill:#d3d7d8;}.cls-2{fill:#1b2b3a;}</style></defs><path class="cls-1" d="M94.56,107.79c-6.67-.03-13.3-.31-19.82,1.96-8.86,3.08-13.57,9.04-14.25,18.31-.07,1.01-.1,2.03-.17,3.05-.71,11.11-7.67,15.62-17.31,16.65-10.4,1.11-20.19-1.42-29.39-6.31-3.03-1.61-5.38-3.96-7.26-6.76-2.03-3.01-2.65-6.31-2.02-9.96,1.81-10.64,5.16-20.86,8.13-31.19,2.25-7.82,4.41-15.66,7.39-23.25,2.97-7.55,6.91-14.39,13.3-19.58,1.15-.93,1.36-2.04,1.35-3.45-.1-10.45,1.02-11.82,10.96-14.45,5.08-1.35,10.29-1.86,15.47-2.48,5.99-.72,8.75,1.11,11.18,6.75,1.54,3.57,1.93,3.66,5.9,3.31,11.45-1.02,22.9-1.06,34.35,.04,2.89,.28,5.8,.29,8.7,.54,1.71,.14,2.82-.51,3.41-2.05,.57-1.49,1.03-3.03,1.62-4.51,1.59-3.94,3.41-5.41,7.64-5.04,7.98,.7,15.84,2.24,23.2,5.53,4.23,1.89,6.01,5.8,5.23,10.42-.58,3.43-.6,3.46,2.51,5.26,7.59,4.41,12.11,11.21,14.62,19.36,4.15,13.5,6.87,27.31,8.56,41.34,.61,5.04,1.41,10.06,2.14,15.09,.62,4.22,.57,8.4-.61,12.52-1.45,5.06-4.44,8.66-9.46,10.63-5.47,2.14-11.08,3.19-16.93,3.77-6.36,.63-12.44-.17-18.49-1.82-7-1.9-9.74-5.66-9.94-12.9-.11-3.82,.79-7.5,.99-11.27,.35-6.68-1.48-11.73-10.48-15.8-3.47-1.57-7.21-2.23-10.97-2.72-3.02-.39-6.05-.78-9.09-.92-3.48-.16-6.97-.04-10.46-.04Z"/><path class="cls-2" d="M96,98.4c-4.77,.39-9.95-.59-15.17-.79-1.71-.07-3.42-.61-5.11-1.05-7.22-1.88-10.98-6.76-11.74-14-.54-5.11,.02-10.16,1.58-15.07,2.06-6.51,6.73-9.98,13.28-11.07,2.43-.4,4.91-.68,7.37-.67,8.86,.01,17.72-.27,26.57,.51,3.07,.27,6.04,.91,8.91,1.94,6.01,2.14,9.22,6.49,9.2,12.86-.01,3.18-.36,6.4-.97,9.52-1.66,8.54-6.87,13.86-15.29,16.05-5.96,1.55-12.03,1.91-18.63,1.78Zm-1.27-5.33v-.07c4.36,0,8.72,.2,13.07-.04,10-.55,15.95-5.46,17.61-14.36,.59-3.15,.49-6.37,.29-9.56-.19-2.95-1.96-4.79-4.55-5.84-3.25-1.32-6.63-2.14-10.17-2.15-9.15-.02-18.3-.05-27.45-.06-1.02,0-2.03,.06-3.05,.15-5.44,.51-9.13,3.62-10.43,8.93-.55,2.25-.95,4.55-1.26,6.85-1.06,8,1.07,14.75,12.01,15.97,1.01,.11,2.03,.16,3.04,.17,3.63,.02,7.26,0,10.89,0Z"/><path class="cls-2" d="M44.22,63.36c1.3,.1,3.38-.16,3.82,1.45,.33,1.21-.62,2.91,.61,3.83,1.7,1.28,4.1,1.13,5.64,2.51,2.08,1.86,.35,4.34-.3,6.96-.52,2.1-4.47,2.41-6.55,2.39-1,0-1.2,.31-1.34,1.2-.2,1.3-.26,2.67-.44,3.98-.42,3.01-5.98,1.82-8.14,1.53-2.38-.32-.95-3.19-1.28-5.76-.24-1.83-2.19-1.21-3.54-1.77-3.05-1.27-3.77-2.4-3.54-5.18,.2-2.41,.11-4.45,2.71-5.48,1.37-.54,3.42,.55,4.83-.1,.97-.45,1.44-1.66,1.76-2.6,.38-1.09,.1-2.78,1.4-3.26,.87-.32,1.93,.04,2.81,.14,.52,.06,1.04,.1,1.56,.14Z"/><path class="cls-2" d="M129.26,38.81c10.21,1.59,20.74,2.87,30.83,6.29,.55,.19,1.08,.43,1.61,.66,1.6,.69,2.78,1.57,2.07,3.63-.67,1.95-2.02,2.3-3.79,1.85-2.95-.75-5.86-1.7-8.84-2.29-7.54-1.5-15.12-2.84-22.67-4.27-1.14-.21-2.26-.5-3.37-.83-1.08-.33-1.71-1.08-1.61-2.27,.1-1.29,.71-2.25,2.04-2.47,1.14-.19,2.3-.19,3.73-.3Z"/><path class="cls-2" d="M74.25,41.09c-.22,1.31-.98,2.12-2.25,2.37-.99,.2-2.01,.31-3.01,.43-10.56,1.2-20.84,3.68-30.9,7.05-1.32,.44-2.58,.76-3.33-.86-.78-1.69-.58-3.22,1.22-4.03,1.84-.83,3.76-1.55,5.72-2.07,8.13-2.18,16.28-4.27,24.61-5.55,1.88-.29,3.76-.47,5.62-.05,1.41,.32,2.32,1.15,2.32,2.7Z"/><path class="cls-2" d="M160.69,87.3c0,2.56-2.06,4.81-4.49,4.91-2.91,.11-5.57-2.52-5.5-5.45,.07-2.76,2.26-4.94,4.97-4.92,2.67,.01,5.02,2.57,5.02,5.46Z"/><path class="cls-2" d="M151.53,75.89c.11,2.99-2.08,5.26-5.12,5.3-2.89,.04-4.93-2-4.93-4.92,0-2.91,2.04-5.07,4.81-5.12,2.85-.05,5.13,2.01,5.23,4.73Z"/><path class="cls-2" d="M165.25,72.79c2.78-.08,4.97,2.11,4.93,4.93-.03,2.59-2.17,4.8-4.66,4.81-2.69,.01-4.99-2.32-4.96-5.02,.03-2.66,2-4.64,4.69-4.72Z"/><path class="cls-2" d="M162.01,68.43c-.17,2.69-2.3,4.65-4.85,4.46-2.59-.19-4.57-2.38-4.45-4.93,.11-2.53,2.32-4.51,4.93-4.42,2.61,.09,4.54,2.25,4.37,4.89Z"/></svg>