<?xml version="1.0" encoding="UTF-8"?><svg id="jump_rope_icon" xmlns="http://www.w3.org/2000/svg" viewBox="0 0 200 200"><defs><style>.cls-1{fill:#d3d7d8;}.cls-2{fill:#1b2b3a;}</style></defs><path class="cls-1" d="M121.21,19.97c.65,3.29,1.45,6.15,1.73,9.06,.85,8.81-.66,16.94-7.61,23.22-.83,.75-1.74,1.48-2.73,1.99-9.14,4.71-22.54,4.96-31.73-3.49-5.69-5.23-6.88-14.92-2.34-22.3,4.91-7.96,12.18-12.81,21.27-14.97,.82-.2,1.66-.33,2.48-.52,.12-.03,.22-.17,.37-.3,.14-1.43-1.13-1.4-1.95-1.68-5.59-1.96-11.27-2.29-17.12-1.16-7.57,1.47-14.8,3.69-21.21,8.15-9.61,6.69-15.08,16.08-16.96,27.38-3.09,18.49,1.89,34.64,15.04,48.21,5.75,5.93,12.1,11.06,19,15.54,3.85,2.5,6.96,5.78,9.91,9.21,2.95,3.43,4.57,7.43,4.29,12.09-.17,2.84-.08,5.56,1.92,8.01,1.53,1.87,1.39,4.25,.46,6.47-2.78,6.65-5.48,13.33-8.42,19.91-1.73,3.87-3.87,7.55-5.77,11.34-1.03,2.05-2.33,3.87-4.05,5.39-2.97,2.63-5.91,3.02-9.37,1.24-3.81-1.95-5.07-4.63-3.85-8.73,2.06-6.93,4.95-13.55,8.06-20.05,1.77-3.7,3.54-7.39,5.21-11.13,.8-1.8,1.79-3.53,2.83-5.21,1.21-1.97,2.7-3.65,5.25-3.87,1.94-.17,2.52-1.45,2.65-3.21,.27-3.56-.57-6.79-2.98-9.44-2.66-2.92-5.4-5.81-8.82-7.9-5.57-3.4-10.57-7.57-15.62-11.67-4.43-3.6-7.92-8.07-10.91-12.91-5.45-8.84-10.01-18.02-11.38-28.54-.56-4.3-.23-8.46,.54-12.64,1.91-10.31,5.09-20.02,13.12-27.43,10.4-9.6,22.69-14.65,36.8-15.26,5.52-.24,11.02-.13,16.33,1.83,2.68,.99,5.3,2.07,7.48,3.89,2.24,1.87,4.8,2.88,7.57,3.62,4.94,1.32,9.59,3.29,13.94,6.07,7.27,4.66,11.86,11.27,14.13,19.45,2.96,10.67,2.13,21.18-1.37,31.7-3.4,10.22-9.67,18.83-14.76,28.11-2.24,4.09-4.42,8.21-6.17,12.55-2.49,6.17-2.31,12.75-3.12,19.17-.21,1.68-.12,3.41-.44,5.06-.59,3.08-.41,5.8,1.95,8.25,1.5,1.57,1.87,3.81,1.84,5.96-.18,11.3,.85,22.63-.81,33.89-.14,.98-.24,1.97-.44,2.93-1.41,6.72-8.87,9.86-14.73,6.18-2.51-1.58-3.39-3.98-3.51-6.85-.23-5.25,.35-10.45,.91-15.65,.79-7.3,1.68-14.59,2.38-21.9,.29-3,1.58-5.22,4.36-6.18,2.84-.98,3.51-2.92,3.4-5.58-.27-6.1,.61-12.14,1.25-18.17,.93-8.81,5.71-16.17,9.72-23.8,3.61-6.88,8.45-13.07,11.28-20.39,3.08-7.96,5.4-16.01,4.98-24.74-.68-14.15-8.96-25.56-22.32-30.02-.38-.13-.82-.08-1.94-.18Zm-13.52-2.48c-4.04-.44-7.85,1.2-11.74,2.47-6.92,2.26-11.51,6.9-14.17,13.6-2.61,6.57-.22,13.39,6.01,16.67,7.32,3.85,14.67,3.48,21.98-.06,1.95-.94,3.57-2.36,4.69-4.19,5.2-8.45,4.91-17.12,.83-25.88-.79-1.69-2.13-2.59-4.02-2.61-1.13,0-2.26,0-3.59,0Z"/><path class="cls-2" d="M91.69,152.32c-5.14-.86-10.27-2.94-14.6-6.77-.89-.79-1.45-1.86-.66-2.98,.77-1.09,1.96-1.06,3.03-.51,4.52,2.29,9.2,4.1,14.2,5.08,1.44,.29,2.63,1.29,2.2,3.03-.46,1.84-2.01,2.14-4.17,2.15Z"/><path class="cls-2" d="M115.29,152.82c2.51,.45,5.17,.17,7.82-.15,.83-.1,1.66-.3,2.5-.34,1.36-.07,2.61,.32,2.99,1.77,.38,1.47-.62,2.36-1.75,3.03-.6,.35-1.26,.64-1.93,.81-4.93,1.22-9.75,.8-14.45-1.07-.63-.25-1.26-.66-1.74-1.14-1.19-1.22-.72-2.8,.97-3.17,1.82-.4,3.63,.16,5.59,.27Z"/></svg>