<?xml version="1.0" encoding="UTF-8"?><svg id="laptop_icon" xmlns="http://www.w3.org/2000/svg" viewBox="0 0 200 200"><defs><style>.cls-1{fill:#d3d7d8;}.cls-2{fill:#1b2b3a;}</style></defs><path class="cls-1" d="M179.57,64.23c0,5.11-.11,10.23,.02,15.34,.26,9.65-.77,19.24-1.33,28.85-.1,1.69,.4,3.13,.86,4.67,3.26,10.91,7.3,21.6,9.79,32.74,1.49,6.7,3.05,13.39,4.27,20.15,.91,5.05,.8,10.24,.18,15.29-.59,4.77-4.09,7.3-8.59,7.98-15.94,2.41-32.9,1.19-48.98,1.06-16.77-.14-33.54-.53-50.3-1.19-22.37-.87-44.92,2.43-67.31-.93-.29-.04-.58-.05-.87-.09-10.6-1.36-13.64-5.06-14.1-15.76-.44-10.23,2.77-19.6,6.01-28.98,3-8.69,5.97-17.41,9.75-25.82,.48-1.07,.92-2.18,.75-3.38-1.22-8.59-.41-17.21-.57-25.82-.22-11.98,.49-23.91,1.5-35.85,.7-8.28,1.27-16.58,1.98-24.86,.31-3.66,1.15-7.21,2.04-10.75,.93-3.71,3.36-5.95,6.81-7.44,5.12-2.21,10.67-2.51,16.16-3.06,6.1-.61,12.21-1.08,18.33-1.42,20.89-1.16,42.03-.85,62.91,.46,10.01,.48,20.18,.54,30.14,1.68,6.78,.77,15.1,2.78,17.5,10.1,1.14,3.48,1.82,7.05,2.2,10.7,1.25,12.09,.78,24.22,.87,36.33Z"/><path class="cls-2" d="M115.91,179.8c-12.46-1.13-25.31-.86-38.12-2.12-8.99-.89-18.03-1.43-27.05-2.13-7.56-.59-15.13-1.24-22.67-2.06-4.78-.52-6.98-3.53-5.81-8.32,1.37-5.67,3.24-11.22,4.95-16.8,.86-2.79,1.86-5.54,2.79-8.31,1.39-4.19,4.24-6.43,8.68-6.83,5.52-.49,11.02-1.33,16.55-1.69,7.13-.47,14.29-.89,21.43-.86,19.87,.09,39.72-.5,59.56-1.38,7.48-.33,14.87,.45,22.3,.35,5.53-.08,9.27,2.42,11.45,7.73,3.32,8.07,4.6,16.58,6.03,25.06,.49,2.93-.52,5.82-1.42,8.57-.9,2.78-3.45,3.83-6.04,4.56-4.65,1.33-9.45,2.02-14.25,2.31-12.67,.76-25.36,1.28-38.38,1.91Zm-44.49-8.27v.14c1.75,0,3.49,.02,5.24,0,.88-.01,1.72-.18,2.34-.93,1.05-1.29,1.77-7.51,.9-8.91-1.25-2.02-3.36-1.22-5.16-1.39-.58-.06-1.16,0-1.75,0-7.46,.02-8.08,.56-9.08,7.84-.34,2.51,.04,3.04,2.71,3.25,1.59,.12,3.2,.02,4.8,.02Zm21.64,1.15c.44,0,.87,0,1.31,0,5.56,.12,5.51,.12,5.32-5.29-.25-7.18,.32-6.81-7.57-6.92-4.64-.06-4.9,.25-5.49,4.71-.91,6.91-2.49,7.43,6.42,7.5Zm35.69-12.05h0c-.87,.01-1.75-.04-2.62,.02-2.83,.18-2.96,.31-2.81,3.1,.11,1.89,.21,3.79,.48,5.66,.51,3.45,1.1,3.98,4.5,3.88,2.33-.07,4.65-.4,6.97-.54,1.88-.12,2.66-.92,2.07-2.83-.69-2.23-1.35-4.47-1.99-6.71-.51-1.81-1.7-2.62-3.55-2.58-1.02,.02-2.04,0-3.06,0Zm18.77,0c-1.16,0-2.33,.02-3.49,0-2.07-.04-2.5,1.07-2.01,2.82,.58,2.1,1.23,4.19,1.74,6.31,.51,2.12,1.81,2.84,3.86,2.53,.72-.11,1.44-.23,2.16-.3,8.1-.8,8.02-.76,4.94-8.28-.91-2.23-2.19-3.3-4.57-3.09-.87,.08-1.74,.01-2.62,.01Zm-35.66,12.72c1.3,0,2.61,.05,3.91-.01,1.41-.08,2.14-.91,1.93-2.31-.41-2.72-.9-5.43-1.38-8.13-.23-1.28-1-1.93-2.32-2.19-6.5-1.28-8.08-.01-7.98,6.51,0,.14,0,.29,0,.43q.1,5.71,5.85,5.7Zm-61.5-3.4c7.32,.28,7.41,.21,8.36-6.34,.02-.14,.07-.28,.1-.42,.32-1.64-.4-2.57-2.03-2.61-2.9-.06-5.81-.09-8.7,.06-2.88,.15-4.92,3.14-4.99,6.98-.03,1.95,.49,2.22,4.65,2.33,.87,.02,1.74,0,2.61,0Zm3.37-15.73v-.08c1.31,0,2.62-.04,3.92,0,3.82,.14,4.01-2.02,4.5-4.63,.24-1.29-.47-1.97-1.68-1.98-3.05-.04-6.11-.11-9.15,.07-1.92,.11-3.94,3.26-3.43,5.27,.52,2.04,2.34,1.18,3.66,1.34,.72,.09,1.45,.02,2.18,.02Zm20.21-.13v-.13c1.73,0,3.49,.15,5.2-.04,1.71-.2,2.78-2.21,2.64-4.35-.12-1.78-1.34-2.04-2.73-2.05-2.6-.02-5.22-.15-7.8,.04-2.07,.15-3.47,2.39-3.25,4.85,.2,2.29,2.05,1.52,3.34,1.67,.86,.1,1.73,.02,2.6,.02Zm82.9-18.98v.22c-1.32,0-2.63-.02-3.94,.01-.62,.02-1.12,.32-1.27,.97-.46,1.97,2.31,6.07,4.34,6.26,2.33,.21,4.66,.03,6.95-.45,.91-.19,1.61-.53,1.69-1.65,.16-2.17-1.3-4.48-3.45-4.96-1.4-.31-2.89-.28-4.33-.4Zm-79.19,1.04v.02c-.88,0-1.75,.03-2.63,0-3.56-.15-3.96,1.06-4.44,4.54-.14,1.01,.3,1.82,1.34,1.85,3.06,.09,6.13,.19,9.18-.01,1.68-.11,2.82-2.49,2.54-4.48-.25-1.78-1.57-1.88-2.93-1.91-1.02-.02-2.04,0-3.06,0Zm63.93,6.58c1.18-.45,3.39,.87,4.47-.83,1-1.59-.41-3.32-1.03-4.91-.41-1.06-1.33-1.54-2.43-1.57-2.04-.04-4.09-.08-6.14-.02-1.96,.05-2.43,1.17-2.04,2.97,.81,3.74,1.69,4.34,7.17,4.37Zm-108.45,26.27c1.54,.24,2.94-.26,3.79-2.25,2.1-4.91,1.36-6.13-4.05-6.18-.14,0-.29,0-.43-.02-3.81-.47-4.43,1.9-5.02,5.6-.3,1.87,1.13,2.67,4.46,2.85,.29,.02,.58,0,1.25,0Zm112.31-14.02v.03c.44,0,.88,.04,1.31,0,1.26-.15,2.93,.52,3.65-.78,.87-1.57-.34-3.07-1.07-4.46-.52-1-1.53-1.31-2.6-1.32-1.61-.03-3.21-.05-4.82-.02-3.76,.07-4.37,1.06-2.95,4.44,.58,1.38,1.47,2.13,2.97,2.13,1.17,0,2.34,0,3.51,0Zm-88.61-12.1c2.18-.1,3.95-.06,5.67-.29,2.06-.28,2.17-2.11,2.47-3.66,.19-.98-.35-1.79-1.35-1.89-3.19-.31-6.42-.39-9.57,.16-2.1,.37-2.43,2.45-2.41,4.17,.03,1.96,1.81,1.4,3.01,1.49,.87,.07,1.75,.01,2.18,.01Zm113.21,22.11c.01-3.42-.71-4.14-4.34-4.21-.72-.02-1.45-.04-2.17,0-2.8,.16-3.11,.56-2.31,3.09,.44,1.38,.94,2.74,1.5,4.08,1.12,2.69,2.68,3.19,4.99,1.5,1.45-1.05,2.49-2.43,2.34-4.47Zm-134.43-9.94c4.68-.03,5.65-.86,6.49-4.72,.42-1.95-.33-2.74-2.17-2.81-.87-.03-1.75-.07-2.62-.06-3.76,.02-5.32,1.45-5.62,5.06-.12,1.4,.38,2.27,1.82,2.42,.87,.09,1.74,.09,2.1,.11Zm127.08-.07c.58,0,1.16,.02,1.74,0,1.61-.06,3.31,.04,3.37-2.32,.06-2.44-1.06-4.09-3.26-4.26-2.01-.15-4.05-.05-6.07,0-1.74,.04-2.18,.96-1.79,2.61,.79,3.35,1.58,3.93,6.01,3.98Zm-69.19-.85v.03c1.02,0,2.05,0,3.07,0,1.69,0,2.79-.64,2.86-2.53,.06-1.83-.38-3.18-2.5-3.37-1.75-.15-3.48-.46-5.23-.54-2.68-.13-3.45,.69-3.69,3.66-.18,2.24,.21,2.57,3.3,2.75,.73,.04,1.46,0,2.19,0Zm.83-11.43v-.03c1.01,0,2.02,.03,3.02-.01,.76-.03,1.37-.39,1.67-1.14,.9-2.21-.82-5.22-3.17-5.43-1.29-.11-2.59-.03-3.89,0-2.44,.07-2.59,1.81-2.63,3.64-.05,1.97,.86,2.96,2.84,2.96,.72,0,1.44,0,2.16,0Zm15.23,.11c3.24,0,3.87-.16,4.33-1.14,.63-1.32-.42-4.82-1.63-5.41-1.86-.91-7.08-.23-7.68,1.03-.18,.37-.23,.83-.27,1.25-.3,3.3,.9,4.26,5.25,4.26Zm17.54,12.2h0c.58,.01,1.17,.03,1.75,0,3.77-.12,4.64-1.6,2.93-4.89-.54-1.04-1.32-1.52-2.44-1.46-1.45,.08-2.91,.18-4.35,.35-2.6,.31-3.23,1.01-3.16,3.17,.07,2.38,1.56,2.87,3.53,2.82,.58-.01,1.17,0,1.75,0Zm-1.05-12.23c.26-.01,1.14,0,2.01-.1,.79-.09,1.42-.51,1.36-1.39-.13-1.89-.12-4.11-2.1-4.94-2.14-.89-4.55-.76-6.82-.01-.22,.07-.39,.42-.49,.68-1.15,2.67,.73,5.6,3.69,5.76,.58,.03,1.16,0,2.35,0Zm-13.85,11.89c1.16,.11,2.39,.27,2.88-1.19,.77-2.25-.83-4.74-3.27-4.98-1.29-.13-2.6-.06-3.9-.06-1.75,0-2.67,.79-2.68,2.63,0,1.84,.59,3.09,2.64,3.23,1.44,.1,2.88,.25,4.32,.38Zm-71.91-11.14c.47-.04,1.83,.06,3.06-.28,1.82-.49,2.35-2.16,2.33-3.78-.02-1.89-1.67-1.7-2.94-1.68-1.74,.03-3.52-.02-5.19,.39-1.96,.48-2.73,2.29-2.57,4.08,.17,1.93,2.01,1.04,3.16,1.26,.42,.08,.87,.01,2.13,.01Z"/><path class="cls-2" d="M73.39,114.03c-9.2,.09-18.39-.03-27.57-.87-8.18-.75-13.57-5.3-14.87-13.51-.69-4.31-1.03-8.71-1.16-13.07-.51-17.55,.14-35.04,3.17-52.37,.84-4.77,2.07-9.4,4.81-13.52,1.28-1.92,2.86-3.22,5.04-3.96,4.04-1.37,8.18-2.01,12.41-2.49,7.7-.87,15.4-1.31,23.13-1.64,15.03-.63,30.07-1.06,45.1-.63,11.66,.33,23.32,1.02,34.97,1.81,8.77,.6,12.8,4.42,13.53,13.07,1.19,14.11,1.98,28.23,1.1,42.41-.39,6.41-.37,12.85-.23,19.27,.12,5.69-1.92,10.59-4.93,15.15-2,3.02-5.02,4.86-8.46,5.91-3.37,1.02-6.85,1.43-10.35,1.71-6.84,.55-13.69,.78-20.54,1.1-18.38,.85-36.77,1.05-55.15,1.61ZM105.14,19.35c-17.24-.22-34.49-.22-51.72,.77-10.9,.63-12.12,1.37-13.69,12.42-3.06,21.46-3.37,43.09-1.97,64.73,.07,1.01,.24,2.04,.53,3.01,1.53,5.05,3.61,6.58,8.87,6.56,6.29-.02,12.57,.02,18.85-.1,14.76-.28,29.51-.8,44.27-.93,10.96-.09,21.92-.27,32.85-1.02,5.09-.35,10.2-.74,15.15-2.19,3.52-1.03,5.87-2.99,6.54-6.82,.43-2.47,.6-4.92,.61-7.41,.05-13.01-.07-26.03,.26-39.03,.17-7.01,.8-14,.69-21.02-.09-5.5-1.04-6.46-6.53-7.32-6.8-1.07-13.68-1.38-20.53-1.56-11.39-.29-22.8-.08-34.2-.08Z"/><path class="cls-2" d="M89.62,116.38c21.91,.37,42.07,.16,62.23-.04,8.47-.08,16.93-.51,25.39-.76,1.17-.04,2.34-.06,3.5,.05,1.59,.15,2.86,.89,3.02,2.62,.16,1.69-.89,2.78-2.38,3.27-1.09,.36-2.28,.5-3.43,.55-10.94,.43-21.89,.71-32.84,.99-15.48,.39-30.95,.92-46.43,.55-20.73-.5-41.46-1.09-62.19-1.73-3.93-.12-7.86-.63-11.77-1.05-1.15-.12-2.29-.48-3.38-.89-1.1-.41-2.29-1.02-2-2.48,.3-1.48,1.58-1.46,2.8-1.41,15.33,.71,30.67,.09,46.01,.31,7.74,.11,15.49,.02,21.48,.02Z"/><path class="cls-2" d="M82.62,99.72c-1.94,.04-4.33-.36-5.98-1.31-.85-.49-1.17-1.6-2.06-1.84-1.33-.35-3.02-.31-4.45-.29-3.94,.07-7.48-.12-11.42-.14-1.6,0-3.95-.41-5.5-.75-2.87-.64-3.76-1.1-3.91-3.46-.15-2.49-.02-4.06,2.38-5.12,1.63-.72,4.18-.53,5.94-.54,2.92-.02,6.74,.16,9.65,.02,2.33-.11,5.42,.73,7.53-.19,1.57-.68,1.45-2.64,2.96-3.82,2.46-1.92,6.35-1.95,8.99-.18,.67,.45,1.12,1.59,1.81,1.83,1.47,.52,3.23-.17,4.85-.26,5.83-.31,11.68-.43,17.49-.98,9.63-.92,19.26-.44,28.89-.2,1.89,.05,3.79,.35,5.64,.74,2.82,.6,4.51,2.3,4.77,4.48,.28,2.38-1.16,4.55-4.03,5.55-4.16,1.45-8.52,2.04-12.87,2.47-12.5,1.24-24.74,1.01-37.29,.93-2.39-.01-5-.41-7.23,.35-.77,.26-1.6,1.43-2.34,1.94-1.08,.75-2.49,.79-3.82,.74Zm56.68-11.62c1.03-2.08-30.19,.66-45.28,1.26-.29,.01-.62,0-.86,.13-.36,.19-.86,.45-.93,.77-.15,.67,.36,1.05,1,1.09,.87,.05,1.76,.1,2.61,0,7.66-1.01,15.4-.47,23.1-1.25,6.78-.69,21.46,.04,20.36-1.98Z"/><path class="cls-2" d="M87.16,56.27c-.15-3.97,.29-7.45,1.36-10.8,1.42-4.42,3.74-5.5,8-3.66,4.01,1.73,8.05,3.48,11.88,5.57,6.39,3.5,6.58,9.92,.37,13.75-3.33,2.06-6.95,3.73-10.58,5.22-6.47,2.66-10.56-.04-11.02-7.03-.08-1.16-.01-2.33-.01-3.06Z"/></svg>