<?xml version="1.0" encoding="UTF-8"?><svg id="lotus_icon" xmlns="http://www.w3.org/2000/svg" viewBox="0 0 200 200"><defs><style>.cls-1{fill:#1b2b3a;}</style></defs><path class="cls-1" d="M109.19,161.31c-16.43-.12-31.9-.15-46.85-6.03-25.76-10.14-44.76-27.12-55.77-52.71-1.73-4.03-2.75-8.28-3.65-12.54-.94-4.46,.19-5.81,4.65-6.24,5.62-.54,11.01,.66,16.36,2.14,.81,.22,1.57,.6,2.39,.79,2.55,.61,3.17,.12,2.82-2.33-.51-3.48-1.15-6.94-1.66-10.41-.61-4.16-1-8.35-.39-12.52,.67-4.6,2.21-5.58,6.78-5.11,10.52,1.08,18.8,6.68,26.67,13.1,1.69,1.38,3.23,2.92,4.83,4.41q4.68,4.34,7.27-1.22c.71-1.52,1.49-3,2.21-4.52,4.74-9.95,12.05-18.09,18.7-26.7,.61-.79,1.35-1.5,2.1-2.16,1.81-1.58,3.69-1.62,5.3,.22,1.76,2.02,3.53,4.07,4.99,6.31,3.57,5.47,7.05,11.01,10.41,16.62,3.1,5.17,3.11,5.21,7.7,1.64,6.22-4.84,12.58-9.51,19.35-13.55,7.3-4.36,9.49-3.42,11.48,4.81,1.66,6.85,2.29,13.87,3.27,20.83,.16,1.16,.14,2.35,.35,3.5,.35,1.94,1.53,2.48,3.3,1.66,.91-.42,1.78-.93,2.69-1.37,5.6-2.7,11.4-4.9,17.38-6.58,4.87-1.37,6.49-.08,6.56,5.04,.06,4.58-1.27,8.95-2.37,13.33-3.93,15.79-11.75,29.29-22.88,41.27-10.17,10.95-21.91,19.13-35.7,24.52-6.12,2.4-12.57,3.52-18.3,3.81Zm-16.84-43.69c1.19-1.08,1.22-2.32,1.45-3.43,2.88-13.8,7.95-26.59,17.26-37.42,1.63-1.9,1.77-3.89,.77-6.05-3.17-6.84-6.57-13.57-10.99-19.7-2.55-3.54-3.66-3.41-6.31,.25-7.02,9.68-12.35,20.27-16.97,31.26-1.26,3-1.17,5.67,.57,8.56,4.49,7.46,8.56,15.15,11.77,23.28,.47,1.2,.73,2.62,2.46,3.27Zm-20.28,32.53c-.05-1.44-1-1.65-1.65-2.06-6.28-4-11.51-9.15-16.36-14.74-8.64-9.94-15.83-20.79-20.42-33.2-.83-2.23-2.19-3.61-4.31-4.56-4.3-1.91-8.66-3.62-13.28-4.54-1.86-.37-4.05-2.11-5.59-.16-1.41,1.78,.13,3.89,.92,5.65,4.91,10.89,10.97,20.91,19.19,29.83,9.25,10.04,20.11,17.01,32.91,21.3,2.81,.94,5.56,2.06,8.61,2.48ZM33.96,68.2c.7,6.99,1.72,13.93,3.62,20.72,.76,2.72,2.13,4.76,4.51,6.35,6.11,4.11,12.02,8.51,17.31,13.67,.71,.69,1.55,1.29,2.4,1.81,2.21,1.34,2.82,1.01,3.03-1.66,.51-6.5,.57-13.04,1.91-19.45,.61-2.91-.34-5.22-2.52-7.18-3.98-3.58-7.73-7.45-11.9-10.79-4.56-3.65-9.39-7.02-14.68-9.6-2.83-1.37-3.68-.88-3.82,2.11-.06,1.33,.09,2.68,.14,4.01Zm92.66,36.52c1.85,.12,2.67-1.11,3.64-1.92,5.66-4.7,11.28-9.48,17.56-13.32,3.85-2.35,5.13-5.53,4.35-9.73-.92-4.94-1.29-9.93-1.74-14.93-.18-1.99-.64-3.96-1.11-5.91-.62-2.57-1.68-3.18-3.93-1.76-7.35,4.63-14.71,9.28-20.42,16.04-1.54,1.83-2.12,3.64-1.47,5.98,1.89,6.82,2.21,13.84,2.41,20.87,.04,1.48-.17,3.02,.72,4.67Zm-8.15,48.12c8.99-1.52,16.88-5.35,24.14-10.5,6.61-4.69,11.93-10.73,17.41-16.62,10.92-11.76,16.75-26.09,21.19-41.15,.32-1.09,.94-2.43-.28-3.23-1.09-.71-2.26,.09-3.31,.58-4.09,1.93-8.09,4.09-12.28,5.76-4.53,1.8-6.1,4.97-6.4,9.67-1.34,20.91-11.82,36.53-28.74,48.19-3.79,2.61-7.81,4.87-11.73,7.3Zm-19.57-6.55c.36-.36,.85-.63,1.02-1.04,4.25-10.46,9.4-20.37,17.1-28.78,1.67-1.82,2.2-4.06,2.22-6.5,.07-7.57-.83-15.05-2.27-22.46-.21-1.06-.3-2.4-1.76-2.75-14.03,12.81-22.03,52.13-16.32,61.53Zm16.69-.35c1.75,.68,2.79-.69,3.9-1.53,3.19-2.43,6.27-5,9.42-7.48,11.33-8.95,18.42-20.54,21.61-34.57,.32-1.41,1.11-3.16-.5-4.11-1.35-.8-2.48,.62-3.54,1.32-6.9,4.47-13.04,9.85-18.86,15.65-1.74,1.74-2.93,3.49-3.4,5.91-1.47,7.6-4.12,14.79-7.91,21.56-.54,.97-1.43,1.92-.72,3.25Zm-24.39-4.8c-2.02-16.26-7.51-31.17-16.56-44.89-1.46,.79-1.61,1.63-1.79,2.43-1.46,6.44-1.17,12.94-.54,19.44,.2,2.09,1.32,3.71,2.67,5.26,4.9,5.68,10.27,10.98,14.31,17.37,.27,.42,.68,.72,1.92,.38Zm-21.89-4.82c-.6-2.72-1.29-5.43-1.76-8.17-.57-3.26-2.08-5.83-4.5-8.14-5.09-4.85-10.68-9.08-16.08-13.55-.7-.58-1.48-1.49-3.02-.31,5.86,11.95,14.19,21.91,25.36,30.17Zm7.84,.51c.82,5.49,2.91,8.73,7.88,11.04-1.47-4.84-4.14-7.66-7.88-11.04Z"/></svg>