<?xml version="1.0" encoding="UTF-8"?><svg id="mail_notification_icon" xmlns="http://www.w3.org/2000/svg" viewBox="0 0 200 200"><defs><style>.cls-1{fill:#d3d7d8;}.cls-2{fill:#1b2b3a;}</style></defs><path class="cls-1" d="M102.05,169.81c-12.88,0-21.71-.02-30.53,0-12.47,.04-24.89-.82-37.32-1.67-2.12-.15-4.27-.25-6.38-.11-4.28,.29-8.05-1.28-11.82-2.94-3.11-1.38-4.41-4.08-5.13-7.13-1.37-5.78-1.92-11.69-2.79-17.55-1.33-9.06-1.32-18.23-1.44-27.29-.17-12.71,.02-25.52,2.39-38.15,.93-4.96,3.52-7.57,8.59-8.59,12.25-2.47,24.58-3.74,37.05-4.56,11.26-.74,22.49-.75,33.73-.57,15.49,.26,30.97-.49,46.46-.08,6.07,.16,12.15,.57,18.13,1.65,11.1,2.01,13.09,4.19,14.9,15.16,.69,4.22,1.01,8.44,.99,12.71-.06,11.1,.45,22.24-.17,33.31-.58,10.46-.1,20.98-1.73,31.37-.28,1.8-.63,3.61-1.2,5.33-1.79,5.46-5.1,7.79-10.8,8.15-18.98,1.22-37.99,.99-52.93,.93Z"/><path class="cls-2" d="M193.4,57.74c-.03,17.01-13.7,33.81-31.16,34.68-2.92,.15-5.79-.41-8.57-1.16-2.92-.78-5.2-.2-7.58,1.7-12.31,9.83-25.97,17.45-39.97,24.6-13.56,6.93-26.53,4.77-39.42-1.45-13.28-6.4-24.7-15.54-35.87-24.98-5.69-4.8-11.77-9.19-16.4-15.15-.28-.36-.61-.68-.89-1.04-.81-1.06-2.11-2.21-.86-3.54,1.05-1.12,2.29-.08,3.27,.56,6.74,4.42,13.6,8.7,20.16,13.38,11.77,8.41,23.5,16.84,36.39,23.52,4.63,2.4,9.5,4.07,14.35,5.86,2.76,1.02,5.39,.28,7.94-.92,11.86-5.58,23.31-11.9,34.25-19.13,3.43-2.27,6.87-4.51,10.25-6.84,2.79-1.92,2.92-2.33,.67-4.96-3.95-4.61-6.66-9.81-7.98-15.71-2.35-10.52,1.45-18.94,9.48-25.47,11.97-9.74,29.14-12.58,42.24-3.08,4.94,3.58,8.66,9.05,9.43,15.11,.17,1.33,.25,2.67,.25,4.01Z"/><g id="mPKYvg.tif"><path class="cls-1" d="M161.52,77.54c-3.8,0-7.18-2.44-7.49-5.48-.13-1.28-.2-2.67,1.22-3.32,1.39-.64,2.43,.14,3.26,1.21,1.07,1.38,2.15,2.66,4.17,2.19,2.23-.52,3.75-1.81,4.44-4.05,.82-2.65-.21-4.49-2.93-5.14-.49-.12-1-.14-1.49-.23-1.27-.22-2.18-.91-2.5-2.2-.31-1.23,.3-2.15,1.22-2.85,1.28-.97,2.61-1.9,3.4-3.34,.45-.82,.86-1.72,.34-2.66-.57-1.04-1.6-1.11-2.64-1.11-1.25,0-2.23,.65-3.23,1.29-.97,.62-2.03,.99-3.01,.07-1.02-.96-.84-2.14-.3-3.29,1.64-3.47,7-5.09,10.79-3.28,3.87,1.85,5.67,6.68,3.46,10.32-1.32,2.18-1.03,3.37,.62,5.17,3.37,3.67,1.92,11.45-2.5,14.44-2.04,1.38-4.29,2.35-6.84,2.27Z"/></g></svg>