<?xml version="1.0" encoding="UTF-8"?><svg id="melody_icon" xmlns="http://www.w3.org/2000/svg" viewBox="0 0 200 200"><defs><style>.cls-1{fill:#1b2b3a;}</style></defs><path class="cls-1" d="M113.22,65.95c0,7.24,.34,14.5-.09,21.71-.5,8.34-.68,16.67-.68,25.02,0,2.23,.1,4.43,.49,6.65,.91,5.23,.24,10.3-2.22,15.02-2.25,4.32-5.52,7.53-10.21,9.38-4.33,1.71-8.8,2.58-13.35,3.2-2.54,.35-5.03-.08-7.32-1.21-3.81-1.87-6.14-4.81-5.84-9.26,.53-7.87,4.9-13.1,11.75-16.44,4.17-2.03,8.83-2.48,13.28-3.57,4.16-1.02,4.1-.97,4.29-5.18,.49-11.11,1.09-22.21,1.6-33.32,.2-4.3-.03-8.61,.65-12.91,.55-3.45-.45-4.03-3.69-2.5-11.08,5.22-22.05,10.67-33.62,14.77-2.17,.77-3.24,2.13-3.68,4.51-1.42,7.61-1.43,15.64-2,23.35-1.02,13.83-2.66,27.62-3.38,41.45-.45,8.56-9.27,15.95-16.93,17.09-5.63,.83-11.07,.25-16.47-1.38-5.86-1.76-8.51-6.24-9.19-11.77-.63-5.2,2.15-9.39,6.53-11.73,7.81-4.18,16.14-6.84,25.24-5.65,3.22,.42,3.85,.06,3.8-3.12-.13-9.48,1.04-18.87,1.83-28.29,.64-7.62,1.57-15.21,2.21-22.82,.48-5.68,.73-11.37,1.06-17.06,.11-1.94,0-3.89,.46-5.81,.49-2.01,1.51-3.44,3.49-4.35,14.57-6.68,29.39-12.65,44.99-16.54,5.36-1.34,6.82-.35,6.92,5.31,.16,8.49,.04,16.98,.04,25.48h.04Z"/><path class="cls-1" d="M173.46,42.18c0,7.79-.18,15.58,.07,23.37,.14,4.29,.76,8.53-.04,12.85-.77,4.18-2.14,8-4.55,11.52-5.14,7.52-16.57,10.21-24.7,7.13-5.26-2-7.85-9.16-4.8-14.43,4.06-7.01,9.77-12.08,18.2-13.26,1.65-.23,3.29-.56,4.94-.77,3.92-.49,4.14-.67,4.22-4.62,.32-14.73,1.13-29.44,.85-44.18-.03-1.52,.02-3.07,.26-4.57,.24-1.51,1.16-2.55,2.84-2.48,1.7,.08,2.42,1.22,2.57,2.75,.12,1.24,.13,2.5,.13,3.75,.01,7.65,0,15.3,0,22.95h0Z"/></svg>