<?xml version="1.0" encoding="UTF-8"?><svg id="moon_icon" xmlns="http://www.w3.org/2000/svg" viewBox="0 0 200 200"><defs><style>.cls-1{fill:#d3d7d8;}</style></defs><path class="cls-1" d="M27.59,14.11c1.76-2.13,3.9-2.83,5.99-3.51,8.24-2.67,16.71-4.25,25.34-5.26,5.66-.66,11.3-.8,16.98-.79,14.75,0,28.59,3.62,42.01,9.32,13.82,5.87,25.48,14.49,35.04,25.55,10.35,11.98,17.69,25.58,20.59,41.1,1.6,8.57,.59,17.14-.1,25.73-.94,11.68-5.47,22.31-9.75,33.03-2.32,5.81-6.07,10.86-10.09,15.71-5.13,6.18-10.47,12.15-16.87,17.19-8.67,6.83-18.61,11.38-28.94,15.27-10.35,3.9-21.13,6.28-32.14,7.47-7.87,.85-15.83,.54-23.73,.16-10.29-.5-20.51-1.72-30.53-4.21-1.88-.47-3.76-.94-5.35-2.1-.61-.45-1.15-.98-.91-1.79,.18-.6,.77-.89,1.36-1,1.61-.32,3.23-.59,4.84-.86,17.97-2.99,33.51-11.02,47.75-21.59,19.39-14.4,28.64-33.98,31.36-56.98,1.83-15.44-.91-30.04-7.79-43.96-2.7-5.47-6.35-10.37-10.63-14.86-14.65-15.39-32.29-26.27-52.89-32.75-.4-.13-.75-.41-1.54-.86Z"/></svg>