<?xml version="1.0" encoding="UTF-8"?><svg id="mute_icon" xmlns="http://www.w3.org/2000/svg" viewBox="0 0 200 200"><defs><style>.cls-1{fill:#d3d7d8;}.cls-2{fill:#1b2b3a;}</style></defs><path class="cls-1" d="M119.59,142.08c0,16.08,0,29.87,0,43.66,0,1.91-.05,3.81-.68,5.65-.63,1.85-1.75,2.52-3.7,2.08-1.81-.4-3.26-1.28-4.49-2.6-4.88-5.27-9.76-10.54-14.63-15.82-1.19-1.29-2.27-2.7-3.51-3.93-8.44-8.37-16.12-17.44-24.61-25.78-3.53-3.47-6.03-7.9-9.68-11.37-2.11-2.01-4.36-3.31-7.19-3.89-6.74-1.4-13.29-3.69-20.15-4.59-3.7-.49-5.78-2.26-5.94-6.27-.08-2.18-.42-4.36-.5-6.57-.43-12.04,.44-24.04,.98-36.05,.21-4.67,1.12-9.31,1.52-13.98,.24-2.8,1.67-4.28,4.31-4.73,2.46-.41,4.94-1.13,7.39-1.06,8.38,.25,16.67-1.25,25.03-1,3.01,.09,5.27-.97,7.43-3.03,8.3-7.9,15.69-16.65,23.78-24.74,6.95-6.95,13.9-13.91,20.85-20.86,.73-.73,1.44-1.46,2.21-2.15,.96-.87,1.88-2.08,3.39-1.57,1.77,.6,1.6,2.26,1.67,3.7,.41,7.5-.61,14.95-1.11,22.39-.48,7.19-.63,14.36-.62,21.53,.01,14.67-.49,29.34-1.15,43.96-.74,16.44,.04,32.86-.62,46.99Z"/><path class="cls-2" d="M174.42,118.74c-1.62,4.29-7.56,2.65-10.18,.56-2.8-2.24-5.52-4.57-8.23-6.92-1.63-1.41-2.83-1.19-4.24,.44-2.61,3.03-5.39,5.92-8.16,8.8-1.02,1.05-2.14,2.07-3.38,2.83-2.13,1.3-4.49,1.53-6.52-.09-2.23-1.78-1.66-4.17-.64-6.35,.71-1.52,1.63-2.96,2.64-4.3,1.65-2.18,3.46-4.25,5.2-6.36,4.86-5.9,4.83-5.87-.7-10.97-2.01-1.85-3.95-3.81-5.68-5.92-1.57-1.92-2.13-4.23-.36-6.37,1.9-2.3,4.33-2.36,6.86-1.1,3.24,1.61,6.05,3.85,8.59,6.4,2.1,2.12,3.91,2.12,5.79-.2,1.19-1.47,2.49-2.86,3.73-4.3,.97-1.11,1.82-2.35,2.9-3.33,2.59-2.35,5.22-2.63,7.42-.96,2.22,1.67,2.74,4.31,.96,7.35-1.8,3.09-3.99,5.95-6.02,8.9-2.64,3.84-2.67,4.31,.74,7.35,3.8,3.39,8.47,6.61,9.45,11.95,.12,.64,.18,1.31,.03,1.95-.06,.23-.12,.44-.2,.64Z"/></svg>