<?xml version="1.0" encoding="UTF-8"?><svg id="painting_palette_icon" xmlns="http://www.w3.org/2000/svg" viewBox="0 0 200 200"><defs><style>.cls-1{fill:#d3d7d8;}.cls-2{fill:#1b2b3a;}</style></defs><path class="cls-1" d="M85.48,21.21c6.42-.23,12.6,.5,18.45,3.5,5.06,2.6,8.3,6.57,10.32,11.82,4.04,10.5,4.07,21.27,2.25,32.13-.57,3.43-.78,6.84-.63,10.28,.25,5.58,2.61,10,7.4,13.1,3.42,2.21,7.13,3.61,11.12,4.18,4.23,.61,5.57-.86,5.07-4.97-.39-3.22-1.12-6.19-3.61-8.53-.67-.63-1.05-1.61-1.42-2.49-3.42-8.15,.65-21.39,8.04-26.25,2.53-1.67,3.55-1.27,3.97,1.84,.24,1.75,.93,3.12,2.14,4.33,5.65,5.67,5.8,12.77,5.17,20.06-.11,1.26-.69,2.41-1.54,3.33-1.77,1.94-1.78,4.24-1.54,6.61,.41,4.03,1.13,4.8,5.12,5.75,1.47,.35,2.93,.78,4.4,1.12,9.01,2.09,13.53,8.44,15.78,16.8,2.11,7.83,1.01,15.61-1.09,23.24-2.58,9.35-7.67,17.21-14.29,24.3-12.76,13.66-28.92,20.77-46.69,24.75-9.44,2.11-19.05,2.74-28.68,1.09-6.01-1.03-11.69-3.2-17.34-5.36-15.68-5.98-27.69-16.65-37.59-29.92-10.24-13.73-15.47-29.41-17.47-46.21-.95-7.97-.44-15.99,1.81-23.75,3.31-11.45,7.82-22.36,15.33-31.79,5.72-7.18,12.84-12.8,20.32-18.01,7.93-5.52,16.51-9.3,26.15-10.61,3.03-.41,6.05-.24,9.06-.35Zm46.01,102.95c.08,1.1,.07,2.21,.27,3.28,1.25,6.55,6.12,9.52,10.97,10.22,2.22,.32,3.25-.53,2.93-2.27-1.24-6.9-2.53-13.79-3.97-20.65-.54-2.54-2.01-3.07-4.28-1.66-4.07,2.52-6.06,6.25-5.93,11.08Zm22.39,.26c0,2.34-.05,4.68,.02,7.02,.03,1.04-.37,2.58,.95,2.87,1.55,.35,1.92-1.31,2.36-2.38,.73-1.77,1.24-3.64,1.84-5.47,1.22-3.75-.06-7.04-1.9-10.22-.48-.82-1.05-1.84-2.16-1.64-1.23,.23-1.08,1.45-1.1,2.37-.05,2.48-.02,4.96-.02,7.44Z"/><path class="cls-2" d="M30.71,82.67c-.02-7.97,5.75-14.46,12.82-14.41,7.88,.06,14.69,6.83,14.56,14.46-.13,7.35-6.81,13.91-14.2,13.94-7.47,.03-13.17-6.01-13.19-13.99Z"/><path class="cls-2" d="M155.28,129.32c0,1.1,.03,2.2,0,3.3-.13,3.89-.73,4.63-4.54,5.76-4.44,1.31-5.55,.56-6.41-4.02-2.2-11.74-4.1-23.52-5.58-35.38-.05-.41-.1-.82-.15-1.23-.62-5.14-.54-5.21,4.73-5.5,1.37-.08,2.72-.31,4.09-.46,3.85-.41,4.68,.16,5.3,3.88,.36,2.16,.7,4.34,.85,6.53,.64,9.03,1.2,18.07,1.79,27.11h-.08Z"/><path class="cls-2" d="M91.46,53.78c-.06,7.82-5.44,13.12-13.34,13.12-7.23,0-12.75-5.3-12.77-12.28-.02-6.91,7.14-13.81,14.32-13.8,6.27,.01,11.85,6.14,11.8,12.96Z"/><path class="cls-2" d="M86.36,152.83c-.1,6.61-6.65,13.34-12.86,13.21-6.85-.14-12.11-5.7-11.98-12.64,.15-7.93,5.38-13.35,12.76-13.22,6.57,.12,12.17,5.99,12.07,12.65Z"/><path class="cls-2" d="M54.24,124.45c.04,7.25-4.36,12.08-11.07,12.14-7.44,.06-13.17-5.32-13.13-12.35,.03-6.93,5.57-13.23,11.81-12.85,7.14,.43,12.43,4.76,12.39,13.06Z"/><path class="cls-2" d="M141.83,89.32c-1.67,0-3.31-.18-4.75-1.1-.86-.55-1.39-1.35-1.1-2.44,.23-.87,.85-1.41,1.71-1.59,.67-.14,1.36-.2,2.04-.19,3.16,.07,6.31,.14,9.43-.62,1.22-.3,2.65-.3,3.15,1.18,.58,1.73-.76,2.49-2.06,3.03-2.69,1.12-5.5,1.74-8.43,1.73Z"/></svg>