<?xml version="1.0" encoding="UTF-8"?><svg id="pen_icon" xmlns="http://www.w3.org/2000/svg" viewBox="0 0 200 200"><defs><style>.cls-1{fill:#d3d7d8;}.cls-2{fill:#1b2b3a;}</style></defs><path class="cls-1" d="M61.93,173.62c-.43-6.46,.49-12.71,1.49-18.95,1.92-11.88,4.61-23.59,7.64-35.25,3.82-14.7,7.23-29.5,10.58-44.32,2.03-8.97,5.06-17.63,7.63-26.43,2.27-7.79,4.45-15.62,7.9-23.02,.97-2.09,1.97-4.11,4.1-5.19,1.64-.84,2.3-2.25,2.87-3.85,.9-2.55,1.88-5.08,2.84-7.61,.55-1.44,1.43-2.65,2.6-3.63,1.93-1.62,4-1.81,6.27-.63,2.14,1.11,3.03,2.87,2.62,5.22-.54,3.11-1.11,6.22-1.79,9.3-.4,1.81-.72,3.54,.43,5.2,1.76,2.54,1.71,5.32,1.2,8.24-1.59,9.05-3.71,17.97-6.1,26.83-4.75,17.58-8.88,35.29-12.69,53.09-1.79,8.37-4.43,16.56-6.73,24.81-2.54,9.13-5.32,18.19-7.62,27.38-2,7.99-6.75,14.31-11.43,20.74-1.41,1.94-2.92,3.85-4.65,5.49-1.91,1.82-3.39,1.51-4.71-.79-1.6-2.79-2.3-5.88-2.43-9.07-.11-2.55-.02-5.11-.02-7.56Z"/><path class="cls-2" d="M127.83,32.31c-.38,4.53-1.36,9.23-2.34,13.93-2.2,10.58-4.33,21.18-6.55,31.75-.43,2.05-.99,4.09-1.75,6.04-.65,1.67-2.02,2.68-3.93,2.28-1.93-.4-2.64-1.88-2.6-3.7,.03-1.34,.26-2.68,.44-4.02,1.72-12.66,5.21-24.98,7.1-37.6,.42-2.82,.71-5.66,1.15-8.48,.37-2.31-.65-3.67-2.67-4.61-2.37-1.1-4.97-1.12-7.45-1.67-2.49-.55-5.03-.85-7.54-1.32-1.33-.25-2.65-.6-3.73-1.48-2.17-1.76-1.88-4.17,.67-5.33,1.99-.9,4.16-.89,6.21-.47,5.14,1.07,10.35,1.85,15.31,3.66,5.56,2.03,7.62,4.89,7.67,11Z"/><path class="cls-2" d="M63.05,165.68c6.72,.92,13.21,2.68,19.44,5.34,2.44,1.04,3.15,2.63,2.59,4.57-.54,1.9-2.23,3.26-4.53,2.8-6.74-1.36-13.54-2.66-19.78-5.74-1.8-.89-3.42-2.18-2.54-4.59,.82-2.25,2.77-2.48,4.82-2.39Z"/><path class="cls-2" d="M60.99,188.86c-.03-3.67,1.03-4.77,4.54-4.21,2.64,.42,5.49,.86,6.64,3.84,.49,1.26-2.59,5.8-4.48,6.91-2.13,1.25-4.46,.55-5.72-1.72-.58-1.05-.98-2.98-.99-4.82Z"/></svg>