<?xml version="1.0" encoding="UTF-8"?><svg id="phone_icon" xmlns="http://www.w3.org/2000/svg" viewBox="0 0 200 200"><defs><style>.cls-1{fill:#d3d7d8;}.cls-2{fill:#1b2b3a;}</style></defs><path class="cls-1" d="M71.68,185.41c.63-1.57-.21-2.57-.57-3.64-1.08-3.21-.76-6.13,1.83-8.46,2.28-2.05,7.1-2.14,9.98-.37,2.92,1.8,4.38,4.89,3.82,8.26-.29,1.75-.91,3.4-1.79,4.94-.89,1.55-.48,2.67,1.23,2.89,5.59,.71,11.15,.75,16.39-1.77,2.43-1.17,2.56-1.71,.82-3.91-2.66-3.35-3.66-6.96-2.17-11.09,1.24-3.44,4.64-5.85,8.07-5.74,3.53,.12,6.34,2.66,7.28,6.55,.61,2.52,.1,4.92-.58,7.36-.83,2.96-.04,3.8,3.04,3.26,10.79-1.9,19.32-7.41,25.72-16.27,.26-.36,.5-.73,.71-1.11,1.63-2.96,1.24-4-2.12-4.19-3.55-.2-6.1-1.85-8.23-4.44-2.6-3.17-2.65-6.27-.5-9.72,2.93-4.71,12.77-7.23,16.89,.51,.34,.65,.67,1.31,.95,1.98,1.78,4.35,1.72,4.26,5.55,1.87,11.81-7.36,17.06-18.94,20.49-31.69,.46-1.7,.62-3.48,1.45-5.06,.69-1.31,1.61-1.13,2.35-.02,.68,1.02,.59,2.24,.7,3.4,.7,7.58-2.44,13.98-5.97,20.35-4.73,8.53-11.75,14.52-20.21,19.01-1.89,1-3.27,2.15-3.96,4.36-3.95,12.56-13.19,19.71-25.11,23.88-4.59,1.61-9.4,2.45-14.3,1.63-1.94-.33-3.42,.37-4.88,1.45-8.36,6.19-17.42,6.16-26.74,2.77-1.99-.72-3.8-1.05-5.94-.85-6.74,.64-12.44-1.69-16.66-7.03-4.36-5.52-6.49-11.81-5.41-18.91,.3-1.96,.04-3.37-1.82-4.43-7.16-4.09-10.94-10.83-13.98-18.11-6.83-16.38-10.42-33.56-12.73-51.09-1.25-9.47-1.85-18.95-1.74-28.51,.11-9.93,1.72-19.56,5.12-28.88,3.83-10.51,11.04-17.85,21.26-22.21,8.31-3.55,17.24-4.7,26.05-6.2,3.03-.52,6.06-1.06,9.18-.86,2.88,.19,4.98,1.42,6.43,3.94,1.56,2.71,2.45,5.63,3.13,8.65,1.47,6.6,1.98,13.34,2.68,20.04,.49,4.72-.18,9.48-1.73,13.89-2.09,5.95-7.29,8.15-13.11,8.76-3.34,.35-6.74,.08-10.12,.1-1.32,0-2.64-.02-3.96,.04-5.03,.24-7.25,2.14-7.77,7.15-.49,4.67-.55,9.42,.07,14.06,1.01,7.56,2.35,15.07,4.13,22.5,.14,.57,.25,1.15,.44,1.7,3.04,9.14,3.96,10,14.49,8.92,2.75-.28,5.45-1.16,8.17-1.76,.86-.19,1.72-.38,2.59-.49,6.54-.81,9.12,.37,12.21,6.17,2.64,4.96,4.34,10.27,4.43,15.97,.05,3.23,.05,6.46-.02,9.69-.19,8.59-4.14,14.77-11.93,18.5-9.69,4.64-19.77,5.01-30.09,2.84-.57-.12-1.14-.28-1.71-.4-5.14-1.15-6.07-.33-5.49,4.82,.82,7.2,6.6,13.61,13.69,14.97Zm76.07-30.95c-.02-3.61-2.25-6.3-5.24-6.33-2.5-.03-5.06,2.28-5.01,4.52,.06,2.44,4.36,5.55,7.58,5.47,1.9-.04,2.69-1.13,2.67-3.66Zm-36.22,21.78c0-1.31,.06-1.9-.01-2.47-.2-1.53-.75-2.9-2.46-3.17-1.6-.25-2.79,.65-3.67,1.9-1.27,1.79-1.15,5.71,.19,7.45,.73,.95,1.64,1.74,2.89,1.72,1.43-.03,1.84-1.27,2.21-2.36,.42-1.23,.7-2.5,.85-3.06Zm-33.84-.64c-.14,.02-.29,.03-.43,.06-1.94,.32-2.86,1.93-2.49,4.33,.39,2.54,2.59,5.19,4.12,4.96,.14-.02,.28-.07,.41-.12,1.71-.64,3.4-3.98,2.96-5.84-.43-1.81-2.66-3.45-4.57-3.37Z"/><path class="cls-2" d="M81.42,37.64c.54,7.96,.11,14.14,.9,20.27,.09,.72,.06,1.47-.07,2.19-.31,1.73-1.22,3.06-3.08,3.25-1.96,.2-3.06-1.13-3.39-2.81-.58-3.01-.98-6.07-1.28-9.13-1.1-10.96-.86-21.97-.9-32.96,0-2.49-.08-4.99-.05-7.48,.03-2-.47-4.36,2.24-5.09,1.68-.45,2.98,1.14,3.59,4.68,.62,3.6,1.11,7.25,1.35,10.9,.4,5.99,.08,12.03,.71,16.19Z"/><path class="cls-2" d="M88.63,165.83c.33,.22,.84,.29,1.67,.23,5.23-.43,4.6-4.46,4.28-8.35-.37-4.53-.83-9.04-1.38-13.55-1.1-9.02-2.55-17.99-4.37-26.89-.2-.98-.53-2.03-1.09-2.84-1.22-1.74-3.43-1.42-4.05,.62-.37,1.23-.38,2.61-.31,3.91,.11,2.19,.54,4.37,.62,6.56,.48,12.62,2.02,25.13,3.84,37.61,.2,1.38,.18,2.28,.79,2.69Z"/></svg>