<?xml version="1.0" encoding="UTF-8"?><svg id="pot_icon" xmlns="http://www.w3.org/2000/svg" viewBox="0 0 200 200"><defs><style>.cls-1{fill:#d3d7d8;}.cls-2{fill:#1b2b3a;}</style></defs><path class="cls-1" d="M93.26,175.37c-14.88,.64-29.95-2.87-44.75-7.98-3.18-1.1-5.34-3.06-6.83-6.03-2.84-5.67-4.37-11.78-5.83-17.87-3.38-14.11-5.93-28.36-7.04-42.86-.32-4.17-.69-8.32-.83-12.5-.35-9.96,4.76-16.92,12.7-21.69,12.24-7.35,25.85-10.75,39.99-12.29,5.81-.64,11.62-1.1,17.44-.79,14.17,.77,28.35,1.48,42.14,5.3,5.38,1.49,10.5,3.51,15.16,6.57,7.02,4.61,10.47,11.26,10.87,19.57,.3,6.18-.49,12.26-2.12,18.19-4.65,16.86-9.38,33.7-14.13,50.54-.69,2.44-1.56,4.84-2.5,7.2-1.47,3.67-4.08,6.05-7.97,7.26-14.78,4.61-29.79,7.71-46.29,7.39Z"/><path class="cls-2" d="M96.25,117.24c-17.2-.99-34.22-2.9-50.23-9.91-2.74-1.2-5.52-2.32-7.87-4.23-1.34-1.09-2.41-2.46-1.42-4.25,.98-1.77,2.65-1.67,4.33-1.07,.56,.2,1.1,.47,1.63,.74,11.49,5.89,23.96,8.03,36.59,9.65,12.71,1.63,25.34,.83,37.91-1.06,8.9-1.34,17.37-4.28,25.6-7.91,1.77-.78,3.45-1.83,5.44-1.99,1.45-.12,2.69,.27,3.29,1.75,.52,1.28,.02,2.4-.87,3.25-.86,.81-1.87,1.48-2.89,2.09-12.29,7.33-25.67,11.16-39.89,12.16-3.87,.27-7.74,.52-11.61,.78Z"/><path class="cls-2" d="M177.69,67.77c.76,0,2.11-.07,3.45,.01,6.15,.38,10.94,2.86,13.24,8.91,2.33,6.14,1.47,11.65-3.28,16.47-4.17,4.22-9.14,6.68-14.99,7.22-3.41,.32-6.78,1.08-10.24,.92-1.5-.07-2.98-.1-4.39-.71-2.26-.98-3.5-2.81-3.26-4.82,.24-2.05,1.77-3.5,4.32-3.82,2.96-.38,5.93-.65,8.89-.9,3.15-.27,6.19-1.01,9.11-2.18,2.37-.95,4.1-2.63,4.11-5.33,.01-2.47-1.59-4.09-3.6-5.29-1.88-1.13-3.95-1.34-6.06-1.05-1.47,.2-2.93,.55-4.38,.9-5.06,1.21-8.01-.77-8.63-5.82-.22-1.78,1.05-2.36,2.34-2.76,4.16-1.27,8.41-1.99,13.37-1.75Z"/><path class="cls-2" d="M21.55,66.91c3.65,.46,7.83,.92,11.28,3.68,2.32,1.86,2.58,2.84,1.39,4.85-2.07,3.52-3.15,4.08-5.88,3.1-1.83-.65-3.62-1.46-5.49-1.91-2.76-.66-5.59,.77-6.78,3.15-1.04,2.09-.54,4.54,1.34,6.57,1.46,1.58,3.26,2.6,5.3,3.22,2.43,.74,4.9,1.36,7.28,2.24,2.87,1.07,3.93,3.44,3.18,6.5-.65,2.63-2.17,3.59-5.46,3.19-5.24-.63-10.28-1.99-14.82-4.79-6.76-4.17-9.73-10.66-8.05-17.43,1.81-7.25,8.57-12.42,16.71-12.37Z"/><path class="cls-2" d="M99.54,38.01c6,.11,11.36,4.31,13.26,10.16,1.02,3.14,1.31,6.43,1.74,9.68,.22,1.67-.24,3.29-1.32,4.62-1.42,1.75-3.24,2.66-5.52,2.05-2.21-.59-3.01-2.31-3.08-4.41-.08-2.54-.18-5.07-.8-7.55-.78-3.12-2.06-4.32-4.75-4.41-2.48-.08-3.69,.87-4.61,3.95-.51,1.71-.72,3.5-1.11,5.25-.29,1.3-.48,2.67-1.02,3.87-1.06,2.4-3.34,3.44-5.9,2.93-2.5-.5-4.05-2.28-3.98-5.18,.09-3.77,1.1-7.37,2.94-10.69,2.68-4.83,5.9-9.04,11.87-9.96,.88-.14,1.77-.24,2.27-.31Z"/></svg>