<?xml version="1.0" encoding="UTF-8"?><svg id="power_off_phone_icon" xmlns="http://www.w3.org/2000/svg" viewBox="0 0 200 200"><defs><style>.cls-1{fill:#d3d7d8;}.cls-2{fill:#1b2b3a;}</style></defs><path class="cls-2" d="M93.89,193.83c-3.45-.67-6.96-.4-10.44-.65-10.2-.71-20.26-2.34-30.27-4.34-3.04-.61-5.92-1.7-8.68-3.05-3.87-1.9-6.11-5.31-7.46-9.24-2.07-6.01-2.91-12.29-3.06-18.6-.31-13.11,.9-26.16,1.86-39.22,1.02-13.91,2.66-27.74,4.34-41.58,1.09-8.97,2.44-17.9,3.85-26.83,1.11-7.05,1.47-14.21,2.79-21.24,.61-3.23,1.17-6.48,1.93-9.68,1.04-4.38,3.74-7.2,8.15-8.44,8.13-2.28,16.46-3.22,24.83-3.84,13.81-1.02,27.65-1.04,41.5-.9,6.73,.07,13.37,.96,20.02,1.85,3.94,.53,7.48,2.28,11.05,3.85,4.11,1.82,5.45,5.84,6.71,9.71,1.42,4.37,1.61,8.95,1.75,13.5,.54,17.08-1.39,33.96-3.85,50.83-1.62,11.08-2.93,22.21-4.49,33.3-2.23,15.8-4.25,31.63-6.85,47.37-1.34,8.12-5.29,15.13-11.88,20.43-4.84,3.9-10.67,4.74-16.48,5.52-5.82,.78-11.7,.9-17.57,.94-.9,0-1.82-.11-2.69,.28h-5.03Z"/><path class="cls-1" d="M109.31,34.33c7.43,0,14.85-.04,22.28,.01,7.04,.05,11.23,3.5,12.81,10.31,1.47,6.37,1.43,12.85,.73,19.24-.63,5.71-.82,11.45-1.21,17.16-1.03,15.22-2.74,30.37-4.1,45.55-1,11.2-2.38,22.27-5.38,33.1-.71,2.56-1.57,5.09-2.54,7.56-1.45,3.7-4.36,5.78-8.17,6.52-10.8,2.09-21.65,1.97-32.61,1.34-10.82-.62-21.38-2.57-32-4.4-.69-.12-1.38-.22-2.07-.39-7.86-1.88-10.73-5.56-10.9-13.64-.21-9.59,1.78-18.94,3.01-28.36,1.47-11.24,2.77-22.49,3.87-33.78,1.47-15.17,2.47-30.42,5.71-45.38,.69-3.17,1.62-6.23,3.08-9.13,1.08-2.15,2.75-3.52,5.15-3.89,2.35-.36,4.7-.79,7.07-.94,11.74-.74,23.49-1.15,35.26-.9Z"/><path class="cls-1" d="M105.87,23.36c-2.1,0-4.2,0-6.3,0-1.12,0-2.26,0-3.29-.51-1.3-.64-2.53-1.49-2.38-3.13,.16-1.77,1.59-2.14,3.08-2.2,6.97-.29,13.94-1.63,20.91-.08,.68,.15,1.4,.13,2.07,.3,1.01,.25,1.85,.82,1.93,1.94,.09,1.28-.65,2.25-1.84,2.48-2.46,.5-4.96,.91-7.46,1.12-2.23,.18-4.48,.04-6.72,.04v.03Z"/><path class="cls-1" d="M81.9,24.92c-2.4,.01-4.57-2.22-4.48-4.6,.09-2.22,2.44-4.18,4.98-4.16,2.02,.02,3.88,1.96,3.95,4.13,.08,2.4-2.05,4.62-4.45,4.63Z"/><path class="cls-2" d="M70.17,107.24c-.17-14.07,7-23.34,19.75-26.56,1.98-.5,2.92-1.51,3.36-3.36,.44-1.83,.87-3.7,1.62-5.42,.84-1.91,2.49-2.85,4.64-2.39,1.94,.41,2.8,1.86,3.07,3.7,.1,.68,.26,1.42,.08,2.05-1.25,4.45,1.08,6.63,4.58,8.94,18.99,12.51,9.72,37.38-3.44,44.27-3.43,1.79-7.17,2.45-11.02,1.98-3.6-.44-7.04-1.49-10.36-3.02-6.81-3.14-10.74-8.4-11.85-15.77-.28-1.87-.38-3.76-.44-4.42Zm19.52-12.14c.04-.34,.11-.68,.13-1.02,.04-1,.41-2.2-.73-2.76-1.09-.54-1.95,.34-2.75,.95-4.17,3.16-5.99,7.6-5.93,12.6,.07,5.82,2.21,10.65,7.89,13.43,5.11,2.5,9.67,1.86,13.84-1.8,3.51-3.08,5.66-7.18,5.98-11.68,.35-4.92-1.26-9.5-5.48-12.73-1.79-1.37-2.68-.88-3.28,1.15-.58,1.97-.65,4.11-1.77,5.9-.99,1.57-2.4,2.51-4.3,2.27-1.88-.24-3.18-1.36-3.56-3.24-.2-.98-.03-2.04-.04-3.06Z"/></svg>