<?xml version="1.0" encoding="UTF-8"?><svg id="rainbow_icon" xmlns="http://www.w3.org/2000/svg" viewBox="0 0 200 200"><defs><style>.cls-1{fill:#d3d7d8;}.cls-2{fill:#1b2b3a;}</style></defs><path class="cls-1" d="M1.32,139.9c.99-18.88,4.56-37.01,14-53.78,4.24-7.53,8.76-14.75,15.16-20.49,15.89-14.23,33.82-24.71,55.33-27.58,7.83-1.05,15.71-1.6,23.76-.79,7.8,.79,15.52,1.63,23.05,3.78,8.83,2.52,17.18,6.12,24.98,11.04,11.92,7.52,20.61,17.86,27.12,30.21,7.41,14.06,11.13,29.08,12.21,44.87,.29,4.26,.93,8.49,.75,12.78-.04,.88,0,1.77-.05,2.65-.41,7.04-.8,7.3-7.87,7.44-11.61,.22-23.21,.56-34.82,.91-1.76,.05-3.5,.5-5.26,.65-4.45,.38-5.72-.59-5.79-5-.07-4.58-.37-9.12-.99-13.65-.78-5.71-1.62-11.44-4.43-16.56-6.3-11.49-16.16-17.72-29.15-18.59-6.28-.42-12.63-.49-18.73,2.07-8.59,3.61-14.87,9.64-18.63,17.96-3.22,7.12-5.47,14.62-5.31,22.64,.06,2.63-.63,5.26-.75,7.9-.12,2.58-1.54,3.8-3.86,3.96-2.93,.2-5.94,.51-8.82,.09-5.88-.85-11.77-.7-17.65-.68-8.54,.02-17.06-.13-25.61,.73-7.83,.79-8.6-.27-8.66-8.15-.01-1.47,0-2.95,0-4.42Z"/><path class="cls-2" d="M18.74,140.09c-.04-15.38,3.09-29.2,9.65-42.21,2.07-4.1,4.69-7.86,7.61-11.37,5.66-6.81,11.76-13.2,18.88-18.54,10.85-8.14,23.42-11.47,36.58-13.23,9.59-1.28,19.15-1.15,28.58,.92,18.79,4.12,34.69,12.83,45.71,29.23,11.96,17.79,17.71,37.41,17.92,58.75,.01,1.18,.04,2.37-.08,3.54-.29,2.94-1.09,3.64-3.88,3.57-2.52-.06-3.22-.66-3.32-3.6-.21-6.18-.45-12.34-.95-18.52-1.83-22.37-20.54-47.93-36.63-57.38-18.65-10.96-37.82-12.72-57.8-6.48-28.05,8.75-44.55,28.59-51.56,56.71-2.19,8.78-2.7,17.75-2.5,26.78,.08,3.64-1.02,4.47-4.45,4.2-1.74-.14-2.65-.93-3.02-2.62-.77-3.49-.69-7.03-.74-9.73Z"/><path class="cls-2" d="M48.75,142.41c.3-17.24,6.29-32.19,17.37-44.99,8.29-9.57,19.15-14.44,31.77-15.51,8.72-.74,17.38-.77,25.84,1.78,10.98,3.3,19.51,10.25,26.78,18.8,10.67,12.55,15.43,27.28,15.5,43.64,0,.88-.04,1.77-.1,2.65-.1,1.38-.89,2.15-2.24,2.3-1.41,.16-2.76-.06-3.23-1.62-.42-1.4-.73-2.87-.82-4.32-.84-14.62-5.88-27.5-15.39-38.73-8.79-10.39-19.64-16.21-33.38-16.38-5.03-.06-10.01,.29-14.96,1.22-14.61,2.73-25.11,10.81-32.09,23.92-4.78,8.97-6.15,18.68-7.28,28.5-.21,1.87,.28,3.81,.34,5.72,.06,2.1-.94,3.28-3.15,3.42-2.56,.17-3.82-.46-4.37-2.64-.66-2.59-.54-5.27-.61-7.75Z"/></svg>