<?xml version="1.0" encoding="UTF-8"?><svg id="sad_emoji" xmlns="http://www.w3.org/2000/svg" viewBox="0 0 200 200"><defs><style>.cls-1{fill:#d3d7d8;}.cls-2{fill:#1b2b3a;}</style></defs><path class="cls-1" d="M100.68,191.56c-13.57,1.03-26.34-2.05-38.59-7.43-26.42-11.6-43.28-31.64-51.44-59.12-2.63-8.86-3.82-17.97-4.15-27.25-.34-9.57,1.71-18.66,4.52-27.6,4.35-13.84,11.9-25.94,21.5-36.72,5.36-6.01,11.96-10.7,18.99-14.47,11.53-6.19,23.55-11.37,36.71-13.08,9.35-1.21,18.68-.79,27.98,.79,16.56,2.8,31.53,9.19,44.45,19.98,10.75,8.98,19.36,19.69,24.86,32.71,3.54,8.38,6.74,16.89,7.7,25.99,1.87,17.86,.44,35.27-7.61,51.72-4.41,9.02-9.37,17.66-16.28,25.01-12.31,13.11-27.41,21.53-44.58,26.58-7.91,2.33-15.86,3.59-24.04,2.9Z"/><path class="cls-2" d="M101.09,109.68c15.15,.04,28.05,8.86,32.05,20.94,.68,2.05,1.2,4.13,.96,6.32-.16,1.47-.78,2.7-2.29,3.13-1.74,.51-3-.37-3.82-1.8-.6-1.06-1.06-2.22-1.43-3.38-3.83-12.16-16.7-21.13-32.32-17.3-9.64,2.37-17.09,7.32-21.31,16.57-.51,1.11-1.14,2.18-1.86,3.16-.97,1.33-2.28,2.13-3.98,1.46-1.84-.73-2.49-2.28-2.13-4.11,.56-2.9,1.95-5.46,3.63-7.88,8.2-11.85,19.91-16.72,32.5-17.11Z"/><path class="cls-2" d="M90.79,86.55c-.03,3.55-2.34,6.01-5.58,5.95-3.19-.06-5.79-2.99-5.76-6.5,.03-3.11,2.47-5.69,5.4-5.71,3.33-.02,5.96,2.75,5.93,6.26Z"/><path class="cls-2" d="M124.95,87.17c.01,3.11-2.08,5.27-5.11,5.29-3.24,.01-5.96-2.56-6.04-5.71-.07-3,2.42-5.84,5.23-5.95,3.06-.12,5.9,2.93,5.91,6.37Z"/></svg>