<?xml version="1.0" encoding="UTF-8"?><svg id="searching_icon" xmlns="http://www.w3.org/2000/svg" viewBox="0 0 200 200"><defs><style>.cls-1{fill:#d3d7d8;}.cls-2{fill:#1b2b3a;}</style></defs><path class="cls-1" d="M107.23,109.45c-4.04,.08-7.59-.38-11.18-.89-24.48-3.46-35.73-30.63-32.53-49.36,1.09-6.41,2.17-12.79,5.42-18.53,8.56-15.15,20.65-25.06,38.61-27.09,7.92-.89,15.48-.78,23.18,1.43,7.51,2.16,12.94,6.85,17.66,12.66,6.42,7.88,9.28,17.22,10.13,27.1,1.42,16.46-3.22,30.92-15.3,42.66-6.68,6.48-15.01,9.25-23.85,10.94-4.14,.79-8.31,1.44-12.14,1.09Z"/><path class="cls-2" d="M161.8,57.16c.42,7.84-.91,15.32-3.62,22.32-4.59,11.86-12.61,21.07-23.98,27.1-6.14,3.26-12.47,6.08-19.5,6.68-2.94,.25-4.06,1.73-4.7,4.43-2.77,11.7-5.25,23.48-8.56,35.05-2.15,7.52-3.84,15.16-5.63,22.77-1.14,4.84-2.46,9.64-5.04,13.95-3.72,6.2-11.84,7.69-17.53,3.15-3.23-2.57-3.75-6.41-3.94-10.19-.28-5.43,.53-10.81,1.35-16.16,2.57-16.84,6.98-33.23,12.34-49.38,.75-2.27,2.33-4.56,1.88-6.87-.51-2.59-3.7-2.7-5.59-4.08-2.91-2.13-5.99-4-8.75-6.36-8.12-6.95-11.82-16.16-13.42-26.36-3.11-19.84,1.65-37.65,16.1-51.73C88.38,6.69,106.86,.88,127.55,7.43c14.58,4.62,24.99,14.7,30.65,29.19,2.59,6.65,4.08,13.53,3.61,20.53Zm-93.28,5.21c-1.16,11.14,5.06,20.5,13.81,28.1,9.77,8.48,21.28,11.88,34.41,9.08,18.99-4.04,33.9-22.08,33.06-40.26-.27-5.91-1.36-11.62-2.57-17.36-.54-2.55-1.74-4.75-3.01-6.99-4.9-8.68-13.05-12.66-22.06-15.15-5.04-1.39-10.23-2.21-15.6-1.51-10.2,1.34-18.24,6.55-25.51,13.37-8.47,7.95-12.71,17.69-12.54,30.71Z"/><path class="cls-2" d="M141.07,56.51c.1,3.22-.5,6.3-1.64,9.28-.27,.7-.52,1.43-.93,2.04-.97,1.48-2.27,2.54-4.14,1.94-1.83-.58-2.57-2.11-2.32-3.91,.35-2.54,.52-5.07,.59-7.63,.22-7.75-1.83-14.85-5.88-21.42-.16-.26-.34-.5-.48-.76-.88-1.67-2.65-3.49-.48-5.16,1.9-1.46,3.73,.06,5.27,1.23,1.06,.81,2.06,1.8,2.79,2.91,4.32,6.51,6.94,13.61,7.23,21.48Z"/><path class="cls-2" d="M132.71,78.16c-.25,2.31-2.44,4.03-4.78,3.75-2.2-.26-3.67-2.28-3.31-4.52,.35-2.17,2.38-3.79,4.47-3.58,2.22,.22,3.85,2.19,3.61,4.36Z"/><g id="_CnzX9.tif"><g><path class="cls-1" d="M89.34,173.07c-5.98,.1-11.39-1.13-16.4-4.04-3-1.74-4.21-3.22-3.45-4.68,.81-1.55,3.34-1.9,6.08-.6,5.15,2.44,10.57,3.32,16.21,3.17,.96-.03,1.92-.13,2.87-.26,1.49-.2,2.73,.19,3.25,1.66,.53,1.47-.22,2.58-1.48,3.34-2.26,1.36-4.76,1.56-7.09,1.42Z"/><path class="cls-1" d="M86.41,182.38c-5.75,.26-10.42-1.69-14.87-4.34-.69-.41-1.31-.98-1.86-1.56-.8-.85-1.85-1.78-.89-3.05,.86-1.14,2.14-.87,3.26-.39,3.95,1.71,7.95,3.25,12.26,3.83,2.59,.34,5.18,.17,7.77,.24,1.29,.03,2.74,0,3.07,1.56,.33,1.56-1.06,2.11-2.19,2.64-2.2,1.03-4.56,1.24-6.55,1.07Z"/></g></g></svg>