<?xml version="1.0" encoding="UTF-8"?><svg id="shower_head_icon" xmlns="http://www.w3.org/2000/svg" viewBox="0 0 200 200"><defs><style>.cls-1{fill:#d3d7d8;}.cls-2{fill:#1b2b3a;}</style></defs><path class="cls-1" d="M73.83,26.36c7.14-.29,13.09,2.41,17.57,7.93,2.47,3.05,4.93,4.07,8.59,2.69,3.43-1.29,6.83-1.14,9.84,1.4,1.8,1.52,3.59,.49,5.35-.18,7.56-2.89,15.2-3.8,23.26-2.1,8.68,1.83,14.96,6.43,18.95,14.5,3.99,8.07,7.43,16.37,10.65,24.79,7.13,18.65,12.91,37.73,17.89,57.07,.36,1.4,.59,2.85,1.03,4.22,2.13,6.66-1.85,10.47-8.51,11.41-2.88,.41-4.52-1.04-5.63-4.7-1.35-4.46-2.51-8.99-3.83-13.46-5.04-16.98-10.53-33.79-17.99-49.87-2.77-5.97-5.2-12.1-7.97-18.07-2.77-5.98-6.83-8.06-13.41-7.17-1.72,.23-3.4,.78-5.13,.97-4.08,.46-7.17,1.76-7.81,6.66-.31,2.38-2.02,4.39-4.16,5.66-2.16,1.29-2.9,2.99-2.73,5.59,.45,6.96-2.48,12.55-7.64,16.87-8.39,7.02-18.04,11.95-27.95,16.18-5.33,2.28-10.75,1.42-15.33-3.07-9.34-9.16-16.85-19.63-22.37-31.56-2.58-5.57-4.5-11.36-4.37-17.66,.09-4.41,1.48-8.24,4.8-11.16,9.51-8.34,20.14-14.45,32.65-16.66,1.39-.25,2.83-.21,4.25-.3Z"/><path class="cls-2" d="M105.61,31.09c4.14,.07,7.19,2.38,9.63,5.4,4.06,5.03,6.63,10.91,8.35,17.16,.88,3.19-.23,6.07-1.85,8.7-1.97,3.21-4.82,5.51-8.09,7.22-2.25,1.18-3,.83-3.85-1.65-.52-1.51-.85-3.09-1.23-4.66-2.02-8.4-5.44-16.06-11-22.7-2.73-3.26-2.47-4.28,1.04-6.91,2.39-1.79,4.49-2.56,7-2.57Z"/><path class="cls-2" d="M80.64,96.79c0,2.41,.1,4.84-.6,7.19-.32,1.07-.63,2.17-1.11,3.17-.81,1.68-2.01,3.1-4.07,2.43-2.06-.67-2.31-2.52-1.89-4.37,1.49-6.69,.59-13.11-1.9-19.38-3.27-8.21-7.08-16.15-11.33-23.89-3.49-6.37-8.25-11.34-14.37-15-1.49-.89-3.13-1.52-4.68-2.31-.73-.37-1.29-.94-1.3-1.86-.01-1.13,.7-1.75,1.6-2.16,1.82-.83,3.71-.67,5.56-.14,5.13,1.46,9.82,3.92,13.2,8.12,9.52,11.84,16.53,25.06,20.08,40.04,.63,2.67,.79,5.41,.81,8.15Z"/><path class="cls-2" d="M20.56,77.13c-1.43-.05-2.39-.5-2.93-1.62-.54-1.13-.34-2.24,.47-3.11,2.1-2.28,4.71-3.7,7.75-4.14,1.33-.19,2.5,.43,3.06,1.75,.58,1.37,.05,2.6-1.09,3.35-2.35,1.56-4.66,3.26-7.27,3.78Z"/><path class="cls-2" d="M42.49,127.67c-.05,2.04-2.74,5.58-4.72,6.23-2.25,.73-4.27-1.05-3.63-3.4,.71-2.6,2.49-4.48,4.92-5.49,1.83-.76,3.48,.63,3.43,2.67Z"/><path class="cls-2" d="M25.02,106.46c1.77-.1,3.01,1.39,2.35,3.15-.9,2.4-2.33,4.55-4.64,5.78-2.24,1.19-4.31-.19-4.1-2.6,.2-2.27,4.17-6.21,6.39-6.34Z"/><path class="cls-2" d="M36.7,86.96c-.18,2.58-5.29,6.39-7.74,5.84-1.87-.42-2.84-2.45-1.66-4.04,1.74-2.35,4.19-3.82,7.09-4.1,1.42-.14,2.28,.83,2.31,2.3Z"/><path class="cls-2" d="M14.5,92.83c-.11,2.61-5.82,6.52-8.36,5.71-1.63-.52-2.33-2.35-1.23-3.89,1.75-2.44,4.26-3.78,7.18-4.15,1.45-.18,2.47,.99,2.41,2.33Z"/><path class="cls-2" d="M41.76,109.42c-1.69-.13-2.75-1.88-1.88-3.55,1.39-2.66,3.65-4.42,6.55-5.05,1.48-.32,2.43,.61,2.34,2.21-.13,2.28-4.88,6.55-7.01,6.39Z"/><path class="cls-2" d="M52.3,117.9c.47-1.94,1.01-3.95,2.55-5.47,.85-.84,1.9-1.17,3.02-.61,1.13,.57,1.51,1.64,1.32,2.82-.34,2.1-1.31,3.93-2.66,5.53-.74,.88-1.73,1.56-2.9,1.05-1.37-.59-1.58-1.85-1.32-3.33Z"/><path class="cls-2" d="M63.55,84.3c1.97,.02,3.64,1.72,3.63,3.7,0,1.81-.84,3.05-2.7,3.22-1.86,.18-3.95-1.99-3.82-3.97,.12-1.84,1.18-2.84,2.88-2.95Z"/><path class="cls-2" d="M46.03,62.06c-.28,1.74-1.25,2.9-3.09,2.99-1.76,.09-3.56-1.95-3.46-3.9,.09-1.9,1.15-2.96,3.03-2.98,1.9-.02,3.61,1.88,3.52,3.89Z"/><path class="cls-2" d="M59.93,96.22c1.91,.03,3.57,1.84,3.37,3.77-.17,1.65-1.1,2.6-2.77,2.57-1.76-.02-3.57-2.06-3.47-3.82,.08-1.43,1.35-2.55,2.87-2.52Z"/><path class="cls-2" d="M46.91,78.39c1.89-.11,3.77,1.69,3.74,3.58-.03,1.68-.96,2.64-2.58,2.79-1.78,.16-3.68-1.69-3.65-3.56,.03-1.69,1.01-2.56,2.49-2.81Z"/><path class="cls-2" d="M58.01,70.1c1.65,.12,2.84,1.03,2.94,2.9,.1,1.87-.96,2.97-2.77,3.18-1.82,.21-3.41-1.3-3.36-3.1,.04-1.62,1.41-2.95,3.2-2.98Z"/></svg>