<?xml version="1.0" encoding="UTF-8"?><svg id="sleep_mask_icon" xmlns="http://www.w3.org/2000/svg" viewBox="0 0 200 200"><defs><style>.cls-1{fill:#d3d7d8;}.cls-2{fill:#1b2b3a;}</style></defs><path class="cls-1" d="M154.78,159.37c-11.71-.48-21.65-4.06-31.01-9.57-6.53-3.85-13.32-7.12-20.61-9.4-5.87-1.84-11.05-1.01-15.94,2.66-4.15,3.11-8.22,6.39-12.65,9.07-15.27,9.24-31.39,11.04-48.18,4.58-3.89-1.5-7.48-3.7-10.67-6.36-8.21-6.83-12.83-15.19-10.01-26.2,1.52-5.95,1.96-11.6-.04-17.71-2.09-6.4-1.27-13.21,0-19.84,2.16-11.25,8.64-19.73,17.31-26.67,8.3-6.64,17.68-11.51,27.64-15.06,12.85-4.58,25.76-9.05,39.05-12.29,22.43-5.47,42.94-1.8,61.36,12.44,4.46,3.45,9.19,6.52,14.01,9.46,8.65,5.28,15.9,11.96,20,21.46,4.35,10.06,5.04,20.37,1.28,30.75-.95,2.62-.7,4.81,.36,7.25,3.37,7.75,3.96,15.77,1.81,23.94-2.6,9.9-9.08,16.06-18.7,19.14-5.14,1.65-10.5,1.77-15.03,2.36ZM12.6,91.46c0,1.41-.11,2.75,.03,4.07,.19,1.76,.35,3.81,2.36,4.41,1.67,.49,2.57-1.21,3.59-2.21,6.5-6.41,13.83-11.6,22.04-15.64,6.31-3.1,12.95-5.22,19.62-7.22,11.7-3.52,23.65-6.04,35.94-5.28,9.31,.57,18.61,1.66,27.81,3.32,10.57,1.9,20.78,4.81,30.35,9.89,8.33,4.42,15.87,9.84,22.71,16.29,2.41,2.28,2.95,2.13,4.07-1.09,.9-2.6,.86-5.24,.54-7.92-1.31-10.85-6.36-19.17-15.86-24.93-8.12-4.93-15.76-10.58-23.25-16.45-6.62-5.2-14.08-8.75-22.52-10.09-4.35-.69-8.57,.23-12.85,.46-10.75,.56-21.13,2.99-31.43,5.9-8.6,2.42-16.57,6.51-24.96,9.49-9.18,3.25-17.59,7.84-25.31,13.76-3.61,2.77-6.43,6.21-8.71,10.01-2.43,4.05-4.94,8.22-4.15,13.26Z"/><path class="cls-2" d="M153.86,133.82c-.64,1.56-.95,2.73-1.55,3.72-1.47,2.46-3.8,2.34-5.08-.2-.2-.39-.26-.85-.35-1.28-.16-.74-.35-1.52-1.29-1.5-.91,.02-1.11,.87-1.42,1.51-.26,.53-.43,1.11-.72,1.62-.61,1.06-1.34,2.04-2.78,1.76-1.21-.23-1.6-1.2-1.79-2.27-.08-.44-.05-.9-.17-1.32-.72-2.61-2.03-2.95-3.96-1.02-.42,.42-.71,.96-1.14,1.36-.8,.75-1.74,1.17-2.84,.71-1.08-.45-1.79-1.43-1.54-2.46,.75-3.02-1.09-4.24-3.24-5.52-1.12-.67-2.07-1.68-2.95-2.68-1.1-1.24-2.1-2.69-1.15-4.41,.96-1.76,2.69-1.59,4.34-1.25,1.16,.24,2.32,.54,3.43,.95,6.68,2.47,13.61,2.79,20.62,2.48,1.94-.09,3.82-.42,5.67-1.04,1.26-.42,2.56-.76,3.86-1.06,2.03-.48,3.96-.38,4.9,1.83,.85,1.99-.3,3.49-1.8,4.58-1.87,1.35-3.27,2.77-3.52,5.3-.17,1.73-1.59,2.43-3.34,1.53-.64-.33-1.23-.76-2.17-1.36Z"/><path class="cls-2" d="M50.39,131.46c-2.19,4.92-4.88,4.38-5.77-.7-.57,.47-1.93,3.47-2.55,3.79-2.34,1.22-3.85,.4-3.59-2.22,.18-1.77-.02-3.12-1.18-4.46-.91-1.06-1.26-2.39-.36-3.68,.89-1.29,2.29-1.34,3.61-1,2.75,.71,5.54,.83,8.35,.9,5.06,.13,10.05-.11,14.8-2.13,1.22-.52,2.53-.82,3.89-.79,1.42,.03,2.65,.44,3.27,1.83,.63,1.4,.12,2.66-.83,3.67-.9,.96-1.9,1.88-3.01,2.58-1.45,.91-1.4,1.46-1.89,3.2-.83,2.93-1.03,2.99-3.68,1.29-1.3-.83-3.3-3.96-4.48-2.39-2.59,7.07-3.69,4.07-6.57,.1Z"/><path class="cls-2" d="M5.92,111.44c.72-4.47,2.66-8.53,6.04-11.85,.79-.78,1.87-1.01,2.8-.21,.76,.66,.73,1.62,.35,2.46-1.64,3.63-3.31,7.25-5.04,10.83-.53,1.1-1.4,2.01-2.81,1.54-1.22-.4-1.18-1.55-1.33-2.78Z"/><path class="cls-2" d="M187.59,106.18c.03,2-2.02,3.35-3.69,2.22-2.46-1.68-4.53-3.87-5.74-6.64-.68-1.56,.6-2.97,2.31-2.87,2.42,.14,7.08,4.92,7.12,7.29Z"/></svg>