<?xml version="1.0" encoding="UTF-8"?><svg id="smiley_emoji" xmlns="http://www.w3.org/2000/svg" viewBox="0 0 200 200"><defs><style>.cls-1{fill:#d3d7d8;}.cls-2{fill:#1b2b3a;}</style></defs><path class="cls-1" d="M98.95,190.76c-52.1-.77-90.42-40.99-90.56-90.29C8.24,45.86,51.02,9.46,100.11,9.24c46.37-.21,89.85,37.08,89.78,89.89-.07,52.84-41.29,90.75-90.94,91.63Z"/><path class="cls-2" d="M43.9,124.92c3.54-2.92,7.87-4.83,10.74-8.62,.82-1.08,2.2-1.7,3.57-.77,1.34,.9,1.46,2.47,.76,3.6-2.11,3.38-.32,5.21,2.05,7.46,8.52,8.08,18.97,12.27,30.24,12.85,14.32,.74,27.63-3.57,39.11-12.63,1.83-1.44,3.08-2.77,1.33-5.13-.73-1-.8-2.29,.18-3.29,1.13-1.16,2.49-.93,3.69-.2,2.69,1.64,5.52,2.9,8.53,3.83,1.35,.42,2.48,1.22,2.28,2.86-.18,1.52-1.35,2.71-2.65,2.62-4.94-.34-7.28,3.39-10.31,6.1-7.34,6.55-16.24,9.85-25.68,11.76-10.86,2.2-21.55,1.61-32.06-2.32-7.7-2.88-14.29-7.3-20.06-13.01-1.8-1.78-3.44-3.22-6.2-2.16-2.01,.77-3.74-.45-5.52-1.16v-1.79Z"/><path class="cls-2" d="M111.14,98.02c-2.64,.12-5.12-2.12-5.36-4.85-.27-2.99,2.32-5.81,5.34-5.83,2.65-.01,5.09,2.37,5.17,5.04,.08,2.82-2.37,5.51-5.14,5.63Z"/><path class="cls-2" d="M91.73,91.97c-.06,2.91-2.7,5.4-5.52,5.21-2.52-.16-4.72-2.49-4.75-5.02-.02-2.84,2.59-5.54,5.33-5.5,2.6,.03,5,2.61,4.94,5.31Z"/></svg>