<?xml version="1.0" encoding="UTF-8"?><svg id="stretching_icon" xmlns="http://www.w3.org/2000/svg" viewBox="0 0 200 200"><defs><style>.cls-1{fill:#d3d7d8;}</style></defs><path class="cls-1" d="M97.21,53.5c1.96-1.38,3.99-2.8,6.01-4.22,3.91-2.76,7.82-5.54,11.74-8.3,3.57-2.5,3.99-4.19,1.44-7.83-1.8-2.58-3.93-4.92-5.89-7.39-2.27-2.87-4.55-5.73-6.74-8.65-1.91-2.54-3.35-5.34-4.24-8.4-.63-2.16-.15-3.95,1.57-5.45,1.85-1.61,3.86-1.74,5.98-.72,1.71,.82,3.33,1.86,4.61,3.27,8.19,9.07,17.21,17.39,24.37,27.38,3.76,5.25,3.86,6.82,.34,12.23-4.17,6.39-9.62,11.65-14.98,16.99-5.41,5.39-6.12,4.69-3.22,13.07,4.31,12.45,6.65,25.35,8.78,38.3,1.55,9.45,3.57,18.83,4.92,28.32,1.15,8.11,2.36,16.21,3.57,24.31,.26,1.74,.7,3.46,.94,5.21,.38,2.75,1.82,4.33,4.63,4.62,1.5,.15,3,.38,4.5,.54,3.2,.35,5.34,2.25,6.68,4.97,1.77,3.58,.47,7.09-3.24,9.35-3.57,2.18-7.62,2.64-11.64,2.89-4.02,.25-8.07,.16-12.11,.1-3.22-.04-3.64-.31-4.64-3.36-3.68-11.27-7.29-22.57-10.92-33.85-.77-2.4-1.51-4.81-2.34-7.2-.37-1.07-.86-2.1-1.41-3.09-.54-.98-1.14-2.17-2.53-1.84-1.16,.27-1.24,1.49-1.46,2.45-1.59,6.76-2.69,13.6-3.63,20.48-.93,6.87-2.05,13.72-2.88,20.6-.32,2.65-1.52,4.12-4.05,4.75-2.33,.58-4.64,1.16-7.07,1.12-4.16-.06-8.33-.04-12.49-.05-1.65,0-3.27-.17-4.84-.72-4.03-1.41-5.85-5.01-4.48-9.05,1.21-3.58,3.14-6.35,7.47-6.26,.62,.01,1.23-.24,1.85-.35,4.9-.86,5.21-1.23,5.33-6,.26-10.45,.67-20.9,1.39-31.34,.26-3.77,.16-7.57,.08-11.35-.06-2.87-.55-3.43-3.35-4.23-1.69-.48-3.44-.79-5.16-1.19-6.7-1.55-12.61-4.78-17.21-9.75-7.97-8.61-7.76-19.78,.38-28.63,4.38-4.76,9.72-8.39,14.98-12.09,1.13-.8,2.3-1.57,3.34-2.47,1.74-1.51,1.59-2.15-.63-3.11-.23-.1-.48-.16-.71-.25-10.36-4.03-14.86-14.65-10.57-25.08,1.77-4.3,4.48-7.72,8.53-10.28,6.84-4.32,14.33-3.03,19.84,1.12,6.16,4.65,9.99,10.68,8.6,18.93-.06,.35,.05,.73,.11,1.1,.02,.09,.17,.16,.47,.42Zm-20.82,51.01c-.52-3.71-1.06-7.83-1.68-11.93-.2-1.36-1.06-1.89-2.46-1.56-3.56,.86-7.25,5.81-7.22,9.73,.03,3.74,2.72,6.56,7.18,7.55,3.12,.69,4.19-.18,4.18-3.8Z"/></svg>