<?xml version="1.0" encoding="UTF-8"?><svg id="sun_icon" xmlns="http://www.w3.org/2000/svg" viewBox="0 0 200 200"><defs><style>.cls-1{fill:#d3d7d8;}.cls-2{fill:#1b2b3a;}</style></defs><path class="cls-1" d="M164.36,90.12c-.61,20.95-8.74,37.96-26.54,49.82-9.05,6.03-18.5,11-29.45,12.81-12.32,2.05-23.68-.69-34.61-6.06-11.95-5.88-20.29-15.13-25.3-27.43-2.16-5.3-3.06-10.88-3.05-16.54,.01-15.08,3.65-29.11,13.42-40.97,12.64-15.33,28.57-24.28,48.88-24.33,7.9-.02,15.72-.23,23.27,3.09,10.02,4.41,18.33,10.68,24.17,20.02,5.66,9.03,9.74,18.56,9.2,29.59Z"/><path class="cls-1" d="M181.12,100.5c-1.99-.14-3.74-.2-5.47-.42-1.2-.16-2.08-.91-2.22-2.17-.14-1.3,.67-2.11,1.8-2.5,3.88-1.31,7.85-1.05,11.8-.49,1.38,.2,2.21,1.26,2.09,2.76-.09,1.26-.9,2.14-2.07,2.31-2.04,.3-4.11,.36-5.93,.5Z"/><path class="cls-1" d="M17.31,81.9c2.88,.1,4.99-.07,6.96,.84,1.06,.49,2.02,1.16,1.86,2.5-.13,1.04-.9,1.82-1.85,2.02-3.81,.83-7.65,.8-11.44-.11-1.13-.27-1.99-1.12-1.97-2.44,.03-1.56,1.07-2.31,2.44-2.51,1.58-.23,3.2-.25,4-.3Z"/><path class="cls-1" d="M65.39,174.5c-1.36-.17-2.09-.79-2.03-1.91,.05-.94,.21-1.96,.64-2.77,1.57-2.97,3.22-5.9,4.95-8.77,.6-1,1.65-1.58,2.89-1.15,1.05,.36,1.52,1.33,1.3,2.31-1,4.44-2.87,8.46-6.24,11.63-.43,.4-1.13,.51-1.51,.67Z"/><path class="cls-1" d="M44.63,162.99c-2.04-.03-3.16-1.42-2.33-2.92,2.11-3.8,5.09-6.87,8.9-9.02,.83-.47,1.9-.22,2.62,.57,.76,.83,.67,1.82,.14,2.66-2.06,3.27-4.83,5.89-7.89,8.21-.47,.36-1.17,.42-1.45,.51Z"/><path class="cls-1" d="M96.53,170.69c0,2.43-.45,4.8-1.3,7.06-.52,1.39-1.41,2.73-3.17,2.3-1.7-.41-2.13-1.99-1.92-3.45,.41-2.85,1.03-5.67,1.69-8.47,.35-1.48,1.13-2.82,2.97-2.43,1.58,.34,1.63,1.78,1.72,3.08,.04,.64,0,1.28,0,1.92Z"/><path class="cls-1" d="M39.73,131.72c-.13,.3-.23,.81-.53,1.15-2.68,3.05-6,5.24-9.7,6.82-1.19,.51-2.64,.44-3.47-.79-.93-1.39,.08-2.46,1.06-3.28,2.83-2.38,6.01-4.24,9.44-5.59,1.83-.72,3.31,.13,3.2,1.69Z"/><path class="cls-1" d="M23.78,108.13c.96,0,1.92-.06,2.87,.01,1.34,.1,2.63,.45,2.73,2.09,.08,1.29-.8,2.04-1.93,2.44-3.39,1.17-6.86,1.53-10.39,.77-1.12-.24-2.15-.83-2.12-2.22,.03-1.11,.87-1.64,1.78-2.04,2.25-1,4.65-1.1,7.05-1.05Z"/><path class="cls-1" d="M142.4,156.86c1.09,.13,1.83,.73,2.37,1.56,1.65,2.59,2.68,5.46,3.55,8.38,.4,1.34-.12,2.6-1.42,3.25-1.44,.72-2.54-.09-3.23-1.24-1.65-2.76-2.96-5.7-3.38-8.91-.2-1.51,.19-2.93,2.12-3.04Z"/><path class="cls-1" d="M172.97,40.11c1.35,.06,2.19,1.58,1.29,2.87-2.71,3.86-6.25,6.8-10.68,8.55-.77,.31-1.62,.03-2.14-.67-.41-.55-.45-1.31-.03-1.8,3.15-3.65,6.77-6.72,11.09-8.92,.13-.07,.31-.02,.47-.03Z"/><path class="cls-1" d="M113.54,17.86c-.73,2.56-.15,5.39-1.17,7.97-.48,1.22-1.14,2.45-2.75,2.1-1.45-.32-2.12-1.55-2.04-2.89,.15-2.7,.46-5.4,.84-8.09,.23-1.63,.8-3.42,2.83-3.21,2.29,.24,2.39,2.2,2.29,4.12Z"/><path class="cls-1" d="M172.48,118.83c2.78,.33,5.46,1.3,7.97,2.73,1.16,.66,2.18,1.59,1.65,3.06-.61,1.69-2.16,1.84-3.6,1.43-2.44-.7-4.85-1.54-7.21-2.48-1.29-.52-2.9-1.17-2.45-3,.43-1.76,2.08-1.68,3.64-1.74Z"/><path class="cls-1" d="M169.41,148.44c-.06,1.41-.95,1.94-2.22,1.99-2.74,.11-8.92-4.43-9.78-7.16-.54-1.71,.39-2.96,2.11-2.83,2,.16,9.19,5.69,9.77,7.52,.05,.15,.08,.31,.13,.48Z"/><path class="cls-1" d="M175.45,73.83c-1.29,.14-2.46,.15-2.93-1.18-.43-1.22,.15-2.23,1.14-2.89,2.83-1.9,5.92-3.12,9.37-3.18,1.14-.02,2.34,.23,2.74,1.48,.4,1.27-.47,2.14-1.43,2.75-2.74,1.76-5.94,2.23-8.88,3.01Z"/><path class="cls-1" d="M149.45,21.45c1.29,.2,1.95,1.09,1.57,2.35-1.28,4.23-3.82,7.71-6.96,10.73-1.1,1.06-2.56,.26-2.74-1.26-.12-1,.17-1.91,.71-2.73,1.66-2.54,3.33-5.08,5.02-7.6,.55-.82,1.25-1.45,2.41-1.5Z"/><path class="cls-1" d="M120.84,173.09c-.07,.91-.13,2.5-.35,4.07-.11,.79-.6,1.49-1.5,1.64-.92,.16-1.6-.37-1.92-1.1-1.7-3.8-1.41-7.75-.58-11.68,.17-.8,.98-1.27,1.85-1.18,.86,.09,1.4,.69,1.75,1.45,.9,1.96,.61,4.06,.75,6.8Z"/><path class="cls-1" d="M33.05,64.45c-3.02-.59-6.13-1.78-8.98-3.59-.84-.53-1.44-1.38-1.15-2.43,.37-1.3,1.55-1.62,2.69-1.47,3.42,.43,6.25,2.31,9.14,3.98,.82,.48,1.51,1.29,1.06,2.39-.45,1.08-1.48,1.05-2.76,1.12Z"/><path class="cls-1" d="M51.48,42.51c-.18,.93-.74,1.4-1.62,1.51-1.19,.15-2.22-.25-3.09-1-2.33-2.02-3.81-4.68-5.35-7.28-.43-.72-.45-1.53,.21-2.2,.64-.64,1.5-.78,2.19-.34,3.29,2.09,5.81,4.91,7.54,8.41,.13,.27,.09,.62,.12,.89Z"/><path class="cls-1" d="M78.2,24.77c-.24,1.48,.46,3.83-2.01,4.09-1.98,.22-2.42-1.77-2.87-3.32-.69-2.34-1.1-4.72-.8-7.16,.14-1.14,.42-2.32,1.88-2.42,1.11-.07,1.8,.71,2.2,1.6,.99,2.23,1.47,4.59,1.61,7.2Z"/><path class="cls-2" d="M107.18,126c-14.1,.44-29.85-12.07-32.02-25.33-.5-3.06-.84-6.07,.26-9.05,.4-1.08,1.09-2.05,2.48-1.84,1.1,.17,1.54,1.08,1.83,2.03,.19,.61,.36,1.26,.37,1.89,.1,10.91,12,21.17,21.89,22.7,11.57,1.8,21.62-3.7,25.57-15.47,.46-1.37,.79-2.8,1.43-4.08,.61-1.22,1.75-1.89,3.21-1.55,1.23,.29,1.94,1.2,2.12,2.37,.17,1.1,.18,2.24,.12,3.36-.76,14.53-12.16,24.96-27.26,24.96Z"/><path class="cls-2" d="M119.12,85.54c-.1,3.23-1.89,5.5-4.24,5.35-2.07-.13-3.62-2.21-3.61-4.86,.01-3.06,1.95-5.46,4.3-5.31,2.17,.13,3.63,2.11,3.55,4.82Z"/><path class="cls-2" d="M98.31,84.5c.09,2.8-1.14,5.28-2.84,5.91-1.17,.43-2.27,.26-3.12-.62-1.84-1.9-1.42-4.16-.69-6.33,.6-1.79,1.78-3.21,3.91-2.78,2.07,.42,2.6,2.16,2.74,3.81Z"/></svg>