<?xml version="1.0" encoding="UTF-8"?><svg id="trainer_shoe_icon" xmlns="http://www.w3.org/2000/svg" viewBox="0 0 200 200"><defs><style>.cls-1{fill:#d3d7d8;}.cls-2{fill:#1b2b3a;}</style></defs><path class="cls-1" d="M158.27,136.11c-4.75-.07-9.52-.53-14.27-.72-4.87-.2-9.76-.05-14.65,.01-10.8,.12-21.61-.22-32.4-.01s-21.99,.8-33,1.01c-1.43,.03-2.86,.06-4.29,.06-11.95,.11-23.92,.72-35.89,.72-1.59,0-3.18,.05-4.76-.1-3.92-.38-6.65-2.81-7.56-6.61-.23-.98-.58-1.98-.57-2.97,.07-7.48-1.75-14.87-.56-22.43,.67-4.23,.28-8.64,.26-12.97-.02-5.8,.78-11.5,1.83-17.18,.26-1.41,.75-2.78,1.13-4.17,1.74-6.48,7.41-7.75,12.67-5.83,2.84,1.03,5.57,2.39,8.33,3.63,9.52,4.26,18.47,3.83,26.7-3.12,2.64-2.23,5.4-4.33,8.17-6.42,5.4-4.08,10.91-4.21,16.99-1.13,17.92,9.09,34.57,20.31,51.78,30.58,3.22,1.92,6.59,3.58,9.87,5.4,1.88,1.04,3.93,.91,5.92,.81,5-.25,9.73,.84,14.4,2.5,6.79,2.41,10.72,7.28,11.77,14.23,.73,4.84,.67,9.77-.58,14.61-1.28,4.96-4.39,7.92-9.25,9.33-3.97,1.16-8.01,.8-12.04,.75Z"/><path class="cls-2" d="M181.32,108.56c-2.01-4.97-5.28-8.97-10.42-11.03-6.28-2.53-12.82-3.27-19.55-2.62-1.92,.18-3.3,1.07-4.01,2.82-.81,2-1.5,4.06-2.21,6.1-1.06,3.09-1.48,3.4-4.72,2.66-3.81-.86-7.5-2.1-11.04-3.77-21.92-10.37-43.97-20.48-65.08-32.47-.75-.43-1.54-.8-2.35-1.1-1.11-.42-2.39-.74-3.17,.4-.84,1.22,.08,2.23,.98,2.96,1.79,1.46,3.57,2.97,5.53,4.16,3.22,1.95,3.38,2.89-.36,4.83-.26,.13-.52,.24-.79,.36-14.52,6.28-29.29,7.17-44.33,2.06-1.77-.6-3.45-1.47-5.18-2.18-.95-.39-2.02-.78-2.75,.27-.72,1.04-.01,1.95,.69,2.68,2.46,2.59,5.66,3.97,8.91,5.17,11,4.08,22.25,4.66,33.65,2.04,5.92-1.36,11.84-2.96,16.65-6.9,2.16-1.77,3.86-1.79,6.17-.43,14.95,8.78,30.6,16.23,46.23,23.71,4.99,2.39,10.14,4.15,15.56,5.16,4.46,.83,6.47,2.97,6.91,7.38,.08,.81-.11,1.46-.97,1.64-.84,.18-1.71,.32-2.57,.35-13.26,.47-26.52,1.07-39.79,1.29-5.18,.09-10.38-.21-15.56,.09-10.53,.61-21.04-.34-31.57-.14-13.57,.26-27.11,.89-40.68,1.07-1.64,.02-5.42-.65-5.1,2.02,.14,1.16,.29,2.32,.46,3.48,.15,1.03,.32,2.08,.84,2.97,.88,1.52,2.75,2.58,4.35,3.18,3.22,1.22,8.71,.99,12.15,.95,5.73-.06,11.46-.13,17.18-.19,22.12-.24,44.26-.6,66.39-.88,18.81-.24,37.62-.42,56.42-.42,1.52-.02,3.07-.04,4.51-.55,3.67-1.32,9.02-8.37,9.74-12.2,.97-5.1,.81-10.12-1.13-14.91Z"/><path class="cls-2" d="M104,80.1c-1.61,.07-2.75-1.28-2.1-2.89,1.35-3.36,3.96-5.63,7.22-7.03,1.5-.64,2.86,.74,2.64,2.36-.3,2.31-5.59,7.46-7.76,7.56Z"/><path class="cls-2" d="M89.36,72.39c-1.46,.07-2.59-1.17-1.97-2.57,1.55-3.53,4.25-6.14,7.62-7.92,1.16-.61,2.32,.1,2.45,1.57,.2,2.2-5.86,8.81-8.1,8.92Z"/><path class="cls-2" d="M125.76,80.65c-.16,2.22-4.39,6.6-6.65,6.9-1.82,.24-3.09-1.16-2.66-2.92,.49-2,4.9-6.02,6.83-6.22,1.51-.16,2.59,.81,2.48,2.24Z"/><path class="cls-2" d="M134.04,96.43c-1.48-.01-2.56-1.54-1.94-3.1,1.05-2.62,3.02-4.55,5.52-5.77,1.42-.7,2.55,.06,2.86,1.61,.43,2.15-4.18,7.29-6.44,7.27Z"/></svg>