<?xml version="1.0" encoding="UTF-8"?><svg id="tree_icon" xmlns="http://www.w3.org/2000/svg" viewBox="0 0 200 200"><defs><style>.cls-1{fill:#d3d7d8;}.cls-2{fill:#1b2b3a;}</style></defs><path class="cls-1" d="M37.12,91.02c-2.27-3.15-4.43-5.63-5.56-8.77-4.18-11.61-2.66-30.76,11.66-41.02,6.48-4.64,13.71-6.39,21.61-4.15,.72,.2,1.41,.47,2.13,.68,.56,.16,1.13,.28,2.1,.51,.31-2.3,.63-4.43,.88-6.57,1.64-14.26,13.09-24.91,27.47-26.04,11.83-.93,22.34,2.21,32.02,8.89,8.68,6,12.7,14.32,12.89,24.67,.07,4.03,.18,4.14,4.31,3.84,9.15-.66,17.46,1.89,24.69,7.37,6.51,4.94,8.9,12.44,11.21,19.9,2.58,8.34-.33,15.52-4.58,22.44-1.85,3.02-1.83,2.96,.31,5.6,4.51,5.53,7.83,11.63,8.39,18.9,.42,5.4-.48,10.7-1.91,15.87-1.47,5.32-3.7,10.38-6.3,15.26-4.06,7.59-10.79,12.15-18.96,12.53-9.79,.46-19.31-1.8-26.1-10.12-2.3-2.82-2.35-2.75-4.92-.08-3.82,3.97-7.52,7.97-12.79,10.25-7.97,3.45-16.23,3.82-24.56,2.63-6.99-1-12.33-5.13-16.29-10.84-1.4-2.02-2.54-2.49-4.7-1.32-5.87,3.15-12.31,4.63-18.85,5.21-11.85,1.06-22.4-2.53-31.4-10.25-4.09-3.51-6.48-8.25-6.95-13.63-.53-6.09-.49-12.2,1.04-18.21,2.32-9.1,8.05-15.45,16.04-19.95,2.19-1.23,4.49-2.27,7.12-3.59Z"/><path class="cls-2" d="M98.43,159.83c-.1,9.83-.02,19.66,.09,29.5,.03,2.71,.29,5.43,1.3,7.96,1.51,0,3.01-.02,4.52-.04,1.38-.02,2.76-.04,4.15-.06,.23-1.74,.21-3.53,.2-5.3-.03-16.24-.06-32.48-.15-48.72-.02-2.76,.54-5.25,1.9-7.68,2.93-5.23,4.73-10.92,6.5-16.62,.45-1.44,.76-2.89,.65-4.39-.2-2.52-1.96-4.04-4.47-3.92-2.09,.09-3.19,1.42-3.91,3.17-1.18,2.85-2.31,5.71-3.46,8.57-.67-1.51-.68-2.93-.84-4.34-.67-5.61-.37-11.33-1.58-16.87-.63-2.88-2.44-4.19-4.6-3.9-2.04,.28-3.04,1.62-3.08,4.68-.07,5.36-.04,10.73,.56,16.07,.4,3.55,.22,7.07-.6,10.71-.41-.78-.84-1.55-1.23-2.34-1.45-2.94-2.78-5.94-4.38-8.8-1.33-2.38-3.82-3.22-5.63-2.11-2.11,1.3-1.73,3.17-1.05,5.13,3.53,10.3,7.52,20.42,12.75,29.98,1.64,3,2.41,5.92,2.38,9.31Z"/></svg>