<?xml version="1.0" encoding="UTF-8"?><svg id="wall_clock_icon" xmlns="http://www.w3.org/2000/svg" viewBox="0 0 200 200"><defs><style>.cls-1{fill:#d3d7d8;}.cls-2{fill:#1b2b3a;}</style></defs><path class="cls-1" d="M99.1,7.79c48.69-.76,90.56,39.59,90.48,90.04-.08,50.76-41.25,91.3-90.84,91.17-53.44-.14-90.69-43.28-90.58-90.63C8.29,45.86,50.12,7.94,99.1,7.79Z"/><path class="cls-2" d="M76.2,130.23c-.04-2.57,.57-4.04,2.54-4.37,2.11-.35,2.87-1.94,3.62-3.57,2.52-5.55,5.13-11.07,7.18-16.83,.61-1.7,.51-3-.34-4.61-2.4-4.54-1.88-7.62,2.15-11.04,1.93-1.63,2.63-3.34,2.62-5.75-.05-9.68,.01-19.35,.05-29.03,0-2.44-.02-4.71-2.75-6.02-1.49-.71-1.69-2.34-1.23-3.93,.79-2.74,1.93-5.34,3.67-7.6,1.77-2.3,4.3-2.36,5.96,.03,1.51,2.18,2.64,4.65,3.75,7.08,.79,1.74,.13,3.33-1.52,4.16-1.96,.99-2.22,2.54-2.17,4.44,.31,11,.59,22.01,.86,33.01,.04,1.53,.34,2.94,1.39,4.14,.49,.56,.91,1.19,1.27,1.83,2.82,4.94,1.53,9.48-3.71,11.74-2.42,1.05-3.79,2.59-4.81,4.87-2.31,5.16-4.73,10.27-7.18,15.37-.87,1.82-1.69,3.51-.09,5.36,.5,.57,.51,1.37,.27,2.12-.53,1.65-5.51,5.55-7.22,5.61-1.55,.06-2.59-.78-3.04-2.16-.59-1.83-.97-3.73-1.26-4.9Z"/></svg>