<?xml version="1.0" encoding="UTF-8"?><svg id="water_glass_icon" xmlns="http://www.w3.org/2000/svg" viewBox="0 0 200 200"><defs><style>.cls-1{fill:#d3d7d8;}.cls-2{fill:#1b2b3a;}</style></defs><path class="cls-1" d="M98.62,172.94c-11.44,.41-23.41-.38-35.16-3.34-4.64-1.17-9.22-2.53-13.66-4.33-3.8-1.55-6.24-4.18-7.17-8.3-2.36-10.53-4.79-21.04-5.73-31.83-.69-7.89-1.24-15.77-1.67-23.68-.29-5.18-.58-10.35-.72-15.54-.11-4.08,1.64-6.62,5.25-8.4,8.3-4.1,17.06-6.51,26.17-7.94,9.33-1.47,18.78-2.23,28.14-2.12,7.59,.09,15.27-.03,22.9,.93,5.68,.72,11.42,1.03,17.08,1.96,4.67,.76,8.93,2.5,12.73,5.34,3.96,2.96,5.98,6.72,6.09,11.87,.23,10.04-1.23,19.89-2.65,29.76-1.83,12.72-3.98,25.36-7.09,37.85-1.66,6.68-5.14,11.22-11.61,13.68-6.06,2.31-12.25,3.87-18.73,4.07-4.51,.14-9.02,.03-14.16,.03Z"/><path class="cls-2" d="M24.63,64.41c0-6.97,.13-13.95-.04-20.92-.15-6.28,2.4-10.58,8-13.54,10.04-5.31,20.69-8.57,31.83-10.33,11.63-1.83,23.31-3.01,35.11-2.57,18.68,.69,36.99,3.42,54.66,9.76,3.87,1.39,7.54,3.24,11.11,5.27,4.7,2.69,6.9,6.6,6.42,12.22-1.56,18.12-3.77,36.15-6.83,54.07-2.1,12.26-3.65,24.61-6.2,36.79-1.51,7.22-2.9,14.47-4.34,21.71-.84,4.2-2.55,8.09-4.51,11.85-1.36,2.61-3.74,4.32-6.21,5.82-3.9,2.37-8.13,3.81-12.59,4.77-24.19,5.21-48.29,5.03-72.31-1.01-5.45-1.37-10.72-3.28-15.47-6.4-4.1-2.69-7.02-6.19-9-10.83-4.1-9.61-5.19-19.81-6.41-29.97-1.48-12.35-1.73-24.8-2.67-37.2-.75-9.84-.72-19.67-.52-29.51Zm73.06,112.06c11.09,.43,22.73-1.01,34.29-3.39,7.24-1.49,12.07-5.46,14.11-12.65,.71-2.5,1.63-4.96,2.07-7.51,.83-4.86,2.04-9.63,3.08-14.44,1.82-8.42,3.41-16.88,4.72-25.4,2.3-15,4.45-30.02,6.27-45.08,.57-4.75,1.24-9.49,1.72-14.25,.29-2.92-.17-3.25-2.88-2.42-2.75,.84-5.44,1.84-8.29,2.32-10.93,1.82-21.96,2.91-33.02,3.15-16.4,.35-32.82,.33-49.15-1.75-10.32-1.31-20.54-3.09-30.37-6.67-1.8-.66-3.6-1.31-5.42-1.88-2.91-.92-3.19-.69-3.33,2.5-.04,.82,0,1.64-.02,2.46-.09,6.7,.38,13.4,.43,20.09,.13,16.69,.58,33.35,1.92,49.99,.85,10.65,2.47,21.14,4.82,31.58,2.17,9.64,7.78,15.34,17.08,17.82,.4,.11,.79,.23,1.18,.36,13.05,4.12,26.46,5.48,40.81,5.18Zm15.8-125.69c8.8,.26,21.96-1.47,35.15-2.71,4.35-.41,8.58-1.72,12.57-3.61,1.81-.86,3.3-2.17,3.3-4.32,0-1.94-1.68-2.71-3.16-3.41-2.97-1.4-5.9-2.93-8.98-4.03-17.3-6.14-35.26-8.66-53.5-9.48-9.59-.43-19.12,.46-28.63,1.69-10.62,1.37-21,3.74-30.87,8.01-1.25,.54-2.52,1.09-3.68,1.8-2.56,1.58-2.54,3.5,.02,4.93,.95,.53,1.99,.92,2.99,1.34,7.62,3.19,15.62,5.02,23.72,6.37,15.41,2.58,30.97,3.22,51.07,3.4Z"/><path class="cls-2" d="M96.89,101.89c-15.28-.58-31.12-1.13-46.18-7.04-4.24-1.66-8.27-3.61-11.58-6.8-1.22-1.18-3.2-2.53-1.76-4.41,1.48-1.92,3.3-.3,4.68,.65,9.84,6.73,21.18,8.53,32.62,9.78,6.23,.68,12.51,.96,18.81,.98,16.71,.06,32.88-2.75,48.58-8.4,.26-.09,.51-.21,.76-.3,3.08-1.08,4.67-.81,5.36,.88,.65,1.59-.27,3.41-3,4.71-7.17,3.42-14.68,5.9-22.48,7.5-8.33,1.71-16.77,2.21-25.81,2.43Z"/></svg>