<?xml version="1.0" encoding="UTF-8"?><svg id="yoga_pose_icon" xmlns="http://www.w3.org/2000/svg" viewBox="0 0 200 200"><defs><style>.cls-1{fill:#d3d7d8;}</style></defs><path class="cls-1" d="M99.46,199.89c-10.67,.03-13.97-2.85-14.81-12.42-.84-9.66-1.88-19.3-2.08-29.03-.18-8.32-1.57-16.59-1.85-24.93-.03-.89-.32-1.8-.63-2.64-.62-1.7-1.79-1.97-3.21-.95-2.59,1.86-5.16,3.73-7.69,5.68-2.07,1.59-4.37,2.73-6.73,3.78-11.18,4.98-21.84-.23-26.7-9.42-4.88-9.24-7.88-19.04-10.34-29.08-.76-3.09-1.49-6.2-2.4-9.25-.91-3.07-1.69-3.6-4.85-3.78-2.12-.12-4.28,.06-6.36-.28-5.89-.96-9.99-8.47-7.85-14.06,.77-2.02,2.38-3.07,4.22-3.9,5.05-2.29,10.4-3.28,15.9-3.55,3.03-.15,6.08-.21,9.1-.05,3.31,.18,5.88-.94,7.97-3.49,5.3-6.44,10.67-12.83,16.01-19.23,.87-1.05,1.76-2.08,2.69-3.08,2.35-2.52,5.16-3.2,8.64-2.92,9.04,.75,17.44,3.92,26.02,6.41,2.19,.64,4.35,1.37,6.63,1.56,1.99,.17,2.59-.6,1.56-2.37-1.88-3.25-2.33-6.8-3.02-10.39-1.77-9.24,1.57-16.6,8.41-22.25,13.05-10.78,27.16-6.65,34.09,3.25,8.21,11.73,6.75,25.42-4.1,34.86-1.2,1.05-3.63,1.6-3.22,3.43,.47,2.14,3.03,1.58,4.68,1.89,7.62,1.4,15.35,2.11,23.06,2.16,9.77,.06,19.32,1.74,28.94,2.97,3.53,.45,5.13,2.73,5.04,6.41-.08,3.51-1.32,4.79-5.47,5.26-8.58,.97-17.18,1.87-25.77,2.74-7.24,.73-14.44,1.84-21.73,1.97-4.48,.08-7.7,2.07-9.81,6.16-3.92,7.57-9.16,14.31-13.96,21.31-1.89,2.75-3.86,5.46-6.35,7.72-2.38,2.17-3.56,4.8-3.47,8.07,.25,8.49-.38,16.98,.68,25.47,.48,3.89,.34,7.89,.19,11.83-.26,6.85,.63,13.63,1.02,20.44,.27,4.7,2.65,7.37,7.37,7.42,5.3,.05,9.38,5.11,8.87,10.34-.26,2.75-1.19,3.86-3.91,4.09-8.61,.7-17.23,1.3-24.8,1.86ZM47.01,83.3c.5,2.99,.88,6.01,1.53,8.97,.53,2.44,.08,5.76,2.87,6.78,3,1.1,4.38-2.12,6.15-3.78,4.87-4.57,9.33-9.54,14.52-13.8,2.92-2.4,5.54-5.2,8.07-8.02,2.41-2.68,2.18-4.86-.72-6.88-3.11-2.17-6.4-4.08-9.65-6.03-1.91-1.15-3.78-1.04-5.4,.61-5.09,5.21-10.66,9.95-15.05,15.83-1.42,1.9-2.35,3.89-2.32,6.32Z"/></svg>