<?xml version="1.0" encoding="UTF-8"?><svg id="yoga_mat_icon" xmlns="http://www.w3.org/2000/svg" viewBox="0 0 200 200"><defs><style>.cls-1{fill:#d3d7d8;}.cls-2{fill:#1b2b3a;}</style></defs><path class="cls-1" d="M56.03,127.11c0-7.75,.14-15.51-.03-23.26-.39-17.48,.78-34.93,1.01-52.4,.09-6.59,.64-13.21,.76-19.83,.01-.84,.14-1.69,.34-2.51,.84-3.4,2.21-4.06,5.55-2.74,2.23,.88,4.41,1.89,6.7,2.58,2.46,.74,3.16,.24,3.29-2.24,.1-1.96-.02-3.95-.25-5.9-.48-3.88,.68-6.77,4.17-8.9,8.62-5.27,17.91-8.1,28-8.47,9.73-.36,19.1,1.05,27.99,5.19,4.85,2.26,8.56,5.4,9,11.2,.11,1.4,.48,2.79,.52,4.19,1.12,35.79,1.24,71.6,.66,107.39-.2,12.76-1.07,25.6-2.94,38.29-.47,3.2-.84,6.43-1.02,9.66-.26,4.68-2.63,7.98-6.47,10.26-5.67,3.37-11.99,4.79-18.43,5.84-9.67,1.58-19.42,1.24-29.11,.75-8.39-.42-16.23-3.49-23.64-7.41-2.87-1.52-4.68-3.94-5.42-7.19-.54-2.36-.7-4.73-.7-7.13,0-15.79,0-31.58,0-47.37h.03Z"/><path class="cls-2" d="M124.72,24.74c3.51-2.05,6.42-4.32,7.47-8.35,.32-1.22,.8-2.68,2.44-2.36,1.68,.32,1.99,1.85,2.01,3.31,.02,2.98-1.26,5.46-3.21,7.61-2.19,2.41-4.67,4.56-7.52,6.11-8.74,4.72-18.01,7.25-28.05,6.15-5.6-.61-11.28,.11-16.86-1.09-2.77-.6-5.49-1.27-8.06-2.46-1.33-.61-2.63-1.49-2.08-3.2,.54-1.7,2.18-1.82,3.54-1.4,7.98,2.41,16.25,1.34,24.36,2.15,5.25,.52,10.4-.27,15.42-1.9,3.74-1.21,3.95-1.64,2.99-6.02-3.39,.83-6.76,1.8-10.25,2.19-10.02,1.12-19.96,1.28-29.62-2.29-1.59-.59-3.22-1.08-4.49-2.28-.97-.92-1.72-1.98-.89-3.34,.7-1.15,1.82-1.17,2.99-.8,.54,.17,1.06,.37,1.6,.54,3.25,1.04,3.32,1.05,4.23-2.5,.64-2.51,2.19-4,4.68-4.21,9.55-.79,19.1-1.75,28.62,.35,7.48,1.65,9.33,3.78,9.87,11.43,.05,.69-.03,1.41,.8,2.37Zm-8.43-7.46c-.74-1.2-1.56-1.37-2.39-1.54-8.47-1.75-17.03-.9-25.56-.86-1.25,0-2.23,.55-2.19,1.98,.04,1.45,.37,2.85,1.99,3.34,.79,.24,1.65,.3,2.49,.34,5.19,.28,10.39,.22,15.53-.32,3.4-.36,6.97-.62,10.12-2.94Z"/></svg>