<?xml version="1.0" encoding="UTF-8"?><svg id="Layer_71" xmlns="http://www.w3.org/2000/svg" width="520" height="520" viewBox="0 0 520 520"><defs><style>.cls-1,.cls-2,.cls-3,.cls-4,.cls-5,.cls-6{fill:#231f20;}.cls-2{opacity:.2;}.cls-3{opacity:.25;}.cls-4{opacity:.4;}.cls-5{opacity:.35;}.cls-6{opacity:.65;}</style></defs><path class="cls-4" d="m273.18,199.84s-.31,4.19,3.53,4.75c3.21.47,14.24-3.65,14.24-3.65,0,0-21.39,11.17-24.59,10.38-3.19-.79,6.82-11.48,6.82-11.48Z"/><path class="cls-4" d="m293.34,201.03s16.52,18.56,21,10.57l-4.56-10.57s-6.92,7.66-16.44,0Z"/><path class="cls-6" d="m322.26,462.26c0,.12.71,12.75,2.28,12.98s1.11-5.7,1.11-5.7c0,0,23.72,7.25,25.22,5.27s-6.86-7.34-7.34-6.96-14.96-4.8-14.87-6.54-6.4.96-6.4.96Z"/><path class="cls-6" d="m266.16,462.26c-.18.59.1,11.69-.84,12.92s-3.91,1.73-3.52-3.07-2.99-1.64-8.4-.3c-5.41,1.34-18.7,4.59-16.85,1.2,1.85-3.39,20.02-10.64,20.02-10.64l9.59-.12Z"/><path class="cls-1" d="m262.35,465.12c-.54-.07-1.08-.14-1.61-.22-.2-.03-.39,0-.58-.05-.68-.15-1.37-.31-2.05-.46-.3-.08-.6-.11-.9-.13-.39,0-.77-.08-1.13-.52-.11-.12-.1-.09.01-.22.05-.06.13-.18.23-.34.1-.18.21-.34.32-.4.1-.06.2-.16.3-.18l.29-.05c.2-.03.39-.06.58-.07.39-.05.77.05,1.16.17.46.16.95.05,1.43.07.53.02,1.05.11,1.58.16.32.03.65.07.97.09.49.03.99.07,1.47.03.38-.02.74-.16,1.12-.24.08-.02.16-.05.24-.06.31-.03.42.15.51.62l.06.32c.05.36-.06.68-.28.87-.66.42-1.37.71-2.1.71-.54.02-1.08-.02-1.63-.04v-.06Z"/><path class="cls-1" d="m327.15,463.56c-.43.01-.86.05-1.3.04-.16,0-.31.05-.47.05-.56-.02-1.13-.05-1.69-.05-.25,0-.48.08-.73.1-.31.03-.6.18-.96-.04-.11-.06-.13-.28-.1-.57.03-.29.11-.73.28-.79.58-.36,1.22-.4,1.89-.3.4.06.78-.1,1.17-.14.43-.06.87-.06,1.3-.08.27-.01.54-.02.8-.04.4-.03.81-.06,1.2-.11.31-.05.59-.19.89-.27.07-.02.13-.05.19-.06.25-.04.35.05.46.4l.08.23c.07.26,0,.51-.16.65-.49.4-1.02.69-1.59.85-.42.09-.86.13-1.28.19v-.05Z"/><path class="cls-5" d="m331.12,105.91c-.43-.57-.93-5.35-2.74-7.92-1.8-2.57-12.09-11.65-13.36-13.91s-2.6-4.64-1.38-5.67,7.78,6.32,9.36,6.32,3.51-3.74,2.84-3.97-.26-2.2-.08-2.6-2.6-.35-1.88-2.19,7.23-6.41,7.23-6.41c0,0-3.73-3.91-5.35-5.78-1.62-1.87-4.85-3.72-3.26-4.47s3.99-.7,5.87.91c1.88,1.61,6,6.05,6,8.12s6,6.19,6.09,9.66c.1,3.47,4.44,2.48,1.1,6.3-3.34,3.82-7.23,6.4-6.25,7.99.98,1.59,4.63,10.92,4.63,10.92l-8.84,2.69Z"/><path class="cls-5" d="m244.37,90.91s4.35-7.89,4.07-10.55-8.64-28.1-8.73-29.72c-.09-1.62,2.85-.07,4.66,3.31,1.81,3.37,5.07,9.85,5.07,9.85,0,0-2.79-14.55-1.29-17.28,1.49-2.73,2.52.5,2.52.5l2.88,13.51s6.22-13.68,7.06-12.78-4.36,16.74-4.36,16.74l5.4-2.91-.05,5.33v2.2s-1.99,7.32-1.73,10.26c.26,2.94-3.68,4.43-4.6,8.34s-3.16,7.42-3.16,7.42l-7.75-4.22Z"/><path class="cls-3" d="m325.85,144.53c-.74-.36-3.45-1.21-5.33-.82-1.22.26-1.45-1.42-1.25-2.66l1-3.95s-7.3-2.48-9.45-9.93c-2.15-7.44-11.19-10.54-15.1-7.58-3.91,2.97-9.21-.64-12.08.98-2.86,1.61-7.68,4.78-7.68,4.78,0,0,8.56,4.55,8.92,8.36.35,3.81.18,6.68-3.71,9.54-3.89,2.87-8.94,7.12-8.94,7.12,0,0-6.89-1.13-6.79-6.08s-.82-6.67-.82-6.67c-.14.75-3.38,7.86-3.88,15.1-.49,7.25,4.61,21.76,8.98,25.16,4.36,3.4,11.42,7.14,19.47,6.83,8.04-.32,17.71-5.29,20.47-11.19,2.76-5.9,7.76-14.96,7.76-14.96,0,0,9.23-1.35,10.02-4.36.79-3.01,2-7.93-1.59-9.68Zm-19.91,3.67c-2.53,3.6-7.33,5.21-12.11,6-4.77.79-6.86-2.75-7.94-5.52-1.08-2.76.31-8.06,2.16-11.05,1.85-3,4.02-2.88,4.02-2.88,0,0,.63.04,3.26,0,9.71-.14,14.75,5.82,14.75,5.82,0,0-1.61,4.03-4.14,7.63Z"/><path class="cls-1" d="m320.05,151.45c-.07.61-.18,1.21-.27,1.81-.03.22,0,.44-.05.66-.16.76-.32,1.54-.48,2.3-.07.34-.07.68-.09,1.02-.05.43.05.89-.31,1.29-.14.12-.42.07-.8-.09-.41-.16-.84-.42-.85-.66-.11-.88.08-1.73.38-2.59.19-.51.12-1.07.18-1.6.06-.59.13-1.18.19-1.77.04-.36.08-.73.11-1.09.04-.55.09-1.11.05-1.66-.05-.43-.17-.84-.22-1.26,0-.09-.03-.18-.02-.28.02-.35.15-.47.55-.56.09-.02.18-.05.27-.07.3-.05.58.08.75.33.26.37.45.76.58,1.16.11.4.11.81.13,1.22.02.61-.03,1.23-.06,1.84h-.05Z"/><path class="cls-1" d="m324.45,155.45c.85-.57,1.59-1.33,2.08-2.27.15-.35.27-.71.37-1.08.44-1.28.42-2.76-.15-4.09-.13-.29-.29-.57-.46-.85-.21-.25-.39-.52-.63-.74-.63-.53-1.19-1.18-1.9-1.77-.21-.2-.13-.3.17-.38.29-.05.9-.22,1.49-.04,2.08.62,3.61,2.77,3.78,4.97.12,1.3.2,2.66-.18,3.94-.42,1.39-1.21,2.64-2.23,3.63-.63.63-1.3,1.09-2.02,1.54-1.09.67-2.34,1.1-3.59,1.37-.97.2-1.95.4-2.95.42-.22,0-.44,0-.65-.05-.2-.04-.36-.09-.49-.15-.13-.07-.22-.19-.29-.28-.14-.2-.2-.41-.21-.68,0-.12-.03-.24-.02-.35.02-.35.41-.65.96-.9l.58-.13c.19-.05.37-.1.55-.11l1.05-.13c.68-.09,1.34-.22,1.97-.43.94-.31,1.87-.8,2.73-1.49l.04.05Z"/><path class="cls-1" d="m302.97,181.23c-4.94,3.54-11.14,5.33-17.17,4.94-2.2-.14-4.4-.48-6.5-1.17-3.7-1.21-7.1-3.28-9.86-5.96-2.79-2.66-4.97-5.88-6.53-9.36-1.41-3.07-2.33-6.37-2.79-9.68-.28-2.13-.46-4.29-.27-6.44.12-1.07.27-2.14.5-3.18.08-.53.26-1.04.42-1.55.15-.51.33-1.02.52-1.51.48-1.24.49-1.04.48.09-.02.56.03,1.37.12,2.33.07.95.09,2.04.12,3.21-.01.52.04,1.03.05,1.55-.02.51-.01,1.02.01,1.54.02,1.02.11,2.05.23,3.06.25,2.03.68,4.04,1.3,5.99,1.21,3.9,3.12,7.62,5.79,10.78,1.6,1.88,3.56,3.53,5.74,4.82,2.19,1.28,4.6,2.17,7.07,2.71.68.16,1.37.24,2.05.36.69.05,1.38.17,2.08.16.7.03,1.4.05,2.09-.02.7-.05,1.39-.08,2.09-.14,2.76-.41,5.45-1.23,7.96-2.5,3.06-1.61,5.77-3.86,8.09-6.47,3.5-3.98,6.14-8.74,8-13.71l.55-1.44.44-1.48c.28-.98.58-1.96.84-2.95l.65-2.99.32-1.49.25-1.51c.14-.89.28-1.76.42-2.65.44-3.33.86-4.35,1.55-5.01.15-.15.3-.35.42-.44.38-.29.71,1.15.59,3.68-.1,1.87-.45,3.74-.73,5.64-.12.95-.36,1.89-.57,2.84-.22.95-.42,1.9-.66,2.86-.28.94-.57,1.89-.85,2.83l-.44,1.42-.53,1.4c-.37.93-.7,1.87-1.1,2.79l-1.3,2.73c-2.64,5.36-6.47,10.31-11.43,13.96l-.04-.04Z"/><path class="cls-1" d="m320.76,136.09s-2.71,7.79.86,7.23,6.06-5.46,6.06-8.01-1.19-3.93-1.19-3.93c0,0-4.51,6.24-5.73,4.72Z"/><path class="cls-1" d="m326.95,140.09c-.68,1.23-1.56,2.31-2.72,3.17-.43.31-.89.64-1.45.81-.48.15-1.04.21-1.58.11-.53-.1-1.02-.31-1.44-.65-.42-.34-.76-.86-.85-1.41-.09-.54-.01-.98.04-1.37.1-.71.2-1.42.36-2.11.19-.89.4-1.8,1.02-2.53.18-.23.37-.1.55.22.15.31.43.85.37,1.33-.21.82-.32,1.64-.47,2.46-.07.4-.15.85-.2,1.22-.04.37-.05.49.02.68.09.23.44.45.79.45.33.02.7-.12,1.06-.33.8-.47,1.55-1.37,2.07-2.32.32-.59.6-1.23.8-1.89.3-1.01.47-2.08.42-3.15-.02-.84-.36-1.63-.49-2.44-.03-.18-.09-.35-.11-.53.01-.7.15-.95.66-1.2.11-.06.2-.12.28-.16.25-.12.8.07,1.11.56,1.06,1.44,1.14,3.27.98,5.1-.14,1.36-.53,2.74-1.15,4l-.05-.02Z"/><path class="cls-5" d="m275.95,125.36s6.41,5.01,8.06,7.39c1.65,2.38-14.51-2.6-15.96-1.38-1.45,1.22,1-2.58,4.18-4.18,3.18-1.6,3.72-1.83,3.72-1.83Z"/><path class="cls-1" d="m261.83,278.62s-18.73,65.3-19.54,68.48-26.62,98.63-14.46,108.09c12.17,9.45,53.74,6.35,57.05,1.31,3.31-5.04,1.62-79.2,1.62-79.2,0,0,7.33,49.31,8.42,54.71s5.15,27.49,12.4,28.5,60.14,2.74,52.31-24.65l-23.08-76.25s-15.46-55.51-14.27-70.95c0,0-33.51-10.04-47.74-10.04-10.47,0-12.7,0-12.7,0Z"/><path class="cls-1" d="m281.96,279.73c3.51.32,7.02.68,10.5,1.27,1.27.18,2.55.37,3.81.61,4.46.84,8.87,1.88,13.21,3.17,1.94.53,3.86,1.16,5.76,1.73,1.2.44,2.41.88,3.61,1.32,1.19.49,2.36,1,3.53,1.53.72.33.57.44-.13.37-.7-.07-1.94-.27-3.33-.72l-3.73-1.09-3.71-1.15c-2.48-.75-4.97-1.47-7.5-2.12-3.02-.82-6.24-1.33-9.39-1.85-3.47-.55-6.96-1.02-10.46-1.36-2.16-.22-4.32-.38-6.48-.51-1.64-.1-3.28-.14-4.93-.21-1.64-.02-3.28-.06-4.91-.04-1.27.02-2.52.07-3.77.12l-3.74.23c-.55.04-1.09.08-1.64.12-2.06.14-2.72.04-3.19-.32-.11-.08-.24-.15-.31-.22-.21-.21.61-.58,2.12-.76,4.48-.51,9.24-.7,14.02-.64,3.55.02,7.11.21,10.66.46v.04Z"/><path class="cls-1" d="m257.33,292.9s-11.39-6.63-10.69-9.3c.7-2.67,15.18-4.97,15.18-4.97l-4.5,14.28Z"/><path class="cls-1" d="m335.65,104.61c-.62.23-1.23.48-1.84.75-.22.1-.42.25-.64.35-.79.36-1.62.66-2.42,1.02-.35.16-.69.36-1.02.56-.44.23-.88.47-1.4.56-.16.03-.24-.17-.24-.44,0-.27.06-.65.26-.86l.55-.53c.19-.16.41-.28.62-.41.43-.26.88-.49,1.36-.68.57-.23,1.08-.61,1.64-.91.61-.32,1.24-.61,1.88-.9.4-.17.79-.34,1.18-.51.6-.26,1.22-.46,1.82-.73.47-.2.9-.49,1.4-.65.11-.04.21-.1.32-.12.22-.03.36-.02.48.06.12.1.2.24.27.43.03.09.07.17.1.26.04.14.03.28-.02.43-.05.15-.12.33-.24.41-.34.29-.7.52-1.06.74-.38.17-.77.33-1.16.48-.59.24-1.2.46-1.81.73l-.02-.04Z"/><path class="cls-1" d="m274.95,135.79v-2.07c0-.32-.14-.66-.37-.88s-.57-.38-.88-.37-.66.12-.88.37-.37.55-.37.88v2.07c0,.32.14.66.37.88s.57.38.88.37.66-.12.88-.37.37-.55.37-.88h0Z"/><path class="cls-1" d="m296.13,139.5c.26-1.06.52-2.13.79-3.19.08-.32.04-.68-.13-.96-.15-.26-.45-.51-.75-.57-.65-.15-1.37.19-1.54.87-.26,1.06-.52,2.13-.79,3.19-.08.32-.04.68.13.96.15.26.45.51.75.57.65.15,1.37-.19,1.54-.87h0Z"/><path class="cls-1" d="m334.05,127.61c1.03-.31,2.07-.57,3.09-.82.37-.09.73-.24,1.11-.32,1.33-.27,2.63-.53,3.97-.74.59-.1,1.18-.25,1.76-.38.74-.22,1.52-.31,2.32-.18.25.04.24.31.09.64-.16.32-.45.77-.84.96-.34.18-.7.27-1.06.36-.36.09-.72.18-1.09.28-.73.17-1.47.36-2.26.42-.94.09-1.84.43-2.76.67-1,.25-2,.5-2.99.8-.6.18-1.21.37-1.79.6-.89.34-1.78.7-2.58,1.2-.63.36-1.17.84-1.71,1.31-.12.11-.24.19-.38.27-.51.3-.74.32-1.07.15-.07-.04-.15-.07-.22-.11-.21-.14-.17-.47.07-.92.19-.32.36-.67.61-.94.25-.27.52-.53.8-.78.56-.49,1.18-.93,1.86-1.25.99-.51,2.02-.9,3.05-1.25l.02.05Z"/><path class="cls-1" d="m248.48,117.56c-.8-.4-1.58-.81-2.38-1.19-.29-.13-.6-.21-.89-.35-1.03-.46-2.09-.87-3.19-1.16-.49-.13-.98-.26-1.47-.32-.64-.1-1.28-.15-1.92-.3-.2-.05-.18-.19,0-.35.17-.16.5-.38.9-.44.69-.08,1.4-.14,2.1-.1l.53.03c.17.03.34.08.51.12.34.09.68.18,1,.32.78.3,1.64.45,2.43.74.88.31,1.73.67,2.56,1.07l1.52.74c.77.36,1.52.75,2.3,1.06.61.23,1.24.35,1.86.5.14.03.27.07.4.12.12.05.22.1.29.15.07.06.12.16.15.23.07.16.09.31.09.49,0,.08,0,.16,0,.24-.02.22-.31.39-.78.54-.64.03-1.24-.11-1.83-.3-.59-.18-1.16-.41-1.73-.66-.84-.36-1.65-.77-2.47-1.14l.02-.04Z"/><path class="cls-1" d="m247.44,91.17c.53.3,1.07.59,1.6.89.19.11.4.18.59.3.66.43,1.3.87,1.96,1.27.29.18.61.3.91.45.39.19.79.36,1.12.68.1.1,0,.31-.22.5-.21.19-.53.39-.78.35-.93-.1-1.7-.54-2.45-1.04-.44-.32-.99-.45-1.48-.68-.55-.24-1.06-.54-1.6-.8-.33-.17-.65-.33-.99-.48-.51-.23-1.01-.47-1.54-.63-.41-.13-.86-.1-1.27-.19-.09-.02-.18-.03-.27-.06-.33-.12-.39-.28-.33-.73.01-.1.02-.21.04-.3.06-.33.28-.57.58-.63.89-.25,1.67.05,2.45.32.58.21,1.14.48,1.69.74l-.02.04Z"/><path class="cls-1" d="m245.85,219c1.21,1.51,2.4,3.03,3.54,4.61.42.57.87,1.12,1.27,1.71,1.38,2.09,2.67,4.27,3.65,6.59.43,1.03.91,2.05,1.23,3.11.44,1.35.76,2.75.87,4.17.04.44-.09.4-.33.07-.23-.33-.62-.93-.94-1.65-1.2-2.49-2.39-4.97-3.62-7.51-.73-1.52-1.8-2.93-2.81-4.34-1.11-1.55-2.28-3.07-3.49-4.56l-2.26-2.75c-1.15-1.39-2.31-2.79-3.45-4.17-.91-1.06-1.83-2.08-2.66-3.19-.19-.24-.38-.47-.55-.73-.63-.95-.68-1.36-.61-1.71.02-.08.03-.17.06-.23.09-.19.51.08,1.13.64.89.86,1.74,1.77,2.64,2.67.87.92,1.71,1.9,2.57,2.86,1.27,1.44,2.57,2.88,3.8,4.39l-.03.03Z"/><path class="cls-1" d="m331.44,229.56c.75-1.07,1.51-2.13,2.34-3.14.3-.37.59-.74.91-1.09,1.13-1.23,2.3-2.42,3.51-3.55.52-.52,1.07-1.01,1.6-1.51.69-.63,1.41-1.23,2.15-1.8.23-.18.21-.14.04.04-.17.18-.46.53-.84.91-1.32,1.37-2.55,2.8-3.78,4.24-.75.85-1.41,1.84-2.06,2.8-.71,1.06-1.46,2.08-2.14,3.16-.42.66-.83,1.33-1.21,2.02-.57,1.04-1.14,2.09-1.61,3.18-.35.85-.59,1.72-.83,2.59l-.15.58c-.29.68-.5.86-.93.89-.1,0-.19.03-.28.02-.28-.01-.45-.4-.41-.98.16-1.71.87-3.36,1.63-4.96.57-1.19,1.3-2.31,2.01-3.42l.03.02Z"/><path class="cls-1" d="m283.62,205.69l6.06-3.42c.31-.17.64-.32.97-.42.32-.17.67.05.97,0,.29.16.59.35.86.6l.38.34.23.21c2.1,2,4.28,3.93,6.59,5.69,1.03.77,2.13,1.46,3.19,2.15,1.39.85,2.81,1.66,4.24,2.46.44.26.32.42-.17.5-.5.08-1.42.13-2.38-.17-.83-.3-1.64-.63-2.43-1.01-.8-.37-1.58-.76-2.29-1.26-1.44-.97-2.81-2.03-4.11-3.18-.78-.69-1.6-1.34-2.43-2.01l-1.24-1-.61-.51-.15-.13-.05-.05-.1-.09-.11-.1s-.09,0-.14.01c-.09.03-.18.08-.29.13l-1.44.88c-.97.6-1.95,1.23-2.96,1.81-1.24.72-2.51,1.39-3.79,2.04-1.94.98-3.98,1.81-6.04,2.52-1.6.56-3.2,1.11-4.91,1.39-.37.07-.75.13-1.14.14-1.45.07-1.88-.47-2.12-.95-.05-.12-.13-.23-.15-.34-.04-.18.08-.32.33-.49.25-.16.63-.36,1.08-.49,1.35-.31,2.69-.54,4.05-.95,1.36-.39,2.73-.87,4.08-1.43,2.02-.83,4.02-1.82,5.96-2.93l.03.05Z"/><path class="cls-1" d="m276.14,134.59c.03,1.22-.37,2.38-1.07,2.95-.25.22-.5.46-.81.56-.53.18-1.13.16-1.59-.14-.46-.26-.78-.75-.96-1.25-.16-.44-.26-.9-.19-1.38.02-.16.06-.31.16-.45.08-.14.11-.3.23-.41.2-.25.41-.33.65-.42.15-.04.29.12.43.39.13.25.38.66.44.81.06.03-.13-.07-.15.4.03.3.27.18.37.11.16-.06.26-.24.32-.47.04-.14.05-.32,0-.49-.04-.13-.09-.27-.18-.38-.03-.03-.05-.05-.08-.08,0-.01-.12-.05-.04-.04h.06c0,.08-.06-.66-.03-.34h0s0,.01,0,.01h0s0,.03,0,.03v.04s.09.2.15.24c-.02.07-.09.42-.12.71,0,.07,0,.14-.02.21-.19.2-.4.21-.9.15l-.34-.03c-.36-.03-.66-.27-.82-.61-.15-.26-.15-.49-.14-.74,0-.24.05-.5.15-.77.11-.29.27-.58.7-.93.12-.09.28-.18.43-.26.15-.08.4-.15.61-.18.21-.04.44-.02.66,0,.14.02.16.03.2.05l.13.04c.98.33,1.68,1.45,1.82,2.66l-.06.02Z"/><path class="cls-1" d="m297.41,140.15c-.34.42-.76.75-1.29.96-.52.21-1.23.26-1.83,0-.42-.18-.81-.4-1.01-.75-.35-.57-.43-1.25-.35-1.76.08-.52.26-.93.44-1.3.16-.32.29-.65.47-.97.1-.21.26-.42.45-.59.19-.17.44-.31.72-.3.18,0,.19.12.21.35,0,.24.15.64.13.78,0,.32-.09.58-.18.91-.1.34-.19.66-.29.89-.13.31.14.45.2.47,0,.01,0,.01,0,.03-.02.03-.03.06-.03.08,0,.04,0-.05,0-.01.02.04.13.03.25-.03.08-.04.15-.1.21-.17.06-.07.11-.17.15-.27.14-.34.22-.87.18-1.35-.03-.36-.26-.68-.43-.8-.04-.03-.09-.03-.11-.05-.1,0,.14-.22.41-.71l.19-.35c.19-.38.58-.65,1.08-.46.62.38.95,1.02,1.09,1.53.15.53.16,1.02.15,1.42-.02.57-.11,1.34-.55,2.14-.06.11-.13.22-.2.32l-.05-.03Z"/><path class="cls-1" d="m273.43,106.25c-7.37,3.17-16.48,23.56-3.45,20.86,12.46-2.58,9.3-6.63,15.45-6.72,6.15-.09,4.19,2.46,6.37,2.17,2.18-.28,6.56-3.93,11.36-1.96s9.14,8.37,10.92,11.87c1.78,3.5,6.86,4.4,8.36,2.83s3.86-2.39,3.32-6.42-4.74-16.01-4.74-16.01l.58-2.86s-9.8-8.07-15.37-6.18c-5.57,1.89-12.42,7.65-12.42,7.65,0,0-5.44-7.08-9.14-7.93-3.16-.73-9.05,1.75-11.26,2.7Z"/><path class="cls-1" d="m352.25,404.74c2.32,7.62,4.61,15.25,6.7,22.95,1.04,3.86,2.06,7.72,2.89,11.67.39,2,.81,3.94.87,6.17.02.27-.01.59-.04.89-.01.28-.12.74-.23,1.04-.26.56-.51,1.17-.88,1.61-.17.24-.34.48-.52.7l-.58.6c-.38.42-.8.75-1.22,1.09-.6.52-1.25.91-1.88,1.36-.65.38-1.29.81-1.96,1.15-1.32.72-2.67,1.37-4.04,1.94-2.73,1.16-5.53,2.11-8.36,2.92-4.99,1.41-10.07,2.45-15.2,3.1-5.13.65-10.33.98-15.56.51-2.61-.27-5.25-.72-7.78-1.89-.32-.14-.62-.35-.92-.52-.31-.17-.61-.37-.89-.62-.28-.25-.58-.44-.82-.75-.24-.3-.51-.61-.67-.91-.76-1.21-1.22-2.44-1.69-3.67-1.76-4.92-2.9-9.93-3.97-14.95-1.85-8.92-3.38-17.94-4.69-26.86-.85-5.73-1.61-11.49-2.16-17.28-.28-2.89-.55-5.78-.72-8.68-.16-2.9-.28-5.8-.36-8.69-.05-3.61.04-3.13.43-.09.21,1.52.52,3.67.94,6.26.21,1.3.44,2.7.68,4.19.21,1.5.42,3.08.65,4.73,1.63,11.68,3.22,23.36,5.38,34.96,1.07,5.8,2.25,11.58,3.65,17.29.7,2.85,1.47,5.69,2.44,8.4.49,1.31,1.06,2.71,1.74,3.6.7.84,1.88,1.51,3.14,2,3.11,1.11,6.68,1.4,10.21,1.43,3.55.02,7.15-.29,10.73-.77,7.15-1,14.3-2.66,21.01-5.19,1.84-.69,3.65-1.47,5.36-2.38,1.71-.91,3.38-1.93,4.69-3.2.3-.33.66-.63.88-.99.12-.17.26-.34.37-.52l.25-.54c.29-.5.2-1.52.11-2.45-.2-1.9-.61-3.86-1.03-5.79-1.77-7.76-4.05-15.45-6.28-23.14-2.77-9.46-5.61-18.92-8.46-28.36-4.33-14.3-8.59-28.7-12.56-43.01-3.06-11.13-6.04-22.05-8.32-33.27-.49-2.47-.96-4.9-1.35-7.42-1.39-9.35-.97-12.51-.25-14.5.16-.46.31-1.05.43-1.31.2-.43.26.31.47,1.99.24,1.68.42,4.29.83,7.66,1.26,10,3.67,20.17,6.23,30.43,2.6,10.26,5.49,20.61,8.49,30.96,4.47,15.37,9.13,30.76,13.89,46.11l-.05.04Z"/><path class="cls-1" d="m247.32,476.71c-2.48,0-4.97.03-7.45.09-.91.02-1.81.11-2.72.12-3.2.05-6.41.11-9.61.16-1.42.03-2.85.1-4.26.18-1.81.13-3.64.16-5.48-.11-.57-.09-.47-.39.01-.73.49-.33,1.34-.75,2.37-.89,1.82-.27,3.66-.29,5.5-.4,1.85-.07,3.7-.14,5.57-.1,2.23.05,4.55-.18,6.83-.26,2.51-.09,5.02-.14,7.54-.19l4.64-.06c2.35,0,4.7,0,7.03-.01,1.81,0,3.59-.14,5.4-.05.4.01.79,0,1.19.03,1.48.22,1.94.44,2.2.91.06.11.14.22.17.32.1.34-.53.57-1.6.68-1.58.14-3.2.23-4.84.28-1.65,0-3.31.01-4.98.02-2.49.01-4.99.01-7.49.06v-.05Z"/><path class="cls-1" d="m335.72,477.32l-7.41-.05c-.9,0-1.8.06-2.7.04-3.18-.07-6.36-.14-9.54-.21-1.41,0-2.83,0-4.23-.01-.9,0-1.8-.02-2.7-.03-.9-.07-1.8-.22-2.7-.34-.56-.09-.48-.15-.01-.33.47-.16,1.34-.55,2.38-.8.92-.11,1.83-.17,2.75-.24.92-.07,1.83-.15,2.75-.13,1.83,0,3.67.01,5.52.09,2.21.09,4.51-.08,6.77-.12l7.47-.04,4.6-.02c2.32-.02,4.65,0,6.96-.06,1.79-.04,3.55-.24,5.32-.33.39-.01.77-.04,1.17-.04.73,0,1.21.06,1.55.22.34.14.53.31.68.56.07.11.16.22.2.32.14.34-.46.67-1.52.95-.79.12-1.59.24-2.4.34-.81.07-1.62.11-2.44.15-1.64.07-3.31.1-4.98.12-2.48.01-4.98.03-7.47.04v-.06Z"/><path class="cls-1" d="m239.37,473.15s.07.02.14.03c.02,0,.02,0,.06,0l.34-.03.68-.08c.91-.11,1.84-.27,2.77-.43,1.86-.34,3.73-.74,5.61-1.16,1.37-.31,2.72-.7,4.09-1,1.45-.31,2.91-.62,4.39-.91.75-.14,1.45-.27,2.26-.4.62-.12,1.19-.17,1.75-.21l.83-.06c.27-.02.57-.06.73.04-.05.87-.16,1.71-.23,2.5l-.12,1.76-.03.49c0,.11-.01.22-.01.34,0,.06,0,.12.02.17.02.06.09.06.14.08.11.02.22.03.34.04.13,0,.25.01.46,0,.13-.01.28,0,.4-.07.16-.14.22-.29.31-.54.11-.33.19-.7.26-1.08.14-.76.21-1.55.27-2.34.09-1.37.11-2.76.19-4.16.09-1.39.04-2.81.74-4.21.18-.44.32-.62.39-.59.08.03.11.26.28.64.15.38.51.92.81,1.56.25.64.35,1.38.36,2.19l-.02,2.43c-.04.82-.1,1.64-.18,2.46-.09.83-.18,1.67-.37,2.54-.09.44-.2.89-.37,1.38-.1.3-.29.71-.48,1.02-.2.33-.49.58-.77.82-.5.31-1.12.38-1.73.4-.16,0-.51,0-.8-.01-.3-.02-.59-.04-.87-.09-.29-.03-.54-.12-.77-.23-.11-.05-.22-.11-.31-.19-.02-.02-.05-.04-.07-.06l-.03-.03h0s0-.01,0-.01c.02-.03-.06.05.05-.06h0s-.02-.02-.02-.02l-.12-.15c-.35-.31-.44-.87-.43-1.46,0-.59.06-1.23.09-1.46l.11-.91.13-.5v-.02c.04-.08-.04-.06-.08-.07-.05,0-.1,0-.16,0-.06,0-.12,0-.18.01h-.09s-.31.06-.31.06c-.84.16-1.69.34-2.54.54-1.7.42-3.42.84-5.11,1.26-3.79.87-7.58,1.78-11.54,2.29l-.46.05c-.15.02-.29.03-.55.05-.45.02-.91.07-1.34.04-.89,0-1.64-.17-2.21-.51-.29-.16-.55-.41-.69-.75l-.09-.27v-.27c-.03-.19.05-.35.07-.53.09-.33.29-.58.54-.85l.36-.39c.15-.13.35-.25.52-.37l.8-.56.82-.47c.39-.24.79-.47,1.19-.69l2.4-1.32c1.61-.85,3.21-1.7,4.81-2.54,2.48-1.3,4.87-2.66,7.37-3.91.55-.28,1.08-.56,1.65-.81,1.05-.48,1.79-.72,2.33-.79.57-.02.94.1,1.27.31.15.1.33.18.42.28.17.17.05.42-.26.74-.32.31-.82.75-1.56,1.09-4.31,2.21-8.93,4.56-13.51,6.97-1.68.89-3.43,1.83-4.98,2.75-.02.03-.06.02-.1.05-.05.04,0,.09.03.09l-.06.07Z"/><path class="cls-1" d="m349.67,476.51c-.44.03-.9-.03-1.34-.06l-.34-.03h-.17s-.1-.03-.1-.03l-.39-.06c-.52-.07-1.02-.17-1.53-.26-1.01-.19-1.99-.42-2.97-.65-1.95-.47-3.88-.98-5.79-1.49-1.4-.37-2.81-.68-4.19-1.07-1.21-.34-2.43-.67-3.64-.98l-1.64-.4c-.19-.04-.46-.15-.64-.13-.02.21-.02.44-.02.69,0,.02,0,.22,0,.37,0,.16-.01.32,0,.48l.03.97v1.17c-.01.48.02,1.03-.22,1.35-.05.09-.1.17-.16.26l-.05.07v.02c.06.08,0,.03,0,.05l-.03.02s-.09.05-.14.08c-.19.08-.4.16-.63.19-.46.07-.97.08-1.43.06-.45-.02-1.1-.05-1.54-.32-.28-.22-.49-.5-.66-.81-.15-.32-.29-.68-.35-.91-.15-.51-.24-1-.32-1.49-.16-.98-.27-1.93-.36-2.88-.14-1.45-.25-2.9-.29-4.35-.02-.72-.03-1.44-.03-2.16-.04-.71.21-1.44.36-2.15.21-.87.19-.81.67-.08.22.37.65.89,1.01,1.54.31.65.46,1.41.54,2.24l.2,2.6c.04.86.09,1.72.16,2.56.07.84.15,1.68.27,2.47.06.39.14.77.22,1.09.06.19.02.1.03.14,0,.01,0,.03,0,.05.02.01.03.02.06.03-.02,0,.06,0,.12.01.02,0,.02,0,.02,0h.04s.07.03.11.03c.03-.02.04-.05.05-.09,0-.02.01-.03.02-.06,0-.05.01,0,.02-.19l.02-.88c0-.29.03-.59,0-.89l-.03-.48c-.05-.27-.05-.54-.07-.81-.06-.95-.03-1.84-.03-2.78,1.21.15,2.59.36,3.71.58.76.17,1.53.33,2.3.5,1.53.34,3.04.71,4.54,1.1,3.85,1.01,7.68,2.12,11.52,2.84l.88.15.75.11c.32.05.6.07.91.06.29-.01.69-.05.79-.37.05-.32-.2-.57-.45-.73-.43-.36-2.45-1.57-3.97-2.42-1.61-.91-3.24-1.78-4.88-2.6-2.56-1.27-5.15-2.34-7.76-3.39-.58-.22-1.14-.43-1.72-.65-1.07-.44-1.76-.7-2.2-1.02-.43-.34-.64-.64-.79-1.01-.06-.17-.17-.34-.19-.48-.04-.24.18-.37.66-.43.24-.03.54-.04.9-.02.35,0,.72.13,1.15.25,4.96,1.54,9.78,3.93,14.54,6.5.88.48,1.76.98,2.64,1.48l1.31.78,1.8,1.12c.72.56,1.65,1.12,1.88,1.69.23.28.32.57.4.86.03.34.05.68-.01,1.03-.1.35-.23.71-.45.95-.22.25-.46.45-.74.63-.31.16-.61.32-1.04.38-.21.03-.38.1-.61.11l-.69.02-.04-.06Z"/><path class="cls-1" d="m279.95,253.77c-.23.1-.39.18-.74.23-.35.07-.97-.11-1.17-.38-.09-.09-.16-.19-.23-.27-.07-.08-.12-.14-.15-.27-.12-.41-.23-.9-.18-1.65.05-.4.08-.78.14-1.17.09-.42.18-.83.29-1.23.1-.34.2-.68.3-1.02l.27-.81c.18-.56.46-1.09.85-1.54.13-.14.27-.03.39.2.11.23.25.58.2.89-.06.27-.06.56-.15.81l-.1.38s0,0-.02.01c-.04.03-.13.12-.29.45-.19.43-.12.55-.15.86,0,.18,0,.45.14.59.15.13.26.06.32,0,.08-.1.17-.22.24-.42.11-.28.21-.65.21-1.08,0-.34-.09-.63-.16-.77-.02-.03-.05-.04-.08-.07l-.04-.03s0,0,.02,0h.03s0,0,0,0h0s.15-.72.15-.72h0s0,0,0,0h0s0,0,0,0v.05c0,.07.02.06-.01.02-.06-.09-.15-.1-.14-.1h0s-.05.01-.07.02c-.05.02-.09.05-.13.08-.11.09-.34.2-.5-.19-.06-.2-.02-.46.1-.68.13-.2.3-.43.67-.51.12-.02.32-.01.42,0l.2.04c.1.02.2.06.29.1.18.09.33.19.47.36.14.15.25.44.38.67.07.31.15.64.19,1,.13,1.48-.18,2.96-.49,3.88-.24.69-.48,1.31-.74,1.65-.26.36-.51.53-.74.67v-.08Z"/><path class="cls-1" d="m282.24,241.15c-.31.07-.45.14-.97.12-.2-.02-.47-.1-.65-.23-.24-.16-.39-.31-.49-.51-.13-.37-.2-.77-.19-1.34,0-.55.13-1.25.36-1.96.18-.61.35-1.18.56-1.75.07-.17.1-.39.19-.54.05-.12.11-.24.18-.35.14-.23.3-.44.51-.62.13-.11.33.02.51.27.18.24.39.6.37.88-.07.72-.06.39-.11.5-.05.04-.16.15-.35.48-.22.43-.17.51-.17.8-.01.18.07.4.19.43.11.04.17-.01.22-.08.07-.08.15-.19.22-.36.1-.25.2-.56.23-.95.02-.3-.03-.56-.08-.68,0-.03-.03-.04-.04-.07-.02-.03-.03-.06-.04-.08l-.02-.05c.04-.2.07-.4.12-.64,0-.04-.04-.12-.05-.12.04.02-.11-.06-.22-.06-.17,0-.43-.1-.29-.51.08-.19.26-.37.49-.46.09-.06.31-.06.35-.07.06-.01.12-.02.18,0,.35.06.51.12.8.4.15.07.25.38.37.64l.09.2.02.28.04.59c.03.4-.03.81-.05,1.23-.05.39-.12.77-.19,1.15-.09.31-.17.66-.27.94-.09.25-.19.56-.29.76-.57,1.41-1.12,1.66-1.53,1.86v-.09Z"/><path class="cls-1" d="m327.79,61.14c-1.14-.91-2.49-1.73-3.62-1.64-.1.02-.2.02-.29.04-.09.04-.18.12-.19.1-.05.04-.1.09-.17.12-.14.08-.1.26-.02.37,0,.03.19.22.35.38l.55.48c.77.64,1.57,1.32,2.36,2.03.69.63,1.42,1.26,2.06,1.97.42.46.78.98,1.07,1.54.13.29.29.57.34.9.05.33.07.65.06.97-.02.4-.15.36-.47.13-.16-.11-.39-.26-.66-.41-.12-.08-.3-.14-.42-.23-.1-.09-.21-.19-.3-.31-.31-.41-.69-.76-1.06-1.13-.34-.4-.71-.79-1.11-1.17-.79-.77-1.67-1.52-2.56-2.35-.26-.26-.54-.51-.82-.77l-.44-.41-.23-.23c-.11-.1-.2-.23-.3-.34-.39-.46-.65-1.03-.55-1.61.07-.6.66-.93,1.1-1.31.68-.32,1.1-.4,1.63-.46.5-.02.99.04,1.43.17.89.26,1.67.67,2.37,1.15.87.59,1.64,1.26,2.38,1.97,1.11,1.09,2.1,2.21,3.03,3.5.7,1.05,1.16,2.19,1.46,3.36.06.26.14.51.18.77.09.48.08.81-.01,1.04-.08.23-.21.37-.39.49-.09.05-.17.12-.25.15-.27.11-.56-.25-.83-.9-.26-.97-.52-1.92-.89-2.79-.36-.9-.83-1.51-1.55-2.34-1-1.17-2.09-2.28-3.27-3.21l.02-.04Z"/><path class="cls-1" d="m324.93,73.6c1.14-1.18,2.35-2.24,3.66-3.22.48-.35.95-.74,1.5-1.04.5-.26.98-.53,1.77-.65.47-.04.74.06,1.05.12.28.1.58.17.83.3,1.03.49,1.87,1.15,2.66,1.83.7.61,1.38,1.23,2.03,1.86.39.44.78.87,1.12,1.34.33.49.58,1.03.81,1.58.13.35.04.34-.26.19-.29-.17-.91-.38-1.47-.72-.45-.35-.86-.73-1.31-1.06-.42-.36-.81-.76-1.22-1.12-.82-.74-1.66-1.42-2.53-1.98-.26-.16-.54-.3-.81-.39-.14-.06-.27-.1-.4-.11l-.19-.04h-.09c-.14.02-.44.13-.71.28-.28.15-.56.31-.84.5-1.24.8-2.44,1.8-3.55,2.86-.68.66-1.34,1.34-1.88,2.08-.13.18-.24.33-.34.52-.09.17-.17.46.06.55.34.24.78.11,1.14-.09.93-.48,1.71-1.28,2.61-2,.2-.16.4-.33.62-.48.21-.14.4-.24.56-.31.17-.06.34-.08.46-.08.26,0,.46.1.61.26.07.07.15.14.19.22.13.28-.12.59-.53,1.01-.7.55-1.42,1.23-2.27,1.9-.42.34-.87.69-1.42,1.01-.33.22-.92.39-1.38.5-.24.01-.48.03-.71.04-.22-.05-.44-.08-.65-.14-.27-.14-.55-.27-.82-.45-.92-.79-.6-2.04.17-3.2.22-.34.3-.43.42-.59l.35-.44c.24-.29.48-.56.72-.84l.04.03Z"/><path class="cls-1" d="m324.72,79.94c.25-.56.68-1.17,1.15-1.75.24-.29.48-.58.74-.85.15-.16.2-.21.28-.29l.23-.23c.61-.6,1.24-1.16,1.88-1.71.47-.4.9-.84,1.39-1.21.44-.33.87-.65,1.37-.96.12-.08.26-.16.48-.27l.63-.19c.43-.06.83-.03,1.15.05.68.15,1.21.41,1.72.69.5.28.97.58,1.41.92.78.59,1.54,1.18,2.27,1.79l.7.59c.22.22.42.44.62.68.19.24.4.46.55.75.14.28.28.57.41.86.15.37.02.4-.39.34-.28-.04-.57-.08-.82-.12-.16-.03-.35-.04-.51-.09-.15-.06-.31-.13-.44-.22l-.74-.48c-.24-.16-.45-.36-.67-.54-.44-.37-.89-.73-1.34-1.07-.9-.67-1.8-1.38-2.66-1.86-.25-.13-.51-.22-.69-.23-.09-.01-.15-.01-.2.01-.03,0-.06,0-.09.02l-.17.11c-.55.38-1.12.87-1.68,1.32-.62.5-1.23,1.02-1.83,1.56-.3.27-.59.54-.87.82l-.53.53c-.28.31-.68.7-.78,1.2,0,.05-.03.1-.02.15.01.25.3.23.45.19.18-.04.37-.1.55-.18.19-.08.37-.18.56-.29l.28-.17.37-.25c.94-.67,1.75-1.48,2.53-2.3l.5-.55c.32-.33.54-.54.79-.59.27-.04.48-.01.72.06.11.03.22.05.3.09.14.06.19.21.19.46,0,.24-.02.62-.24.92-.64.9-1.43,1.72-2.29,2.46-.43.37-.89.72-1.37,1.06l-.43.29-.7.43c-.47.28-.94.52-1.39.73-.88.4-1.7.62-2.21.48-.28-.04-.49-.15-.74-.31-.24-.18-.49-.53-.61-.79-.16-.63-.19-1.22.15-2.02l.07-.02Z"/><path class="cls-1" d="m335.99,125.45c1.18-.23,2.35-.44,3.53-.62.43-.07.84-.2,1.28-.25,1.52-.19,3.06-.22,4.58-.31.67-.06,1.34-.11,2.01-.17.85-.07,1.71-.15,2.58-.03.27.04.25.27.04.55-.21.28-.59.63-1.06.74-.84.19-1.68.42-2.52.54-.85.13-1.69.22-2.56.28-1.04.06-2.06.41-3.1.59-1.14.22-2.28.43-3.42.69-.7.16-1.4.32-2.09.51-1.05.29-2.1.58-3.11.96-.79.3-1.49.74-2.24,1.11-.17.07-.32.16-.5.22-.67.15-.95.06-1.25-.28-.07-.08-.15-.15-.2-.23-.18-.26-.04-.64.34-1.06.28-.32.59-.58.91-.82.34-.21.68-.4,1.04-.59.72-.35,1.46-.67,2.22-.94,1.14-.38,2.32-.66,3.49-.95l.02.05Z"/><path class="cls-1" d="m302.46,103.41c2.05-.66,4.21-1.01,6.34-.92.78-.03,1.55.03,2.32.13,2.71.35,5.31,1.42,7.51,3.01.98.71,1.88,1.54,2.64,2.49.48.61.95,1.28,1.17,2.06.24.77.28,1.6.1,2.37-.1.48-.19.39-.43.02-.19-.39-.84-.94-1.22-1.52-1.29-2.13-3.33-3.87-5.81-5.18-1.49-.79-3.25-1.08-4.97-1.19-1.89-.13-3.82-.07-5.67.46-1.14.3-2.26.72-3.33,1.24-1.6.82-3.14,1.84-4.44,3.1-1.02.97-1.8,2.13-2.56,3.26-.17.25-.31.51-.48.75-.66.9-.91,1.11-1.5,1.11-.13,0-.27.03-.38.02-.37,0-.54-.68-.22-1.57.91-2.66,2.92-4.84,5.2-6.62,1.71-1.31,3.67-2.35,5.72-3.06l.02.05Z"/><path class="cls-1" d="m311.03,124.56c.86,1.17,1.6,2.39,2.26,3.62.68,1.2,1.26,2.5,1.91,3.47.47.74,1.09,1.34,1.72,1.88.55.49,1.18.83,1.84,1.1.66.21,1.35.3,2.02.21,1.34-.18,2.48-1.23,2.87-2.66.37-1.36.48-2.89.33-4.32-.08-.93-.33-1.82-.52-2.73-.11-.45-.24-.9-.39-1.34-.17-.43-.24-.93-.43-1.38-.2-.58-.13-.56.38-.27.26.14.62.36,1.07.66.41.32.8.78,1.1,1.34.26.5.52,1,.66,1.54.15.54.25,1.08.33,1.63.16,1.1.19,2.21.1,3.31-.04.55-.13,1.1-.25,1.65-.15.56-.31,1.22-.64,1.78-.59,1.16-1.62,2.14-2.83,2.63-1.44.6-3.05.65-4.48.23-1.43-.41-2.69-1.21-3.67-2.21-1.08-1.08-1.88-2.41-2.53-3.59-.66-1.2-1.32-2.35-2.04-3.46-.87-1.38-1.88-2.64-3.02-3.73-1.73-1.64-3.9-2.84-6.24-2.96-1.81-.05-3.58.36-5.22,1.18-.36.17-.72.33-1.08.5-.65.39-1.14.52-1.52.57-.19.02-.36,0-.52-.03-.17-.06-.33-.15-.48-.24-.14-.09-.3-.15-.39-.22-.3-.19-.07-1.08.94-1.82.36-.29.73-.58,1.15-.81l1.29-.65c.85-.47,1.84-.71,2.83-.98.49-.16,1.02-.17,1.55-.22l.79-.06c.26-.03.53-.03.8.01l1.61.2c.53.11,1.05.3,1.57.46.19.06.39.12.57.19l.54.27,1.07.55c.66.43,1.32.87,1.91,1.37.56.52,1.16,1.01,1.64,1.59l.75.84.68.87-.05.05Z"/><path class="cls-1" d="m305.03,178.76c-.83,5.32-4.82,11.18-11.19,11.88-5.52.61-8.41-5.29-8.41-5.29,0,0,9.68-.38,11.02-2.27,1.34-1.89,8.58-4.32,8.58-4.32Z"/><path class="cls-1" d="m264.11,138.9c.42-2.15,1.35-4.1,2.5-5.84l1.16-1.63c.12-.13.24-.25.38-.36.21-.16.48-.3.71-.39.2-.07.41-.14.6-.18.39-.09.74-.13,1.09-.16.7-.05,1.36-.04,2.02,0,1.31.06,2.58.32,3.84.58,1.11.24,2.23.48,3.32.79.7.2,1.39.48,2.05.8.32.18.67.33.95.6.27.28.53.57.79.83.3.36.21.34-.17.25-.2-.04-.46-.11-.84-.06-.18,0-.39.07-.58.06-.18-.02-.37-.05-.55-.1-.65-.17-1.33-.26-2-.38-.66-.16-1.33-.31-2-.43-1.35-.26-2.72-.46-4.09-.65-.74-.12-1.5-.15-2.22-.08-.71.04-1.46.27-1.5.4l-.26.36c-1.18,1.42-2.04,3.07-2.57,4.81-.36,1.07-.46,2.19-.47,3.31.06,1.68.52,3.4,1.55,4.71.79,1.02,1.93,1.65,3.06,1.94l.37.1c.13.01.26.01.38.03.23.05.42.11.58.17.17.03.3.06.41.14.23.18.38.37.51.62.06.11.14.22.19.32.07.17,0,.32-.21.51-.21.18-.58.44-1.08.51-1.49.18-3.06-.39-4.35-1.28-1.31-.9-2.27-2.23-2.89-3.65-.94-2.12-1.1-4.48-.72-6.65h.06Z"/><path class="cls-1" d="m246.17,116.22c-1.24-.34-2.5-.62-3.77-.85-.46-.09-.93-.09-1.4-.18-1.64-.26-3.29-.56-4.96-.69-.74-.07-1.48-.05-2.22-.03-.94.09-1.89,0-2.85-.06-.3-.03-.28-.17-.05-.38.23-.2.66-.56,1.21-.74.97-.35,1.97-.35,2.96-.41.99-.03,1.99-.01,2.98.11,1.19.12,2.43.12,3.64.25,1.33.14,2.65.37,3.97.61.81.17,1.62.32,2.42.52,1.22.28,2.42.65,3.62.97.47.11.94.23,1.41.32.48.09.95.2,1.41.36.2.07.41.11.62.19.74.34.91.6.8,1.18-.02.13-.04.27-.08.39-.13.41-.58.61-1.13.53-1.65-.18-3.23-.66-4.89-1.1-1.23-.32-2.47-.63-3.73-.92v-.06Z"/><path class="cls-1" d="m298.09,133.94c.92.24,1.83.51,2.73.79.33.1.67.14.99.26,1.15.38,2.24.93,3.32,1.46.48.22.97.43,1.46.62.64.23,1.23.58,1.76,1.03.16.14.06.29-.2.42-.25.12-.67.27-1.05.21-.34-.04-.67-.09-.98-.21-.32-.09-.63-.18-.95-.28-.63-.19-1.25-.41-1.87-.67-.74-.3-1.56-.46-2.35-.65-.87-.23-1.74-.45-2.62-.64-.54-.12-1.09-.22-1.63-.31-.83-.14-1.66-.27-2.5-.27-.65,0-1.28.17-1.91.23-.14.02-.27.05-.41.06-.52,0-.7-.27-.85-.69-.03-.1-.08-.2-.1-.3-.08-.32.11-.64.51-.93.29-.21.6-.28.91-.38.31-.08.63-.21.95-.22.64-.06,1.29-.05,1.94-.01.96.07,1.91.2,2.85.41v.06Z"/><path class="cls-1" d="m285.01,140.42c-.62,1.19-1.43,2.25-2.35,3.18-.47.46-.97.89-1.5,1.28-.52.37-1.03.71-1.53,1.03-.73.47-1.42.99-2.1,1.46-1.2.83-2.42,1.69-3.15,2.77-.8,1.07-.94,2.17-.38,3.29.51.96,1.53,1.92,2.52,2.72.65.52,1.31,1.02,1.99,1.52.68.49,1.34,1,1.82,1.83.31.51.19.57-.43.7-.31.05-.8.21-1.28.2-.24,0-.52.02-.76-.04-.24-.07-.47-.17-.69-.31-.77-.5-1.55-1.03-2.27-1.63-.7-.64-1.37-1.32-1.98-2.07-.3-.34-.62-.87-.91-1.32-.16-.21-.25-.53-.37-.79-.1-.28-.24-.53-.27-.86-.05-.31-.1-.62-.13-.92.02-.32.05-.63.09-.94.03-.31.17-.58.25-.87.09-.29.23-.54.37-.77,1.43-2.23,3.28-3.59,5.09-4.86,1-.68,2.03-1.31,2.92-1.97.87-.66,1.65-1.47,2.29-2.37.8-1.1,1.36-2.39,1.56-3.7.32-1.98-.34-4.05-1.53-5.76-.92-1.34-2.19-2.38-3.48-3.35-.28-.21-.57-.43-.85-.64-.52-.42-.86-.7-1.03-1-.17-.3-.19-.6-.16-.93.01-.14,0-.29.02-.39.03-.18.2-.25.56-.31.36-.08.8,0,1.29.24.73.35,1.45.74,2.15,1.21.68.48,1.32,1.05,1.94,1.65,1.21,1.23,2.33,2.7,2.97,4.5.49,1.32.74,2.78.61,4.25-.13,1.46-.62,2.79-1.23,4l-.05-.02Z"/><path class="cls-1" d="m292.3,152.61c1.36.29,2.74.2,4.12.05,1.35-.3,2.71-.67,3.95-1.38.47-.22.89-.52,1.33-.82.44-.27.84-.62,1.26-.94,1.38-1.08,2.63-2.36,3.71-3.79l.77-1.1.69-1.15c.2-.4.41-.79.6-1.19l.26-.61.06-.15.1-.27.15-.51.39-.69c.04-.15.21-.18.33-.2.13-.01.27,0,.41.02.28.06.58.15.88.31.27.13.64.35.81.45l.58.35c.76.47,1.49.98,2.18,1.51,1.79,1.36,3.55,2.82,4.98,4.59.43.57.25.59-.3.3-.54-.3-1.51-.8-2.56-1.51-1.29-.9-2.64-1.73-3.99-2.51-.65-.4-1.35-.85-1.94-1.18,0-.02-.12-.14-.13-.04,0,0-.04.05-.03,0l-.19.49c-.13.35-.27.68-.44,1-.31.66-.69,1.27-1.07,1.88-1.59,2.39-3.46,4.77-5.87,6.53-2.64,1.9-5.91,3.11-9.21,3.01-1.02.03-2.01-.17-3-.33-1.01-.23-2.03-.61-2.88-1.21-1.32-.87-2.38-2.09-3.07-3.5-.68-1.4-1.01-2.97-.97-4.5.03-2.39.83-4.64,1.96-6.63.25-.44.52-.85.81-1.27,1.1-1.53,1.73-1.77,2.29-1.8.13,0,.28-.03.38,0,.17.04.19.25.1.59-.1.34-.29.84-.64,1.37-.93,1.65-1.82,3.34-2.26,5.12l-.25,1.32-.12,1.31c.02.86.07,1.72.37,2.51.38,1.18,1.09,2.26,2.04,3.06.23.22.49.39.75.55.25.19.54.3.82.43.27.16.58.19.86.3.31.08.67.11,1.01.17v.06Z"/><path class="cls-1" d="m311.46,203.89c.28.73.58,1.47.91,2.19.12.27.28.51.39.78.39.96.78,1.93,1.21,2.88.2.41.4.84.61,1.24.27.52.56,1.04.68,1.64.04.19-.16.26-.45.24-.28-.03-.68-.13-.9-.39-.39-.46-.77-.91-1.13-1.39-.33-.49-.58-1.04-.81-1.6-.27-.68-.75-1.26-1.12-1.91-.4-.71-.74-1.46-1.1-2.2-.21-.46-.42-.93-.62-1.39-.32-.7-.58-1.44-.9-2.13-.25-.55-.62-1.05-.82-1.62-.05-.12-.12-.24-.15-.37-.1-.5.07-.7.52-.91.1-.05.21-.1.31-.14.35-.12.71,0,1,.26.36.4.69.81.93,1.25.22.45.41.91.6,1.39.29.7.56,1.43.89,2.15l-.05.03Z"/><path class="cls-1" d="m258.78,191.64c-4.96-6.53-9.54-13.35-13.37-20.63-1.34-2.69-2.74-5.36-3.74-8.24l-.35-.94c-.06-.17-.12-.46-.16-.68-.04-.24-.04-.41-.05-.61-.04-.78.03-1.46.1-2.15.16-1.36.41-2.67.67-3.97.55-2.59,1.21-5.14,1.94-7.67,1.46-5.05,3.12-10.03,4.93-14.95,1.6-4.37,3.28-8.73,5.06-12.99,2.35-5.44,4.79-10.91,8.12-15.86,1.02-1.55,1.1-1.2.63.32-.24.76-.59,1.83-1.03,3.1-.42,1.29-.99,2.74-1.71,4.26-4.92,10.91-9.3,22.1-12.95,33.63-1.08,3.45-2.04,7.02-2.77,10.62-.35,1.79-.66,3.65-.67,5.32.02.18.02.39.04.55.04.13.03.22.14.47l.49,1.28c.32.86.65,1.71,1.04,2.54,3.24,7.38,7.64,14.3,12.36,20.91,1.23,1.71,2.49,3.4,3.79,5.06.65.83,1.31,1.65,1.98,2.46l1.01,1.2.51.56c.1.11.14.15.19.19.05.05.1.09.17.1l.47.14.56.15,1.13.27c1.44.32,2.92.56,4.4.78.91.16,2.26.28,2.94.66.18.09.33.19.47.31.06.05.16.14.15.25-.02.08-.06.15-.08.23-.05.14-.13.31-.23.5-.07.17-.22.38-.39.58-.56.61-1.18,1.34-1.53,1.75l-1.1,1.33c-.72.89-1.43,1.8-2.11,2.71-.69.92-1.35,1.84-1.98,2.78l-.46.71-.38.62c-.15.29-.35.56-.38.89.05.11.2.14.29.2.19.08.38.13.58.16l.29.02h.44c.64-.04,1.29-.13,1.94-.3,1.3-.31,2.58-.81,3.84-1.34,2.52-1.09,4.93-2.45,7.37-3.79,1.1-.64,2.18-1.26,3.29-1.91,2.06-1.19,3.43-1.98,4.44-2.45,1.02-.45,1.66-.63,2.23-.69.26-.03.57-.1.74-.09.28.02.04.34-.61.94-.66.59-1.71,1.49-3.18,2.46-3.19,2.13-6.46,4.34-10.05,6.18-1.8.92-3.66,1.78-5.68,2.46-1.01.34-2.06.62-3.21.78-.29.04-.59.06-.88.08h-.47c-.14,0-.33.02-.59-.03-1-.08-1.91-.4-2.63-.88-.11-.09-.18-.21-.27-.31l-.13-.16-.07-.08-.03-.04-.02-.02h0c-.06.02.08-.05.07-.05h0s0,0,0,0c-.21-.24-.25-.49-.26-.77,0-.55.25-1.2.6-1.83.15-.3.36-.63.49-.86l.3-.49.62-.94c.84-1.24,1.72-2.43,2.62-3.61.59-.77,1.19-1.54,1.81-2.3l.94-1.13.11-.12h0s.02-.01,0-.02h-.01s-1.35-.21-1.35-.21c-.96-.15-1.92-.32-2.89-.52-.48-.1-.97-.21-1.46-.33l-.73-.19-.9-.27c-1.19-.75-1.42-1.2-1.87-1.68-.42-.48-.83-.96-1.22-1.45-.8-.97-1.57-1.95-2.34-2.93l.04-.04Z"/><path class="cls-1" d="m253.33,91.4c.19-.5.37-1.01.56-1.51.06-.19.08-.38.17-.57.28-.64.56-1.3.84-1.94.13-.28.18-.59.31-.87.14-.37.3-.73.54-1.06.08-.1.18-.05.29.09.1.14.25.39.26.62.09.84-.13,1.58-.45,2.32-.2.44-.22.94-.33,1.42-.14.52-.3,1.03-.46,1.55-.1.32-.19.64-.29.96-.14.49-.31.97-.42,1.46-.07.39-.06.79-.14,1.18-.01.09-.02.17-.04.26-.09.31-.24.37-.67.3-.1-.02-.19-.03-.29-.05-.32-.07-.54-.28-.59-.53-.06-.37-.09-.74-.08-1.09.05-.35.15-.68.24-1.02.16-.5.32-1.01.49-1.51h.04Z"/><path class="cls-1" d="m244.24,87.93c.34-.52.69-1.03,1.02-1.56.12-.2.18-.41.3-.61.41-.69.75-1.42,1.12-2.15.14-.33.26-.68.35-1.02.12-.44.21-.89.39-1.33.06-.14.19-.1.33.05.13.14.29.4.3.69-.01.98-.07,2-.5,2.91-.27.53-.4,1.14-.64,1.7-.26.61-.56,1.21-.89,1.78-.21.35-.43.69-.64,1.04-.32.52-.68,1.02-.97,1.55-.22.42-.39.86-.62,1.26-.05.09-.08.19-.14.27-.21.32-.39.34-.77.18-.09-.04-.17-.07-.25-.11-.26-.13-.4-.42-.35-.72.08-.43.19-.86.33-1.26.16-.39.39-.74.61-1.1.32-.53.68-1.05.99-1.58l.04.02Z"/><path class="cls-1" d="m241.36,52.26c.84,2.54,1.8,5.12,2.7,7.7.33.94.71,1.87,1.02,2.82,1.09,3.35,2.1,6.74,2.82,10.21.32,1.54.64,3.09.87,4.64.16.99.25,2.01.25,3.02,0,.51-.01,1.02-.06,1.53-.03.51-.2,1.01-.32,1.5-.2.61-.24.51-.39-.03-.08-.27-.2-.65-.37-1.09-.14-.44-.24-.95-.31-1.49-.28-1.94-.58-3.87-.97-5.82-.4-1.94-.88-3.89-1.32-5.87-.55-2.36-1.44-4.73-2.25-7.08l-2.76-7.76c-.27-.77-.53-1.53-.78-2.33-.18-.58-.35-1.18-.4-1.7,0-.5-.03-.95.47-1.2.09-.04.18-.07.27-.08.76-.2,1.55.2,2.25.82.17.14.36.34.47.47.12.13.22.26.33.39.22.26.4.54.61.79.81,1.05,1.5,2.15,2.17,3.25,1,1.73,1.98,3.43,2.89,5.2.2.39.41.77.59,1.17.6,1.52.58,2.11.1,2.64-.09.11-.16.24-.23.31-.12.12-.29.03-.61-.15-.35-.18-.61-.56-.9-1.06-.89-1.48-1.6-3.09-2.42-4.68-.4-.79-.81-1.58-1.22-2.38-.37-.81-.76-1.62-1.18-2.39-.2-.36-.4-.72-.61-1.06-.24-.32-.51-.61-.77-.87-.06-.07-.03-.05-.07-.08-.02,0-.02.02-.02.03v.03s.19.58.19.58l-.04.02Z"/><path class="cls-1" d="m249.45,46.71s0-.1,0-.16c0-.08-.07-.1-.11-.06-.08.02-.14.09-.21.21-.19.43-.32,1.01-.41,1.56-.11.68-.11,1.38-.13,2.09-.09,2.51.17,5.11.49,7.68.14,1.14.35,2.29.58,3.41.31,1.44.71,2.87.51,4.42-.05.48-.13.43-.44.1-.22-.23-.46-.47-.67-.69-.25-.29-.46-.65-.62-1.05-.16-.35-.25-.72-.33-1.09l-.24-1.11c-.16-.74-.3-1.49-.43-2.24-.28-1.5-.42-3.04-.46-4.59-.05-1.86-.28-3.78-.14-5.72.07-.88.19-1.77.45-2.67.06-.22.15-.45.23-.67.11-.28.3-.59.44-.88.37-.53.77-.95,1.25-1.23.18-.11.39-.12.58-.18.22-.05.43.12.55.24.48.48.73,1.5.89,2.39.12.63.21,1.26.31,1.89.29,1.9.5,3.8.84,5.66.28,1.44.69,2.82,1.07,4.2.09.3.18.59.28.89.26,1.13.11,1.54-.27,1.93-.09.09-.17.2-.26.27-.28.22-.79-.13-1.3-.95-.65-1.23-.99-2.57-1.33-3.92-.26-1.36-.44-2.74-.59-4.11-.1-1.02-.2-2.04-.3-3.06l-.16-1.51c-.05-.46-.15-1.16-.13-1.02l.04-.03Z"/><path class="cls-1" d="m253.9,56.65c.46-.93.95-1.84,1.44-2.75.18-.33.32-.69.51-1.01.66-1.16,1.45-2.26,2.26-3.34.36-.48.71-.97,1.1-1.45.24-.31.55-.6.92-.85l.31-.16c.13-.04.25-.08.38-.11.29-.03.63.03.85.23.28.26-.03.36-.31.52-.14.07-.23.22-.25.35-.01.07,0,.11-.03.18-.01.05-.03.09-.08.15-.3.34-.76.92-1.17,1.47-.42.58-.85,1.16-1.29,1.76-.53.72-.9,1.59-1.34,2.4-.48.89-.96,1.79-1.41,2.71-.28.56-.55,1.13-.81,1.7-.38.87-.78,1.74-1.08,2.64-.22.7-.37,1.41-.56,2.1-.04.15-.07.31-.12.46-.25.54-.42.69-.78.72-.08,0-.15.03-.22.03-.2,0-.4-.31-.43-.78-.06-.71.07-1.39.17-2.09.15-.68.4-1.34.64-2,.37-.98.81-1.93,1.24-2.88l.04.02Z"/><path class="cls-1" d="m260.81,54.97c-.3.9-.63,1.78-.96,2.67-.11.33-.19.66-.35.97-.53,1.1-1.06,2.2-1.59,3.29-.22.49-.44.98-.66,1.47-.14.31-.27.63-.42.94-.13.32-.4.58-.61.86-.15.17-.23.1-.32-.13-.07-.22-.28-.67-.22-1.07.16-.68.33-1.35.53-2.02.23-.65.53-1.28.85-1.9.39-.74.59-1.59.87-2.4l1.08-2.61c.21-.54.43-1.08.62-1.62.29-.83.59-1.66.81-2.5.14-.65.28-1.3.42-1.96.03-.14.06-.29.1-.43.16-.53.32-.67.56-.74.06-.01.12-.04.17-.04.17-.02.28.24.32.66.05,1.25-.06,2.55-.4,3.79-.22.93-.49,1.85-.77,2.76h-.04Z"/><path class="cls-1" d="m333,185.65c-1.19,1.35-2.38,2.68-3.65,3.95-.46.47-.86.98-1.34,1.43-1.65,1.61-3.4,3.11-5.16,4.59-.77.66-1.54,1.34-2.3,2.02-1.02.8-1.97,1.73-3.27,2.15-.39.15-.48-.07-.4-.54.04-.24.11-.54.22-.88.06-.16.11-.35.2-.5.09-.15.21-.28.34-.41.92-.91,1.84-1.8,2.85-2.6.98-.84,1.98-1.66,3-2.49,1.23-.98,2.27-2.24,3.37-3.4,1.19-1.29,2.4-2.58,3.55-3.91.72-.82,1.41-1.65,2.09-2.5,1.02-1.29,2.03-2.6,2.92-3.97.67-1.08,1.2-2.21,1.74-3.34.12-.25.22-.5.36-.74.24-.45.47-.71.72-.84.24-.14.48-.17.77-.13.13.01.27.01.38.04.38.09.5.64.37,1.46-.68,2.27-1.99,4.34-3.38,6.34-1.04,1.48-2.18,2.9-3.33,4.3l-.05-.03Z"/><path class="cls-1" d="m363.14,132.46c.46,1.67.91,3.35,1.29,5.04.42,1.68.77,3.38,1.12,5.08.28,1.23.54,2.47.75,3.72.72,4.4,1.23,8.83,1.44,13.27.08.98.11,1.97.16,2.96.04.99.12,1.97.15,2.95.04,1.26.04,2.52.02,3.78-.04.63-.07,1.26-.16,1.89-.11.62-.21,1.24-.32,1.87-.15.77-.37.65-.69-.02-.16-.34-.35-.81-.54-1.38-.09-.28-.2-.59-.27-.92-.05-.32-.09-.67-.09-1.02-.17-2.52-.16-5.03-.26-7.55-.01-1.26-.12-2.52-.18-3.78-.05-1.27-.15-2.53-.24-3.8-.08-1.52-.31-3.06-.57-4.61-.23-1.55-.58-3.08-.86-4.62-.3-1.69-.72-3.36-1.06-5.04-.42-1.67-.81-3.34-1.27-5l-.86-3.06-.95-3.03c-.98-3.05-2.07-6.09-3.28-9.04-.98-2.28-2.08-4.44-3.21-6.61-.25-.48-.5-.94-.75-1.42-.94-1.78-.97-2.48-.67-3.11.07-.15.13-.32.21-.42.26-.35,1,.2,1.84,1.46,2.3,3.8,4.28,8.06,5.95,12.45.64,1.63,1.2,3.28,1.78,4.94.52,1.67,1.1,3.33,1.57,5.01l-.05.02Z"/><path class="cls-1" d="m339.54,223.64c-1.2,1.34-2.36,2.72-3.44,4.16-.41.52-.72,1.1-1.11,1.62-1.34,1.88-2.65,3.81-3.75,5.86-.26.45-.47.92-.69,1.39-.22.47-.45.93-.64,1.4-.51,1.21-.91,2.46-1.68,3.59-.23.35-.46.22-.65-.22-.16-.43-.44-1.23-.27-2,.44-1.32.89-2.64,1.5-3.88.3-.63.65-1.23,1.01-1.83.35-.6.72-1.19,1.13-1.76.94-1.38,1.77-2.9,2.73-4.3,1.06-1.54,2.21-3.01,3.41-4.45.74-.88,1.49-1.74,2.26-2.59,1.15-1.3,2.39-2.52,3.56-3.77.93-.96,1.74-2,2.65-2.96.2-.21.39-.42.61-.62.8-.73,1.22-.79,1.7-.6.11.05.24.08.33.14.31.19.2.73-.23,1.42l-1.07,1.43c-.38.46-.79.89-1.19,1.34-.81.89-1.65,1.77-2.47,2.66-1.23,1.33-2.49,2.63-3.66,4.02l-.04-.03Z"/><path class="cls-1" d="m339.42,85.08c.84-.93,1.4-1.95,1.6-3.06.02-.13.05-.31.07-.35-.03-.03.02-.07-.01-.09,0,0-.01-.04-.01-.07l-.08-.13c-.04-.08-.12-.18-.21-.28-.34-.4-.84-.81-1.35-1.17-.77-.52-1.66-.94-2.48-1.27-.18-.07-.39-.15-.49-.18-.06-.02-.13-.04-.18,0-.01-.01-.23.08-.38.13-.17.06-.32.15-.49.22-.33.14-.64.33-.95.5-.62.37-1.21.8-1.77,1.28-.55.48-1.06,1.01-1.51,1.59-.21.26-.46.63-.58.84-.1.17-.19.33-.25.51-.03.07-.04.15-.05.22-.01.17,0,.38.16.47.17.08.35,0,.51-.07.16-.08.3-.18.44-.28l.71-.55c.78-.63,1.48-1.33,2.33-2.01.1-.08.24-.18.43-.29.18-.09.39-.13.59-.15.45-.01.7.06,1,.14.58.16,1.01.57,1.43.93.25.25.31.42.25.47-.06.06-.25.02-.54,0-.29-.02-.71-.01-1.17.08-.22.04-.43.02-.61.06-.23.03-.13.06-.15.06.04-.03-.1.08-.19.17l-.33.31-.7.67c-.47.45-.96.91-1.5,1.35-.17.15-.8.63-1.31.95-.54.34-1.09.51-1.56.52-.46,0-.89-.1-1.29-.44-.39-.33-.57-.8-.67-1.25-.09-.6.06-1.27.3-1.94.14-.33.32-.66.47-.96l.37-.57c.52-.73,1.11-1.37,1.74-1.95.67-.61,1.38-1.19,2.15-1.7.38-.26.78-.5,1.19-.73l.62-.32.75-.34c.17-.06.35-.05.53-.09.18-.01.36.02.54.03.36.06.57.13.81.21.47.16.89.36,1.3.56,1.34.73,2.61,1.47,3.7,2.81.13.17.26.39.38.58.09.24.25.5.25.79.03.28.05.58,0,.77l-.1.59c-.07.39-.23.77-.34,1.15-.17.36-.32.73-.52,1.06-.98,1.67-2.4,2.88-3.72,4-.5.42-.98.83-1.39,1.26-.43.43-.7.87-.69,1.2.11,1.19.5,2.48.94,3.69.69,1.88,1.61,3.64,2.53,5.41.2.39.43.76.6,1.17.68,1.49.71,2.06.4,2.6-.07.12-.12.27-.2.36-.13.15-.34.11-.62-.08-.28-.2-.65-.55-.99-1.06-1.08-1.5-1.88-3.19-2.66-4.93-.75-1.77-1.48-3.55-1.92-5.61-.1-.43-.16-.91-.2-1.43,0-.3.04-.61.09-.9.09-.27.2-.52.31-.75.24-.38.5-.74.74-.99.51-.55,1-.95,1.46-1.36.93-.8,1.79-1.55,2.48-2.36l.04.03Z"/><path class="cls-1" d="m319.72,90.41c-.84-.74-1.7-1.46-2.56-2.27-.91-.85-1.61-1.78-2.29-2.73-.49-.7-.99-1.4-1.39-2.17-.36-.7-.68-1.44-.87-2.26-.09-.41-.16-.85-.17-1.32,0-.06,0-.12.01-.18l.03-.25c.02-.17.02-.32.1-.46.12-.27.22-.55.39-.8.18-.2.36-.39.62-.5.26-.09.53-.12.8-.11.27.03.54.1.81.2.29.12.41.2.61.31.69.42,1.26.91,1.8,1.42.97.93,1.82,1.95,2.63,2.98,1.05,1.31,1.99,2.76,2.29,4.47.11.52,0,.49-.41.22-.21-.13-.51-.32-.88-.53-.18-.11-.39-.21-.57-.35-.17-.14-.33-.3-.48-.47-.26-.31-.56-.59-.79-.92-.23-.32-.47-.64-.71-.96-.49-.63-.99-1.24-1.52-1.82-.54-.57-1.04-1.17-1.58-1.68-.27-.26-.55-.5-.81-.69l-.19-.13s-.02-.03-.05-.05c-.04-.03-.08-.06-.14-.07-.07-.02-.14,0-.18.06-.05.04-.06.1-.09.16-.02.04.01.03,0,.08-.03.07-.01.16-.02.24-.03.34.1.72.2,1.1.26.77.67,1.53,1.11,2.26.56.93,1.21,1.82,1.92,2.66.68.81,1.53,1.51,2.39,2.25,1.06.9,2.14,1.81,3.19,2.75,1.59,1.43,3.1,2.96,4.46,4.63,1.05,1.29,2.08,2.62,2.76,4.22.18.34.31.69.41,1.07.08.35.14.65.16.89,0,.26-.02.46-.05.63-.07.34-.2.54-.41.69-.1.07-.19.16-.29.2-.32.13-.68-.39-.93-1.23-.53-1.22-1.04-2.43-1.8-3.61-.77-1.16-1.67-2.28-2.65-3.37-1.47-1.6-3.13-3.1-4.84-4.56l.03-.04Z"/><path class="cls-1" d="m251.49,259.03l3.64-8.62,1.23-3.17c1.53-3.69,3.04-7.39,4.34-11.16.62-1.66,1.08-3.38,1.55-5.07.57-2.18.93-4.41,1.88-6.51.33-.65.54-.51.83.16.33.68.65,1.89.47,3.21-.98,4.59-2.36,9.08-4.25,13.4-1.1,2.59-2.03,5.36-3.1,8.02l-3.61,8.72-2.2,5.36c-1.07,2.72-2.16,5.45-3.08,8.19-.35,1.07-.67,2.14-.96,3.21-.29,1.07-.54,2.16-.85,3.22-.14.47-.27.93-.41,1.4-.56,1.74-.89,2.25-1.51,2.48-.14.05-.29.13-.42.15-.43.06-.56-.75-.36-2.11.15-1,.29-2.03.5-3.04.25-1,.52-2.01.81-3.02.61-2.01,1.27-4.03,2-6.02,1.06-2.98,2.26-5.91,3.43-8.84l.06.02Z"/><path class="cls-1" d="m331.12,271.5c-.7-3.13-1.47-6.25-2.3-9.35-.3-1.14-.68-2.25-.99-3.38l-3.31-11.99c-.5-1.77-1.06-3.54-1.62-5.28-.73-2.23-1.51-4.46-1.73-6.85-.09-.74.04-.67.46-.15.26.33.56.7.86,1.07.17.23.38.46.54.73.15.27.29.57.42.88.47,1.11.85,2.24,1.22,3.38l1.12,3.42c.73,2.29,1.42,4.59,2.04,6.93.71,2.81,1.68,5.66,2.49,8.51.88,3.14,1.7,6.3,2.47,9.47.47,1.95.91,3.91,1.33,5.88.65,2.97,1.17,5.99,1.7,8.96.18,1.16.38,2.31.59,3.45.21,1.14.36,2.29.53,3.45.07.51.16,1,.2,1.52.17,1.91-.02,2.54-.48,2.97-.1.1-.2.23-.3.29-.31.2-.75-.56-1.03-1.92-.69-4.05-1.43-8.27-2.26-12.52-.6-3.16-1.24-6.33-2-9.47l.05-.02Z"/><path class="cls-1" d="m281.84,246.15c.53-2.71,1.13-5.39,1.76-8.07.22-.98.41-1.96.65-2.93.86-3.42,1.88-6.81,2.84-10.19.43-1.5.82-3.02,1.19-4.53.55-1.91.93-3.88,1.84-5.69.27-.57.41-.45.55.14.07.29.15.7.22,1.18.03.24.07.51.07.77-.01.27-.05.54-.1.82l-.62,2.99c-.23.99-.5,1.97-.77,2.95-.53,1.96-1.1,3.91-1.7,5.87-.72,2.34-1.2,4.84-1.79,7.26-.64,2.67-1.25,5.35-1.8,8.04-.33,1.66-.66,3.32-.92,4.98-.42,2.52-.78,5.07-1.01,7.59-.16,1.97-.11,3.9-.2,5.84-.01.43-.02.85-.03,1.28-.09,1.6-.29,2.1-.67,2.45-.09.08-.17.18-.24.23-.22.16-.53-.5-.71-1.7-.15-.89-.2-1.78-.25-2.69-.05-.91-.12-1.83-.05-2.75.05-.92.1-1.85.16-2.78.09-.93.18-1.86.28-2.79.32-2.76.76-5.52,1.26-8.26h.05Z"/><path class="cls-1" d="m231.77,383.36c1.05-4.42,2.08-8.85,3.2-13.25,1.09-4.41,2.18-8.82,3.33-13.21.84-3.21,1.55-6.45,2.43-9.64,3.01-11.28,6.23-22.51,9.5-33.71,1.44-4.97,2.9-9.98,4.33-14.91,1.93-6.31,3.49-12.78,6.22-18.84.98-1.85.95-1.56.94.26,0,.91-.01,2.21-.21,3.71-.1.75-.2,1.57-.37,2.42-.19.84-.42,1.73-.69,2.63-3.79,12.9-7.6,25.79-11.52,38.79-2.33,7.77-4.33,15.99-6.4,24.02-2.26,8.84-4.48,17.7-6.57,26.59-1.28,5.47-2.56,10.95-3.73,16.44-1.81,8.31-3.51,16.69-4.95,25.01-.55,3.23-.97,6.45-1.42,9.66-.4,3.21-.72,6.42-1.08,9.63-.1,1.42-.21,2.8-.31,4.23-.06.66-.12,1.26-.17,1.82-.07.55-.16,1.05-.19,1.51-.09.91-.18,1.65-.3,2.25-.25,1.21-.51,1.91-.85,2.48-.15.26-.31.6-.44.75-.23.26-.42-.16-.6-1.14-.18-.98-.38-2.53-.44-4.53-.05-1.48.09-2.94.16-4.43.1-1.48.15-2.98.32-4.47.33-2.97.61-5.99,1.04-9,.44-3.01.87-6.04,1.37-9.07.54-3.02,1.07-6.06,1.61-9.09,1.74-8.99,3.68-17.98,5.73-26.92h.07Z"/><path class="cls-1" d="m284.71,447.91c1.03-9.38,1.13-18.98,1.14-28.53,0-3.49-.12-6.99-.15-10.48-.11-12.32-.32-24.66-.23-37,.05-5.48.09-10.99.26-16.43.13-3.5.2-7.01.57-10.5.16-1.75.36-3.5.63-5.23.34-1.73.6-3.47,1.09-5.16.76-2.09.61-1.8.76.08.07.48.06,1.04.09,1.68.03.66.07,1.38.12,2.17.02.79.08,1.65.09,2.56,0,.91-.05,1.86-.09,2.86-.86,14.09-.77,28.29-.91,42.64-.07,8.58.29,17.51.38,26.31.09,9.67.11,19.36-.52,29.06-.36,4.94-.84,9.86-2.2,14.79-.12.37-.3.7-.59.99-.24.26-.48.44-.73.62-.49.34-.98.59-1.48.83-2.16.99-4.38,1.57-6.61,2.08-2.23.5-4.48.86-6.74,1.14-4.51.56-9.05.78-13.56.7-7-.14-13.93-.86-20.65-3.01-1.47-.48-2.91-.98-4.35-1.64-5.35-2.43-6.42-4.33-6.98-5.52-.12-.29-.31-.64-.35-.83-.06-.34.41-.2,1.33.25.93.44,2.35,1.12,4.11,2.05,5.22,2.77,11.2,4.37,17.35,5.24,6.17.86,12.56,1,18.91.51,3.34-.26,6.67-.69,9.92-1.37,1.62-.34,3.23-.75,4.75-1.27.76-.26,1.49-.55,2.14-.88.31-.17.62-.35.82-.51.25-.21.15-.14.2-.16.11-.54.31-1.27.46-1.9l.38-2.01c.21-1.35.43-2.71.56-4.09h.07Z"/><path class="cls-1" d="m252.03,109.32c-.31.67-.7,1-1.04,1.21-.35.22-.7.32-1.12.36-.3.01-.65.03-.96-.12-.39-.17-.67-.54-.78-.88-.2-.61-.11-1.44.24-2.26.13-.28.31-.54.45-.78.06-.13.13-.25.22-.36.06-.09.12-.17.18-.25.3-.42.65-.82,1.15-1.01.16-.06.29.15.37.44.08.28.16.65.07.86-.09.18-.16.37-.23.55-.03.08-.06.2-.09.25,0,0-.01,0-.03,0-.05,0-.16.06-.34.28-.08.1-.12.19-.12.27-.02.16.12.22.23.26.2.09.38-.04.49-.26.08-.14.15-.31.19-.51.03-.15.06-.32.07-.5,0-.04,0-.09-.03-.13,0-.02-.02-.04-.04-.05h0s0,0,0,0h0s0,0,0,0h0c-.03.06.27-.53.14-.28h0s0,0,0,0h0s-.02.14.03.29c0,.03-.02.02-.05.05-.11.08-.13.19-.27.43-.11.21-.22.41-.33.62-.05.09-.08.19-.14.27-.27.26-.47.25-.87.02-.09-.05-.19-.1-.27-.16-.28-.19-.42-.5-.38-.82.05-.49.29-.83.5-1.22l.09-.14.04-.07.1-.12c.14-.16.29-.31.47-.43.18-.12.42-.29.88-.35.22-.03.53-.01.83.11.29.12.3.18.4.24.24.2.38.39.5.69.12.3.14.71.09,1.14-.09.85-.34,1.68-.61,2.4l-.04-.05Z"/><path class="cls-1" d="m332.07,119.27c.05.33.09.66.11.98l.02.49c0,.15.02.33-.03.68-.03.24-.16.6-.4.84-.24.27-.64.44-.95.44-.29,0-.41-.04-.57-.1-.15-.06-.3-.14-.43-.23-.27-.18-.48-.42-.66-.68-.24-.46-.38-.79-.47-1.21-.08-.36-.17-.71-.22-1.07-.07-.45-.1-.92.09-1.36.06-.14.25-.09.45.04.2.13.46.31.53.51.23.73.67,1.23.86,1.89.02.05.04.11.04.11,0,.09.06.14.12.17.03.02.07.03.1.03h-.02s0,0,0,0h0s0,0,0,0h0s.02.37.02.37c0,.03,0,.06.01.09,0,.04.02.06.01.05,0-.01-.01-.02-.05-.05h-.02s-.01-.02-.01-.02h0s0,0,0,0h0s0,0,0,0c-.06-.03.08.05.06.04h0s-.03-.02-.03-.02c-.05-.02-.17-.06-.41-.08.02,0,.02-.14.02-.27,0-.26-.02-.52-.05-.78-.04-.32-.09-.64-.18-.95-.12-.46-.31-.89-.58-1.01-.05-.02-.1-.03-.15-.02-.02.02-.02.03-.04.06-.03.05-.06.14-.04.18,0,0,.04.04,0,0-.03-.03-.07-.05-.11-.07-.15-.08-.21-.06-.22-.06,0,0,.04-.01-.02,0-.07.03-.15.07-.24.12-.08.05-.15.11-.22.16-.12.09-.25.14-.42.09-.17-.05-.38-.25-.45-.59-.1-.52.12-.95.4-1.25.28-.3.65-.53,1.14-.61.24-.04.54-.03.78.03.2.05.4.13.58.23.36.2.63.46.83.71.3.38.46.75.58,1.1.12.33.2.65.28.98h-.05Z"/><path class="cls-1" d="m261.05,67.86c-.28.13-.57.27-.85.4-.1.05-.18.13-.28.18-.36.17-.78.26-1.14.41-.16.07-.31.15-.46.24-.19.11-.37.24-.6.28-.14.03-.28-.53-.12-.74.31-.33.62-.63,1.03-.82.24-.11.41-.34.64-.48.24-.16.5-.32.75-.48.15-.1.31-.2.45-.3.22-.17.47-.3.67-.49.16-.15.25-.35.38-.53.03-.04.04-.09.08-.12.15-.09.27-.04.51.16l.16.14c.17.16.26.36.25.54-.07.51-.36.81-.65,1.11-.21.23-.52.35-.78.52l-.02-.03Z"/><path class="cls-1" d="m283.87,169.22c-.33.73-.71,1.1-1.36,1.36-.24.08-.51.18-.79.13-.37-.06-.7-.29-.93-.52-.23-.26-.36-.57-.47-.86-.02-.24-.09-.38-.07-.64,0-.43.04-.92.25-1.43.13-.31.18-.61.37-.9.12-.21.24-.38.41-.53.11-.09.23.04.32.23.08.19.15.44.08.63-.03.09,0,.02-.04.06-.01.01-.09.13-.11.24-.05.13-.05.15-.07.26-.07.4.13.42.3.46.21.06.35-.06.41-.25.04-.11.07-.26.07-.43,0-.25-.02-.57-.14-.83-.04-.1-.1-.18-.21-.17-.01,0-.03,0-.03.01h0s.08-.36.08-.36h0s0,0,0,0h0s0,.02,0,.02v.03s0,.08,0,.11c.02.07.04.08,0,.03h-.01s0-.02,0-.02h0s0,0,0,0l.16.15.04.04s.11.08.14.1c-.02.03-.24.13-.78.05l-.37-.05c-.38-.08-.75-.26-.79-.67.01-.3.02-.76.52-1.17.22-.18.47-.31.79-.37.29-.09.83.02.9.05.35.11.6.27.84.57.24.29.41.73.54,1.18.38,1.36.28,2.73,0,3.54l-.04-.05Z"/><path class="cls-1" d="m152.83,189.79c-1.09,1.92-2.12,3.88-3.14,5.85l-1.09,2.18c-.16.29-.28.54-.48.87-.28.4-.5.84-.84,1.17-.2.06-.4.06-.6.07-.22-.04-.44-.1-.66-.18-.11-.03-.22-.08-.32-.12l-.2-.08-.39-.17-1.54-.69-3.03-1.39c-1.15-.52-2.33-1-3.5-1.45-1.51-.56-3.04-1.07-4.49-1.75-.42-.32-.33-.42.18-.63.51-.2,1.39-.29,2.3-.03,3.19,1.05,6.2,2.44,9.19,3.89.48.23.97.45,1.46.66l.61.24c.08.02.17.08.25.05.04-.05.09-.16.14-.25l.24-.49.62-1.27c.99-2.01,2.06-3.99,3.13-5.97.67-1.21,1.35-2.42,2.05-3.62,1.07-1.81,2.17-3.6,3.34-5.34.89-1.36,1.77-2.71,2.84-3.95.24-.27.5-.53.76-.78.25-.23.45-.44.65-.57.21-.13.4-.2.56-.26.32-.12.53-.13.73-.08.09.02.2.03.26.07.21.11-.1.62-.69,1.29-.43.53-.89,1.03-1.29,1.61-.4.59-.83,1.14-1.23,1.74-.83,1.17-1.64,2.41-2.42,3.67-1.17,1.86-2.28,3.8-3.34,5.75l-.04-.02Z"/><path class="cls-1" d="m148.07,159.51c1.12.93,2.27,1.83,3.5,2.62.44.31.93.52,1.38.8,1.61.98,3.24,1.96,4.98,2.73.77.36,1.58.61,2.37.87,1.01.37,2.04.69,3.05,1.14.31.14.24.26-.08.38-.32.11-.91.31-1.57.27-.57-.04-1.14-.11-1.72-.18-.57-.09-1.1-.3-1.65-.45-1.09-.36-2.16-.78-3.17-1.32-1.23-.62-2.54-1.19-3.77-1.86-1.34-.76-2.64-1.61-3.88-2.52-.77-.56-1.51-1.14-2.25-1.74-1.11-.9-2.15-1.91-3.21-2.85-.81-.75-1.7-1.39-2.52-2.13-.19-.16-.38-.3-.55-.48-.32-.32-.48-.58-.5-.84-.01-.12,0-.24.04-.36.05-.13.13-.27.21-.39.07-.12.13-.24.19-.32.17-.24.9-.38,1.45-.02,1.54,1.13,2.92,2.48,4.39,3.78,1.08.96,2.18,1.93,3.33,2.84l-.03.05Z"/><path class="cls-1" d="m131.75,163.23c-1.09,1.5-2.16,3.02-3.13,4.61-.37.57-.66,1.19-1.01,1.76-1.24,2.05-2.42,4.14-3.43,6.32-.47.96-.83,1.97-1.2,2.96-.21.65-.42,1.29-.69,1.92-.12.32-.25.63-.38.95-.12.32-.36.6-.53.9-.25.37-.35.28-.48-.14-.07-.21-.16-.51-.25-.87-.07-.35-.05-.73.03-1.13.28-1.4.86-2.71,1.4-4.02.57-1.3,1.19-2.59,1.91-3.82.84-1.49,1.58-3.1,2.45-4.61.97-1.65,2.02-3.26,3.12-4.83.67-.97,1.37-1.91,2.08-2.85,1.07-1.42,2.23-2.79,3.34-4.16.88-1.06,1.67-2.15,2.55-3.2.19-.23.36-.47.58-.68.8-.79,1.15-.95,1.62-.81.11.03.23.05.32.1.31.16.19.68-.27,1.36-1.36,2-3.04,3.83-4.58,5.82-1.17,1.45-2.32,2.93-3.39,4.46l-.04-.02Z"/><path class="cls-1" d="m152.99,192.39c-.35.71-.72,1.42-1.02,2.15-.33.72-.63,1.45-.9,2.19-.3.73-.51,1.49-.76,2.23l-.09.28c-.03.07-.08.3-.12.44l-.25.97-.25.96-.12.48c-.06.13-.02.42-.24.27-.49-.14-.97-.3-1.44-.46-.47-.14-.95-.33-1.43-.55-.59-.26-1.11-.5-1.66-.77-3.77-1.89-7.49-3.82-11.28-5.61-1.68-.8-3.4-1.51-5.1-2.22-2.19-.91-4.41-1.68-6.54-2.73-.62-.5-.55-.4.14-.53.69-.11,1.96-.21,3.31.13,4.73,1.4,9.14,3.52,13.5,5.75,2.6,1.35,5.41,2.56,8.11,3.78l.62.28.2.09.11.04s.04.02.05.01l.02-.06.13-.51.08-.29.18-.61c.23-.82.48-1.62.79-2.41.27-.8.61-1.57.93-2.34.82-1.89,1.75-3.73,2.75-5.51,1.5-2.71,3.18-5.32,4.78-7.91,1.24-2.02,2.35-4.07,3.6-6.05.27-.44.51-.88.8-1.31,1-1.64,1.64-1.95,2.28-2.04.15-.02.31-.07.42-.06.2.01.25.22.22.62-.04.39-.13.98-.42,1.64-.92,1.9-1.89,3.84-3.01,5.71-1.15,1.83-2.32,3.69-3.49,5.55-1.72,2.75-3.42,5.52-4.82,8.41l-.06-.02Z"/><path class="cls-1" d="m143.84,164.84c.65.52,1.32,1.04,2.01,1.52.25.18.54.29.78.48.88.64,1.78,1.27,2.73,1.81.42.24.87.44,1.3.64.58.21,1.12.53,1.65.91.16.13.08.29-.15.44-.23.15-.63.34-1.02.31-.69-.03-1.3-.28-1.93-.5-.59-.29-1.17-.63-1.71-1.03-.65-.47-1.41-.79-2.09-1.22-.74-.5-1.45-1.03-2.14-1.59-.43-.34-.85-.69-1.26-1.04-.62-.54-1.24-1.08-1.86-1.61-.47-.42-.99-.77-1.47-1.19-.11-.09-.22-.17-.3-.28-.31-.42-.35-.62-.22-.89.03-.06.05-.13.09-.18.11-.18.4-.16.76-.01.56.2,1.01.54,1.49.84.48.31.94.64,1.37,1,.66.53,1.31,1.07,1.99,1.57l-.02.04Z"/><path class="cls-3" d="m181.47,129.47c-23.53-5.05-20.2-33.2-18.64-33.89l-20.32-3.23s-3.15.9-3.72,9.38,5.27,27.02,5.27,27.02l37.4.73Z"/><path class="cls-1" d="m143.57,124.71c.23.72.47,1.44.74,2.1l.1.24.05.12v.02s.02.06.04.09c.02.08.09.08.16.07l1.59-.12,1.76-.1c1-.05,2-.15,3-.17,3.53-.06,7.06-.04,10.59.15,1.57.07,3.14.14,4.69.21,1,.05,2,.11,3,.29.5.09,1,.15,1.48.3.48.18.95.35,1.44.53.59.23.49.26-.06.37-.28.06-.67.15-1.13.26-.23.05-.49.14-.75.19-.26.03-.53.05-.81.04-.5-.02-.99-.02-1.49,0-.5,0-.99-.05-1.49-.07-1-.03-1.99-.09-3-.1-2-.08-4.02-.07-6.04-.19-2.43-.11-4.95.1-7.43.23l-2.64.16-1.31.1-.65.06-.78.09c-.2.04-.39.08-.56.06-.18-.01-.35.03-.51-.07-.32-.17-.55-.46-.75-.78-.44-.75-.55-1.1-.75-1.6-.62-1.64-1.07-3.29-1.51-4.94-.65-2.51-1.15-5.05-1.61-7.57-.35-1.96-.78-3.89-.93-5.88-.04-.44-.08-.87-.09-1.31.06-1.65.29-2.18.72-2.5.1-.07.2-.17.29-.21.31-.13.52.53.74,1.67.63,3.38,1.16,6.91,1.92,10.46.57,2.63,1.21,5.27,2.05,7.8l-.05.02Z"/><path class="cls-1" d="m181.79,105.9c.12,1.75.28,3.5.6,5.23.1.64.3,1.25.43,1.87.48,2.2,1.04,4.42,1.86,6.54.33.96.84,1.84,1.29,2.73.33.55.62,1.13.91,1.71.32.56.62,1.14.9,1.73.17.37-.02.45-.42.3-.39-.15-1.04-.49-1.57-1.07-.44-.53-.87-1.07-1.28-1.64-.37-.58-.67-1.2-1-1.81-.61-1.23-1.15-2.51-1.53-3.85-.48-1.58-1.04-3.2-1.44-4.84-.21-.9-.37-1.81-.54-2.72-.12-.92-.29-1.83-.36-2.75l-.16-1.69-.1-1.7c-.1-1.71-.06-3.43-.08-5.13.01-1.32-.11-2.62-.09-3.94,0-.29-.02-.58.02-.87.1-1.08.31-1.4.96-1.54.15-.03.29-.08.44-.09.47-.04.85.45.91,1.22.24,2.3.08,4.63.11,7-.01.88.03,1.76.03,2.64.05.88.07,1.76.15,2.64h-.06Z"/><path class="cls-1" d="m156.39,94.25c1.03.15,2.06.33,3.1.41,1.04.12,2.08.18,3.12.21.76.05,1.52-.05,2.29-.05,2.69-.01,5.39-.19,8.07-.62,1.2-.16,2.35-.54,3.51-.84,1.47-.45,2.91-.95,4.54-1.04.51-.03.49.09.21.5-.19.28-.4.58-.59.86-.26.33-.59.66-.98.93-1.45.82-3.01,1.39-4.62,1.75-.8.22-1.62.33-2.43.47-.81.14-1.64.22-2.47.25-1.98.1-4.01.38-6.03.41-1.11.03-2.21-.05-3.32-.08-1.1-.11-2.21-.16-3.3-.31l-2.02-.28-2-.37c-1.01-.18-2-.48-3-.7-.99-.27-1.97-.55-2.95-.82-.75-.24-1.51-.44-2.27-.63-.75-.22-1.5-.44-2.24-.71-.33-.11-.65-.21-.96-.37-1.17-.55-1.48-.85-1.51-1.44,0-.13-.03-.27-.02-.38.05-.37.68-.51,1.57-.29,2.69.57,5.35,1.41,8.11,1.98,1.01.25,2.05.4,3.07.62,1.04.13,2.06.37,3.1.49v.07Z"/><path class="cls-1" d="m142.24,124.6c.23.99.49,1.97.76,2.94.14.48.28.97.43,1.43l.05.17v.03s.02.06.02.06c.01.04.02.09.05.12.03,0,.08,0,.19,0h.13s.2-.03.2-.03l1.54-.19,3.1-.37c1.51-.18,3.02-.39,4.53-.52,5.35-.44,10.72-.6,16.09-.34l3.58.23c1.19.09,2.38.25,3.56.37,3.01.46,6.13,1.06,8.75,2.79.83.47.62.58-.24.56-.43,0-1.02-.04-1.7-.09-.34-.03-.7-.07-1.1-.07-.2,0-.4-.02-.61-.02-.2-.04-.4-.08-.6-.11-5.77-1.21-11.83-1.55-17.96-1.62-3.67-.02-7.49.4-11.23.8-2.06.21-4.12.48-6.18.75l-.78.1c-.27.03-.47.07-.89.09l-1.12.08-.54-.07c-.13-.13-.26-.26-.38-.39-.22-.3-.41-.65-.54-1.04l-.11-.29-.07-.2-.13-.38c-.16-.51-.31-1.02-.46-1.53-.69-2.51-1.24-5.04-1.72-7.58-.72-3.85-1.21-7.76-1.47-11.65-.19-3.02-.35-6.02,0-9.06.08-.67.18-1.32.33-1.99.13-.62.3-1.12.44-1.55.16-.42.33-.74.47-1,.3-.52.61-.76.93-.91.15-.07.31-.17.44-.19.44-.05.29.95.02,2.64-.73,5.01-.6,10.46.06,15.92.49,4.05,1.21,8.12,2.2,12.1l-.06.02Z"/><path class="cls-1" d="m158.73,103.14c1.18.05,2.37.08,3.56.02.43,0,.86-.08,1.29-.11,1.52-.1,3.05-.24,4.58-.46.68-.09,1.34-.26,2-.42.84-.22,1.67-.49,2.53-.66.27-.05.3.14.14.4-.16.26-.5.61-.97.8-1.7.65-3.46,1.17-5.29,1.38-1.1.09-2.22.3-3.34.4-1.23.1-2.46.13-3.69.12-.76,0-1.52-.03-2.27-.07-1.15-.05-2.29-.22-3.42-.32-.88-.1-1.75-.12-2.61-.28-.19-.03-.38-.05-.57-.09-.7-.15-.91-.3-1.01-.57-.02-.06-.06-.12-.07-.18-.03-.17.29-.31.81-.31,1.56-.03,3.15.08,4.75.15,1.19.05,2.38.1,3.57.15v.04Z"/><path class="cls-2" d="m392.12,90.91s-2.39,7.48-1.63,18.23c.76,10.74,2.99,15.97,7.41,16.23,4.42.25,19.38-3.6,21.9-2.98s-15.86-11.45-7.65-30c0,0-18.73,1.32-20.02-1.47Z"/><path class="cls-1" d="m390.78,116.19c-.54-2.12-.91-4.27-1.2-6.43-.09-.79-.24-1.57-.29-2.37-.17-2.8-.06-5.61.23-8.39l.29-1.84.14-.92.21-.9c.2-.76.32-1.55.6-2.29.31-.73.64-1.45.97-2.17.21-.44.22-.36.21.07-.03.43,0,1.23-.1,2.11l-.3,2.32c-.05.38-.11.76-.15,1.15l-.07,1.16c-.2,1.53-.31,3.08-.43,4.64-.1,1.88.12,3.83.36,5.73.23,2.1.59,4.2,1.05,6.27.3,1.27.62,2.54,1.02,3.79.3.94.61,1.89.97,2.81.17.47.37.92.57,1.36.1.23.21.44.32.65l.16.31c.05.06.09.13.13.2.96.9,2.48,1.24,3.86,1.35.31.03.62.02.93.02,1.14.1,1.49.17,1.83.59.08.09.18.18.23.28.21.3-.27.76-1.3.99-.75.18-1.52.16-2.29.08-.77-.09-1.54-.26-2.32-.55-.77-.29-1.55-.69-2.27-1.36-.1-.11-.21-.26-.3-.39-.1-.14-.19-.29-.22-.36l-.28-.54c-.18-.36-.32-.7-.48-1.05-.89-2.06-1.54-4.17-2.1-6.3l.05-.02Z"/><path class="cls-1" d="m404.51,90.81c1.97.05,3.95.05,5.93-.06.72-.06,1.44-.16,2.16-.23,2.55-.21,5.07-.65,7.61-1.13,1.12-.25,2.23-.54,3.31-.89,1.39-.44,2.77-.94,4.2-1.31.45-.12.4-.08.08.16-.33.21-.88.76-1.63,1.18-2.72,1.34-5.55,2.56-8.58,3.11-1.81.31-3.67.76-5.53,1.02-2.04.29-4.11.43-6.17.47-1.27.02-2.54-.01-3.8-.05-1.92-.07-3.84-.27-5.73-.44-1.48-.13-3-.18-4.55-.69-.34-.11-.69-.22-1.01-.41-1.22-.71-1.34-1.34-1.07-1.93.06-.14.11-.28.19-.39.13-.19.35-.25.62-.24.27.01.61.04.93.19,1,.36,2.05.64,3.26.82,1.19.19,2.54.29,3.86.43,1.97.18,3.95.31,5.94.34v.06Z"/><path class="cls-1" d="m424.62,98.43c-.09,1.6-.1,3.21,0,4.82,0,.59.13,1.17.17,1.76.14,2.08.45,4.15.91,6.2.17.92.48,1.81.75,2.69l.61,1.68c.22.56.42,1.12.6,1.69.11.36-.06.39-.38.19-.31-.2-.8-.63-1.17-1.24-.61-1.1-1.19-2.22-1.66-3.4-.49-1.16-.86-2.39-1.01-3.65-.24-1.5-.62-3.03-.82-4.57-.22-1.69-.25-3.4-.22-5.1l.05-1.57.11-1.56c.12-1.58.36-3.14.6-4.69.11-.6.19-1.2.27-1.79.09-.6.2-1.19.31-1.78.04-.26.11-.52.2-.77.33-.94.56-1.2,1.01-1.28.1-.02.21-.05.3-.05.31,0,.46.46.43,1.18-.04.53-.03,1.07-.09,1.6-.06.53-.12,1.06-.18,1.59-.05.54-.1,1.07-.17,1.61-.05.54-.09,1.08-.18,1.61-.12.79-.17,1.6-.27,2.4-.04.8-.13,1.61-.14,2.42h-.05Z"/><path class="cls-1" d="m391.7,115.35c.12.81.26,1.61.44,2.4.15.8.35,1.59.55,2.38.18.8.44,1.57.66,2.35.11.39.25.78.38,1.16l.35,1.02c.02.07.09.12.15.14.05.04.14.07.24.1.1.03.18.07.31.08.44.1,1,.11,1.55.14,1.99.01,4.11-.31,6.2-.66,2.1-.36,4.21-.79,6.32-1.2,1.88-.36,3.75-.8,5.65-1.09,1.22-.18,2.44-.39,3.7-.39,1.25.03,2.55.15,3.74.72.72.44.49.48-.15.42-.66-.05-1.78.16-3.09.41-.58.11-1.17.2-1.76.28-.59.09-1.18.21-1.78.32-1.19.26-2.38.5-3.59.74-2.41.5-4.84,1.03-7.32,1.46-1.5.27-3.02.54-4.55.82-1.55.24-3.13.49-4.88.3-.25-.05-.49-.09-.74-.15-.26-.1-.51-.15-.78-.3l-.44-.25c-.14-.1-.25-.23-.38-.35-.3-.19-.37-.59-.48-.84-.28-.81-.59-1.61-.83-2.44-.25-.82-.5-1.64-.71-2.47-.23-.83-.42-1.66-.59-2.5-.44-2.06-.75-4.14-.96-6.23-.33-3.16-.36-6.36-.26-9.5.09-2.44.12-4.86.41-7.27.05-.53.13-1.05.22-1.58.09-.49.16-.9.26-1.24.1-.33.23-.59.34-.81.23-.42.46-.64.77-.79.14-.07.28-.17.4-.2.4-.1.59.77.55,2.2-.06,1.06-.17,2.12-.22,3.2-.1,1.07-.18,2.15-.26,3.23-.13,2.17-.24,4.37-.21,6.58.02,3.27.28,6.56.84,9.8h-.06Z"/><path class="cls-1" d="m403.63,95.35c.99.04,1.98.06,2.97.05.36,0,.72-.04,1.08-.05,1.27-.03,2.56.04,3.83-.03.57-.02,1.13-.09,1.69-.13.72-.07,1.44-.15,2.17-.19.23-.01.2.04.03.14-.18.1-.51.27-.91.38-1.44.4-2.9.7-4.4.8-.89.07-1.82.23-2.73.27-1.01.06-2.02.09-3.02.1h-1.86c-.94.01-1.88-.02-2.81,0-.72,0-1.44.1-2.16.09-.16,0-.31,0-.47,0-.59-.05-.77-.16-.88-.48-.03-.07-.06-.14-.07-.21-.04-.24.21-.43.64-.52,1.28-.32,2.61-.37,3.94-.32.99.03,1.99.05,2.98.08v.03Z"/><path class="cls-5" d="m367.06,216.17c19.3-7.77-1.93-35.15-1.93-35.15,0,0,14.46-4.57,17.89-.1,3.43,4.47,6.11,26.39,6.11,26.39,0,0,3.25,6.65,0,7.47s-22.07,1.38-22.07,1.38Z"/><path class="cls-1" d="m372.96,215.91c-1.22,0-2.45-.06-3.66.05-.45.02-.88.11-1.32.17-1.55.16-3.11.44-4.57.98-.67.2-1.26.58-1.86.9-.36.26-.73.49-1.1.72-.19.12-.35.27-.55.36-.21.09-.42.17-.64.27-.28.1-.37-.05-.36-.41,0-.18.04-.41.1-.68.05-.28.18-.55.39-.73.38-.32.77-.65,1.19-.91.42-.27.88-.46,1.33-.69.91-.4,1.85-.71,2.82-.89,1.15-.23,2.31-.56,3.49-.73,1.29-.16,2.58-.25,3.87-.26.79,0,1.58.02,2.37.05,1.19.06,2.38.13,3.56.19.91.04,1.82-.03,2.72.02.2,0,.4,0,.59.02.74.07.96.22,1.08.65.03.1.07.2.08.29.04.32-.29.57-.83.65-.81.1-1.64.2-2.48.21-.83,0-1.67-.04-2.5-.07-1.24-.05-2.48-.11-3.71-.1v-.05Z"/><path class="cls-1" d="m387.95,191.48c.45,1.77.86,3.56,1.27,5.34.15.66.33,1.3.45,1.96.37,2.35.63,4.71.83,7.06.03,1.05.17,2.09.21,3.13.03.67.1,1.33.1,2,.02.67-.12,1.34-.22,2-.08.41-.28.36-.56.01-.26-.35-.75-.97-.89-1.7-.38-2.63-.89-5.18-1.08-7.84-.15-1.59-.65-3.18-1.06-4.76-.41-1.75-.84-3.51-1.31-5.26-.29-1.08-.58-2.16-.89-3.24-.48-1.63-.9-3.29-1.4-4.91-.39-1.26-.9-2.46-1.31-3.72-.09-.28-.21-.54-.28-.82-.24-1.06-.15-1.43.45-1.8.12-.08.23-.17.34-.23.32-.17.99.13,1.31.84,1.01,2.1,1.79,4.35,2.57,6.66.58,1.71,1.02,3.49,1.54,5.25l-.06.02Z"/><path class="cls-1" d="m355.08,183.79c-1.56.47-3.11,1-4.6,1.64-.16.06-.16.05-.26.09-.02.06,0,.14.02.22.14.71.34,1.6.51,2.39.27,1.19.61,2.36.89,3.55.96,4.2,1.99,8.43,2.61,12.74.28,1.91.52,3.84.66,5.75.23,2.45.1,4.96-.35,7.38-.13.76-.24.63-.35-.02-.06-.33-.13-.79-.19-1.34-.06-.55-.19-1.19-.22-1.88-.25-2.44-.46-4.86-.89-7.28-.2-1.21-.44-2.41-.68-3.62-.23-1.22-.46-2.43-.69-3.66-.56-2.93-1.5-5.91-2.28-8.89l-.62-2.47-.3-1.24-.33-1.46-.22-.99-.05-.25-.03-.12v-.06s.05-.03.05-.03l.47-.21,1.66-.73c.79-.33,1.6-.63,2.41-.93,1.99-.71,4.03-1.27,6.07-1.77,3.1-.73,6.26-1.2,9.38-1.63,2.42-.32,4.79-.69,7.2-.96.53-.06,1.05-.11,1.58-.14,1.98-.1,2.62.04,3.07.57.1.12.24.23.3.34.21.37-.58.81-2.01,1.05-2.12.41-4.29.67-6.49.93-2.2.27-4.41.54-6.61.9-3.27.51-6.52,1.19-9.66,2.17l-.02-.05Z"/><path class="cls-1" d="m370.81,215.04c1.63-.13,3.25-.22,4.87-.31.59-.03,1.17-.13,1.76-.16,2.07-.11,4.15-.12,6.22-.19.92-.03,1.84-.13,2.74-.22,1.16-.19,2.34-.13,3.53-.04.37.04.34.22.06.5-.28.27-.81.7-1.47.93l-.87.27c-.29.09-.59.1-.89.15-.59.08-1.19.16-1.78.22-1.19.13-2.39.21-3.6.23-1.44.04-2.93.25-4.4.37-1.62.12-3.23.22-4.83.37-.99.09-1.97.19-2.95.32-1.48.21-2.97.4-4.4.78-1.11.29-2.14.77-3.21,1.12-.23.08-.45.19-.69.26-.88.28-1.2.28-1.56-.06-.08-.08-.18-.14-.24-.22-.21-.27.03-.68.64-1.1.91-.57,1.86-1.21,2.91-1.57,1.04-.39,2.13-.7,3.23-.95,1.62-.4,3.29-.58,4.92-.76v.06Z"/><path class="cls-1" d="m369.73,185.07c-1.34-.05-2.68-.09-4-.06-.48,0-.97.06-1.45.08-1.7.09-3.41.19-5.07.59-.74.16-1.46.42-2.16.67-.91.33-1.8.72-2.66,1.17-.27.14-.25.1-.06-.08.19-.18.54-.53,1.01-.86,1.67-1.21,3.69-1.82,5.71-2.15,1.21-.19,2.46-.41,3.71-.49,1.37-.09,2.73-.1,4.09-.09l2.5.02c1.26-.01,2.52.05,3.77-.02.97-.05,1.91-.19,2.84-.33l.62-.1c.77-.11,1.02-.1,1.24.12.05.05.11.1.14.15.11.17-.18.39-.75.56-1.69.49-3.55.73-5.38.84-1.37.12-2.73.02-4.09.01v-.03Z"/><path class="cls-1" d="m295.34,82.36c.62-1.91,1.02-4.07,1.37-6.18.12-.78.18-1.56.29-2.34.38-2.75.78-5.52,1.06-8.3.1-1.24.21-2.48.31-3.71.06-1.58.31-3.16.54-4.74.08-.49.09-.43.19,0,.09.42.38,1.19.56,2.11.18.82.23,1.63.28,2.45.05.82.09,1.63.11,2.45-.08,1.63-.23,3.26-.45,4.89-.26,1.95-.38,3.99-.64,5.99-.3,2.2-.65,4.38-1.19,6.57-.15.58-.3,1.16-.51,1.74-.1.29-.22.58-.36.88-.07.15-.14.3-.25.46-.1.18-.26.34-.4.5-.23.16-.49.34-.72.4-1.13.4-2.14.5-3.19.63-1.04.11-2.08.18-3.11.22-1.6.06-3.18.22-4.8.05-.35-.03-.7-.08-1.06-.15-1.33-.26-1.69-.7-1.83-1.11-.03-.1-.08-.2-.09-.29,0-.29.54-.32,1.45-.36,2.66-.04,5.5-.07,8.32-.4.72-.08,1.43-.17,2.13-.28.33-.07.69-.12.97-.21.17-.04.29-.08.39-.12.1-.03.05-.01.07-.02.01,0,0,.02.04-.05.05-.06.1-.2.16-.3.11-.25.21-.53.3-.82h.05Z"/><path class="cls-1" d="m274.1,44.08l5.5,1.47c.67.18,1.35.28,2.02.46,2.35.64,4.69,1.3,7.04,1.87,1.04.24,2.11.42,3.15.59,1.35.19,2.68.39,3.98.89.42.16.37.28,0,.55-.19.13-.46.32-.8.54-.35.2-.73.3-1.15.34-2.96.16-5.7-.66-8.43-1.49-1.63-.52-3.38-.79-5.06-1.2l-5.55-1.38c-1.14-.28-2.28-.56-3.42-.82-1.73-.39-3.46-.8-5.2-1.05-1.35-.19-2.69-.23-4.02-.25-.29,0-.58.01-.87,0-1.07,0-1.39-.32-1.61-.95-.05-.15-.12-.3-.15-.44-.1-.48.37-.88,1.24-1.06,2.56-.26,5.14.13,7.69.61,1.89.37,3.76.82,5.63,1.26v.06Z"/><path class="cls-1" d="m260.84,68.26c.23-2.06.39-4.13.48-6.2.05-.76-.02-1.51,0-2.27.12-2.66.14-5.34-.09-7.99-.06-.59-.13-1.17-.21-1.76-.11-.58-.25-1.15-.35-1.72-.11-.75-.36-1.44-.53-2.17-.19-.72-.3-1.45-.46-2.21-.08-.48.03-.47.39-.19.18.14.43.34.73.61.15.13.31.28.47.45l.25.26.13.31c1.34,3.02,1.69,6.26,1.73,9.45,0,1.91.23,3.88.19,5.83-.03,2.14-.16,4.27-.33,6.39-.12,1.31-.25,2.61-.39,3.91-.22,1.97-.52,3.94-.81,5.9-.22,1.52-.34,3.03-.62,4.56-.06.34-.1.67-.21,1-.17.61-.4,1.01-.62,1.24-.26.22-.5.31-.78.35-.13.02-.25.05-.36.05-.18,0-.29-.16-.39-.43-.09-.27-.21-.67-.14-1.09.07-1.31.33-2.61.51-3.96.19-1.35.42-2.71.6-4.1.15-1.02.28-2.05.4-3.09.14-1.03.23-2.07.32-3.11h.06Z"/><path class="cls-1" d="m289.03,84.76l4.04.34,1.99.12.49.02h.22s.05,0,.05,0c.07,0,.14.01.21,0,.04-.09.04-.12.08-.3l.21-1.26c.2-1.28.33-2.57.51-3.86.63-4.53,1.15-9.09,1.47-13.66.13-2.03.17-4.07.2-6.08,0-1.29-.05-2.59-.01-3.88.02-1.3.05-2.59.23-3.9.11-.82.07-.71.31-.04.12.33.33.81.62,1.38.25.58.41,1.27.54,2.03.73,5.37.28,10.75-.35,16.09-.4,3.2-.62,6.54-1.04,9.81l-.34,2.49-.19,1.25c-.03.32-.14.64-.23.93-.09.31-.18.61-.32.85-.33.15-.62.31-1.02.33-.19.02-.37.05-.57.06h-.49c-.51,0-1,0-1.49-.03-.98-.04-1.95-.1-2.92-.17-2.22-.17-4.43-.33-6.65-.5-3.35-.25-6.71-.54-10.03-.66-2.58-.1-5.12-.02-7.65.1-.55.04-1.1.07-1.65.11-1.03.02-1.69.05-2.16-.06-.47-.13-.77-.37-1.03-.61-.12-.11-.28-.19-.36-.27-.14-.14-.02-.31.34-.65.36-.35.98-.66,1.78-.77,2.36-.4,4.75-.42,7.16-.41,2.41.03,4.84.16,7.26.32,3.6.24,7.21.57,10.8.85v.06Z"/><path class="cls-1" d="m277,48.81l3.36,1.07c.42.11.83.22,1.24.34,1.45.43,2.88.95,4.33,1.37.64.19,1.3.34,1.94.52.83.22,1.66.43,2.47.73.25.09.19.2-.06.29-.25.09-.7.19-1.2.14-.87-.11-1.76-.17-2.62-.38-.86-.2-1.71-.43-2.55-.71-1.01-.32-2.09-.53-3.13-.84-1.14-.33-2.28-.68-3.42-1.04l-2.1-.66c-1.06-.33-2.12-.67-3.17-1-.82-.25-1.64-.44-2.45-.68-.18-.05-.36-.09-.53-.16-.65-.26-.83-.41-.91-.67-.02-.06-.04-.12-.05-.17-.01-.17.3-.23.82-.18.77.05,1.53.22,2.3.37.77.17,1.56.3,2.31.55,1.13.35,2.27.7,3.4,1.05v.03Z"/><path class="cls-1" d="m214.84,177.72c-.93-2.36-1.68-4.85-2.12-7.39-.45-2.53-.68-5.08-.7-7.61-.1-5.06.44-10.07,1.21-15,.58-3.6,1.26-7.18,2.12-10.71,1.51-6.23,3.44-12.33,5.62-18.34,2.2-6,4.63-11.91,7.43-17.65,1.25-2.55,2.54-5.08,3.99-7.54.35-.62.74-1.22,1.11-1.83.18-.31.39-.6.58-.9l.41-.61.22-.33.11-.16c.04-.06.07-.12.14-.08.26.05.52.09.78.15l.69.15,1.03.23,2.06.48c3.51.85,7.01,1.81,10.42,3.07,1.71.63,3.38,1.35,5,2.19,1.62.84,3.2,1.76,4.64,2.89,1.75,1.48,1.35,1.41-.28.45-1.66-.93-4.83-2.29-8.7-3.56-3.41-1.2-6.92-2.15-10.46-2.97l-2.67-.58-1.34-.28-.3-.06h0s0,0,0,0c0,0,0,0-.01,0l-.35.54-.69,1.16c-.47.77-.89,1.57-1.33,2.36-3.48,6.36-6.41,13.09-9.09,19.94-3.19,8.2-5.7,17.05-7.58,25.84-1.03,4.83-1.79,9.72-2.17,14.62-.34,4.9-.32,9.85.66,14.61,1.25,5.84,4.04,11.34,7.09,16.57,4.7,7.93,10.31,15.39,15.85,22.75,4.32,5.72,8.72,11.21,12.68,17.15.87,1.31,1.71,2.61,2.5,3.99,1.48,2.57,2.23,4.4,2.62,5.74.37,1.35.46,2.16.37,2.84-.04.31-.04.7-.11.88-.28.62-.91-1.63-2.99-5.25-2.97-5.43-6.86-10.62-10.81-15.85-3.97-5.23-8.13-10.47-12.12-15.9-2.96-4.03-5.85-8.14-8.53-12.43-2.68-4.28-5.16-8.74-7.05-13.53l.05-.03Z"/><path class="cls-1" d="m266.57,111.12c-3.03,2.93-5.67,6.53-6.84,10.43-.39,1.4-.45,2.89-.04,3.93.22.43.44.83.87,1.08.1.07.19.14.3.21l.43.19c.29.14.58.26.88.34,1.2.4,2.48.52,3.77.39,2.61-.25,5.19-1.43,7.66-2.76,2.21-1.18,4.34-2.63,6.67-3.79,1.49-.72,3.08-1.5,4.91-1.58.89-.05,1.84.01,2.69.38.43.15.81.42,1.19.64.34.29.71.53.99.86.71.8.49.76-.33.45-.2-.09-.46-.15-.75-.21-.28-.08-.61-.11-.95-.12-.69,0-1.38.06-2.13.17-.67.09-1.32.32-2.01.56-.68.22-1.38.55-2.07.89-1.38.7-2.76,1.56-4.2,2.36-2.87,1.63-5.91,3.39-9.47,4.17-2.11.45-4.47.56-6.67-.14-.56-.14-1.07-.39-1.6-.6-.55-.31-1.17-.65-1.6-1.19-.91-1.01-1.33-2.36-1.35-3.53-.03-1.3.15-2.55.53-3.7.33-1.17.82-2.25,1.34-3.31,1.09-2.09,2.44-3.99,3.96-5.73,1.87-2.14,4.03-4.06,6.43-5.59,1.81-1.17,3.75-2.14,5.81-2.82,2.05-.68,4.19-1.16,6.38-1.12,3.39-.11,6.83,1.13,9.39,3.43.57.5,1.15.97,1.59,1.59.44.55.79,1.02,1.07,1.42.22.43.35.81.44,1.12.2.62.16,1.05.02,1.44-.06.18-.09.38-.16.5-.19.36-1.23-.31-2.29-1.76-1.66-2.1-3.7-3.85-6.14-4.72-2.43-.87-5.22-.82-7.89-.12-3.99,1.04-7.79,3.31-10.8,6.26l-.05-.04Z"/><path class="cls-1" d="m328.88,136.44c-1.77-4.41-3.71-8.76-5.66-13.13l-2.18-4.76-.91-2.12-.45-1.06c-.05-.12-.23-.5-.33-.78l-.1-.44c.11-.15.01-.3.09-.45.08-.3.28-.57.46-.84.19-.26.28-.36.42-.55.27-.32.54-.62.82-.92.57-.58,1.17-1.12,1.79-1.62,2.49-2.02,5.32-3.5,8.25-4.61,2.6-.99,5.32-1.69,8.02-2.18,1.75-.27,3.51-.45,5.27-.54.88-.02,1.76-.05,2.64.02.88.04,1.76.11,2.63.22,1.09.12.93.32,0,.57-.93.23-2.6.68-4.55.92-1.73.16-3.46.38-5.15.72-1.7.31-3.39.63-5.04,1.11-3.31.92-6.5,2.28-9.36,4.18-.85.57-1.67,1.21-2.42,1.92-.38.35-.73.73-1.06,1.11-.17.19-.32.39-.47.59l-.12.17s-.05.07-.07.11c-.06.08.04.16.05.25l.31.67.69,1.5c.46,1,.92,1.99,1.38,2.99,2.01,4.37,4.01,8.77,5.9,13.21,1.17,2.73,2.27,5.5,3.32,8.29,1.57,4.23,2.93,8.57,3.98,12.94.86,3.39,1.46,6.79,1.82,10.26.04.77.1,1.52.1,2.3.05,2.89-.46,3.79-.98,4.34-.13.13-.25.3-.37.36-.19.11-.34-.13-.49-.65-.14-.52-.32-1.32-.3-2.32-.24-5.97-1.39-12.17-3.16-18.29-1.34-4.54-2.99-9.03-4.83-13.45l.05-.03Z"/><path class="cls-1" d="m299.24,205.99c.99.93,2,1.85,3.06,2.68.39.31.81.56,1.21.85,1.36,1.08,2.79,2.11,4.34,2.91.68.38,1.41.66,2.13.94.95.29,1.87.64,2.8,1.09.29.14.22.27-.08.4-.3.12-.86.34-1.49.34-2.14-.24-4.22-.99-6.02-2.18-1.08-.7-2.29-1.26-3.36-2.03-1.15-.85-2.27-1.75-3.33-2.7-.66-.57-1.29-1.18-1.94-1.76-.96-.9-1.89-1.84-2.86-2.71-.75-.68-1.55-1.28-2.31-1.93-.17-.14-.34-.27-.5-.42-.57-.59-.59-.94-.39-1.39.05-.1.08-.21.13-.3.17-.28.65-.3,1.23-.04,1.6.91,3.07,2.06,4.4,3.36,1,.95,1.99,1.91,3.01,2.83l-.03.04Z"/><path class="cls-1" d="m293.74,282.82c-5.45-1.05-10.94-1.89-16.46-2.4-2.01-.2-4.04-.26-6.05-.37-3.55-.19-7.11-.22-10.64.04-3.5.28-7.06.76-10.2,2.13-1.42.52-2.66,1.5-3.55,2.46-.32.42-.34.87-.15,1.45.2.57.61,1.16,1.08,1.71,1.24,1.41,2.88,2.57,4.5,3.69.81.57,1.64,1.12,2.48,1.66.43.25.82.57,1.21.9.4.32.8.62,1.21.92,1.02.73.86.77-.31.7-.58-.04-1.41-.12-2.43-.22-.98-.18-2.02-.64-3.07-1.24-.94-.54-1.83-1.16-2.69-1.86-.86-.69-1.7-1.42-2.49-2.29-.77-.88-1.57-1.84-2.03-3.3-.21-.73-.27-1.7.07-2.57.16-.43.4-.83.67-1.14l.2-.24.17-.15.35-.3c.91-.86,1.95-1.41,2.97-1.96l1.56-.69,1.59-.52c.53-.19,1.06-.3,1.59-.42.53-.11,1.06-.26,1.6-.34,1.07-.15,2.14-.36,3.21-.43,5.11-.49,10.38-.62,15.55-.32,5.68.33,11.31,1.03,16.9,1.98,3.44.56,6.86,1.27,10.26,2,5.15,1.14,10.27,2.51,15.29,4.03,3.89,1.2,7.73,2.36,11.49,3.96.82.38,1.65.68,2.45,1.11,3.01,1.55,3.81,2.46,3.94,3.45.04.22.12.46.11.62-.02.27-.36.27-.97.13-.32-.06-.65-.22-1.05-.41-.42-.18-.88-.4-1.39-.68-3.08-1.57-6.47-2.83-9.93-4.04-3.47-1.19-7.05-2.29-10.67-3.26-5.37-1.47-10.85-2.71-16.35-3.73v-.06Z"/><path class="cls-1" d="m304.74,126.69c-.08.13-.17.22-.28.27-.07.03-.13.09-.2.14-.05.04-.1.08-.16.11-.16.06-.31.17-.45.3-.25.31-1.81.62-1.96.66-.23.08-.96.15-1.08.25-.12.11-.72.13-.88.23-.06.04-.13.04-.2.04-.29,0-.53.36-.82.37-.18,0-.35.05-.53.07-.04,0-.08.03-.12.03-.46-.04-.9.16-1.36.13-.09,0-.19-.01-.28-.02-.06,0-.12-.02-.18,0-.31.13-.64.04-.96-.02-.04,0-.09-.04-.13-.01-.22.17-.47.02-.7.07-.07.02-.15,0-.23-.01-.06,0-.12-.03-.18-.01-.26.09-.52.04-.78.05-.02,0-.03,0-.05,0-.27.13-.56-.04-.83-.16-.17-.08-.34-.13-.5,0-.03.02-.07.04-.1.02-.17-.13-.34-.15-.51-.21,0,0-.02-.02-.02-.03-.03-.02-.07-.46-.07-.55,0-.08.08-1.23.11-1.28.02-.03.04-.08.06-.1.07-.05.14-.13.18-.36.02-.12.07-.16.11-.16.33.1.64-.04.97-.03.14,0,.27-.05.41-.07.68-.11,1.37-.11,2.05-.19.12-.01.24,0,.37.05.12.05.23.05.34.04.19-.02.38-.07.58-.09.27-.03.54-.05.82-.08l1.39-.04s.03,0,.05,0c.25-.24,1.12-.2,1.18-.21.25-.03.5-.08.75-.09.25-.02.49-.07.76-.02.23.04.44,0,.67,0,.03,0,.06-.01.1,0,.19.04.65.05,1.1.09.46.09.89.15.98.16.04,0,.09.03.13.07.04.04.09.06.13.09.04.03.07.08.11.11.04.02.08.02.13.04.04.01.07.06.07.11,0,.05.02.23.02.28Z"/><path class="cls-1" d="m407.05,244.99c.12.26-.05.53-.33.8-.09.08-.39.13-.45.06-.12-.14-.25-.27-.35-.42-.05-.09-.7-1.54-.91-2.04-.22-.48-.37-.97-.51-1.46l-.69-3.04c-.05-.23-.07-.46-.07-.69,0-.8-.14-1.58-.34-2.35-.03-.13-.05-.26-.16-.37-.22-.18-.57-2.29-.53-2.58.07-.71.06-1.41.09-2.11,0-.1-.05-.2.05-.3.22-.25.15-.45.15-.66,0-.3-.02-.59.05-.9.03-.15.14-.32.22-.47.07-.14.35-.11.39-.07.11.12.23-.01.35-.04.04-.01.09-.02.12-.02.02,0,.34.39.6.8.26.41.53.84.55.93.02.02.18.63.36,1.27.18.64.36,1.3.41,1.44.05.14.02.29.01.44.02.07.53,1.98.52,2.06.03.41.18.8.02,1.24-.03.09,0,.17,0,.25.13.69.15,1.4.2,2.1.03.36.11.71.16,1.07,0,.06-.01.13-.02.2,0,.08-.02.17,0,.25.16.83.12,1.71.29,2.54.04.19-.07,1.16-.04,1.39.02.13-.2.59-.15.69Z"/><path class="cls-1" d="m424.39,230.4c.22,0,.23.29.15.71-.03.14-.23.47-.31.5-.15.05-.3.09-.44.12-.08,0-1.14-.24-1.53-.29-.36-.06-.71-.15-1-.32l-1.88-.94c-.14-.07-.26-.17-.37-.28-.38-.4-.85-.66-1.34-.87-.08-.03-.15-.09-.28-.05-.21.08-1.44-.68-1.56-.83-.31-.39-.66-.72-.99-1.08-.05-.05-.13-.06-.12-.18,0-.29-.14-.33-.25-.42-.16-.13-.3-.27-.42-.46-.06-.09-.08-.25-.11-.39-.03-.12.17-.37.21-.38.13-.04.14-.21.2-.32.02-.04.05-.09.07-.12.05-.06,1.39-.11,1.5-.04.02,0,.41.17.83.33.42.17.86.34.95.36.1.03.16.12.23.2.04.03,1.31.5,1.34.55.22.17.5.24.63.57.02.07.08.08.13.11.42.22.79.54,1.17.84.19.15.42.25.62.38.04.02.06.07.09.11.04.04.07.1.12.12.5.28.95.66,1.45.95.12.07.52.63.66.69.08.04.16.45.25.45Z"/><path class="cls-1" d="m91.89,173.71c-.26-.12-.22-.45-.02-.89.07-.14.39-.42.49-.41.19.03.38.05.55.1.1.04,1.28.88,1.72,1.13.42.25.78.54,1.13.85.7.64,1.39,1.29,2.1,1.91.16.14.29.3.41.48.41.61.95,1.1,1.53,1.53.1.07.18.16.33.17.23.02,1.76,1.24,1.89,1.48.35.57.75,1.07,1.14,1.59.06.07.15.11.15.24,0,.31.18.4.31.55.19.2.37.41.53.65.07.13.1.32.14.48.04.15-.18.33-.23.33-.16,0-.16.17-.22.27-.02.04-.05.08-.07.1-.05.06-1.78-.32-1.91-.45-.04-.02-2.04-1.24-2.3-1.39-.12-.07-.19-.21-.27-.33-.04-.05-1.59-1.15-1.64-1.21-.27-.28-.62-.48-.75-.91-.03-.08-.09-.13-.15-.18-.51-.43-.94-.96-1.37-1.47-.22-.26-.49-.48-.73-.73-.04-.04-.06-.11-.1-.16-.04-.07-.07-.15-.13-.2-.59-.55-1.03-1.25-1.62-1.81-.14-.13-.54-.97-.7-1.11-.09-.08-.11-.59-.21-.64Z"/><path class="cls-1" d="m93.87,194.13c-.09.2-.34,0-.68-.41-.11-.13-.32-.59-.31-.68.03-.17.06-.34.11-.47.03-.08.8-.76,1.06-1.01.25-.24.54-.41.83-.55.6-.29,1.19-.6,1.82-.84.14-.05.29-.08.44-.08.54,0,1.01-.15,1.48-.36.08-.03.16-.04.21-.16.08-.21,1.4-.6,1.6-.54.48.09.93.08,1.4.17.07.01.13-.03.21.07.19.23.31.17.45.17.19,0,.38.02.58.07.1.03.21.14.32.22.1.08.12.41.1.45-.06.12.03.26.07.39.01.05.03.1.03.14,0,.06-.86.96-.96,1.02-.02.04-1.4.64-1.54.74-.08.05-.18.02-.27,0-.05,0-1.12.52-1.16.53-.24.04-.44.2-.75.06-.06-.03-.1,0-.15.02-.39.16-.82.21-1.23.3-.21.04-.4.15-.61.21-.04.01-.09,0-.13-.01-.05,0-.11-.02-.16,0-.47.19-1,.25-1.44.52-.1.06-.73.04-.84.12-.06.04-.44-.18-.48-.1Z"/><path class="cls-1" d="m355.55,58.31c.18.11-.07.29-.56.53-.16.08-.66.2-.75.17-.16-.04-.32-.09-.43-.15-.07-.04-.53-.76-.71-.99-.17-.23-.26-.48-.34-.74l-.49-1.55c-.03-.12-.04-.24-.03-.37.06-.44-.04-.84-.2-1.23-.03-.06-.03-.14-.14-.18-.19-.06-.45-1.15-.4-1.32.1-.4.11-.77.18-1.16.01-.06-.03-.1.07-.18.22-.17.16-.27.16-.38,0-.16,0-.32.07-.49.03-.09.14-.19.22-.29.07-.09.36-.12.4-.11.11.04.23-.05.35-.08.04-.01.09-.03.13-.03.07-.01.98.68,1.02.77.06.01.58,1.22.67,1.34.05.07.01.16,0,.24,0,.04.46.99.45,1.04.02.22.16.4,0,.67-.03.05-.01.09,0,.13.12.35.12.73.15,1.1.02.19.09.37.13.55,0,.03-.02.07-.02.11,0,.05-.03.1-.02.14.12.43.11.89.31,1.3.04.1-.09.63-.03.74.03.06-.27.36-.19.4Z"/><path class="cls-1" d="m365.57,60.25c-.05.24-.33.24-.75.11-.13-.04-.43-.29-.43-.37,0-.16-.01-.33,0-.47.01-.09.61-1.17.81-1.55.19-.37.43-.69.69-1,.52-.63,1.04-1.28,1.59-1.89.12-.14.27-.25.42-.35.54-.34.99-.77,1.42-1.23.07-.08.16-.14.18-.27.03-.21,1.28-1.37,1.5-1.45.53-.22,1.02-.48,1.53-.72.07-.04.12-.1.23-.08.25.05.37-.07.51-.16.19-.13.41-.23.64-.31.11-.04.27-.02.41-.03.13,0,.24.24.23.28-.03.13.11.18.18.26.02.03.06.06.07.09.02.05-.65,1.3-.75,1.39-.01.01-.34.36-.69.74-.34.38-.68.79-.75.87-.07.09-.19.12-.29.17-.06.02-1.05,1.15-1.09,1.19-.25.19-.42.46-.77.54-.07.02-.11.07-.15.11-.37.39-.79.72-1.21,1.06-.22.17-.39.38-.59.57-.04.03-.09.05-.13.08-.05.03-.12.06-.16.11-.44.47-.97.88-1.35,1.41-.09.12-.72.52-.81.67-.06.08-.47.14-.49.24Z"/></svg>