<?xml version="1.0" encoding="UTF-8"?><svg id="Layer_1" xmlns="http://www.w3.org/2000/svg" width="520" height="520" viewBox="0 0 520 520"><defs><style>.cls-1{opacity:.35;}.cls-1,.cls-2,.cls-3,.cls-4{fill:#231f20;stroke-width:0px;}.cls-2{opacity:.2;}.cls-3{opacity:.45;}</style></defs><path class="cls-4" d="m268.88,469.66c-.5-.07-1.01-.1-1.51-.2-.18-.03-.37,0-.55-.04-.65-.12-1.3-.24-1.95-.3-.29-.03-.57,0-.86-.02-.36,0-.73-.01-1.1-.1-.12-.03-.11-.13-.02-.26.09-.13.25-.32.45-.4.72-.3,1.45-.44,2.2-.4.45.03.9-.12,1.36-.17.5-.07,1-.07,1.51-.06.31,0,.62,0,.93,0,.47-.01.94,0,1.4-.07.36-.06.7-.25,1.05-.39.08-.03.15-.08.23-.1.29-.07.39.07.5.69l.07.42c.06.48-.03.89-.24,1.03-.61.43-1.28.48-1.96.49-.5,0-1.01-.04-1.52-.06v-.05Z"/><path class="cls-4" d="m276.66,471.33c-.65-.11-1.3-.21-1.96-.3-.24-.03-.48-.01-.71-.05-.84-.12-1.68-.26-2.51-.35-.38-.03-.74-.05-1.11-.08-.47-.02-.95-.03-1.42-.17-.15-.04-.13-.21,0-.4.12-.19.35-.43.63-.5.48-.11.97-.21,1.45-.28.48,0,.97.03,1.46.11.58.1,1.19,0,1.79,0,.66,0,1.31.03,1.97.06.4.02.81.03,1.21.05.61.02,1.23.07,1.83.03.47-.03.93-.2,1.4-.31.1-.02.2-.07.31-.09.38-.05.51.1.59.71.02.14.04.28.06.42.04.48-.12.87-.4,1-.83.38-1.71.4-2.6.36-.66-.03-1.32-.09-1.97-.17v-.05Z"/><path class="cls-4" d="m285.35,474.18c-.88-.05-1.77-.11-2.65-.16-.32-.02-.64.03-.96,0-1.13-.08-2.26-.26-3.38-.37-.5-.05-1-.06-1.49-.06-.32,0-.63.02-.95,0-.32-.04-.63-.1-.95-.2-.2-.07-.16-.31,0-.59.17-.27.48-.62.84-.7,1.27-.18,2.54-.24,3.82-.12.77.08,1.56-.05,2.35-.08.86-.02,1.73-.04,2.59-.07.53-.02,1.06-.03,1.59-.07.8-.06,1.61-.08,2.4-.23.61-.12,1.19-.38,1.78-.58.13-.05.26-.1.39-.12.5-.07.68.09.89.74.05.15.1.29.14.44.13.5-.01.96-.36,1.2-1.02.76-2.21.93-3.4,1-.89.05-1.78.03-2.67.03v-.06Z"/><path class="cls-4" d="m193.55,477.4c.54.05,1.08.1,1.62.12.2,0,.39-.03.59-.01.7.05,1.41.1,2.11.08.31,0,.62-.06.92-.11.39-.05.78-.13,1.19-.08.13.02.15.18.08.39-.07.2-.22.46-.43.56-.77.37-1.61.46-2.44.46-.5-.01-1.01.13-1.52.18-.56.04-1.12.04-1.69.03-.35,0-.69-.01-1.04-.02-.52,0-1.05-.05-1.56-.02-.4,0-.8.17-1.2.19-.09,0-.18.03-.26.03-.33-.01-.43-.14-.47-.59,0-.1-.02-.2-.03-.3-.01-.34.14-.61.38-.72.71-.38,1.42-.35,2.14-.32.54.03,1.08.06,1.62.09v.04Z"/><path class="cls-4" d="m189.19,479.34c.71.03,1.41.07,2.11.1.26,0,.51-.03.77,0,.9.07,1.8.13,2.7.25.4.04.8.05,1.19.05.51-.04,1.01.08,1.52.26.16.06.13.14,0,.27-.13.13-.38.38-.67.51-.26.13-.51.16-.76.18-.25.02-.51.05-.76.07-.51.03-1.02.06-1.53-.02-.62-.09-1.25.03-1.88.05-.69.02-1.38.04-2.07.06-.43.01-.85.03-1.28.06-.64.05-1.29.07-1.93.17-.49.08-.96.29-1.43.44-.1.03-.2.09-.31.11-.4.08-.55-.07-.71-.55-.04-.11-.08-.22-.11-.34-.1-.38.02-.73.3-.92.83-.5,1.77-.65,2.72-.76.71-.06,1.42-.04,2.13-.05v.05Z"/><path class="cls-4" d="m183.12,481.33c.66.05,1.33.1,1.99.15.24.01.48-.02.72.02.85.1,1.71.2,2.56.27.38.03.76.01,1.13.01.48,0,.96,0,1.45.12.15.04.14.2.01.4-.12.19-.35.43-.62.5-.98.27-1.96.26-2.95.17-.59-.07-1.21.04-1.81.05-.66-.02-1.33-.03-2-.05-.41-.01-.82-.02-1.23-.03-.62,0-1.25-.03-1.86.01-.48.04-.94.18-1.42.27-.1.02-.21.04-.31.05-.39,0-.52-.11-.61-.55-.02-.1-.05-.2-.06-.3-.05-.33.11-.62.39-.76.84-.43,1.73-.4,2.63-.43.67,0,1.34.04,2,.06v.04Z"/><path class="cls-4" d="m186.58,480.55c.43.04.85.08,1.28.11.15.01.31-.02.46,0,.54.05,1.09.1,1.63.12.24.02.48.03.72.03.3,0,.61,0,.92.06.1.02.09.11.01.23-.08.11-.22.28-.39.34-.61.21-1.21.42-1.84.31-.38-.04-.76.05-1.14.08-.42.02-.84.03-1.26.05-.26,0-.52.02-.77.02-.39.02-.78.03-1.17.07-.3.04-.58.16-.87.24-.06.02-.12.05-.19.06-.24.04-.33-.05-.43-.44l-.06-.26c-.06-.29.01-.55.19-.65.51-.31,1.07-.43,1.64-.46.43,0,.86.03,1.29.05v.03Z"/><path class="cls-4" d="m191.74,478.22c.32.06.64.11.96.17.12.02.23-.01.35.02.41.11.83.24,1.24.32.18.04.36,0,.54,0,.23,0,.46-.05.7.13.07.06.08.37.04.7-.04.33-.13.71-.26.79-.45.31-.93.24-1.41.06-.29-.12-.58,0-.87,0-.32,0-.64-.07-.96-.1-.2-.02-.4-.05-.59-.06-.3-.02-.6-.06-.89-.02-.23.04-.44.2-.67.28-.05.02-.1.06-.15.07-.19.03-.25-.11-.32-.64l-.05-.36c-.04-.41.02-.76.15-.9.38-.44.81-.53,1.23-.54.32-.02.64.02.96.04v.05Z"/><path class="cls-4" d="m190.02,479.75c.31.07.63.14.93.2.11.02.23.02.34.05.39.13.78.27,1.17.39.17.05.35.07.52.08.22,0,.44.06.65.22.06.05.03.22-.05.41-.08.18-.22.41-.35.45-.23.09-.45.08-.67.05-.22-.02-.43-.07-.65-.15-.26-.1-.54-.04-.81-.05-.3-.02-.59-.08-.89-.12-.18-.02-.37-.05-.55-.06-.28-.02-.56-.06-.84-.02-.21.03-.42.16-.63.25-.05.02-.09.06-.14.07-.17.05-.23-.06-.31-.5l-.05-.3c-.04-.34,0-.63.14-.74.38-.31.81-.36,1.23-.36.32,0,.64.05.95.08v.04Z"/><path class="cls-1" d="m348.98,325.49s12.69,12.13,15.18,11.67c1.72-.32-5.27,66.02-3.26,79.08,2.01,13.06,5.81,47.37,5.81,47.37,0,0-4.39.46-5.81,0-1.43-.46-13.51-11.28-14.07-15.51-.56-4.23-3.7-84.37-.78-103.48l2.92-19.12Z"/><path class="cls-4" d="m359.09,410.63c-.03-2.93-.07-5.85-.03-8.78,0-2.93.06-5.85.13-8.78.03-2.14.08-4.27.16-6.4.3-7.52.76-15.03,1.46-22.52.32-3.32.63-6.66.94-9.96.23-2.11.43-4.24.69-6.35l.47-3.16c.15-1.05.33-2.1.57-3.14.29-1.3.27-1.12.31.01.08,1.14.13,3.22-.07,5.66-.14,2.16-.4,4.31-.6,6.47-.22,2.15-.38,4.32-.58,6.48-.37,4.32-.74,8.65-1.12,13.01-.45,5.21-.61,10.65-.8,15.99-.11,2.94-.14,5.88-.22,8.82,0,2.94-.07,5.88-.03,8.82l.05,5.43.14,5.43c.06,2.74.22,5.48.32,8.22.14,2.74.31,5.47.5,8.18.35,4.21.7,8.35,1.05,12.51.08.92.16,1.81.24,2.74.31,3.43.35,4.53.3,5.28-.01.17-.02.4-.03.5-.05.34-.3-1.05-.68-3.54-.57-3.7-1.08-7.52-1.59-11.39-.49-3.88-.7-7.83-.95-11.79-.19-2.94-.28-5.89-.42-8.84-.07-2.95-.19-5.91-.23-8.86h.03Z"/><path class="cls-4" d="m439.96,444.76c-.36-2.36-.62-4.73-.88-7.1-.1-.86-.21-1.73-.29-2.59-.28-3.05-.47-6.11-.63-9.17-.05-1.36-.1-2.72-.14-4.07-.05-1.73-.07-3.47,0-5.2.02-.54.05-.47.13-.01.07.45.23,1.29.33,2.28.17,1.75.35,3.5.52,5.26.22,1.75.24,3.52.37,5.29.11,2.12.42,4.31.67,6.46.28,2.37.59,4.74.95,7.1.22,1.45.43,2.91.69,4.35.37,2.19.8,4.39,1.3,6.54.41,1.67.88,3.28,1.35,4.91.11.36.21.71.32,1.07.39,1.34.41,1.79.26,2.16-.04.08-.07.19-.11.24-.14.19-.47-.31-.86-1.27-1.11-2.86-2-5.97-2.67-9.14-.51-2.35-.95-4.72-1.35-7.1h.03Z"/><path class="cls-4" d="m183.8,467.27c1.12.11,2.23.25,3.32.38.4.05.8.04,1.2.09,1.4.17,2.79.46,4.19.56.62.06,1.24.03,1.86.06.79-.02,1.58.03,2.4.13.25.03.23.06.03.18-.2.11-.56.39-1.01.59-.4.18-.82.22-1.23.32-.41.09-.83.16-1.25.17-.83.03-1.67,0-2.5-.09-.99-.11-2.02-.05-3.03-.14l-3.3-.26c-.67-.04-1.35-.08-2.02-.09-1.02-.02-2.03-.01-3.03.11-.77.11-1.5.35-2.22.58-.16.04-.31.11-.47.17-.59.18-.81.09-1.09-.39-.06-.11-.14-.21-.19-.32-.18-.38-.01-.77.44-1.02,1.34-.72,2.91-1.12,4.47-1.16,1.16-.05,2.31,0,3.44.08v.05Z"/><path class="cls-4" d="m269.77,459.59c1.04-.18,2.07-.36,3.1-.6.37-.08.74-.21,1.11-.29,1.33-.27,2.65-.57,3.94-.99.57-.18,1.12-.43,1.68-.64.7-.3,1.38-.65,2.18-.78.28,0,.24.02.14.26-.11.22-.3.68-.66.98-.68.43-1.37.88-2.11,1.21-.75.31-1.52.57-2.31.77-.94.24-1.87.63-2.82.91-1.05.29-2.11.51-3.17.72l-1.96.38c-.99.19-1.98.34-2.95.56-.75.17-1.47.44-2.21.66-.16.05-.32.11-.48.15-.61.15-.83.07-1.05-.39-.05-.1-.11-.2-.15-.31-.13-.36.07-.71.5-.9,1.28-.56,2.68-.86,4.08-1.15,1.04-.2,2.09-.4,3.13-.6v.04Z"/><path class="cls-4" d="m192.35,244.45s-4.16,16.93-6.52,24.55c-2.36,7.62-19.37,76.31-22.27,93.72s-11.31,76.35-11.31,76.35l-2,16.27s15.14,7.19,24.6,8.93c9.46,1.74,28.79,4.58,37.14,2.35s12.99-3.64,12.99-3.64c0,0-4.52-101.93-.57-112.94,3.96-11.01,4.82-2.08,4.82-2.08,0,0-.27,41.08,2.21,58.46,2.48,17.38,9.52,47.97,10.38,49.69s17.89,4.56,31.25,1.62c13.36-2.93,35.46-14,35.46-14,0,0-20.2-50.58-25.19-96.84s-9.25-64.89-9.25-64.89c0,0-6.83-34.9-9.01-34.91-2.18,0-9.62,2.39-9.83,4.27-.21,1.88-14.73-1.89-20.66.25s-27.66-2.44-32.42-3.58c-4.76-1.14-9.81-3.58-9.81-3.58Z"/><path class="cls-4" d="m245.11,222.96c-1.33-.46-2.67-.88-4.02-1.3-.49-.16-1-.23-1.5-.38-1.74-.53-3.5-1.01-5.28-1.4-.79-.17-1.59-.29-2.38-.37-1.02-.11-2.03-.22-3.04-.42-.31-.07-.28-.32,0-.58.27-.25.82-.6,1.43-.62,1.1-.07,2.17.03,3.23.18,1.06.14,2.12.35,3.16.62,1.25.33,2.58.47,3.87.74,1.41.3,2.82.66,4.2,1.06.86.23,1.71.52,2.56.76,1.29.4,2.57.86,3.85,1.28.5.17,1.01.31,1.52.44.51.16,1.03.3,1.55.48.23.1.47.17.69.29.41.2.66.47.77.72.1.25.06.49-.1.79-.07.14-.14.28-.23.4-.31.39-.87.52-1.3.39-1.52-.41-3.25-1.06-5.02-1.67-1.31-.46-2.64-.93-3.99-1.35v-.06Z"/><path class="cls-4" d="m254.4,216.49c-1.09-.45-2.2-.87-3.32-1.25-.41-.14-.83-.23-1.24-.37-1.45-.48-2.89-.98-4.36-1.39-.65-.19-1.32-.32-1.97-.45-.84-.14-1.7-.28-2.51-.44-.25-.06-.23-.24,0-.43.24-.19.71-.39,1.22-.36,1.81.11,3.57.37,5.31.85,1.03.3,2.14.47,3.2.73,1.17.29,2.33.62,3.49.97l2.13.67c1.07.35,2.13.75,3.2,1.11.83.28,1.7.43,2.56.75.19.08.38.14.57.23.69.36.84.73.58,1.27-.06.13-.11.26-.18.38-.26.39-.73.54-1.13.44-1.36-.24-2.78-.83-4.24-1.38-1.1-.42-2.2-.84-3.3-1.27v-.05Z"/><path class="cls-3" d="m253.61,126.27c6.3-10.65,17.47-11.36,21.55-7.97,3.21,2.67,4.95,3.69,2.24,8.87-4.05,7.74-11.86,12.71-17.49,14.3-11.65,3.3-9.24-10.24-6.3-15.2Z"/><path class="cls-4" d="m277.5,125.07c-.11,1.37-.45,2.72-1.03,3.95-.2.45-.41.89-.67,1.31-.47.72-1,1.39-1.56,2.02-.58.61-1.19,1.18-1.81,1.72-.56.48-1.11.95-1.67,1.42-.7.61-1.51,1.09-2.3,1.57-.25.15-.24.1-.09-.11.15-.2.41-.6.76-1.01.6-.74,1.3-1.35,1.98-1.99.67-.64,1.32-1.29,1.95-1.96.77-.79,1.38-1.76,1.88-2.74.56-1.07.93-2.23,1.05-3.44.08-.74.11-1.5.02-2.24-.11-1.12-.44-2.24-1.01-3.19-.45-.73-1.1-1.29-1.79-1.72-.15-.1-.31-.18-.47-.25-.55-.36-.71-.51-.65-1.02.01-.11.01-.23.03-.33.07-.36.48-.49,1.09-.32,1.78.61,3.17,2.32,3.8,4.13.47,1.36.63,2.79.54,4.18h-.04Z"/><path class="cls-4" d="m277.38,142.21c-.2-.02-.41-.04-.61-.03-.08,0-.13.04-.21.04-.28-.02-.58-.03-.85.02-.12.03-.22.08-.33.13-.14.07-.21.21-.47.11-.08-.02-.18-.16-.28-.37-.09-.18-.26-.55-.19-.63.1-.17.21-.33.35-.45.15-.1.33-.16.53-.18.24-.01.39-.2.59-.29.22-.1.47-.13.71-.18.15-.02.3-.05.44-.07.22-.04.45-.04.65-.13.16-.06.3-.25.46-.38.03-.03.07-.08.1-.09.14-.06.2.07.3.66l.06.4c.06.45.05.83-.01.97-.19.4-.41.46-.65.5-.18.02-.37,0-.56.02l-.02-.05Z"/><path class="cls-4" d="m311.44,189.43c-.95.29-1.93.49-2.91.65-.36.05-.71.14-1.07.18-1.29.09-2.57.03-3.83-.18-.55-.13-1.12-.19-1.64-.39-.34-.12-.69-.21-1.01-.36-.33-.14-.62-.38-.89-.62-.17-.15-.1-.2.13-.26.17-.04.33-.08.46-.11.19-.06.39-.07.56-.01.65.14,1.3.25,1.94.32.32.07.64.14.96.17.33.04.65.12.99.13.8.09,1.64-.07,2.46-.22.9-.14,1.8-.38,2.68-.65.54-.17,1.09-.35,1.62-.57.81-.33,1.62-.67,2.37-1.12.58-.34,1.09-.79,1.61-1.21.11-.09.22-.2.34-.28.44-.33.65-.33,1.01,0,.08.07.17.14.25.22.25.27.23.64-.06.96-.86.94-1.99,1.66-3.18,2.26-.88.45-1.82.82-2.76,1.15l-.02-.04Z"/><path class="cls-4" d="m303.47,184.35c-2.23,1.61-5.46-3.34-5.62-1.31-.23,2.95,2.82,6.38,2.82,6.38l2.79-5.07Z"/><path class="cls-4" d="m205.45,129.27s-2-1.01-4.26-.4c-1.8.48-3.76,2.36-5.01,3.93-2.81,3.55,4.12-10.16,8.95-6.58,3.69,2.73.32,3.05.32,3.05Z"/><path class="cls-4" d="m308.04,220.69c-1.52,1.35-3.2,2.55-5,3.55-.62.41-1.33.71-2.01,1.02-2.47.98-5.21,1.41-7.84.95l-.87-.15c-.29-.06-.57-.17-.85-.24l-.85-.25-.79-.39c-.7-.3-1.3-.78-1.9-1.23-.27-.27-.53-.55-.78-.84-.14-.13-.21-.32-.29-.5-.07-.18-.17-.35-.21-.54-.07-.51-.05-.42.42-.29.46.15,1.22.29,1.78.69,1.06.69,2.24,1.11,3.44,1.44.29.11.61.16.92.21l.94.17c.64-.01,1.29.11,1.95.04.39-.03.79-.08,1.2-.14.4-.05.79-.23,1.18-.35.39-.15.79-.23,1.16-.44l1.12-.56.62-.29.58-.37,1.18-.74c.78-.51,1.47-1.15,2.22-1.72.88-.76,1.66-1.63,2.51-2.43,1.13-1.37,2.38-2.67,3.29-4.21.38-.58.7-1.18,1.04-1.77.34-.59.6-1.23.91-1.83.14-.27.25-.54.4-.81.55-.98.87-1.21,1.49-1.16.14.01.29,0,.42.04.44.1.54.68.27,1.5-.41,1.21-.85,2.45-1.44,3.65-.65,1.16-1.37,2.31-2.13,3.43-.62.8-1.26,1.6-1.9,2.39-.64.79-1.41,1.49-2.14,2.21l-.05-.04Z"/><path class="cls-4" d="m275.9,232.97c-.24-1.01-.45-2.03-.64-3.05-.07-.37-.18-.73-.24-1.11-.22-1.31-.45-2.63-.67-3.94-.1-.58-.22-1.16-.34-1.73-.16-.73-.25-1.49-.3-2.24-.02-.23.04-.21.15-.03.11.18.32.51.47.91.29.72.48,1.45.68,2.19.2.73.39,1.47.55,2.22.18.9.52,1.8.79,2.7.29.99.6,1.98.86,2.98l.52,1.84c.28.92.54,1.86.87,2.75.27.69.6,1.35.89,2.03.06.15.14.29.2.44.21.57.17.79-.19,1.05-.08.06-.16.13-.25.18-.29.16-.63.02-.88-.36-.75-1.14-1.31-2.42-1.68-3.78-.3-1-.56-2.01-.83-3.03h.04Z"/><path class="cls-4" d="m216.63,244.45c9.95,3.18,9.42,7.34,5.31,7.15-4.12-.19,19.87-1.65,19.87-1.65l-25.18-5.5Z"/><path class="cls-4" d="m203.54,231.82c-.1.88-.18,1.76-.19,2.65,0,.32.05.64.03.97-.06,1.14-.04,2.3.05,3.46.03.51.15,1.02.26,1.52.17.63.23,1.29.27,1.98,0,.21-.13.23-.35.12-.22-.11-.59-.34-.83-.69-.1-.15-.19-.31-.28-.47-.1-.15-.18-.32-.22-.49-.11-.33-.2-.68-.28-1.02-.16-.69-.27-1.39-.25-2.11,0-.85-.16-1.72-.19-2.58,0-.95.08-1.9.19-2.84.06-.58.15-1.15.24-1.73.12-.87.33-1.73.51-2.58.14-.66.21-1.32.36-1.98.03-.15.06-.29.11-.43.18-.52.33-.66.65-.68.07,0,.15-.02.22,0,.23.02.36.29.35.7-.02,1.19-.19,2.37-.29,3.57-.08.88-.24,1.76-.3,2.65h-.04Z"/><path class="cls-4" d="m250.83,251.04c.51.17,1.02.34,1.52.48.35.1.26.09.33.11.04.01.11.05.14.03l.06-.17.19-.86c.13-.63.22-1.26.37-1.89.49-2.21,1.1-4.39,1.69-6.57.26-.97.52-1.94.77-2.9.32-1.24.72-2.46,1.27-3.62.16-.36.18-.3.15.04-.03.34-.06.98-.15,1.71-.5,2.53-.93,5.07-1.49,7.62-.33,1.52-.56,3.13-.82,4.71l-.26,1.55-.06.39-.09.61-.19,1.28c-.46.06-1.06-.07-1.58-.15l-.4-.06-.29-.07-.53-.13c-1.06-.28-2.11-.59-3.15-.9-1.57-.48-3.14-1-4.71-1.42-1.22-.34-2.46-.51-3.67-.78-.27-.06-.53-.09-.79-.16-.98-.24-1.23-.41-1.37-.92-.03-.12-.08-.24-.1-.35-.08-.37.45-.64,1.24-.6,2.36.08,4.63.74,6.91,1.4,1.69.5,3.37,1.02,5.03,1.56v.05Z"/><path class="cls-4" d="m260.91,191.8c-1.54-.74-3.13-1.37-4.74-1.96-.58-.23-1.2-.35-1.79-.56-2.1-.67-4.2-1.39-6.36-1.88-.96-.24-1.94-.38-2.9-.53-1.24-.17-2.5-.24-3.73-.6-.37-.24-.33-.19.02-.4.35-.18.99-.45,1.74-.46,2.61.15,5.21.51,7.75,1.22,1.52.4,3.12.79,4.65,1.28,1.69.54,3.34,1.19,4.97,1.88,1,.44,1.99.89,2.96,1.38,1.49.71,2.92,1.55,4.35,2.34,1.1.64,2.22,1.21,3.29,1.89.24.15.48.28.7.46.83.64,1.01.94.91,1.41-.02.11-.03.22-.07.32-.13.32-.64.28-1.29-.07-1.96-1.02-3.85-2.27-5.88-3.36-1.5-.81-3.03-1.61-4.6-2.29v-.04Z"/><path class="cls-4" d="m230.1,181.04s6.7-5.29,1.04-8.96c-7.15-4.63-15.54,9.55-15.54,9.55,0,0,2.55-8.38,4.87-9.37,2.32-.99,6.47-4.59,9.29-3.97,2.82.62,6.34,2.42,7.05,3.36s-.36,6.03-.36,6.03l-6.36,3.36Z"/><path class="cls-4" d="m178.43,249.92c-.59.42-1.25.76-1.87,1.14-.66.33-1.29.69-1.97.99-.5.2-.95.5-1.47.67-1.79.66-3.75.86-5.63.82-.84,0-1.67-.16-2.48-.24-.52-.12-1.03-.22-1.54-.35-.25-.09-.49-.19-.73-.3-.24-.1-.45-.31-.67-.45-.26-.21-.19-.27.14-.4.23-.09.47-.19.67-.27.26-.08.52-.09.79-.05,1.95.25,3.76.02,5.68-.06.58-.03,1.14-.22,1.71-.39.55-.24,1.12-.41,1.67-.66,1.22-.5,2.41-1.12,3.56-1.85.71-.44,1.39-.93,2.06-1.44,1-.79,2-1.61,2.87-2.54.69-.71,1.27-1.5,1.89-2.26.14-.16.25-.35.4-.51.52-.62.88-.65,1.34-.48.11.04.23.07.32.12.31.16.34.62.11,1.23-.84,1.65-1.92,3.3-3.4,4.58-1.05,1-2.21,1.9-3.41,2.75l-.04-.05Z"/><path class="cls-4" d="m177.13,211.92c.37.72.76,1.45,1.24,2.12.17.25.39.46.58.7.63.86,1.33,1.7,2.13,2.44.35.34.74.63,1.13.91.26.17.52.33.78.5.24.2.45.45.66.72.12.17,0,.33-.28.48-.27.14-.76.34-1.17.28-.63-.27-1.22-.61-1.78-1-.56-.39-1.02-.91-1.45-1.46-.51-.65-1.17-1.19-1.71-1.83-.57-.72-1.11-1.47-1.57-2.26-.3-.48-.54-.99-.81-1.48-.38-.76-.69-1.55-1.03-2.32-.27-.6-.62-1.15-.9-1.75-.07-.13-.14-.26-.17-.4-.11-.53.01-.73.51-.96.11-.05.23-.11.34-.15.39-.13.78,0,1.04.3.4.45.62.93.84,1.43.24.49.42,1,.64,1.49.3.75.64,1.49,1.03,2.21l-.04.03Z"/><path class="cls-4" d="m185.68,214.29s6.09,7.34,3.87,8.2c-3.13,1.21-7.95-3.17-7.95-3.17l4.07-5.03Z"/><path class="cls-4" d="m214.86,157.68s-.49-3.13,1.44-3.18c1.93-.04-14.15-2.99-14.15-2.99,0,0,2.44,2.75,4.19,3.8s8.52,2.37,8.52,2.37Z"/><path class="cls-4" d="m203.6,151.67c1.15.9,2.36,1.77,3.69,2.44.48.26.98.47,1.48.68,1.72.86,3.57,1.49,5.49,1.85.85.17,1.71.19,2.57.23,1.1-.03,2.16-.18,3.32-.04.36.04.37.23.13.56-.12.17-.3.38-.53.6-.12.11-.25.23-.39.34-.07.06-.15.1-.22.16-.08.03-.16.06-.25.08-.61.1-1.23.2-1.85.29-.62.03-1.24.05-1.87.06-.62-.07-1.23-.18-1.84-.28-.61-.12-1.2-.32-1.79-.5-.7-.22-1.4-.48-2.13-.66-.71-.23-1.42-.49-2.12-.75-1.49-.7-2.93-1.51-4.25-2.48-.4-.31-.82-.58-1.21-.91l-1.14-.99c-.57-.5-1.08-1.09-1.62-1.62-.49-.59-.97-1.17-1.46-1.75-.34-.48-.71-.93-1.09-1.39-.35-.47-.67-.97-.96-1.49-.14-.22-.27-.45-.36-.7-.31-.94-.17-1.32.21-1.65.09-.08.18-.17.27-.22.31-.19.77.06,1.24.56,1.26,1.5,2.2,3.1,3.53,4.54.44.57,1.01,1.04,1.5,1.58.54.49,1.1.97,1.67,1.43l-.03.05Z"/><path class="cls-4" d="m249.95,103.38c.82-.85,9.1-11.82,7.29-14.63-1.81-2.82,9.8-1.99,9.8-1.99,0,0,2.05,10.89-8.31,15.83-5.12,2.44-8.78.79-8.78.79Z"/><path class="cls-4" d="m265.8,59.04c4.64,1.67,15.45,12.78,4.88,24.45,0,0-2.14,2.57-6.32,2.91-4.18.35-17.99-1.47-27.53-5.51-8.04-3.41-20.2-15.27-20.2-15.27,0,0-1.3,8.7-2.63,11.53,0,0-3.9,10.13-6.52,11.24s-7.18-.77-7.18-.77l.13-6.74s-2.57-5.97-5.77-5.63c-3.2.34-5.75,2.07-5.75,2.07,0,0-1.48-2.34-1.5-7.49-.05-18.35,19.75-16.65,19.75-16.65,0,0,6.7-8.78,14.32-12.02,7.62-3.24,13.84-2.44,18.73-2.65s12.95,3.82,12.5,5.25c-.45,1.43,7.63,10.16,8.86,11.29s4.22,3.98,4.22,3.98Z"/><path class="cls-4" d="m296.83,474.35c-1.99.19-3.88.1-5.74-.07-1.86-.18-3.69-.45-5.49-.8-1.32-.25-2.64-.45-3.93-.78-1.14-.3-2.27-.62-3.39-.97-1.11-.37-2.21-.79-3.31-1.22-2.18-.86-4.33-1.8-6.42-2.85-1.86-.93-3.73-1.86-5.46-3.01-1.11-.74-2.22-1.49-3.22-2.41-.97-.94-1.87-2-2.41-3.27-.24-.84-.23-.68.41-.3.61.42,1.8.97,3,1.7,2.03,1.46,4.3,2.6,6.61,3.7,2.31,1.11,4.7,2.1,7.12,3.07,1.45.59,2.99,1.03,4.55,1.43,1.55.42,3.13.78,4.69,1.13,3.43.75,6.93,1.33,10.37,1.36,1.06.02,2.1-.07,3.11-.2.99-.17,1.96-.44,2.63-.9.28-.16.42-.37.59-.54.12-.18.19-.4.21-.63.03-.41-.25-1.07-.67-1.64-.87-1.18-2.15-2.22-3.47-3.11-2.09-1.38-4.41-2.35-6.71-3.29-.51-.2-1-.4-1.5-.62-1.86-.82-2.33-1.18-2.59-1.99-.06-.18-.16-.36-.2-.53-.19-.56.96-.94,2.58-.64,2.43.39,4.73,1.22,6.97,2.34,2.23,1.15,4.41,2.46,6.45,4.43.75.75,1.5,1.59,2.09,2.87.15.3.26.69.36,1.06.08.4.15.88.12,1.31,0,.9-.38,1.77-.86,2.49-1.04,1.41-2.27,1.88-3.34,2.29l-.81.26-.78.17c-.53.13-1.02.17-1.53.24l-.02-.08Z"/><path class="cls-4" d="m167.16,478.84c.05.08.05.15.1.25.07.1.14.2.2.31.05.12.17.18.25.28.08.1.17.19.29.27.39.36.98.6,1.59.81,1.28.38,2.79.48,4.32.41,1.12-.06,2.24-.26,3.38-.45,4.02-.63,8.05-1.79,11.98-3.19,1.74-.63,3.45-1.38,5.13-2.14,1.07-.5,2.13-1.04,3.22-1.49.55-.23,1.08-.49,1.65-.68.57-.18,1.14-.36,1.72-.55.72-.21.76.05.39.7-.18.33-.46.76-.82,1.26-.18.24-.38.51-.61.74-.24.22-.51.43-.81.62-4.2,2.65-8.89,4.37-13.73,5.65-2.91.73-5.87,1.72-8.97,2.16-1.7.24-3.44.37-5.23.22-1.76-.14-3.69-.6-5.28-1.9l-.67-.67c-.19-.25-.37-.51-.55-.77-.33-.57-.6-1.24-.62-1.94-.09-1.41.52-2.59,1.16-3.51,1.01-1.42,2.27-2.45,3.55-3.42,1.28-.95,2.63-1.78,3.98-2.56,2.1-1.21,4.16-2.41,6.4-3.38.49-.21.97-.44,1.5-.61,1.93-.65,2.79-.44,3.28.32.11.18.25.36.3.54.13.63-.44,1.1-1.63,1.64-3.6,1.55-7.5,3.52-10.94,5.82-1.26.86-2.48,1.79-3.38,2.8-.45.49-.82,1.02-.99,1.45-.18.45-.19.7-.1.96l-.07.03Z"/><path class="cls-4" d="m271.29,456.35c6.59-1.11,13.1-2.92,19.39-5.29,3.14-1.19,6.24-2.52,9.23-4.02,1.48-.77,3.01-1.46,4.44-2.28.7-.42,1.38-.88,1.99-1.34l.15-.11s.06-.05.09-.08c.08-.06.04-.15,0-.22l-3.54-8.51c-.31-.75-.64-1.49-.92-2.25l-.82-2.29-1.63-4.59c-.61-1.75-1.27-3.48-1.85-5.23l-1.64-5.29-1.64-5.29c-.56-1.76-.96-3.56-1.45-5.34-3.41-12.56-5.9-25.33-8.14-38.11-2.24-12.78-4.03-25.63-5.83-38.45-.81-5.69-1.62-11.39-2.43-17.09-.86-5.68-1.72-11.35-2.57-16.99-.59-3.61-1.18-7.22-1.77-10.84-.64-3.61-1.34-7.2-1.92-10.82-1.36-7.19-2.54-14.43-4.08-21.58-.89-4.48-.59-3.93.66-.25,1.19,3.68,3.78,10.41,5.61,18.7.87,3.66,1.54,7.35,2.24,11.03.73,3.68,1.29,7.39,1.94,11.08,1.27,7.39,2.36,14.81,3.37,22.24,2.08,14.85,4.01,29.73,6.28,44.61,2.73,17.79,6.61,36.15,11.86,53.76l2.39,7.84,2.73,7.72,1.37,3.86c.47,1.28,1.04,2.52,1.55,3.79l3.31,7.93.14.63c.05.21.12.42.02.63-.14.41-.39.76-.72,1.09-.15.17-.34.31-.51.47-.17.15-.39.31-.49.39-.25.19-.5.37-.75.54-1.01.68-2.02,1.32-3.03,1.95-2.01,1.27-4.16,2.27-6.29,3.29-4.28,1.98-8.69,3.68-13.18,5.1-12.02,3.79-24.89,5.67-37.53,3.88-.6-.08-1.19-.18-1.79-.28-.3-.05-.59-.1-.89-.16l-1-.2c-.42-.12-.82-.28-1.16-.57-.32-.28-.65-.63-.84-.92-.42-.58-.72-1.15-1-1.72-1.08-2.28-1.78-4.57-2.45-6.88-1.3-4.61-2.31-9.27-3.22-13.93-1.81-9.33-3.21-18.69-4.42-28.02-1.85-14.51-3.35-28.78-3.93-43.26-.12-3.19-.23-6.31-.23-9.54.04-5.97.33-9.92.69-12.67.35-2.75.82-4.32,1.36-5.54.25-.56.53-1.3.74-1.61.74-1.04.53,3.78.46,12.4-.03,12.8.73,25.97,1.98,39.29,1.27,13.31,2.96,26.79,5.3,40.16.88,4.96,1.84,9.91,2.98,14.79.57,2.44,1.19,4.86,1.89,7.23.7,2.33,1.49,4.76,2.49,6.59.12.18.25.42.35.54.06.08.06.08.06.08h0s0,.01.03.02l.83.16c1.2.21,2.41.4,3.62.54,2.43.29,4.88.43,7.34.44,4.92.05,9.85-.48,14.73-1.3l.04.09Z"/><path class="cls-4" d="m190.9,468.47c-10.91-.85-21.67-2.92-32.1-6.38-2.61-.92-5.17-1.85-7.76-3.36l-.49-.31c-.17-.12-.31-.21-.57-.41-.47-.38-.91-.8-1.21-1.31-.33-.51-.37-1.11-.34-1.69l.16-1.31.5-4.01,2.06-16.02,1.53-11.69,1.61-11.67c2.01-13.71,4.17-27.39,6.53-41.04,1.23-6.82,2.39-13.65,3.74-20.44l1.98-10.2,2.1-10.18c1.24-6.02,2.6-12.03,3.89-18.05.7-3,1.39-5.99,2.08-8.98.34-1.49.69-2.99,1.03-4.48.37-1.48.74-2.97,1.11-4.45.96-3.8,1.87-7.62,2.93-11.4l3.18-11.35c2.43-7.48,4.63-15.04,7.86-22.21,1.81-4.54,1.75-3.86.84.19-.49,2.02-.87,4.98-1.8,8.39-.83,3.45-1.72,7.51-2.94,11.83-1.12,3.82-2.08,7.69-3.13,11.53-1.07,3.83-1.98,7.72-2.95,11.58l-1.48,5.79c-.49,1.93-.92,3.88-1.39,5.82-.9,3.89-1.88,7.75-2.72,11.66-3.55,15.57-6.64,31.29-9.65,47.1-3.59,18.91-6.44,38.76-9.16,58.27-1.48,10.73-2.91,21.47-4.25,32.23l-.25,2.02-.11.87c0,.13-.07.27.01.39.07.27,1.43,1.09,2.54,1.62,2.33,1.13,4.86,2.05,7.39,2.87,5.09,1.65,10.34,2.84,15.63,3.77,13.01,2.23,26.44,2.81,39.41.49,1.23-.22,2.44-.48,3.66-.75l1.52-.37c.28-.11.79-.06.67-.5v-.5s-.02-.76-.02-.76l-.07-1.89-.16-3.79c-.21-5.06-.43-10.11-.64-15.17-.39-10.11-.69-20.21-.84-30.25-.22-15.61-.32-30.94.7-46.39.23-3.4.47-6.73.85-10.16.71-6.35,1.47-10.52,2.22-13.4.81-2.87,1.51-4.46,2.25-5.69.34-.56.73-1.3,1.01-1.6.46-.5.44.52.16,2.8-.28,2.28-.71,5.83-1.34,10.38-1.73,13.54-2.18,27.65-2.39,41.94-.16,14.3.1,28.82.61,43.37.22,5.4.43,10.81.65,16.23l.37,8.13.17,4.09.07,2.29c0,.66.03,1.35-.07,1.97-.04.31-.15.58-.38.75l-.15.14-.08.07-.04.04c.07.06-.18-.11.14.15h-.02s-.38.23-.38.23c-.52.29-1.09.55-1.66.77-.29.11-.57.2-.9.27l-.6.14c-.68.17-1.37.31-2.05.46-1.37.29-2.74.54-4.12.76-2.76.43-5.53.75-8.3.94-5.55.39-11.1.33-16.61-.07l-.02-.09Z"/><path class="cls-4" d="m209.7,248.11c1.36.27,2.71.57,4.09.77,1.37.23,2.75.43,4.14.57,1.01.13,2.03.17,3.04.26,3.57.4,7.18.58,10.8.6,1.6-.02,3.21-.09,4.79-.23,2.04-.15,4.04-.54,6.13-.37.36.19.51.27.51.3,0,.04-.16.07-.38.36-.23.3-.58.52-1.02.81-.22.14-.46.28-.71.41l-.4.19c-.14.03-.28.07-.43.1-2.1.4-4.22.71-6.35.9-1.07.04-2.14.09-3.21.09-1.07-.02-2.14-.05-3.21-.1-1.28-.09-2.59-.12-3.9-.11-1.31-.04-2.64-.05-3.95-.12-2.88-.21-5.75-.57-8.59-1.05l-2.62-.48c-.87-.17-1.74-.39-2.61-.58-2.63-.58-5.22-1.41-7.77-2.26-1.97-.7-3.96-1.3-5.86-2.28-.42-.21-.86-.35-1.26-.62-.73-.5-1.19-.87-1.42-1.24-.22-.38-.25-.73-.14-1.14.05-.19.07-.39.15-.56.13-.28.41-.41.8-.44.39-.02.9.05,1.41.31l1.15.56,1.23.48c.81.33,1.59.7,2.46.97.86.27,1.65.67,2.53.94.86.29,1.73.58,2.6.88,1.33.35,2.63.77,3.98,1.1,1.36.29,2.69.68,4.07.89v.08Z"/><path class="cls-4" d="m273.33,177.38c1.89,1.09,3.73,2.31,5.47,3.7.87.69,1.72,1.44,2.53,2.25.39.43.8.82,1.17,1.3.18.24.38.45.55.71l.26.38.13.19c.05.09.13.17.16.27.11.21.19.43.27.66.06.23.08.47.12.7.05.26.02.41.02.58l-.03.5c-.07.63-.19,1.22-.33,1.79-.3,1.14-.73,2.22-1.23,3.27-.55,1.15-1.25,2.24-2.1,3.23-.83,1.01-1.89,1.87-3.09,2.5l-.81.39-1.06.35c-.85.34-1.71-.11-2.35-.61-.2-.14-.27-.2-.38-.29l-.31-.24-.6-.48-1.19-.94c-1.58-1.24-3.21-2.41-4.9-3.49-3.38-2.17-6.98-4.01-10.73-5.49-3.33-1.31-6.82-2.27-10.3-3-2.24-.46-4.51-.79-6.79-1.07l-3.42-.36-1.71-.21c-.57-.07-1.15-.07-1.72-.19-1.43-.38-1.24-.23-.02-.54.61-.16,1.49-.34,2.55-.47.53-.06,1.11-.15,1.73-.18.61-.02,1.26,0,1.94.04,2.39.15,4.78.4,7.15.8,2.37.38,4.73.9,7.04,1.6,4.63,1.36,9.13,3.26,13.32,5.7,2.51,1.46,5,3.07,7.41,4.81l1.78,1.31.69.5c.1.06.21.17.32.08l.15-.05c.14-.05.3-.08.43-.16l.83-.42.78-.53.72-.62c1.12-1.08,2-2.48,2.63-3.98.31-.75.55-1.54.7-2.32.08-.39.13-.78.14-1.13.02-.43,0-.47-.06-.67-.06-.05-.15-.21-.24-.33-.1-.13-.17-.26-.28-.38l-.64-.74c-.46-.48-.94-.95-1.45-1.4-1.03-.89-2.13-1.73-3.29-2.5-3.18-2.15-6.63-3.98-10.19-5.57-5.39-2.38-11.05-4.31-16.78-5.55-4.46-.96-8.92-1.39-13.37-1.46-.98-.03-1.94.03-2.92.03-3.65.09-4.79.14-5.69-.53-.2-.15-.47-.29-.6-.44-.22-.26.03-.56.69-.87.66-.32,1.73-.6,3.14-.81,2.08-.26,4.21-.4,6.35-.4,2.14.01,4.31.17,6.46.43,4.32.53,8.63,1.47,12.85,2.71,6.27,1.85,12.37,4.34,18.14,7.57l-.03.07Z"/><path class="cls-4" d="m276.41,152.8c.8-.97,1.67-1.7,2.58-2.39.32-.26.63-.54.99-.74,1.28-.71,2.64-1.26,4.07-1.58l.96-.18c.33-.03.65-.08.98-.1.82-.03,1.8.01,2.39.76.19.21.1.27-.18.44-.14.08-.33.21-.53.36-.19.11-.37.22-.56.28-.61.08-1.2.23-1.8.41-.6.22-1.26.31-1.93.54-.82.24-1.52.83-2.21,1.37-.79.56-1.57,1.16-2.22,1.85-.21.21-.39.43-.56.65-.09.11-.16.23-.22.32-.05.07-.1.13-.12.22-.04.12-.03.25-.02.38.02.14.07.35.14.54.15.38.36.76.64,1.07.43.5,1.06.78,1.55.86.11.03.21,0,.31.02.09.03.15.01.2.04.05.03.1.11.14.16.08.12.16.33.27.64l.17.41c.08.23.09.45-.03.66-.12.2-.36.43-.71.49-1.05.16-2.07-.22-2.82-.75-.77-.54-1.36-1.23-1.82-2.05-.32-.62-.66-1.23-.67-2.39,0-.26.03-.51.12-.76.05-.12.06-.25.11-.37l.18-.35c.2-.38.37-.61.56-.88l.06.04Z"/><path class="cls-4" d="m279.77,156.52c.83-.94,1.74-1.52,2.64-2.06.33-.19.63-.42.97-.59,1.2-.59,2.45-.99,3.71-1.33.56-.16,1.11-.32,1.66-.48.35-.12.73-.17,1.1-.19.38-.03.77,0,1.15.19.23.11.19.17,0,.37-.09.1-.21.25-.34.44-.13.16-.29.29-.46.37-.6.34-1.24.53-1.88.75-.64.22-1.29.45-1.96.66-.81.25-1.54.73-2.27,1.16-.8.47-1.58.99-2.2,1.59-.38.37-.71.78-.82,1.16-.09.29-.09.51.05.76.14.25.45.53.78.72.53.3,1.17.37,1.77.39.13,0,.27-.02.4,0,.49.03.63.18.72.83.02.15.05.3.07.44.05.49-.21.91-.72,1-1.49.25-3.19-.17-4.54-1.62-.53-.52-1-1.66-.82-2.56.14-.91.55-1.53.94-2.03l.05.03Z"/><path class="cls-4" d="m191.48,77.65l-.51.21c-.17.07-.31.19-.47.28-.34.16-.58.45-.87.69-.27.27-.5.62-.77.92-.18.36-.42.69-.58,1.07-.1.28-.19.56-.28.85-.04.3-.09.59-.16.89-.16,1.05-.22,2.18-.04,3.32.2,1.13.58,2.26,1.1,3.33.48.95,1.11,1.84,1.86,2.58.46.5.99.94,1.5,1.39.56.38,1.02.93,1.57,1.43.33.34.25.4-.21.48-.23.04-.57.1-1,.15-.21.03-.45.05-.67.02-.21-.05-.43-.12-.64-.22-.39-.16-.73-.39-1.09-.6-.36-.21-.72-.43-1.03-.71-.65-.53-1.21-1.15-1.75-1.78-.5-.67-.99-1.35-1.34-2.12-.2-.37-.31-.78-.45-1.18-.15-.39-.25-.8-.33-1.22-.41-1.95-.81-4.08-.3-6.17.11-.57.36-1.11.55-1.66.27-.52.52-1.04.85-1.52.66-.92,1.45-1.86,2.47-2.47,1.22-.79,2.62-1.24,4.02-1.33,2.13-.11,4.29.58,5.91,1.99,1.25,1.07,2.27,2.53,2.65,4.2.09.36.14.72.18,1.09.07.7-.1,1.13-.26,1.42-.18.29-.45.43-.84.49-.18.03-.36.08-.53.08-.58,0-1.03-.54-1.17-1.28-.31-1.08-.56-2.03-1.09-2.78-.52-.73-1.2-1.32-2.06-1.7-.63-.28-1.34-.47-2.07-.46-.73-.05-1.46.12-2.13.38l-.03-.07Z"/><path class="cls-4" d="m215.22,78.56c-.74,1.67-1.55,3.32-2.46,4.92-.33.58-.61,1.2-.99,1.77-.67,1-1.41,1.96-2.29,2.85-.88.87-1.92,1.73-3.31,2.1-.6.16-1.31.19-1.85.12-.57-.05-1.11-.19-1.65-.38-.67-.25-1.38-.58-1.9-1.2-.52-.61-.74-1.45-.65-2.17.07-.46.22-.35.5-.05.13.15.34.34.57.49.24.15.5.25.73.35.42.15.79.37,1.29.45.48.09,1.02.12,1.5.14.41-.02.67-.08,1.09-.27.39-.21.84-.49,1.3-.82,1.1-.85,1.86-2.26,2.62-3.6.85-1.47,1.6-3.04,2.28-4.64.41-.99.81-1.99,1.16-3.01.53-1.54,1.05-3.1,1.36-4.69.24-1.24.26-2.49.28-3.71,0-.27-.02-.54,0-.8.06-.99.24-1.26,1.15-1.44.19-.04.38-.1.56-.12.56-.09,1.25.39,1.33,1.22.33,2.45-.12,4.92-.75,7.31-.47,1.78-1.1,3.52-1.79,5.23l-.07-.02Z"/><path class="cls-4" d="m192.84,54.07c-1.73.99-3.25,2.42-4.3,4.22-.35.67-.65,1.37-.91,2.09-.29.61-.42,1.28-.63,1.94-.13.67-.31,1.34-.36,2.04-.18,1.38-.18,2.8-.06,4.21.09,1.26.42,2.5.8,3.69.26.76.58,1.5.91,2.22.32.72.63,1.44.95,2.17.12.51-.14.67-.8.59-.66-.08-1.63-.56-2.17-1.46-.88-1.63-1.48-3.37-1.86-5.15-.36-1.78-.53-3.63-.31-5.46.24-2.18.5-4.48,1.4-6.59.98-2.3,2.55-4.37,4.53-5.89,1.21-.94,2.57-1.7,4.01-2.2,2.17-.8,4.52-1.02,6.79-.78,1.76.16,3.53.48,5.19,1.22.38.14.73.31,1.08.51.66.36,1,.74,1.16,1.07.17.33.15.66,0,1.05-.07.18-.12.36-.2.51-.29.49-1.08.58-1.88.19-1.24-.52-2.44-1.01-3.71-1.34-1.27-.31-2.59-.46-3.91-.42-1.96.07-3.96.57-5.67,1.62l-.04-.06Z"/><path class="cls-4" d="m271.01,97.64c-.86,1.71-2.2,3.05-3.52,4.28-.53.4-1.01.86-1.55,1.24-1.98,1.25-4.2,1.92-6.38,2.35-.49.05-.98.13-1.47.21l-.73.13-.73.05c-.31.03-.63.03-.94.04-.31,0-.63.05-.94-.04-.62-.14-1.24-.28-1.81-.59-.33-.36-.3-.21.06-.51.35-.28.96-.79,1.61-.95.57-.12,1.13-.25,1.68-.34l.83-.07.82-.16c1.1-.15,2.17-.45,3.27-.73.32-.1.64-.23.96-.36l.47-.21.43-.28c.58-.37,1.18-.74,1.69-1.19,1.25-.87,2.22-2.04,3.1-3.27l.67-1.22c.23-.41.33-.87.49-1.3l.17-.5.09-.52.18-1.05c.03-.35,0-.71,0-1.06-.03-.35.02-.71-.09-1.05-.14-.53-.29-1.05-.5-1.54-.27-.48-.56-.93-.8-1.4-.08-.21-.29-.37-.4-.58-.45-.74-.39-1.1.18-1.73.13-.14.25-.3.39-.43.46-.44,1.1-.38,1.69.19,1.87,1.6,2.7,4.34,2.64,6.98,0,.25.01.49,0,.74l-.11.73c-.08.49-.16.97-.27,1.45-.34.92-.58,1.88-1.08,2.7l-.07-.03Z"/><path class="cls-4" d="m224.47,134.37s4.77,1.62,3.43,4.3c-1.13,2.26-9.61,4.98-17.58-1.92-3.19-2.76-5.2-5.86-5.19-10.52-.37,1.21,9.34,6.5,10.54,6.88,3.06.97,5.6,1.26,8.8,1.26Z"/><path class="cls-4" d="m199.31,145.87c2.25,2.53,5.44,4.49,8.8,5.71,1.23.47,2.53.71,3.81,1,2.27.46,4.61.7,6.95.61,2.34-.09,4.69-.49,6.92-1.22,1.97-.66,3.83-1.66,5.24-3.04,1.83-1.81,2.54-4.24,2.74-6.93.07-.84.23-.79.65-.09.44.67,1.21,2.14.9,4.02-.23,1.65-1.12,3.17-2.18,4.41-1.08,1.25-2.39,2.21-3.76,2.96-2.79,1.44-5.75,2.1-8.73,2.37-3.56.27-7.31.25-10.87-.65-3.89-1-7.58-2.77-10.67-5.37-1-.76-1.81-1.73-2.65-2.65l-1.08-1.54c-.38-.5-.61-1.1-.92-1.64l-.33-.63c-.09-.22-.17-.45-.25-.67l-.48-1.34c-.11-.46-.2-.93-.3-1.4l-.15-.7-.05-.71c-.24-1.9.07-3.83.61-5.64.91-2.81,2.75-5.34,5.27-6.97l.82-.55c.28-.18.58-.29.89-.42.57-.24,1.04-.42,1.45-.55.42-.07.77-.08,1.06-.07.58.03.94.2,1.24.51.14.14.31.27.4.42.28.49-.5,1.19-1.88,1.76-2.02.93-3.8,2.22-5.05,3.92-1.25,1.69-1.95,3.79-1.99,5.96-.03,3.23,1.27,6.57,3.64,9.06l-.05.05Z"/><path class="cls-4" d="m147.83,202.01c2.29-6.06,5.18-11.83,8.25-17.46,1.12-2.06,2.21-4.12,3.4-6.13,4.24-7.06,8.89-13.84,13.76-20.43,2.15-2.93,4.32-5.87,6.45-8.78,1.39-1.85,2.75-3.74,4.24-5.52,1.48-1.79,2.96-3.58,4.64-5.19,1.19-.89.98-.81.54.4-.46,1.2-1.37,3.33-2.9,5.51-1.31,1.96-2.71,3.84-4.1,5.74-1.38,1.9-2.77,3.8-4.13,5.72-2.74,3.83-5.45,7.68-8.14,11.57-3.24,4.64-6.19,9.75-9,14.8-3.1,5.55-5.98,11.22-8.4,17.08-1.53,3.59-2.83,7.27-3.93,11-1.61,5.66-2.73,11.52-2.65,17.33.08,4.51,1.03,8.88,2.74,12.88.42.86.8,1.72,1.24,2.57.88,1.55,1.36,2.63,1.74,3.38.31.79.36,1.35.26,1.92-.05.26-.06.57-.14.77-.14.34-.53.27-1.14-.15-.58-.44-1.51-1.16-2.3-2.36-2.5-3.49-4.17-7.73-5-12.13-.83-4.41-.83-8.97-.34-13.41.06-.83.19-1.65.33-2.47l.4-2.45c.37-1.61.65-3.25,1.11-4.83l.65-2.38c.22-.79.49-1.57.73-2.35.47-1.57,1.04-3.11,1.6-4.65l.08.02Z"/><path class="cls-4" d="m184.62,244.33c-1.63,1.91-3.45,3.68-5.42,5.26-.72.57-1.41,1.19-2.2,1.68-2.73,1.77-5.86,3.02-9.08,3.39-1.43.14-2.86.25-4.27.12-.45-.02-.91-.05-1.35-.15-.45-.09-.9-.14-1.33-.28-.43-.13-.87-.25-1.29-.4-.42-.16-.82-.4-1.22-.59-.49-.27-.4-.31.11-.36.33-.04.68-.09,1.02-.14.41-.02.88-.07,1.36-.04,1.73.06,3.39.12,5.04-.06,1.65-.2,3.25-.58,4.88-1.06,1.95-.59,3.74-1.81,5.39-3.1,1.83-1.42,3.52-3.06,5.05-4.86.93-1.12,1.84-2.26,2.67-3.46,1.25-1.82,2.43-3.73,3.37-5.73.75-1.55,1.26-3.16,1.78-4.77.11-.36.2-.71.32-1.06.21-.66.43-1.06.7-1.31.26-.25.55-.35.93-.38.18-.01.35-.05.52-.04.53.03.81.73.74,1.84-.26,1.59-.69,3.17-1.26,4.74-.29.78-.59,1.56-.95,2.32-.36.76-.77,1.5-1.18,2.24-1.24,2.19-2.7,4.27-4.28,6.25l-.06-.04Z"/><path class="cls-4" d="m218.54,185.8c1.27.35,2.53.71,3.77,1.23.45.19.91.33,1.35.56,1.53.8,2.94,1.76,4.22,2.86.56.49,1.12.99,1.65,1.49.73.61,1.25,1.43,1.66,2.29.13.27.04.29-.24.2-.27-.1-.78-.24-1.25-.5-.43-.21-.77-.5-1.11-.78-.35-.27-.7-.54-1.06-.8-.72-.51-1.43-1.03-2.15-1.57-.87-.64-1.94-1.01-2.97-1.39-1.13-.41-2.3-.79-3.5-1.09-.74-.19-1.49-.36-2.24-.49-1.15-.2-2.31-.39-3.47-.45-.91-.04-1.81.08-2.71.14-.2.01-.4.05-.6.06-.74-.05-.97-.25-1.09-.89-.03-.15-.07-.29-.08-.44-.05-.48.28-.88.84-1.04,1.65-.43,3.37-.31,5.12-.13,1.3.15,2.6.39,3.89.68v.06Z"/><path class="cls-4" d="m196.58,206.14c2.72.16,5.44-.07,7.76-1.04.84-.37,1.56-.91,2.36-1.48.72-.48,1.48-1.16,2.7-1.62.29-.13.62-.18.95-.23.37-.07.51-.04.78-.07l1.39-.07c1.84-.08,3.67-.16,5.47-.34,1.59-.18,3.19-.42,4.67-.85.94-.26,1.88-.68,2.55-1.08.22-.12.47-.47.6-.84.07-.18.11-.38.13-.56.02-.18.14-.4.09-.6-.14-.45-.2-.59.45-.3.27.17.84.57.96,1.24.15.64.16,1.46-.37,2.29-.13.18-.27.37-.46.54-.19.18-.28.23-.42.35l-.4.31c-.13.09-.27.16-.41.24-.28.16-.56.3-.83.41-.28.13-.55.25-.83.34-1.1.42-2.2.7-3.29.93-2.2.35-4.38.47-6.54.51-.65,0-1.29.04-1.94.08l-.96.08c-.18.01-.2.05-.32.06-.09,0-.19.04-.28.09-.37.14-.82.48-1.32.88-.49.4-1.08.83-1.68,1.22-1.35.85-2.88,1.45-4.39,1.77-1.52.31-3.04.48-4.53.48-1.84.06-3.66-.1-5.45-.27h-.16c-.17-.06-.34.01-.49.09-.17.09-.46.29-.69.46-.48.37-.96.78-1.42,1.21-.93.86-1.81,1.8-2.63,2.77-1.32,1.56-2.41,3.26-3.39,4.97-.2.38-.39.75-.59,1.14-.74,1.41-.92,1.72-1.67,1.9-.16.04-.32.12-.46.15-.47.15-.89-.82-.44-2.15.63-1.93,1.62-3.64,2.74-5.28,1.12-1.64,2.38-3.19,3.77-4.67.59-.63,1.21-1.24,1.9-1.84.36-.3.71-.6,1.15-.9l.44-.27c.18-.09.37-.18.56-.25.38-.14.79-.19,1.19-.18l1.98.19c.6.07,1.18.06,1.77.09v.07Z"/><path class="cls-4" d="m306.89,179.63c-.28,1.02-.68,2.01-1.07,2.99-.14.36-.24.73-.4,1.08-.58,1.23-1.23,2.42-1.94,3.56-.3.51-.6,1.02-.91,1.53-.41.63-.71,1.36-1.44,1.76-.22.13-.37-.03-.51-.37-.07-.17-.14-.39-.2-.63-.04-.23-.02-.44.07-.62.31-.65.63-1.29.94-1.94.35-.62.73-1.24,1.11-1.87.48-.74.69-1.65.98-2.49.33-.93.61-1.88.89-2.84.16-.59.33-1.18.44-1.79.19-.91.37-1.84.43-2.76.03-.72-.09-1.44-.18-2.15-.02-.16-.06-.31-.07-.47-.05-.58.16-.76.83-.88.15-.03.3-.06.45-.08.48-.06.95.19,1.1.65.41,1.34.36,2.78.18,4.2-.15,1.05-.38,2.1-.64,3.13h-.06Z"/><path class="cls-4" d="m274.44,140.61l.95.68.5.36c.09.07.06.07.09.11-.04.09.08.04.14.06-.02.03.85-.17.73-.12.15,0,.24-.08.4-.09l.26-.02s.09-.01.14-.03c.04-.02,0-.05,0-.07-.04-.1-.1-.21-.19-.34l-.14-.21-.08-.12-.05-.06-.12-.13-.99-1.1c-.58-.66-1.25-1.24-1.85-1.88-.72-.85-1.62-1.61-1.88-2.89.08-.51-.06-.33.37-.3.48,0,1.2.04,1.76.36.92.64,1.9,1.22,2.63,2.08.39.4.78.82,1.15,1.24l.56.65c.06.07.26.3.44.48l.51.56c.42.43.71.86,1.04,1.28.14.39.32.76.45,1.08.02.08.07.16.06.25-.09.08-.12.16-.18.22l-.33.39c-.19.29-.71.5-1.25.65-.61.17-1.25.31-1.87.44-.66.15-.69.12-1.46.3-.15.44-.25-1.65-.35-1.07l-.28.07s-.11.02-.12.05c.04,0,.12,0,.1-.06-.05-.08-.13-.14-.21-.2l-.12-.08c.03-.11-.17.21-.3.38l-.21.3-.1.15c-.04.06-.02,0-.04.02l-.27-.19-.46-.31c-.79-.5-1.59-1.03-2.38-1.58-.6-.41-1.2-.84-1.79-1.31l-.44-.37c-.16-.14-.38-.33-.54-.51-.34-.37-.66-.76-.7-1.26.04-.71.51-1.46.94-2.06.38-.52.79-.95,1.19-1.34.17-.17.32-.36.49-.51.62-.57.86-.64,1.5-.31.14.07.28.12.39.19.37.2.53.88.06,1.47-.64.89-1.41,1.6-1.79,2.19-.02.14.06.07.05.09.46.35,1.1.77,1.71,1.16.62.4,1.28.76,1.92,1.2l-.03.06Z"/><path class="cls-4" d="m313.05,215.4c-2.45,3.71-5.37,7.24-9.2,9.85-1.4.93-2.89,1.8-4.55,2.32-1.47.45-3.02.64-4.56.58l-1.15-.1-1.13-.25c-.77-.12-1.47-.46-2.18-.75-2.84-1.27-4.89-3.64-6.3-6.16-1.25-2.26-2.1-4.7-2.59-7.17-.36-1.58-.43-3.23-.35-4.85.05-.81.16-1.62.31-2.42.07-.4.24-.79.41-1.16.15-.38.36-.74.53-1.1.47-.89.34-.77.32.07,0,.42-.01,1.02.27,1.76.12.36.07.72.14,1.12.05.39.09.8.1,1.23.06.75.14,1.5.26,2.24l.22,1.1c.02.37.12.73.19,1.1.24,1.47.71,2.89,1.2,4.27.59,1.34,1.21,2.69,2.05,3.85.37.63.88,1.12,1.33,1.68.24.26.52.47.78.72.26.24.52.49.83.66.36.22.69.5,1.08.67l1.18.49c.83.19,1.68.41,2.56.41,1.76.05,3.51-.43,5.14-1.2,3.61-1.72,6.61-4.82,9.07-8.21,1.52-2.1,2.86-4.36,4.03-6.7,1.77-3.55,3.24-7.29,4.27-11.11.79-2.97,1.2-5.97,1.47-8.97.07-.66.07-1.31.13-1.98.06-.62.09-1.13.15-1.55.06-.43.17-.77.26-1.05.1-.28.21-.5.36-.68.17-.18.36-.32.56-.45.18-.12.34-.27.49-.34.4-.24,1.2.83,1.25,2.75.11,5.69-1.07,11.63-3.04,17.29-1.5,4.2-3.44,8.27-5.84,12.09l-.07-.03Z"/><path class="cls-4" d="m274.43,240.87c.84-.36,1.68-.75,2.44-1.25.4-.23.77-.5,1.15-.75.19-.13.38-.25.56-.39l.15-.11s0-.04.07-.02c0-.05.08-.04.1-.08.01-.04,0-.08,0-.13-.03-.13.02-.04-.18-.54-.35-.9-.81-1.81-1.19-2.75-1.36-3.31-2.59-6.73-3.48-10.22-.4-1.55-.79-3.11-1.08-4.67-.36-2-.54-4.08-.2-6.11.13-.63.11-.54.26,0,.18.53.5,1.49.75,2.59.1.49.22.98.35,1.47.14.48.26.97.37,1.45.23.97.51,1.93.79,2.89.58,1.92,1.26,3.81,1.94,5.73.78,2.31,1.98,4.56,3.08,6.84.31.66.62,1.32.93,2.02.18.46.47,1.09.52,1.62.02.14,0,.27,0,.4-.03.13-.07.26-.14.38l-.03.05c.1.06,0,.04.02.06l-.06.08-.13.16c-.09.1-.15.22-.27.3-.18.2-.41.35-.6.53l-.43.35-.82.62c-.54.43-1.13.78-1.69,1.18-1.45,1.03-3.04,1.81-4.64,2.55-2.43,1.1-4.96,1.93-7.45,2.73-1.94.61-3.81,1.33-5.74,1.92-.43.12-.84.28-1.27.39-1.61.4-2.17.25-2.68-.6-.12-.19-.26-.38-.34-.59-.28-.68.27-1.39,1.38-1.8,3.31-1.25,6.82-2.12,10.22-3.28,2.53-.84,4.99-1.83,7.3-3.09l.04.07Z"/><path class="cls-4" d="m209.09,127.6c4.78,4.04,11.33,6.06,17.49,4.87,2.23-.42,4.31-1.36,6.19-2.61,3.34-2.21,5.96-5.55,8.13-9.15,2.15-3.64,3.92-7.56,5.61-11.53,1.5-3.52,2.88-7.14,4.41-10.67.99-2.26,1.96-4.55,3.23-6.71,1.25-2.16,2.66-4.28,4.59-5.92,1.23-.99,1.07-.83.59.44-.26.62-.48,1.59-.88,2.61-.2.52-.36,1.11-.61,1.68-.27.56-.53,1.17-.85,1.77-1.09,2.17-2.15,4.36-3.17,6.6-1.01,2.24-1.96,4.53-2.92,6.84-1.93,4.61-3.84,9.31-6.34,13.82-1.5,2.69-3.12,5.43-5.19,7.92-2.04,2.5-4.59,4.76-7.62,6.13-3.31,1.59-6.99,2.04-10.55,1.82-3.58-.3-7.04-1.41-10.1-3.17-3.78-2.15-7.01-5.27-9.23-9.01-1.6-2.87-2.8-5.87-3.64-9-.83-3.12-1.28-6.33-1.44-9.51-.12-2.48-.13-4.94.05-7.38.14-2.45.46-4.87.9-7.28.2-1.06.4-2.1.68-3.15.49-1.96.95-3.2,1.34-4.05.45-.83.82-1.28,1.23-1.59.19-.14.39-.35.54-.42.26-.11.35.24.32.98-.03.74-.15,1.88-.45,3.28-.84,4.18-1.56,8.45-1.85,12.8-.32,4.34-.1,8.74.74,13.02.64,3.17,1.67,6.25,3.1,9.15,1.34,2.85,3.33,5.33,5.76,7.34l-.04.06Z"/><path class="cls-4" d="m261.68,53.78c1.33,1.51,2.78,2.62,4.47,3.11.16.08.52.17.8.26l.87.27c.58.18,1.16.36,1.72.62.56.25,1.13.47,1.69.74l1.62.89c2.12,1.28,4.06,2.95,5.56,5.01,1.5,2.04,2.54,4.51,2.8,7.09.26,1.89-.05,3.81-.59,5.61-.55,1.82-1.61,3.39-2.75,4.82-2.28,2.55-5.33,3.89-8.26,4.66-1.48.4-2.97.65-4.42.86-.71.11-1.49.18-2.24.26-.75.04-1.51.11-2.26.1-3,.04-5.96-.26-8.86-.79-2.9-.52-5.76-1.26-8.55-2.16-4.95-1.62-9.77-3.72-14.21-6.38-2.86-1.7-5.57-3.7-7.98-6.04-1.2-1.18-2.33-2.44-3.29-3.83-.94-1.41-1.73-2.91-2.3-4.49-.62-2.01-.41-1.74.6-.32.26.35.62.74,1,1.2.44.42.86.93,1.37,1.44.52.51,1.09,1.04,1.69,1.6.56.59,1.21,1.17,1.84,1.81,1.15,1.11,2.39,2.12,3.67,3.09.66.46,1.3.95,1.98,1.38.66.46,1.33.9,2.02,1.32,2.73,1.71,5.65,3.16,8.65,4.42,6,2.49,12.38,4.25,18.86,4.82,1.93.16,3.9.18,5.83-.03.94-.11,1.96-.26,2.94-.44.98-.18,1.94-.4,2.87-.67,1.87-.54,3.64-1.31,5.08-2.41.72-.56,1.35-1.14,1.87-1.92.58-.72,1-1.52,1.4-2.33.8-1.81,1.04-3.82.68-5.76-.35-1.94-1.28-3.79-2.58-5.36-1.29-1.58-2.99-2.86-4.84-3.86-.9-.55-1.92-.9-2.89-1.32-1.04-.33-1.95-.59-3.26-1.07-.77-.22-1.42-.69-2.11-1.06-.65-.42-1.24-.93-1.82-1.42-1.09-1.05-2.06-2.17-2.9-3.32-1.72-2.3-3.17-4.65-4.87-6.75-1.3-1.56-2.65-3.08-4.28-4.21-1.62-1.12-3.38-2.08-5.32-2.54-3.9-1.03-8.11-1.31-12.12-.81-3.13.37-6.17,1.21-8.98,2.52-2.81,1.3-5.38,3.03-7.66,5.08-1.04.87-1.88,1.9-2.83,2.87-3.24,3.88-4.07,5.28-5.45,5.79-.3.13-.63.34-.86.39-.39.08-.42-.4-.2-1.4.1-.51.32-1.12.62-1.84.34-.69.78-1.49,1.3-2.36,1.68-2.5,3.68-4.89,6.07-6.93,2.4-2.02,5.12-3.74,8.06-5.04,5.88-2.64,12.61-3.38,19.04-2.54l1.78.3.89.15c.3.07.62.16.92.24l1.85.52,1.79.76c2.33,1.11,4.46,2.67,6.19,4.47,3.47,3.58,5.66,7.82,8.36,10.86l-.06.07Z"/><path class="cls-4" d="m251.67,121.49c-2.65,3.05-4.71,6.75-5.27,10.56-.26,1.88-.09,3.78.76,5.22l.34.52.39.48c.32.29.61.64.98.87.69.55,1.52.94,2.39,1.23,2.59.84,5.6.58,8.43-.09,5.06-1.2,9.71-4.1,13.11-8.09.85-1,1.61-2.07,2.27-3.2.66-1.12,1.23-2.34,1.61-3.49.32-1.17.41-2.37.11-3.44-.29-1.07-.99-2-1.95-2.65-.86-.58-1.9-.94-2.98-1.1-1.09-.16-2.22-.08-3.33.12-2.21.46-4.39,1.49-6.33,2.77-2.5,1.67-4.71,3.81-6.57,6.18-.94,1.18-1.79,2.43-2.48,3.74-.68,1.3-1.19,2.72-1.29,3.98-.17.83.18,1.2.09,1.23-.03.01-.12-.06-.32-.19-.09-.09-.2-.19-.32-.31-.1-.14-.25-.3-.37-.51-.54-.84-.65-2.3-.33-3.83.31-1.55,1-3.24,2.05-4.86.93-1.44,2-2.77,3.19-3.98,1.18-1.22,2.47-2.35,3.86-3.37,1.39-1.01,2.89-1.9,4.5-2.61.8-.37,1.64-.66,2.49-.91l1.35-.31c.46-.08.92-.12,1.39-.18,1.86-.14,3.81.06,5.64.87,1.82.79,3.51,2.31,4.32,4.31.83,2,.65,4.13.12,5.91-.59,1.82-1.37,3.27-2.3,4.76-2.24,3.46-5.23,6.48-8.77,8.72-3.55,2.23-7.58,3.72-11.8,4.05-2.31.18-4.74-.02-7.02-.93-1.15-.43-2.21-1.13-3.15-1.93-.94-.79-1.75-1.89-2.24-3.04-1.01-2.35-.96-4.86-.52-7.13.47-2.29,1.38-4.41,2.5-6.38,2.82-4.81,6.95-8.7,11.69-11.46,1.8-1.04,3.7-1.9,5.67-2.59,2-.69,4.08-1.06,6.18-1.19,2.1-.1,4.24.08,6.29.71,2.04.64,4.02,1.79,5.38,3.59,1.04,1.4,1.63,3.11,1.73,4.81.11,1.7-.16,3.36-.65,4.93-.48,1.58-1.21,3.04-1.95,4.42-.76,1.39-1.63,2.73-2.62,4.01-.87,1.12-1.78,2.19-2.82,3.16-1.98,1.77-3.45,2.68-4.51,3.25-1.08.54-1.76.75-2.37.82-.28.03-.61.12-.79.1-.61-.03.98-1.46,3.66-3.9,1.97-1.83,3.73-3.81,5.15-6.07.73-1.12,1.33-2.33,2-3.52.67-1.24,1.18-2.35,1.55-3.57.36-1.2.54-2.42.47-3.57-.08-1.15-.43-2.19-1.04-3.08-1.2-1.78-3.61-2.87-6.15-3.23-1.91-.27-3.92-.2-5.88.16-.98.18-1.95.44-2.88.77-.96.35-1.91.74-2.84,1.17-3.7,1.77-7.11,4.25-9.77,7.37l-.06-.04Z"/><path class="cls-4" d="m304.17,153.57c-3.72-3.44-7.93-6.37-12.44-8.62-.84-.37-1.68-.73-2.53-1.07l-1.3-.44-.65-.23c-.22-.08-.44-.16-.59-.19-1.22-.32-2.83-.2-4.36.06-1.55.28-3.11.73-4.62,1.29-1.52.56-3,1.23-4.4,2.03l-.52.3-.46.28c-.16.1-.31.2-.47.32-.31.23-.62.49-.87.83-.11.15-.2.32-.24.5-.02.09-.02.19.06.25.08.04.17.05.25.05.35,0,.71-.1,1.06-.19,1.1-.32,2.19-.64,3.28-.95,1.83-.52,3.69-1.05,5.61-1.4.96-.17,1.95-.24,2.95-.24.5,0,1.01.04,1.52.11.51.1,1.01.27,1.47.54.56.36.71.62.68.63-.05.05-.32-.11-.84-.06-1.05.1-2.67.69-4.67,1.28-1.78.43-3.59.99-5.41,1.59-.91.3-1.82.62-2.76.91-1.6.45-3.78,1.11-5.01.96-.66-.04-1.04-.26-1.39-.51-.17-.14-.33-.29-.52-.59l-.07-.23c-.07-.04-.05-.13-.08-.19-.05-.14-.06-.27-.07-.41-.05-.27.04-.55.09-.82.05-.27.16-.54.28-.82.29-.56.68-1.16,1.29-1.74.29-.29.6-.58.96-.86.33-.28.7-.55,1.07-.8.16-.11.41-.29.5-.34l.33-.21c.22-.14.45-.27.67-.39.9-.51,1.82-.96,2.76-1.36,2.24-.95,4.56-1.8,7.04-2.34,1.24-.26,2.53-.45,3.9-.4.67.03,1.43.14,2.1.35l1.76.62c2.54.96,4.98,2.15,7.27,3.56,2.32,1.37,4.49,2.95,6.57,4.62,2.57,2.06,4.95,4.34,7.13,6.8,1.64,1.87,3.21,3.82,4.53,5.97,1.32,2.12,2.47,4.43,3.04,6.94.8,3.86.75,7.71.24,11.51-.12.84-.24,1.66-.42,2.49-.71,3.08-1.29,3.98-2.16,4.37-.2.09-.42.22-.6.25-.62.07-.57-1.22-.12-3.36.64-3.18,1.06-6.49,1.03-9.78-.02-1.64-.14-3.29-.49-4.84-.16-.78-.44-1.5-.69-2.23-.14-.36-.34-.73-.5-1.09-.16-.36-.34-.73-.56-1.08-1.18-2.14-2.67-4.18-4.33-6.1-1.65-1.92-3.43-3.76-5.35-5.45l.04-.06Z"/><path class="cls-4" d="m286.45,162.39c.85-.07,1.9-.33,3-.56,1.11-.23,2.31-.47,3.68-.38.98.06,2.11.33,2.98.99.76.58,1.31,1.32,1.69,2.05.33.6.6,1.12.97,1.67.72,1.07,1.63,2.04,2.66,2.87.92.75,1.98,1.3,3.04,1.77,1.38.6,2.83.86,4.25.91.45,0,.51.2.17.61-.17.23-.46.46-.86.69-.39.19-.9.33-1.42.29-.93-.03-1.81-.21-2.67-.45-.86-.24-1.68-.6-2.44-1.04-1.54-.87-2.92-2.01-4.02-3.41-.67-.8-1.31-1.75-1.85-2.63-.42-.71-.95-1.18-1.56-1.44-.68-.29-1.59-.29-2.58-.14-.99.16-2.02.45-3.13.71-.69.15-1.4.3-2.2.32-.4,0-.82,0-1.26-.12-.21-.04-.43-.13-.68-.22-.22-.12-.45-.22-.64-.38-.3-.22-.56-.5-.77-.79-.21-.3-.4-.61-.44-.98-.09-.73.23-1.43.67-2.02.24-.32.43-.51.63-.71.21-.2.42-.39.63-.56.43-.35.88-.66,1.33-.95,1.41-.9,2.87-1.68,4.49-2.19.36-.11.71-.23,1.08-.3,1.39-.23,1.88-.01,2.15.74.06.17.14.33.17.49.1.53-.41,1.04-1.22,1.27-1.21.37-2.4.83-3.54,1.4-1.12.57-2.27,1.25-3.05,2.01l-.2.2c-.07.08-.11.13-.1.11h0s-.02,0-.02.02c0,0,0,.02,0,.02h0s0,.03.07.03c.2.06.55.07.97.02v.07Z"/><path class="cls-4" d="m309.39,191.76c-1.91.38-3.93.56-5.97.14-.74-.18-1.49-.34-2.19-.72-1.22-.64-2.27-1.62-2.96-2.76-.67-1.14-1.12-2.34-1.24-3.62-.1-1.13,0-2.27.33-3.32.21-.67.52-1.31.89-1.89.39-.57.9-1.05,1.42-1.48.33-.26.34-.17.22.19-.13.34-.29,1.02-.51,1.7-.5,1.14-.72,2.31-.63,3.42.05.56.17,1.1.34,1.63.13.54.35,1.09.58,1.62.59,1.27,1.79,2.11,3.12,2.48,1.46.44,3.16.53,4.85.27,1.04-.15,2.09-.4,3.11-.73,1.55-.51,3.08-1.16,4.47-2.02,1.09-.65,2.03-1.49,2.91-2.33.2-.18.36-.39.55-.57.69-.69.97-.79,1.6-.59.14.04.29.07.42.13.42.16.49.82.02,1.57-.71,1.07-1.61,2-2.6,2.83-.99.83-2.08,1.54-3.24,2.12-1.72.87-3.56,1.54-5.48,1.99l-.02-.06Z"/><path class="cls-4" d="m194.91,184.64c3.75-2.59,7.57-5.02,11.59-7.23,1.47-.8,2.93-1.64,4.55-2.29.58-.22,1.16-.44,1.82-.61.32-.09.68-.15,1.05-.2.4-.03.81-.08,1.42.08.16.05.3.09.46.17.17.1.35.22.5.35.28.26.56.72.61,1.01.21.7.04,1.29-.11,1.7-.16.42-.36.75-.56,1.05-.1.14-.2.29-.31.42-.07.08-.08.08-.12.13-.28.29-.64.57-1.03.91l-.14.13s-.13.12-.06.14h.3c.21,0,.43,0,.66.02.24.01.48.04.73.07l.78.09c.3.03.59.08.89.13,2.63.41,5.27,1.05,7.69,2.27,1.53.8,3.05,1.75,4.24,3.09,1.12,1.36,2.13,2.91,2.3,4.68.08,1.1.02.92-.69.28-.39-.3-.76-.8-1.43-1.19-.31-.21-.57-.47-.84-.74-.31-.24-.63-.49-.92-.77-.9-.8-1.89-1.46-2.94-2.06-.56-.26-1.07-.57-1.67-.77l-.86-.34-.9-.27c-1.2-.37-2.43-.7-3.7-.93-.64-.11-1.28-.22-1.92-.29l-.31-.04c-.18-.02-.34-.03-.51-.04l-1.01-.02c-.68,0-1.33-.04-2.01-.02l-1.31-.23c-.22-.15-.39-.31-.59-.46-.17-.14-.22-.24-.34-.36-.14-.27-.07-.43-.05-.64.03-.18.12-.38.21-.6.06-.21.19-.48.4-.77.2-.29.5-.62.91-.95.38-.33.72-.65,1.05-.97.33-.32.64-.64.92-.97l.15-.18.09-.12c.06-.08.11-.16.17-.24.1-.15.17-.3.2-.38,0-.02.02-.04.02-.05.02,0-.05-.02.09,0,.04,0,.08,0,.13,0h.07s0,0,0,0c.25-.02-.33.03-.27.02h0s.02,0,.02,0h.04c.1,0,.21,0,.31-.04.05-.01.12-.05.14-.06,0,0,.02,0,.03,0,.01,0,.08-.05.05-.04-.1.1-.07.1-.21.4-.02.06-.04.13-.04.17h.01s-.04,0-.06,0c-.03-.01-.1,0-.19,0-.32.03-.76.14-1.19.29-.87.3-1.78.71-2.67,1.14-3.94,1.94-7.77,4.37-11.5,6.86-2.31,1.55-4.5,3.16-6.76,4.85-3.4,2.51-6.87,4.91-9.87,7.74-2.32,2.21-4.22,4.7-5.83,7.36-.34.59-.64,1.2-1,1.78-1.23,2.23-1.74,2.89-2.67,3.09-.21.05-.43.13-.61.14-.31,0-.45-.28-.45-.82.02-.53.12-1.35.52-2.27,2.17-5.64,6.66-10.59,11.53-14.42,1.8-1.45,3.65-2.81,5.48-4.14l2.71-2c.92-.69,1.85-1.38,2.79-2.04l.05.06Z"/><path class="cls-4" d="m234.54,171.28c-1.23-1.07-3.53-1.41-5.65-1.34-.69,0-1.4.27-2.11.48-2.55.87-4.95,2.73-6.9,4.92-.9.96-1.65,2.05-2.37,3.15-.42.73-.87,1.44-1.33,2.16-.22.36-.48.71-.69,1.08l-.34.54c-.12.18-.29.34-.42.51-.38.41-.31.37-.29-.12-.01-.5-.05-1.45.29-2.42.15-.43.29-.86.44-1.29.17-.42.4-.81.6-1.22.44-.79.88-1.59,1.41-2.34,1-1.53,2.25-2.93,3.71-4.1,1.75-1.38,3.6-2.89,5.96-3.62.32-.09.66-.16.99-.24.34-.05.69-.1,1.03-.13.63-.01,1.26-.05,1.9,0,1.27.07,2.58.27,3.84.78,1.54.61,3.04,1.86,3.63,3.56.49,1.26.42,2.62.14,3.83-.3,1.22-.87,2.32-1.54,3.31-1.05,1.54-2.38,2.9-4.05,3.88-.38.19-.73.42-1.14.55-1.51.52-2.09.29-2.49-.48-.09-.18-.2-.35-.26-.53-.18-.64.3-1.18,1.08-1.58.3-.13.57-.33.86-.47.27-.19.55-.34.8-.53.53-.34,1.02-.75,1.48-1.17.91-.86,1.7-1.89,2.13-2.99.34-.81.45-1.64.35-2.35-.11-.7-.45-1.3-1.08-1.78l.04-.06Z"/><path class="cls-4" d="m225.72,192.51c.12.04.44.18.65.28l.7.31c.44.22.9.44,1.28.67.84.46,1.31.99,1.63,1.49.16.26.2.51.27.81.11.3-.07.72-.17.99-.28.53-.72.85-1.41,1.13-.49.2-1.12.33-1.79.43-.69.08-1.4.13-2.04.13-.33,0-.45,0-.65,0l-.55-.02-1.09-.07c-.72-.05-1.44-.11-2.15-.18-1.43-.14-2.85-.3-4.27-.5-1.26-.17-2.52-.29-3.77-.43-1.6-.18-3.23-.23-4.76-.9-.47-.25-.4-.27.05-.47.46-.27,1.29-.61,2.21-.63,3.26.18,6.51.3,9.75.72.97.12,1.97.16,2.96.16.5,0,1-.01,1.49-.03l.85-.02c.37-.02.86.04,1.28-.24.17-.21-.07-.38-.2-.5-.16-.13-.36-.24-.57-.35-.23-.17-1.89-.79-3.09-1.16-1.95-.6-3.93-1.18-5.93-1.55-1.55-.29-3.11-.36-4.65-.43-.34,0-.67-.01-1.01-.02-1.25-.05-1.61-.26-1.88-.98-.06-.16-.15-.32-.18-.48-.14-.52.42-1.03,1.44-1.14,3-.29,6.03.19,9.02.86,2.23.5,4.39,1.22,6.58,2.06l-.02.06Z"/><path class="cls-4" d="m177.09,213.72c.52.79,1.1,1.58,1.68,2.24.61.69,1.33,1.34,2.04,1.98.54.46,1.14.82,1.7,1.23,1,.73,2.06,1.37,3.16,1.85,1.09.47,2.26.77,3.3.63.23-.03.43-.12.65-.18.2-.1.37-.23.56-.34.24-.17.44-.52.52-.96.1-.57.04-1.24-.14-1.86-.08-.32-.2-.61-.33-.9-.15-.26-.22-.6-.43-.85-.24-.29-.28-.38.25-.44.25,0,.65.04,1.1.22.43.2.79.58,1.06,1.04.44.83.74,1.73.77,2.78,0,.53-.06,1.1-.3,1.7-.14.3-.28.61-.52.88-.11.14-.25.29-.37.38l-.35.24c-.93.69-2.04.87-3.02.92-.98-.02-1.9-.18-2.7-.5-1.96-.7-3.8-1.52-5.47-2.62-1.81-1.21-3.47-2.69-4.8-4.47-.81-1.06-1.54-2.18-2.19-3.34-.96-1.78-1.69-3.69-2.16-5.67-.37-1.53-.71-3.08-.7-4.71.01-.36-.03-.71.04-1.07.19-1.33.59-1.68,1.43-1.7.2,0,.4-.02.58,0,.64.09,1,.71,1.01,1.51.07,2.39.34,4.69,1.15,7.01.59,1.71,1.45,3.4,2.54,4.96l-.06.05Z"/><path class="cls-4" d="m383.9,320.12c.47.37.94.75,1.43,1.09.18.13.39.2.56.34.61.49,1.23.98,1.87,1.42.29.19.57.4.87.57.38.21.75.48,1.07.81.1.11.03.2-.14.3-.17.09-.48.22-.75.2-.49-.03-.93-.14-1.38-.26-.44-.12-.8-.42-1.18-.69-.43-.35-.99-.51-1.48-.78-.53-.31-1.05-.65-1.56-.99-.32-.21-.63-.43-.95-.64-.48-.31-.94-.67-1.45-.94-.39-.22-.85-.31-1.27-.48-.09-.04-.2-.06-.28-.11-.32-.18-.33-.38-.04-.91.07-.12.13-.25.2-.36.24-.4.58-.63.87-.6.87.07,1.52.49,2.18.93.49.33.96.7,1.45,1.04l-.03.05Z"/><path class="cls-4" d="m392.75,317.94c.28.27.57.53.87.78.11.09.24.14.35.23.39.33.77.66,1.18.95.18.13.38.23.58.32.25.12.51.24.7.48.06.08-.04.24-.19.4-.16.15-.39.32-.55.29-.6-.06-1.09-.35-1.57-.7-.27-.22-.64-.3-.96-.46-.35-.17-.69-.37-1.03-.57-.21-.12-.42-.25-.62-.37-.32-.18-.62-.39-.96-.54-.26-.12-.58-.13-.88-.19-.07-.01-.14,0-.2-.03-.23-.09-.21-.26.08-.77l.2-.35c.24-.39.53-.65.72-.67.58-.06,1,.17,1.42.44.3.22.58.49.89.72l-.02.04Z"/><path class="cls-4" d="m359.83,350.53c-.42-.34-.84-.69-1.26-1.03-.16-.13-.34-.2-.49-.33-.53-.47-1.05-.97-1.53-1.48-.22-.23-.47-.41-.7-.61-.15-.12-.32-.23-.47-.37-.13-.15-.24-.33-.31-.54-.04-.13.16-.32.45-.47.28-.15.67-.32.88-.26.64.35,1.24.72,1.76,1.28.3.36.75.51,1.15.75.43.28.87.56,1.3.84.27.17.55.34.82.51.42.25.84.53,1.29.74.35.17.77.21,1.16.34.09.03.19.03.27.07.3.16.29.36-.04.93l-.23.39c-.28.43-.63.7-.88.72-.74.03-1.34-.18-1.92-.55-.43-.27-.84-.59-1.28-.89l.03-.05Z"/><path class="cls-4" d="m357.27,372.42c-.48-.36-.96-.72-1.43-1.08-.17-.13-.38-.21-.55-.36-.61-.49-1.18-1.02-1.75-1.54-.25-.24-.54-.42-.78-.65-.34-.27-.67-.55-.89-.95-.07-.13.1-.28.36-.4.25-.11.6-.21.81-.1.37.2.77.35,1.09.59.32.25.64.5.94.81.36.36.86.54,1.31.79.49.29.99.57,1.48.86.31.18.62.36.93.54.48.26.95.56,1.45.79.39.18.85.24,1.28.39.09.04.2.05.29.1.32.19.33.39.02.93-.07.12-.14.25-.22.36-.27.4-.61.63-.88.62-.8,0-1.37-.37-2.03-.74-.47-.28-.96-.62-1.46-.93l.02-.05Z"/><path class="cls-4" d="m356.77,394.14c-.49-.32-.97-.67-1.46-1.02-.18-.12-.38-.2-.56-.33-.62-.47-1.22-.97-1.8-1.46-.25-.23-.56-.38-.8-.62-.33-.28-.64-.58-.87-.96-.07-.12.02-.2.2-.26.18-.05.49-.12.73-.06.89.18,1.54.6,2.19,1.12.38.32.9.45,1.36.66.51.24,1.02.47,1.53.73.32.16.64.32.95.47.49.23.97.49,1.48.67.4.14.85.14,1.29.21.09.02.2.02.28.05.33.12.35.33.11.96l-.17.43c-.21.48-.52.8-.81.83-.85.13-1.49-.21-2.18-.54-.5-.26-.99-.56-1.5-.85l.02-.05Z"/><path class="cls-4" d="m356.14,409.37c-.62-.41-1.24-.82-1.85-1.23-.23-.15-.47-.26-.69-.41-.78-.55-1.55-1.1-2.3-1.68-.34-.25-.69-.47-1.04-.69-.45-.27-.91-.55-1.31-.92-.12-.12-.02-.25.2-.33.21-.08.54-.14.83-.02.99.43,1.98.86,2.87,1.48.52.39,1.15.63,1.74.93.64.34,1.28.68,1.92,1.02.4.21.8.41,1.2.62.61.3,1.22.63,1.85.89.49.21,1.02.3,1.54.44.11.03.24.04.34.1.39.19.44.39.27.92-.04.12-.07.25-.12.37-.16.4-.48.64-.83.63-1.01-.04-1.87-.48-2.73-.94-.63-.35-1.26-.75-1.89-1.13l.02-.04Z"/><path class="cls-4" d="m356.64,419.48c-.56-.44-1.12-.89-1.69-1.32-.21-.16-.44-.26-.65-.42-.73-.56-1.4-1.21-2.12-1.77-.32-.25-.66-.47-.99-.68-.44-.26-.83-.61-1.19-1-.11-.13-.02-.22.18-.3.2-.07.54-.16.85-.09.54.1,1.01.33,1.47.57.46.24.9.5,1.32.82.5.38,1.13.59,1.68.91.6.36,1.21.72,1.81,1.08.37.22.75.45,1.12.67.57.33,1.12.72,1.71,1,.46.22.99.31,1.49.46.11.03.23.04.33.09.39.17.42.38.14,1.02-.06.14-.12.29-.19.43-.24.48-.61.77-.94.75-.99-.07-1.8-.51-2.61-.98-.6-.35-1.17-.77-1.75-1.18l.03-.05Z"/><path class="cls-4" d="m358.14,442.79c-.61-.49-1.21-.99-1.82-1.48-.22-.19-.46-.33-.67-.52-.74-.68-1.47-1.37-2.22-2.02-.34-.28-.69-.55-1.02-.82-.44-.34-.88-.69-1.26-1.12-.12-.14-.02-.23.2-.27.21-.04.56-.06.85.07.52.24,1.04.48,1.53.76.48.3.94.62,1.38.98.52.44,1.18.72,1.78,1.08.66.38,1.27.84,1.91,1.25.39.26.78.52,1.18.77.61.37,1.2.77,1.85,1.06.5.23,1.06.32,1.6.45.12.03.25.04.36.08.41.18.45.4.24,1.04-.05.15-.09.29-.15.43-.19.48-.55.77-.92.77-1.1-.04-2.01-.56-2.91-1.11-.67-.41-1.3-.89-1.94-1.34l.03-.05Z"/><path class="cls-4" d="m360.36,454.57c-.6-.47-1.2-.93-1.79-1.4-.22-.17-.46-.3-.68-.48-.75-.64-1.49-1.28-2.26-1.88-.34-.27-.7-.5-1.07-.72-.46-.3-.89-.64-1.26-1.08-.11-.14,0-.27.23-.37.23-.09.61-.2.92-.11.27.08.55.15.81.26.24.13.49.25.73.39.48.27.94.57,1.38.92.52.42,1.19.66,1.78.99.66.36,1.28.78,1.92,1.19l1.17.75c.6.36,1.19.76,1.82,1.06.49.23,1.05.33,1.58.48.12.03.25.04.36.09.41.18.43.42.16,1.08-.06.15-.12.31-.19.45-.24.5-.63.8-.99.79-1.06-.07-1.92-.56-2.79-1.1-.64-.4-1.25-.85-1.87-1.28l.03-.05Z"/><path class="cls-4" d="m382.48,346.48c2.4,0,4.81-.03,7.22-.1l2.63-.12c3.09-.09,6.2-.11,9.29-.24,1.37-.05,2.75-.15,4.11-.25,1.75-.12,3.51-.22,5.27-.19.55.01.48.18.04.4-.45.22-1.28.52-2.28.68l-2.66.37-2.68.25c-1.79.15-3.58.27-5.39.34-2.16.08-4.4.33-6.6.45-2.43.13-4.86.23-7.29.32l-4.49.12c-2.27.03-4.55.07-6.8.1-1.75.03-3.48.16-5.24.17-.39,0-.77,0-1.17,0-1.46-.12-1.94-.43-2.11-1.05-.04-.15-.1-.29-.11-.43-.03-.47.61-.76,1.59-.76,2.97-.06,6.19-.06,9.43-.05,2.4,0,4.83,0,7.25-.04v.05Z"/><path class="cls-4" d="m369.84,363.71c.95.06,1.91.09,2.87.09.35,0,.7-.06,1.05-.05,1.25,0,2.5,0,3.75,0,.56,0,1.11-.03,1.66-.07.71-.04,1.42-.18,2.14.05.22.06.2.24.03.48-.18.21-.49.66-.89.7-1.41.21-2.82.51-4.29.4-.88-.04-1.77.12-2.66.17-.98.05-1.97.07-2.96.08-.61,0-1.22,0-1.83-.03-.93-.02-1.85-.11-2.78-.17-.72-.05-1.45,0-2.19-.08-.16-.02-.33,0-.49-.04-.6-.17-.75-.37-.68-.91.01-.12.02-.25.05-.36.09-.4.43-.65.82-.67,1.18-.04,2.35.13,3.6.22.92.07,1.87.15,2.82.17v.05Z"/><path class="cls-4" d="m384.05,376.47c2.27.01,4.54-.01,6.81-.05l2.49-.09c2.93-.04,5.86-.08,8.79-.12,1.3-.04,2.61-.06,3.9-.12,1.66-.04,3.32-.23,4.99.03.52.08.45.23.03.49-.21.13-.52.3-.89.48-.37.16-.8.26-1.28.32-1.68.18-3.36.35-5.04.5-1.68.14-3.38.15-5.09.16-2.04,0-4.16.24-6.24.34-2.29.12-4.6.17-6.9.21l-4.25.04c-2.15-.01-4.3-.03-6.44-.04-1.66-.01-3.29.09-4.94.1-.36,0-.72.03-1.09,0-1.36-.06-1.77-.29-2-.9-.05-.14-.13-.29-.15-.42-.08-.47.5-.82,1.48-.9,2.9-.17,5.93-.09,8.98-.08,2.27.02,4.55.05,6.84,0v.05Z"/><path class="cls-4" d="m417.62,359.57l-5.31.08c-.65.01-1.29.08-1.93.09-2.28.02-4.56.05-6.83.07-1.01.02-2.02.08-3.02.15-1.29.01-2.57.19-3.87-.09-.4-.08-.36-.18-.03-.41.23-.15.47-.31.68-.45.28-.16.62-.26.99-.32l1.95-.29c.65-.08,1.31-.1,1.96-.14,1.31-.07,2.62-.12,3.95-.11,1.58,0,3.22-.21,4.83-.32,1.78-.11,3.55-.22,5.33-.3l3.29-.16c1.66-.09,3.33-.14,4.97-.29,1.28-.11,2.52-.35,3.78-.54.28-.04.55-.1.83-.13,1.04-.1,1.38.04,1.63.67.06.14.13.29.17.43.12.5-.28.93-1.03,1.1-2.23.52-4.6.67-6.99.8-1.77.07-3.56.14-5.34.21v-.05Z"/><path class="cls-4" d="m427.95,369.08c-1.18,0-2.37,0-3.56.04-.43.01-.86.08-1.3.09-1.53.01-3.07.06-4.61.04-.68,0-1.36.04-2.04.08-.87.04-1.73.19-2.61-.04-.27-.06-.24-.24-.03-.49.22-.22.61-.69,1.1-.74,1.74-.26,3.46-.56,5.25-.52,1.07.03,2.15-.19,3.24-.29,1.19-.1,2.39-.19,3.59-.27l2.22-.13c1.12-.06,2.25-.07,3.36-.16.86-.07,1.71-.27,2.57-.4.19-.03.37-.08.56-.08.71-.03.94.13,1.09.74.03.14.08.28.1.42.07.47-.22.86-.72,1.02-1.49.46-3.06.53-4.64.62-1.17.06-2.36.09-3.55.12v-.05Z"/><path class="cls-4" d="m430.28,386.08c-.85-.02-1.71-.04-2.56-.07-.31,0-.62.05-.93.03-1.1-.08-2.21-.16-3.3-.24-.49-.03-.97,0-1.46,0-.62-.03-1.24.04-1.86-.24-.19-.11-.17-.25,0-.51.16-.29.45-.65.8-.73,1.23-.39,2.46-.36,3.72-.26.76.08,1.53-.1,2.29-.15.85-.03,1.7-.05,2.54-.08.52-.02,1.05-.04,1.57-.06.79-.05,1.59-.06,2.37-.17.61-.1,1.19-.31,1.79-.45.13-.03.26-.08.39-.1.5-.07.67.08.83.68.04.14.08.27.11.41.09.46-.08.87-.43,1.06-.52.28-1.05.48-1.6.63-.55.13-1.12.17-1.69.21-.85.06-1.71.06-2.57.08v-.06Z"/><path class="cls-4" d="m426.88,394.89c-1.29,0-2.58.02-3.87,0-.47,0-.94.04-1.41.03-1.66-.04-3.32-.1-4.97-.1-.73,0-1.47.04-2.2.09-.93.04-1.87.15-2.81-.03-.3-.07-.27-.24-.04-.51.23-.29.66-.65,1.2-.75.47-.08.95-.17,1.42-.23l1.43-.1c.95-.05,1.91-.07,2.88-.04,1.15.04,2.34-.14,3.52-.2,1.29-.08,2.58-.11,3.88-.15l2.39-.09c1.2-.06,2.41-.1,3.6-.24.92-.11,1.82-.34,2.72-.54.2-.04.39-.1.59-.14.75-.09,1.01.12,1.23.61.05.12.11.23.14.34.11.38-.16.76-.69,1.03-1.6.61-3.34.76-5.09.89-1.3.09-2.6.12-3.9.17v-.05Z"/><path class="cls-4" d="m410.62,409.23l-7.02.27c-.85.04-1.7.13-2.56.15-3.01.09-6.03.14-9.04.18-1.34,0-2.68.04-4.01.08-1.7.01-3.42.18-5.12-.12-.53-.09-.46-.26-.01-.53.22-.13.54-.3.92-.46.38-.15.83-.24,1.32-.27,3.45-.24,6.89-.56,10.39-.51,2.09,0,4.25-.25,6.39-.39l7.04-.46,4.34-.3c2.19-.17,4.39-.29,6.56-.51,1.69-.17,3.33-.48,4.99-.72.37-.05.72-.13,1.09-.17,1.38-.13,1.83.05,2.17.64.08.14.18.27.22.41.16.46-.37.91-1.36,1.17-2.94.67-6.08.93-9.24,1.18-2.34.19-4.71.28-7.07.43v-.05Z"/><path class="cls-4" d="m393.76,424.5c-2.64.21-5.29.33-7.94.48-.97.06-1.93.17-2.9.2-3.41.13-6.83.18-10.25.11-1.52-.03-3.04-.07-4.55-.11-1.93-.09-3.9-.13-5.79-.68-.59-.16-.46-.38.08-.62.27-.12.65-.25,1.1-.37.44-.11.94-.13,1.49-.12,3.85.14,7.72-.12,11.65-.02,2.35.03,4.79-.26,7.2-.45l7.94-.65,4.89-.43c2.47-.23,4.95-.44,7.4-.74,1.9-.23,3.76-.59,5.65-.85.42-.06.82-.13,1.24-.17,1.57-.11,2.08.03,2.45.64.08.14.19.28.24.42.17.47-.44.92-1.55,1.16-3.3.74-6.82,1.11-10.37,1.5-2.64.28-5.3.52-7.96.77v-.06Z"/><path class="cls-4" d="m370.03,443.07c.92.07,1.86.11,2.8.09.34,0,.68-.06,1.03-.07,1.22-.02,2.46-.07,3.69-.14.55-.03,1.1-.1,1.64-.16.7-.07,1.41-.08,2.11.03.22.04.2.2.03.41-.17.21-.49.5-.87.62-.34.1-.68.21-1.02.29-.34.05-.69.1-1.04.15-.7.09-1.4.16-2.11.18-.86.03-1.73.25-2.6.37-.97.11-1.94.2-2.92.23-.6.03-1.21.03-1.82.02-.92-.02-1.84-.09-2.75-.14-.71-.02-1.42.04-2.14.06-.16,0-.32.01-.47,0-.58-.06-.74-.25-.72-.9,0-.15,0-.3.02-.44.06-.5.37-.85.78-.91,1.22-.15,2.41-.02,3.63.09.9.09,1.82.15,2.74.19v.05Z"/><path class="cls-4" d="m425.83,431.56l-5.46.29c-.66.03-1.32.13-1.99.15-2.34.1-4.69.05-7.04.08-1.04,0-2.08.07-3.11.09-1.32-.01-2.66.12-3.98-.22-.41-.1-.36-.19,0-.41.24-.14.49-.29.71-.43.3-.15.64-.24,1.02-.3,2.66-.43,5.32-.54,8.03-.58,1.62-.01,3.29-.28,4.94-.4l5.45-.44,3.35-.31c1.69-.18,3.39-.34,5.05-.61,1.29-.22,2.54-.58,3.8-.89.28-.07.55-.16.83-.22,1.06-.14,1.42,0,1.74.6.07.14.16.27.22.4.17.46-.19.93-.94,1.26-2.22.89-4.67,1.18-7.12,1.49-1.82.21-3.66.35-5.49.51v-.06Z"/><path class="cls-4" d="m434.01,452.43c-1.28.07-2.56.12-3.84.14-.47,0-.93.09-1.39.09-1.65-.01-3.29-.06-4.93-.12-.73-.05-1.45-.02-2.17-.03-.92.02-1.85.07-2.77-.35-.29-.09-.25-.16,0-.35.12-.09.29-.25.5-.44.21-.17.45-.29.71-.38.92-.23,1.85-.28,2.77-.4.92-.11,1.85-.11,2.79-.05,1.12.06,2.27-.17,3.41-.28l3.76-.34c.77-.08,1.55-.14,2.32-.24,1.17-.14,2.35-.26,3.5-.5.89-.19,1.74-.53,2.61-.82.19-.06.37-.15.57-.2.73-.13,1,.03,1.28.74.06.16.14.32.18.48.16.54-.06,1.06-.56,1.35-1.5.81-3.18,1.08-4.88,1.34-1.26.18-2.55.29-3.83.41v-.06Z"/><path class="cls-4" d="m360.9,464.81c-10.87-3.29-28.93-12.8-28.93-18.71,0-4.09,12.83-2.38,12.83-2.38l3,8.67,13.1,12.41Z"/><path class="cls-4" d="m367.68,320.14l-10.28.56-2.43.14h-.46c-.16.01-.34.01-.53.03.04.04.11.09.16.13l.09.07s.04.02.04.04l-.04.04.35.2.7.49,2.73,1.9c1.36.94,2.73,1.87,4.11,2.77,1.36.89,2.77,1.82,4.07,2.53.13.06.28.14.4.19.11.04.21.1.39.12l.93.21.46.11c.17.03.34.04.51.06l1.04.11c.68.09,1.4.12,2.11.14.72.02,1.42.07,2.15.07,2.88.02,5.78-.03,8.69-.15,5.81-.23,11.64-.61,17.46-1.02,5.17-.36,10.36-.79,15.5-1.21,6.59-.54,13.23-1.16,19.87-.72,2.07.23,1.79.27.06.76-1.73.47-4.89,1.38-8.66,1.75-13.4,1.15-26.83,2.38-40.48,2.9-4.09.12-8.24.35-12.48.35-1.06,0-2.13-.05-3.2-.07-.53-.01-1.08-.09-1.63-.13-.55-.07-1.07-.06-1.65-.19l-1.72-.37c-.68-.23-1.15-.51-1.65-.77-.96-.55-1.85-1.12-2.73-1.7-1.8-1.19-3.55-2.4-5.31-3.61l-2.63-1.82c-.31-.22-1.23-.84-1.86-1.3l-1.96-1.46-.32-.2-.16-.1-.04-.08-.17-.3-.35-.6-.18-.3-.09-.15h0s0-.01,0-.01c.49.12.14.03.25.06h0s0-.02,0-.03l.02-.03.04-.05c.11-.12.19-.24.32-.38.32-.24.91-.51,1.91-.57.95-.08,1.93-.14,2.9-.21l7.65-.42c5.63-.29,11.26-.57,16.88-.86,8.52-.46,17.08-.87,25.52-1.46,1.64-.12,3.27-.24,4.89-.39l1.21-.12.6-.07c.19-.02.36-.06.73-.03.36.01.53.08.76.13.23.05.44.1.63.16.41.12.81.24,1.2.36,3.12,1.01,6.16,2.04,9.26,2.89,1.36.38,2.71.7,4.09,1.01,2.56.58,4.26.86,5.44,1.12,1.18.26,1.86.52,2.41.88.25.17.59.34.74.5.54.48-1.75,1.07-5.77.55-5.92-.77-11.76-2.77-17.42-4.66l-1.01-.3-.43-.1c-.11-.03-.02,0-.03,0h0s0,.02,0-.03v-.14s-.01-.27-.01-.27c-.01-.18-.03-.37-.06-.55l-.02-.14c.24,2.19.06.61.11,1.1h0s-.04,0-.04,0c-.8.09-1.56.16-2.33.22-1.53.12-3.06.23-4.59.35-3.06.2-6.13.39-9.21.59-9.13.51-18.31,1.03-27.46,1.54v-.06Z"/><path class="cls-4" d="m359.93,415.71c-.15-3.37-.32-6.74-.39-10.12l-.13-5.06-.04-5.06c-.05-2.46-.07-4.93-.02-7.39.22-8.68.66-17.35,1.59-25.98.17-1.92.39-3.83.61-5.75.21-1.91.44-3.82.7-5.71.37-2.43.71-4.86,1.11-7.28.45-2.42.98-4.82,1.56-7.2.37-1.48.35-1.28.33.03-.03,1.3.11,3.73-.15,6.53l-.54,7.45c-.2,2.48-.24,4.97-.51,7.44-.25,2.47-.36,4.96-.57,7.45-.25,2.48-.44,4.97-.65,7.47-.53,5.98-.48,12.23-.52,18.36-.03,3.37.02,6.75.03,10.13.1,3.38.12,6.75.28,10.13l.27,6.23.4,6.23c.19,3.14.49,6.29.74,9.43.28,3.14.62,6.27.97,9.38.31,2.41.65,4.8,1,7.17.38,2.37.76,4.73,1.15,7.11.18,1.04.35,2.07.53,3.12.64,3.9.53,5.19,0,6.13-.12.21-.24.49-.37.62-.44.45-1.12-1.08-1.79-3.92-1.76-8.46-3.06-17.48-4.01-26.58-.38-3.38-.64-6.77-.96-10.16-.23-3.4-.52-6.8-.7-10.2h.07Z"/><path class="cls-4" d="m342.62,415.64c-.1-7.63-.02-15.25.09-22.87.04-2.78.07-5.56.11-8.34.36-9.79.91-19.57,1.66-29.34.39-4.33.67-8.69,1.09-12.99.15-1.38.26-2.76.43-4.14l.54-4.13c.33-2.76.9-5.49,1.5-8.2.57-1.65.44-1.44.56.06.12,1.5.08,4.19-.1,7.37-.2,2.81-.46,5.6-.57,8.42-.16,2.81-.43,5.61-.56,8.43-.16,2.81-.38,5.63-.51,8.45-.19,2.82-.38,5.65-.57,8.48-.46,6.78-.46,13.86-.61,20.81-.19,7.64-.22,15.3-.2,22.95.05,4.71.09,9.42.27,14.12.05,1.78.1,3.56.19,5.34.09,1.78.12,3.57.26,5.34.23,3.54.47,7.11,1.05,10.54l.36,1.98.29.87c.12.29.28.57.41.86.61,1.14,1.35,2.23,2.18,3.27,1.65,2.08,3.5,4.03,5.44,5.88.86.81,1.74,1.57,2.63,2.36,3.35,2.89,4.41,3.73,4.84,4.8.1.24.27.52.3.71.15.64-1.76.05-4.43-1.99-1.98-1.5-3.88-3.13-5.72-4.89-1.85-1.75-3.63-3.61-5.27-5.7-.42-.51-.79-1.08-1.19-1.63-.36-.6-.75-1.14-1.07-1.81-.16-.33-.33-.64-.47-.99l-.38-1.12c-.15-.67-.26-1.32-.4-1.98-.29-1.33-.45-2.62-.61-3.92-.17-1.3-.34-2.6-.44-3.89-.39-3.85-.62-7.7-.84-11.55-.15-3.85-.27-7.71-.33-11.55h.07Z"/><path class="cls-4" d="m439.59,412.31c.8,10.43,1.89,20.86,3.59,31.16l.48,2.82.58,2.79.58,2.79c.19.93.45,1.83.67,2.75l.67,2.72.42,1.3.12.37.17.58.33,1.16c.1.49,0,.94.02,1.41,0,.06,0,.12,0,.17-.02.06-.07.09-.1.13-.07.07-.15.13-.24.19-.17.12-.38.23-.63.31-.51.16-1.17.18-1.79.21l-1.46.07-4.37.14-8.71.26c-5.8.2-11.6.44-17.39.78-2.99.17-5.98.38-8.97.63-2.99.23-5.97.47-8.92.75-7.6.73-15.18,1.69-22.79,2.5-2.39.15-2.05.27-.1-.32,1.02-.3,2.4-.71,4.03-1.19,1.68-.46,3.67-.93,5.85-1.34,1.93-.38,3.86-.68,5.8-.95,1.94-.28,3.88-.54,5.82-.78,3.89-.47,7.78-.96,11.69-1.25,7.82-.6,15.66-.99,23.54-1.22,3.07-.11,6.18-.23,9.31-.35,1.56-.08,3.12-.15,4.69-.23l1.39-.09c.11-.02.28,0,.35-.07-.03-.12-.15-.25-.1-.36l-.09-.19-.04-.1s-.03-.05-.07-.18l-.41-1.24c-.26-.83-.44-1.66-.66-2.48-.43-1.65-.85-3.31-1.15-4.97-2.12-10.46-3.39-21.02-4.38-31.59l-.44-4.88-.34-4.89-.34-4.89-.24-4.89c-.29-4.94-.36-9.89-.49-14.84-.01-4.95-.08-9.89.07-14.79.1-7.63.44-15.12,1.13-22.67.2-1.66.4-3.28.61-4.95.36-3.1.91-5.11,1.32-6.51.42-1.39.83-2.15,1.34-2.72.23-.26.48-.61.68-.74.67-.44.67,2.14-.07,6.55-.16.81-.25,1.65-.33,2.48-.09.83-.18,1.67-.27,2.51-.17,1.68-.42,3.35-.54,5.06-.12,1.7-.25,3.42-.37,5.14-.07.86-.13,1.72-.2,2.58l-.11,2.6c-.14,3.48-.34,6.97-.35,10.5-.03,1.76-.06,3.52-.09,5.29.01,1.77.02,3.54.04,5.31.1,10.52.49,21.1,1.37,31.63l-.07.02Z"/><path class="cls-4" d="m238.4,230.77c-1.66-.48-3.32-.99-5.01-1.42-.61-.16-1.24-.25-1.86-.41-2.17-.56-4.35-1.11-6.55-1.58-.97-.22-1.97-.35-2.94-.53-1.25-.22-2.52-.4-3.74-.8-.38-.12-.28-.38.1-.61.38-.23,1.04-.47,1.77-.43,2.6.12,5.17.52,7.73,1.15,1.53.38,3.16.54,4.74.83,1.74.33,3.47.7,5.19,1.11,1.06.25,2.11.55,3.17.81,1.6.43,3.19.92,4.78,1.39,1.24.36,2.5.61,3.77,1.06.28.11.57.2.84.32.51.21.83.52.97.78.14.27.12.55-.03.91-.07.16-.13.33-.22.48-.32.49-.96.64-1.53.42-1.85-.61-4.03-1.28-6.21-1.96-1.63-.51-3.29-1.01-4.98-1.45v-.06Z"/><path class="cls-4" d="m226.34,244.19c7.16,1.56,14.26,3.51,21.1,6.26l3.4,1.41c1.03.45,2.59,1.23,2.48,1.19.05.01.1.05.15.08.18.17.19-.07.21-.19l.04-.22c.01-.09.02-.08.06-.46l.46-3.48c.32-2.32.69-4.64,1.12-6.95.86-4.62,1.91-9.21,3.3-13.7,1.24-3.98,2.66-7.94,4.39-11.72,1.1-2.43,2.35-4.81,3.82-7.05,1.44-2.26,3.16-4.35,5.14-6.15.67-.51.98-.7.99-.66.02.05-.25.36-.57.99-.32.64-.83,1.49-1.37,2.56-.28.53-.55,1.12-.88,1.71-.34.59-.7,1.2-1.07,1.85-2.63,4.55-4.81,9.35-6.51,14.37-.86,2.5-1.6,5.05-2.31,7.62-.72,2.57-1.36,5.16-1.94,7.79-.61,2.77-1.08,5.63-1.46,8.52-.19,1.45-.35,2.9-.51,4.36l-.16,1.48c-.08.6-.14,1.25-.33,1.72-.09.23-.21.42-.33.58-.06.08-.13.15-.2.22-.08.09-.19.08-.27.09-.1,0-.16.04-.28.01l-.36-.07c-.24-.05-.48-.09-.73-.16-.94-.46-1.88-.91-2.81-1.37-6.48-3.1-13.46-5.17-20.51-6.82-4.35-1-8.74-1.83-13.17-2.45-3.35-.47-6.72-.89-10.1-1.21l-2.53-.23-1.27-.11c-.36-.03-1.04-.07-1.58-.25-1.12-.34-1.66-1.85-1.84-2.67-.21-.94-.28-1.85-.28-2.74,0-2.76.42-5.38.88-7.98.47-2.59,1.07-5.14,1.76-7.68.3-1.12.59-2.21.94-3.33,1.34-4.11,2.1-5.32,3.28-5.83.27-.12.55-.3.78-.34.75-.12.66,1.7-.23,4.65-1.27,4.4-2.5,8.95-3.4,13.56-.43,2.29-.79,4.63-.81,6.81,0,.53.02,1.06.09,1.53.02.24.07.46.12.65.02.11.05.19.07.27.03.09.04.16.04.14h0s1.28.12,1.28.12c7.31.66,14.67,1.67,21.92,3.17v.07Z"/><path class="cls-2" d="m274.68,198.89c6.93-1.44,8.38-13.47,6.52-14.53,0,0-33.7-21.23-49.26-15.41,0,0,5.17,6.77,2.63,9.09s-3.48,5.2.4,5.56c3.88.36,16.38,2.13,22.39,5.09,6.01,2.96,17.32,10.21,17.32,10.21Z"/><path class="cls-4" d="m271.61,186.11c-.16.48-.35.94-.57,1.38-.07.16-.13.33-.22.48-.34.53-.71,1.04-1.18,1.45-.2.19-.39.36-.59.55-.23.25-.57.39-.9.5-.1.03-.12-.02-.11-.15.02-.12.03-.36.1-.53.04-.19.12-.32.21-.44.09-.13.15-.27.24-.39.08-.12.16-.25.24-.38.1-.1.21-.21.32-.32.27-.26.38-.63.54-.97.17-.37.32-.76.43-1.16.07-.25.13-.5.16-.75.06-.38.11-.78.06-1.16-.05-.3-.18-.57-.3-.84-.03-.06-.06-.12-.09-.17-.08-.22-.01-.32.32-.49l.23-.12c.26-.12.51-.09.67.08.45.52.67,1.22.68,1.91.02.26,0,.52-.02.77-.04.25-.09.51-.16.75h-.04Z"/><path class="cls-4" d="m265.95,184.1c-.18.23-.37.46-.54.7-.06.09-.1.19-.16.27-.23.3-.47.6-.68.91-.09.14-.16.29-.23.44-.08.19-.13.41-.31.55-.11.09-.74-.4-.67-.63.14-.41.32-.8.61-1.14.17-.2.24-.47.36-.71.14-.25.28-.51.43-.77.09-.16.18-.32.27-.47.13-.24.27-.47.37-.73.08-.2.08-.42.12-.63,0-.05,0-.1.02-.14.05-.16.16-.17.51-.05l.24.09c.26.11.44.27.46.42.05.44-.06.82-.26,1.15-.15.25-.33.49-.49.74h-.03Z"/><path class="cls-4" d="m247,84.62c.25.21.45.43.65.61.08.07.17.08.23.15.24.24.47.45.71.64.11.09.23.09.34.11.14-.01.28.01.48.07.07.03.13.16.16.34.02.18,0,.45-.13.58-.24.21-.54.3-.82.31-.28,0-.55-.03-.75-.18-.24-.19-.53-.2-.76-.31-.26-.12-.48-.27-.7-.39-.13-.07-.27-.16-.39-.21-.2-.08-.38-.18-.55-.18-.13.02-.23.17-.26.28,0,.02-.01.06-.02.08-.02.06-.1-.08-.42-.55l-.22-.32c-.25-.36-.37-.71-.24-.92.38-.64,1.24-.75,1.77-.63.4.08.71.32.96.49l-.02.05Z"/><path class="cls-4" d="m221.86,92.12c.26,2.69,1.76,5.04,4.03,6.51,2.43,1.57,5.5,1.82,8.27,1.21.7-.15,1.11-.97.93-1.63-.2-.72-.93-1.08-1.63-.93-2.05.45-4.28.25-6.1-.86-1.51-.93-2.69-2.61-2.85-4.31-.07-.71-.56-1.32-1.32-1.32-.66,0-1.39.61-1.32,1.32h0Z"/><path class="cls-4" d="m234.47,99.81c.86,2.01,3.15,2.86,5.17,3.07,2.15.22,4.41-.4,6.18-1.63.59-.41.86-1.16.48-1.81-.34-.58-1.22-.89-1.81-.48-1.39.97-2.87,1.4-4.53,1.29-.37-.02-.58-.05-1-.16s-.64-.18-.91-.32c-.16-.08-.32-.18-.47-.28-.05-.03-.17-.12-.06-.03-.07-.05-.14-.12-.2-.18-.08-.08-.16-.16-.23-.24-.14-.16.08.13-.04-.05s-.2-.35-.28-.53c-.28-.66-1.25-.8-1.81-.48-.68.4-.76,1.15-.48,1.81h0Z"/><path class="cls-4" d="m235.31,82.56c-2.8-2.4-6.46-3.7-10.16-3.47-.72.04-1.41.6-1.38,1.38.03.71.61,1.42,1.38,1.38s1.61-.04,2.4.07c-.18-.02.32.06.38.07.2.04.39.08.59.12.37.09.73.19,1.09.31,1.31.43,2.72,1.22,3.76,2.1.56.48,1.39.55,1.94,0,.49-.49.57-1.46,0-1.94h0Z"/><path class="cls-4" d="m222.9,117.31c-.1.02-.19.07-.29.11s-.2.08-.28.13c-.17.1-.34.23-.47.38-.27.3-.49.66-.59,1.06-.04.16-.05.32-.07.48,0,.05,0,.1,0,.14,0,.2.03.42.09.61.05.15.11.3.18.44s.2.28.28.39c.03.03.05.06.08.09.11.11.25.2.38.29.04.03.08.05.12.07.14.07.29.14.45.19.04.01.09.02.13.03.16.03.32.05.48.06.21.01.43-.03.63-.06s.4-.13.57-.22c.04-.02.08-.04.12-.07.13-.09.26-.19.38-.29.15-.14.28-.3.37-.48.07-.14.13-.29.19-.44.02-.05.03-.09.03-.14.03-.19.08-.41.06-.62-.02-.21-.04-.44-.12-.65-.06-.15-.12-.32-.2-.46s-.2-.27-.29-.39c-.13-.17-.31-.29-.49-.41-.04-.03-.09-.05-.13-.07-.15-.07-.3-.15-.47-.18-.36-.08-.74-.05-1.06.14-.16.09-.29.2-.39.35-.12.13-.2.29-.25.47l-.05.37c0,.25.06.48.19.69.19.29.47.55.82.63.05.01.09.03.14.04l-.33-.14c.07.03.13.07.18.11l-.28-.22c.06.05.11.1.16.17l-.22-.28c.05.07.09.14.13.22l-.14-.33c.04.09.06.18.08.28l-.05-.37c0,.08.01.17,0,.25l.05-.37c-.01.07-.03.14-.06.21l.14-.33c-.03.06-.06.12-.1.17l.22-.28c-.04.05-.09.1-.14.14l.28-.22c-.06.04-.12.08-.19.11l.33-.14c-.08.04-.17.06-.26.07l.37-.05c-.09.01-.18.01-.27,0l.37.05c-.09-.01-.18-.03-.26-.07l.33.14c-.07-.03-.14-.07-.2-.12l.28.22c-.05-.04-.1-.09-.14-.14l.22.28c-.04-.05-.07-.11-.1-.17l.14.33c-.03-.07-.04-.14-.05-.21l.05.37c-.01-.08,0-.17,0-.25l-.05.37c.01-.09.04-.18.07-.26l-.14.33c.04-.08.08-.16.14-.23l-.22.28c.05-.06.1-.12.16-.16l-.28.22c.06-.04.12-.08.19-.11l-.33.14s.08-.03.12-.04c.18-.04.33-.12.47-.25.15-.1.27-.23.35-.39.1-.16.15-.33.16-.51.04-.18.03-.37-.02-.55-.11-.33-.31-.65-.63-.82l-.33-.14c-.24-.07-.49-.07-.73,0h0Z"/><path class="cls-4" d="m239.52,92.31c-1.12,1.19-2.05,2.65-2.69,4.21-.23.58-.36,1.2-.54,1.81-.63,2.15-.99,4.44-.86,6.7.09.99.24,2,.6,2.9.22.59.52,1.12.83,1.64.3.53.63,1.05,1.03,1.56.24.34.13.44-.3.41-.22-.01-.53-.04-.92-.13-.34-.13-.73-.33-1.08-.63-1.12-1.15-1.69-2.67-2.04-4.11-.34-1.47-.32-2.96-.17-4.41.21-1.73.33-3.51.78-5.24.5-1.9,1.36-3.74,2.49-5.34.7-.99,1.51-1.91,2.44-2.73.71-.61,1.5-1.14,2.36-1.56.87-.4,1.8-.69,2.76-.83,1.48-.2,3.03-.23,4.59.48.34.16.69.33,1.01.6.6.5.85,1.05.84,1.46,0,.41-.21.69-.58.91-.17.1-.33.21-.51.26-.6.16-1.16-.1-1.55-.21-1.01-.59-3.1-.94-4.77-.32-1.29.45-2.61,1.37-3.68,2.61l-.05-.04Z"/><path class="cls-4" d="m129.3,113.55c-.37-.72-.64-1.59-.68-2.5-.06-1.02.28-2.23,1.04-2.98.74-.79,1.85-1.14,2.92-1.04.26.02.55.08.78.14.22.06.43.13.63.22.39.18.78.41,1.09.67.91.72,1.66,1.64,2.05,2.66,1.32,3.64-.07,7.42-2.48,9.71-1.07,1.04-2.35,1.88-3.76,2.35-1.78.58-3.89.67-5.53-.34-.5-.32-.27-.54.27-.69.27-.08.63-.17,1.01-.27.38-.08.78-.14,1.21-.15,1.52-.02,2.96-.56,4.13-1.46,1.17-.91,2.12-2.16,2.75-3.53.75-1.65.48-3.82-.47-5.13-.26-.36-.58-.68-.92-.92-.32-.21-.73-.35-.91-.36-.23-.03-.5.06-.66.25-.08.1-.14.22-.17.34-.02.06-.03.13-.03.19,0,.08,0,.19,0,.29.08,1,.89,2.23,1.85,2.76,1.43.89,3.71.22,4.78-1.31.43-.56.62-1.27.69-1.98.06-.71-.06-1.43-.24-2.12-.07-.31-.19-.6-.28-.9-.39-1.12-.44-1.52.07-2.17.11-.15.21-.32.33-.44.39-.43,1.18-.22,1.89.79.5.75.92,1.6,1.18,2.55.21.95.27,1.98.09,3.03-.1.52-.23,1.05-.44,1.55-.2.52-.5,1.04-.83,1.49-.68.91-1.54,1.65-2.54,2.16-1.46.77-3.32,1.08-5.11.49-1.78-.6-3.02-1.91-3.78-3.32l.06-.04Z"/><path class="cls-4" d="m400.43,128.18c.65.26,1.24.77,1.55,1.4.32.63.36,1.3.23,1.96-.13.66-.47,1.32-.97,1.96-.52.64-1.26,1.24-2.11,1.68-.14.09-.32.16-.43.21l-.32.14c-.22.08-.43.17-.66.22-.44.14-.9.21-1.36.25-1.62.1-3.3-.41-4.52-1.43-1.22-1.01-2.04-2.39-2.39-3.86-.33-1.3-.26-2.71.18-3.94.55-1.56,1.65-3.07,3.25-3.64.5-.17.47,0,.2.36-.13.19-.31.44-.49.74-.19.29-.41.59-.66.91-.88,1.12-1.31,2.55-1.23,3.88.1,1.33.69,2.65,1.64,3.65.56.6,1.29,1.06,2.09,1.25.8.2,1.67.16,2.48-.04.22-.06.44-.13.66-.21l.45-.2c.18-.09.36-.2.53-.35.33-.28.69-.79.53-1.31-.1-.31-.41-.5-.71-.51-.31-.02-.61.14-.85.37-.18.17-.34.38-.49.6-.07.11-.14.23-.2.36-.05.1-.17.39-.23.58-.29.86-.42,1.8-.32,2.69.14,1.41.86,2.64,1.79,3.58.21.21.43.38.65.56.83.66,1.03.91.93,1.68-.02.17-.02.36-.06.52-.11.55-.85.77-1.85.24-1.45-.78-2.66-2.12-3.36-3.74-.73-1.64-.84-3.53-.44-5.26.07-.32.16-.64.27-.96.06-.16.11-.31.18-.47.06-.16.12-.27.26-.55.46-.97,1.09-1.82,1.74-2.43,1.31-1.17,2.69-1.44,4.08-.96l-.03.05Z"/><path class="cls-4" d="m405.53,214.47c-.19-.3-.34-.64-.44-.99-.11-.34-.16-.79-.14-1.17.04-.78.31-1.47.76-2.06.44-.58,1.18-1.09,1.97-1.2.79-.12,1.61.11,2.23.6.48.38.76.74,1,1.18.24.43.37.94.38,1.39.04.81-.17,1.53-.44,2.15-.28.62-.63,1.17-1.04,1.68-.82,1.01-1.9,1.78-3.09,2.23-1.05.4-2.22.55-3.32.36-1.38-.22-2.83-.93-3.45-2.26-.19-.4,0-.42.38-.29.19.06.44.15.73.23.29.07.58.16.85.31.98.51,2.14.63,3.15.4,1.03-.24,1.99-.83,2.8-1.63.99-.9,1.52-2.58,1.12-3.37-.25-.49-.49-.68-.86-.64-.32.01-.71.58-.7,1.05-.02.57.6,1.32,1.42,1.62,1.22.5,2.87.21,3.85-.77.78-.74.93-1.86.74-2.8-.03-.21-.12-.4-.18-.6-.23-.71-.21-.96.2-1.53.09-.13.17-.28.27-.4.29-.41,1.02-.35,1.63.5.86,1.26,1.06,2.98.5,4.55-.56,1.63-1.96,2.88-3.49,3.45-1.15.43-2.42.54-3.66.24-1.24-.31-2.42-.97-3.23-2.2l.05-.04Z"/><path class="cls-4" d="m79.27,342.71c-1.17-.81-1.68-2.05-1.68-3.18,0-.57.14-1.12.38-1.61.27-.47.64-.9,1.12-1.16.53-.29,1.15-.41,1.75-.34,1,.11,2.02.61,2.64,1.63.27.45.47.96.57,1.5.06.3.06.44.08.64.01.19.02.38.02.56-.04.73-.11,1.4-.28,2.09-.32,1.36-.96,2.71-2.04,3.68-.93.88-2.13,1.47-3.37,1.63-1.58.22-3.24-.14-4.43-1.09-.38-.28-.16-.51.34-.67.25-.08.56-.13.89-.18.17-.03.35-.06.52-.06.17.01.34.04.51.06.6.14,1.2.13,1.76.09.55-.1,1.08-.25,1.54-.53.92-.55,1.63-1.49,2.08-2.66.3-.68.38-1.52.38-2.29,0-.19-.03-.37-.06-.54-.03-.18-.03-.17-.06-.27-.04-.14-.11-.27-.21-.39-.19-.23-.54-.4-.87-.28-.43.15-.55.73-.32,1.15.13.23.35.42.62.54.34.15.93.27,1.45.29,1.61.07,3.39-.42,4.36-1.6.39-.46.57-.97.61-1.49.03-.53-.08-1.07-.3-1.52-.09-.2-.23-.36-.34-.52-.42-.55-.46-.76-.43-1.47,0-.16,0-.33,0-.48.02-.26.17-.45.5-.54.33-.09.83-.02,1.37.31.78.5,1.32,1.3,1.63,2.14.31.85.42,1.78.26,2.73-.35,2.04-1.88,3.43-3.41,4.17-1.16.55-2.38.79-3.59.81-.6,0-1.21-.04-1.84-.17-.31-.07-.63-.15-.95-.27-.43-.16-.88-.38-1.25-.65l.04-.05Z"/><path class="cls-4" d="m289.93,56.65c-.11.19-.37.07-.7-.2-.11-.08-.31-.41-.29-.49.03-.15.06-.31.11-.44.03-.08.77-.93,1-1.26.24-.3.54-.49.84-.69.61-.39,1.22-.8,1.84-1.18.14-.08.29-.14.45-.18.56-.12,1.05-.37,1.52-.67.08-.05.17-.08.21-.21.06-.21,1.41-.9,1.62-.92.51-.04,1-.13,1.5-.18.07,0,.12-.07.23.02.24.21.36.11.5.07.2-.05.41-.09.63-.07.11,0,.26.13.4.22.13.08.23.52.22.57-.04.16.1.33.18.5.02.06.06.13.07.18.03.11-.78,1.19-.89,1.22-.01,0-.38.2-.78.4-.39.21-.79.43-.87.49-.08.06-.2.04-.3.04-.05,0-1.18.69-1.23.7-.26.08-.47.27-.82.18-.07-.02-.11.01-.16.04-.41.22-.88.34-1.33.49-.23.08-.43.21-.65.31-.04.02-.09,0-.14.02-.06,0-.12,0-.17.03-.5.27-1.06.44-1.52.79-.12.06-.81.13-.93.22-.07.04-.48-.08-.52,0Z"/><path class="cls-4" d="m287.32,50.03c.17.17-.04.41-.42.68-.12.09-.54.2-.61.15-.15-.09-.3-.17-.43-.27-.08-.06-.68-1.19-.9-1.57-.22-.37-.35-.76-.47-1.16-.26-.8-.4-1.62-.52-2.45-.03-.18-.02-.37.01-.56.11-.65.07-1.28-.02-1.92-.01-.11,0-.22-.1-.32-.19-.16-.22-1.93-.12-2.17.21-.57.36-1.13.59-1.69.03-.08,0-.17.13-.23.3-.13.29-.31.34-.49.07-.24.16-.48.32-.7.08-.11.26-.18.41-.26.14-.07.53.12.56.16.1.14.31.11.48.16.06.01.13.03.18.05.05.02.17.37.28.7.13.35.24.68.23.75,0,.02-.02.45,0,.92.01.47.05.96.08,1.06.02.11-.05.21-.09.31-.03.05.2,1.48.2,1.54-.03.3.1.59-.13.91-.04.06-.03.12-.02.18.08.52.03,1.04.03,1.57,0,.27.06.53.09.8,0,.05-.02.1-.03.15-.01.06-.04.13-.02.19.06.63,0,1.29.17,1.91.03.14-.11.89-.04,1.05.03.09-.23.47-.16.54Z"/></svg>