<?xml version="1.0" encoding="UTF-8" standalone="no"?><!DOCTYPE svg PUBLIC "-//W3C//DTD SVG 1.1//EN" "http://www.w3.org/Graphics/SVG/1.1/DTD/svg11.dtd"><svg width="100%" height="100%" viewBox="0 0 145 244" version="1.1" xmlns="http://www.w3.org/2000/svg" xmlns:xlink="http://www.w3.org/1999/xlink" xml:space="preserve" xmlns:serif="http://www.serif.com/" style="fill-rule:evenodd;clip-rule:evenodd;stroke-linejoin:round;stroke-miterlimit:2;"><path d="M52.994,181.042c-9.221,-0.433 -16.017,-1.008 -19.271,-15.233c-6.354,-27.8 -4.058,-41.792 17.6,-61.254c19.875,-17.888 44.987,-33.312 47.7,-51.413c4.554,-30.583 -34.529,-31.3 -51.042,-21.504c-21.488,12.737 4.317,34.821 -2.262,48.521c-5.117,10.633 -26.604,18.604 -35.521,8.354c-12.804,-14.708 -13.521,-41.142 -2.321,-58.721c15.779,-22.054 49.696,-30.213 74.783,-29.775c30.862,0.517 61.721,11.217 61.875,44.142c0.129,25.892 -15.263,45.812 -34.375,61.392c-26.517,21.588 -39.275,22.246 -38.717,56.338c0.208,12.992 -8.879,19.592 -18.45,19.154Z" style="fill:#fff;fill-rule:nonzero;"/><path d="M36.74,226.754c3.537,13.304 14.429,16.854 21.767,16.642c7.942,-0.221 20.812,-6.967 23.417,-16.358c6.425,-23.292 -18.879,-29.646 -29.362,-27.996c-9.621,2.542 -18.683,16.904 -15.821,27.713Z" style="fill:#fff;fill-rule:nonzero;"/></svg>