<?xml version="1.0" encoding="UTF-8" standalone="no"?><!DOCTYPE svg PUBLIC "-//W3C//DTD SVG 1.1//EN" "http://www.w3.org/Graphics/SVG/1.1/DTD/svg11.dtd"><svg width="100%" height="100%" viewBox="0 0 261 383" version="1.1" xmlns="http://www.w3.org/2000/svg" xmlns:xlink="http://www.w3.org/1999/xlink" xml:space="preserve" xmlns:serif="http://www.serif.com/" style="fill-rule:evenodd;clip-rule:evenodd;stroke-linejoin:round;stroke-miterlimit:2;"><path d="M190.5,14.45c-8.25,-7.95 -24.383,-14.45 -35.842,-14.45l-133.825,0c-11.458,0 -20.833,9.375 -20.833,20.833l0,340.663c0,11.458 9.375,20.833 20.833,20.833l218.442,0c11.458,0 20.833,-9.375 20.833,-20.833l0,-259.183c0,-11.458 -6.754,-27.338 -15.008,-35.283l-54.6,-52.579Zm-13.592,271.462c-0.838,2.208 -1.7,4.192 -1.908,4.404c-0.213,0.213 -2.192,1.075 -4.404,1.913c-2.212,0.838 -8.875,-3.333 -11.083,-5.542c-2.208,-2.213 -7.213,-5.812 -11.121,-7.996l-1.917,1.912c-1.908,1.908 -3.396,3.546 -3.317,3.633l0.088,0.083c-3.008,3.083 -5.642,5.787 -5.854,5.996c-0.217,0.213 -2.912,2.854 -5.996,5.863l-0.087,-0.088c-0.088,-0.087 -0.225,-0.087 -0.313,0l-0.088,0.088c-3.083,-3.013 -5.783,-5.65 -5.996,-5.863c-0.213,-0.213 -3.583,-3.579 -7.492,-7.488l-1.908,-1.908l-1.912,-1.917c-3.908,2.188 -8.842,5.717 -10.963,7.837c-2.125,2.125 -6.388,6.329 -9.471,9.338l-0.088,-0.088c-0.087,-0.087 -0.229,-0.087 -0.317,0l-0.088,0.088c-3.087,-3.013 -5.783,-5.65 -5.996,-5.863c-0.213,-0.213 -2.85,-2.912 -5.854,-5.996l0.088,-0.083c0.088,-0.088 -1.408,-1.725 -3.317,-3.633l-1.908,-1.912c-3.908,2.183 -8.913,5.783 -11.125,7.996c-2.208,2.208 -5.825,4.704 -8.038,5.542c-2.208,0.837 -7.233,-1.7 -7.45,-1.913c-0.217,-0.213 -1.071,-2.192 -1.908,-4.404c-0.838,-2.204 3.333,-8.871 5.542,-11.083c2.208,-2.208 5.825,-5.821 8.038,-8.033c2.208,-2.204 7.233,-7.238 7.45,-7.45c0.217,-0.213 2.192,-1.075 4.404,-1.908c2.208,-0.837 8.8,3.258 10.929,5.383c2.125,2.125 7.058,5.65 10.962,7.837l3.821,-3.821c3.908,-3.908 7.275,-7.279 7.487,-7.492c0.212,-0.213 2.912,-2.85 5.996,-5.854l0.088,0.088c0.083,0.087 0.225,0.087 0.312,0l0.088,-0.088c3.083,3.008 5.783,5.642 5.996,5.854c0.213,0.212 3.583,3.583 7.487,7.492l1.908,1.913c1.913,1.908 5.042,1.908 6.946,0l1.917,-1.913c3.908,-3.908 7.279,-7.279 7.487,-7.492c0.213,-0.213 2.192,-1.075 4.404,-1.908c2.208,-0.837 7.238,1.696 7.45,1.908c0.212,0.212 13.275,13.275 15.483,15.483c2.213,2.212 6.383,8.879 5.546,11.083Zm-131.317,-76.687c0.838,-2.208 3.333,-5.821 5.542,-8.037c2.208,-2.208 5.825,-5.821 8.038,-8.033c2.208,-2.208 7.233,-7.238 7.45,-7.454c0.217,-0.217 2.196,-1.075 4.404,-1.908c2.208,-0.838 8.871,3.333 11.083,5.546c2.213,2.213 7.246,5.775 11.192,7.925l2,-1.996l1.996,-2c3.946,-3.946 7.35,-7.346 7.562,-7.558c0.212,-0.213 2.192,-1.075 4.404,-1.908c2.208,-0.838 7.238,1.7 7.45,1.913c0.212,0.213 2.192,2.192 4.404,4.404c2.208,2.208 8.871,8.871 11.083,11.079c2.208,2.212 4.704,5.825 5.542,8.037c0.838,2.213 -1.7,7.238 -1.913,7.45c-0.208,0.213 -2.192,1.075 -4.4,1.913c-2.208,0.833 -8.871,-3.333 -11.083,-5.542c-2.208,-2.213 -5.825,-4.708 -8.038,-5.546c-2.208,-0.838 -8.871,3.333 -11.083,5.546c-2.213,2.208 -5.825,4.704 -8.033,5.542c-2.208,0.833 -7.238,-1.7 -7.45,-1.913c-0.212,-0.213 -3.617,-3.612 -7.558,-7.558l-2,-1.996l-2.004,-2.008c-3.946,2.15 -8.979,5.713 -11.192,7.925c-2.208,2.208 -5.825,4.704 -8.037,5.542c-2.208,0.833 -7.233,-1.7 -7.45,-1.913c-0.217,-0.213 -2.746,-5.242 -1.908,-7.45Zm131.317,-72.162c-0.838,2.208 -1.7,4.188 -1.908,4.4c-0.213,0.213 -2.192,1.071 -4.404,1.908c-2.208,0.842 -8.875,-3.333 -11.083,-5.542c-2.208,-2.208 -7.213,-5.808 -11.121,-7.996l-1.917,1.913c-1.908,1.908 -3.396,3.546 -3.317,3.633l0.088,0.088c-3.008,3.088 -5.642,5.783 -5.854,5.996c-0.217,0.213 -2.912,2.85 -5.996,5.854l-0.087,-0.088c-0.088,-0.088 -0.225,-0.088 -0.313,0l-0.088,0.088c-3.083,-3.008 -5.783,-5.642 -5.996,-5.854c-0.213,-0.213 -3.583,-3.583 -7.492,-7.487l-3.821,-3.821c-3.908,2.188 -8.842,5.717 -10.963,7.838c-2.125,2.121 -6.388,6.321 -9.471,9.329l-0.088,-0.088c-0.087,-0.087 -0.229,-0.087 -0.317,0l-0.088,0.088c-3.087,-3.008 -5.783,-5.642 -5.996,-5.854c-0.213,-0.213 -2.85,-2.912 -5.854,-5.996l0.088,-0.088c0.088,-0.088 -1.408,-1.721 -3.317,-3.633l-1.908,-1.913c-3.908,2.188 -8.913,5.788 -11.125,7.996c-2.208,2.208 -5.825,4.704 -8.038,5.542c-2.208,0.842 -7.233,-1.696 -7.45,-1.908c-0.217,-0.213 -1.071,-2.192 -1.908,-4.4c-0.838,-2.208 3.333,-8.875 5.542,-11.083c2.208,-2.208 5.825,-5.825 8.038,-8.033c2.208,-2.208 7.233,-7.238 7.45,-7.454c0.213,-0.212 2.192,-1.071 4.404,-1.908c2.213,-0.837 8.8,3.262 10.929,5.387c2.125,2.125 7.058,5.65 10.962,7.838l1.908,-1.908l1.913,-1.908c3.908,-3.908 7.275,-7.279 7.487,-7.492c0.213,-0.212 2.912,-2.846 5.996,-5.854l0.088,0.088c0.083,0.087 0.225,0.087 0.312,0l0.088,-0.088c3.083,3.008 5.783,5.642 5.996,5.854c0.213,0.213 3.583,3.583 7.487,7.492l1.908,1.908c1.913,1.908 5.042,1.908 6.946,0l1.917,-1.908c3.908,-3.908 7.279,-7.279 7.487,-7.492c0.213,-0.212 2.192,-1.071 4.404,-1.908c2.212,-0.837 7.238,1.7 7.45,1.912c0.212,0.212 2.192,2.192 4.404,4.4c2.208,2.208 8.871,8.875 11.079,11.083c2.213,2.196 6.383,8.858 5.546,11.071Zm19.417,-55.583c-11.458,0 -20.833,-9.375 -20.833,-20.833l0,-25.708c0,-11.458 6.629,-14.204 14.729,-6.1l37.921,37.913c8.1,8.104 5.354,14.733 -6.104,14.733l-25.712,0l0,-0.004Z" style="fill-rule:nonzero;"/></svg>