<?xml version="1.0" encoding="UTF-8" standalone="no"?><!DOCTYPE svg PUBLIC "-//W3C//DTD SVG 1.1//EN" "http://www.w3.org/Graphics/SVG/1.1/DTD/svg11.dtd"><svg width="100%" height="100%" viewBox="0 0 262 351" version="1.1" xmlns="http://www.w3.org/2000/svg" xmlns:xlink="http://www.w3.org/1999/xlink" xml:space="preserve" xmlns:serif="http://www.serif.com/" style="fill-rule:evenodd;clip-rule:evenodd;stroke-linejoin:round;stroke-miterlimit:2;"><g><g><g><g><g><path d="M5.629,12.425c13.004,4.513 27.196,3.008 40.725,2.829c23.596,-0.312 47.263,0.179 70.833,-1.042c44.867,-2.325 91.225,8.212 135.804,3.067c3.617,-0.417 7.658,-3.75 6.025,-7.913c-0.129,-0.329 -0.258,-0.654 -0.388,-0.983c-2.908,-7.417 -15,-4.192 -12.054,3.325c0.129,0.329 0.258,0.654 0.383,0.983c2.008,-2.638 4.017,-5.275 6.029,-7.908c-38.904,4.488 -80.779,-2.679 -119.925,-3.3c-23.642,-0.375 -47.412,0.863 -71.083,0.904c-16.938,0.033 -36.742,3.642 -53.033,-2.008c-7.629,-2.654 -10.883,9.421 -3.317,12.046Z" style="fill-rule:nonzero;"/></g></g><g><g><path d="M6.771,348.066c17.496,1.775 34.9,-0.842 52.412,-1.196c22.583,-0.454 45.388,1.479 67.9,0.288c20.704,-1.096 40.8,2.708 61.475,3.146c21.342,0.454 42.7,0.367 64.046,0.367c8.062,0 8.062,-12.5 0,-12.5c-18.904,0 -37.804,-0.012 -56.704,-0.246c-22.983,-0.283 -45.887,-5.208 -68.817,-3.267c-19.808,1.679 -40.392,-0.567 -60.308,-0.4c-19.975,0.171 -40.083,3.325 -60.004,1.304c-8.017,-0.808 -7.938,11.7 -0,12.504Z" style="fill-rule:nonzero;"/></g></g><g><g><path d="M0,6.4c0.538,93.304 2.2,186.433 3.125,279.688c0.079,8.058 12.579,8.067 12.5,0c-0.925,-93.254 -2.587,-186.383 -3.125,-279.688c-0.046,-8.058 -12.546,-8.063 -12.5,-0Z" style="fill-rule:nonzero;"/></g></g><g><g><path d="M13.838,338.791c1.833,-8.092 0.963,-15.883 0.225,-24.058c-0.858,-9.462 0.404,-19.171 0.521,-28.646c0.1,-8.067 -12.4,-8.054 -12.5,0c-0.104,8.325 -0.675,16.629 -0.646,24.958c0.025,8.212 2.2,16.254 0.35,24.421c-1.779,7.85 10.271,11.183 12.05,3.325Z" style="fill-rule:nonzero;"/></g></g><g><g><path d="M248.142,8.383c-1.658,8.683 -1.175,16.8 -0.475,25.613c1.175,14.775 -1.046,29.979 -1.171,44.8c-0.258,31.321 2.171,62.271 0.896,93.75c-1.233,30.5 1.1,60.946 0.367,91.442c-0.6,25.029 -1.033,51.812 1.2,76.788c0.708,7.962 13.217,8.033 12.5,0c-2.017,-22.592 -1.525,-46.596 -1.562,-69.271c-0.05,-27.746 -0.696,-55.575 -0.45,-83.333c0.25,-28.713 2.867,-57.213 1.158,-85.938c-0.937,-15.808 -1.662,-31.017 -0.883,-46.875c0.696,-14.158 -2.175,-29.775 0.471,-43.65c1.504,-7.875 -10.542,-11.237 -12.05,-3.325Z" style="fill-rule:nonzero;"/></g></g><g><g><path d="M42.708,54.837c27.758,3.267 57.988,1.083 86.038,1.012c28.233,-0.071 57.829,-4.508 85.838,-1.012c7.988,0.996 7.892,-11.517 0,-12.5c-27.988,-3.492 -57.625,0.875 -85.838,1.012c-28.025,0.138 -58.3,2.25 -86.038,-1.012c-7.996,-0.942 -7.904,11.571 0,12.5Z" style="fill-rule:nonzero;"/></g></g><g><g><path d="M39.483,104.612c34.237,5.458 69.096,0.033 103.575,0.304c15.971,0.125 32.108,-0.238 48.058,0.571c8.271,0.421 18.112,3.567 26.171,0.688c7.533,-2.692 4.287,-14.771 -3.325,-12.054c-6.471,2.312 -16.167,-0.525 -22.846,-1.133c-15.775,-1.442 -32.208,-0.396 -48.058,-0.571c-33.246,-0.367 -67.25,5.4 -100.25,0.142c-7.883,-1.254 -11.267,10.792 -3.325,12.054Z" style="fill-rule:nonzero;"/></g></g><g><g><path d="M35.417,49.629c-0.683,14.812 -3.217,30.875 0.746,45.413c2.117,7.767 14.175,4.467 12.054,-3.325c-3.625,-13.287 -0.921,-28.525 -0.296,-42.087c0.367,-8.062 -12.133,-8.025 -12.504,0Z" style="fill-rule:nonzero;"/></g></g><g><g><path d="M210.121,51.291c2.6,15.846 -1.479,31.929 -1.787,47.817c-0.154,8.067 12.346,8.05 12.5,0c0.333,-17.196 4.158,-33.967 1.337,-51.142c-1.3,-7.938 -13.346,-4.558 -12.05,3.325Z" style="fill-rule:nonzero;"/></g></g><g><g><path d="M32.292,123.066c-0.583,8.996 -1.058,18.104 0,27.083c0.933,7.904 13.442,7.996 12.5,0c-1.058,-8.979 -0.583,-18.088 0,-27.083c0.521,-8.054 -11.983,-8 -12.5,0Z" style="fill-rule:nonzero;"/></g></g><g><g><path d="M33.854,170.462c0.058,9.037 0.963,18.05 1.042,27.083c0.071,8.058 12.571,8.062 12.5,0c-0.079,-9.033 -0.983,-18.046 -1.042,-27.083c-0.054,-8.058 -12.554,-8.062 -12.5,0Z" style="fill-rule:nonzero;"/></g></g><g><g><path d="M34.375,223.587c1.071,8.662 2.025,17.333 2.604,26.042c0.529,8 13.033,8.05 12.5,0c-0.579,-8.708 -1.533,-17.379 -2.604,-26.042c-0.975,-7.892 -13.487,-7.988 -12.5,0Z" style="fill-rule:nonzero;"/></g></g><g><g><path d="M33.333,270.462c0.037,9.579 0.542,19.121 1.562,28.646c0.85,7.929 13.358,8.012 12.5,0c-1.021,-9.525 -1.525,-19.067 -1.562,-28.646c-0.029,-8.058 -12.529,-8.062 -12.5,0Z" style="fill-rule:nonzero;"/></g></g><g><g><path d="M84.375,124.108l0,22.917c0,8.062 12.5,8.062 12.5,0l0,-22.917c0,-8.063 -12.5,-8.063 -12.5,0Z" style="fill-rule:nonzero;"/></g></g><g><g><path d="M84.6,173.166c1.412,8.354 0.85,16.983 0.817,25.421c-0.029,8.063 12.471,8.058 12.5,0c0.033,-9.633 0.346,-19.204 -1.267,-28.746c-1.338,-7.933 -13.388,-4.558 -12.05,3.325Z" style="fill-rule:nonzero;"/></g></g><g><g><path d="M84.375,220.462c0.433,4.45 0.758,8.917 1.042,13.379c0.154,2.458 0.271,4.921 0.338,7.383c0.021,0.8 0.017,1.604 0.008,2.404c-0.029,2.375 0.312,-0.654 1.487,-2.067c-5.112,6.15 3.679,15.046 8.838,8.837c3.013,-3.625 2.217,-8.796 2.012,-13.196c-0.258,-5.588 -0.683,-11.175 -1.225,-16.742c-0.775,-7.946 -13.283,-8.021 -12.5,0Z" style="fill-rule:nonzero;"/></g></g><g><g><path d="M85.417,269.42c1.125,9.696 2.971,19.388 3.125,29.167c0.125,8.054 12.625,8.067 12.5,0c-0.154,-9.779 -2,-19.471 -3.125,-29.167c-0.917,-7.908 -13.425,-8 -12.5,0Z" style="fill-rule:nonzero;"/></g></g><g><g><path d="M132.292,122.545c-0.108,10.008 -1.283,19.821 0.225,29.787c1.2,7.95 13.242,4.558 12.054,-3.325c-1.312,-8.717 0.129,-17.704 0.225,-26.462c0.083,-8.067 -12.417,-8.058 -12.504,0Z" style="fill-rule:nonzero;"/></g></g><g><g><path d="M133.333,172.545c1.067,8.654 3.079,17.729 1.788,26.463c-1.167,7.883 10.875,11.275 12.054,3.325c1.496,-10.087 -0.104,-19.767 -1.338,-29.787c-0.975,-7.892 -13.488,-7.988 -12.504,0Z" style="fill-rule:nonzero;"/></g></g><g><g><path d="M132.813,222.545c0.075,9.212 0.967,18.392 1.042,27.604c0.067,8.058 12.567,8.062 12.5,0c-0.075,-9.213 -0.967,-18.392 -1.042,-27.604c-0.067,-8.058 -12.567,-8.062 -12.5,0Z" style="fill-rule:nonzero;"/></g></g><g><g><path d="M131.996,275.25c1.525,8.342 2.588,16.771 4.688,25c1.992,7.808 14.046,4.492 12.054,-3.325c-2.1,-8.229 -3.163,-16.658 -4.688,-25c-1.45,-7.921 -13.496,-4.554 -12.054,3.325Z" style="fill-rule:nonzero;"/></g></g><g><g><path d="M182.813,123.066c0.129,9.633 1.992,19.575 -0.296,29.067c-1.892,7.833 10.162,11.158 12.054,3.325c2.592,-10.733 0.892,-21.517 0.746,-32.392c-0.113,-8.054 -12.613,-8.067 -12.504,0Z" style="fill-rule:nonzero;"/></g></g><g><g><path d="M182.813,172.545c0.029,9.542 0.579,19.117 0,28.646c-0.492,8.054 12.012,8.008 12.5,0c0.579,-9.529 0.029,-19.104 0,-28.646c-0.025,-8.058 -12.525,-8.063 -12.5,0Z" style="fill-rule:nonzero;"/></g></g><g><g><path d="M182.813,225.15c0.213,13.254 1.488,26.425 2.342,39.65c0.821,12.771 -0.654,25.358 1.525,38.054c1.363,7.933 13.404,4.558 12.054,-3.325c-1.971,-11.488 -0.546,-23.154 -1.079,-34.729c-0.613,-13.242 -2.133,-26.383 -2.342,-39.65c-0.129,-8.054 -12.629,-8.067 -12.5,0Z" style="fill-rule:nonzero;"/></g></g><g><g><path d="M60.417,120.462c-0.938,10.054 -0.558,20.129 -0.521,30.208c0.029,8.058 12.529,8.062 12.5,0c-0.037,-10.079 -0.417,-20.154 0.521,-30.208c0.75,-8.029 -11.758,-7.954 -12.5,0Z" style="fill-rule:nonzero;"/></g></g><g><g><path d="M109.896,121.504c0.512,4.875 0.475,9.696 0.213,14.583c-0.175,3.254 0.258,8.008 -0.95,11.025c-2.721,6.804 7.833,10.6 11.425,4.817c0.146,-0.238 0.292,-0.471 0.437,-0.708c4.263,-6.867 -6.554,-13.137 -10.796,-6.308c-0.146,0.238 -0.292,0.471 -0.438,0.708c3.808,1.604 7.617,3.213 11.425,4.817c1.433,-3.579 0.988,-8.475 1.262,-12.267c0.404,-5.571 0.508,-11.104 -0.079,-16.667c-0.833,-7.933 -13.342,-8.012 -12.5,0Z" style="fill-rule:nonzero;"/></g></g><g><g><path d="M158.333,127.754c-0.037,8.508 -0.483,17.013 -0.521,25.521c-0.033,8.062 12.467,8.058 12.5,0c0.037,-8.508 0.483,-17.012 0.521,-25.521c0.033,-8.062 -12.467,-8.058 -12.5,0Z" style="fill-rule:nonzero;"/></g></g><g><g><path d="M209.079,122.125c1.358,8.029 0.792,16.342 -0.225,24.379c-1.008,7.983 11.504,7.888 12.5,0c1.171,-9.271 1.337,-18.467 -0.225,-27.704c-1.337,-7.933 -13.383,-4.558 -12.05,3.325Z" style="fill-rule:nonzero;"/></g></g><g><g><path d="M60.938,171.504c1.125,8.958 1.525,18.058 1.562,27.083c0.033,8.058 12.533,8.063 12.5,0c-0.037,-9.025 -0.437,-18.125 -1.562,-27.083c-0.992,-7.888 -13.504,-7.983 -12.5,0Z" style="fill-rule:nonzero;"/></g></g><g><g><path d="M107.813,172.545c0.054,8.629 1.271,17.429 0.521,26.042c-0.696,8.033 11.808,7.967 12.5,0c0.75,-8.612 -0.467,-17.412 -0.521,-26.042c-0.05,-8.058 -12.55,-8.063 -12.5,0Z" style="fill-rule:nonzero;"/></g></g><g><g><path d="M158.333,170.462c-0.363,9.75 0.925,19.429 1.042,29.167c0.1,8.275 11.554,7.783 12.5,0c0.025,-0.213 0.05,-0.425 0.079,-0.638c0.254,-2.1 -1.367,-4.4 -3.096,-5.396c0.05,0.017 0.096,0.033 0.146,0.054c-5.621,-5.796 -14.45,3.05 -8.838,8.838c0.721,0.742 1.483,1.383 2.383,1.904c-1.033,-1.8 -2.062,-3.6 -3.096,-5.396c-0.025,0.213 -0.05,0.425 -0.079,0.637l12.5,0c-0.117,-9.738 -1.404,-19.417 -1.042,-29.167c0.3,-8.071 -12.2,-8.042 -12.5,-0.004Z" style="fill-rule:nonzero;"/></g></g><g><g><path d="M210.642,172.125c1.312,8.188 -0.129,16.667 -0.225,24.9c-0.092,8.067 12.408,8.054 12.5,0c0.108,-9.492 1.292,-18.779 -0.225,-28.225c-1.271,-7.942 -13.317,-4.558 -12.05,3.325Z" style="fill-rule:nonzero;"/></g></g><g><g><path d="M59.896,220.462c1.038,9.358 2.004,18.704 2.083,28.125c0.067,8.058 12.567,8.062 12.5,0c-0.079,-9.421 -1.046,-18.767 -2.083,-28.125c-0.879,-7.921 -13.388,-8.004 -12.5,0Z" style="fill-rule:nonzero;"/></g></g><g><g><path d="M109.896,222.545c-0.333,3.767 -0.083,7.608 -0.058,11.379c0.017,2.512 -0.013,5.021 -0.129,7.529c-0.042,0.908 -0.129,1.812 -0.221,2.717c-0.283,2.746 -2.642,-1.992 4.575,-2.354c-8.021,0.404 -8.062,12.908 0,12.5c12.483,-0.629 7.638,-23.867 8.333,-31.771c0.708,-8.033 -11.8,-7.967 -12.5,0Z" style="fill-rule:nonzero;"/></g></g><g><g><path d="M159.079,221.604c1.363,8.546 0.85,17.321 0.817,25.942c-0.029,8.062 12.471,8.058 12.5,0c0.038,-9.812 0.283,-19.538 -1.267,-29.267c-1.262,-7.942 -13.308,-4.558 -12.05,3.325Z" style="fill-rule:nonzero;"/></g></g><g><g><path d="M61.163,273.687c1.713,9.054 -0.204,18.721 2.604,27.604c2.421,7.658 14.487,4.383 12.054,-3.325c-2.75,-8.712 -0.904,-18.613 -2.604,-27.604c-1.5,-7.913 -13.546,-4.554 -12.054,3.325Z" style="fill-rule:nonzero;"/></g></g><g><g><path d="M108.854,272.025c0.863,8.621 0.829,17.383 1.042,26.042c0.196,8.046 12.7,8.067 12.5,0c-0.213,-8.658 -0.179,-17.421 -1.042,-26.042c-0.792,-7.942 -13.3,-8.021 -12.5,0Z" style="fill-rule:nonzero;"/></g></g><g><g><path d="M158.333,270.983c0.929,9.242 0.279,18.504 1.788,27.704c1.3,7.938 13.346,4.558 12.054,-3.325c-1.317,-8.038 -0.525,-16.283 -1.338,-24.379c-0.804,-7.942 -13.308,-8.021 -12.504,0Z" style="fill-rule:nonzero;"/></g></g><g><g><path d="M209.375,226.712c-0.696,13.271 0.117,26.492 0.467,39.758c0.292,11.038 -2.737,21.767 -0.767,32.738c1.425,7.925 13.467,4.554 12.054,-3.325c-1.712,-9.533 1.312,-19.762 1.212,-29.412c-0.137,-13.283 -1.167,-26.471 -0.467,-39.758c0.425,-8.058 -12.079,-8.017 -12.5,0Z" style="fill-rule:nonzero;"/></g></g><g><g><path d="M35.317,128.57c9.833,1.863 18.958,-1.588 28.746,-1.337c8.067,0.204 8.046,-12.296 0,-12.5c-8.446,-0.213 -17.046,3.371 -25.421,1.787c-7.879,-1.492 -11.237,10.554 -3.325,12.05Z" style="fill-rule:nonzero;"/></g></g><g><g><path d="M37.921,156.175c8.875,2.767 18.108,0.883 27.183,0.746c8.054,-0.125 8.067,-12.625 0,-12.5c-7.846,0.121 -16.213,2.083 -23.858,-0.296c-7.721,-2.404 -10.992,9.662 -3.325,12.05Z" style="fill-rule:nonzero;"/></g></g><g><g><path d="M92.088,128.57c7.012,2.108 14.942,1.821 22.075,0.521c3.354,-0.608 5.208,-4.625 4.362,-7.688c-0.963,-3.5 -4.342,-4.975 -7.688,-4.362c-4.929,0.896 -10.6,0.929 -15.425,-0.521c-7.742,-2.329 -11.025,9.737 -3.325,12.05Z" style="fill-rule:nonzero;"/></g></g><g><g><path d="M90.004,155.133c7.992,1.096 16.013,1.733 24.058,2.308c8.05,0.575 7.992,-11.929 0,-12.5c-6.917,-0.492 -13.862,-0.917 -20.733,-1.858c-3.375,-0.462 -6.696,0.758 -7.688,4.362c-0.812,2.954 0.983,7.225 4.362,7.688Z" style="fill-rule:nonzero;"/></g></g><g><g><path d="M140.625,130.879c8.475,1.008 17.012,0.554 25.521,0.521c8.058,-0.033 8.063,-12.533 0,-12.5c-8.508,0.033 -17.046,0.487 -25.521,-0.521c-7.992,-0.95 -7.9,11.558 0,12.5Z" style="fill-rule:nonzero;"/></g></g><g><g><path d="M137.4,157.737c8.142,2.358 17.158,3.392 25.621,2.829c8,-0.533 8.05,-13.037 0,-12.5c-7.446,0.5 -15.129,-0.304 -22.296,-2.379c-7.762,-2.25 -11.05,9.812 -3.325,12.05Z" style="fill-rule:nonzero;"/></g></g><g><g><path d="M190.004,128.05c8.325,1.346 16.871,2.35 25.2,0.521c7.871,-1.729 4.533,-13.779 -3.325,-12.054c-5.992,1.317 -12.562,0.446 -18.55,-0.521c-3.363,-0.542 -6.713,0.817 -7.688,4.362c-0.833,3.017 0.996,7.15 4.362,7.692Z" style="fill-rule:nonzero;"/></g></g><g><g><path d="M190.525,157.216c8.025,1.562 16.025,-0.254 24.058,0.746c3.387,0.421 6.25,-3.162 6.25,-6.25c0,-3.725 -2.871,-5.829 -6.25,-6.25c-6.867,-0.854 -13.942,1.025 -20.733,-0.296c-7.875,-1.533 -11.229,10.512 -3.325,12.05Z" style="fill-rule:nonzero;"/></g></g><g><g><path d="M38.442,178.05c8.054,3.346 17.117,2.371 25.621,2.308c8.058,-0.058 8.063,-12.558 0,-12.5c-7.45,0.054 -15.246,1.071 -22.296,-1.858c-3.154,-1.308 -6.871,1.387 -7.688,4.362c-0.992,3.596 1.221,6.383 4.362,7.688Z" style="fill-rule:nonzero;"/></g></g><g><g><path d="M39.483,206.175c10.192,1.471 21.075,3.625 30.858,-0.629c7.379,-3.208 1.004,-13.975 -6.308,-10.796c-6.012,2.617 -15.017,0.267 -21.225,-0.629c-7.883,-1.137 -11.279,10.908 -3.325,12.054Z" style="fill-rule:nonzero;"/></g></g><g><g><path d="M92.188,176.191c7.442,0.95 14.917,0.554 22.396,0.521c8.058,-0.037 8.063,-12.537 0,-12.5c-7.479,0.033 -14.954,0.429 -22.396,-0.521c-3.387,-0.433 -6.25,3.171 -6.25,6.25c0,3.733 2.871,5.817 6.25,6.25Z" style="fill-rule:nonzero;"/></g></g><g><g><path d="M91.667,205.358c7.688,0.546 15.417,-0.071 23.017,-1.267c3.371,-0.529 5.192,-4.688 4.363,-7.688c-0.979,-3.558 -4.325,-4.892 -7.688,-4.362c-6.471,1.017 -13.158,1.283 -19.692,0.817c-8.05,-0.575 -7.992,11.929 0,12.5Z" style="fill-rule:nonzero;"/></g></g><g><g><path d="M139.063,178.795c7.996,-0.421 15.967,0.45 23.958,0.521c8.067,0.071 8.058,-12.429 0,-12.5c-7.992,-0.071 -15.963,-0.942 -23.958,-0.521c-8.017,0.425 -8.058,12.925 0,12.5Z" style="fill-rule:nonzero;"/></g></g><g><g><path d="M142.708,207.962c8.338,-1.067 16.762,-0.646 25.1,-1.787c3.383,-0.463 5.175,-4.738 4.362,-7.688c-0.992,-3.608 -4.317,-4.825 -7.688,-4.362c-7.204,0.983 -14.55,0.417 -21.775,1.337c-3.379,0.433 -6.25,2.517 -6.25,6.25c0,3.079 2.862,6.683 6.25,6.25Z" style="fill-rule:nonzero;"/></g></g><g><g><path d="M192.188,178.795c6.933,-0.529 13.887,-0.521 20.833,-0.521c8.062,0 8.062,-12.5 0,-12.5c-6.946,0 -13.9,-0.008 -20.833,0.521c-7.983,0.612 -8.046,13.117 0,12.5Z" style="fill-rule:nonzero;"/></g></g><g><g><path d="M190.625,207.441c9.204,-0.504 18.621,0.704 27.704,-1.267c7.875,-1.708 4.533,-13.758 -3.325,-12.054c-7.871,1.708 -16.375,0.379 -24.379,0.817c-8.017,0.442 -8.058,12.942 0,12.504Z" style="fill-rule:nonzero;"/></g></g><g><g><path d="M41.667,227.754c3.604,0.217 7.229,-0.308 10.817,-0.621c2.521,-0.217 6.742,-1.087 8.946,0.288c6.858,4.283 13.125,-6.533 6.308,-10.796c-7.667,-4.792 -17.704,-0.871 -26.071,-1.375c-8.054,-0.479 -8.008,12.025 -0,12.504Z" style="fill-rule:nonzero;"/></g></g><g><g><path d="M44.271,255.358l22.396,0c8.062,0 8.062,-12.5 0,-12.5l-22.396,0c-8.062,0 -8.062,12.5 0,12.5Z" style="fill-rule:nonzero;"/></g></g><g><g><path d="M92.708,228.795c7.858,-0.921 15.7,0.171 23.537,-1.267c7.921,-1.45 4.554,-13.492 -3.325,-12.054c-6.65,1.217 -13.504,0.033 -20.213,0.817c-3.383,0.396 -6.25,2.542 -6.25,6.25c0,3.113 2.858,6.65 6.25,6.254Z" style="fill-rule:nonzero;"/></g></g><g><g><path d="M92.088,253.57c8.654,1.604 17.538,0.633 25.721,-2.604c7.4,-2.929 4.179,-15.021 -3.325,-12.054c-5.992,2.371 -12.642,3.796 -19.071,2.604c-7.879,-1.458 -11.242,10.588 -3.325,12.054Z" style="fill-rule:nonzero;"/></g></g><g><g><path d="M141.667,227.754c7.279,0.025 16.046,1.288 23.017,-1.267c7.504,-2.746 4.262,-14.829 -3.325,-12.054c-5.871,2.15 -13.538,0.842 -19.692,0.817c-8.062,-0.025 -8.058,12.475 0,12.504Z" style="fill-rule:nonzero;"/></g></g><g><g><path d="M145.413,256.175c7.642,-1.046 15.342,-1.592 22.917,-3.125c7.896,-1.6 4.546,-13.646 -3.325,-12.054c-7.562,1.529 -15.279,2.079 -22.917,3.125c-3.383,0.463 -5.175,4.738 -4.362,7.688c0.992,3.613 4.312,4.829 7.688,4.367Z" style="fill-rule:nonzero;"/></g></g><g><g><path d="M42.088,276.487c7.612,2.288 15.692,1.821 23.537,1.788c8.058,-0.033 8.063,-12.533 0,-12.5c-6.725,0.029 -13.696,0.617 -20.212,-1.338c-7.742,-2.325 -11.025,9.738 -3.325,12.05Z" style="fill-rule:nonzero;"/></g></g><g><g><path d="M42.188,305.358c8.008,0.658 16.45,1.829 24.479,1.042c7.946,-0.779 8.021,-13.283 0,-12.5c-8.029,0.787 -16.471,-0.383 -24.479,-1.042c-8.037,-0.663 -7.975,11.842 0,12.5Z" style="fill-rule:nonzero;"/></g></g><g><g><path d="M93.129,276.487c6.046,0.954 12.25,0.012 18.229,1.042c3.354,0.579 6.721,-0.842 7.688,-4.363c0.838,-3.037 -1.004,-7.112 -4.363,-7.688c-6.058,-1.042 -12.204,-0.092 -18.229,-1.042c-3.363,-0.529 -6.708,0.808 -7.688,4.363c-0.829,3.004 0.992,7.158 4.362,7.688Z" style="fill-rule:nonzero;"/></g></g><g><g><path d="M99.579,305.133c6.217,-0.958 12.525,-1.121 18.75,-2.083c3.371,-0.521 5.188,-4.692 4.362,-7.688c-0.979,-3.562 -4.325,-4.883 -7.688,-4.363c-6.217,0.958 -12.525,1.121 -18.75,2.083c-3.371,0.521 -5.187,4.692 -4.362,7.688c0.979,3.562 4.321,4.883 7.688,4.362Z" style="fill-rule:nonzero;"/></g></g><g><g><path d="M136.879,276.487c4.275,0.787 8.4,0.525 12.704,0.142c3.125,-0.279 7.975,-1.396 10.804,0.271c6.958,4.104 13.246,-6.704 6.308,-10.796c-8.433,-4.971 -17.629,-0.038 -26.492,-1.671c-7.879,-1.45 -11.246,10.596 -3.325,12.054Z" style="fill-rule:nonzero;"/></g></g><g><g><path d="M143.75,305.358c3.067,-0.038 6.137,-0.358 9.192,-0.613c1.763,-0.146 3.525,-0.296 5.292,-0.421c1.046,-0.075 4.192,0.354 1.517,-0.279c-0.921,-0.533 -1.838,-1.071 -2.758,-1.608c0.017,0.017 0.033,0.033 0.05,0.046c5.746,5.654 14.592,-3.179 8.838,-8.837c-2.787,-2.746 -7.021,-1.887 -10.517,-1.604c-3.858,0.308 -7.733,0.771 -11.608,0.812c-8.058,0.096 -8.071,12.596 -0.004,12.504Z" style="fill-rule:nonzero;"/></g></g><g><g><path d="M190.525,230.133c6.946,1.004 14.7,-0.25 21.354,2.083c7.629,2.675 10.879,-9.404 3.325,-12.054c-6.879,-2.412 -14.279,-1.062 -21.354,-2.083c-3.371,-0.488 -6.7,0.779 -7.688,4.362c-0.821,2.975 0.988,7.204 4.363,7.692Z" style="fill-rule:nonzero;"/></g></g><g><g><path d="M195.313,306.4c6.079,-0.025 12.15,-0.479 18.229,-0.521c8.058,-0.054 8.062,-12.554 0,-12.5c-6.079,0.042 -12.15,0.496 -18.229,0.521c-8.058,0.037 -8.062,12.537 0,12.5Z" style="fill-rule:nonzero;"/></g></g></g></g></g></svg>