<?xml version="1.0" encoding="UTF-8" standalone="no"?><!DOCTYPE svg PUBLIC "-//W3C//DTD SVG 1.1//EN" "http://www.w3.org/Graphics/SVG/1.1/DTD/svg11.dtd"><svg width="100%" height="100%" viewBox="0 0 265 272" version="1.1" xmlns="http://www.w3.org/2000/svg" xmlns:xlink="http://www.w3.org/1999/xlink" xml:space="preserve" xmlns:serif="http://www.serif.com/" style="fill-rule:evenodd;clip-rule:evenodd;stroke-linejoin:round;stroke-miterlimit:2;"><g><path d="M262.003,52.641c-4.075,-24.283 -7.275,-44.771 -35.304,-48.883c-18.692,-2.742 -37.637,-1.654 -56.296,-3.679c-25.667,-0.383 -51.579,0.758 -77.546,0.696c-20.9,-0.05 -54.842,-3.475 -70.154,13.942c-15.1,17.167 -19.571,48.392 -18.287,70.004c1.867,31.404 -1.929,63.554 -3.929,94.9c-1.904,29.85 0.538,64.629 30.362,80.258c26.213,13.733 53.375,7.362 81.2,10.542c31.321,3.579 61.708,0.438 93.033,-3.75c7.688,-1.029 15.533,-2.1 22.496,-5.517c34.696,-17.021 28.738,-63.313 30.671,-94.704c2.288,-37.171 9.958,-76.787 3.754,-113.808Zm-96.633,88.196c-1,0.625 -1.946,1.212 -2.671,1.838c-0.983,0.992 -2.571,2.754 -3.637,3.942c-0.379,0.421 -0.763,0.842 -1.15,1.258c-11.488,12.392 -25.508,22.275 -38.117,33.662l-0.567,0.35c-0.9,0.646 -3.908,3.321 -5.867,5.275c-0.033,0.042 -2.354,2.746 -4.063,4.075c-0.425,0.508 -2.071,2.467 -2.821,3.212c-4.375,5.583 -7.587,8.433 -13.092,12.671c-10.596,7.092 -26.054,2.038 -38.1,3.254c-11.679,1.183 -5.021,-12.608 -4,-18.942c0.879,-5.458 1.188,-10.988 1.9,-16.463c1.3,-9.958 3.221,-15.567 11.679,-21.271c1.696,-1.146 3.3,-2.225 4.521,-3.325c0.05,-0.042 4.512,-3.696 6.542,-5.317c3.229,-2.513 6.508,-5.388 9.404,-7.929l1.079,-0.946c0.846,-0.696 1.671,-1.358 2.496,-2.029c0.092,-0.117 0.171,-0.238 0.271,-0.338l2.838,-2.838c2.458,-2.458 5.233,-4.854 8.662,-6.296c1.867,-1.529 3.717,-3.071 5.579,-4.7c2.433,-1.875 4.525,-3.925 6.738,-6.096c2.562,-2.513 5.212,-5.108 8.35,-7.35c0.833,-0.583 1.688,-1.296 2.575,-2.037c2.525,-2.104 5.483,-4.567 8.742,-4.812l0,-0.292l1.621,0c1.317,0 2.963,1.062 3.617,2.325c0.1,0.062 0.221,0.125 0.342,0.192c0.371,0.204 0.75,0.417 1.046,0.713c0.788,0.787 1.529,1.525 2.629,2.258c1.071,1.033 2.412,1.813 3.708,2.567c0.904,0.525 1.762,1.029 2.429,1.529c5.442,3.625 10.479,8.196 15.354,12.613c1.667,1.512 3.321,3.012 4.975,4.458c1.95,1.458 3.775,4.329 3.279,7.312c-0.346,3.763 -3.646,5.821 -6.292,7.475Zm49.179,-44.463c-0.125,0.229 -0.254,0.458 -0.375,0.688c-0.042,0.421 -0.179,1.054 -0.583,1.583c-0.075,0.188 -0.125,0.4 -0.183,0.612c-0.167,0.608 -0.383,1.408 -0.933,2.113c-0.15,0.692 -0.479,2.067 -0.85,2.817c-1.158,2.375 -2.871,4.433 -4.867,6.308c-4.208,3.954 -9.667,7.096 -13.792,10.692c-1.946,1.704 -4.342,3.796 -7.658,2.5c-0.312,0.121 -0.671,0.229 -1,0.267c-0.85,0.208 -1.442,0.312 -2.033,0.312c-0.617,0 -1.238,-0.113 -2.15,-0.342c-0.175,-0.054 -2.271,-0.896 -3.113,-1.317c-0.55,-0.167 -1.133,-0.512 -1.654,-0.825c-0.471,0.096 -0.938,0.158 -1.387,0.158l-0.325,-0.042c-1.4,-0.35 -2.542,-0.988 -3.379,-1.854l-0.542,-0.271c-1.804,-0.904 -3.308,-2.317 -4.904,-3.817c-0.688,-0.65 -1.392,-1.308 -2.129,-1.933c-0.279,-0.146 -0.829,-0.458 -1.254,-0.833c-0.671,-0.383 -1.108,-0.917 -1.533,-1.433c-0.196,-0.238 -0.404,-0.492 -0.658,-0.746l-0.404,-0.404l-7.083,-4.692c-1.104,-0.875 -2.008,-1.579 -2.917,-2.283c-0.808,-0.629 -1.617,-1.258 -2.496,-1.958c-0.642,-0.033 -1.783,-0.133 -2.771,-0.458c-1.387,-0.463 -2.529,-1.683 -3.175,-3.375l-0.596,-0.596c-1.325,-1.938 -1.642,-3.517 -1.137,-5.029c0.946,-2.842 3.087,-4.908 5.158,-6.912c0.838,-0.812 1.671,-1.612 2.388,-2.45c1.7,-1.708 3.275,-3.425 4.842,-5.137c5.446,-5.946 11.079,-12.092 19.258,-14.708l0.154,-0.05c0.121,-0.062 0.275,-0.154 0.454,-0.258c0.963,-0.55 2.413,-1.379 3.85,-1.379c0.992,-0.146 1.896,-0.196 2.792,-0.154l0.071,-0.175c0.296,0.096 0.762,0.225 1.154,0.292c0.087,0.013 0.179,0.025 0.267,0.038c0.067,0.004 0.125,0.008 0.175,0.008l0.425,0.071c0.042,0.012 0.087,0.029 0.133,0.042c0.942,0.175 1.933,0.429 3.054,0.75l-0.042,0.138c0.317,0.096 0.621,0.192 0.904,0.283l0.383,0.2c0.817,0.612 2.8,1.575 4.721,2.504c1.583,0.767 3.208,1.554 4.454,2.267c0.767,0.458 1.508,1.004 2.267,1.567c1.275,0.942 2.592,1.917 3.971,2.375l0.288,0.137c0.033,0.021 3.204,2 4.75,2.771c0.842,0.421 1.625,1.138 2.121,1.621c0.312,0.125 0.596,0.313 0.858,0.488c0.092,0.062 0.183,0.129 0.271,0.179l0.35,0l0.396,0.396c0.288,0.287 0.713,0.542 1.158,0.812c0.542,0.325 1.154,0.692 1.675,1.212c2.046,2.833 2.35,5.733 2.642,8.542c0.042,0.371 0.079,0.746 0.121,1.117c0.775,0.829 1.571,1.888 1.671,2.837c0.387,1.754 -0.479,3.338 -1.25,4.738Z" style="fill-rule:nonzero;"/></g></svg>