<?xml version="1.0" encoding="UTF-8" standalone="no"?><!DOCTYPE svg PUBLIC "-//W3C//DTD SVG 1.1//EN" "http://www.w3.org/Graphics/SVG/1.1/DTD/svg11.dtd"><svg width="100%" height="100%" viewBox="0 0 242 290" version="1.1" xmlns="http://www.w3.org/2000/svg" xmlns:xlink="http://www.w3.org/1999/xlink" xml:space="preserve" xmlns:serif="http://www.serif.com/" style="fill-rule:evenodd;clip-rule:evenodd;stroke-linejoin:round;stroke-miterlimit:2;"><path d="M240.13,239.608c-0.833,-32.083 -2.917,-64.167 -3.333,-96.25c-0.833,-35.417 -0.833,-70.833 -4.167,-106.25c-2.5,-26.25 -11.667,-34.167 -37.917,-35.833c-35.417,-2.5 -71.25,-0.833 -106.667,0.833c-0.417,0 -0.833,0 -1.667,0.417c-8.75,-2.083 -19.583,9.167 -25.417,15c-16.667,16.667 -36.25,32.5 -50.417,51.667c-12.5,17.083 -10.417,32.5 -10.417,52.917c0,51.25 0.417,102.917 4.583,154.167c0,0.833 0.417,1.25 0.417,2.083c-0.417,3.75 1.667,7.917 6.667,7.917c52.5,0.417 105.417,5 157.917,2.917c16.667,-0.833 50.833,2.917 64.167,-10c9.167,-9.167 7.917,-25.833 6.25,-39.583Zm-207.5,-172.5c12.917,-13.333 26.25,-26.25 39.583,-39.167c3.333,-3.333 6.667,-8.333 9.167,-6.25c0.417,0.417 0.417,4.583 0.833,5.417c3.75,8.75 2.917,20.833 3.333,30c0,5 2.917,20.833 0.833,24.583c-2.917,5 -18.333,3.75 -24.167,3.75c-14.167,0 -28.333,-0.417 -42.083,0.417c1.667,-5.833 5.833,-12.083 12.5,-18.75Zm190,197.5c-5,7.5 -12.083,6.25 -20.833,7.083c-20.833,2.083 -41.667,2.917 -62.917,2.917c-40,0 -79.583,-2.5 -119.583,-2.5c-2.5,-35.833 -2.083,-71.667 -2.5,-107.917c-0.417,-16.667 -0.833,-33.333 -0.833,-50c0,-4.583 0,-8.75 0.417,-12.5c22.917,0.417 48.75,2.917 70.417,-2.083c19.167,-4.167 14.167,-20 13.75,-35.833c-0.417,-11.25 -0.833,-22.083 -2.5,-32.917c-0.417,-4.167 -0.833,-10 -1.667,-15.417c25.833,-1.25 51.667,-2.083 77.5,-1.25c19.583,0.417 39.167,-0.833 44.583,22.917c3.333,13.75 2.083,30.833 2.5,45c1.667,52.083 -1.667,105.417 4.583,157.083c0,2.917 0,6.25 0.417,9.167c-0.417,6.667 0.417,10.833 -3.333,16.25Z" style="fill-rule:nonzero;"/><path d="M186.797,127.942c7.083,-1.25 5,-11.667 -1.667,-12.083c-43.333,-2.917 -88.75,2.5 -132.5,3.333c-8.333,0 -8.333,12.917 -0,12.917c43.75,-0.417 91.25,4.167 134.167,-4.167Z" style="fill-rule:nonzero;"/><path d="M56.797,177.108c44.583,1.667 92.5,0.833 136.667,-4.583c7.917,-0.833 7.917,-11.667 0,-12.5c-45,-4.583 -91.667,5 -136.667,3.333c-8.75,-0.417 -8.75,13.333 0,13.75Z" style="fill-rule:nonzero;"/><path d="M194.297,207.942c-22.083,-2.5 -45.417,0.417 -67.917,0.833c-22.5,0.417 -45.417,0.833 -67.917,0.833c-9.167,0 -9.167,14.583 0,14.583c23.75,0 47.917,-0.417 71.667,-0.833c21.667,-0.417 44.583,0.833 65.833,-3.333c7.5,-1.25 5,-11.667 -1.667,-12.083Z" style="fill-rule:nonzero;"/></svg>