<?xml version="1.0" encoding="UTF-8" standalone="no"?><!DOCTYPE svg PUBLIC "-//W3C//DTD SVG 1.1//EN" "http://www.w3.org/Graphics/SVG/1.1/DTD/svg11.dtd"><svg width="100%" height="100%" viewBox="0 0 359 227" version="1.1" xmlns="http://www.w3.org/2000/svg" xmlns:xlink="http://www.w3.org/1999/xlink" xml:space="preserve" xmlns:serif="http://www.serif.com/" style="fill-rule:evenodd;clip-rule:evenodd;"><path d="M260.005,207.193c0.283,-2.796 -1.025,-5.712 -1.463,-8.325c-0.446,-2.667 -1.012,-5.333 -1.517,-8c0.075,-0.254 0.221,-0.488 0.267,-0.75c0,-0.642 -0.333,-1.442 -0.821,-2.158c-1.5,-7.613 -3.113,-15.229 -4.804,-22.842c-1.875,-6.25 -1.875,-12.5 -6.25,-18.125c-3.75,-5 -10,-5.625 -15,-8.125c-18.125,-7.5 -38.75,-9.375 -58.125,-10c-6.875,0 -12.5,0 -19.375,-0.625c-3.125,-0.625 -9.375,-0.625 -9.375,-0.625l6.938,0.512c-11.154,-0.542 -22.829,0.275 -31.938,6.988c-2.025,1.688 -3.692,3.554 -5.379,5.408c-2.137,1.708 -4.067,3.608 -5.875,5.621c-1.892,1.533 -3.575,3.062 -5.617,4.596c-1.25,1.25 -3.125,3.125 -3.125,3.125c-3.125,0.625 -5,0.625 -6.25,4.375c-0.625,1.25 -0.625,5 -0.625,5l0,1.25c-0.625,1.25 -0.625,4.375 -0.625,4.375c-0.875,3.058 -1.433,5.829 -1.913,8.921c-1.604,3.071 -3.275,6.137 -3.713,9.204c-1.188,5.342 -3.462,11.229 -2.621,16.092c0,0.029 -0.004,0.062 -0.004,0.092c-2.579,1.717 -4.229,4.183 -3,7.567c1.771,3.542 7.354,3.471 12.317,2.742c1.375,0.787 3.158,0.783 4.804,0.137c0.225,0.146 0.379,0.246 0.379,0.246c0,-0.117 0.037,-0.271 0.075,-0.421c0.104,-0.05 0.204,-0.108 0.308,-0.163c-0.05,0.325 -0.033,0.583 0.242,0.583c1.25,0 3.125,-1.875 3.75,-1.25c5.625,0.625 11.25,1.875 17.5,1.875c8.75,0.625 17.5,-2.5 26.25,-1.875c5,0 9.375,1.875 14.375,2.5c8.125,0.625 16.875,0.625 25,0.625c5,0 10,-1.25 15.625,-1.25c3.75,0 7.5,1.25 11.25,1.25c10,0.625 19.375,0.625 29.375,1.25c3.75,0 10,1.875 13.75,0.625c2.5,-0.625 6.25,-3.125 6.875,-6.25c-0.004,-1.171 -0.571,-3.379 -1.667,-4.175Zm-157.7,-8.092c-0.421,-0.038 -0.842,-0.079 -1.258,-0.096l0,-9.513c0,-0.625 1.25,-1.875 1.25,-1.875c-0.625,2.5 0,6.25 1.875,8.125c0.625,1.25 3.75,1.875 3.75,2.5c0,0.121 0.037,0.238 0.054,0.354c-1.896,0.167 -3.783,0.329 -5.671,0.504Zm33.737,-42.733c-0.625,0.625 -0.625,2.5 -1.25,2.5c-0.625,-1.875 -3.75,-2.5 -3.75,-2.5l0,-0.625l3.125,-0.625c0.625,0.625 1.875,1.25 1.875,1.25Zm46.875,30.625c0,3.125 0,6.25 3.125,8.125c0.921,0.463 2.188,0.767 3.558,0.975c-1.396,-0.092 -2.792,-0.15 -4.183,-0.35c-1.875,0 -6.25,-0.625 -6.25,-0.625c0.625,-1.875 1.25,-3.125 1.875,-5c0.625,-1.25 1.25,-4.375 1.25,-4.375l0,0.625c0.625,0 0.625,0.625 0.625,0.625Zm43.125,1.875l-0.625,0l0.625,-0.625c0,0.625 0.625,1.25 0,0.625Zm-91.871,5c0.625,-0.625 1.25,-3.125 1.25,-2.5c0.625,1.25 3.75,1.875 3.75,1.875c-0.283,1.133 -0.45,2.362 -0.508,3.6c-2.054,0.033 -4.113,0.096 -6.167,0.171c0.583,-1.021 1.137,-2.075 1.675,-3.146Zm109.508,4.154c0.912,0.321 1.896,0.446 2.925,0.408c0.667,3.679 1.012,6.688 0.692,6.688c-0.021,0.025 -0.029,0.05 -0.046,0.079c-1.287,-0.1 -2.575,-0.175 -3.863,-0.233c0.512,-2.238 0.421,-4.571 0.292,-6.942Z" style="fill-rule:nonzero;stroke:#000;stroke-width:4.17px;"/><path d="M137.297,83.868c0.625,1.25 1.875,3.125 2.5,3.125c2.5,4.375 5.625,9.375 10.625,11.875c1.25,0.625 3.125,1.25 5,1.875l2.5,0c1.875,0.625 5,1.25 5,1.25c11.25,3.125 20,-1.25 29.375,-6.875c3.125,-1.875 5.625,-4.375 8.125,-6.25c0.625,0 1.875,-1.875 1.875,-1.875c3.125,-1.875 5.625,-3.75 7.5,-6.875c0.625,-1.25 1.25,-2.5 1.875,-3.75l0.625,-1.875l0,-1.25c1.25,-2.5 1.25,-4.375 1.875,-7.5l0,-1.875c0.625,-7.5 1.875,-14.375 -0.625,-21.25c-1.25,-1.875 -1.875,-3.75 -2.5,-5.625c-1.25,-1.875 -3.75,-5.625 -3.75,-5.625c0,-0.625 -0.625,-1.875 -1.25,-1.875c-0.625,-1.25 -2.5,-3.125 -2.5,-3.75c-1.25,-1.25 -3.125,-3.125 -4.375,-4.375c-1.25,-0.625 -2.5,-1.875 -3.125,-1.875c-2.5,-1.875 -4.375,-3.125 -7.5,-5c-0.625,-0.625 -3.125,-1.25 -3.125,-1.25c-5,-3.125 -9.375,-3.75 -15,-4.375l3.75,0c-4.375,0 -10,-0.625 -15,0c-7.5,1.875 -15,8.75 -19.375,15c-3.125,3.75 -5,8.75 -6.25,13.125c-1.25,1.875 -2.5,6.875 -2.5,6.875c-1.25,1.875 -1.875,4.375 -2.5,6.875c0,1.875 -0.625,5.625 -0.625,6.25c-1.875,8.75 0,13.75 5,21.25c1.871,1.875 3.121,3.75 4.375,5.625Zm59.996,-32.5c0,-0.55 -0.038,-1.096 -0.05,-1.646c0.229,0.696 0.458,1.454 0.683,2.188c-0.363,-0.321 -0.633,-0.542 -0.633,-0.542Zm-46.875,28.125c-0.908,-1.65 -1.679,-3.262 -2.346,-4.854c0.367,-0.354 0.733,-0.771 1.096,-0.771c0,2.5 0.625,3.75 2.5,5.625c0.033,0.033 0.096,0.062 0.138,0.096c-0.417,0.292 -0.763,0.525 -0.763,0.525c0,0 -0.625,0.004 -0.625,-0.621Zm48.608,-10.387c0.258,-1.537 0.512,-3.075 0.771,-4.613c0.096,-0.383 0.217,-0.842 0.329,-1.275c0.008,2.037 -0.254,4.021 -0.954,5.65c-0.038,0.083 -0.108,0.154 -0.146,0.237Zm-18.608,-42.738c-0.179,-0.242 -0.283,-0.388 -0.429,-0.596c0.733,0.079 2.308,0.596 2.308,0.596c-0.629,0 -1.879,0.625 -1.879,0Z" style="fill-rule:nonzero;stroke:#000;stroke-width:4.17px;"/><path d="M276.668,113.243l3.125,0c3.75,0 7.5,-1.25 10.625,-3.75c2.5,-1.25 4.375,-3.125 6.25,-4.375c1.25,-1.25 3.125,-2.5 3.125,-3.125c12.5,-10.625 24.375,-25.625 20,-43.125c-1.25,-7.5 -4.375,-13.75 -8.125,-20c-1.25,-1.25 -2.5,-3.125 -4.375,-3.75c-0.625,-0.625 -2.5,-1.875 -2.5,-1.875c-4.375,-5.625 -8.75,-11.25 -15,-14.375c-0.625,-0.625 -4.375,-2.5 -6.875,-3.75c-1.25,0 -3.75,-0.625 -3.75,-1.25c-0.458,-0.917 -0.925,-1.833 -1.883,-2.504l1.258,0.629c-1.021,-0.612 -1.975,-1.117 -2.929,-1.55c-0.796,-0.508 -2.071,-0.95 -2.071,-0.95l1.021,0.508c-1.629,-0.592 -3.317,-0.858 -5.396,-0.508c-2.5,0.625 -8.125,1.875 -8.125,1.875c-4.196,0.6 -10.046,3.525 -9.421,8.725c-0.283,-0.2 -0.596,-0.325 -0.896,-0.483c-0.308,-0.246 -0.583,-0.479 -0.938,-0.742c-0.625,-0.625 -3.125,-0.625 -3.125,-0.625l1.25,0.467c-3.663,-0.379 -7.175,1.954 -6.25,7.033c0.625,5 4.375,9.375 6.25,13.125c2.5,5.625 5,11.25 6.875,16.875c1.25,5.625 -0.625,12.5 -1.875,18.125c-1.25,5.625 -5.625,10.625 -8.75,15.625c-1.875,2.5 -5,5 -4.375,8.75c0.258,1.55 1.279,2.858 2.587,3.763c-0.029,0.208 -0.071,0.392 -0.088,0.612c-0.625,5.625 5.625,6.875 9.375,8.125c1.25,0 4.375,0.625 4.375,0.625c1.875,0.625 4.375,0.625 6.25,0.625l3.125,0c1.875,0 5,0.625 5.625,0.625c1.879,0.625 3.129,0.625 5.629,0.625Zm27.5,-45c0.625,-0.625 0,-3.125 0,-3.125c0.625,0.625 0.625,1.25 0.625,1.25c0,1.25 -0.625,3.75 -0.625,3.75l0,-1.875Zm-19.996,-35.625l0.625,0l1.25,1.25l-1.875,0c0.621,-0.625 0,-1.25 0,-1.25Zm-32.546,-12.517c0.012,0.092 0.004,0.175 0.017,0.267c-0.171,-0.15 -0.358,-0.312 -0.546,-0.463l0.529,0.196Zm3.167,4.392c-0.088,-0.175 -0.179,-0.304 -0.267,-0.467c0.288,0.175 0.567,0.358 0.892,0.467c1.25,0 3.125,-0.625 3.75,-0.625c1.875,0 6.25,0.625 6.25,0.625c0,1.875 -2.5,3.75 -2.5,3.75c-1.025,1.283 -2.675,3 -4.188,4.908c-1.033,-2.279 -2.263,-4.937 -3.938,-8.658Zm13.125,54.375c0,0.625 -0.625,1.25 -0.625,1.25c-1.25,1.875 -3.75,5 -3.75,8.125c-0.625,1.25 1.25,5 1.25,5c-1.25,1.25 -1.875,2.5 -3.125,3.75c0,0.625 -0.625,1.875 -0.625,1.875c-1.25,0 -4.375,-0.625 -4.375,-0.625c-0.967,-0.217 -2.013,-0.467 -3.075,-0.696c0.608,-0.671 1.2,-2.429 1.2,-2.429c5.962,-7.667 8.425,-13.062 10.192,-20.438c0.521,0.275 1.096,0.438 1.683,0.438c0.625,0 2.5,0.625 2.5,0.625c-0.621,0.625 -1.25,3.125 -1.25,3.125Z" style="fill-rule:nonzero;stroke:#000;stroke-width:4.17px;"/><path d="M345.418,185.118c-4.375,-16.25 -6.875,-35.625 -23.75,-43.125c-10,-4.375 -18.75,-5.625 -29.375,-6.25l-1.875,0c-3.125,0 -12.5,-1.875 -15.625,0.625c-0.033,0.021 -0.05,0.05 -0.083,0.067c-1.546,-0.392 -3.042,-0.692 -3.042,-0.692l2.046,0.583c-3.688,-0.542 -8.067,1.188 -7.046,6.292c1.25,5.625 6.875,10 9.375,15c3.75,8.75 3.75,15.625 6.25,24.375c1.25,4.375 3.125,9.375 4.375,13.75c0.892,2.675 2.117,11.675 5.908,15.05c0.613,1.762 1.871,3.371 3.467,4.325c1.25,0.625 3.75,0.625 5,0c1.142,0 2.238,-1.004 2.425,-1.183c0.121,0 0.246,0.008 0.363,0.004c3.688,1.158 7.929,1.192 11.588,1.804c2.5,0 8.125,0.625 8.75,0.625c4.375,0 13.125,1.875 13.75,-5.625c0,-3.408 -3.096,-5.762 -6.004,-6.167c1.729,-1.062 3.387,-2.208 4.925,-3.488c0.367,1.35 0.688,2.65 1.079,4.025c0.625,3.75 5.625,8.125 10,5c5.625,-5.621 -1.246,-19.371 -2.5,-24.996Zm-44.333,15.629c-0.042,0.004 -0.083,0.017 -0.125,0.021c-0.558,-3.325 -1.517,-6.513 -1.792,-8.15c-0.154,-0.546 -0.375,-1.1 -0.567,-1.646c0.375,0.342 0.742,0.683 1.192,1.021c1.25,0.625 3.75,0.625 3.75,0.625c0,0.625 1.25,1.25 1.25,1.25c-1.25,0.625 -2.5,2.5 -2.5,4.375c0,0.417 0.254,1.625 0.254,2.412c-0.479,0.017 -0.958,0.038 -1.421,0.087l-0.079,0l0.037,0.004Z" style="fill-rule:nonzero;stroke:#000;stroke-width:4.17px;"/><path d="M74.793,100.118c0.867,-2.162 1.188,-4.938 1.263,-7.858c2.738,-0.025 5.604,-0.1 8.738,-0.267c5.625,-0.625 13.75,0.625 19.375,-2.5c6.25,-3.75 7.5,-15 6.25,-21.25c-1.25,-3.75 -3.125,-5.625 -6.25,-7.5c-1.25,-0.625 -3.75,-1.25 -4.375,-1.25c-6.875,-5 -16.25,-5 -24.375,-6.25l-0.625,0l0,-18.125c0,-4.375 0.625,-8.75 0,-13.125c-0.625,-1.875 -0.625,-2.5 -1.875,-4.375c-0.625,-0.625 -1.875,-1.875 -1.875,-1.875c-0.625,-1.25 -3.125,-1.875 -3.125,-1.875l2.167,1.3c-1.6,-0.662 -4.042,-0.675 -4.042,-0.675c-6.25,0 -14.375,1.25 -16.875,8.125c-0.625,3.125 -0.625,6.25 -0.625,8.75c0.625,1.25 0.625,4.375 0.625,4.375c0,1.875 0,6.25 -0.625,6.25l0,13.725c-3.312,-0.054 -6.775,-0.321 -11.25,-0.604c-1.308,-0.325 -2.621,-0.654 -3.929,-0.983l2.679,0.358c-1.292,-0.217 -2.554,-0.438 -3.8,-0.638c-0.817,-0.204 -1.633,-0.408 -2.45,-0.612l-3.125,0l0.867,0.117c-4.046,-0.104 -7.604,0.983 -10.242,5.508c-1.25,1.875 -3.125,5 -5,7.5c-1.875,3.75 -5,8.75 -3.125,13.125c1.25,4.375 6.25,5 9.375,6.875c3.75,1.875 5.625,4.375 9.375,5.625c6.983,1.496 13.958,0.225 20.625,-0.042l0,4.417c0,8.75 -2.5,17.5 0.625,25c0.625,3.125 4.375,5.625 8.125,4.375c1.875,-0.625 3.75,-4.375 3.75,-4.375c0.625,-0.625 1.25,-1.25 1.25,-1.25c0.625,0.625 2.5,0.625 2.5,0.625c2.5,2.5 7.5,0 8.75,-2.5c1.875,-2.5 1.875,-6.875 1.25,-10l-0,-8.121Zm-41.875,-23.125c-0.625,0.625 -2.5,1.25 -2.5,1.25l-1.25,0c-1.25,-0.625 -2.5,-1.875 -4.375,-2.5c-0.625,-0.625 -1.875,-1.25 -1.875,-1.25l2.5,-5l0,0.625c0.625,0 1.25,0.625 1.25,0.625c1.25,1.875 4.375,3.75 4.375,3.75c0.625,1.25 2.5,2.5 1.875,2.5Zm42.5,-9.375c1.25,0 4.375,1.25 4.375,1.25c-1.25,0.625 -3.125,1.25 -3.125,0.625c-0.471,-0.471 -1.296,-1.296 -1.675,-1.675c0,-0.067 -0.004,-0.133 -0.004,-0.2l0.429,0Z" style="fill-rule:nonzero;stroke:#000;stroke-width:4.17px;"/></svg>