<?xml version="1.0" encoding="UTF-8" standalone="no"?><!DOCTYPE svg PUBLIC "-//W3C//DTD SVG 1.1//EN" "http://www.w3.org/Graphics/SVG/1.1/DTD/svg11.dtd"><svg width="100%" height="100%" viewBox="0 0 276 243" version="1.1" xmlns="http://www.w3.org/2000/svg" xmlns:xlink="http://www.w3.org/1999/xlink" xml:space="preserve" xmlns:serif="http://www.serif.com/" style="fill-rule:evenodd;clip-rule:evenodd;stroke-linejoin:round;stroke-miterlimit:2;"><g><path d="M238.988,136.272c-1.892,-1.892 -3.783,-5.296 -6.808,-6.429c-6.808,-1.892 -14.75,9.833 -17.396,12.479c-7.187,6.808 -15.129,13.617 -21.558,21.179c-6.808,7.562 -12.479,16.262 -18.154,24.963c-4.304,6.596 -9.621,12.558 -14.808,18.458c-3.229,3.675 -5.754,6.354 -6.292,11.404c-0.625,5.883 -0.125,12.146 0.396,18.017c0.158,1.804 0.429,3.763 1.733,5.021c0.821,0.792 1.958,1.188 3.088,1.358c4.808,0.712 11.113,-3.638 15.504,-5.467c1.892,-0.758 3.404,-1.892 5.296,-2.646c3.783,-1.133 6.808,-0.758 10.592,-3.404c7.942,-5.296 11.346,-14.75 16.642,-22.313c3.404,-4.537 6.429,-7.187 10.212,-11.346c3.404,-4.538 5.675,-8.7 9.454,-12.858c2.271,-2.646 5.296,-4.537 7.188,-7.562c4.537,-5.675 9.075,-12.104 14.371,-17.396c2.646,-2.646 9.454,-4.917 4.917,-9.833c-3.783,-4.929 -9.838,-9.467 -14.375,-13.625Z" style="fill-rule:nonzero;"/><path d="M274.75,128.96c-0.196,-0.583 -0.508,-1.167 -0.962,-1.758c-3.333,-4.358 -8.267,-7.254 -12.108,-11.096c-1.8,-1.8 -5.321,-6.979 -7.854,-7.65c-4.117,-1.092 -8.85,5.504 -11.192,8.054c-2.858,3.117 -6.25,7.837 -2.408,11.6c2.338,2.288 4.625,4.625 6.938,6.938c4.917,4.917 10.512,15.125 17.35,8.008c3.712,-3.863 12.029,-8.75 10.238,-14.096Z" style="fill-rule:nonzero;"/><path d="M142.363,138.431c3.696,-0.729 10.296,-1.429 10.904,-1.446c3.854,0 7.746,0.587 11.867,1.212c9.762,1.479 19.608,1.1 29.421,0.633c1.346,-1.258 2.692,-2.504 4.025,-3.738c1.646,-1.521 3.283,-3.033 4.883,-4.546c0.283,-0.317 0.613,-0.725 0.996,-1.179c1.867,-2.225 4.383,-5.188 7.492,-7.983c-6.292,0.325 -16.654,-2.938 -20.796,-2.938c-3.288,0 -6.721,0.133 -10.392,0.317c-0.787,0 -1.7,-0.154 -2.675,-0.308c-1.275,-0.2 -2.721,-0.433 -4.2,-0.433l-2.875,0.021c-12.829,-1.829 -26.883,-2.225 -41.808,-1.183l-0.038,-5.783c-0.037,-5.021 -0.071,-10.017 -0.071,-14.958l-0.013,-2.425c-0.054,-6.058 -0.158,-18.662 2.258,-22.817c2.95,-5.058 6.208,-4.771 12.175,-3.754c2.1,0.354 4.271,0.725 6.592,0.742c2.783,-0.029 5.575,-0.6 8.225,-1.204c0.917,-0.208 1.829,-0.417 2.75,-0.596c9.429,-1.854 19.208,-0.771 28.671,0.279c0,0 18.183,2.021 18.188,2.021c6.792,0.754 8.942,0.904 9.863,8.542c0.671,5.567 0,11.838 0,17.463c0,4.942 1.575,16.596 -0.1,22.679c2.192,-1.346 4.571,-2.483 7.167,-3.2c1.363,-2.804 3.292,-5.683 5.967,-8.604c0.242,-0.263 0.517,-0.592 0.825,-0.954c0.654,-0.767 1.442,-1.662 2.296,-2.596l0,-50.554c0,-10.2 2.071,-23.008 -2.233,-32.046c-6.838,-14.354 -25.013,-19.108 -37.85,-18.862c-25.704,0.496 -51.513,-0.208 -77.233,-0.208l-75.037,0c-8.312,0 -16.625,-0.05 -24.938,0c-12.45,0.075 -16.658,13.196 -16.658,27.192l0,23.246c0,29.671 -0.125,54.425 0.567,84.088c0.337,14.483 -0.758,31.133 1.8,45.321c2.079,11.538 9.633,22.621 17.208,30.154c7.138,7.096 23.817,5.213 33.283,5.213l85.229,0c1.375,-9.279 6.175,-14.821 9.758,-18.887l0.375,-0.425l0.075,-0.088c-3.363,-0.429 -6.692,-0.896 -9.942,-1.396c-1.533,-0.238 -2.975,-0.387 -4.317,-0.533c-7.183,-0.771 -6.6,-2.646 -6.596,-10.658c0.004,-7.546 0,-15.096 0,-22.642c0,-1.437 -0.171,-3.517 -0.325,-5.812c-0.346,-5.054 -0.642,-11.167 1.033,-13.808c2.713,-4.279 10.288,-2.542 14.204,-2.554Zm-128.963,-50.708c-0.175,-6.562 -0.529,-20.217 2.358,-23.375c2.521,-2.758 12.787,-1.229 18.912,-0.312c3.037,0.45 5.663,0.846 7.496,0.863c5.158,0.054 10.329,-0.054 15.504,-0.146c15.608,-0.275 31.517,-0.683 46.875,3.129c-0.608,9.55 1.367,20.613 1.367,30.579c0,0.467 0.008,0.946 0.021,1.433c0.125,4.433 0.725,9.642 -0.029,13.787c-1.142,6.283 -1.287,5.088 -7.508,5.088l-0.437,0.258c-0.179,0.1 -0.45,0.183 -0.738,0.229l0,-0.492l-18.333,0l-3.404,0.033c-3.921,-0.775 -7.821,-0.775 -11.592,-0.775c-14.104,0 -28.75,1.175 -42.742,-0.379c-11.354,-1.262 -7.675,-15.275 -7.675,-25.971c-0,-1.033 -0.033,-2.388 -0.075,-3.95Zm93.842,102.417c-1.25,0.283 -2.517,0.592 -3.783,0.9c-10.292,2.512 -21.246,2.6 -31.842,3.812c-5.962,0.683 -11.967,0.538 -17.954,0.392c-4.912,-0.121 -9.829,-0.238 -14.742,-0.358c-5.704,-0.138 -11.908,-0.492 -16.237,-4.875c-6.696,-6.775 -7.725,-21.033 -7.354,-30.667c0.108,-2.875 0.225,-5.854 -0.008,-9.204c-0.225,-3.629 -0.45,-7.233 -0.667,-10.825c0.179,-0.038 0.346,-0.071 0.492,-0.113c11.233,0 22.354,0.1 33.533,-0.05c2.883,-0.679 8.288,-0.688 8.342,-0.688l18.025,-0.004c3.454,0.196 6.779,0.433 10.033,0.667c7.767,0.558 15.125,1.092 22.858,0.908c0.767,6.879 -0.058,35.921 -0.696,50.104Z" style="fill-rule:nonzero;"/></g></svg>