<?xml version="1.0" encoding="UTF-8"?><svg id="_173.Announcement" xmlns="http://www.w3.org/2000/svg" width="520" height="520" viewBox="0 0 520 520"><defs><style>.cls-1,.cls-2,.cls-3,.cls-4{fill:#231f20;}.cls-2{opacity:.15;}.cls-3{opacity:.2;}.cls-4{opacity:.4;}</style></defs><path class="cls-3" d="m452.22,259.09c-.83-1.53-11.19-39.95-32.81-47.62-16.72-5.93-47.2-27.75-52.47-49.31l30.33,1.7s1.15,10.59,8.4,10.71,8.24,2.41,8.95.04-2.27-10.54,10.91-10.01c13.18.53,34.97,1.08,35.66,2.56,4.41,9.58-8.96,91.91-8.96,91.91Z"/><path class="cls-1" d="m373.01,163.59l3.3.49c.4.06.79.05,1.19.11,1.39.22,2.77.41,4.15.56.62.07,1.23.04,1.84.03.39-.03.78-.03,1.18-.03.39-.02.79-.02,1.19-.02.25,0,.24.11.06.28-.18.17-.53.47-.98.65-.4.14-.81.27-1.22.39-.41.09-.83.14-1.25.19-.84.09-1.68.14-2.51.03-.99-.14-2.03-.09-3.03-.16l-3.28-.27c-.67-.05-1.34-.1-2-.12-1.01-.04-2.02-.05-3,.07-.38.07-.75.16-1.11.27-.36.11-.7.29-1.07.37-.16.04-.31.11-.46.15-.59.13-.84-.04-1.12-.47-.06-.1-.14-.2-.19-.3-.17-.33-.02-.72.4-1.09,1.27-1.02,2.93-1.21,4.48-1.3,1.16-.05,2.32,0,3.45.1v.06Z"/><path class="cls-1" d="m447.34,167.81c-2.03-.27-4.08-.5-6.13-.68-.75-.07-1.5-.06-2.25-.12-2.65-.23-5.31-.45-7.97-.64-1.18-.08-2.37-.1-3.55-.16l-2.27-.1c-.75-.11-1.5-.33-2.24-.52-.46-.14-.39-.32.03-.58.42-.25,1.18-.72,2.05-.91.77-.06,1.54-.04,2.3-.04.77,0,1.54-.02,2.3.06,1.53.11,3.07.26,4.62.46,1.85.24,3.79.22,5.69.35,2.09.15,4.19.34,6.28.58,1.29.14,2.57.31,3.85.5,1.94.26,3.88.64,5.8.97.74.15,1.49.26,2.23.36.74.12,1.48.25,2.23.39.33.06.65.1.98.2.6.17.99.31,1.23.5.23.21.33.44.37.75.02.14.05.28.05.41,0,.21-.16.37-.43.47-.26.1-.65.18-1.08.1-2.6-.38-5.26-.95-7.98-1.39-2.02-.34-4.06-.65-6.11-.88v-.05Z"/><path class="cls-1" d="m398.56,308.37c-3.35-.22-6.71-.4-10.07-.48-1.23-.05-2.45.01-3.68-.02-4.32-.11-8.65-.17-12.98-.04-1.92.04-3.85.21-5.74.38-1.22.13-2.44.2-3.67.27-1.23.05-2.46,0-3.7-.04-.77-.04-.7-.31-.09-.75.61-.42,1.74-1.12,3.13-1.51,1.24-.25,2.49-.45,3.75-.62,1.26-.11,2.52-.18,3.78-.25,2.53-.12,5.06-.17,7.61-.09,3.04.07,6.2-.13,9.31-.12,3.42.01,6.84.16,10.25.33,2.1.11,4.2.25,6.3.39,1.59.09,3.18.25,4.76.36,1.59.14,3.17.29,4.74.43,2.44.23,4.86.27,7.27.54.53.06,1.05.1,1.59.18,1.97.34,2.57.67,2.94,1.14.08.11.2.22.24.32.15.32-.69.51-2.17.62-4.37.22-8.88-.17-13.43-.33-1.69-.08-3.37-.22-5.06-.34-1.69-.1-3.38-.23-5.07-.3v-.07Z"/><path class="cls-1" d="m402.34,172.4s9.58.1,12.68-8.8l-.4,11.02-8.95-.04-3.32-2.17Z"/><path class="cls-1" d="m385.07,114.12c-.68.79-.06,31.88-.06,31.88l10.55-1.46-10.48-30.42Z"/><path class="cls-1" d="m392.54,149.47c.06,1.39-1,7.27-1,7.27l5.38,15.44,4.41,2.59-8.79-25.3Z"/><path class="cls-1" d="m368.8,292.77c.31.06,4.81,6.21,6.56,7.06,0,0-15.3,9.25-17.49,9.5-2.19.25-25.91,4.33-25.91,4.33l29.84-21.94,7.01,1.06Z"/><path class="cls-2" d="m285.82,177.26c-4.65-10.24-30.67,10.33-30.67,10.33l5.82,7.12s-1.96,6.67-7.55,10.86c-5.61,4.18-19.43-5.85-19.43-5.85,0,0-14.38,12.54-28.64,20.48-14.25,7.93-16.31,14.45-16.31,14.45,0,0,26.89,34.01,33.56,42.91,6.68,8.9,26.74,40.8,33.61,49.35,6.86,8.55,19.76-10.9,29.71-19,9.94-8.1,52.91-35.17,52.91-35.17,0,0-48.35-85.24-53.01-95.48Zm8.76,57.12c.77,1.12.6,3.62-.33,5.66s-3.16,2.56-7.58,1.27c-4.41-1.29-4.38-5.73-4.38-5.73,0,0-1.06,2.28-2.25,4.66-1.2,2.39-6.08,5.5-9.03,6.09-2.95.58-4.07-.94-4.98-4.7-.91-3.76,3.99-8.5,3.99-8.5,0,0-4.57-.09-6.38-1.22-1.81-1.13-3.63-3.49-.3-8.19,3.27-4.59,11.15-.19,11.52.01-.14-.14-1.57-1.63-1.83-7.03-.28-5.67,5.17-6.21,7.34-5.8,2.16.4,2.09,5.09,3.14,9.11,1.06,4.02,5.93,4.93,7.17,4.06,3.24-2.31,5.95.14,4.75,3.31-1.38,3.66-6.26,2.09-6.49,2.05.29.23,4.93,3.88,5.66,4.96Z"/><path class="cls-1" d="m224.91,210.31c-1.54.99-3.09,1.95-4.65,2.88-.57.35-1.11.73-1.68,1.06-2.04,1.15-4.08,2.3-6.2,3.29-.93.46-1.85.95-2.75,1.44-1.19.57-2.4,1.11-3.66,1.55-.39.14-.38.03-.14-.27.24-.29.68-.82,1.29-1.29l1.61-1.22c.55-.38,1.12-.72,1.69-1.07,1.15-.68,2.27-1.4,3.49-1.98,1.45-.7,2.81-1.68,4.21-2.56,1.53-.96,3.05-1.94,4.56-2.95.92-.62,1.85-1.25,2.75-1.9,1.37-.99,2.74-1.98,4.03-3.06.99-.85,1.87-1.79,2.77-2.72.2-.2.38-.42.58-.62.38-.36.65-.58.93-.64.29-.04.57.07.86.22.13.06.25.1.34.15.15.09.18.25.21.58.04.34-.05.7-.32.99-1.49,1.85-3.37,3.45-5.35,4.95-1.46,1.12-2.99,2.16-4.51,3.2l-.03-.04Z"/><path class="cls-1" d="m262.2,184.72c1.03-.62,2.06-1.23,3.1-1.83.38-.22.73-.47,1.13-.66,1.38-.68,2.76-1.37,4.13-2.05.61-.31,1.21-.61,1.82-.92.78-.38,1.54-.8,2.33-1.15.49-.23-.05.21-.91.71-1.53.88-2.95,1.93-4.48,2.82-.91.53-1.8,1.2-2.69,1.81-1,.64-2,1.28-2.99,1.95-.61.41-1.21.82-1.81,1.25-.9.64-1.81,1.3-2.66,1.99-.66.54-1.25,1.15-1.86,1.73-.13.13-.28.24-.43.36-.28.2-.48.32-.66.36-.2.02-.34-.01-.49-.07-.07-.03-.14-.04-.19-.07-.09-.05-.1-.15-.08-.32.03-.16.08-.42.24-.62.43-.68.99-1.24,1.58-1.78.6-.54,1.21-1.06,1.88-1.53.98-.7,2-1.36,3.02-2.01l.02.03Z"/><path class="cls-1" d="m348.2,301.32c-2.55,1.71-5.04,3.52-7.51,5.36-.9.68-1.76,1.41-2.66,2.07l-9.55,7.17c-1.42,1.05-2.78,2.19-4.2,3.23-.9.67-1.79,1.37-2.71,2.03-.94.64-1.91,1.22-2.87,1.81-.61.36-.6.2-.25-.32.36-.51,1.02-1.45,1.95-2.37,1.74-1.5,3.45-3.03,5.26-4.44,1.81-1.41,3.64-2.81,5.51-4.18,2.24-1.64,4.41-3.53,6.65-5.28,2.47-1.91,4.99-3.77,7.54-5.59,1.59-1.1,3.16-2.21,4.79-3.24,2.43-1.62,5-3.06,7.52-4.49,1.98-1.08,3.91-2.2,5.94-3.16.44-.22.87-.46,1.33-.64,1.69-.77,2.39-.57,2.9-.31.12.06.26.11.34.18.13.11.04.29-.21.57-.25.27-.64.7-1.23,1-3.51,1.74-7.16,3.57-10.72,5.65-2.62,1.59-5.26,3.19-7.79,4.98l-.03-.04Z"/><path class="cls-1" d="m354.01,298.9c-1.45.76-2.9,1.52-4.31,2.35-.52.3-.99.67-1.51.97-1.82,1.07-3.64,2.15-5.39,3.34-.77.53-1.53,1.1-2.26,1.68l-1.39,1.14c-.49.35-1.02.65-1.57.93-.35.17-.49-.08-.47-.55.02-.46.16-1.22.59-1.79.88-.88,1.81-1.71,2.77-2.5.98-.76,2.04-1.44,3.13-2.06,1.3-.75,2.5-1.74,3.78-2.58,1.41-.92,2.85-1.79,4.3-2.63.89-.53,1.8-1.01,2.7-1.51,1.36-.76,2.77-1.46,4.11-2.24,1.04-.6,2-1.32,3.01-1.97.22-.15.44-.29.68-.4.44-.21.75-.32,1.02-.28.29.08.51.22.73.44.1.1.21.18.29.27.13.16.14.36.08.62-.07.26-.19.64-.48.85-.8.75-1.68,1.37-2.62,1.93-.92.58-1.89,1.12-2.85,1.66-1.43.8-2.89,1.58-4.31,2.4l-.04-.06Z"/><path class="cls-1" d="m210.47,282.66s-17.31-50.64-19.07-51.72-7.38-7.18-7.38-7.18l22.95,59.49,3.5-.58Z"/><path class="cls-1" d="m258.19,195.09c-.16,1.01-.42,2.01-.79,2.95-.14.34-.24.7-.42,1.02-.61,1.14-1.39,2.13-2.2,3.05-.36.4-.69.83-1.06,1.22-.46.51-.92,1.01-1.47,1.43-.17.13-.26,0-.26-.24,0-.24.06-.63.28-.95.75-1.17,1.59-2.2,2.39-3.26.49-.63.78-1.41,1.04-2.15.29-.82.48-1.67.57-2.55.06-.54.07-1.09.06-1.64-.03-.83-.12-1.67-.33-2.48-.17-.63-.48-1.21-.78-1.78-.07-.13-.1-.26-.13-.4-.09-.52.04-.75.43-1.02.09-.06.17-.13.25-.18.27-.15.66-.06,1.01.26.12.13.25.25.37.37.13.12.25.25.3.41.15.29.28.59.39.91.21.63.39,1.29.44,1.97.1,1.01.06,2.05-.05,3.08h-.05Z"/><polygon class="cls-1" points="213.45 192.97 242.81 207.48 250.11 206.27 247.51 202.53 218.82 190.35 213.45 192.97"/><path class="cls-1" d="m290.82,275.86s1.35-14.02,5.24-13.87c2.23.08,1.39,8.43.04,11.2-1.35,2.77-3.74,5.86-3.74,5.86l-1.54-3.19Z"/><path class="cls-1" d="m281.73,282.85c-.8.45-11.61,5.67-10.33,6.42,1.28.75,12-2.53,13.04-4.81s-2.71-1.61-2.71-1.61Z"/><path class="cls-1" d="m277.34,281.55c-.14-.26-2.09-8.1-1.93-11.16.16-3.06,8.28,8,7.82,12.52-.06.62-5.88-1.36-5.88-1.36Z"/><path class="cls-4" d="m264.91,254.61c-3.23-4.07-11.98-3.69-11.98-3.69,0,0,2.43-3.7,1.45-9.24-.99-5.54-6.68-8.63-10.84-2.5-4.16,6.14-.97,11.93-.97,11.93,0,0,.17,1.02-3.29-.19-3.47-1.22-5.47-.78-9.21.83-3.75,1.61-2.22,3.9-1.74,8.01.43,3.73,8.3,3.92,9.75,3.92-.6.07-2.06.84-.75,7.03,1.6,7.63,9.25,3.39,11.56.58,2.32-2.8,3.04-7.75,3.04-7.75,0,0,10.46,1.14,13-.5,2.54-1.64,3.22-4.35-.02-8.43Zm-16.11,1.71c-.42.67-1.1,1.2-1.88,1.3-.78.1-2.17-.36-2.46-1.09-.27-1.27.31-2.36,1.13-2.94.78-.55,2.05-.68,2.87-.17.94.56.92,1.99.34,2.91Z"/><polygon class="cls-1" points="97.1 219.44 95.26 234.36 99.6 231.91 101 216.88 97.1 219.44"/><path class="cls-1" d="m115.09,241.63c-14.31-.18-14.61-18.22-14.61-18.22l-1.68,16.28,16.29,1.93Z"/><path class="cls-1" d="m203.77,346.54c-3.23,1.42-6.41,2.96-9.56,4.55-1.15.58-2.25,1.25-3.4,1.84-4.01,2.14-8.07,4.22-12,6.53-1.76,1-3.45,2.13-5.15,3.19-2.17,1.39-4.33,2.82-6.66,3.98-.72.37-.65.28-.19-.24.29-.33.61-.7.96-1.1.21-.24.42-.49.65-.74.11-.13.24-.25.36-.4.14-.11.28-.23.43-.35,4.15-3.31,8.62-6.17,13.28-8.78,1.39-.78,2.79-1.62,4.21-2.43,1.41-.83,2.84-1.66,4.28-2.43,3.15-1.72,6.38-3.32,9.61-4.89,2.01-.93,4-1.88,6.04-2.76l2.3-1.01,2.33-.95c1.54-.66,3.11-1.24,4.65-1.87,2.41-.95,4.73-1.99,7.16-2.86.53-.19,1.04-.43,1.59-.59,1.02-.3,1.7-.46,2.21-.45.26.02.47.07.66.15.19.1.35.23.5.37.14.12.3.22.39.33.15.18.03.41-.26.79-.29.4-.81.72-1.52.99-4.19,1.64-8.61,3.24-13.03,5.01-3.27,1.34-6.56,2.68-9.78,4.2l-.03-.06Z"/><path class="cls-1" d="m147.57,214.75c-1.49.79-2.99,1.54-4.5,2.27-.55.27-1.07.59-1.62.85-1.96.89-3.93,1.76-5.92,2.56-.88.37-1.74.78-2.58,1.2l-1.63.81c-.58.2-1.15.4-1.8.44-.4.02-.42-.14-.27-.57.14-.45.46-1.15,1.02-1.6,2.17-1.16,4.38-2.22,6.71-3.08,1.4-.5,2.73-1.29,4.08-1.96,1.49-.74,2.98-1.48,4.44-2.27.9-.48,1.8-.97,2.68-1.49,1.34-.78,2.68-1.58,3.93-2.47.48-.35.94-.73,1.39-1.11.44-.39.88-.79,1.35-1.14l.6-.49c.77-.58,1.12-.63,1.6-.36.11.06.23.11.32.18.3.23.2.75-.28,1.32-1.37,1.76-3.22,3.11-5.14,4.35-1.42.93-2.9,1.78-4.38,2.61l-.03-.05Z"/><path class="cls-1" d="m66.62,254.06c-1.15.55-2.31,1.1-3.49,1.59-.59.25-1.17.52-1.77.75l-.9.35-.43.17-.07.02-.16.05s.05.09.07.14l.04.08.22.36.49.81,1.96,3.26c.94,1.59,1.93,3.15,2.84,4.76,3.23,5.66,6.28,11.43,9.02,17.35,1.23,2.62,2.45,5.26,3.62,7.88,1.45,3.39,2.89,6.81,3.85,10.38.32,1.11.16,1-.39.17-.31-.48-.69-1.06-1.11-1.72-.22-.36-.48-.74-.72-1.16-.23-.42-.46-.88-.67-1.36l-2.37-5.08c-.74-1.71-1.51-3.42-2.29-5.12-1.55-3.4-3.18-6.78-4.83-10.17-1.97-4.06-4.37-8.11-6.7-12.09-1.28-2.19-2.58-4.38-3.91-6.55l-1.3-2.13-.4-.64.71-.28,1.41-.55c1.22-.46,2.36-.94,3.52-1.45,2.84-1.26,5.64-2.64,8.35-4.19,4.12-2.31,8.16-4.84,12.11-7.41,3.07-1.99,6.05-4.03,9.17-5.92.69-.41,1.35-.85,2.06-1.23.66-.36,1.21-.66,1.68-.89.47-.23.88-.35,1.21-.46.67-.22,1.11-.21,1.51-.13.18.04.39.04.51.09.37.12-.52,1.08-2.38,2.17-5.55,3.2-11.24,6.87-17.06,10.53-4.31,2.72-8.73,5.39-13.38,7.66l-.03-.04Z"/><path class="cls-1" d="m148.14,213.12c-1.94.85-3.89,1.68-5.85,2.47-.71.29-1.39.67-2.11.95-2.54.96-5.07,1.93-7.61,2.89-1.12.44-2.23.9-3.31,1.4-1.37.68-2.78,1.28-4.38,1.44-.49.06-.54-.2-.34-.73.1-.27.26-.61.46-1,.2-.4.47-.78.84-1.03,2.65-1.74,5.54-2.91,8.56-3.83,1.81-.55,3.53-1.5,5.29-2.26l5.81-2.51c1.19-.52,2.37-1.05,3.55-1.6,1.77-.85,3.56-1.68,5.25-2.66,1.32-.75,2.48-1.7,3.74-2.5.28-.18.53-.38.81-.55,1.05-.64,1.49-.66,2.09-.19.14.11.29.2.41.32.39.4.2,1.05-.48,1.71-1.01.96-2.07,1.91-3.26,2.69-1.19.78-2.43,1.51-3.7,2.19-1.88,1.03-3.82,1.94-5.75,2.87l-.04-.07Z"/><path class="cls-1" d="m114.28,243.82s7.18-5.02,9.66-5.69c1.37-.37,8.84-20.89,8.84-20.89,0,0-2.63-1.09-5.61,1.16-1.37,1.03-2.7,3.6-4.08,6.42-4.42,8.97-8.81,19-8.81,19Z"/><path class="cls-1" d="m126.33,201.01l2.45,2.47s-3.72,3.37-2.17,6.64c1.93,4.08,6.18,7.12,6.18,7.12l-3.4,2.07s-5.73-3.61-7.18-6.68c-1.46-3.07-1.42-6.28.25-9.57,1.67-3.29,3.88-2.05,3.88-2.05Z"/><path class="cls-1" d="m127.85,199.36c.05.62.01,1.21-.23,1.7-.06.12-.14.25-.23.35-.1.09-.23.16-.34.24l-.7.46c-.22.09-.38.13-.64.26l-.22.11c-.15.06-.28.16-.42.26-.28.17-.52.41-.75.65-.46.49-.84,1.1-1.1,1.79-.53,1.35-.67,3.04-.31,4.33.4,1.34,1.12,2.5,1.92,3.58.34.49.74.95,1.21,1.34.18.27,1.73,1.1,2.06,1.89.04.05.05.11.11.16,0,.06.02.13,0,.19l-.04.37c-.02.13-.02.25-.06.38l-.14.4c-.08.26-.24.53-.35.79l-.3.6-.98,1.85-3.94,7.31c-1.15,2.17-2.23,4.38-3.25,6.59-1.3,2.84-2.51,5.71-4.08,8.42-.52.83-.71.64-.84-.3-.18-.96-.17-2.63.46-4.35.52-1.54,1.18-3.01,1.86-4.47.67-1.46,1.37-2.91,2.09-4.35,1.44-2.88,2.94-5.72,4.54-8.52.48-.84.94-1.69,1.39-2.56l.56-1.11c.05-.14.19-.29.14-.43l-.45-.31c-.44-.33-.87-.67-1.27-1.06-.83-.73-1.58-1.59-2.12-2.56-.61-1.07-1.05-2.14-1.37-3.37-.3-1.29-.26-2.52-.07-3.74.2-1.21.6-2.39,1.25-3.47.64-1.08,1.57-2.03,2.67-2.67l.44-.23.11-.06c-.05.03,0,0,0,0l.09-.04c.12-.06.29-.06.38-.17.05-.13.03-.27.03-.41l-.02-.21-.05-.3-.16-.84c-.24-1.14-.54-2.28-.85-3.43-1.1-3.89-2.2-7.8-3.29-11.66-.84-3.01-1.89-5.92-2.56-8.98-.15-.67-.32-1.33-.43-2.02-.23-1.28-.19-2.16-.12-2.78.09-.62.27-.98.54-1.28.13-.13.24-.3.36-.38.39-.25.81.74,1.37,2.47,1.58,5.16,3.2,10.67,4.84,16.25.62,2.07,1.17,4.17,1.74,6.28l.82,3.2.39,1.64c.12.61.23.94.37,2.17h-.07Z"/><path class="cls-1" d="m111.55,272.83c.82,6.08-3.48,12.44-9.62,13.46-7.85,1.31-15.43-6.43-13.22-14.37,2.13-7.64,9.81-13.88,18.41-6.45,2.47,2.13,4.05,4.57,4.42,7.36Z"/><path class="cls-1" d="m114.12,359.15s-4.25-53.09,10.76-57.38c0,0-2.42-.64,12.98,4.63,12.79,4.38,10.4-10.62,10.4-10.62,0,0-.7-22.74,4.51-28.52,5.21-5.78,19.74-1.55,19.74-1.55l17.11,9.48s18.47,34.61,12.74,37.01c-5.73,2.4-63.77,30.45-70.13,34.55s-18.12,12.4-18.12,12.4Z"/><path class="cls-1" d="m443.44,129.7c3.31-2.07,6.58-4.25,9.68-6.67,1.15-.86,2.2-1.84,3.3-2.77,1.99-1.58,3.89-3.27,5.81-4.95,1.86-1.74,3.72-3.49,5.51-5.32,1.63-1.58,3.08-3.35,4.54-5.06.88-1.15,1.84-2.24,2.83-3.31.97-1.09,1.98-2.14,3.04-3.16.67-.63.95-.26.92.68-.05.93-.32,2.52-1.16,4.02l-1.18,1.94-.6.97-.69.9c-.92,1.19-1.9,2.35-2.87,3.51-.98,1.16-2.02,2.26-3.08,3.35-1.06,1.09-2.22,2.09-3.36,3.1-2.74,2.41-5.37,5.15-8.2,7.58-1.59,1.29-3.17,2.61-4.82,3.83-1.67,1.19-3.31,2.43-5.06,3.52-2.09,1.42-4.29,2.67-6.46,3.96-1.67.92-3.37,1.81-5.07,2.68-1.74.79-3.43,1.67-5.17,2.44-1.35.59-2.66,1.25-3.97,1.89-1.34.58-2.67,1.2-4.03,1.76-.6.25-1.19.47-1.82.65-.58.17-1.07.28-1.49.35-.42.06-.78.03-1.08,0-.6-.09-.99-.33-1.36-.73-.17-.18-.37-.35-.48-.53-.39-.61.37-1.52,1.86-2.45,1.14-.58,2.31-1.08,3.45-1.7,1.16-.54,2.35-1.05,3.54-1.54,2.34-1.12,4.76-2.12,7.1-3.33,3.52-1.69,6.94-3.63,10.28-5.71l.06.09Z"/><path class="cls-1" d="m335.53,181.06c-2.42.83-4.85,1.65-7.31,2.38-.89.29-1.75.67-2.67.88-3.22.8-6.49,1.41-9.78,1.86-1.44.26-2.91.46-4.35.66-.93.09-1.87.22-2.8.29-.95-.03-1.9-.24-2.83-.43-.58-.15-.51-.56-.04-1.14.47-.56,1.29-1.48,2.26-1.89.88-.25,1.75-.43,2.63-.63.88-.18,1.73-.49,2.62-.59,1.77-.28,3.56-.53,5.39-.77,2.2-.26,4.32-1.19,6.47-1.88,2.37-.75,4.75-1.51,7.11-2.37,1.45-.52,2.91-1.06,4.35-1.64,2.18-.88,4.39-1.74,6.48-2.78,1.64-.8,3.09-1.91,4.71-2.72.35-.19.68-.41,1.05-.57,1.44-.44,2.03-.28,2.7.44.15.17.33.32.45.49.41.56.11,1.38-.68,2.26-2.37,2.52-5.45,3.91-8.57,5.35-2.32,1.05-4.72,1.99-7.11,2.93l-.05-.1Z"/><path class="cls-1" d="m295.71,265.28c-.02-.43-.05-.87-.12-1.3-.05-.43-.1-.86-.19-1.29l-.12-.64c-.03-.16-.02-.13-.03-.21-.01-.11-.03-.23-.05-.34-.01-.07-.03-.14-.06-.21-.02-.05-.04-.1-.06-.14-.04,0-.07.06-.11.09-.06.08-.12.15-.18.2l-.17.17c-.07.08-.08.06-.33.41-.38.54-.74,1.09-1.08,1.65-.69,1.13-1.27,2.31-1.82,3.51-.47,1.07-.8,2.21-1,3.35-.12.73-.19,1.46-.29,2.2-.05.74-.18,1.48-.24,2.26-.07.49-.07.44-.34.07-.14-.19-.33-.45-.55-.8-.24-.34-.45-.77-.52-1.25-.16-.85-.23-1.72-.12-2.56.08-.85.22-1.68.42-2.5.39-1.64,1.01-3.21,1.92-4.62.51-.86,1.03-1.72,1.55-2.59l.53-.85c.22-.34.46-.68.69-1.01.47-.65,1-1.23,1.47-1.44.18-.09.35-.15.52-.19.09-.01.16-.04.28-.02.08.05.15.12.22.18.29.25.59.41.82.94.45.94.77,2.09,1.05,3.04.15.72.31,1.43.4,2.15.21,1.36.27,2.73.27,4.1-.02,2.08-.35,4.17-1.01,6.17-.31.76-.54,1.55-.95,2.29-.32.78-.86,1.45-1.41,2.1-.28.25-.54.52-.83.76-.27.23-.51.4-.76.47-.23.09-.43.14-.61.16-.17.02-.32,0-.46-.04-.15-.06-.28-.14-.4-.24-.11-.09-.23-.15-.31-.23-.22-.21-.06-1.01.5-1.58.21-.22.37-.49.55-.72.17-.25.38-.44.51-.72.26-.54.61-.97.85-1.52.31-.49.47-1.08.72-1.63.1-.29.17-.59.26-.89.1-.29.17-.6.22-.91.38-1.84.48-3.83.3-5.81h.07Z"/><path class="cls-1" d="m278.25,273.14c-.47-.67-.98-1.32-1.54-1.94l-.21-.23-.1-.11s-.01-.02-.02-.03l-.08-.11c-.06-.08-.14-.16-.23-.25-.11-.1-.32-.24-.29-.04-.03.09-.06.21-.08.36-.01.06-.02.16-.02.31v.2c0,.06.01.25.02.36.08,1.07.21,2.15.44,3.21.2.94.54,1.86.93,2.73.53,1.11,1.01,2.22,1.3,3.51.1.4-.05.43-.46.29-.21-.07-.5-.18-.83-.33-.16-.08-.34-.16-.51-.27-.09-.05-.16-.11-.27-.16-.06-.07-.13-.14-.18-.22-.2-.28-.41-.56-.6-.85l-.28-.44c-.08-.15-.14-.31-.21-.47-.27-.63-.51-1.28-.71-1.94-.4-1.32-.65-2.68-.73-4.06l-.07-1.32c-.03-.61-.09-1.2-.08-1.87-.05-.69.04-1.21.11-1.76,0-.07.01-.14.03-.2l.07-.1.14-.21.15-.2s.04-.07.08-.1c.06-.03.1-.03.15-.03.38-.03.82.05,1.36.36.53.31,1.09.76,1.62,1.2l.81.66.51.47c.33.31.65.64.97.97.77.81,1.49,1.69,2.15,2.6,1.02,1.38,1.77,2.95,2.4,4.55.48,1.25.98,2.52,1.14,3.92.02.31.05.61.03.92-.03.29-.06.52-.12.72-.07.19-.21.34-.31.45-.22.23-.46.33-.75.4-.13.03-.26.07-.37.08-.36.03-.66-.47-1.03-1.17-.12-.51-.27-1-.43-1.47-.11-.48-.23-.95-.37-1.42-.28-.94-.64-1.89-1.1-2.82-.71-1.36-1.47-2.79-2.46-4.1l.05-.05Z"/><path class="cls-1" d="m274.55,287.65l-.13.06c-.06.04-.18.09-.24.16-.05.08-.04.12-.03.15.02.07.09.11.2.13.1.01.28-.08.39-.07.1,0,.23,0,.39,0,.43-.08.95-.18,1.41-.29.96-.22,1.91-.49,2.84-.82.82-.3,1.61-.69,2.34-1.12.95-.56,1.86-1.14,2.71-1.77.26-.19.48,0,.54.45.06.45-.1,1.2-.6,1.74-.45.47-.92.9-1.42,1.27-.52.35-1.05.66-1.59.95-1.09.57-2.22,1.02-3.4,1.34-.72.19-1.37.43-2.14.69-1.14.38-2.38.73-3.46.86-.57.05-1.12.09-1.58.06-.46-.03-.83-.12-1.17-.23-.32-.13-.63-.25-.9-.49-.13-.11-.28-.28-.35-.51-.07-.27-.02-.35.04-.53.04-.12.09-.24.15-.36.21-.34.44-.68.72-1.03.09-.17.35-.36.58-.54l.66-.53c.37-.32.76-.63,1.2-.93.4-.31.87-.58,1.32-.85.22-.12.47-.3.64-.38l.5-.27c.33-.19.68-.35,1.01-.53,1.05-.51,2.04-1.2,3.17-1.58.25-.09.48-.2.73-.27.94-.24,1.31-.04,1.63.56.08.14.16.27.22.41.18.47-.1.98-.66,1.37-1.67,1.12-3.44,1.79-5.15,2.71-.23.12-.15.08-.17.08h0s-.02,0-.04,0c-.04,0-.12.02-.2.06l-.17.04Z"/><path class="cls-1" d="m232.13,310.94l8.5,12.48c1.04,1.52,2.15,2.98,3.17,4.5,3.59,5.39,7.1,10.82,10.63,16.24,1.58,2.4,3.22,4.77,4.83,7.12,1.03,1.51,2.12,2.99,3.11,4.53.48.78.95,1.57,1.4,2.37l.67,1.2c.21.41.38.85.57,1.27.43,1.08.04,1.16-1,.7-1.09-.43-2.77-1.44-4.09-3.08l-.87-1.09-.81-1.14-1.61-2.28c-1.06-1.53-2.16-3.04-3.17-4.6-2.05-3.12-4.05-6.28-6.01-9.49-2.33-3.85-5.18-7.57-7.79-11.35l-8.65-12.47c-1.79-2.54-3.59-5.09-5.38-7.63-2.74-3.83-5.48-7.7-8.3-11.43-2.2-2.9-4.54-5.6-6.82-8.38-.5-.61-1.02-1.19-1.51-1.82-1.79-2.36-2.02-3.36-1.68-4.42.07-.23.1-.49.18-.66.14-.28.47-.24,1.07-.02.61.21,1.31.75,2.1,1.51,4.49,4.68,8.61,10.07,12.7,15.53,3,4.08,5.92,8.24,8.86,12.39l-.07.06Z"/><path class="cls-1" d="m218.31,268.22l10.34,14.64c1.24,1.79,2.57,3.52,3.8,5.32,4.33,6.34,8.63,12.71,12.78,19.18,1.87,2.85,3.75,5.72,5.61,8.55,1.16,1.84,2.36,3.67,3.45,5.57,1.15,1.86,1.92,3.96,2.6,6.07.42,1.31.29,1.15-.5.25-.39-.44-.97-1.06-1.68-1.77-.36-.37-.74-.75-1.15-1.16-.21-.21-.39-.43-.62-.64-.16-.25-.33-.5-.5-.75-2.42-3.67-4.85-7.33-7.28-11-2.46-3.67-4.92-7.35-7.32-11.11-2.87-4.49-6.23-8.92-9.42-13.34-3.49-4.88-7-9.75-10.55-14.59-2.19-2.97-4.39-5.95-6.58-8.91-3.35-4.48-6.71-8.99-10.18-13.32-2.71-3.36-5.53-6.52-8.35-9.71-.62-.7-1.25-1.37-1.86-2.09-1.11-1.35-1.8-2.27-2.18-3.02-.35-.77-.43-1.31-.36-1.86.03-.25.02-.54.08-.73.11-.32.49-.28,1.11.03.61.32,1.5.89,2.42,1.8,1.43,1.31,2.73,2.75,4.05,4.21,1.32,1.45,2.62,2.95,3.9,4.48,2.58,3.05,5.08,6.22,7.58,9.41,3.68,4.76,7.31,9.59,10.86,14.46l-.06.06Z"/><path class="cls-1" d="m194.86,204.43c-1.73.24-3.48.34-5.22.41-.63.04-1.26.18-1.89.17-1.12,0-2.25-.09-3.36-.16-1.12-.14-2.23-.28-3.34-.46-.49-.07-.98-.11-1.47-.16-.49-.07-.98-.14-1.46-.2-1.25-.11-2.47-.58-3.59-1.27-.35-.22-.22-.55.19-.96.41-.39,1.11-1.02,1.81-1.2l.92-.25c.3-.08.59-.07.89-.1.59-.03,1.18-.17,1.76-.1,1.16.09,2.32.23,3.52.44,1.43.29,2.92.01,4.39-.06,1.62-.08,3.25-.2,4.88-.38,1-.11,2.01-.22,3.01-.41,1.51-.26,3.02-.6,4.48-1.03,1.12-.39,2.14-.97,3.22-1.42.24-.1.46-.22.7-.32.91-.29,1.34-.06,1.83.53.11.14.24.27.33.41.31.47.14,1.09-.4,1.73-.4.47-.87.81-1.33,1.19-.47.36-.95.73-1.45,1.03-1.03.57-2.1,1.1-3.23,1.47-1.68.52-3.41.88-5.15,1.2l-.03-.11Z"/><path class="cls-1" d="m202.42,182.96l-4.33-4.73c-.53-.57-1.13-1.07-1.66-1.65-1.88-2.01-3.6-4.18-5.47-6.19-.81-.92-1.66-1.8-2.51-2.66-.54-.56-1.12-1.08-1.62-1.67-.5-.6-.97-1.24-1.43-1.88-.28-.41-.14-.46.32-.35.45.12,1.31.31,2.12.76,2.66,1.8,5.14,3.78,7.25,6.21.64.72,1.35,1.38,2.08,2.04.71.67,1.45,1.33,2.14,2.02l4.54,4.59,2.77,2.85c1.41,1.43,2.79,2.9,4.25,4.24,1.15,1.03,2.39,1.92,3.55,2.92.26.22.53.41.78.64.85.94.96,1.4.68,2.09-.07.16-.11.33-.19.46-.27.46-.96.44-1.83.02-.66-.29-1.25-.68-1.84-1.07s-1.18-.8-1.75-1.23c-1.11-.9-2.18-1.86-3.25-2.84-1.57-1.46-3.11-2.98-4.64-4.5l.06-.07Z"/><path class="cls-1" d="m72.65,203.02c-1.96-.56-3.91-1.13-5.84-1.79-1.94-.6-3.84-1.34-5.75-2.02-1.39-.5-2.79-.97-4.16-1.52-4.79-2.05-9.45-4.37-13.96-6.91-1.99-1.15-4.05-2.17-6.05-3.26-1.26-.74-2.55-1.43-3.79-2.21l-.92-.6-.87-.68c-.58-.46-1.14-.93-1.7-1.41-.69-.61-.36-.91.59-1.01.48-.05,1.12-.06,1.85-.01.36.02.75.07,1.15.14.2.03.39.09.6.12.18.08.38.15.56.24,1.32.64,2.68,1.21,4,1.84,1.31.66,2.59,1.35,3.88,2.02,1.29.69,2.57,1.39,3.87,2.06,1.29.7,2.57,1.4,3.87,2.11,1.54.85,3.17,1.63,4.85,2.27l2.52.99c.85.3,1.7.61,2.54.93,3.69,1.42,7.45,2.66,11.26,3.75l3.53.95,3.57.82c1.8.41,3.64.72,5.45,1.07,1.83.29,3.66.58,5.49.77,1.43.13,2.84.19,4.26.23,1.42,0,2.83-.03,4.24.01.62.04,1.23,0,1.86.05,1.16.06,1.92.21,2.45.5.53.27.82.63,1.05,1.15.1.24.25.47.3.69.2.74-.79,1.37-2.55,1.72-1.3.17-2.62.35-3.95.42-1.33.02-2.67.02-4.02-.03-2.7-.14-5.44-.39-8.17-.79-2.03-.24-4.04-.71-6.06-1.08-2-.47-4.02-.89-6-1.43l.02-.11Z"/><path class="cls-1" d="m78.47,230.86c-3.4,1.66-6.82,3.26-10.24,4.88-1.24.59-2.45,1.27-3.7,1.85l-13.28,6.01c-1.96.89-3.89,1.87-5.82,2.79-1.24.59-2.45,1.25-3.72,1.78-.64.26-1.29.5-1.94.73-.65.24-1.34.38-2.01.57-.85.2-.84-.04-.37-.73.23-.35.58-.82,1-1.38.44-.52.99-1.05,1.65-1.5,4.79-2.93,9.89-5.21,15.1-7.39,3.12-1.29,6.18-3.03,9.26-4.57l10.18-5.08c2.09-1.05,4.17-2.09,6.24-3.18,3.13-1.64,6.29-3.26,9.33-5.01,2.36-1.37,4.55-2.92,6.8-4.41.5-.33.96-.68,1.47-1,.47-.29.87-.52,1.22-.69.35-.16.67-.23.95-.27.28-.03.52-.02.75.04.24.09.48.22.69.35.2.13.41.21.55.32.4.26.14,1.61-1.15,2.65-3.86,3-8.28,5.57-12.78,8.02-3.34,1.82-6.76,3.54-10.16,5.28l-.05-.08Z"/><path class="cls-1" d="m150.6,290.48l-.26,6.64c-.11,2.24-.22,4.49-.63,6.87-.25,1.2-.44,2.43-1.39,3.9-.2.36-.64.74-1,1.05-.41.26-.75.48-1.17.62-.81.33-1.6.39-2.33.4-1.45-.04-2.66-.39-3.8-.77-1.14-.39-2.2-.84-3.23-1.31-3-1.35-5.87-2.75-8.72-3.7-2.5-.83-5.07-1.13-6.83,0-.89.59-1.82,1.52-2.56,2.57-.78,1.02-1.42,2.21-2.03,3.41-2.35,4.9-3.72,10.41-4.77,15.91-.91,4.91-1.45,9.92-1.76,14.88-.23,3.18-.34,6.38-.42,9.58l-.05,2.39-.14,2.39-.13,2.39c-.07.8-.04,1.59-.15,2.39-.4,2-.32,1.77-1.14.12-.43-.83-.81-2.03-1.23-3.5-.2-.73-.37-1.53-.52-2.39-.07-.43-.14-.87-.21-1.31-.02-.45-.05-.91-.05-1.38-.01-3.33.08-6.65.26-9.97.21-3.32.58-6.63,1.03-9.93.96-6.6,2.28-13.22,4.81-19.62.78-1.91,1.66-3.81,2.78-5.66,1.14-1.84,2.47-3.63,4.54-5.04,1.08-.68,2.33-1.07,3.54-1.2,1.21-.13,2.39-.04,3.5.16,2.21.43,4.21,1.18,6.11,2,2.09.9,4.09,1.9,6.08,2.76.99.43,1.98.82,2.95,1.11.96.28,1.93.45,2.68.36.36-.07.69-.16.92-.33.17-.14.35-.3.51-.73.34-.77.54-1.82.68-2.85.26-2.11.35-4.31.42-6.52.15-5.45.17-10.99.86-16.53.26-2.1.63-4.2,1.19-6.27.56-2.07,1.31-4.14,2.5-6.03.31-.47.59-.94.97-1.37.18-.22.35-.44.54-.65l.61-.6c.82-.8,1.86-1.48,2.94-1.88,2.17-.82,4.44-.9,6.58-.7,3.34.32,6.5,1.22,9.54,2.31,3.04,1.12,5.97,2.46,8.8,4.03,1.25.68,2.46,1.38,3.67,2.16,2.23,1.47,3.6,2.59,4.45,3.52.83.95,1.16,1.65,1.28,2.36.05.32.17.69.15.93-.04.4-.54.34-1.4-.08-.87-.41-2.14-1.13-3.67-2.17-4.59-3.02-9.64-5.71-14.93-7.66-2.64-.97-5.37-1.71-8.02-1.99-2.64-.28-5.23.08-6.7,1.39-1.25,1.11-2.24,2.75-2.97,4.58-.72,1.85-1.2,3.89-1.55,5.97-.69,4.19-.87,8.57-1.03,12.99h-.09Z"/><path class="cls-1" d="m67.2,306.63l9.94,21.27,3.71,7.71c4.24,9.11,8.49,18.22,12.89,27.25,1.94,4.01,4.04,7.97,6.11,11.88l2.05,3.74,1.96,3.79c.67,1.26,1.31,2.53,1.91,3.82.6,1.29,1.24,2.56,1.78,3.89.51,1.74.36,1.56-.85.51-.62-.52-1.36-1.32-2.24-2.31-.43-.5-.89-1.05-1.35-1.64-.23-.3-.46-.61-.7-.93-.21-.33-.43-.67-.65-1.02-3.08-4.95-5.67-10.17-8.33-15.36-2.62-5.21-5.17-10.46-7.56-15.82-2.89-6.39-6.2-12.89-9.27-19.37-3.35-7.13-6.71-14.26-10.07-21.39-2.07-4.38-4.15-8.77-6.26-13.12-3.2-6.6-6.44-13.22-9.83-19.67-1.33-2.5-2.69-4.95-4.06-7.38-1.4-2.42-2.79-4.83-4.19-7.25-.63-1.06-1.24-2.1-1.87-3.17-1.17-1.98-1.8-3.37-2.17-4.38-.33-1.04-.4-1.7-.32-2.32.04-.28.03-.62.1-.81.12-.32.5-.13,1.13.48.63.61,1.53,1.61,2.45,3.03,5.48,8.44,10.48,17.79,15.3,27.25,3.58,7.03,7.02,14.17,10.44,21.29l-.07.04Z"/><path class="cls-1" d="m179.18,244.81c1.94,5.17,3.94,10.33,5.97,15.47l2.31,5.59,7.78,19.88c1.16,2.94,2.41,5.86,3.64,8.74.78,1.85,1.64,3.68,2.37,5.56.37.94.73,1.88,1.08,2.83l.5,1.43c.15.48.25.99.36,1.49.2,1.27-.03,1.19-.94.41-.98-.74-2.35-2.29-3.33-4.39-.89-1.85-1.7-3.74-2.5-5.63-.79-1.9-1.58-3.79-2.38-5.69-1.56-3.81-3.09-7.64-4.53-11.53-1.74-4.64-3.87-9.35-5.77-14.05-2.09-5.17-4.13-10.37-6.15-15.57-1.23-3.21-2.45-6.42-3.68-9.63-1.81-4.88-3.64-9.78-5.44-14.62-.69-1.88-1.43-3.73-2.17-5.58-.69-1.86-1.39-3.71-2.08-5.57-.3-.82-.62-1.62-.89-2.46-.98-3.12-1.01-4.21-.63-5.07.09-.2.16-.44.27-.57.35-.44,1.17.69,2.21,2.86,1.45,3.24,2.83,6.6,4.21,10.01,1.29,3.44,2.6,6.94,3.92,10.43,1.95,5.2,3.89,10.43,5.93,15.62l-.07.04Z"/><path class="cls-1" d="m83.96,304.39c6.22,12.64,12.08,25.44,17.9,38.22,2.14,4.65,4.33,9.3,6.63,13.76.51.96,1.05,1.96,1.59,2.76.09.13.16.26.3.33.15,0,.26-.07.45-.14l1.31-.75,1.37-.9,2.75-1.92c3.68-2.62,7.45-5.19,11.29-7.61,7.67-4.87,15.61-9.27,23.64-13.45,3.58-1.83,7.15-3.69,10.77-5.44,1.8-.89,3.6-1.78,5.4-2.67,1.81-.86,3.62-1.71,5.42-2.56,4.61-2.23,9.3-4.29,13.99-6.37,2.34-1.04,4.7-2.06,7.09-2.97l3.6-1.35c1.2-.43,2.43-.83,3.65-1.21,3.08-.88,2.68-.74.39.77-1.15.75-2.74,1.89-4.76,3.05-1.01.59-2.09,1.24-3.28,1.85-1.19.6-2.48,1.19-3.8,1.81l-7.09,3.26-3.55,1.62-3.52,1.68-7.07,3.3-7.01,3.42c-9.33,4.61-18.57,9.45-27.57,14.77-5.39,3.18-10.68,6.73-15.88,10.52-1.31.95-2.63,1.9-4.03,2.83-.33.24-.75.45-1.12.67l-.58.34c-.21.15-.59.21-.88.31l-.93.28-.47.14c-.07-.06-.16-.01-.24-.03-.08-.02-.15-.05-.23-.07-.6-.19-1.07-.68-1.49-1.2-.49-.6-.66-.92-.9-1.28-.23-.37-.45-.73-.65-1.09-.42-.73-.81-1.45-1.18-2.18-.76-1.45-1.47-2.91-2.17-4.37-6.07-12.84-11.8-25.74-17.98-38.46-3.78-7.84-7.66-15.63-11.69-23.33-2.96-5.66-6-11.3-9.11-16.88-1.56-2.79-3.14-5.57-4.74-8.32l-2.42-4.12c-.9-1.5-1.8-3-2.7-4.49-.11-.24-.21-.48-.31-.71-.06-.22-.12-.42-.15-.65.28-.73,1.04-1.14,1.86-1.57.91-.45,1.39-.67,1.98-.95,1.15-.54,2.29-1.07,3.43-1.6,2.28-1.07,4.52-2.18,6.75-3.32,4.46-2.28,8.82-4.69,13.17-7.18,1.9-1.12,3.76-2.22,5.67-3.36,3.53-2.12,5.94-3.4,7.66-4.24,1.76-.79,2.84-1.13,3.79-1.29.43-.07.97-.23,1.24-.23.47,0,.04.53-1.09,1.56-1.14,1.02-2.97,2.56-5.51,4.24-5.83,3.89-12.04,7.48-18.45,10.92-3.21,1.71-6.49,3.36-9.81,4.94-1.67.77-3.33,1.55-5.01,2.33l-1.24.57-.37.17h0s-.01.02,0,.03c.9,1.5,1.8,3.01,2.71,4.53,1.08,1.85,2.16,3.7,3.24,5.56,7.08,12.31,13.7,24.93,20.02,37.66l-.06.05Z"/><path class="cls-1" d="m129.7,173.7c-.5-.12-1-.24-1.5-.35-.18-.04-.37-.02-.55-.07-.64-.16-1.27-.34-1.9-.53-.28-.08-.56-.11-.84-.15-.36-.06-.72-.17-1.06-.36-.11-.06-.08-.18.03-.33.11-.14.31-.38.53-.47.19-.06.38-.14.57-.19.18-.01.37-.02.55-.02.37,0,.73.03,1.09.12.43.15.89.07,1.34.11.49.05.99.09,1.48.14.3.03.61.06.91.08.46.03.92.07,1.38.04.36-.03.7-.21,1.05-.32.08-.02.15-.06.23-.07.29-.02.38.14.46.73l.05.4c.04.45-.07.84-.28,1-.63.52-1.32.5-2.01.5-.51-.04-1.02-.14-1.53-.22v-.05Z"/><path class="cls-1" d="m130.79,177.49c-.48-.12-.97-.23-1.47-.32-.18-.03-.37,0-.55-.03-.65-.15-1.31-.38-1.96-.54-.29-.09-.59-.07-.87-.12-.37-.05-.76-.06-1.09-.35-.1-.09-.03-.44.12-.8.15-.36.38-.78.58-.83.73-.26,1.39-.18,2.11.09.43.17.88.03,1.33.07.5.04,1,.11,1.51.17.32.04.63.08.95.12.48.05.96.14,1.45.15.38.02.77-.1,1.16-.13.09,0,.18-.04.26-.03.31.1.37.32.31.92l-.04.41c-.07.45-.26.81-.49,1-.35.28-.65.34-.96.44-.31.07-.61.13-.92.08-.46-.05-.92-.15-1.41-.21v-.07Z"/><path class="cls-1" d="m131.29,182.63c-.41-.12-.84-.24-1.28-.31-.16-.03-.31,0-.48-.03-.57-.12-1.15-.24-1.73-.33-.26-.04-.51-.01-.76-.04-.32,0-.66,0-.98-.19-.1-.06-.08-.3,0-.57.09-.27.24-.6.41-.67.31-.11.61-.28.92-.29.31-.01.63,0,.95.08.39.09.78-.06,1.18-.09.44-.03.89-.03,1.35-.02.28,0,.56.02.84.04.43.03.86.11,1.29.09.34,0,.69-.17,1.05-.23.08,0,.16-.03.23-.02.28.05.34.26.26.9l-.06.44c-.08.49-.27.88-.46,1.04-.15.11-.28.21-.42.3-.13.05-.26.08-.38.1-.25.04-.5.03-.76.01-.38-.04-.78-.08-1.19-.16v-.06Z"/><path class="cls-1" d="m132.86,187.34c-.43-.16-.87-.31-1.33-.42-.16-.04-.33,0-.5-.05-.6-.18-1.2-.33-1.81-.52-.27-.07-.54-.09-.81-.1-.35,0-.7-.07-1.02-.31-.1-.08-.06-.35.05-.65.11-.3.3-.69.49-.78.34-.19.67-.23,1-.25.33-.01.67-.02,1.01.12.41.16.84.02,1.27.03.47.02.95.07,1.44.12.3.03.6.08.89.13.45.06.9.19,1.36.2.36.01.74-.11,1.11-.1.08.02.16.02.23.06.27.16.31.39.22.95l-.06.38c-.09.41-.29.74-.53.94-.19.16-.35.29-.51.42-.15.07-.29.11-.43.15-.29.1-.54.03-.82,0-.4-.06-.82-.16-1.25-.25v-.07Z"/><path class="cls-1" d="m132.31,192.14c-.38-.13-.78-.26-1.18-.37-.15-.04-.3-.02-.44-.07-.51-.17-1.05-.35-1.55-.52-.23-.09-.46-.15-.69-.2-.29-.06-.6-.12-.85-.35-.08-.07,0-.29.13-.52.14-.22.34-.48.5-.5.58-.07,1.12-.19,1.66.11.33.15.69.06,1.05.09.39.03.79.08,1.19.13.25.03.5.07.75.1.38.05.76.14,1.15.15.3.02.62-.16.93-.15.07,0,.14-.02.21,0,.25.05.3.22.24.76l-.04.37c-.06.41-.23.74-.41.87-.55.45-1.01.41-1.51.37-.37-.05-.75-.1-1.13-.19v-.06Z"/><path class="cls-1" d="m132.23,197.1c-.39-.15-.78-.36-1.19-.5-.15-.06-.31-.04-.46-.1-.53-.24-1.07-.44-1.6-.71-.23-.11-.48-.16-.72-.22-.31-.06-.64-.09-.9-.36-.08-.08.02-.4.19-.72.17-.32.4-.66.57-.68.61-.04,1.2-.11,1.77.21.34.2.74.11,1.12.17.42.07.84.15,1.27.25.26.07.53.13.79.2.4.09.8.23,1.21.26.32.02.68-.1,1.02-.09.07,0,.15,0,.22.03.25.11.28.32.13.95l-.1.42c-.13.46-.35.83-.57.99-.67.57-1.11.44-1.62.33-.37-.09-.74-.24-1.14-.35v-.07Z"/><path class="cls-1" d="m116.79,233.5c-.18,2.05-.37,4.09-.65,6.18l-.14.98c-.08.46-.15.95-.27,1.38-.12.44-.29.83-.53,1.11-.11.15-.24.26-.4.37-.17.12-.33.11-.5.17-.28.16-.78.02-1.21-.03-.45-.08-.92-.22-1.39-.31l-1.48-.3c-1.95-.36-3.95-.63-5.97-.88l-3.04-.37-.87-.11c-.4-.06-.89-.12-1.31-.21-.43-.1-.86-.2-1.1-.47l-.18-.19-.09-.1-.05-.05-.02-.03h0s-.13.08-.07.04h0c-.07-.18-.17-.32-.22-.5-.02-.37-.1-.73-.08-1.1l.08-1.11.04-.52.04-.34.07-.68c.36-3.32.68-6.62,1.1-9.91,1.46-11.6,3.17-23.16,4.67-34.76.32-2.57.71-5.14,1.08-7.71.38-2.57.69-5.14,1.02-7.69.23-1.8.47-3.6.7-5.41.12-.9.24-1.81.4-2.71l.24-1.37c.02-.19.13-.55.22-.87.08-.32.2-.66.39-.95.23-.18.45-.37.72-.51.25-.15.56-.31.71-.37.36-.18.73-.33,1.09-.48.73-.3,1.48-.54,2.23-.76.77-.21,1.55-.35,2.37-.41.4-.04.82-.04,1.24-.03.42.05.86,0,1.27.24.58.24.95.53,1.13.77.19.22.24.34.18.38-.11.1-.64-.21-1.49-.01-.84.2-1.9.59-3.14,1.27-.62.33-1.29.68-2,1.06-.35.19-.7.39-1.07.6-.17.1-.35.2-.53.3-.03.02,0,.02-.02.02h0l-1.22,8.87c-.46,3.32-.94,6.63-1.31,9.97-.34,3.34-.96,6.65-1.5,9.97-.54,3.33-1.08,6.66-1.62,10-1.28,8.03-2.2,16.46-3.22,24.71l-.53,4.39-.38,3.46c0,.06-.04.17.05.18.07.02.14.04.2.05l.45.07,2.23.28c1.54.2,3.09.4,4.64.64.77.12,1.55.25,2.33.39l1.16.22,1.06.23.49.12c.08.02.17.06.25.06.06-.06.07-.15.1-.23.09-.39.11-.46.24-1.4.74-5.52,1.12-11.17,1.48-16.77.56-8.5,1.1-17.06,1.43-25.51.13-3.29.2-6.54.24-9.79.07-3.25-.04-6.49.07-9.74.02-1.43.04-2.83.06-4.27.15-5.34.34-7,1.12-8.15.17-.27.32-.59.43-.81.07-.09-.03-.29.09-.26.15.05.26.21.35.3.18.23.34.59.49,1.09.31,1,.48,2.54.58,4.52.13,2.93.21,5.89.26,8.88.07,2.99-.16,6-.22,9.03-.19,6.07-.49,12.21-.84,18.37-.26,4.57-.56,9.15-.9,13.74-.33,4.58-.78,9.16-1.17,13.76h-.07Z"/><path class="cls-1" d="m133.72,184.56c-.04-2.14-.15-4.29-.3-6.43-.05-.78-.19-1.55-.25-2.34-.09-1.38-.21-2.76-.35-4.12l-.12-1.01c-.01-.14-.01-.29-.05-.44-.1-.11-.24-.16-.38-.22l-.11-.04-.23-.07-.48-.13c-1.15-.28-2.37-.39-3.56-.5-1.55-.14-3.03.09-4.58-.5-.48-.13-.48-.21-.12-.64.18-.21.46-.53.81-.89.18-.18.38-.3.6-.43.11-.07.22-.11.34-.18.12-.02.24-.04.36-.05,1.72-.11,3.4-.13,5.08.15.42.07.84.15,1.26.25l.64.16.75.21c.73.22,1.43.51,1.83,1.07.18.29.24.66.34,1,.08.32.15.77.15.92.15,2.01.59,3.99.79,6,.23,2.2.36,4.4.45,6.6.05,1.36.09,2.71.12,4.07.06,2.05,0,4.12.02,6.17,0,1.59.14,3.16.09,4.78,0,.36-.04.7-.09,1.06-.22,1.32-.62,1.69-1.28,1.83-.15.03-.3.08-.44.09-.23.01-.42-.13-.58-.4-.16-.26-.33-.65-.35-1.1-.19-1.37-.23-2.73-.23-4.13-.01-1.41-.03-2.83-.04-4.26-.04-2.13-.06-4.29-.18-6.45h.07Z"/><path class="cls-1" d="m87.06,267.27c-.95,1.48-1.56,3.19-1.64,5-.08,1.82.2,3.69.96,5.37.56,1.23,1.39,2.32,2.31,3.3.82.86,1.74,1.64,2.81,2.17.54.26,1.04.6,1.63.75.57.19,1.13.42,1.73.48,2.37.46,4.92.13,7.2-.88,2.02-.9,3.79-2.41,4.98-4.22.22-.27.38-.58.53-.9l.46-.93.32-.98c.11-.32.23-.64.26-.99l.19-1c.08-.33.04-.68.08-1.01,0-.34.08-.68.06-1.02-.02-.34-.04-.69-.04-1.04,0-.86.8-1,1.71-.3.43.35.99.93,1.28,1.71.26.78.52,1.78.27,2.82-.26,1.86-1.08,3.57-2.01,5.14l-.82,1.1-.42.54-.48.48-.97.95c-.35.29-.71.55-1.07.82-2.88,2.16-6.55,3.19-10.1,2.91-4.22-.32-8.54-2.37-11.09-5.86-2.83-3.79-3.7-8.91-2.14-13.34.93-2.75,2.85-5.04,5.13-6.67,3.51-2.43,7.94-3.36,12.09-2.55,3.21.6,6.28,2.31,8.34,4.97.41.6.9,1.16,1.21,1.82,1.25,2.45,1.1,3.41.44,4.13-.16.17-.3.37-.48.48-.29.19-.64.06-.98-.29-.35-.35-.68-.94-1.08-1.67-.25-.56-.63-1.05-.93-1.57-.38-.47-.69-.98-1.12-1.39-.78-.88-1.68-1.63-2.7-2.19-2.01-1.14-4.43-1.65-6.84-1.37-1.8.16-3.56.77-5.14,1.64-1.55.91-2.93,2.14-3.86,3.64l-.07-.04Z"/><path class="cls-1" d="m216.8,214.12l-6.12,3.7c-.74.45-1.43.98-2.17,1.43-2.62,1.57-5.23,3.17-7.83,4.77-1.16.71-2.26,1.51-3.34,2.29-.69.51-1.41,1-2.13,1.48-.37.23-.71.49-1.11.68-.4.18-.8.37-1.2.56-.51.22-.53.08-.33-.41.13-.33.27-.68.41-1.02.09-.2.18-.44.31-.65.14-.2.29-.39.47-.57.64-.62,1.28-1.25,1.95-1.85.69-.56,1.39-1.1,2.1-1.64,1.42-1.07,2.89-2.08,4.46-2.94,1.86-1.06,3.6-2.44,5.41-3.66l6.01-3.94,3.69-2.43c1.85-1.23,3.73-2.45,5.49-3.79,1.36-1.04,2.57-2.23,3.82-3.38.27-.25.53-.52.81-.77,1.09-.86,1.58-.94,2.35-.47.17.11.36.2.51.32.51.42.4,1.2-.26,2.03-2.01,2.43-4.61,4.38-7.24,6.28-1.97,1.38-3.97,2.73-6.01,4.01l-.05-.06Z"/><path class="cls-1" d="m263.81,180.22c1.5-.83,3.02-1.64,4.57-2.41.56-.29,1.08-.64,1.65-.91,2.02-.93,4.07-1.82,6.15-2.58.93-.34,1.83-.73,2.72-1.12.57-.26,1.17-.46,1.77-.63.6-.19,1.27-.18,1.91-.24.41-.01.41.17.21.57-.1.2-.25.47-.43.78-.09.15-.19.31-.3.46-.05.08-.12.14-.17.23l-.21.16-.78.54-.39.27-.42.2-1.67.79c-.56.25-1.12.5-1.69.75-.58.21-1.17.42-1.76.64-1.43.48-2.72,1.38-4.07,2.11l-4.44,2.48c-.91.51-1.83,1.04-2.73,1.57-1.36.82-2.76,1.61-4.07,2.51-1.02.7-1.92,1.53-2.88,2.3-.21.17-.4.36-.63.52-.45.23-.77.35-1.07.31-.33-.09-.58-.24-.84-.47-.12-.1-.25-.19-.34-.28-.16-.16-.19-.37-.17-.68.03-.3.08-.75.34-1.03.33-.49.75-.86,1.17-1.23.42-.37.86-.72,1.31-1.06.9-.68,1.85-1.31,2.81-1.94,1.43-.93,2.92-1.8,4.39-2.69l.04.07Z"/><path class="cls-1" d="m324.78,244.58l8.01,13.7,4.01,6.87,1.98,3.47.49.88.69,1.31c.25.52.51,1.05.57,1.54.04.25.04.47,0,.7-.02.06-.03.11-.07.16.06.09-.05.1-.07.15l-.24.26c-.23.25-.46.49-.68.74l-3.04,1.73-2.34,1.36-4.67,2.74c-11.71,6.84-23.15,14.14-34.17,22.06-4.88,3.53-9.67,7.23-14.27,11.03-2.94,2.46-5.88,4.94-8.79,7.45-2.9,2.53-5.81,5.02-8.86,7.38-1.91,1.47-1.79,1.13-.62-.59,1.17-1.71,3.23-5.01,6.53-8.03,5.73-5.45,11.85-10.48,18.14-15.28,6.28-4.82,12.79-9.36,19.49-13.64,8.01-5.14,16.31-10.52,24.72-15.41.93-.55,1.86-1.08,2.8-1.61l2.23-1.26c.14-.09.45-.15.29-.36-.07-.17-.16-.34-.25-.51l-.72-1.31-.78-1.38-3.21-5.5-6.5-10.99c-3.32-5.66-6.65-11.33-9.97-16.98-5.01-8.59-9.91-17.29-14.73-25.92-3.74-6.71-7.5-13.24-11.01-19.99-.77-1.49-1.55-2.94-2.29-4.46-2.67-5.68-3.19-7.66-2.85-9.25.07-.36.1-.81.22-1.05.36-.79,1.92,1.3,3.99,5.34,6.2,11.95,13.02,24.44,20.06,36.89,5.23,9.25,10.57,18.51,16,27.69l-.07.05Z"/><path class="cls-1" d="m258.93,263.45c2.07-.07,4.09-.98,5.23-2.37.29-.34.47-.7.6-1.04.15-.47.25-.99.28-1.46.06-.95-.13-1.8-.65-2.56-.75-1.12-2.2-1.91-3.75-2.52-1.41-.56-2.95-.93-4.53-1.22-.2-.04-.4-.06-.6-.09-.28-.03-.68-.08-1.03-.1-.7-.07-1.49-.09-1.98-.34-.26-.11-.46-.24-.62-.38-.08-.07-.16-.14-.23-.22-.11-.08-.05-.24-.04-.36l.24-1.53.42-.89.21-.45s.03-.06.05-.13l.05-.14.04-.13.36-1.02c.15-.34.16-.69.25-1.04.05-.35.19-.7.17-1.05.16-1.4-.12-2.79-.74-4-.58-1.08-1.47-2.01-2.58-2.57-1.1-.56-2.4-.72-3.55-.41-.36.11-.72.26-1.06.43-.29.24-.67.41-.91.69-.53.54-.97,1.28-1.34,2.04-.37.77-.67,1.59-.91,2.44-.12.42-.22.85-.29,1.28-.09.43-.19.87-.25,1.31-.14,1.1-.25,1.01-.65.04-.42-.96-.88-2.98-.24-5.27.31-1,.75-1.98,1.41-2.94.34-.47.78-.97,1.27-1.31l.74-.55.83-.4c2.29-1.04,4.95-.66,7,.54,2.11,1.17,3.57,3.35,4.05,5.62.54,2.28.15,4.55-.56,6.52l-.17.47-.08.23-.04.12s.01-.07,0-.04c-.03.07-.1.15-.14.23-.07.13-.17.27-.22.41.13.05.28.06.43.09.72.11,1.44.22,2.16.32,2.08.35,4.2.85,6.21,1.94,1.25.68,2.49,1.64,3.34,3.01.86,1.36,1.15,3.04,1,4.52-.04.37-.09.74-.17,1.1l-.13.53-.2.59c-.3.77-.73,1.44-1.24,2.01-1.01,1.16-2.29,1.94-3.64,2.47-1.61.62-3.32.84-4.98.73-.83-.07-1.65-.18-2.44-.38-.4-.07-.79-.21-1.18-.33l-.46-.15c-.09-.03-.18-.07-.27-.11l-.15-.06-.22-.09c-.06-.02-.16-.11-.2-.01-.08.13-.14.27-.21.41l-.51,1.18c-.49,1.11-1.02,2.21-1.61,3.3-1.2,2.12-2.65,4.3-5.04,5.64-.92.5-2,.8-3.08.81-1.08.02-2.11-.22-3.15-.72-1.04-.52-1.83-1.44-2.36-2.4-.56-.98-.76-2.02-.92-3.03-.1-.89-.17-1.76-.09-2.63.12-1.62.44-2.65.77-3.33.34-.68.76-1,1.27-1.16.23-.07.48-.18.67-.18.62.03.69,1.21.49,3.22-.13,1.48-.11,3.01.22,4.3.15.65.38,1.21.66,1.64.26.46.63.66,1,.88.24.06.41.18.72.23.28.06.55.08.81.08.52,0,1.01-.13,1.52-.38,1.01-.5,2.02-1.55,2.88-2.79.79-1.16,1.5-2.45,2.09-3.85.34-.78.45-1.07,1.18-2.87.31-.74.75-1.29,1.27-1.53.06-.03.14-.07.22-.1.08-.01.16,0,.24,0l.47.02.94.04c.47.18.84.35,1.38.53l.64.19c.4.14.81.19,1.21.28.4.1.81.09,1.21.15.4,0,.8.02,1.19,0v.08Z"/><path class="cls-1" d="m227.88,261.1c-.73-.96-1.34-2.08-1.56-3.34-.09-.3-.07-.62-.09-.93,0-.31-.05-.63,0-.93.11-.6.13-1.2.38-1.77.16-.42.27-.85.51-1.23.22-.38.41-.8.73-1.1,1.04-1.16,2.38-1.85,3.69-2.24,1.32-.4,2.65-.58,3.97-.53.58-.03,1.16.08,1.74.11.57.11,1.15.15,1.7.32.71.17,1.44.37,2.08.76.31.21.62.43.91.66.29.23.53.53.79.78.3.34.13.43-.33.45-.23,0-.53,0-.86-.01-.33-.01-.73.02-1.07-.06-2.45-.51-4.91-.75-7.34-.28-.38.04-.7.21-1.05.32-.34.14-.63.35-.94.53-.54.45-1.02.94-1.35,1.49-.44.58-.58,1.31-.71,2.06,0,.72.06,1.47.46,2.15.44.84,1.15,1.61,2.01,2.22,1.33.89,2.94,1.52,4.58,1.68,1.28.13,2.55-.1,3.68-.5.26-.07.48-.2.73-.27.93-.24,1.28-.16,1.82.38.12.12.26.23.36.35.34.39.14,1.01-.63,1.68-1.18.85-2.64,1.18-4.09,1.32-1.46.09-2.94-.09-4.37-.49-2.11-.61-4.17-1.71-5.78-3.55l.05-.05Z"/><path class="cls-1" d="m268.04,277.03c2.02.77,4.12,1.46,6.26,2.11.78.23,1.58.41,2.35.67,2.74.94,5.5,1.9,8.19,3.12,1.19.54,2.41,1.08,3.54,1.77.72.45,1.44.95,2.06,1.57.32.3.57.66.8,1.05.25.36.43.77.59,1.17.2.51-.02.52-.51.32-.25-.09-.54-.25-.91-.38-.39-.13-.73-.31-1.14-.49-2.45-1.59-5.36-2.75-8.41-3.96-1.82-.73-3.87-1.09-5.85-1.59-2.17-.58-4.34-1.23-6.51-1.94-1.34-.44-2.66-.93-3.98-1.45-2-.8-3.95-1.82-5.76-3.09-1.39-.99-2.79-2.1-3.78-3.64-.19-.35-.46-.66-.58-1.05-.6-1.4-.3-1.98.31-2.39.15-.1.28-.21.43-.27.25-.1.51-.04.78.12.28.17.56.44.76.8l.53.76.6.69c.4.45.81.88,1.28,1.27.93.79,2.01,1.5,3.18,2.19,1.76.99,3.73,1.84,5.78,2.56l-.02.07Z"/><path class="cls-1" d="m274.4,209.81c1.19-.68,2.53-.97,3.87-.83.67.06,1.34.25,1.95.55.31.16.61.34.84.52.25.18.5.36.72.59.67.6,1.24,1.27,1.66,2,1.38,2.6,1.58,5.18,2.43,7.38.1.24.19.49.31.7l.17.33.17.26c.26.34.62.65,1.02.89.51.32,1.07.58,1.64.77.28.09.55.25.84.34.29.09.59.27.93.33.42.09.44.13.14.53-.16.2-.41.49-.8.8-.39.27-.91.45-1.44.47-1.85-.21-3.52-1.07-4.7-2.88-.91-1.58-1.25-3.07-1.56-4.51-.36-1.71-1.05-3.31-1.93-4.47-.98-1.31-2.29-2-3.84-1.66-.92.21-1.75.71-2.23,1.59-.85,1.35-1.16,3.09-.96,4.78.16,1.32.67,2.55,1.25,3.71l.41.75c.24.47.38.79.37,1.09,0,.28-.09.51-.28.78-.09.12-.16.26-.26.36-.3.34-.94.18-1.6-.5-1.75-2.12-2.8-5.03-2.64-8.19.06-1.17.34-2.38.86-3.5.28-.57.53-1.07,1.01-1.68.46-.56,1.02-1.02,1.61-1.38l.04.06Z"/><path class="cls-1" d="m259.96,228.35c-.13-2.25.88-4.24,2.27-5.57.26-.24.5-.5.77-.73.28-.21.56-.43.86-.62,1.09-.58,2.26-1.02,3.48-1.08.6-.09,1.2,0,1.78.04.58.07,1.15.22,1.71.35.48.18.96.34,1.44.49.44.22.91.4,1.34.64.54.32,1.04.7,1.55,1.07.45.43.81.97,1.16,1.47.21.33,0,.46-.46.51-.45.04-1.22.09-1.83-.12-2.07-.85-3.76-1.68-5.76-1.87-1.2-.09-2.4.42-3.38,1.13-1.11.74-1.96,1.91-2.19,3.18-.14.78-.07,1.57.36,2.21.3.5.79.93,1.37,1.26.57.34,1.23.59,1.91.74,1.07.24,2.18.18,3.25.08.24-.01.47-.08.71-.09.44-.07.73.08.95.2.22.13.36.32.5.6.06.13.14.25.18.36.15.38-.19.84-.92,1.22-1.09.41-2.26.45-3.45.4-1.19-.07-2.43-.32-3.66-.84-.91-.4-1.84-.93-2.61-1.82-.78-.87-1.29-2.07-1.39-3.21h.07Z"/><path class="cls-1" d="m290.31,240.64c1.04-.14,2.23-.75,2.84-1.54.2-.31.33-.65.44-1.02.2-.64.23-1.43.03-2.25-.22-.8-.54-1.64-1.06-2.38-.44-.67-1-1.27-1.59-1.81l-1.23-.95c-.38-.37-.79-.72-1.2-1.08-.25-.24-.15-.39.23-.5.36-.09,1.1-.3,1.8-.09,2.31.91,4.26,2.83,5.06,5.36l.19.56.15.59c.12.38.19.79.24,1.21.13.83.06,1.74-.2,2.59-.36.91-.94,1.75-1.67,2.32l-.54.43c-.19.12-.39.22-.58.33l-.58.32c-.2.09-.42.16-.62.24-1.04.37-2.15.47-3.21.36-1.62-.17-3.09-.86-4.34-1.76-.25-.17-.49-.35-.73-.54-.25-.18-.48-.37-.7-.58-.22-.21-.43-.42-.62-.66-.2-.23-.39-.47-.55-.74-.14-.23-.32-.43-.41-.7-.09-.24-.16-.44-.19-.61-.03-.18.03-.35.06-.48.08-.27.22-.44.42-.6.09-.07.17-.15.26-.2.27-.16.72.1,1.25.5.62.65,1.22,1.21,1.88,1.68.59.53,1.23.99,1.93,1.33,1.03.51,2.17.75,3.23.57l.02.07Z"/><path class="cls-1" d="m284.64,257.14c.22,1.11.42,2.22.72,3.32l.43,1.65.51,1.63c.24.8.58,1.56.85,2.35.93,2.79,2.03,5.56,3.36,8.22.28.6.61,1.17.92,1.75.31.58.62,1.17.95,1.74.86,1.45,1.75,2.88,2.4,4.49.21.49.1.49-.32.22-.27-.18-.57-.37-.84-.55-.17-.12-.36-.25-.55-.39-.1-.07-.18-.15-.29-.22l-.24-.28c-1.08-1.38-2.14-2.79-3.1-4.27-.87-1.53-1.67-3.1-2.34-4.75-.82-1.95-1.84-3.92-2.63-5.94-.45-1.11-.77-2.27-1.15-3.4-.3-1.16-.66-2.3-.9-3.47l-.46-2.16-.36-2.18c-.2-1.1-.25-2.22-.39-3.32-.07-1.11-.13-2.22-.2-3.33-.01-.86-.06-1.71-.13-2.57-.02-.85.03-1.71.06-2.57,0-.38.02-.75.09-1.13.1-.7.24-1.15.45-1.45.2-.3.42-.45.71-.54.13-.04.26-.11.39-.13.39-.06.69.56.84,1.57,0,1.47.2,2.96.2,4.45.03.75.05,1.49.06,2.24.02.75.1,1.5.13,2.26.04,1.12.23,2.24.33,3.37.19,1.12.33,2.25.58,3.36l-.06.02Z"/><path class="cls-1" d="m283.37,228.19c.22.92.13,1.83-.15,2.62-.11.29-.16.6-.35.88-.32.48-.79.92-1.37,1.15-.28.12-.58.18-.95.19-.35-.01-.65-.13-.91-.27-.44-.26-.77-.57-1.03-.96-.16-.25-.3-.55-.29-.91-.09-.33.13-.68.38-.87.18-.13.42.13.71.39.27.27.65.4.67.37.04-.06.18,0,.27.03.02,0,.04.01.05,0,0,0,0,0,0,0l-.03.11c-.01.08-.02.12-.01.17,0,.02,0,0,0,.01h0s0,0,0,0h0c.06.17-.08-.23-.06-.19h0s0,0,0,0h0s.02.01.02.01c.19.1.28-.16.38-.42.13-.29.2-.7.16-1.05-.03-.22-.1-.46-.21-.63-.08-.13-.17-.23-.25-.29-.04-.03-.08-.05-.12-.05-.05-.15-.01.03-.01.02,0,.01-.02.09,0,.17-.01.08.2.17-.08.06-.09-.02-.17-.04-.25-.03-.12,0-.14.04-.12.02,0,0,0,0,.02-.02-.01.01.06-.05-.03.03-.05.06-.11.12-.18.19-.11.13-.21.27-.31.4-.17.23-.35.42-.61.47-.25.06-.58-.05-.81-.38-.34-.49-.42-1.09-.36-1.58.06-.5.26-.93.56-1.31.3-.38.72-.72,1.31-.92.3-.1.63-.13.97-.12.31.02.52.07.77.15.71.23,1.25.69,1.59,1.14.35.46.55.92.69,1.37l-.06.03Z"/><path class="cls-1" d="m255.93,289.41c-.98.69-1.82,1.57-2.62,2.49-.28.35-.46.76-.73,1.12-.91,1.28-1.72,2.7-2.27,4.25-.2.7-.39,1.41-.44,2.13-.02.46-.11.92-.18,1.38-.04.23-.05.46-.14.69-.1.23-.2.45-.3.69-.15.29-.37.25-.72,0-.17-.13-.39-.32-.61-.56-.11-.12-.23-.25-.31-.39-.07-.14-.11-.28-.13-.43-.15-1.06-.03-2.12.24-3.15.22-1.03.62-2.04,1.12-2.98.32-.56.54-1.16.84-1.74l.42-.88c.15-.29.34-.56.51-.83.77-1.2,1.77-2.25,2.8-3.22.67-.57,1.34-1.12,2.06-1.6,1.08-.75,2.26-1.34,3.43-1.88.47-.19.91-.4,1.36-.63.46-.2.92-.38,1.4-.55.21-.08.41-.16.63-.19.82-.11,1.13.11,1.37.56.06.11.12.21.16.31.13.35-.13.75-.6,1.12-.72.47-1.44.87-2.16,1.24-.35.21-.7.41-1.06.59-.34.21-.68.43-1.05.59-.53.26-1.03.58-1.55.88-.48.35-1.01.64-1.44,1.05l-.05-.05Z"/><path class="cls-1" d="m313.3,256.59c-.4.56-.79,1.12-1.24,1.62-.43.52-.89,1-1.37,1.47-.33.35-.64.72-1.01,1.03-1.35,1.05-2.81,1.9-4.3,2.6-.64.35-1.31.65-1.97.94-.44.16-.85.37-1.31.46-.46.09-.94.13-1.4.15-.29,0-.31-.18-.17-.51.15-.32.4-.87.79-1.21.33-.33.68-.58,1.04-.81.36-.22.67-.54,1.05-.72.73-.4,1.47-.8,2.23-1.22.94-.46,1.6-1.34,2.35-2.04.43-.39.79-.83,1.19-1.24.34-.45.75-.88,1.06-1.36l.59-.88.5-.94c.25-.47.42-.99.63-1.48.16-.51.29-1.03.4-1.55.05-.41.05-.82.05-1.23l-.15-1.21c-.01-.18-.03-.35-.04-.52.02-.66.23-.89.84-1.12.14-.05.28-.12.41-.16.46-.14.9.1,1.21.66.2.41.51.84.55,1.29.09.45.17.92.2,1.39,0,.93,0,1.91-.31,2.82-.16.69-.48,1.33-.74,1.98-.33.62-.63,1.25-1.01,1.83l-.07-.04Z"/><path class="cls-1" d="m460.74,299.28c1.03-4.28,1.79-8.66,2.55-13.03.75-4.38,1.43-8.77,2.08-13.17,1.3-8.8,2.46-17.63,3.49-26.48.73-6.46,1.45-12.92,2.18-19.37,2.6-22.75,5.03-45.56,6.7-68.38.1-1.49.2-2.99.27-4.48l.09-2.23.02-1.1c0-.34,0-.78-.02-.89,0-.22-.12-.42-.29-.56-.09-.07-.16-.12-.28-.19-.15-.08-.31-.17-.49-.24-.7-.3-1.52-.53-2.36-.71-1.68-.37-3.43-.59-5.19-.77-3.52-.35-7.07-.51-10.61-.63-6.46-.21-12.95-.21-19.45-.33-3.25-.06-6.5-.16-9.76-.31-3.25-.15-6.51-.33-9.74-.87-2.01-.38-2.86-.66-2.79-.81.08-.16,1.08-.22,2.81-.44,3.46-.47,9.72-.95,17.18-.92,7.2.08,14.42.1,21.67.31,3.63.12,7.27.27,10.95.63,1.85.19,3.69.41,5.61.82.96.21,1.93.46,2.99.91.26.1.54.25.82.4.34.18.74.48,1.05.76.31.3.59.64.8,1.02.09.19.2.39.24.6.06.21.13.41.16.63.08.87.06,1.12.06,1.56l-.02,1.18-.08,2.31c-.07,1.53-.16,3.05-.26,4.56-.19,3.03-.43,6.06-.7,9.08-.53,6.05-1.12,12.09-1.76,18.14-1.69,15.89-3.19,32.46-5.08,48.7-1.02,8.93-2.26,17.84-3.48,26.75-1.24,8.91-2.56,17.81-4.13,26.68-.49,2.73-1.01,5.45-1.56,8.18-.55,2.72-1.14,5.44-1.86,8.15-.36,1.36-.76,2.71-1.25,4.06-.25.68-.52,1.35-.87,2.04-.08.15-.2.39-.34.6-.15.21-.32.4-.47.6-.3.41-.81.6-1.3.71-.57.12-.91.13-1.28.16-.37.02-.73.04-1.09.04-.72,0-1.42.01-2.12-.02-1.4-.05-2.79-.13-4.17-.22-8.38-.57-16.72-1.32-25.07-1.86-8.34-.55-16.68-.97-24.97-1.12-12.88-.23-25.52.27-38.14,1.62-2.78.3-5.48.67-8.27,1.07-10.32,1.49-13.51,2.25-15.97,1.64-.55-.09-1.25-.12-1.58-.22-1.1-.19,2.81-2.41,10.47-3.85,11.32-2.26,23.14-3.34,35.11-3.74,11.97-.4,24.11-.11,36.22.55,8.99.5,17.99,1.24,26.95,1.97,2.24.18,4.47.35,6.69.49,1.11.07,2.21.13,3.3.17.54.04,1.08.06,1.6.07.5.01,1.08,0,1.38-.02,0,0,.04,0,.04-.02,0,0,.01,0,.02-.03l.14-.24c.11-.19.21-.43.32-.64.4-.9.75-1.91,1.07-2.94.64-2.06,1.19-4.21,1.69-6.37h.08Z"/><path class="cls-1" d="m361.08,206.89c.61-5.55,1-11.13,1.34-16.72.11-2.04.11-4.08.22-6.12.16-3.6.31-7.19.42-10.79.05-1.8.09-3.6.11-5.4l.03-2.71c-.02-.61.04-1.39.19-1.94l.09-.45c.04-.13.21-.23.32-.32.24-.18.52-.31.85-.39.28-.07.59-.12.88-.16.28-.03.67-.07.83-.08l1.24-.07,2.44-.07c1.62-.03,3.23-.04,4.83-.04,4.1.02,8.24-.14,12.29.88.62.27.89.45.86.58-.03.13-.35.24-.91.55-.56.31-1.34.57-2.27.89-.93.27-2.02.43-3.19.46-4.14.02-8.29-.2-12.38-.14l-1.52.03-1.29.05s-.09-.02-.15-.02c-.04.02-.05.07-.07.13-.1,2-.2,4.01-.31,6.02-.26,5.04-.2,10.29-.43,15.44-.23,5.67-.64,11.33-1.1,16.99-.35,3.48-.65,6.96-1.09,10.42l-.48,3.94-.58,3.93c-.34,2.63-.85,5.23-1.29,7.82-.3,2.02-.76,4-1.12,5.99-.21.99-.34,2-.6,2.98l-.75,2.96c-.23.87-.4,1.73-.69,2.59-.61,1.58-1.08,2.59-1.52,3.25-.43.67-.78,1.01-1.17,1.23-.18.1-.37.25-.52.29-.48.14-.38-1.28.12-3.63.49-1.69.8-3.47,1.22-5.23.21-.88.42-1.76.63-2.65.17-.9.34-1.81.51-2.71.76-3.61,1.28-7.33,1.9-11.04.79-5.54,1.55-11.12,2.03-16.74h.08Z"/><path class="cls-1" d="m442.82,254.76c-.57,3.2-6.11,10.27-11.97,9.41-.23-.03,6.38-4.41,5.48-6.53-.61-1.45-19.63,11.02-27.27,5.57-.17-.12,15.14-3.91,21.93-13.84,0,0-19.35,14.26-36.27,1.52-.1-.08,23.16,1.46,31.38-7.92,1.12-1.27-25.19-10.43-32.67-11.45-.22-.03,22.21-4.99,35.67,4.98l6.68,6.8,7.05,11.47Z"/><path class="cls-1" d="m416.73,222.38c-.27.23-14.99,6.41-24.38-2.18-.24-.22,13.93,2.28,19.26-2.29l5.12,4.46Z"/><path class="cls-1" d="m411.04,216.53s-17.51-11.35-35.46-3.82c-.16.07,8.26-7.96,17.38-7.91l18.08,11.72Z"/><path class="cls-1" d="m454.88,222.75c-1.87,5.43-9.63,7.11-8.4,5.86,4.05-4.13,4.51-10.43,4.51-10.43l3.89,4.57Z"/><path class="cls-1" d="m450.35,217.17c-10.18,8-15.95,2.04-17.31.32-.08-.1,10.55,2,14.5-3.88l2.81,3.56Z"/><path class="cls-1" d="m441.61,206.36c-13.11,7.64-22.23-2.83-23.87-4.94-.05-.06,14.16,6.41,20.62.33l3.25,4.62Z"/><path class="cls-1" d="m429.63,194.89s-9.83,3.19-16.29-2.61c-.25-.23,7.73,1.72,9.81-2.36l6.48,4.97Z"/><path class="cls-1" d="m417.39,185.7l4.03,3.1c-3.22-2.17-13.77-2.33-13.77-2.33,4.58-3.45,9.73-.78,10.07-.58"/><path class="cls-1" d="m200.76,261.63c6.17,15.55,12.46,31.05,18.85,46.52,2.37,5.63,4.75,11.25,7.12,16.88l2.66,6.47c.23.54.42,1.09.62,1.64l.76,2.08c.18.46.36.92.5,1.38.16.46-.09.81-.2,1.12l-.09.23-.05.11-.02.03c-.08-.03.68.31.36.16h0s0,0,0,0h-.01s-.06.06-.06.06l-.47.36c-.31.24-.63.47-.93.72l-3.85,1.37-2.93,1.12c-1.96.73-3.89,1.55-5.84,2.33-3.88,1.6-7.74,3.26-11.58,4.98-7.67,3.44-15.28,7.04-22.81,10.8-8.52,4.27-16.96,8.83-25.16,13.53-5.26,3.03-10.48,6.16-15.64,9.38l-7.76,4.79c-2.6,1.57-5.15,3.22-7.83,4.66-1.7.87-2.48,1.18-2.53,1.01-.05-.17.61-.85,1.71-2.07,2.18-2.5,6.56-6.67,12.51-10.47,10.58-6.66,21.44-12.83,32.5-18.65,11.06-5.82,22.32-11.3,33.86-16.33,3.76-1.65,7.57-3.29,11.43-4.91,1.94-.8,3.86-1.63,5.83-2.39l2.95-1.17,2.12-.78c.14-.04.27-.09.4-.14.03-.11-.07-.26-.11-.38l-.16-.39-.47-1.07c-.73-1.58-1.36-3.22-2.04-4.83-1.34-3.23-2.69-6.46-4.02-9.67-6.44-15.59-12.85-31.2-19.13-46.86-3.87-9.64-7.69-19.3-11.47-28.96-5.72-14.65-11.29-29.44-16.57-44.14-1.02-2.86-2.03-5.71-3.04-8.55l-.64-1.8c-.08-.18-.1-.39-.25-.52-.17-.11-.38-.11-.57-.1-.19.02-.39.06-.57.11l-.4.11-.5.16c-.67.22-1.35.48-2.02.75-5.42,2.25-10.73,5.04-16.16,7.6-2.39,1.14-4.73,2.27-7.19,3.34-4.57,1.98-7.71,3.07-10,3.58-2.3.48-3.71.48-4.85.25-.52-.11-1.19-.2-1.49-.35-.51-.27.2-.65,1.83-1.32,1.64-.67,4.18-1.72,7.45-3.06,4.87-2.02,9.72-4.38,14.63-6.79,2.47-1.21,4.95-2.42,7.44-3.63,2.53-1.2,5.05-2.4,7.81-3.46.7-.26,1.41-.51,2.19-.73.15-.04.52-.14.85-.2.33-.08.67-.13,1-.16.66-.06,1.32-.03,1.91.16.57.2,1.2.52,1.49,1.04l.83,1.76c.33.73.34.93.48,1.28l.34.99c.94,2.64,1.88,5.28,2.82,7.93,1.91,5.29,3.87,10.59,5.86,15.89,5.93,15.74,12.08,31.49,18.38,47.15l-.08.06Z"/><path class="cls-1" d="m195.98,154.81c.52-.37,1.04-.73,1.56-1.1.19-.14.33-.32.52-.45.69-.44,1.43-.83,2.11-1.28.29-.21.6-.41.88-.62.36-.28.72-.56,1.17-.73.14-.05.25.1.31.35.05.24.08.61-.05.85-.25.41-.51.81-.79,1.18-.31.34-.68.61-1.08.86-.49.28-.8.79-1.24,1.15-.48.4-.96.8-1.43,1.19-.29.25-.59.49-.87.75-.43.38-.87.78-1.26,1.19-.3.33-.49.76-.74,1.13-.06.08-.11.16-.18.23-.11.14-.32.11-.46.1-.15-.03-.31-.1-.5-.23-.09-.06-.17-.1-.25-.16-.25-.18-.37-.5-.4-.9,0-.54.2-.93.42-1.3.23-.36.47-.73.77-1.02.46-.44.97-.83,1.47-1.23l.04.04Z"/><path class="cls-1" d="m197.86,158.18c.4-.34.8-.68,1.2-1.02.15-.12.27-.27.42-.38.56-.38,1.12-.77,1.68-1.15.26-.16.48-.35.71-.54.28-.24.56-.51.94-.64.12-.04.25.13.33.37.08.24.13.56.01.75-.44.63-.85,1.27-1.55,1.63-.4.23-.66.64-.99.96-.36.35-.76.67-1.13,1.02-.23.21-.46.42-.68.65-.33.34-.68.67-.96,1.05-.22.3-.37.63-.55.95-.04.07-.07.15-.12.21-.17.24-.37.21-.71.03-.08-.04-.16-.08-.24-.13-.25-.15-.39-.41-.37-.68.13-.73.4-1.43.89-1.95.34-.4.72-.77,1.09-1.15l.04.03Z"/><path class="cls-1" d="m200.42,162.57c.27-.25.54-.5.8-.74.1-.09.14-.22.24-.3.36-.31.74-.6,1.09-.92.16-.14.27-.31.37-.48.13-.23.19-.5.5-.59.19-.06,1.46,1.05,1.36,1.34-.22.49-.49.94-1.02,1.22-.31.17-.41.5-.62.75-.23.28-.48.54-.74.8-.15.16-.31.32-.46.49-.22.25-.46.5-.65.77-.14.22-.18.49-.27.74-.02.05-.02.12-.05.17-.11.18-.26.16-.7-.09l-.3-.17c-.33-.2-.54-.45-.57-.65-.07-.6.08-1.07.29-1.51.19-.3.44-.56.67-.84l.05.03Z"/><path class="cls-1" d="m201.28,166.99c-.9-.71-1.74-1.5-2.63-2.23-.32-.27-.7-.45-1.01-.73l-1.65-1.48-1.61-1.53c-.48-.44-1.01-.82-1.53-1.19-.64-.52-1.28-1.05-1.8-1.75-.16-.22,0-.4.36-.53.35-.12.93-.28,1.42-.15l1.25.38c.4.15.76.37,1.12.57.73.41,1.42.87,2.06,1.43.73.72,1.7,1.14,2.55,1.71l2.78,1.94c.56.41,1.12.83,1.7,1.22.87.59,1.73,1.23,2.66,1.71.72.38,1.57.5,2.3.85.16.07.34.11.49.2.27.19.43.35.46.61,0,.31-.07.61-.2.98-.06.17-.1.33-.16.47-.1.24-.26.42-.51.61-.24.18-.6.42-.86.38-.43.02-.83-.02-1.23-.08-.4-.05-.79-.13-1.13-.3-.71-.29-1.38-.67-2.04-1.07-.98-.6-1.91-1.28-2.85-1.94l.05-.08Z"/><path class="cls-1" d="m214.2,191.99c-.28-.09-.37-.13-.56-.2l-.49-.18c.72-.41,1.36-.82,2.06-1.24l1.05-.65.98-.61.91-.58c.18-.1.26-.19.33-.29l.24-.29.46-.55.13-.24c.34-.63.56-1.4.59-2.18.12-1.62-.42-3.04-1.72-4.4-.94-1.02-2.19-1.68-3.45-2.06-.42-.11-.84-.21-1.27-.24-.22-.02-.43-.03-.65-.02-.12,0-.14-.02-.5.03l-.69.12c-.57.17-.88.01-1.29-.02l-.15-.02h-.04s-.02,0-.02,0h0s0,0,0,0c-.02.03.12-.24.06-.13-.03,0-.05-.01-.08-.02l-.27-.12c-.15-.13-.27-.3-.37-.51-.22-.4-.34-.92-.47-1.4l-.19-.73-.11-.47c-.28-1.19-.55-2.37-.79-3.56l-1.44-7.1c-.54-2.57-1.1-5.15-1.7-7.67-.76-3.26-1.74-6.46-1.99-9.83-.07-1.05.17-.99.85-.26.7.72,1.88,2.11,2.48,3.96.95,3.3,1.82,6.61,2.63,9.94.77,3.34,1.4,6.71,2.01,10.09.22,1.19.45,2.4.73,3.59l.15.63.07.29c.04.07.03.25.14.22.1-.02.19-.06.29-.07l.1-.02s.05,0,.04,0c-.08,0,.06,0,.11-.01.26-.02.51-.06.77-.07.52-.02,1.04,0,1.55.07,1.02.14,2.01.44,2.93.87,1.23.58,2.32,1.38,3.25,2.35.47.48.89,1,1.27,1.55.2.26.37.61.55.91.15.32.3.65.42.98.47,1.33.63,2.75.46,4.12-.1.69-.25,1.37-.5,2.02-.21.63-.67,1.43-.76,1.52-.21.28-.49.52-.78.71l-.18.09s-.2.07-.09.09l.33.13.71.28,2.18.89c4.05,1.66,7.95,3.64,11.81,5.55,3,1.49,6,2.83,8.97,4.27.65.32,1.31.6,1.96.94,1.2.63,1.97,1.08,2.43,1.55.44.51.61.95.66,1.47.02.24.09.49.07.68-.03.34-.35.48-.92.5-.57.01-1.41-.06-2.32-.47-5.49-2.25-10.95-5.14-16.49-7.75-2.06-.97-4.13-1.93-6.22-2.8-.52-.23-1.05-.43-1.57-.64l-.79-.32-1.49-.51-1.52-.52c-.5-.17-1-.34-1.59-.53l-3.41-1.08.17-.04Z"/><path class="cls-1" d="m225.18,156.43c-3.04-3.41-6.1-6.8-9.24-10.07-1.57-1.63-3.17-3.25-4.81-4.69-.4-.35-.84-.7-1.18-.95-.12-.09-.22-.17-.35-.11-.03,0-.06.02-.09.03-.04.02-.01,0-.12.07-.17.11-.34.23-.51.37-.35.29-.7.64-1.03,1.02-.79.91-1.49,1.99-2.04,3.09-.27.55-.52,1.12-.67,1.63-.02.06-.04.13-.05.18v.05s-.03.08-.03.12c-.01.08.03.16.09.22l1.04,1.2c7.75,8.96,14.82,18.41,21.98,27.77,3.17,4.16,6.4,8.3,9.62,12.35,4.03,5.31,8.3,10.43,11.99,16,1.11,1.77.98,1.52-.38.37-1.42-1.11-4.02-3.17-6.58-6.05-2.23-2.58-4.45-5.17-6.64-7.78-2.17-2.63-4.22-5.35-6.31-8.03-4.13-5.41-8.27-10.83-12.43-16.28-2.28-3-4.68-5.99-7.16-8.95-1.24-1.48-2.48-2.96-3.75-4.42l-1.9-2.19-2.07-2.34c-.82-.79-.6-2.16-.33-3.03.41-1.3.98-2.38,1.62-3.44.65-1.05,1.38-2.06,2.28-2.99.45-.46.95-.91,1.55-1.31.14-.1.31-.19.54-.32.21-.09.43-.2.65-.27.44-.16.9-.2,1.35-.11.45.07.86.33,1.24.57.22.13.32.21.45.31.13.1.26.19.38.29.49.38.94.78,1.38,1.18,3.48,3.2,6.59,6.6,9.73,10.01,3.84,4.2,7.6,8.47,11.35,12.74,5.67,6.47,11.27,13.06,16.86,19.52,2.19,2.49,4.36,4.96,6.53,7.42l1.63,1.84.81.92.41.47c.2.24.42.48.62.73.16.26.31.52.43.77l.09.18.02.05s-.02.02.04.02v.03s-.01.1-.01.1c-.02.14-.08.27-.12.41-.11.27-.24.56-.37.84l-.48.79c-.48.75-.93,1.43-1.45,2.12-.89,1.2-1.79,2.35-2.83,3.44-1.99,1.98-3.55,3.03-4.71,3.63-1.17.59-1.9.81-2.55.86-.29.03-.65.1-.83.08-.64-.11,1.27-1.25,3.87-4.05,1.95-2.03,3.75-4.27,5.29-6.68.2-.3.38-.61.56-.91.06-.1.06-.1.07-.12l.03-.06s.03-.07.03-.08c.02-.04.02-.08-.03-.1l-.05-.04-.02-.02s0,.01-.03-.03l-.09-.11c-.99-1.14-1.99-2.28-2.99-3.43-4-4.61-8.05-9.29-12.11-13.97-6.03-6.96-12.07-13.96-18.24-20.81l.05-.06Z"/><path class="cls-1" d="m207.45,199.39c-2.19,1.38-4.38,2.77-6.5,4.25-.78.53-1.49,1.16-2.26,1.7-2.74,1.89-5.45,3.84-8.06,5.9-1.17.91-2.28,1.9-3.33,2.92-.68.65-1.32,1.35-2.04,1.96-.36.31-.72.61-1.1.9-.37.3-.83.5-1.26.74-.56.27-.8-.07-.86-.84-.03-.39-.03-.89.03-1.45.08-.54.28-1.06.62-1.51.57-.83,1.27-1.51,1.97-2.2.7-.69,1.4-1.38,2.15-2.02,1.45-1.34,3.06-2.49,4.72-3.58,2-1.29,3.8-2.97,5.74-4.41,2.14-1.56,4.33-3.07,6.53-4.54l4.08-2.68c2.06-1.35,4.17-2.64,6.17-4.03,1.55-1.09,2.95-2.34,4.41-3.51.32-.26.62-.54.95-.79,1.26-.87,1.84-.88,2.69-.21.19.14.39.27.54.41.48.45.41,1.47-.39,2.33-2.37,2.49-5.29,4.46-8.19,6.44-2.18,1.43-4.36,2.88-6.54,4.31l-.06-.08Z"/><path class="cls-1" d="m273.99,247.27c-1.12.37-2.32.54-3.51.49l-.89-.07c-.34-.07-.69-.17-1.02-.26-.64-.26-1.26-.61-1.72-1.08-.72-.65-1.24-1.42-1.59-2.25-1.1-2.97-.29-6.12,1.33-8.38l.54-.76c.18-.25.4-.46.6-.7l.61-.69.69-.59c.57-.53,1.22-.95,1.87-1.35.32-.21.7-.33,1.06-.44.36-.11.72-.22,1.1-.33.46-.12.46.06.24.49-.23.42-.64,1.14-1.18,1.74-2.1,1.84-3.89,3.73-4.75,6.19-.51,1.47-.26,3.18.43,4.45.41.68.97,1.2,1.64,1.42.29.13.77.14,1.21.17.44-.02.89-.01,1.33-.11,1.1-.17,2.16-.64,3.12-1.28,1.47-.94,2.77-2.26,3.73-3.77.75-1.18,1.19-2.49,1.63-3.77.11-.28.15-.57.25-.86.19-.52.36-.85.59-1.06.28-.19.55-.28.87-.32.15-.02.29-.06.42-.07.22,0,.37.13.53.4.15.27.35.69.3,1.17-.12,1.4-.46,2.83-1.08,4.17-.67,1.31-1.54,2.56-2.57,3.68-1.55,1.65-3.47,3.08-5.76,3.81l-.02-.06Z"/><path class="cls-1" d="m388.11,110.71c.58-.02,1.16-.03,1.74-.07.21-.02.4-.11.61-.11.75-.01,1.5-.07,2.26-.05.34,0,.66-.07.97-.15.42-.05.83-.11,1.3.02.15.04.19.26.17.57-.03.29-.11.73-.31.92-.18.16-.35.32-.53.46-.19.13-.39.19-.59.27-.41.14-.81.27-1.28.21-.55-.05-1.03.22-1.55.32-.57.11-1.15.2-1.72.29-.35.06-.71.11-1.06.18-.53.1-1.08.15-1.58.32-.39.14-.74.44-1.11.67-.08.05-.15.13-.24.16-.34.03-.5-.15-.73-.83l-.15-.43c-.14-.46-.13-1,.05-1.3.13-.25.28-.39.44-.51.16-.13.33-.23.5-.32.34-.18.71-.3,1.08-.4.55-.16,1.12-.22,1.7-.28l.02.07Z"/><path class="cls-1" d="m389.18,117.61c.42,0,.84-.01,1.26-.05.15-.01.28-.1.43-.11.54-.03,1.1-.02,1.65-.05.24-.02.46-.1.67-.19.29-.07.57-.17.94-.05.11.04.21.32.26.66.05.34.07.79-.05.96-.11.14-.22.28-.34.41-.12.11-.27.16-.42.22-.29.12-.6.19-.94.18-.41-.04-.74.2-1.11.3-.41.1-.83.17-1.25.25-.26.05-.52.09-.77.14-.39.07-.79.09-1.16.23-.28.11-.53.33-.8.48-.06.03-.11.1-.18.08-.27-.04-.4-.21-.58-.69l-.12-.32c-.12-.35-.11-.71-.01-1,.13-.49.37-.64.58-.87.22-.22.47-.31.73-.4.38-.13.78-.21,1.19-.25l.02.07Z"/><path class="cls-1" d="m390.78,124.51c.28-.04.59-.03.88-.05.11,0,.19-.07.3-.07.38,0,.77,0,1.13-.03.17,0,.32-.04.47-.09.19-.06.37-.16.62-.07.08.03.16.28.2.57.04.28.06.63-.02.73-.31.33-.64.62-1.11.51-.27-.03-.48.15-.71.23-.27.08-.53.14-.81.19-.17.03-.34.05-.51.09-.25.06-.51.1-.75.2-.18.07-.32.25-.48.37-.04.03-.06.07-.1.09-.15.06-.25-.04-.46-.46l-.15-.29c-.15-.33-.21-.63-.15-.79.19-.47.46-.81.82-.94.26-.1.55-.16.82-.23l.02.05Z"/><path class="cls-1" d="m383.94,120.22c.01-1.7.05-3.39.01-5.11,0-.44,0-.86.04-1.36.02-.14.01-.24.08-.55l.06-.18.02-.04v-.02s.06-.1.06-.1c.08-.15.2-.3.34-.41.07-.06.14-.11.22-.15.04-.03.2-.1.39-.14.39-.09.92.09,1.14.32.16.16.19.21.27.33.03.05.07.12.08.15l.02.05.04.1.04.13.18.61.73,2.44c.35,1.19.77,2.35,1.11,3.54,1.2,4.19,2.36,8.38,3.6,12.55.56,1.85,1.14,3.7,1.74,5.51l.6,1.75c.18.59.35,1.18.51,1.78l.47,1.79.22.9c.07.3.09.62.14.93.09.78.03.7-.44.17-.51-.51-1.36-1.48-1.99-2.77-2.2-4.58-3.5-9.46-4.78-14.37-.74-2.95-1.8-5.92-2.7-8.89l-1.49-4.89-.09-.31-.02-.07h0s0,0,0,0l.09-.03c.13-.05.26-.11.39-.17.12-.06.17-.05.25-.11.03-.02.06-.05.09-.08.02-.02.03,0,.04-.02-.02.01.13.08.36.15.11.03.2.05.33.06l.23.05h0s0,0,0,.03v.11s-.03.28-.03.28c-.03.4-.04.82-.05,1.24-.03.84-.03,1.69,0,2.54l.11,6.3c.07,3.18.03,6.38.07,9.55.02,2.46.16,4.88.14,7.33,0,.54,0,1.07-.02,1.62-.05,1.02-.18,1.69-.39,2.14-.2.45-.44.7-.77.86-.15.08-.3.18-.44.21-.46.1-.69-.74-.8-2.17-.06-4.32-.11-8.81-.17-13.34-.07-3.39-.05-6.8-.07-10.22h.06Z"/><path class="cls-1" d="m398.07,135.84c1.51,1.62,2.38,3.63,2.64,5.72.13,1.05.09,2.13-.17,3.19-.14.56-.29.98-.5,1.47-.2.47-.44.96-.77,1.43-.47.69-1.1,1.27-1.71,1.74-.62.47-1.25.82-1.87,1.11-.2.09-.47.21-.62.27l-.16.06c-.1-.01-.15.03-.23.04-.08.03-.05.12-.06.19,0,.07,0,.14.02.22l.02.12.08.35c.22.95.49,1.92.76,2.89.55,1.94,1.13,3.88,1.73,5.81.58,1.91,1.28,3.8,1.87,5.69.39,1.22.83,2.42,1.14,3.67.16.62.31,1.25.43,1.88.14.63.14,1.3.2,1.94.03.82-.18.76-.73.21-.33-.34-.71-.72-1.1-1.12-.41-.47-.77-1.06-1.07-1.73-.54-1.18-1-2.38-1.45-3.59-.46-1.21-.93-2.41-1.3-3.66-.78-2.48-1.52-4.98-2.16-7.55-.27-1.09-.59-2.18-.9-3.31l-.25-.92c-.12-.46-.23-.93-.27-1.39-.04-.46-.01-.87.2-1.26.31-.27.63-.51.99-.76.39-.13.75-.28,1.15-.39l.61-.24c.4-.17.78-.34,1.13-.52.68-.34,1.14-.78,1.48-1.36.17-.3.31-.63.44-.99.13-.39.23-.73.29-1.08.23-1.42-.08-3.02-.81-4.34-.22-.38-.45-.75-.73-1.08-.13-.17-.28-.32-.43-.48-.07-.08-.15-.15-.23-.22-.11-.1-.26-.25-.44-.34l-.44-.44c-.15-.14-.3-.28-.35-.5-.1-.4-.07-.83.02-1.25.04-.21.12-.42.18-.63.03-.1.07-.21.1-.3l.08-.22.32-.85c1.29-3.12,2.8-6.04,4.18-9.01,1.08-2.3,2.01-4.62,3.03-6.91.22-.51.42-1.01.66-1.52,1-1.81,1.48-2.3,2.33-2.36.18-.02.37-.07.51-.07.44,0,.61,1.03.12,2.48-.31,1.1-.75,2.15-1.19,3.2-.44,1.06-.91,2.12-1.38,3.18-.97,2.1-1.96,4.24-2.95,6.37-.69,1.46-1.35,2.94-1.93,4.42-.29.73-.57,1.47-.78,2.16-.03.12-.02.06-.03.08h0s-.01.03-.01.03c0,.02-.01.04.03.04-.04.05,0,0,.03.05.12.11.23.21.34.33l-.05.06Z"/><path class="cls-1" d="m402.72,170.66l-.13.75-.03.19-.02.09h0s-.01.05-.01.05c0,.04-.07.12,0,.14l.07.05s.03.02.03.02h0s0,0,.07.03c.38.16.8.27,1.22.39,1.71.43,3.59.62,5.49.65.95.03,1.91,0,2.88-.03l.73-.03h.16s.04,0,.04,0h.07c.1,0,.23.03.24-.1l.04-.14.02-.08.05-.29c.08-.46.15-.94.22-1.41.13-.96.24-1.93.34-2.91.29-2.86.41-5.75.62-8.64.73-10.18,1.27-20.39,1.73-30.6.21-4.53.23-9.09.32-13.59.03-1.44.09-2.89.03-4.32l-.03-1.05c-.01-.15-.02-.3-.04-.44-.02-.16-.23-.16-.36-.2-.17-.03-.2-.03-.6-.07-1.33-.1-2.72-.04-4.08.14-.68.09-1.36.2-2.04.32-.69.11-1.34.33-2.03.46-1.75.29-1.63.18-.45-1.03.6-.6,1.58-1.25,2.88-1.86,1.31-.56,2.94-.97,4.78-.98.41,0,.82.01,1.25.04l.33.03c.17.02.35.03.53.07.35.09.74.11,1.05.26l.48.2.39.29c.3.18.44.48.59.75.15.28.18.65.22,1.01l.04.55.02.47.05,2.27.11,2.24c.07,1.49.12,2.97.07,4.46l-.12,4.45c-.19,5.93-.48,11.87-.93,17.82-.55,7.12-.75,14.55-1.31,21.84-.16,2.01-.33,4.01-.55,6.03-.11,1.01-.22,2.02-.37,3.04l-.12.77-.07.39-.12.59c-.17.79-.39,1.57-1,1.99-.55.27-1.55.25-2.21.3l-1.53.06c-1.03.03-2.06.03-3.09-.01-2.07-.09-4.16-.3-6.25-.95-.34-.1-.59-.18-1.01-.37-.47-.18-.86-.39-1.28-.62l-.61-.34-.31-.17c-.04-.09.02-.22.02-.33l.22-1.38.37-2.06.3-1.81c.39-2.42.73-4.85,1.04-7.29.91-7.39,1.61-14.86,2.11-22.25.38-5.75.52-11.4.73-17.1.05-1.26.06-2.48.13-3.75.14-4.7.91-6.18,1.68-7.12.18-.21.38-.51.54-.57.02,0,.03.01.03.02.01.02-.05-.04-.05-.05-.02-.04-.02-.05,0-.01.01.03.07.12.2.12.1.04.05.05.11.08.07.14.14.44.23.86.17.85.37,2.19.41,3.91-.13,10.17-.67,20.94-1.59,31.72-.34,4-.74,8.02-1.21,12.03-.46,4.01-.96,8.03-1.63,12.05h-.08Z"/><path class="cls-1" d="m348.76,189.97c.5-7.59.87-15.2,1.1-22.83.05-2.78.09-5.57.14-8.35l.2-6.21c.03-1.03.08-2.07.13-3.12l.07-1.56.16-2.25.25-.71.13-.35.03-.09.02-.04v-.02s.14.12.08.06h0s0-.02,0-.02c.03-.06.08-.11.11-.15.31-.37.89-.48,1.43-.59.28-.06.57-.09.86-.13l.78-.09,1.09-.09c1.44-.11,2.87-.17,4.31-.22,2.86-.1,5.71-.16,8.57-.19,4.37-.05,8.77-.1,13.11-.15,2.79-.01,5.59.05,8.38.17,2.79.19,5.58.59,8.33,1.16,1.71.37,1.46.51-.03.81-1.49.28-4.23,1.03-7.41,1.26l-8.45.15c-2.82.01-5.64.03-8.46.04-5.64.06-11.32.16-16.97.35l-1.3.05-.65.04-.3.02h-.1c-.13,0-.26,0-.4.03-.19-.02-.12.19-.16.3l-.04.43c0,.1-.01.09-.02.27l-.02.48-.07,1.92c-.05,1.28-.06,2.59-.08,3.89-.05,2.61-.1,5.22-.15,7.82-.21,7.7-.49,15.41-.95,23.11-.12,2.37-.29,4.74-.45,7.11-.15,2.37-.33,4.74-.54,7.1-.55,7.17-1.41,14.35-2.31,21.44-.76,5.5-1.41,10.93-2.53,16.34-.25,1.19-.46,2.37-.74,3.57-.25,1.11-.61,2-.87,2.75-.28.75-.51,1.35-.77,1.82-.56.93-1,1.42-1.47,1.78-.22.16-.44.39-.61.47-.29.13-.39-.28-.4-1.14-.01-.86,0-2.18.38-3.76,1.92-9.46,3.49-19.53,4.58-29.75.79-7.59,1.49-15.24,1.9-22.91h.09Z"/><path class="cls-1" d="m328.88,220.84c8.38,14.71,16.88,29.35,25.76,43.75,3.24,5.25,6.63,10.4,9.99,15.56l2.8,4.26,1.42,2.12,2.04,2.99.3,1.09.15.54.04.14.02.07v.03s.01.02.01.02c-.25-.05.57.14-.57-.11l-.09.2-.38.9-.12.27c-.05.09-.04.2-.18.24l-.64.36-3.67,2.03c-2,1.11-3.98,2.24-5.96,3.39-3.95,2.3-7.87,4.66-11.76,7.08-7.77,4.85-15.39,9.92-22.86,15.23-7.86,5.58-15.52,11.53-22.91,17.6-4.75,3.9-9.36,7.98-14.01,12.01-4.63,4.05-9.18,8.19-14.07,11.98-2.99,2.42-2.7,2-.76-.67.99-1.32,2.24-3.35,4.03-5.54.89-1.1,1.83-2.32,2.93-3.52,1.1-1.19,2.32-2.41,3.61-3.63,18.52-17.29,38.98-32.37,60.68-45.74,4.09-2.51,8.24-5.02,12.45-7.51,2.11-1.24,4.23-2.48,6.36-3.69l2.72-1.54.52-.29c.15-.04.04-.13-.02-.21l-.17-.24-1.9-2.76-2.44-3.61c-1.61-2.42-3.2-4.84-4.75-7.27-9.22-14.42-17.93-29.14-26.5-43.92-5.27-9.1-10.46-18.25-15.62-27.4-7.83-13.86-15.51-27.88-23.24-41.66-1.52-2.67-3.03-5.32-4.53-7.97-.76-1.31-1.53-2.62-2.29-3.93l-1.07-1.77-.32-.48c-.06-.06-.1-.18-.19-.18-.09.01-.19,0-.28.03-.19.04-.36.1-.54.16l-.26.11c-.15.06-.31.13-.47.21-.63.29-1.27.64-1.9,1-1.27.73-2.52,1.53-3.76,2.36-2.49,1.66-4.94,3.42-7.41,5.17-2.18,1.55-4.29,3.1-6.52,4.63-4.14,2.83-7,4.57-9.12,5.59-2.15.97-3.53,1.29-4.69,1.38-.53.04-1.2.15-1.53.11-.57-.07.02-.65,1.44-1.78,1.41-1.15,3.66-2.82,6.67-4.84,4.43-3.04,8.82-6.31,13.34-9.56,2.27-1.63,4.56-3.26,6.98-4.82,1.22-.78,2.45-1.55,3.81-2.26.34-.18.69-.35,1.05-.52.18-.08.35-.17.56-.25l.38-.15c.16-.06.33-.13.49-.18.32-.11.65-.17.97-.25l.49-.12.48-.03c.32-.01.65-.08.93.03l.44.1h.05s.03.02.03.02c-.03.09.1-.19-.05.2l.1.05.18.1.77.41c.24.19.41.51.62.76.2.27.35.55.53.83l.4.65,1.1,1.85c.71,1.23,1.43,2.47,2.14,3.7,1.41,2.48,2.82,4.96,4.23,7.44,2.8,4.98,5.61,9.98,8.43,14.98,8.35,14.87,16.67,29.84,25.19,44.64l-.08.07Z"/><path class="cls-1" d="m427.74,235.53c-3.49-4.42-7.26-8.62-11.34-12.5-.73-.73-1.52-1.38-2.29-2.06-.78-.67-1.54-1.36-2.33-2.01-5.51-4.7-11.41-8.99-17.81-12.42-2.84-1.53-5.79-2.88-8.77-4.03-3.8-1.61-7.81-2.49-11.58-4.33-1.16-.65-1.01-.58.15-.69,1.17-.17,3.38-.49,5.72.2,8.31,2.33,16.12,6.28,23.24,11.21,4.24,2.96,8.63,6.08,12.6,9.57,4.36,3.83,8.41,8.01,12.17,12.42,2.33,2.7,4.5,5.54,6.59,8.41,3.16,4.37,6.04,8.96,8.71,13.6,2.06,3.61,4.06,7.18,5.77,10.97.39.83.74,1.66,1.09,2.51,1.2,3.23,1.09,4.49.48,5.35-.12.19-.22.42-.31.53-.17.18-.39-.06-.78-.57-.41-.5-.82-1.33-1.28-2.43-2.74-6.55-6.27-13.31-10.27-19.78-2.96-4.82-6.24-9.48-9.79-13.9l.05-.05Z"/><path class="cls-1" d="m440.25,205.72c-2.53-2.68-5.2-5.23-8.02-7.63-1.02-.89-2.12-1.68-3.16-2.53-3.71-2.98-7.58-5.78-11.65-8.26-1.8-1.1-3.68-2.12-5.56-3.02-2.44-1.15-4.93-2.08-7.37-3.25-.77-.35-.67-.39.09-.48.39-.06.93-.12,1.61-.17.67-.03,1.41.1,2.2.3,5.43,1.8,10.36,4.62,14.94,7.94,2.74,1.98,5.66,3.93,8.37,6.08,2.97,2.36,5.82,4.89,8.53,7.55,1.66,1.65,3.28,3.34,4.81,5.1,2.35,2.65,4.52,5.48,6.52,8.37,1.55,2.25,3.11,4.46,4.36,6.9.28.53.53,1.07.76,1.63.44,1.04.65,1.75.72,2.28.08.53,0,.87-.16,1.18-.08.14-.13.31-.22.41-.27.31-.95-.4-1.67-1.8-.61-1.02-1.17-2.05-1.84-3.05-.57-1.04-1.23-2.06-1.85-3.09-1.31-2.04-2.7-4.07-4.21-6.04-2.23-2.92-4.66-5.73-7.26-8.38l.04-.05Z"/><path class="cls-1" d="m448.89,267.35c2.16-11.76,3.91-23.64,5.54-35.52.59-4.34,1.06-8.69,1.62-13.03,1.9-15.29,3.83-30.66,4.5-45.95,0-.62,0-1.25,0-1.87l-.04-.92c-.02-.3-.04-.66-.05-.75,0-.17-.08-.34-.21-.44-.07-.05-.14-.1-.21-.14-.07-.04-.15-.08-.31-.14-.55-.23-1.2-.41-1.84-.57-1.3-.31-2.67-.52-4.03-.71-2.73-.36-5.5-.59-8.25-.78-8.69-.61-17.46-.58-26.18-1.48-2.72-.36-2.33-.62,0-1.04,1.16-.22,2.81-.43,4.79-.63.99-.09,2.07-.2,3.22-.24,1.14-.04,2.35-.04,3.61-.01,5.24.13,10.49.3,15.76.64,2.64.18,5.28.39,7.95.75,1.34.19,2.68.39,4.07.73.7.17,1.4.37,2.18.7.46.21,1.11.55,1.53.99.44.44.74,1.01.82,1.63l.07.66.03.37.04.73.05,1.44v2.84c0,1.88-.06,3.75-.15,5.62-.24,3.73-.63,7.43-1.03,11.14-1.2,10.73-2.32,21.88-3.76,32.81-1.59,12.01-3.34,24-5.35,35.96-.57,3.36-1.16,6.72-1.82,10.07-.33,1.68-.68,3.35-1.07,5.03-.2.84-.41,1.68-.67,2.53-.15.48-.37,1.19-.68,1.67-.16.24-.34.49-.61.61-.28.04-.57.1-.87.08-1.08,0-1.58-.04-2.25-.05-11.31-.33-22.61-1.45-33.77-2.13-8.68-.55-17.19-.76-25.75-.61-1.89.01-3.73.12-5.62.17-7.03.23-9.27.26-10.85-.57-.36-.17-.83-.33-1.04-.5-.72-.51,2.11-1.46,7.33-1.84,7.73-.6,15.7-.69,23.75-.42,8.05.27,16.18.87,24.29,1.45,3.95.28,7.9.57,11.85.8l5.93.33c.99.08,1.97.15,2.96.21l1.48.09.74.03h.09s0,0,0,0h.01s.02.03.02.03c-.02-.11,0-.03,0-.06v-.02s.02-.02.02-.02l.19-.65c.26-.95.49-1.94.71-2.94.43-2,.82-4.04,1.19-6.09h.08Z"/><path class="cls-1" d="m419.57,328.02c-.07-.51.55-.65,1.56-.53.32.04,1.17.45,1.24.62.14.32.27.64.33.93.02.17-.48,2.48-.59,3.28-.12.78-.37,1.5-.65,2.22-.56,1.46-1.06,2.95-1.57,4.43-.12.33-.27.64-.47.94-.68,1.03-1.08,2.16-1.39,3.32-.05.19-.14.38-.06.61.12.37-.87,3.46-1.1,3.82-.57.91-1.04,1.86-1.53,2.8-.07.13-.06.3-.26.39-.47.2-.48.52-.6.83-.16.42-.33.84-.56,1.23-.12.2-.39.36-.61.53-.21.16-.76-.08-.8-.16-.13-.24-.44-.14-.69-.18-.08-.01-.19-.03-.25-.05-.15-.05-.5-2.89-.4-3.17.01-.07.75-3.87.84-4.32.03-.23.18-.43.3-.63.05-.1.66-3.14.71-3.25.24-.59.3-1.25.83-1.74.11-.1.13-.23.16-.35.29-1.06.78-2.05,1.23-3.05.23-.51.37-1.06.56-1.58.03-.09.12-.17.18-.26.07-.11.16-.21.2-.33.41-1.26,1.07-2.43,1.4-3.74.08-.3,1.03-1.5,1.12-1.85.05-.2.89-.54.86-.75Z"/><path class="cls-1" d="m439.37,332.8c-.31-.09,0-.46.7-.96.22-.16.98-.5,1.11-.5.26,0,.5.01.69.04.11.03.94.81,1.27,1.03.3.23.51.5.69.8.38.59.81,1.15,1.24,1.7.1.12.16.27.2.44.13.58.48,1.01.89,1.36.07.06.12.14.27.12.24-.02,1.26.99,1.34,1.19.18.5.44.93.69,1.38.03.07.12.07.08.23-.1.36.05.41.16.52.14.16.28.33.38.54.05.11.02.33.01.52,0,.17-.34.56-.4.59-.17.07-.25.32-.37.5-.04.06-.09.14-.13.19-.08.11-1.69.03-1.81-.08-.01,0-.45-.27-.92-.55-.45-.28-.92-.58-1.04-.65-.11-.06-.14-.2-.2-.31-.03-.04-1.38-.98-1.42-1.04-.2-.27-.53-.43-.51-.89,0-.09-.05-.13-.1-.17-.41-.4-.68-.92-.97-1.42-.15-.25-.35-.47-.52-.7-.03-.04-.02-.11-.04-.17-.02-.07-.02-.15-.06-.2-.42-.55-.65-1.21-1.12-1.73-.12-.12-.15-.96-.27-1.1-.08-.08.27-.62.15-.66Z"/><path class="cls-1" d="m479.28,327.86c-.29.17-.23-.36.05-1.3.09-.3.49-1.16.59-1.26.21-.19.41-.37.58-.49.11-.07,1.25-.03,1.66-.04.39-.02.72.1,1.04.25.65.3,1.31.55,1.96.84.14.06.27.17.38.31.37.49.85.74,1.38.89.09.03.16.09.3,0,.23-.16,1.56.46,1.69.65.31.45.67.81,1.01,1.21.05.06.14.04.12.22-.04.42.12.42.24.51.17.12.32.26.45.47.06.1.06.35.07.55.01.19-.28.7-.33.75-.16.13-.21.42-.3.64-.03.08-.07.18-.11.24-.07.13-1.56.58-1.67.53-.03-.01-1.71-.41-1.92-.42-.11,0-.16-.13-.23-.22-.03-.04-1.42-.28-1.46-.31-.24-.15-.56-.13-.67-.56-.02-.09-.08-.09-.14-.11-.47-.14-.85-.46-1.26-.74-.21-.14-.46-.19-.68-.3-.04-.02-.06-.09-.09-.13-.04-.05-.07-.12-.12-.14-.55-.2-1.01-.61-1.61-.7-.14-.02-.55-.68-.71-.69-.09,0-.09-.71-.2-.64Z"/><path class="cls-1" d="m85.41,383.48c.27-.43.8-.22,1.53.34.23.18.64.9.58,1.07-.11.32-.23.64-.39.91-.08.18-2.22,1.74-2.96,2.26-.7.51-1.47.89-2.24,1.23l-4.59,2.09c-.34.15-.68.27-1.04.36-1.24.29-2.37.84-3.44,1.48-.18.11-.38.19-.49.39-.09.17-.87.67-1.68,1.14-.79.5-1.62.96-1.83,1.04-1.04.38-2.05.84-3.06,1.31-.14.07-.25.2-.46.16-.47-.09-.72.14-1.01.33-.4.25-.82.49-1.27.67-.22.09-.53.07-.81.08-.26.01-.48-.47-.45-.56.08-.26-.21-.35-.36-.51-.05-.05-.11-.12-.14-.18-.06-.11,1.65-2.51,1.93-2.67.03-.02.86-.68,1.72-1.37.88-.67,1.8-1.37,1.99-1.52.19-.16.45-.22.68-.31.1-.06,2.84-1.99,2.98-2.02.63-.29,1.18-.75,1.93-.77.15,0,.26-.08.39-.15,1.03-.58,2.15-.97,3.25-1.38.56-.22,1.08-.49,1.62-.73.1-.04.21-.04.32-.07.13-.03.27-.04.39-.1,1.26-.6,2.57-1,3.73-1.72.26-.16,1.76-.48,2.04-.71.16-.12,1.01.07,1.12-.11Z"/><path class="cls-1" d="m88.18,398.56c-.04-.34.43-.22,1.21.17.25.12.89.65.94.77.09.25.18.49.22.69.02.12-.5,1.4-.65,1.85-.15.44-.4.79-.67,1.13-.55.69-1.07,1.41-1.61,2.1-.12.15-.27.28-.45.39-.62.36-1.05.88-1.42,1.45-.06.09-.15.17-.12.33.05.27-1.09,1.69-1.32,1.82-.56.3-1.05.67-1.56,1.01-.07.05-.09.15-.26.11-.38-.08-.45.1-.58.23-.19.17-.39.34-.63.46-.12.06-.35.04-.55.03-.18,0-.55-.37-.57-.44-.06-.19-.3-.27-.48-.4-.06-.04-.14-.1-.18-.14-.09-.09.1-1.78.2-1.91.02-.03,1.11-1.87,1.21-2.1.05-.12.19-.17.31-.24.05-.03.86-1.55.91-1.6.25-.25.36-.61.81-.69.09-.02.12-.08.16-.14.33-.51.79-.91,1.22-1.33.22-.22.37-.49.57-.73.03-.04.11-.06.16-.09.06-.04.14-.07.18-.12.42-.6,1-1.06,1.34-1.73.08-.15.87-.55.95-.73.04-.1.7-.03.69-.17Z"/><path class="cls-1" d="m118.09,407.94c-.4-.04-.3-.54.09-1.34.12-.25.68-.86.83-.89.29-.05.57-.09.81-.07.15,0,1.76.95,2.32,1.27.55.3,1,.7,1.43,1.13.88.86,1.77,1.71,2.62,2.59.19.2.35.42.48.67.45.86,1.06,1.56,1.73,2.21.11.11.2.24.39.27.33.04,1.97,1.99,2.09,2.31.33.79.72,1.52,1.07,2.28.05.11.16.18.11.35-.12.41.07.57.21.78.18.3.35.61.46.95.06.17,0,.42-.02.65-.02.21-.49.45-.56.44-.22-.03-.34.22-.51.36-.06.05-.13.11-.18.14-.11.06-2-.94-2.13-1.1-.02-.02-.52-.53-1.05-1.08-.54-.53-1.1-1.08-1.23-1.18-.14-.1-.18-.28-.25-.44-.03-.08-1.73-1.58-1.79-1.64-.28-.37-.7-.62-.78-1.17-.02-.11-.09-.17-.16-.23-.59-.55-1.05-1.21-1.55-1.84-.26-.32-.58-.58-.86-.87-.05-.05-.07-.14-.11-.21-.05-.08-.08-.18-.15-.24-.72-.65-1.29-1.46-2.11-2.01-.18-.13-.71-1.13-.94-1.27-.12-.08-.1-.81-.26-.82Z"/></svg>