<?xml version="1.0" encoding="UTF-8"?><svg id="Layer_1" xmlns="http://www.w3.org/2000/svg" width="520" height="520" viewBox="0 0 520 520"><defs><style>.cls-1{fill:#231f20;}</style></defs><path class="cls-1" d="m403.25,390.23c.08.38,43.78-3.96,48.86-10.55,5.08-6.59-28.66-8.16-28.66-8.16l-20.2,18.71Z"/><path class="cls-1" d="m204.09,294.12c2.96-1.38,6.05-2.42,9.17-3.19,1.14-.28,2.27-.61,3.43-.8,4.08-.69,8.19-.9,12.28-.84,1.81.04,3.63.07,5.42.15,1.15.06,2.31.11,3.46.23,1.15.15,2.28.41,3.37.81.67.24.56.48-.1.79-.33.15-.78.34-1.33.53-.54.17-1.15.26-1.8.27-4.56-.37-9.1-.52-13.71-.4-2.76.06-5.59.63-8.32,1.25-3.01.67-5.98,1.58-8.81,2.8-1.73.78-3.46,1.6-5.06,2.61-2.46,1.5-4.81,3.23-6.83,5.25-1.53,1.62-2.87,3.35-4.07,5.18-.27.4-.53.79-.83,1.18-.27.36-.48.67-.68.91-.21.24-.42.4-.6.53-.37.26-.68.35-1.05.36-.16,0-.34.04-.48.02-.45-.06-.39-.91.07-2.28,1.66-3.86,4.59-7.34,8.06-10.13,2.55-2.11,5.4-3.86,8.36-5.3l.04.06Z"/><path class="cls-1" d="m114.64,357.64c2.85-2.32,5.97-4.29,9.27-5.87,1.2-.59,2.4-1.17,3.65-1.64,4.41-1.63,9.04-2.53,13.66-2.88,2.05-.16,4.11-.26,6.15-.29l1.96-.02c.65.03,1.31.06,1.96.12.65.06,1.3.1,1.94.24.64.14,1.28.3,1.91.47.79.22.66.42-.05.73-.36.15-.86.35-1.46.56-.3.1-.62.23-.96.29-.34.05-.69.08-1.06.09l-1.94.04c-.65.02-1.29-.02-1.93-.02-1.29,0-2.57,0-3.85.05-2.57.09-5.13.31-7.69.69-3.08.43-6.14,1.55-9.04,2.79-3.2,1.36-6.25,3.11-9.04,5.22-.85.65-1.71,1.31-2.52,2.03-.83.69-1.6,1.45-2.38,2.2-2.31,2.31-4.43,4.86-6.27,7.56-.69,1.07-1.37,2.13-1.94,3.25l-.88,1.66-.81,1.69c-.24.5-.46.99-.72,1.48-.45.93-.78,1.53-1.1,1.9-.35.37-.66.53-1.03.6-.17.03-.35.1-.49.1-.24,0-.36-.23-.37-.66,0-.43.06-1.06.33-1.79,1.52-4.38,3.94-8.72,6.91-12.69,2.27-2.91,4.87-5.59,7.72-7.96l.05.05Z"/><path class="cls-1" d="m176.34,350.51s-.09-.01-.16-.01l-.46.11c-.25.04-.5.17-.75.25-1,.35-1.97.89-2.93,1.48-1.94,1.18-3.72,2.69-6.01,3.9-.78.4-1.72.74-2.8.76h-.61s-.27-.53-.27-.53c-.09-.18-.16-.4-.18-.57,0-.16,0-.36.02-.48.03-.12.06-.24.1-.36l.12-.26c.17-.31.35-.54.53-.75.36-.41.72-.75,1.09-1.06,1.31-1.11,2.67-2.03,4.03-2.95.69-.44,1.35-.93,2.07-1.31l1.06-.6c.33-.22.67-.46.95-.68l.22,1.47c-.87-.31-2.25.03-3.45.53-1.23.51-2.46,1.16-3.7,1.81-.59.31-1.19.63-1.81.94-.32.15-.63.31-.97.45-.35.13-.69.29-1.25.28-.13,0-.32-.05-.49-.11-.09-.05-.18-.11-.26-.18-.04,0-.27-.33-.26-.47-.01-.08-.02-.15-.01-.23l.02-.14c.02-.1.04-.15.07-.22.05-.13.1-.22.15-.31.2-.35.41-.63.62-.91.39-.52.97-1.2,1.05-1.31.24-.3.48-.58.65-.86.04-.06.05-.17-.02-.23-.09-.03-.19,0-.28.03-.18.07-.34.14-.5.22l-.47.22-.32.13-.62.24c-.83.3-1.74.49-2.7.48-.61-.03-.85-.22-.81-.32.04-.12.34-.21.76-.4.42-.19.95-.5,1.57-.92.31-.21.66-.4,1.03-.61.11-.08.57-.29.98-.51.43-.22.88-.45,1.33-.64.81-.37,1.5-.53,1.85-.44.2.03.34.09.47.16.14.08.25.15.44.39.04.06.08.12.11.17l.02.04v.02s.02.01.02.01c.02-.01-.21.14-.11.08h0s.03.09.03.09l.09.22c.05.13.13.26.13.44,0,.38-.37,1-.92,1.66l-1.57,1.89c-.27.33-.54.66-.78.97-.12.16-.23.32-.32.46-.05.07-.08.13-.11.18,0,.01-.03.05-.02.04-.06-.03-.25-.1-.38-.13-.14-.04-.2-.07-.32-.09-.12,0-.18-.02-.24-.02-.08.02-.1.02-.11.02h-.01s.22-.2.22-.2h0s0-.03,0-.03c.02-.03.07-.14.06-.2.02-.1.05-.27.04-.4-.03-.19,0-.12.01-.13.01,0,.02,0,.06,0,.06-.01.11-.02.19-.04.64-.17,1.41-.64,2.15-1.06.75-.43,1.51-.88,2.31-1.31.8-.42,1.63-.8,2.52-1.14.89-.32,1.83-.61,2.94-.62.49,0,1.02.07,1.55.29l1.68.71-1.43.99c-.45.31-.87.52-1.27.81l-1.18.86c-.81.54-1.62,1.07-2.42,1.62-.8.55-1.58,1.12-2.32,1.71-.72.57-1.51,1.24-1.88,1.79-.05.05-.01.13-.11.08-.35-.08-.45-.04-.48-.03l-.31-.72c.77.05,1.74-.39,2.64-.93.91-.55,1.8-1.2,2.72-1.85,1.82-1.31,3.75-2.64,6.01-3.45.18-.08.37-.12.56-.17l.65-.17c.54-.16,1.06-.13,1.58-.17.26-.01.52-.04.77-.04l.68.09c.44.07.97.08,1.2.28.29.18.64.28.88.52.06.21-.04.34-.09.48-.06.13-.15.26-.25.39-.34.52-1.18,1.15-2.09,1.72l-1.02.65-.79.48-1.43.85-2.86,1.68c-1.87,1.11-3.77,2.29-5.26,3.71-.21.21-.39.43-.52.62-.05.08-.1.19-.09.19.05,0-.15,0-.14,0-.03,0-.07,0-.1,0-.07.03,0,0,.02-.01.02-.02.03-.04.04-.05l-.27.19c.04-.09.08-.19.1-.28.02-.09.02-.23.01-.19-.01,0-.05,0-.03,0l.18-.06c.11-.02.28-.11.42-.16.29-.12.6-.27.9-.42l1.82-.94c1.22-.63,2.45-1.26,3.72-1.83.69-.31,1.37-.62,2.08-.89,2.69-.98,3.73-.78,4.39-.42.15.08.34.15.43.24.15.14-.05.32-.5.57-.24.12-.52.27-.86.44-.34.18-.75.31-1.2.5-1.77.68-3.55,1.48-5.34,2.39-.9.46-1.81.92-2.72,1.38-.46.23-.93.47-1.43.7-.24.12-.51.23-.8.35-.12.06-.34.12-.53.17l-.15.04-.08.02-.19.02c-.25.02-.52-.01-.76-.07l-.26-.06-.22-.22c-.21-.2-.4-.47-.51-.73-.09-.26-.14-.6-.12-.83.02-.19.07-.39.13-.57.05-.14.11-.25.17-.37.24-.44.47-.7.7-.96.45-.49.9-.88,1.36-1.26.91-.74,1.85-1.39,2.8-2.02,2.05-1.35,4.12-2.47,6.16-3.64l.38-.22h.01s.03-.01.03-.01l.07-.03c.1-.04.02-.07-.03-.07l.06-.06Z"/><path class="cls-1" d="m159.81,375.14l7.11.11c.87.02,1.74-.03,2.61,0,3.07.11,6.15.36,9.21.83,1.36.23,2.73.45,4.06.83,1.69.44,3.49,1.12,4.68,2.56.37.43.26.42-.24.35-.5-.1-1.45-.04-2.32-.31-.81-.18-1.59-.41-2.39-.62-.81-.19-1.63-.34-2.46-.48-1.66-.33-3.36-.58-5.1-.83-2.08-.29-4.27-.23-6.42-.25l-7.14-.04-4.42-.03c-2.23-.02-4.48-.12-6.72-.29-1.74-.15-3.48-.22-5.27-.78-.39-.15-.78-.29-1.17-.5-.35-.24-.64-.41-.85-.63-.2-.23-.34-.44-.43-.62-.17-.38-.11-.7.03-.96.07-.12.13-.26.21-.34.15-.14.38-.13.63-.05.13.04.25.11.39.18.17.06.34.13.5.23,1.04.54,2.42.82,3.87,1.03,1.45.2,2.99.32,4.56.4,2.32.11,4.7.15,7.08.15v.05Z"/><path class="cls-1" d="m194.75,449.42c-3.55,1.77-7.3,2.93-11.04,4.01-1.37.35-2.75.7-4.13,1.01-.61.13-1.22.28-1.83.39l-1.84.29-3.68.57c-2.46.3-4.93.53-7.38.8-2.19.13-4.38.35-6.55.53-1.39.12-2.79.15-4.19.21-1.4.05-2.8.07-4.2-.08-.88-.31-.76-.2-.04-.6.36-.22.87-.4,1.49-.62.62-.22,1.35-.39,2.14-.45l4.22-.36c1.4-.18,2.81-.28,4.22-.41,2.82-.17,5.62-.57,8.45-.82,1.7-.14,3.39-.53,5.1-.85,1.72-.29,3.4-.78,5.08-1.2.92-.25,1.86-.42,2.76-.72l2.71-.86,1.36-.43c.45-.16.88-.35,1.32-.52l2.64-1.06c2.1-1,4.21-2,6.14-3.3l1.12-.7c.36-.25.7-.53,1.05-.8.69-.54,1.41-1.05,2.08-1.63l1.91-1.81c.64-.6,1.16-1.31,1.75-1.95.93-.99,1.6-2.17,2.37-3.26.37-.56.65-1.17,1.01-1.73.34-.58.7-1.13,1-1.74.27-.52.53-1.05.82-1.57,1.07-1.94,1.56-2.5,2.19-2.75.15-.06.3-.14.42-.16.4-.06.3.9-.16,2.54-.78,2.38-1.78,4.81-3.2,7.07-.76,1.09-1.44,2.26-2.35,3.27-.43.52-.87,1.05-1.32,1.55-.45.51-.98.95-1.47,1.42-1.43,1.44-3.1,2.6-4.73,3.79-1.72,1.05-3.41,2.15-5.23,2.97l-.03-.05Z"/><path class="cls-1" d="m307.72,429.98c2.65-3.89,4.73-8.22,6.38-12.71.57-1.65,1.11-3.32,1.59-5,1.83-5.91,3.04-12.02,3.94-18.19.38-2.74.62-5.51.84-8.25.12-1.76.24-3.53.36-5.29.08-1.77.36-3.53.56-5.3.19-1.12.24-.94.37,0,.09.55.21,1.21.33,1.94.07.42.14.85.21,1.31.04.23.06.47.1.72,0,.25.01.5.02.75.17,7.27-.49,14.57-1.95,21.79-.89,4.31-1.76,8.81-3.09,13.13-1.46,4.74-3.36,9.38-5.85,13.71-1.48,2.69-3.34,5.18-5.34,7.53-3.09,3.51-6.94,6.41-11.19,8.32-3.27,1.58-6.78,2.45-10.35,2.92-.79.07-1.56.16-2.36.19-2.96.02-3.88-.48-4.44-1.11-.13-.15-.3-.29-.37-.43-.11-.23.13-.41.66-.6.53-.18,1.34-.4,2.36-.41,6.03-.29,12.19-1.71,17.4-5.12,3.85-2.53,7.12-5.99,9.75-9.93l.06.03Z"/><path class="cls-1" d="m428.21,348.53c2.04-7.13,3.63-14.43,4.9-21.78.47-2.68.83-5.39,1.25-8.08,1.48-9.5,2.54-19.08,3.17-28.69.28-4.27.39-8.56.44-12.8,0-2.72.02-5.45.03-8.18l.1-4.09c.02-1.36.15-2.73.2-4.1.09-1.7.23-1.49.64-.06.22.78.5,1.79.83,2.96.3,1.23.55,2.69.7,4.27.06.7.13,1.4.17,2.1l.06,2.1.06,4.21c.03,2.81-.05,5.61-.15,8.42-.21,5.61-.6,11.23-1.21,16.85-.73,6.72-1.28,13.73-2.26,20.58-1.09,7.53-2.58,15.01-4.44,22.4-1.16,4.55-2.48,9.06-4.02,13.49-2.34,6.71-5.24,13.31-9.09,19.32-2.99,4.63-6.47,9.04-11.22,12.18-1.06.66-2.12,1.28-3.28,1.79-2.16.91-3.7,1.26-4.79,1.26-1.09.07-1.74-.12-2.26-.41-.24-.13-.54-.25-.68-.39-.47-.51,1.3-1.01,4.11-2.2,2.1-.83,4.07-1.99,5.89-3.39,1.84-1.36,3.55-2.96,5.11-4.73,3.12-3.56,5.73-7.73,7.93-12.16,3.27-6.58,5.75-13.66,7.75-20.87h.08Z"/><path class="cls-1" d="m170,361.49c-.88.36-1.76.73-2.63,1.12-.32.14-.61.33-.93.47-1.13.49-2.26.96-3.38,1.48-.5.22-.98.47-1.45.73-.3.17-.61.34-.91.51-.32.14-.66.23-1.01.32-.22.05-.28-.11-.23-.39.06-.27.18-.73.47-1.04,1.15-.84,2.32-1.64,3.67-2.14.8-.32,1.52-.84,2.29-1.25l2.55-1.33,1.59-.8c.8-.41,1.64-.78,2.43-1.2.61-.33,1.15-.77,1.72-1.16.12-.09.24-.18.38-.25.49-.28.78-.09,1.11.33.08.1.16.19.23.29.22.33.17.76-.1,1.16-.89.96-2.07,1.49-3.19,2.05-.86.38-1.72.77-2.58,1.15l-.03-.05Z"/><path class="cls-1" d="m206.48,442.03s6.85,5.23,29.6,5.82c22.75.6,40.18-1.83,40.18-1.83,0,0-12.16-3.97-12.16-18.66s6.48-25.5,4.39-41.37c-2.09-15.87-3.34-25.97-11.01-30.89-7.68-4.92-14.92-4.11-19.65.29-4.73,4.4-10.33,6.39-15.75,30.6s-5.3,37.02-9.57,45.35c-4.27,8.33-6.01,10.68-6.01,10.68Z"/><path class="cls-1" d="m321.38,388.19s45.04,4.03,59.01-.61c0,0-7.82-6.48-6.76-18.48,1.06-12,3.44-46.41-2.77-59.78-6.2-13.37-9.09-16.82-18.25-15.12-9.15,1.7-18.87,1.81-26.29,26.81-5.07,17.12-1.55,55.18-3.75,61.18-2.2,6-1.2,6-1.2,6Z"/><path class="cls-1" d="m297.38,218.58c2.67-2.2,5.42-4.23,8.06-6.33,1.28-1.05,2.65-2.15,3.63-3.19.11-.12.21-.24.27-.32l.03-.05s0,0,0,0c.11.06.23.12.35.17.24.1.36.18.57.22.14.05.28.06.36.05.2-.04,0-.03-.05.21-.03.07-.06.15-.07.22,0,.07-.02.15-.05.28-.05.21-.03.49-.05.65h-.47c-.65.04-1.34.2-2.03.44-2.05.73-4.01,2.14-5.94,3.56-.86.63-1.7,1.29-2.55,1.97l-1.27,1.02-.64.52-.7.59c-1.41,1.2-2.97,2.36-4.2,2.79-.59.19-1.13.3-1.64.28-.49,0-1.12-.21-1.57-.75-.39-.47-.43-1.17-.45-1.77,0-.62.13-1.25.35-1.9.44-1.29,1.45-2.7,2.66-3.94.49-.5.85-.83,1.3-1.23.43-.38.86-.74,1.3-1.1.87-.71,1.77-1.37,2.67-2.01,1.6-1.14,3.22-2.24,4.73-3.38.37-.28.74-.57,1.06-.86.16-.14.31-.29.42-.41.06-.06.1-.12.11-.15,0-.01,0,0,0,0,.06.04.21.1.28.13.07.04.15.06.23.08.07.02.1.03.17.03.09,0,.12-.02.1,0h0s-.2.14-.2.14h0s-.01.01-.01.01l-.02.02s-.02.03-.03.04c-.03.04-.11.14-.13.22,0,.03-.03.09-.07.17-.04.09-.01.03-.02.05-.02-.01-.18-.02-.34-.01-.35.03-.76.11-1.18.24-2.16.66-4.28,1.92-6.26,3.21-2,1.31-3.8,2.88-5.5,4.54-1.02,1.06-1.26.74-.92-.67.3-1.43,1.56-3.85,3.94-5.76,2.09-1.7,4.37-3.1,7.03-4.1.68-.24,1.38-.47,2.24-.6.46-.05.92-.11,1.65.02.22.05.41.1.64.2.28.14.49.24.77.5.13.13.26.26.37.41.13.16.33.56.38.83.07.3.08.63.05.83-.01.11-.03.24-.06.34l-.07.23c-.22.58-.43.82-.6,1.04-.17.21-.33.37-.48.52-.3.29-.57.53-.84.76-.54.45-1.07.84-1.59,1.23-2.09,1.52-4.12,2.95-6.06,4.43-.49.37-.96.74-1.42,1.12l-.68.58-.56.5c-.19.13-.43.32-.66.65-.13.19-.24.43-.25.68-.04.3.28.35.45.26.4-.15.79-.48,1.17-.79l.4-.32c.16-.12.3-.25.45-.37l.9-.76,1.82-1.52c1.23-1,2.51-1.99,3.87-2.88,1.5-.97,3.09-1.89,4.94-2.46.92-.28,1.91-.48,2.96-.45.06,0,.12,0,.26.01.12.02.2.01.39.07.23.04.91.32,1.16,1.02.05.15.08.31.09.46,0,.14,0,.22-.02.33-.03.24-.08.32-.12.46-.09.23-.19.39-.27.52-.35.53-.67.84-1.01,1.18-1.31,1.29-2.64,2.36-3.98,3.46l-3.97,3.27c-1.62,1.34-3.22,2.69-4.79,4.06-1.55,1.37-3.09,2.79-4.31,4.33-.33.42-.63.86-.84,1.28-.23.41-.27.82-.25.86l-.57-.22s.07-.14.07-.33c.02,0,.07,0,.17-.02.18-.04.43-.14.68-.27.5-.26,1.03-.6,1.54-.96,1.03-.72,2.05-1.53,3.07-2.34,2.05-1.61,4.06-3.31,6.35-4.74,1.07-.68,2.19-1.29,3.34-1.84.14-.07.29-.14.43-.2l.52-.23c.42-.18.83-.31,1.25-.46.84-.29,1.68-.47,2.45-.56.75-.04,1.44,0,2,.27.14.07.27.17.41.28.11.13.3.26.31.41l.14.45c.03.15-.05.34-.08.5-.14.69-.33,1.31-.76,2.02-.15.34-.48.7-.73,1.06-.25.36-.59.71-.93,1.06l-.44.47c-.15.17-.31.3-.39.38l-.61.56c-.41.36-.82.72-1.24,1.06-3.16,2.53-3.94,3.12-4.94,3.42-.21.07-.44.25-.63.33-.16.06-.27.02-.32-.18-.05-.19-.06-.6.1-.99.27-.87,1.03-1.91,2.08-3,.77-.79,1.54-1.57,2.32-2.37.38-.39.75-.78,1.11-1.17.12-.13.13-.13.13-.15l.03-.06s.04-.07.05-.1c.06-.13.07-.22.03-.29-.06-.08-.26.02-.31.05-.04.02-.07.04-.09.06,0,0-.02.02-.02.02-.15.06-.45.2-.66.3-.94.45-1.87.96-2.77,1.53-.91.57-1.75,1.17-2.63,1.85-.88.68-1.76,1.39-2.65,2.12-1.15.93-2.29,1.88-3.55,2.81-.64.47-1.29.93-2.09,1.39-.41.22-.84.45-1.46.65-.34.09-.67.19-1.22.19-.51,0-1.26-.14-1.89-.64l-.54-.42-.21-.62c-.22-.67-.21-1.28-.14-1.79.08-.48.21-.89.35-1.22.29-.69.62-1.21.96-1.69.67-.96,1.38-1.74,2.1-2.5,1.44-1.5,2.93-2.83,4.43-4.14l.06.06Z"/><path class="cls-1" d="m211.25,306.67l9.33.2c1.13.02,2.27-.02,3.4.03,3.99.16,7.99.39,11.97.61,1.77.09,3.55.18,5.3.22,1.13.03,2.26.05,3.39.16.56.06,1.13.09,1.69.21.56.13,1.11.25,1.68.38.69.18.59.33-.02.63-.3.15-.74.35-1.26.57-.26.1-.54.24-.84.31-.3.06-.61.11-.94.13-4.61.27-9.18,0-13.81-.43-2.76-.26-5.65-.17-8.48-.23-3.11-.06-6.23-.12-9.35-.14-1.92-.01-3.84-.02-5.76,0-2.9.03-5.83.06-8.71.21-2.24.11-4.43.39-6.63.61-.49.05-.96.09-1.45.11-.46.01-.83.01-1.15,0-.32-.03-.58-.11-.8-.17-.43-.14-.69-.31-.9-.55-.1-.11-.22-.21-.28-.31-.19-.31.53-.72,1.84-1.17,1.96-.48,4-.74,6.06-.94,2.07-.2,4.17-.34,6.27-.4,3.13-.11,6.28-.12,9.41-.13v.07Z"/><path class="cls-1" d="m201.27,318.24l7.36.24c.89.03,1.79,0,2.68.05,3.15.14,6.3.27,9.45.36,1.4.05,2.8.04,4.19.03.89,0,1.78-.06,2.67-.02.89.04,1.79.12,2.68.2.56.06.49.17.02.36-.46.18-1.32.54-2.35.73-1.82.25-3.64.28-5.47.36-1.83.08-3.66.05-5.49-.05-2.2-.11-4.48,0-6.73-.01-2.47,0-4.94-.07-7.41-.13l-4.56-.09c-2.3-.03-4.61-.07-6.89-.02-1.77.04-3.51.24-5.26.34-.39.02-.76.06-1.15.07-.36.01-.66.01-.91,0-.25-.03-.46-.1-.62-.15-.34-.13-.53-.28-.7-.49-.07-.1-.17-.19-.21-.28-.15-.28.43-.61,1.48-.93,3.13-.56,6.45-.62,9.78-.66,2.47-.02,4.95.03,7.43.05v.05Z"/><path class="cls-1" d="m189.25,326.64c1.26.04,2.53.14,3.79.25.46.03.92.02,1.38.07,1.61.17,3.23.34,4.84.51.72.07,1.43.13,2.14.2.91.07,1.82.15,2.72.34.28.06.23.2-.02.36-.25.15-.71.35-1.23.38-.93.05-1.86.11-2.79.13-.93.03-1.85-.07-2.78-.15-1.11-.12-2.28-.03-3.42-.03-1.25-.01-2.51,0-3.76-.03-.77-.01-1.55-.02-2.32-.01-1.17.02-2.35.02-3.5.12-.9.09-1.77.31-2.65.44-.19.03-.39.05-.58.05-.74,0-.98-.14-1.18-.57-.04-.1-.1-.19-.13-.29-.1-.32.17-.64.7-.88,1.55-.79,3.27-.83,4.98-.92,1.27-.05,2.55-.03,3.83-.02v.05Z"/><path class="cls-1" d="m144.55,371.77l-.03.57v.14s-.01.02-.01.03c0,.01-.03.04,0,.05-.06.06-.02.12.02.15.07.04-.03.04.47.15.77.17,1.68.25,2.58.32,1.83.12,3.72.14,5.61.15l4.59-.09c5.41.01,10.87.08,16.31.58,2.41.21,4.85.43,7.24.78,3.06.42,6.26,1.05,8.89,2.92.79.62.6.67-.29.71-.91.06-2.51.29-4.16.02-2.93-.56-5.9-1.07-8.95-1.36-3.04-.32-6.13-.5-9.24-.73-3.73-.29-7.63-.07-11.49-.04-2.12.01-4.25.02-6.39-.04-1.07-.03-2.15-.08-3.25-.19-.55-.06-1.1-.13-1.67-.23-.29-.06-.57-.12-.88-.21-.39-.12-.78-.27-1.12-.47-.33-.2-.63-.46-.83-.8-.1-.17-.16-.35-.2-.54-.03-.19-.02-.39-.05-.57l.11-1.81c.03-.53.04-1.07.13-1.6.15-1.06.22-2.13.47-3.18.76-3.98,2.22-7.86,4.42-11.24,1.68-2.63,3.61-5.08,5.98-7.11.54-.42,1.03-.88,1.61-1.26,1.04-.74,1.8-1.13,2.36-1.34.59-.17.97-.17,1.33-.08.16.04.36.06.47.12.37.18-.31,1.03-1.66,2.18-1.02.83-1.98,1.73-2.9,2.67-.94.92-1.86,1.87-2.68,2.9-1.68,2.04-3.1,4.31-4.16,6.76-1.62,3.62-2.4,7.62-2.55,11.67h-.07Z"/><path class="cls-1" d="m197.13,357.59c-.75.98-1.48,1.99-2.08,3.08-.22.4-.38.82-.57,1.23-.36.71-.68,1.44-1.04,2.17-.31.75-.6,1.51-.8,2.3-.11.35-.16.71-.23,1.06-.06.36-.14.71-.17,1.07-.06.92-.16,1.85-.4,2.79-.08.29-.26.27-.51.02-.24-.24-.64-.71-.81-1.28-.2-1.01-.22-2.04-.17-3.07.13-1.02.36-2.04.74-3,.21-.58.41-1.18.59-1.78.2-.6.45-1.18.71-1.76.63-1.23,1.33-2.42,2.14-3.52.47-.7,1.01-1.33,1.52-1.99.8-.97,1.67-1.89,2.49-2.82.64-.72,1.16-1.54,1.8-2.25.14-.16.28-.31.43-.46.3-.26.51-.41.74-.43.26.01.47.09.7.22.11.06.22.11.3.17.14.11.21.27.23.5.02.23.04.57-.12.8-.77,1.58-1.98,2.76-3.06,4.06-.83.94-1.63,1.91-2.38,2.91l-.05-.03Z"/><path class="cls-1" d="m181.47,355.96c-2.58.97-5.05,2.19-7.55,3.47-.92.46-1.79,1.01-2.73,1.48-.64.39-1.42.53-2.15.85-.37.15-.77.3-1.25.39-.47.09-1.16.04-1.67-.27-2.1-1.4-3.37-3.4-4.46-5.32-.81-1.41-1.63-2.79-2.62-3.98-1.26-1.55-2.76-2.77-4.47-3.95-.53-.38-.47-.32.09-.24.54.09,1.71.07,2.88.67l.73.45.69.51c.48.33.86.75,1.25,1.17.74.86,1.39,1.76,1.97,2.68,1.16,1.83,2.12,3.64,3.37,5.1.22.26.47.47.71.71.25.21.56.42.79.58.08.2.98-.04,1.69-.51.68-.56,1.48-1.01,2.25-1.51,2.4-1.56,5-2.93,7.66-4.11,1.64-.73,3.31-1.37,5-1.96,2.56-.88,5.2-1.55,7.81-2.16,2.03-.49,4.03-.95,6.07-1.28.45-.06.89-.15,1.35-.17,1.7-.08,2.26.12,2.65.66.09.13.21.25.26.37.19.41-.47.85-1.65,1.19-1.74.58-3.53.93-5.31,1.43-.89.24-1.79.44-2.7.62-.9.22-1.81.41-2.71.65-2.68.67-5.33,1.5-7.9,2.53l-.03-.06Z"/><path class="cls-1" d="m172.22,364.96c.25.34.51.67.8.99.11.12.25.19.36.31.38.42.77.86,1.18,1.27.18.18.4.33.61.47.28.18.59.31.75.64.1.21-1,1.16-1.31.97-.55-.35-1.04-.76-1.46-1.32-.25-.34-.63-.51-.95-.79-.35-.3-.69-.62-1.01-.97-.2-.21-.39-.43-.59-.64-.28-.33-.56-.66-.84-.99-.23-.24-.51-.43-.77-.65-.06-.05-.13-.08-.15-.16-.1-.26-.03-.42.23-.69l.18-.18c.2-.18.46-.24.72-.21.43.03.63.22.89.37.23.17.48.33.64.55.26.32.5.65.76.97l-.03.03Z"/><path class="cls-1" d="m252.42,449.57c-3.67.16-7.36.2-11.05.22-1.35-.02-2.7.03-4.04,0-4.75-.21-9.49-.64-14.18-1.42l-3.11-.57c-1.04-.19-2.08-.34-3.09-.59-1.31-.29-2.64-.55-3.92-.95-1.28-.42-2.55-.89-3.79-1.4-.77-.32-.55-.62.24-.81.79-.17,2.16-.3,3.64-.01,2.66.39,5.23,1.06,7.88,1.42l1.97.34c.66.1,1.33.16,1.99.27,1.33.19,2.65.45,4,.6,1.6.2,3.25.37,4.91.37,1.66.05,3.33.07,4.99.05,3.65.04,7.31-.1,10.98-.25,2.26-.12,4.51-.24,6.77-.4,3.42-.23,6.87-.45,10.27-.75,2.65-.23,5.23-.61,7.87-.84.58-.05,1.14-.14,1.73-.14,2.18-.08,2.88.25,3.34.94.11.16.24.32.31.48.2.52-.67,1.02-2.23,1.32-4.61.7-9.47,1.04-14.4,1.46-3.66.29-7.35.56-11.06.75v-.07Z"/><path class="cls-1" d="m360.32,391.49c-2.94.04-5.88.12-8.83.11-1.08,0-2.15.08-3.23.06-3.8-.08-7.61-.19-11.4-.6-1.68-.13-3.37-.33-5.04-.47-1.07-.15-2.15-.24-3.21-.46-1.06-.23-2.1-.53-3.13-.84-.64-.2-.5-.41.11-.6.61-.18,1.7-.42,2.91-.36,1.08,0,2.15.08,3.22.18l3.21.19c2.15.11,4.3.18,6.48.35,2.6.21,5.32,0,7.99-.08l8.85-.26,5.46-.18c2.76-.1,5.54-.13,8.28-.24,2.14-.06,4.23-.3,6.36-.36.47,0,.93-.04,1.4-.01,1.75.09,2.3.35,2.62,1.08.07.17.17.33.21.5.13.54-.61.99-1.87,1.14-.93.1-1.88.21-2.82.32-.95.07-1.9.08-2.87.14-1.93.08-3.89.13-5.86.19-2.94.09-5.89.18-8.84.27v-.07Z"/><path class="cls-1" d="m101.37,372.9c2.68-5.52,6.02-10.88,10.61-15.23.58-.54,1.14-1.09,1.73-1.61l1.88-1.45.94-.72,1.01-.63c.68-.4,1.33-.86,2.03-1.22,2.77-1.51,5.69-2.63,8.63-3.57,4.32-1.3,8.72-2.19,13.13-2.69,7.78-.88,15.57-.93,23.3-.68,7.74.24,15.43.82,23.11,1.4,6.81.53,13.66.98,20.41,1.31,8.68.45,17.33.33,25.95.24,1.36.07,1.97.16,1.95.3-.02.14-.65.36-1.75.86-2.18,1.06-6.45,2.37-11.54,2.5-9.02.16-17.94-.37-26.82-1.08-8.88-.7-17.75-1.51-26.65-2.07-10.63-.64-21.78-.48-32.39,1.33-1.47.22-2.89.59-4.33.88l-2.13.57-1.06.29-1.04.35c-2.81.84-5.47,2.06-7.99,3.46l-1.84,1.13c-.58.42-1.15.87-1.73,1.3-1.19.82-2.18,1.9-3.26,2.87-.52.5-.98,1.08-1.47,1.61-.47.55-1,1.07-1.42,1.67-.88,1.17-1.8,2.32-2.56,3.58-1.03,1.49-1.88,3.1-2.77,4.69-.8,1.64-1.65,3.25-2.34,4.95-.76,1.67-1.38,3.39-2.04,5.1-.59,1.74-1.2,3.47-1.71,5.23-1.62,5.33-2.88,10.79-3.96,16.29-1.06,5.55-2.46,11.07-4.5,16.35-1.54,4.11-3.46,8.07-5.91,11.71-2.44,3.64-5.44,6.96-9.07,9.57-.82.54-1.58,1.16-2.44,1.63-.87.46-1.73.92-2.61,1.38-1.7.7-3.15,1.24-4.4,1.52-1.26.24-2.27.42-3.11.51-1.7.09-2.7-.17-3.48-.4-.36-.11-.82-.19-1.03-.27-.35-.15.2-.38,1.41-.83.6-.24,1.39-.45,2.31-.68.9-.34,1.96-.67,3.14-1.03,3.43-1.27,6.73-2.92,9.62-5.24,2.9-2.3,5.34-5.22,7.44-8.39,2.1-3.18,3.84-6.66,5.22-10.32,1.4-3.65,2.52-7.45,3.39-11.32l.88-4.35c.28-1.49.57-2.99.88-4.48.62-2.99,1.3-5.97,2.1-8.93,1.58-5.93,3.53-11.81,6.21-17.42l.08.02Z"/><path class="cls-1" d="m336.49,302.22c-3.54,3.81-5.97,8.72-7.82,13.79-.42,1.29-.88,2.58-1.27,3.87l-.52,1.95-.43,1.98c-.53,2.66-.94,5.38-1.21,8.13-1.12,11.01-1.05,22.27-1.29,33.53-.22,11.26-.55,22.59-1.96,33.9-.71,5.65-1.73,11.29-3.25,16.83-.74,2.78-1.69,5.51-2.72,8.21-1.14,2.68-2.29,5.3-3.86,7.86-2.29,3.7-5.3,6.95-8.81,9.51-3.53,2.56-7.55,4.38-11.75,5.45l-1.62.36c-.54.1-1.07.16-1.6.24-1.04.13-2.09.27-3.16.35-2.13.18-4.32.21-6.55-.11-2.22-.29-4.48-1.01-6.49-2.25-.51-.29-.96-.67-1.44-1.01-.43-.39-.9-.76-1.29-1.19l-1.15-1.3c-.4-.42-.66-.94-.99-1.41-1.14-1.69-1.83-3.58-2.39-5.46-.47-1.89-.8-3.81-.9-5.7-.25-3.79.01-7.51.4-11.15.4-3.64.94-7.22,1.31-10.76.37-3.58.69-7.15.89-10.72.37-7.13.33-14.31-.76-21.28-.54-3.48-1.36-6.91-2.64-10.11-.64-1.6-1.39-3.14-2.32-4.55-.89-1.43-1.97-2.72-3.2-3.81-2.4-2.25-5.6-3.53-8.82-3.88-3.23-.24-6.5.69-9.3,2.56-.72.42-1.37.98-2.05,1.48-.63.57-1.3,1.11-1.89,1.73-1.22,1.2-2.33,2.54-3.34,3.95-1.02,1.4-1.89,2.88-2.71,4.45-.82,1.55-1.56,3.15-2.23,4.79-2.69,6.54-4.3,13.54-5.58,20.61-1.28,7.07-2.21,14.25-3.51,21.41-1.18,6.34-2.61,12.74-5.19,18.83-2.55,6.05-6.52,11.77-12.14,15.58-5.63,3.69-11.98,5.65-18.29,7.11-6.34,1.42-12.75,2.19-19.14,2.71-8.21.67-16.45.79-24.67.66-8.22-.13-16.44-.53-24.64-1.14-8.19-.62-16.37-1.39-24.52-2.38-8.14-1-16.26-2.16-24.34-3.44-10.07-1.68-8.65-1.88-.02-1.26,4.32.31,10.43.76,17.82,1.29,3.69.26,7.7.54,11.96.84,4.25.32,8.75.66,13.44,1.01,8.3.62,16.61,1.05,24.92,1.25,8.3.2,16.6.14,24.86-.31,8.25-.44,16.48-1.29,24.41-3.11,7.87-1.85,15.73-4.6,20.8-10.38,2.63-2.82,4.6-6.27,6.19-9.92,1.58-3.66,2.69-7.59,3.63-11.57,1.85-8,2.87-16.31,4.3-24.63,1.43-8.31,3.16-16.76,6.54-24.78l.64-1.5.71-1.47c.45-.99.99-1.94,1.51-2.9,1.05-1.94,2.33-3.79,3.73-5.51,2.82-3.41,6.29-6.54,10.7-8.22,2.61-1.01,5.52-1.41,8.34-1.05,2.81.35,5.51,1.31,7.87,2.87,2.37,1.55,4.32,3.63,5.84,5.91,1.53,2.29,2.66,4.76,3.54,7.29,1.75,5.07,2.53,10.32,2.93,15.55.39,5.23.35,10.48.07,15.69-.3,5.21-.78,10.41-1.45,15.58-.66,5.14-1.32,10.22-1.18,15.21.1,2.48.42,4.92,1.15,7.18.72,2.26,1.89,4.31,3.52,5.92,1.63,1.57,3.68,2.61,5.98,3.06,2.29.49,4.75.45,7.22.24,1.35-.13,2.76-.29,4.07-.51,1.27-.28,2.59-.6,3.86-1.05,2.55-.86,4.99-2.04,7.21-3.56,4.48-3,8.04-7.21,10.37-12.14,2.47-4.92,4.16-10.25,5.42-15.68,1.26-5.44,2.09-10.99,2.66-16.58,1.13-11.19,1.33-22.5,1.51-33.83.09-5.67.18-11.34.4-17.03.22-5.69.58-11.39,1.41-17.09.53-3.49,1.24-7.04,2.42-10.4l.85-2.53c.28-.84.67-1.65,1.01-2.48.36-.82.67-1.66,1.07-2.46l1.25-2.39c1.77-3.11,3.82-6.16,6.55-8.62,2.68-2.49,5.92-4.45,9.46-5.51,3.54-1.06,7.31-1.19,10.91-.64.45.08.9.13,1.35.25l1.36.38c.93.2,1.76.68,2.63,1.05.45.17.81.47,1.22.71.39.26.8.5,1.18.78l1.07.92c.35.31.72.6,1.01.96,2.58,2.7,4.32,5.98,5.61,9.32,1.29,3.35,2.15,6.82,2.79,10.3.95,5.28,1.4,10.61,1.57,15.94.18,5.33.08,10.65-.18,15.96-.26,5.31-.71,10.61-1.23,15.87l-.18,1.96c-.03.63-.1,1.26-.08,1.89-.03,1.26.09,2.53.24,3.78.36,2.5,1.02,4.98,2.06,7.28,1.01,2.31,2.4,4.44,4.09,6.26,1.72,1.78,3.76,3.2,6.1,4.04,1.15.47,2.37.73,3.59.97,1.23.17,2.48.31,3.74.27,2.51,0,5.01-.46,7.39-1.26,4.73-1.74,9.21-4.51,12.92-7.99,1.89-1.72,3.56-3.66,5.09-5.72,1.53-2.05,2.88-4.24,4.04-6.52,3.71-7.08,5.59-14.95,7.18-22.83,1.54-7.89,2.81-15.82,3.74-23.79,1.93-15.92,3.09-31.91,3.45-47.96.04-3.54.13-7.03.11-10.53-.06-3.5-.04-7.01-.12-10.57-.22-13.21-1.23-21.83-1.67-27.91-.35-3.02-.6-5.41-.74-7.41-.03-.5-.06-.97-.09-1.43-.05-.45-.09-.88-.14-1.29-.08-.82-.14-1.58-.18-2.29-.08-1.3-.27-3.02-.26-3.8.02-1.32.74.61,2.16,5.28.17.59.36,1.21.56,1.88.15.68.3,1.39.47,2.15.31,1.52.65,3.21,1.02,5.04.41,1.83.58,3.85.89,5.99.26,2.15.62,4.44.78,6.88,1.31,14.45,1.5,29.15,1,43.96-.51,14.81-1.67,29.75-3.59,44.73-.43,3.75-1.08,7.49-1.62,11.24-.29,1.87-.66,3.74-.98,5.62-.34,1.87-.65,3.75-1.09,5.62l-1.23,5.62-1.48,5.61c-1.07,3.76-2.45,7.48-4.22,11.04-3.51,7.11-8.69,13.67-15.43,18.27-.86.54-1.7,1.12-2.58,1.63-.89.48-1.76,1.02-2.68,1.44-1.78.88-3.77,1.73-5.81,2.26-4.08,1.08-8.41,1.3-12.62.34-3.11-.72-6.19-2.08-8.72-4.22-1.28-1.05-2.37-2.22-3.34-3.49-.99-1.25-1.82-2.6-2.54-4-1.45-2.79-2.39-5.78-2.91-8.84-.27-1.53-.39-3.08-.43-4.64-.04-1.56.12-3.16.25-4.54,1.16-11.25,1.92-22.47,1.46-33.64-.25-5.57-.79-11.12-1.98-16.45-.62-2.65-1.35-5.27-2.38-7.72-1.04-2.43-2.32-4.72-3.97-6.58-1.64-1.86-3.65-3.25-5.92-3.96-1.1-.35-2.41-.62-3.69-.72-1.28-.14-2.57-.13-3.84-.05-5.12.35-9.8,2.91-13.33,6.73l-.1-.03Z"/><path class="cls-1" d="m224.93,288.78c9.36-.22,18.62.24,27.85.72,3.37.18,6.74.28,10.1.49,11.85.74,23.68,1.56,35.52,1.86,5.25.13,10.53.09,15.73-.14,3.34-.13,6.67-.4,10-.69,3.32-.35,6.63-.65,9.98-.8,2.09-.08,1.88.22.23,1.06-.83.4-2.01,1.09-3.49,1.57-.74.25-1.55.54-2.42.76-.87.18-1.81.32-2.78.43-13.83,1.47-27.64,1.1-41.46.23-8.27-.54-16.87-.82-25.32-1.25-9.28-.46-18.56-.95-27.81-.94-5.68.04-11.4.16-16.93,1.06-2.1.31-4.15.81-6.12,1.46l-1.42.57c-.48.18-.93.48-1.4.71-.92.52-1.89.94-2.73,1.57-3.55,2.26-6.72,5.13-9.37,8.41-2.03,2.57-3.83,5.28-5.33,8.16-1.48,2.88-2.78,5.84-3.84,8.9-.44,1.35-.88,2.68-1.25,4.06-.21.63-.4,1.21-.57,1.74-.16.53-.31,1.02-.44,1.46-.3.88-.49,1.6-.71,2.18-.47,1.16-.84,1.82-1.26,2.35-.19.24-.37.57-.51.71-.24.23-.36-.2-.5-1.24-.09-.52-.12-1.18-.09-1.97.01-.79.1-1.7.27-2.71.23-1.5.5-3.01.9-4.5.44-1.47.85-2.97,1.4-4.43,1.02-2.95,2.32-5.84,3.83-8.65,1.47-2.83,3.33-5.5,5.3-8.09l1.6-1.86.81-.93.88-.87,1.76-1.74,1.91-1.59c.92-.83,1.98-1.47,3-2.17,1-.73,2.12-1.29,3.21-1.88.56-.28,1.06-.61,1.68-.85l1.82-.73c1.21-.36,2.43-.77,3.63-.99,4.82-1.04,9.58-1.37,14.31-1.55l.02.09Z"/><path class="cls-1" d="m338.08,194.36c3.8.98,7.57,1.83,11.48,2.53,3.89.73,7.79,1.39,11.7,2,2.85.43,5.72.76,8.57,1.11,10.06,1.33,20.19,2.11,30.33,1.94,2.24-.09,4.5-.12,6.74-.35,1.12-.1,2.24-.2,3.36-.3,1.11-.15,2.22-.29,3.32-.44l2.13-.29,2.11-.39c1.41-.27,2.82-.48,4.22-.78,2.82-.53,5.61-1.11,8.52-1.34,1.81-.15,1.65.11.33,1.06-.66.47-1.61,1.16-2.78,1.95-.59.39-1.27.66-1.99.93-.73.27-1.51.52-2.33.72-11.73,2.69-23.84,3.28-35.82,2.4-7.17-.53-14.61-1.02-21.87-2-3.99-.54-7.96-1.15-11.92-1.84-3.96-.67-7.9-1.39-11.87-2.23-4.86-1.09-9.64-2.45-14.36-3.89-7.15-2.18-14.23-4.61-21.44-5.84-5.6-.98-11.19-1.09-16.73-.56-1.22.06-2.41.29-3.64.43-1.14.11-2.09.21-2.88.29-.79.1-1.44.14-1.98.14-1.08,0-1.74-.17-2.32-.5-.26-.15-.6-.29-.77-.45-.58-.54,1.19-1.44,4.59-2.39,5.07-1.19,10.5-1.64,15.98-1.39,5.48.25,10.97,1.28,16.27,2.67,7.88,2.08,15.41,4.77,23.07,6.71v.09Z"/><path class="cls-1" d="m284,225.22c.19,4.42.1,8.84-.08,13.24-.1,1.61-.12,3.22-.23,4.82-.51,5.65-1.34,11.26-2.48,16.79l-.74,3.69c-.26,1.23-.52,2.45-.77,3.67-.33,1.56-.69,3.12-1.09,4.67-.42,1.54-.97,3.05-1.62,4.52-.41.92-.64.7-.82-.22-.09-.46-.18-1.1-.25-1.86-.04-.75.02-1.6.19-2.49.24-1.6.68-3.14,1.01-4.71l.98-4.72c.3-1.58.61-3.16.91-4.74.27-1.59.55-3.18.87-4.77.67-3.82.94-7.85,1.14-11.81l.18-3.27.07-3.27c.09-2.18,0-4.36-.02-6.55-.01-1.34-.12-2.69-.17-4.03-.06-1.34-.14-2.69-.28-4.02-.19-2.03-.34-4.07-.64-6.08-.25-2.02-.53-4.04-.93-6.03-.54-3.1-1.44-6.07-2.22-9.07-.19-.66-.42-1.29-.58-1.96-.31-1.24-.47-2.07-.46-2.68.03-.62.22-1.02.51-1.38.13-.16.24-.36.36-.47.21-.18.47-.05.84.34.38.38.77,1.05,1.1,1.94,2.05,5.3,3.17,11.19,4.06,17.11.3,2.21.6,4.42.77,6.64l.29,3.34.18,3.34h-.07Z"/><path class="cls-1" d="m291.19,225.66l-.03,2.92c-.02.12-.13.47.13.41h.29s.15,0,.15,0l.34-.02c.91-.09,1.81-.19,2.73-.19,3.22,0,6.47.32,9.69.95,1.43.29,2.87.63,4.24,1.16.87.36,1.79.7,2.55,1.32.78.57,1.5,1.28,1.87,2.21.25.55.14.52-.42.4-.29-.05-.66-.14-1.15-.13-.46-.03-.87-.16-1.32-.3l-.57-.21c-.2-.05-.4-.1-.58-.18-.36-.16-.76-.27-1.14-.39-.77-.25-1.59-.38-2.4-.61-1.62-.43-3.34-.75-5.1-1.05-2.12-.37-4.37-.17-6.59-.19-.51.01-1.03,0-1.55,0h-.39s-.57.02-.57.02l-1.15.05-.7-.15-.35-.07c-.12,0-.23-.08-.29-.18-.26-.37-.4-.86-.44-1.43-.03-.28-.04-.56-.05-.85v-.71s-.02-1.08-.02-1.08c0-1.53.02-3.05-.02-4.56-.05-2.29-.11-4.6-.38-6.85-.21-1.75-.65-3.44-1.06-5.11-.08-.37-.19-.73-.26-1.1-.15-.69-.18-1.16-.09-1.52.04-.18.1-.33.18-.46.1-.14.23-.26.35-.37.11-.1.2-.22.29-.29.21-.2,1.03.19,1.53,1.21.33.76.63,1.54.89,2.33.22.8.4,1.62.56,2.45.31,1.66.5,3.35.63,5.04.19,2.51.22,5.04.25,7.53h-.07Z"/><path class="cls-1" d="m307.86,202.95c.67.21,1.34.46,2.01.7.66.28,1.33.52,1.98.84.65.32,1.3.62,1.93,1.01.31.19.64.35.94.58l.46.32c.19.15.5.3.68.51l.11.11.05.06.03.03h0s0,0,0,0c.01,0-.09.07-.05.04h0s0,0,0,0v.02s.17.26.17.26c.1.18.15.39.23.58.19.45.2.63.26.9.12.51.2,1,.28,1.51.25,1.77.4,3.53.52,5.29.11,1.76.1,3.54.1,5.3-.04,1.57-.04,3.15-.16,4.71-.05,1-.23,2.01-.41,3.01-.22,1-.64,1.96-1.13,2.86-.31.56-.47.38-.59-.21-.06-.3-.13-.7-.18-1.15-.04-.46-.22-1.01-.11-1.52.08-.95.13-1.9.14-2.87.08-.95.07-1.93.1-2.9,0-1.95-.05-3.92-.1-5.91-.05-2.38-.5-4.85-.95-7.22l-.17-.85c-.02-.13-.04-.25-.17-.31l-.08-.06-.19-.13-.39-.27-.83-.47c-1.11-.63-2.33-1.13-3.57-1.58-1.53-.54-3.12-.98-4.73-1.33-2.44-.52-4.94-.92-7.43-1.09-1.94-.13-3.85-.02-5.76.06-.42,0-.83.05-1.26.04-.79,0-1.31-.09-1.67-.24-.37-.21-.59-.44-.76-.71-.08-.13-.19-.24-.24-.35-.08-.18.04-.35.32-.57.29-.22.74-.54,1.33-.64.88-.19,1.77-.31,2.68-.4.9-.07,1.82-.09,2.74-.09,1.85,0,3.72.12,5.59.35,2.78.35,5.55.92,8.29,1.72l-.02.07Z"/><path class="cls-1" d="m389.32,226.31c-3.67-.59-7.33-1.32-10.95-2.21-1.32-.34-2.66-.6-3.95-.99-4.57-1.35-9.01-2.93-13.52-4.19-2-.57-4.04-1-6.06-1.33-.65-.11-1.3-.2-1.95-.28-.65-.11-1.3-.2-1.95-.29-.65-.11-1.3-.16-1.95-.3-.65-.15-1.3-.26-1.96-.39-.82-.17-.71-.4,0-.75.36-.17.87-.4,1.5-.62.31-.1.66-.21,1.02-.28.36-.05.75-.09,1.14-.07,2.82,0,5.57.59,8.27,1.19,2.7.63,5.35,1.42,7.96,2.29,3.12,1.05,6.44,1.84,9.66,2.64,3.53.88,7.12,1.57,10.74,2.11,2.23.35,4.47.62,6.71.85,3.4.33,6.83.6,10.23.61,2.64.01,5.23-.22,7.81-.48.57-.05,1.12-.15,1.7-.19,2.13-.05,2.82.1,3.35.98.12.18.27.35.35.52.25.5-.57,1.31-2.17,1.66-1.17.29-2.38.47-3.6.59-1.22.14-2.45.21-3.69.27-2.48.1-5.01.07-7.52-.1-3.74-.22-7.48-.66-11.2-1.19v-.08Z"/><path class="cls-1" d="m388.5,243.12c-3.7-.74-7.37-1.58-11.02-2.44-1.33-.32-2.68-.56-4.01-.89-4.67-1.16-9.32-2.38-14-3.41-2.08-.43-4.18-.81-6.26-1.06-2.67-.45-5.35-.49-8.01-1.08-.83-.17-.73-.44,0-.82.36-.19.88-.42,1.52-.64.32-.11.67-.24,1.04-.31.37-.07.76-.06,1.16-.05,1.41.09,2.85.13,4.24.32,1.4.18,2.8.4,4.17.68,2.76.53,5.49,1.18,8.21,1.92,3.25.88,6.68,1.51,10.01,2.25,3.67.83,7.34,1.64,11.02,2.36,2.26.46,4.54.83,6.81,1.21,1.73.22,3.46.5,5.19.69,1.74.15,3.47.37,5.19.4,1.34.03,2.67.02,3.99-.02,1.32-.11,2.63-.21,3.95-.32.58-.03,1.14-.14,1.72-.21,1.07-.13,1.78-.15,2.3-.03.26.06.47.14.65.26.18.14.33.3.47.48.13.16.29.31.37.45.27.42-.54,1.23-2.17,1.56-2.42.55-4.94.66-7.49.79-2.55-.03-5.14-.08-7.7-.36-3.82-.33-7.6-.98-11.35-1.65v-.07Z"/><path class="cls-1" d="m395.02,265.18c-2.95-.33-5.89-.72-8.81-1.19-1.07-.15-2.14-.28-3.2-.48-3.74-.69-7.45-1.52-11.12-2.45-1.64-.39-3.27-.8-4.89-1.22-1.03-.28-2.07-.56-3.11-.84-1.02-.35-2.01-.78-3-1.19-.61-.27-.49-.37.11-.42.6-.04,1.71-.15,2.94,0,2.13.43,4.24.88,6.36,1.33,2.1.5,4.21,1,6.34,1.5,2.54.63,5.25.92,7.89,1.29,2.91.41,5.82.75,8.75,1.01l2.7.23,2.71.16c2.73.14,5.49.22,8.21.14,1.06-.04,2.1-.12,3.14-.22,1.04-.1,2.07-.26,3.11-.35.46-.04.91-.08,1.37-.13.85-.07,1.42-.03,1.83.11.41.13.65.33.86.62.1.13.22.26.28.39.2.42-.47.9-1.72,1.3-.93.22-1.88.43-2.85.59-.97.12-1.95.24-2.94.31-.99.07-1.99.11-2.99.15-1,.03-2.01,0-3.01-.02-2.99-.06-5.99-.29-8.97-.56v-.06Z"/><path class="cls-1" d="m407.04,299.75c-1.6.03-3.19.02-4.77-.02-.58,0-1.15.04-1.73.01-2.04-.16-4.06-.4-6.08-.65-.89-.09-1.79-.18-2.67-.28-1.14-.09-2.27-.34-3.37-.68-.34-.11-.28-.25.04-.42.32-.17.9-.44,1.56-.52.58-.07,1.16-.14,1.74-.13.57,0,1.15-.06,1.72-.02,1.14.05,2.28.13,3.43.24,1.38.16,2.81-.04,4.22-.05,1.55-.02,3.1-.05,4.65-.13.95-.05,1.91-.11,2.86-.21,1.44-.14,2.89-.3,4.3-.59,1.1-.23,2.13-.63,3.18-.98.23-.08.45-.16.69-.22.22-.05.41-.08.56-.09.16,0,.31.07.43.13.25.13.42.32.59.6.08.13.17.25.22.37.19.39-.07.91-.65,1.44-.91.55-1.91.92-2.93,1.22-1.03.29-2.08.54-3.16.66-1.59.22-3.21.31-4.81.4v-.07Z"/><path class="cls-1" d="m405.09,316.26c-1.31,0-2.62-.04-3.92-.11-.47-.01-.95.02-1.42-.02-1.67-.13-3.32-.43-4.95-.69-.73-.09-1.45-.25-2.17-.36-.92-.16-1.83-.35-2.72-.65-.28-.09-.22-.19.04-.29.26-.1.74-.26,1.27-.29.94-.04,1.87-.08,2.82-.12.93,0,1.85.11,2.78.21,1.11.14,2.28,0,3.42,0,1.25-.01,2.51-.04,3.76-.12.77-.05,1.55-.1,2.31-.19,1.16-.14,2.34-.24,3.48-.5.88-.22,1.71-.57,2.56-.84.19-.06.36-.14.56-.19.35-.12.62-.02.82.05.2.09.35.24.49.47.07.1.14.2.19.3.17.32-.03.74-.49,1.18-.71.57-1.51.89-2.32,1.25-.83.27-1.7.47-2.57.63-1.29.27-2.63.28-3.95.35v-.06Z"/><path class="cls-1" d="m403.25,332.29c-.9-.04-1.81-.09-2.71-.13-.33-.02-.65.03-.98,0-1.15-.08-2.34-.25-3.52-.53-.52-.13-1.05-.22-1.56-.4-.65-.22-1.3-.55-1.76-1.09-.14-.17,0-.31.28-.4.27-.09.66-.2.99-.14,1.14.16,2.26.31,3.49.48.74.11,1.55,0,2.34-.03.87-.02,1.75-.04,2.63-.07.54-.02,1.08-.04,1.62-.08.82-.04,1.64-.06,2.44-.21.62-.1,1.2-.4,1.81-.53.13-.03.26-.07.4-.09.51-.05.7.08.9.55.05.11.1.21.14.32.12.36-.03.72-.37.97-1.01.85-2.22,1.02-3.42,1.24-.9.14-1.81.22-2.72.21v-.06Z"/><path class="cls-1" d="m138.27,406.41c-3.2-.32-6.35-.84-9.46-1.25-1.14-.16-2.27-.19-3.41-.34-3.98-.42-8.01-.61-12.06-.52-1.79,0-3.6.18-5.37.33-1.14.06-2.29.18-3.43.27-1.14.13-2.31.02-3.47,0-.72-.04-.65-.24-.08-.6.29-.18.69-.41,1.19-.66.25-.12.52-.25.81-.37.15-.06.3-.11.45-.18.16-.03.32-.07.48-.1,1.17-.2,2.33-.41,3.51-.56,1.18-.14,2.36-.22,3.54-.31,2.37-.12,4.76-.19,7.16-.07,2.86.1,5.86.12,8.78.42,3.21.32,6.36.81,9.5,1.15l2.91.28,2.91.19,4.43.16c1.48,0,2.95,0,4.42-.04,2.28-.13,4.51-.36,6.75-.64.49-.06.98-.15,1.48-.16,1.85-.08,2.46.09,2.9.74.1.15.23.28.29.42.21.45-.51.99-1.87,1.28-2.01.5-4.09.71-6.22.85-1.06.07-2.13.13-3.21.18-1.08.01-2.16.02-3.25.04-3.22.01-6.47-.18-9.7-.45v-.07Z"/><path class="cls-1" d="m131.4,415.35l-7.59-.55c-.92-.06-1.85-.04-2.77-.11-3.25-.25-6.49-.53-9.73-.69-1.44-.07-2.89-.09-4.31-.05-.92.02-1.83.08-2.74.06-.92-.02-1.82-.03-2.75-.2-.58-.1-.53-.41-.08-.88.45-.45,1.32-1.21,2.4-1.34,1.9-.36,3.81-.34,5.7-.37,1.9-.03,3.79.16,5.69.35,2.27.26,4.63.18,6.95.28l7.64.4c1.57.09,3.13.18,4.7.24,2.37.09,4.75.21,7.1.16,1.83-.05,3.61-.28,5.4-.48.39-.05.78-.08,1.18-.11,1.47-.04,1.96.24,2.32.89.08.15.19.3.24.45.18.49-.4.98-1.49,1.34-1.62.52-3.31.66-5.01.79-1.71.12-3.43.13-5.16.13-2.57-.02-5.13-.14-7.69-.24v-.08Z"/><path class="cls-1" d="m120.7,425.55c-1.52-.3-3.02-.61-4.53-.87-.55-.09-1.1-.11-1.65-.21-1.93-.32-3.85-.63-5.78-.77-.43-.02-.86-.02-1.29-.02-.43.03-.85.07-1.27.08-1.09.09-2.15.27-3.25.36-.35.02-.38-.22-.17-.57.21-.34.66-.85,1.3-1.11,2.28-.88,4.72-1.01,7.06-.74,1.4.21,2.85.18,4.27.33,1.55.16,3.09.39,4.62.6l2.82.39c1.42.18,2.85.39,4.26.43,1.1.03,2.18-.13,3.26-.23.24-.02.47-.08.71-.09.88,0,1.16.22,1.38.93.05.16.11.32.14.48.11.54-.25,1-.93,1.24-2.02.66-4.18.61-6.28.44-1.57-.13-3.13-.34-4.66-.6v-.07Z"/><path class="cls-1" d="m192.15,126.61c.55,1.74,1.08,3.48,1.57,5.23.18.64.42,1.25.59,1.89.6,2.25,1.05,4.53,1.6,6.78.24,1,.53,1.99.84,2.96.41,1.24.79,2.49.96,3.8.05.41-.3.46-.76.24-.46-.22-1.05-.7-1.35-1.41-.54-1.24-.89-2.52-1.27-3.8-.37-1.28-.7-2.58-.97-3.9-.33-1.58-.94-3.13-1.4-4.7-.52-1.72-1.04-3.44-1.62-5.14-.35-1.05-.72-2.09-1.11-3.12-.61-1.56-1.23-3.12-1.99-4.59-.3-.57-.63-1.12-.97-1.66-.35-.53-.74-1.04-1.05-1.59-.14-.24-.31-.46-.45-.7-.27-.44-.39-.77-.36-1.07,0-.28.1-.5.28-.74.08-.11.15-.23.23-.31.27-.28.81-.1,1.46.43,1.7,1.72,2.81,3.97,3.83,6.23.76,1.68,1.39,3.43,2.02,5.16l-.05.02Z"/><path class="cls-1" d="m212.73,120.98c2.03,1.8,4.11,3.56,6.21,5.33.76.66,1.58,1.25,2.33,1.92,2.65,2.37,5.21,4.9,7.61,7.54.55.57,1.08,1.16,1.6,1.76.52.6,1.08,1.15,1.58,1.76.65.77,1.35,1.5,1.96,2.31.57.83,1.11,1.7,1.59,2.58.3.56-.06.72-.74.58-.67-.14-1.75-.52-2.59-1.28-1.46-1.38-2.77-2.87-4.19-4.26-1.35-1.46-2.71-2.92-4.08-4.39-1.64-1.78-3.69-3.26-5.62-4.83-2.12-1.73-4.23-3.52-6.35-5.31-1.3-1.11-2.58-2.23-3.87-3.36-1.95-1.7-3.82-3.5-5.74-5.21-1.48-1.34-3.01-2.56-4.49-3.88-.32-.29-.64-.58-.94-.9-.55-.6-.89-1.02-1.03-1.4-.12-.4-.1-.73.02-1.08.05-.16.09-.34.16-.47.12-.22.36-.28.73-.23.37.05.88.19,1.36.54,1.49.97,2.88,2.1,4.28,3.24,1.39,1.16,2.77,2.34,4.11,3.59,2.03,1.8,4.05,3.64,6.15,5.39l-.05.07Z"/><path class="cls-1" d="m218.39,101.48c1.64.23,3.3.43,4.97.54.61.05,1.22,0,1.83.02,2.15.12,4.32.27,6.49.26.96.01,1.93-.11,2.88-.19,1.22-.11,2.44-.28,3.7-.15.39.04.4.46.13.95-.27.48-.8,1.08-1.5,1.28-2.48.72-5.04.88-7.63.75-1.54-.07-3.14.09-4.72.08-1.74-.03-3.47-.13-5.2-.28-1.07-.09-2.13-.21-3.19-.33-1.61-.2-3.21-.51-4.8-.72-1.23-.18-2.49-.18-3.72-.38-.27-.03-.55-.05-.81-.14-.98-.31-1.24-.61-1.27-1.33,0-.16-.03-.33-.01-.48.05-.52.56-.85,1.31-.92,2.24-.24,4.38.15,6.6.38,1.64.19,3.3.39,4.95.58v.08Z"/><path class="cls-1" d="m266.91,67.79s6.19-.1,5.5-5.69c0,0,3.12-.56,3.4,2.85s-2.54,4.78-4.45,5.44c-1.91.66-4.45-2.59-4.45-2.59Z"/><path class="cls-1" d="m275.9,68.05c-.89,1.76-2.45,2.89-4.07,3.44-.6.19-1.2.41-1.84.44-1.12.06-2.25-.13-3.29-.65-1.05-.53-1.9-1.36-2.35-2.38-.42-.88-.67-1.85-.59-2.85.1-.64.32-1.27.71-1.79.42-.49.94-.88,1.52-1.02.36-.11.46.29.47.8,0,.5.02,1.13-.03,1.44-.07.28-.09.51-.02.75.05.23.05.47.16.72.2.5.51.99.93,1.48.25.28.68.44,1.13.48.45.05.93-.02,1.39-.1,1.02-.2,2.07-.66,2.75-1.46.42-.48.69-1.09.81-1.77.19-.99-.12-2.01-.95-2.44-.65-.33-1.42-.13-2.05.13-.14.07-.27.15-.44.17-.6.13-.9.1-1.38-.28-.11-.08-.23-.15-.32-.24-.31-.27-.29-.78.17-1.42.67-.99,1.96-1.56,3.35-1.48.7.01,1.42.24,2.09.58.65.39,1.27.9,1.68,1.57.63.97.88,2.08.87,3.09-.05,1.01-.23,1.86-.64,2.81l-.07-.03Z"/><path class="cls-1" d="m105.03,154.03c.14,3.6-5.86,3.04-5.86,3.04,0,0-1.14,1.21.88,2.93,2.02,1.73,5.05-.18,5.97-1.17.92-.99,1.91-3.46.92-4.8-.99-1.34-1.91,0-1.91,0Z"/><path class="cls-1" d="m107.16,159.31c-.58.67-1.28,1.17-2,1.52-.35.21-.72.33-1.08.45-.36.13-.72.25-1.12.3-.55.13-1.16.23-1.76.19-1.09-.14-2.17-.64-2.92-1.42-.77-.77-1.2-1.78-1.28-2.77-.09-.88.05-1.75.35-2.53.44-.98,1.25-1.81,2.22-2.08.3-.1.37.15.36.55-.03.4-.09.94-.23,1.32-.1.15-.13.33-.17.48-.06.15-.07.31-.08.46,0,.08-.03.14-.04.21v.21c-.04.13-.03.27-.02.4.02.54.2,1,.4,1.52.3.64,1.1.74,1.85.69.86-.02,1.95-.38,2.68-.94.49-.33.82-.81,1.03-1.33.3-.76.27-1.79-.35-2.3-.46-.42-1.09-.36-1.65-.19-.13.06-.25.14-.39.17-.5.17-.74.09-1.19-.54-.1-.14-.22-.27-.32-.41-.33-.47-.25-1.03.3-1.46.39-.33.94-.53,1.49-.69.3-.05.61-.08.93-.1.32-.02.66.07,1,.13,1.37.31,2.58,1.47,3.04,2.77.78,1.95.16,4.06-.99,5.43l-.06-.04Z"/><path class="cls-1" d="m227.59,114.24c-.61,7.1-10.82,1.2-5.34-2.78,2.18-1.58,5.58-.07,5.34,2.78Z"/><path class="cls-1" d="m485.86,241.36c-1.26,4.94-8.57-.09-3.63-2.9,2.34-1.33,4.34.14,3.63,2.9Z"/><path class="cls-1" d="m191.39,227.01c-1.92,6.17-11.24-.35-6.3-3.99,1.97-1.45,7.54,0,6.3,3.99Z"/><path class="cls-1" d="m37.56,394.16c-1.27-1.32-2.54-2.63-3.86-3.91-.48-.47-1.01-.86-1.49-1.33-1.68-1.65-3.37-3.3-5.08-4.92-.76-.72-1.59-1.37-2.4-2.01-1.05-.82-2.05-1.71-3.01-2.65-.29-.3-.04-.54.45-.61.5-.08,1.23.04,1.93.39.6.34,1.21.67,1.8,1.03.56.39,1.12.79,1.67,1.2,1.09.83,2.16,1.7,3.15,2.66,1.17,1.18,2.58,2.16,3.87,3.26,1.4,1.21,2.78,2.46,4.14,3.72l2.49,2.35c1.26,1.18,2.49,2.42,3.79,3.54,1.02.87,2.09,1.63,3.13,2.45.23.18.47.34.67.56.75.79.84,1.2.52,1.87-.07.15-.13.32-.22.45-.29.45-.93.48-1.68.13-2.21-1.07-4.11-2.63-5.91-4.32-1.33-1.26-2.67-2.53-4.01-3.8l.05-.06Z"/><path class="cls-1" d="m51.36,391.09c0-.91,0-1.82,0-2.73,0-.33-.07-.66-.06-.99.06-1.17.17-2.34.28-3.5.06-.51.06-1.03.05-1.54-.02-.65,0-1.32.33-1.95.1-.2.55-.13,1.01.07.46.2,1,.53,1.09.89.19.64.2,1.26.2,1.88.02.63-.12,1.26-.24,1.9-.17.77.03,1.56.06,2.35.04.87.07,1.74.13,2.61.04.54.07,1.08.13,1.61.08.81.13,1.64.31,2.44.15.62.46,1.19.7,1.78.05.13.13.25.17.39.13.5-.04.7-.76.96-.16.06-.32.13-.49.17-.56.16-1.07.05-1.34-.28-.78-1-1.09-2.16-1.34-3.35-.19-.88-.27-1.79-.33-2.7h.07Z"/><path class="cls-1" d="m34.07,407.91c-1.02-.05-2.05-.1-3.07-.18-.37-.02-.74.02-1.11-.01-1.31-.12-2.62-.27-3.93-.37-.58-.04-1.16-.03-1.74,0-.74.03-1.48.15-2.22-.07-.46-.13.12-1.88.96-1.97,1.49-.12,2.98-.16,4.5.05.91.13,1.84-.04,2.76-.06,1.01-.03,2.03-.02,3.05,0,.63,0,1.25.01,1.88,0,.95-.02,1.9-.01,2.83-.13.73-.1,1.43-.32,2.13-.48.16-.04.31-.1.47-.12.59-.08.79.08.98.77.04.16.1.31.13.47.11.53-.1.99-.52,1.2-1.25.62-2.61.9-4,.94-1.03.06-2.06.04-3.09.04v-.07Z"/><path class="cls-1" d="m166.44,240.85s.89-1.98-.53-3.6c-1.41-1.62,1.41-1.84,2.12,0,.71,1.84,1.16,3.18.29,3.6-.87.42-1.88,0-1.88,0Z"/><path class="cls-1" d="m168.63,236.52c.17.28.31.58.44.88.14.3.17.56.25.82.08.44.14.88.1,1.4-.01.18-.04.41-.07.6-.05.18-.11.36-.19.53-.32.61-.85,1.09-1.43,1.33-.58.25-1.17.29-1.73.21-.5-.08-1-.21-1.46-.58-.29-.23-.52-.62-.56-1.02-.04-.4.09-.75.29-1,.13-.17.37.01.63.24.14.12.27.24.38.33.13.1.26.13.28.16.02,0,.04,0,.06,0,0,0-.06.02,0,0,.02-.01.04-.02.04-.03.01-.01.07-.05.06-.04,0,0,.08.04.17.08.2.08.52.13.82.12.39-.03.55-.36.64-.69.05-.15.07-.34.02-.62-.05-.28-.11-.53-.15-.68-.05-.19-.14-.42-.29-.61-.11-.13-.26-.29-.45-.32-.19-.03-.36.09-.46.24-.16.27-.09.66.01.88.02.05.06.1.07.14.03.05-.03.17-.15.26-.12.09-.32.15-.62.2-.14.02-.28.05-.41.07-.46.04-.86-.08-1.07-.43-.68-1.52.26-3.7,1.81-3.98,1.18-.3,2.29.31,3.01,1.46l-.04.05Z"/><path class="cls-1" d="m44.47,376.13c-.07.67-.34,1.33-.7,1.9-.69,1.06-1.97,1.95-3.18,1.56-.55-.18-.99-.6-1.29-1.09-1.97-3.25,3.46-7.2,4.98-3.71.19.43.24.89.19,1.35Z"/><path class="cls-1" d="m482.96,197.1c-2.15,1.09-4.36,2.08-6.53,3.15-.79.39-1.53.87-2.33,1.25-2.8,1.36-5.61,2.7-8.36,4.15-1.23.62-2.43,1.32-3.61,2.02-.75.45-1.49.93-2.26,1.37-.78.42-1.6.75-2.44,1.06-.53.18-.67-.18-.51-.82.16-.63.56-1.62,1.32-2.32,2.92-2.14,5.94-4.12,9.29-5.58,1.99-.9,3.86-2.18,5.81-3.25,2.15-1.17,4.31-2.32,6.49-3.42l4.04-2.02c2.03-1.03,4.1-2.02,6.07-3.12,1.53-.86,2.97-1.82,4.47-2.71.33-.2.63-.42,1-.55,1.33-.54,1.85-.52,2.43-.07.13.1.28.19.38.31.34.37.03,1.03-.75,1.79-1.12,1.19-2.47,2.03-3.8,2.96-1.33.93-2.78,1.67-4.21,2.47-2.13,1.16-4.31,2.26-6.46,3.4l-.05-.08Z"/><path class="cls-1" d="m482.81,215.06c-.98.1-1.97.2-2.95.3-.36.04-.7.15-1.06.18-1.27.11-2.54.2-3.79.36-.56.07-1.1.22-1.65.3-.7.14-1.39.3-2.14.25-.23-.02-.27-.31-.16-.68.11-.36.35-.83.73-1.02.68-.3,1.34-.67,2.05-.82.71-.16,1.43-.27,2.17-.32.89-.05,1.74-.4,2.62-.6.96-.22,1.93-.39,2.91-.56l1.79-.32c.9-.19,1.82-.3,2.7-.55.68-.21,1.32-.53,1.99-.75.15-.05.28-.12.44-.16.56-.13.78.01,1.06.63.06.14.13.28.18.42.17.48.04.96-.33,1.24-.54.42-1.12.77-1.72,1.08-.61.27-1.25.41-1.9.58-.96.24-1.95.34-2.93.51l-.02-.07Z"/><path class="cls-1" d="m435.99,150.24c.7.19,1.36.69,1.71,1.27.36.58.5,1.15.56,1.72.04.42.08.83,0,1.24-.14.71-.45,1.39-.95,1.94-.52.55-1.18.96-2.01.99-.7,0-1.35-.21-1.85-.61-.32-.25-.62-.57-.79-.99-.18-.41-.19-.95.05-1.35.15-.26.44-.01.75.23.3.27.69.35.77.41.12.18.47.36.71.47.13.05.23.07.33.08.15,0,.33-.06.51-.15.46-.24.64-.93.67-1.52.05-.65-.17-1.41-.57-1.66-.24-.19-.64-.26-1.04-.18-.64.13-1.21.5-1.53,1.14-.27.48-.31,1.07-.36,1.65-.02.13-.02.26-.04.39-.09.48-.25.63-.76.65-.11,0-.23.02-.34.02-.38-.01-.66-.27-.73-.68-.11-.61-.12-1.28.07-1.97.19-.7.5-1.42,1.15-2.06.97-.9,2.26-1.38,3.72-1.06v.05Z"/></svg>