<?xml version="1.0" encoding="UTF-8" standalone="no"?><!DOCTYPE svg PUBLIC "-//W3C//DTD SVG 1.1//EN" "http://www.w3.org/Graphics/SVG/1.1/DTD/svg11.dtd"><svg width="100%" height="100%" viewBox="0 0 189 138" version="1.1" xmlns="http://www.w3.org/2000/svg" xmlns:xlink="http://www.w3.org/1999/xlink" xml:space="preserve" xmlns:serif="http://www.serif.com/" style="fill-rule:evenodd;clip-rule:evenodd;stroke-linejoin:round;stroke-miterlimit:2;"><path d="M188.672,119.137c-4.037,24.849 -56.344,17.743 -72.416,17.525c-18.951,-0.257 -61.348,0.172 -48.234,-30.3c6.499,-15.101 24.044,-24.217 43.8,-27.277c-18.469,-5.504 -33.021,-20.433 -28.916,-44.368c3.897,-22.727 22.641,-34.907 44.917,-34.715c27.012,0.232 43.446,20.067 44.245,46.185c0.003,0.112 -0.075,0.204 -0.089,0.313c0.016,0.126 0.102,0.208 0.093,0.35c-1.21,17.492 -13.235,28.241 -28.115,32.523c23.5,4.143 43.452,17.103 44.711,39.101c0.005,0.093 -0.061,0.171 -0.068,0.262c0.011,0.141 0.099,0.239 0.072,0.4Zm-111.732,-46.33c2.659,-9.313 2.282,-24.712 -8.329,-27.445c-0.124,-0.065 -0.301,-0.108 -0.499,-0.146c-0.04,-0.009 -0.074,-0.025 -0.115,-0.034c-0.043,-0.009 -0.107,0.006 -0.153,0c-0.178,-0.02 -0.291,-0.064 -0.519,-0.064c-1.93,0 -9.993,1.226 -11.591,0.102c0.905,-0.09 1.211,-8.163 0.937,-9.568c-1.64,-8.414 -6.791,-9.127 -14.208,-9.359c-5.701,-0.179 -13.377,-0.977 -18.006,3.19c-4.356,3.92 -3.816,10.052 -3.593,15.59c-9.554,-0.118 -18.744,0.19 -20.231,11.967c-0.682,5.398 -1.529,15.525 1.717,20.192c5.15,7.405 11.946,0.764 17.992,4.161c1.368,0.769 0.326,2.329 0.584,7.083c0.178,3.277 0.109,6.317 2.586,8.869c3.957,4.077 11.534,2.966 16.579,2.873c14.14,-0.26 16.334,-6.72 16.559,-18.733c8.116,0.245 17.709,0.363 20.291,-8.678Z" style="fill-rule:nonzero;"/></svg>