<?xml version="1.0" encoding="UTF-8" standalone="no"?><!DOCTYPE svg PUBLIC "-//W3C//DTD SVG 1.1//EN" "http://www.w3.org/Graphics/SVG/1.1/DTD/svg11.dtd"><svg width="100%" height="100%" viewBox="0 0 318 297" version="1.1" xmlns="http://www.w3.org/2000/svg" xmlns:xlink="http://www.w3.org/1999/xlink" xml:space="preserve" xmlns:serif="http://www.serif.com/" style="fill-rule:evenodd;clip-rule:evenodd;stroke-linejoin:round;stroke-miterlimit:2;"><g><path d="M264.178,224.375c-1.7,-10.7 -2.762,-20.129 -3.246,-28.825l-0.083,-1.821c-0.238,-5.738 -0.6,-14.408 -6.121,-17.883c-2.213,-1.396 -5.721,-1.333 -9.163,-0.879c-1.046,0.138 -2.058,0.275 -2.975,0.292c-5.246,0.096 -10.483,0.35 -15.942,0.613c-2.817,0.137 -5.787,0.017 -8.779,-0.1c-2.133,-0.083 -4.283,-0.171 -6.413,-0.171c-4.158,0 -7.446,0.338 -10.346,1.063l-0.508,0.125c-2.196,0.542 -4.908,1.217 -7.346,2.721l-0.825,0.254c-0.542,0.1 -1.567,0.471 -3.538,1.825l-2.488,2.483l0,0.512c-0.396,0.575 -0.625,1.342 -0.625,2.229l0,1.875c0,0.267 0.021,0.521 0.05,0.762c-0.175,0.275 -0.342,0.575 -0.508,0.917c-1.658,3.871 -0.846,8.392 -0.192,12.025c0.975,5.433 0.417,10.625 -0.179,16.121c-0.721,6.679 -1.471,13.587 0.771,20.908c3.062,10.025 11.567,15.104 25.283,15.104c0.696,0 1.387,-0.012 2.083,-0.037c3.842,-0.133 7.104,-1.242 10.258,-2.313c1.688,-0.571 3.392,-1.15 5.208,-1.579c4.833,-1.142 10.654,-1.271 16.283,-1.396c1.738,-0.038 3.438,-0.079 5.046,-0.146l1.558,-0.046c3.579,-0.087 6.958,-0.171 10.192,-3.454c5.071,-5.146 3.638,-14.225 2.867,-19.104l-0.325,-2.075Z" style="fill-rule:nonzero;"/><path d="M316.032,83.821c-0.283,-6.729 -0.192,-13.425 -1.029,-20.129c-1.354,-10.9 -4.792,-27.058 -18.179,-28.45c-7.317,-0.763 -14.575,0.042 -21.838,-0.996c-6.2,-0.888 -12.442,-1.746 -18.721,-1.592c-6.921,0.171 -9.633,2.742 -9.792,-5.013c0,-0.004 -0.025,-1.287 -0.025,-1.287c0,-4.3 -0.446,-11.621 -0.587,-13.858c1.442,-2.608 1.733,-6.138 -0.35,-8.546c-0.146,-0.287 -0.329,-0.575 -0.558,-0.854l0.142,-0.2c-0.304,-0.263 -0.608,-0.463 -0.929,-0.642c-1.588,-1.379 -3.888,-2.171 -4.142,-2.254l-0.221,0.492c-1.842,-0.275 -3.967,-0.017 -5.9,0.267c-2.546,0.371 -5.079,0.4 -8.104,0c-1.608,-0.212 -3.271,-0.433 -4.913,-0.433c-3.162,0 -5.575,0.875 -7.375,2.675c-3.908,3.908 -3.825,8.404 -3.754,12.367l0.017,1.604c0,0.237 0.054,0.679 0.129,1.188c0.033,0.213 0.087,0.558 0.117,0.854l-0.142,0.429c-0.729,2.188 -0.771,4.917 -0.121,7.717l-0.012,0.208c-0.058,0.8 -0.171,2.367 -0.204,4.233c-4.863,-0.612 -10.163,-0.954 -14.788,-0.446c-3.121,0.346 -58.479,1.046 -60.925,1.721c-2.1,0.583 -4.088,1.129 -6.479,1.438l-22.392,-1.233c0.037,-1.746 -0.025,-3.483 -0.075,-4.962c-0.033,-0.904 -0.062,-1.721 -0.062,-2.388l-0.104,-0.658c-0.375,-1.129 -0.521,-3.646 -0.521,-4.967c0,-1.508 -1.262,-3.25 -2.521,-4.608c-0.225,-4.838 -2.383,-8.504 -6.133,-10.379c-1.367,-0.683 -3.012,-0.8 -4.213,-0.792c-6.204,-1.012 -11.717,-0.554 -15.371,1.546c-1.954,1.3 -2.817,2.629 -3.817,4.171l-0.854,1.196l0,0.629c-0.029,0.175 -0.229,0.692 -0.412,1.058l-0.175,0.521c-0.654,3.271 -1.333,6.654 -0.667,9.783c0,1.329 0.15,2.808 0.3,4.292c0.096,0.942 0.196,1.879 0.246,2.771c-0.221,0.792 -0.429,1.587 -0.629,2.375c-0.7,2.771 -33.763,1.829 -37.108,1.979c-5.733,0.258 -15.704,0.575 -20.296,4.696c-4.925,4.417 -5.467,14.783 -6.654,20.954c-2.346,12.188 -2.5,24.608 -3.033,36.967c-0.45,10.396 1.667,20.8 -0.292,31.033c-0.304,1.596 -0.617,3.242 -0.617,4.933c0,3.6 -0.608,10.921 -0.6,10.921c-2.862,17.729 -0.633,73.992 1.729,91.758l0.775,5.892c1.271,7.617 2.529,14.546 5.079,22.192c0.346,1.029 0.85,2.062 1.367,3.092c0.425,0.846 0.854,1.688 1.25,2.808c0.537,1.079 1.387,2.092 1.883,2.637c1.292,4.133 3.717,7.587 7.258,10.404c1.329,1.325 3.896,2.471 4.825,2.858c2.758,1.95 7.888,3.692 8.213,3.779c0.629,0.317 1.175,0.629 1.683,0.925c1.496,0.863 2.917,1.683 5.046,1.788c1.562,0.608 4.233,1.083 4.892,1.183c7.387,2.079 15.475,3.088 24.729,3.088c7.829,0 15.742,-0.704 23.396,-1.383c4.192,-0.371 8.379,-0.746 12.442,-1.004c2.137,0 4.275,0.154 6.417,0.308c7.721,0.554 15.429,0.017 22.679,-0.65c5.054,-0.467 62.658,-0.908 67.338,-0.912c2.363,0.171 4.629,0.383 6.858,0.596c4.525,0.429 8.8,0.833 13.387,0.833c1.65,0 3.325,-0.054 4.9,-0.171c2.062,0 4.142,0.033 6.229,0.071c10.45,0.175 21.517,0.492 32.667,-3.967c2.242,-0.896 4.458,-2.083 6.412,-3.133c0.879,-0.471 1.721,-0.921 2.5,-1.308c0.862,-0.433 1.729,-0.954 2.679,-1.538c0.225,0.012 0.45,0.021 0.675,0.021c4.425,0 8.858,-2.746 13.658,-8.512c0.929,-1.3 2.142,-2.829 3.467,-4.496c3.088,-3.892 6.929,-8.733 9.262,-13.412c5.508,-13.221 8.054,-65.938 8.246,-82.279l0.042,-0.338l-0.017,-1.775l0.208,-1.667c0.542,-4.283 1.054,-8.329 1.054,-12.342c0,-2.508 -0.375,-6.829 -0.55,-8.692c1.3,-1.738 1.742,-3.933 1.175,-6l-0.017,-2.479c-0.342,-2.367 -0.521,-4.988 -0.692,-7.525l-0.025,-0.204c0.346,-8.808 0.825,-18.217 2.592,-27.933c1.092,-7.763 -0.704,-15.217 -1.029,-22.842Zm-19.025,65.558c-0.183,0.929 -0.35,1.854 -0.35,2.596l0,15c0,1.425 -0.138,2.854 -0.279,4.342c-0.171,1.771 -0.346,3.625 -0.346,5.654c0,0.683 -0.329,2.308 -0.592,3.388c-1.7,9.613 -4.054,59.292 -9.812,68.908c-1.946,3.9 -4.408,8.146 -6.746,11.65l-0.242,0.496c-0.587,1.754 -1.092,2.654 -1.996,3.558l-0.613,0.608l0,0.196c-0.058,0.033 -0.117,0.067 -0.175,0.1c-5.521,3.067 -11.167,5.575 -16.521,7.971c-5.358,1.788 -11.846,2.013 -16.9,2.013c-2.517,0 -5.033,-0.067 -7.479,-0.125c-2.358,-0.062 -4.658,-0.121 -6.838,-0.121c-8.417,0 -17.296,0.471 -25.883,0.929c-8.771,0.463 -70.671,0.946 -79.187,0.962c-23.279,0.046 -77.783,13.075 -85.825,-18.708c-1.2,-2.992 -1.787,-5.354 -2.413,-7.854l-0.158,-0.429c-0.179,-0.358 -0.354,-0.846 -0.538,-1.325c-0.325,-0.858 -0.65,-1.733 -1.121,-2.404c-0.004,-2.221 -0.075,-4.508 -0.625,-6.85c-0.037,-1.654 -0.454,-3.225 -0.929,-5.029l-0.325,-1.217l0,-0.987c0,-4.875 -0.35,-49.4 -0.692,-54.283c-0.446,-6.458 -0.913,-13.137 -0.567,-19.412c0.542,-7.067 1.571,-13.683 2.658,-20.688l0.458,-2.962c0.283,-2.25 0.679,-4.633 1.087,-7.088c0.292,-1.742 0.587,-3.521 0.854,-5.308c5.529,0.446 10.729,0.979 17.867,1.721l8.125,0c1.667,0 3.683,-0.412 4.504,-0.6c5.579,0.579 11.875,0.033 17.563,-0.567c3.858,-0.408 7.504,-0.792 11.246,-0.792c0.933,0 1.871,0.025 2.937,0.083c5.196,0 9.2,-0.15 13.321,-0.3c4.304,-0.158 8.733,-0.325 14.863,-0.325c20.108,-0.592 93.204,-0.154 117.146,1.25c5.792,0 9.688,-0.358 14.613,-0.817c1.521,-0.142 3.137,-0.292 4.762,-0.433c2.529,0 4.917,0.146 7.229,0.288c4.979,0.3 9.812,0.404 13.654,-0.304c3.988,-0.496 9.15,0.292 13.55,-0.954c0.075,1.338 0.137,2.604 0.196,3.738c-0.167,1.45 -0.329,2.9 -0.404,4.021c-0.688,2.75 -0.688,5.421 -0.658,8.346c0.275,1.658 0.675,3.8 1.033,5.733c0.408,2.208 0.775,4.133 0.812,4.55c0.004,0.512 -0.137,1.146 -0.267,1.783Z" style="fill-rule:nonzero;"/></g></svg>