<?xml version="1.0" encoding="UTF-8" standalone="no"?><!DOCTYPE svg PUBLIC "-//W3C//DTD SVG 1.1//EN" "http://www.w3.org/Graphics/SVG/1.1/DTD/svg11.dtd"><svg width="100%" height="100%" viewBox="0 0 407 386" version="1.1" xmlns="http://www.w3.org/2000/svg" xmlns:xlink="http://www.w3.org/1999/xlink" xml:space="preserve" xmlns:serif="http://www.serif.com/" style="fill-rule:evenodd;clip-rule:evenodd;stroke-linejoin:round;stroke-miterlimit:2;"><path d="M379.534,93.333c-10,-17.917 -27.917,-33.75 -42.083,-48.75c-13.333,-13.75 -27.083,-21.667 -45.417,-27.083c-19.583,-5.833 -39.167,-14.583 -59.167,-16.667c-75.833,-7.5 -171.25,36.25 -206.25,105.833c-9.583,19.167 -20.833,38.333 -24.167,59.583c-3.333,22.5 -3.333,47.917 0.417,70.417c3.75,22.083 17.917,41.667 30,60c13.333,20 31.25,38.333 50.833,52.083c1.667,1.25 3.75,1.667 6.25,2.083c-2.5,2.917 -2.5,6.25 3.333,9.583c15.417,8.75 32.5,12.083 49.167,16.667c20,5.833 40.417,8.75 61.25,7.917c19.167,-0.833 40,-2.5 58.75,-6.667c19.167,-4.583 31.667,-17.917 47.917,-27.917c15,-9.167 30.833,-14.167 43.333,-27.5c14.583,-15.417 27.083,-35 35.417,-54.167c15.833,-35.833 22.917,-79.583 10.833,-117.5c-5.833,-18.75 -10.833,-40.417 -20.417,-57.917Zm-5.417,127.917c-4.167,33.75 -24.167,72.5 -49.583,95.417c-12.083,10.833 -29.167,15.417 -42.5,25c-6.667,5 -12.917,10.833 -20.417,14.583c-10.417,4.583 -21.667,4.583 -32.5,5.833c-19.583,2.083 -38.333,4.583 -57.917,0.833c-16.667,-3.333 -40.833,-8.333 -55.833,-16.667c-3.333,-1.667 -7.083,-2.083 -11.25,-1.667c0.833,-2.083 0.417,-4.583 -3.333,-7.5c-28.333,-21.25 -52.5,-54.167 -66.667,-86.25c-12.083,-27.083 -10.417,-76.667 1.667,-103.75c14.167,-32.083 29.583,-59.167 57.5,-81.25c25.833,-20.833 56.667,-35 89.167,-42.917c19.583,-4.583 42.5,-5 62.083,1.25c16.25,5 35,9.167 50,17.083c15.417,7.917 26.25,24.167 37.917,36.667c14.167,14.583 22.083,27.083 27.917,46.667c5,16.25 12.917,32.5 15,49.583c2.917,15 0.417,31.667 -1.25,47.083Z" style="fill-rule:nonzero;"/><path d="M301.2,173.75c-28.75,-0.833 -57.083,-0.417 -85.833,1.25c1.25,-28.333 3.75,-58.333 -1.667,-85.417c-3.333,-18.333 -32.917,-17.917 -36.667,0c-5.833,27.917 -3.75,58.75 -2.917,87.917c-28.333,1.25 -56.25,2.917 -84.583,4.167c-18.75,0.833 -18.75,28.75 0,29.167c28.333,0.833 56.667,1.25 85,1.667c0,30 0.417,59.583 0.833,89.583c0.417,23.75 35.833,23.75 36.667,0c1.25,-29.583 1.667,-59.583 2.5,-89.167c28.75,0.417 57.917,0.417 86.667,0.417c25.833,0.417 25.833,-38.75 -0,-39.583Z" style="fill-rule:nonzero;"/></svg>