<?xml version="1.0" encoding="UTF-8" standalone="no"?><!DOCTYPE svg PUBLIC "-//W3C//DTD SVG 1.1//EN" "http://www.w3.org/Graphics/SVG/1.1/DTD/svg11.dtd"><svg width="100%" height="100%" viewBox="0 0 404 367" version="1.1" xmlns="http://www.w3.org/2000/svg" xmlns:xlink="http://www.w3.org/1999/xlink" xml:space="preserve" xmlns:serif="http://www.serif.com/" style="fill-rule:evenodd;clip-rule:evenodd;stroke-linejoin:round;stroke-miterlimit:2;"><path d="M87.37,262.925c62.917,-94.583 148.333,-166.667 233.75,-239.167c11.667,-10 23.333,-20.417 39.167,-22.917c17.917,-2.917 33.75,1.25 41.25,20.417c7.917,20.417 -5.833,25.417 -21.25,32.5c-36.667,17.083 -63.75,47.917 -92.917,74.583c-48.75,44.583 -99.167,87.5 -135.417,143.333c-14.167,22.083 -28.75,43.75 -34.167,70c-2.083,11.25 -5,21.667 -17.5,24.167c-14.583,3.333 -22.917,-7.083 -30,-17.083c-18.75,-28.333 -33.333,-58.75 -45.833,-90c-8.333,-21.25 -15,-43.333 -22.5,-65c-2.917,-7.917 -3.333,-15.833 4.167,-20.417c9.583,-6.25 18.333,-1.25 23.75,6.667c7.917,11.25 14.583,23.333 20.833,35.417c9.167,17.5 15,37.083 36.667,47.5Z" style="fill-rule:nonzero;"/></svg>