<?xml version="1.0" encoding="UTF-8" standalone="no"?><!DOCTYPE svg PUBLIC "-//W3C//DTD SVG 1.1//EN" "http://www.w3.org/Graphics/SVG/1.1/DTD/svg11.dtd"><svg width="100%" height="100%" viewBox="0 0 355 325" version="1.1" xmlns="http://www.w3.org/2000/svg" xmlns:xlink="http://www.w3.org/1999/xlink" xml:space="preserve" xmlns:serif="http://www.serif.com/" style="fill-rule:evenodd;clip-rule:evenodd;stroke-linejoin:round;stroke-miterlimit:2;"><path d="M289.547,219.475c3.596,-2.996 6.554,-8.6 6.554,-12.458c0,-5.763 1.708,-5.467 9.617,1.692c12.1,10.954 22.433,30.625 22.433,42.733c0,16.887 -17.504,23.071 -68.9,24.337c-41.288,1.012 -47.925,2.25 -49.254,9.204c-0.954,4.954 2.521,9.796 9.1,12.629c6.021,2.604 31.375,3.675 58.471,2.475c54.858,-2.438 68.504,-8.9 75.3,-35.642c4.196,-16.575 -0.954,-29.821 -26.858,-69.1l-8.525,-12.933l16.767,3.142c17.858,3.354 19.429,1.883 12.242,-11.558c-5.858,-10.912 -55.592,-41.237 -67.671,-41.237c-12,0 -14.763,8.208 -14.763,43.858c0,23.596 1.867,31.242 9.462,38.842c7.521,7.525 10.796,8.346 16.025,4.017Z" style="fill-rule:nonzero;"/><path d="M72.01,300.783c25.054,2.1 33.517,4.833 41.604,13.433c12.717,13.533 17.283,13.479 44.979,-0.554c21.821,-11.054 31.475,-24.517 25.079,-34.896c-4.654,-7.521 -50.767,-26.996 -63.938,-26.996c-8.267,0 -11.308,2.471 -11.308,9.158c0,5.033 2.05,9.154 4.571,9.154c2.525,0 4.571,2.646 4.571,5.871c0,4.396 -8.325,5.438 -33.179,4.121c-42.196,-2.225 -56.642,-8.554 -54.454,-23.854c3.654,-25.463 27.975,-59.383 42.579,-59.383c4.546,0 19.625,-7.271 33.533,-16.162c28.308,-18.117 33,-31.471 13.629,-38.837l-11.625,-4.421l19.533,-26.362c62.529,-84.429 62.167,-84.258 84.521,-39.621c9.575,19.117 21.992,39.704 27.596,45.75c22.371,24.129 33.238,4.767 14.383,-25.629c-5.467,-8.812 -15.637,-27.683 -22.629,-41.933c-12.517,-25.521 -37.154,-49.621 -50.746,-49.621c-6.896,0 -49.354,42.071 -49.454,49.017c-0.021,1.996 -10.154,14.954 -22.487,28.804c-18.1,20.308 -23.588,24.071 -28.333,19.454c-17.304,-16.813 -27.079,-2.312 -35.763,53.108c-2.9,18.521 -9.537,36.821 -18.237,50.408c-19.492,30.362 -28.971,55.158 -25.85,67.596c3.892,15.538 34.192,29.271 71.425,32.396Z" style="fill-rule:nonzero;"/></svg>