<?xml version="1.0" encoding="UTF-8" standalone="no"?><!DOCTYPE svg PUBLIC "-//W3C//DTD SVG 1.1//EN" "http://www.w3.org/Graphics/SVG/1.1/DTD/svg11.dtd"><svg width="100%" height="100%" viewBox="0 0 313 283" version="1.1" xmlns="http://www.w3.org/2000/svg" xmlns:xlink="http://www.w3.org/1999/xlink" xml:space="preserve" xmlns:serif="http://www.serif.com/" style="fill-rule:evenodd;clip-rule:evenodd;stroke-linejoin:round;stroke-miterlimit:2;"><path d="M169.167,57.269c0,2.5 0.417,4.583 0.833,6.667c0.417,2.083 0,4.167 0.417,6.667c0,0.833 0.417,2.083 0.833,2.917c0.417,1.667 0.417,2.917 0.833,4.583c0.417,0.833 0.417,1.667 0.833,2.917c0.417,0.833 0,1.667 0.417,3.333c0,0.417 0.417,1.25 0.417,1.667c0,1.25 -0.417,2.917 -0.417,4.167c0,1.25 0.417,3.333 0.417,4.583l0,7.5c0,0.417 0.417,1.25 0.417,2.083c0,1.667 -0.417,3.333 -0.417,4.167c0.417,1.25 0.833,1.25 1.667,2.083c0,0 0,0.417 0.417,0.417c0.417,0 0.833,0.833 1.25,1.25l0.833,0c0.417,0.417 0.417,0.833 1.25,1.25c0.417,0.417 0.833,0.417 1.25,0.833c0.833,0.417 1.667,2.083 2.5,2.5c0.417,0 0.833,0 0.833,0.417c0,0 0,0.417 0.417,0.417c0.417,0 0.833,0.833 1.25,1.25c0.417,0.417 0.833,0 0.833,0.417c0.417,0.417 0.833,1.25 1.25,1.667c0.417,0.417 1.667,1.25 2.5,2.083c0,0 0,0.833 0.417,0.833c0,0 1.25,0.833 2.083,0.833c0.833,0 2.083,0 3.75,-0.417c0,0 0,-0.417 0.417,-0.417c2.917,0 6.25,-1.25 8.75,-1.667c2.5,-0.417 4.583,-0.833 6.667,-0.833c0,0 0,-0.417 0.417,-0.417c0.833,0 1.667,0 2.5,-0.417c1.25,0 2.083,0 3.333,-0.417c0,0 0,-0.417 0.417,-0.417l1.25,0c0,0 0,-0.417 0.417,-0.417c1.25,0 1.667,0 2.917,-0.417l0.833,0c0.417,0 1.25,-0.417 2.5,-0.417l0.833,0c2.083,-0.417 6.25,-1.25 8.75,-1.667l1.25,0c0,0 0.833,-0.417 1.667,-0.833c0.833,-0.417 1.667,-0.417 2.917,-0.833c1.25,-0.417 2.5,-0.417 4.167,-0.833c1.25,0 2.5,0 2.917,-0.417c0.833,-0.417 1.25,-0.833 1.667,-1.25c0.417,-0.417 0.417,-0.417 0.833,-0.833c0,-0.417 0.417,-0.417 0.833,-0.833c0.417,-0.417 0,-0.833 0.417,-1.25c0,0 1.667,-1.667 2.083,-2.083l0,-0.833c0,0 0.417,-0.417 0.833,-0.417c0.417,-0.417 0,-0.833 0.417,-0.833c0.417,-0.417 0.833,-0.833 1.25,-1.25l0,-0.833c0.417,-0.417 0.833,-0.417 1.25,-0.833c0.417,-0.417 0.833,-1.25 0.833,-1.667l0.833,0c0.417,-0.417 0.833,-1.25 1.667,-1.667c0.417,-0.417 0.417,-0.833 0.833,-0.833l0.833,0c0.417,-0.417 0.417,-0.833 1.25,-0.833l0.833,0c0.833,-0.833 3.333,-1.667 5,-2.083c1.667,-0.417 5,0 6.667,-0.833c0.417,-0.417 0.833,-0.833 2.083,-0.833c0.833,-0.417 2.083,-0.417 3.75,-0.833c0.833,0 1.667,-0.417 2.5,-0.417c0.833,0 1.667,0 2.5,0.417c0,0 0,0.417 0.417,0.417c0.833,0 0.833,0.417 1.667,0.833c1.667,0.417 3.333,0.833 4.167,1.25c0,0 0,0.417 0.417,0.417c0,0 0.417,0.417 0.833,0.417c0.417,0 0.417,0.417 0.833,0.833l0.833,0c0,0 0.417,0.417 0.417,0.833c0.417,0.417 0.833,0 0.833,0.417c0,0 0,0.417 0.417,0.417c0.417,0 0.833,0.833 1.25,0.833c0,0 0.417,0.417 0.833,0.833c0.417,0 0.833,0.833 1.25,0.833c0.417,0 0.833,0.833 1.25,0.833c0.417,0.417 0.833,0.833 1.25,1.25l0.833,0c0,0 0.417,0.417 0.417,0.833c0.417,0.417 1.667,0.833 2.5,1.667c0,0.417 0,0.833 0.417,0.833c0.417,0.417 1.25,1.667 1.25,2.5c0,0.833 0.417,1.25 0.833,2.083l0,0.833c0.833,0.417 0.833,2.5 0.833,4.167c0.417,1.25 0.833,2.5 0.833,3.75c0,2.917 -1.25,5.417 -2.5,8.333c-0.417,0.417 0,0.833 -0.417,1.25c0,0 -0.417,0.417 -0.833,0.833c-0.417,0.417 -0.417,1.25 -0.833,2.083c0,0.417 0,0.833 -0.417,0.833c0,0 -0.417,0.417 -0.833,0.833c-0.417,0.417 -0.417,1.667 -0.833,2.083c-0.417,0.417 -2.083,2.083 -2.5,2.5c-0.833,0.833 -1.667,2.083 -2.917,2.917l-0.417,0.417c-0.417,0.417 -1.25,0.417 -1.667,0.833c0,0 -0.417,0.417 -0.833,0.833c-0.417,0.417 -0.833,0 -1.25,0.417c-0.417,0 -0.417,0.417 -0.833,0.833c-0.417,0 -0.833,0 -0.833,0.417c0,0 -0.417,0.417 -0.833,0.833l-0.833,0c-0.417,0 -0.833,0.417 -1.667,0.833l-1.25,0l0,0.417c-0.833,0 -1.667,0.417 -2.5,0.417c-0.417,0 -0.833,0.417 -1.25,0.417c-4.583,0.417 -9.167,-0.417 -12.917,-1.667c-0.417,0 -1.25,-0.417 -1.667,-0.833c-0.833,-0.417 -1.667,-0.417 -2.917,-0.833c0,0 0,-0.417 -0.417,-0.417l-0.417,0c-0.417,0 -0.417,-0.417 -0.833,-0.417c-0.417,0 -2.083,-0.833 -2.917,-0.833c0,0 0,-0.417 -0.417,-0.417c0,0 -0.417,-0.417 -0.833,-0.417c-0.417,0 -0.833,-0.833 -1.25,-0.833c-0.417,0 -1.667,-1.25 -2.5,-2.083c-0.833,-0.833 -2.083,-1.667 -2.917,-2.5c-0.417,-0.417 -0.833,-0.833 -0.833,-0.833l0,-0.833c-0.417,-0.417 -1.25,-0.417 -1.25,-1.667c-0.417,0 -1.25,-0.417 -1.25,-0.833c-1.667,0 -2.917,0.417 -4.167,0.833c-2.083,0.417 -5,0 -6.667,0.833c-0.417,0.417 -2.083,0.833 -2.917,0.833l-2.083,0c-0.417,0 -0.833,0.417 -1.25,0.417c-0.833,0 -1.667,-0.417 -3.333,-0.417c-2.083,0 -4.167,0.833 -6.667,0.833c-1.25,0 -2.5,0 -3.75,0.417c-0.417,0 -2.083,0.417 -2.917,0.833c-1.667,0.417 -3.333,0.833 -5,0.833l-0.833,0c-1.25,0.417 -3.75,0.417 -5.833,0.833c-1.667,0.417 -5,0 -7.083,0.833c-0.417,0 -0.833,0 -1.25,0.417c-1.25,0.833 -1.25,2.917 -1.667,5c-0.417,1.25 -0.417,1.25 -0.833,2.083c0,0.417 -0.417,0.833 -0.833,1.25c-0.417,0.417 -0.417,1.25 -0.833,1.667c0,0.417 -0.417,0.417 -0.833,0.833c-0.417,0.833 -0.417,1.25 -0.833,2.083c0,0 -0.417,0 -0.417,0.417c0,0.417 -0.417,0.833 -0.833,0.833c-0.417,0.417 -0.417,0.833 -0.833,1.667c0,0 -0.417,0 -0.417,0.417c0,0.417 -0.417,0.833 -0.833,0.833c-0.417,0.417 -1.25,1.25 -1.25,2.5c0,0.833 0.417,1.667 0.833,2.5c0.417,0.833 0.417,1.667 0.833,2.5c1.25,2.5 2.5,4.167 4.167,6.667c0,0.417 0,0.417 0.417,0.833l0.417,0.417c0.417,0.417 0,0.833 0.417,1.25c0,0.417 0.833,0.833 0.833,0.833l0,0.833c0,0 0.417,0.417 0.833,0.417c0.417,0.417 0,0.833 0.417,1.25c0,0 0.417,0.417 0.833,0.417c0.417,0.417 0,0.833 0.417,1.25c0,0 0.417,0 0.417,0.417c0,0.417 0.833,0.833 0.833,1.667c0,0.417 0.417,0.833 0.833,1.25c0.417,0.417 1.25,1.667 1.667,2.5c0,0 0.417,0.417 0.833,0.417c0.417,0.833 0.417,0.833 0.833,1.667c0.833,1.25 2.083,2.5 2.917,4.167c0,0.417 0.833,0.833 0.833,1.25c0,0.417 0.833,0.833 1.25,1.25l0,0.833c0,0 0.417,0.417 0.833,0.417c0.417,0.417 0,0.833 0.417,1.25c0,0 0.417,0.417 0.833,0.417c0.417,0.833 0.417,1.25 0.833,2.5c2.5,3.75 5,7.917 7.5,12.083c0.417,0.833 0.833,1.667 1.667,2.5l0.417,0.417c0.417,0.417 0,0.833 0.417,1.25c0,0 0.417,0.417 0.833,0.417l0,0.833c0,0 0.417,0.417 0.833,0.417c0.417,0.833 0.417,0.833 0.833,1.667c0,0.417 0.833,0.833 0.833,1.25c0,0.417 0.833,0.417 0.833,0.833c0,0.417 0.417,1.25 0.833,1.667c0,0.417 0.417,0.417 0.833,0.833l0,0.833c0,0 0.417,0.417 0.833,0.417l0,0.833c0,0 0.417,0 0.833,0.417l0,0.833c0.417,0.417 0.833,0.417 1.25,0.833c1.25,0.417 2.5,0 4.167,0c0.833,0 1.25,0.417 2.083,0.417c1.667,0.417 2.917,0.417 5,0l0.833,0l0,-0.417c2.5,-0.417 5.417,0 7.5,0.833l0.833,0c0.417,0.417 2.083,0.833 2.917,0.833l0.833,0l0,0.417l0.833,0l0,0.417l0.833,0l0,0.417l0.833,0c0,0 0.417,0.417 0.417,0.833c0.417,0.417 1.25,0.833 2.083,1.25c0.417,0.417 0.417,1.25 1.25,1.25c0.417,0 0.833,0.417 1.25,0.833c0.417,0.417 0.417,0.417 0.833,0.833c0.417,0.417 0.833,0.833 1.25,0.833c0.833,0 2.917,2.917 3.75,3.75l0.833,0c0,0 0,0.417 0.417,0.833l0.833,0.417l0,0.833c0,0.417 0.833,0.417 0.833,0.833c0,0.417 0,0.833 0.417,0.833c0,0.417 0.417,0.417 0.417,0.833c0.417,0.833 0.417,2.083 0.833,2.917c0.833,2.083 2.917,5 2.917,7.5c0.417,2.083 0,4.167 -0.833,6.25c0,0.417 -0.417,1.25 -0.833,2.083c0,0.417 -0.417,0.833 -0.833,1.667c0,0.417 0,0.833 -0.417,1.25c0,0 -0.833,0.417 -0.833,0.833c0,0.417 0,0.417 -0.417,0.833c-0.417,0.417 -1.25,1.667 -1.667,2.5c-0.417,0.417 -1.25,0.833 -1.667,1.667c-0.417,0.417 -0.833,1.667 -1.25,2.083c-0.417,0.417 -0.833,0 -0.833,0.417c0,0 0,0.417 -0.417,0.833c-0.417,0 -0.833,0 -0.833,0.417c0,0 0,0.417 -0.417,0.833c-0.417,0.417 -1.667,0.833 -2.5,0.833c0,0 0,0.417 -0.417,0.417c-0.417,0 -0.417,0.417 -0.833,0.833l-0.833,0c-0.833,0.417 -1.25,2.083 -2.083,2.5c-0.417,0.417 -1.25,0.833 -2.083,1.25c-2.5,-3.333 -3.333,-2.917 -3.75,-2.917c-1.25,0.417 -2.083,0.417 -3.75,0.417c-3.75,0.417 -8.333,0.417 -12.917,-0.417c-0.417,0 -0.417,-0.417 -0.833,-0.417c-0.833,0 -1.25,0 -2.5,-0.417l-0.833,0l0,-0.417c-1.667,-0.417 -2.917,0 -4.167,-0.417c0,0 0,-0.417 -0.417,-0.417c-0.833,0 -0.833,-0.417 -1.667,-0.833c-0.417,0 -0.833,0 -1.25,-0.417c-0.417,0 -0.417,-0.417 -0.833,-0.833c-0.417,0 -0.417,0 -0.833,-0.417c-0.417,0 -0.417,-0.417 -0.833,-0.833l-0.833,0c0,0 -0.833,-0.833 -1.25,-0.833l-0.417,0c-0.417,0 -0.417,-0.417 -0.833,-0.833l-0.833,0c-0.417,-0.417 -0.417,-0.833 -1.25,-0.833c-0.417,0 -0.833,-0.833 -1.25,-0.833c-0.833,-0.833 -1.667,-1.25 -2.5,-2.083c-1.25,-1.25 -2.917,-2.917 -4.167,-4.583c-0.417,-0.417 -0.417,-0.417 -0.833,-0.833c0,0 0,-0.417 -0.417,-0.833c0.833,0.833 0,0.417 0,0.417l0,-0.833c0,0 -0.833,-0.833 -0.833,-1.667c0,0 -0.417,-0.417 -0.417,-0.833c-0.417,-0.833 -0.417,-1.667 -0.833,-2.5c0,0 -0.417,0 -0.417,-0.417c0,-0.833 0,-0.833 -0.417,-1.667c-0.833,-2.083 -0.833,-5.417 0,-7.5l0,-0.833c0.417,-0.417 0.417,-0.417 0.833,-0.833l0,-0.833l0.417,0c0.417,-0.833 0,-1.667 0.417,-2.083c0,-0.417 0.417,-0.417 0.833,-0.833c0,-0.417 0,-0.833 0.417,-0.833c0,-0.417 0.417,-0.417 0.833,-0.833l0,-0.833c1.667,-1.25 2.5,-2.917 1.25,-5.833c0,0 -0.417,0 -0.417,-0.417c0,-0.417 -0.417,-0.833 -0.833,-1.25c0,0 -0.833,-1.25 -0.833,-2.083c0,-0.417 -0.833,-2.083 -1.25,-2.5c0,0 -0.417,0 -0.417,-0.417c0,-0.417 -0.417,-0.833 -0.833,-1.25c-0.417,-0.417 -0.833,-1.667 -1.25,-2.5c0,0 -0.417,0 -0.417,-0.417c0,-0.417 -0.417,-0.833 -0.833,-1.25c-0.417,-0.417 -0.417,-0.833 -0.833,-0.833c-0.417,-0.417 -0.417,-1.25 -0.833,-2.083c-0.417,-0.417 -0.417,-0.833 -0.833,-0.833c0,0.417 0,0 -0.417,-0.833c0,0 -0.417,-0.417 -0.833,-0.417c-0.417,-0.833 -0.417,-0.833 -0.833,-1.667c0,0 -0.417,0 -0.417,-0.417c0,-0.417 -0.833,-0.833 -0.833,-1.667c0,-0.417 0,-0.833 -0.417,-0.833c0,0 -0.417,-0.417 -0.833,-0.417l0,-0.833c0,0 -0.417,-0.417 -0.833,-0.417l0,-0.833c0,0 -0.417,-0.417 -0.833,-0.417l0,-0.833c0,-0.417 -0.417,-0.417 -0.833,-0.833c-0.417,-0.417 -0.417,-0.833 -0.833,-1.667l-0.417,-0.417c-0.417,-0.417 0,-0.833 -0.417,-1.25c0,-0.417 -0.417,-0.417 -0.833,-0.833c0,-0.417 0,-0.417 -0.417,-0.833c0,0 -0.833,-1.25 -0.833,-2.083c0,-0.417 -0.417,-0.833 -0.833,-1.25c-0.417,-0.417 -0.417,-0.833 -0.833,-0.833l-0.417,-0.417c-0.417,-0.417 0,-0.833 -0.417,-1.25c0,0 -0.417,-0.417 -0.833,-0.417l0,-0.833c0,-0.417 -0.417,-0.417 -0.833,-0.833l0,-0.833c0,0 -0.417,-0.417 -0.833,-0.417l0,-0.833c0,0 -0.417,-0.417 -0.833,-0.417l0,-0.833c-0.833,-0.417 -1.25,-2.083 -2.083,-2.917c-0.417,-0.417 -0.833,-1.667 -1.25,-2.5c0,0 -0.417,0 -0.417,-0.417c0,-0.417 -0.833,-0.417 -0.833,-0.833c0,-0.417 -0.833,-1.25 -0.833,-1.667c0,-0.417 0,-0.417 -0.417,-0.833c0,0 -0.833,-1.667 -0.833,-2.083c0,-0.417 -0.833,-0.833 -0.833,-1.667c0,-0.417 -0.833,-0.833 -0.833,-1.25c0,-0.417 -0.417,-0.833 -0.833,-1.25l-0.417,-0.417c-0.417,-0.417 0,-0.833 -0.417,-1.25c0,-0.417 -0.417,-0.417 -0.833,-0.833c2.5,2.083 2.5,1.667 2.5,1.25c0,0 -0.417,-0.417 -0.833,-0.417l0,-0.833c-0.417,-0.833 -1.25,-0.833 -1.667,-1.25c-1.667,0.417 -3.333,0.417 -5.417,0.833c0,0 0,0.417 -0.417,0.417c-2.083,0 -5,0.417 -8.333,0l-0.833,0c-0.417,-0.417 -1.667,0 -2.083,-0.417c-0.417,-0.833 -0.833,0 -2.083,-0.417c-2.083,-0.417 -5.833,-1.25 -7.917,-2.5c0,0 0,-0.417 -0.417,-0.417c-0.417,0 -0.833,-0.417 -1.667,-0.833c-0.417,0 -0.833,0 -1.25,-0.417c-0.417,0 -0.417,-0.417 -0.833,-0.833l-0.833,0l0,-0.417c-0.417,0 -0.833,0 -0.833,-0.417c0,0 -0.417,-0.417 -0.833,-0.833l-0.833,0l-0.833,-0.417c-0.417,-0.417 -2.5,-1.25 -3.333,-1.667c-0.417,0 -0.417,-0.417 -0.833,-0.833c-0.833,-0.417 -2.083,-1.667 -2.917,-2.5c-0.417,-0.417 -1.25,-1.25 -1.667,-2.083c0,0 -0.417,0 -0.417,-0.417c0,-0.417 -0.417,-0.833 -0.833,-0.833c-0.417,-0.417 -0.417,-0.833 -0.833,-1.25c-0.417,-0.417 -0.833,-1.25 -1.667,-1.667c-1.25,0 -2.083,1.25 -3.333,1.667c-0.417,0 -0.833,0.833 -1.25,0.833c-0.417,0 -0.833,0.417 -1.25,0.833c-1.25,0.833 -3.75,2.083 -5.417,3.333c-0.417,0 -0.417,0.417 -0.833,0.833c-2.5,1.667 -5,2.917 -7.5,4.583c0,0 0,0.417 -0.417,0.417c0,0 -0.417,0.417 -0.833,0.417c-0.417,0 -0.417,0.417 -0.833,0.833c-0.417,0 -0.417,0 -0.833,0.417l-0.417,0.417c-0.417,0 -0.833,0 -0.833,0.417c0,0 -0.417,0.417 -0.417,0.833l-0.833,0c0,0 -0.417,0.417 -0.417,0.833l-0.833,0c-0.417,0 -0.417,0.833 -0.833,0.833c-0.417,0.417 -0.833,0 -0.833,0.417c0,0 -0.417,0.417 -0.417,0.833c-0.417,0 -0.833,0.417 -1.25,0.833c-0.417,0.417 -1.25,0.833 -1.667,1.25c-0.417,0.417 -1.25,1.25 -1.667,1.667c-0.417,0.417 -1.25,0.833 -1.667,1.25c-0.417,0.417 -0.833,0.417 -0.833,0.833c0,0 -0.417,0.417 -0.417,0.833l-0.833,0c-0.417,0.417 -0.833,1.25 -1.25,1.667c-2.5,2.083 -5.417,3.75 -7.917,5.833c0,0 0,0.417 -0.417,0.417c-0.417,0 -0.417,0.833 -0.833,0.833c-0.417,0 -0.833,0.833 -1.25,0.833c-0.417,0.417 -0.833,0.417 -0.833,0.833c-0.417,0 -0.417,0.417 -0.833,0.833l-0.833,0c0,0 -0.417,0.417 -0.417,0.833c-0.417,0.417 -0.833,0 -0.833,0.417c0,0 -0.417,0.417 -0.417,0.833l-0.833,0c-0.417,0.417 -0.417,0.833 -0.833,0.833l-0.833,0c-0.833,0.833 -1.667,1.667 -2.5,2.5c-0.417,0.417 -0.833,0.417 -0.833,0.833c0,0.417 0.417,0.833 -0.417,0.833c0.833,1.667 1.25,3.333 1.667,4.167c0,0 0.417,0 0.417,0.417c0,0.833 0.833,1.667 0.833,2.5l0,0.833l0.417,0.417c0.417,1.25 0,3.333 0,4.583c0,2.917 0,4.583 -0.833,6.25c0,0.417 0,0.417 -0.417,0.833l0,0.833c-0.417,0.417 -0.833,1.667 -0.833,1.667l-0.417,0l0,0.833l-0.417,0l0,0.833c-0.417,0.417 -1.25,2.083 -1.667,3.333c0,0.417 -0.417,1.25 -0.833,1.667l0,0.833l-0.417,0l0,0.833c0,0 -0.833,0.833 -0.833,1.25l0,0.417c-0.417,0.417 -0.833,0.833 -0.833,0.833l0,0.833c-0.417,0.417 -0.417,0.417 -0.833,0.833c-0.417,0.417 -0.833,0.417 -0.833,0.833c-0.417,0.833 -1.25,1.667 -1.667,2.5c-0.417,0.417 -0.833,0.417 -0.833,0.833l0,0.833c-0.833,0.417 -2.5,1.667 -3.75,2.5c-0.417,0 -0.417,0.417 -0.833,0.833c-0.417,0.417 -0.833,0 -0.833,0.417c0,0 -0.417,0.417 -0.833,0.833l-0.833,0l0,0.417l-0.833,0c-0.833,0.833 -3.75,1.25 -5.833,1.667l-1.25,0c-1.25,0.417 -4.167,0.417 -6.667,0.417c-1.25,0 -2.083,0.417 -2.917,0l-2.083,0c-1.25,0 -2.917,-0.833 -4.167,-0.833c-0.833,0 -1.667,0 -2.5,-0.417c-0.833,0 -0.833,0 -1.667,-0.417c-0.833,0 -2.917,-1.25 -3.75,-2.083c-0.417,-0.417 -0.833,-0.417 -1.25,-0.833l-0.417,-0.417c-0.417,0 -0.833,-0.833 -1.25,-0.833c0,0 -0.417,-0.417 -0.833,-0.417c-0.417,0 -0.833,0 -0.833,-0.417c0,0 -0.417,-0.417 -0.417,-0.833l-0.833,0c0,0 -0.417,-0.417 -0.417,-0.833l-0.833,0c0,0 -0.417,-0.417 -0.417,-0.833c-0.417,0 -0.833,-0.417 -1.25,-0.833c-0.417,-0.417 -1.25,-0.833 -1.667,-1.25c0,0 -0.417,-0.417 -0.417,-0.833c-0.417,0 -0.833,0 -1.25,-0.833c-0.417,-0.417 0,-0.833 -0.417,-0.833c0,0 -0.417,0 -0.833,-0.417c-0.417,-0.417 -0.417,-0.833 -0.833,-1.25c0,0 -0.417,0 -0.417,-0.417c0,-0.417 -0.417,-0.833 -0.833,-1.25l0,-0.833l-0.417,0c-0.417,-0.833 -0.833,-1.667 -0.833,-2.5c0,0 -0.417,0 -0.417,-0.417c0,-0.417 -0.833,-0.833 -0.833,-1.25c0,-0.417 -0.417,-1.25 -0.833,-1.667c0,-0.833 0.417,-2.5 0.833,-4.167c0,-1.25 0,-2.5 0.417,-4.167c0,0 0.417,0 0.417,-0.417l0,-2.083c0,0 0.417,0 0.417,-0.417c0,-0.833 0,-0.833 0.417,-1.25c0,-0.417 0,-0.833 0.417,-0.833c0,-0.417 0.417,-0.833 0.833,-1.25c0.417,-1.667 0.417,-3.333 0.833,-4.583c0,0 0.417,0 0.417,-0.417c0,-0.417 0.417,-1.25 0.833,-1.667c0.417,-0.833 1.25,-0.833 1.667,-1.667c0.833,-0.833 1.25,-2.083 2.083,-2.917c0,-0.417 0.417,-0.417 0.833,-0.833l0,-0.833c0,0 0.417,-0.417 0.833,-0.417l0,-0.833c0,0 0.417,-0.417 0.833,-0.417l0,-0.833c0,0 0.417,-0.417 0.833,-0.417c0.417,-0.417 0,-0.833 0.417,-0.833c0,0 0.417,-0.417 0.833,-0.417l0,-0.833c0.417,-0.417 0.833,-0.417 0.833,-0.833c0.833,-0.833 1.25,-1.25 2.083,-2.083c0,0 0,-0.417 0.417,-0.417l0.417,0c0.417,-0.417 0.833,-0.833 0.833,-0.833c0.417,-0.417 0.833,-0.417 1.25,-0.833c0,0 0,-0.417 0.417,-0.417c0.417,0 0.833,-0.833 1.25,-0.833l0.833,-0.417c0.417,0 0.833,-0.833 0.833,-0.833c0.417,0 1.25,0 1.667,-0.417c0,0 0,-0.417 0.417,-0.417l0.417,0l0.417,-0.417c1.25,-0.417 2.5,0 4.167,-0.417c0,0 0,-0.417 0.417,-0.417c1.667,0 5,-0.417 7.083,-0.833l4.167,0c1.25,0 2.917,0.833 4.167,1.667c0.417,0 0.833,0 1.25,0.417c0,0 0.417,0.417 0.833,0.833c1.25,0.417 2.5,0.833 4.167,0.417c0.417,-0.417 0.417,-0.417 0.833,-0.833c0.833,-0.417 1.25,-0.833 2.5,-1.667c0.417,-0.417 0.417,-0.833 0.833,-0.833c0.417,0 0.833,-0.833 0.833,-0.833c0.417,0 0.833,-0.833 1.25,-0.833c1.667,-1.25 4.167,-2.917 5.833,-4.167c0.417,-0.417 0.833,-0.833 0.833,-0.833l0.833,0c0.417,-0.417 1.667,-1.667 1.667,-1.667l0.833,0c1.25,-1.25 3.333,-2.917 4.583,-4.167c0.833,-0.833 1.667,-2.083 2.917,-2.917c0.833,-0.833 2.083,-1.667 2.917,-2.5c0.417,-0.417 0.417,-0.833 0.833,-0.833c0.417,-0.417 0.833,-0.417 1.25,-0.833c0.417,-0.417 0.417,-0.833 0.833,-0.833c0.417,0 0.833,-0.833 0.833,-0.833c0.417,0 1.667,-1.25 2.5,-1.667c0.417,0 0.833,-0.833 0.833,-0.833l0.417,0c0.417,-0.417 0.417,-0.833 0.833,-0.833c0.417,-0.417 1.25,-0.417 2.083,-0.833c0,0 0,-0.417 0.417,-0.417l0.417,0c0.417,-0.417 0.417,-0.833 0.833,-0.833c0.417,-0.417 0.833,-0.417 1.25,-0.833c0.417,-0.417 0.833,-0.833 0.833,-0.833l0.833,0c0,0 0.417,-0.417 0.417,-0.833c0.417,-0.417 0.833,-0.417 1.25,-0.833c0.417,-0.417 0.417,-0.833 0.833,-0.833l0.833,0l0,-0.417l0.833,0c0.417,-0.417 0.417,-0.833 0.833,-0.833c0.417,0 0.833,-0.833 1.25,-0.833c0.417,0 0.833,-0.833 0.833,-0.833l0.417,0c0.417,-0.417 0.833,-0.833 0.833,-0.833l0.833,0c0,0 0.417,-0.417 0.417,-0.833l0.833,0l0,-0.417l0.833,0l0,-0.417c0.417,-0.417 1.25,-0.417 2.083,-0.833c0,0 0,-0.417 0.417,-0.417l0.417,0c0.417,-0.417 0.417,-0.833 0.833,-0.833c2.083,-1.667 4.583,-2.917 7.083,-4.583c0.417,-0.417 0.417,-0.833 0.833,-0.833l0.833,0c0,0 0.417,-0.417 0.417,-0.833c0.417,-0.417 1.25,0 1.667,-0.417c0,0 0,-0.417 0.417,-0.417c0.833,0 1.25,-0.833 2.083,-1.25c0.417,-0.417 0.833,-0.417 0.833,-0.833c0.417,-0.833 0.833,-1.667 0.833,-2.5c0.417,-1.667 1.25,-2.917 2.5,-4.583c0,-0.417 0,-0.417 0.417,-0.833l0.417,-0.417c0.417,-0.417 0,-0.833 0.417,-1.25c0,-0.417 0.833,-0.417 0.833,-0.833l0,-0.833c0,0 0.417,0 0.833,-0.417c0.417,-0.833 0.833,-1.25 1.25,-2.083c0.417,-0.417 1.25,-1.25 1.667,-1.667c0.833,-0.833 1.25,-1.25 2.5,-2.083c0,0 0,-0.417 0.417,-0.417l0.417,0c0.417,-0.417 0.417,-0.833 0.833,-0.833l0.833,0c0.417,-0.417 0.833,-0.833 1.667,-1.25c2.083,-1.25 3.75,-2.5 6.667,-2.917l0.417,-0.417l2.5,0c1.667,-0.417 2.917,-0.833 3.333,-1.667c0.417,-0.833 0.417,-0.833 0.833,-2.5c0,-1.667 0,-2.917 -0.417,-4.167l0,-1.25c0,0 -0.417,0 -0.417,-0.417l0,-1.667c-0.417,-1.25 -0.417,-4.167 -0.833,-6.25c0,0 -0.417,0 -0.417,-0.417c0,-1.667 0,-2.917 -0.417,-5c-0.417,-1.667 -0.833,-3.333 -1.25,-5c-0.417,-2.083 -0.833,-4.583 -1.25,-6.667l0,-0.833c0,-0.417 -0.417,-0.833 -0.417,-2.083l0,-0.833c0,-0.417 -0.417,-2.083 -0.833,-3.333c0,0 -0.417,0 -0.417,-0.417l0,-0.833c0,-0.833 -0.417,-3.75 -0.833,-5.417c0,-1.667 0,-2.5 -0.833,-3.75c0,-0.417 -0.417,-0.833 -0.833,-1.25l-0.833,0l0,-0.417l-0.833,0l0,-0.417l-0.833,0l0,-0.417l-0.833,0l0,-0.417l-0.833,0l0,-0.417l-0.833,0c-0.417,-0.417 -2.5,-0.833 -3.333,-1.25c-0.833,-0.417 -2.083,-0.833 -2.5,-1.25c0,0 0,-0.417 -0.417,-0.417c0,0 -2.083,-1.667 -2.5,-2.083l0,-0.833l-0.417,0l0,-0.833l-0.417,0l0,-0.833c0,0 -0.417,-0.417 -0.833,-0.417l0,-0.833c-0.833,-0.833 -2.083,-1.667 -2.917,-2.917c-0.417,-0.833 -0.417,-1.25 -0.833,-2.5c-0.417,-1.667 -2.083,-5 -2.5,-7.5c0,-1.667 0,-3.75 0.417,-5c0,-0.417 0.417,-0.833 0.833,-1.25c0.417,-0.833 0.417,-2.083 0.833,-2.917c0,0 0.417,0 0.417,-0.417c0,-0.417 0.417,-0.833 0.833,-1.25l0,-0.833l0.417,0l0,-0.833l0.417,0l0,-0.833c0.417,-0.417 0.417,-0.417 0.833,-0.833c0.833,-1.25 1.667,-3.75 3.75,-4.167c0.417,-1.25 1.25,-2.083 1.667,-2.917c0.833,0 1.667,-0.833 2.5,-1.25c0,0 0.417,-0.417 0.417,-0.833l0.833,0c0,0 0.417,-0.417 0.417,-0.833l0.833,0c0,0 0,-0.417 0.417,-0.833l0.833,0l0,-0.417c0.417,-0.417 0.833,0 1.25,-0.417c0.417,-0.417 0.833,-0.417 1.667,-0.833c0.833,-0.417 2.917,-0.833 4.167,-1.25c0,0 0,-0.417 0.417,-0.417c0.417,0 0.833,0 1.25,-0.417c0.417,0 0.417,-0.417 0.833,-0.417c0.417,0 2.083,-0.417 2.917,-0.833c0.833,0 1.667,-0.417 3.75,0c0,0 0,0.417 0.417,0.417c1.25,0.417 2.917,0 4.583,0.417c1.667,0 2.5,0.417 4.167,0.833c0.833,0.417 1.667,0.417 2.5,0.833c0.417,0 0.833,0.417 1.25,0.833c0.417,0 0.833,0 0.833,0.417c0,0 0.417,0.417 0.833,0.833c0.417,0.417 1.667,0.417 2.083,0.833c0.417,0 0.417,0.417 0.833,0.833c0.417,0 0.833,0 0.833,0.417c0.417,0 0.417,0.417 0.833,0.833c0.417,0.417 0.833,1.25 1.667,1.667c0.417,0.417 0.833,0 0.833,0.417c0,0 0,0.417 0.417,0.833c0.833,0.417 1.25,0.833 2.083,2.083c0,0.417 0,0.417 0.417,0.833c0.417,0.417 0.417,0.833 0.833,0.833l0.417,0.417c0,0.417 0,0.833 0.417,0.833c0,0.417 0.833,0.417 0.833,0.833l0,0.833c0.417,0.417 0.417,0.417 0.833,0.833c0,0.417 0.417,0.417 0.417,0.833c0,0.417 0.417,2.083 0.833,3.75l0,3.333c0,2.083 0.417,4.583 0.417,6.25c0,2.083 -1.25,4.167 -1.667,6.25c0,0.417 -0.417,1.25 -0.417,1.667c-0.417,1.25 -0.417,2.083 -0.833,2.917l0,0.833l-0.417,0l0,0.833l-0.417,0l0,0.833c0,0 -0.417,0 -0.833,0.417l-0.417,0.833c-0.833,0.417 -0.833,0.417 -1.667,0.833c-0.417,0 -0.417,0.417 -0.833,0.833c2.917,1.667 2.5,2.083 2.083,2.083c0,0 -0.417,0.417 -0.833,0.833c-0.417,0.417 -0.833,0 -1.25,0.417c-0.417,0 -0.417,0.417 -0.833,0.833c-0.417,0 -0.417,0 -0.833,0.417c-0.417,0.417 -0.417,0.417 -0.833,0.833c-0.417,0.417 -1.667,0.833 -2.5,1.25c0,0 0,0.417 -0.417,0.417c-0.417,0 -0.833,0.417 -1.25,0.833l-0.833,0c0.417,-0 0.417,0.417 -0.417,0.833Zm-14.583,-35.833l-0.833,0c0,0 -0.417,0.417 -0.833,0.833c-1.25,0.417 -1.25,0.833 -2.083,1.667c-0.833,1.25 -1.667,2.917 -2.5,3.75c-0.417,0.833 -0.833,2.083 -1.25,2.5l0,0.833c0,0.417 -0.417,0.417 -0.833,0.833c-0.833,2.5 -1.25,3.75 -0.833,5.833c0.417,1.25 0.833,2.083 1.25,2.5c1.667,1.667 7.083,0.833 8.75,0.833c1.667,-0.417 3.333,-0.833 4.167,-1.25c0.833,-0.417 2.083,-0.833 2.5,-0.833c0.417,0 0.417,0 0.833,-0.417c0.833,-0.417 0.833,-0.833 1.25,-2.083l0.417,0l0,-0.833c0.417,-1.667 0.833,-4.167 0.833,-5.833c0.417,-2.5 0,-3.75 -0.833,-5.417c-2.5,-2.5 -5.833,-2.083 -10,-2.917Zm124.167,88.75c0,0 -0.417,0.417 -0.833,0.833c-0.833,0.417 -1.667,0.833 -2.083,1.25c-0.417,0.417 -0.417,0.833 -0.833,1.25c-0.417,0.417 -0.833,0.833 -0.833,1.25c0,0.417 -0.417,0.833 -0.833,0.833c-0.417,0.417 -0.833,0.417 -0.833,0.833c-0.417,0.417 -0.417,0.417 -0.833,0.833l0,0.833l-0.417,0l0,0.833l-0.417,0l0,0.833l-0.417,0l0,0.833l-0.417,0c-0.417,0.417 0,5 0.417,5.833c0.417,1.25 0.833,2.083 1.25,2.5c0.417,0.417 0.417,0.833 0.833,0.833c0.417,0 0,0.417 0.417,0.417c0.417,0.417 2.083,0.833 2.5,0.833c1.667,0 4.167,-0.833 6.667,-2.5c0.833,-0.417 2.5,-1.667 3.333,-2.5c0.833,-0.417 1.667,-1.25 2.083,-1.667c0.417,-0.417 0,-0.833 0.417,-1.25l0.417,-0.417c0,0 0.417,-0.417 0.417,-0.833c0.833,-2.5 0.417,-3.333 0,-5.833c-0.417,-1.25 0,-1.25 -0.417,-1.667l0,-0.833l-0.417,0l0,-0.833c0,0 -0.417,-0.417 -0.833,-0.833c-0.417,-0.417 -1.25,-0.833 -1.667,-0.833c0,0 -0.417,-0.417 -0.833,-0.417c-0.417,0 0,-0.417 -0.417,-0.417c-1.25,-0.417 -4.167,-0.833 -5.417,-0.833c-0.417,0 -0.417,0.417 -0.417,0.417c1.25,0.417 0.417,0 0.417,0.417Zm-122.083,13.333c0,0 -0.417,0.417 -0.833,0.833c-0.833,0.417 -1.667,0.833 -2.5,1.667c-1.25,1.25 -1.667,1.667 -2.5,2.917c-0.417,0.417 -0.833,1.25 -0.833,1.667c0,0.417 0,0.417 -0.417,0.833c0,0 -0.417,0.417 -0.833,0.833c0,0.417 0,0.417 -0.417,0.833c0,0 -0.417,0.417 -0.833,0.833c0,0.417 -0.417,1.25 -0.417,1.25c-0.417,1.25 -0.833,2.5 -0.833,2.917c0,0.417 -0.417,0.833 -0.417,1.25c-0.417,1.25 0,1.667 -0.417,2.5c-0.417,3.75 0,5 1.667,7.5c0,0.417 0,0.833 0.417,0.833c0,0.417 0.833,0.417 0.833,0.833c0.417,0.417 0,0.833 0.417,0.833c0.417,0.417 0.833,0.417 0.833,0.833c0.417,0.417 0.833,1.25 1.25,1.667c0.417,0 0.833,0 0.833,0.417c0,0 0.417,0.417 0.417,0.833l0.833,0c0,0 0.417,0.417 0.833,0.833c2.5,2.083 6.667,1.25 9.583,0.417c0.417,0 0.417,-0.417 0.417,-0.417c0.833,-0.417 1.667,-0.417 2.5,-0.833c0,0 0,-0.417 0.417,-0.833c0.417,-0.417 0.833,0 0.833,-0.417c0.417,-0.417 0.833,-0.833 1.25,-1.25c0.417,-0.417 0.833,-0.833 0.833,-1.25c0.417,-0.417 1.25,-1.25 1.25,-1.667c0,-0.417 0.417,0 0.417,-0.417c0.417,-0.833 0.833,-1.25 0.833,-1.667c0.417,-0.833 0.833,-1.25 0.833,-1.667c0,0 0.417,-0.417 0.833,-0.833c0.417,-0.417 0.417,-1.667 0.833,-2.083c0,-0.833 0,-1.667 0.417,-2.5c0.417,-1.25 0,-2.083 0,-2.5c-0.417,-1.25 0,-1.667 -0.833,-2.083l0,-0.833l-0.417,0l0,-0.833l-0.417,0l0,-0.833l-0.417,0l0,-0.833c0,-0.417 -0.833,-0.833 -0.833,-0.833c-0.417,-0.417 -1.25,-1.25 -1.667,-1.667l-0.833,0c-0.833,-0.833 -1.25,-1.25 -2.083,-2.083c-1.667,-1.667 -4.167,-4.167 -5.417,-5.833l-0.833,0c-0.417,-0.417 -0.833,-0.833 -0.833,-0.833c-0.417,-0.417 -0.833,0 -1.25,-0.833l-0.833,0c0,1.25 -0.833,1.667 -1.667,2.5Zm-130.833,93.75c-0,0 0.417,0.417 0.833,0.833c0,0.417 0,0.833 0.417,0.833c0.417,0.417 0.417,1.25 0.833,1.667c0.417,0.417 1.25,1.667 1.25,1.667c0.417,0 0,0.417 0.417,0.417c0.417,0 0.833,0 0.833,0.417c0.417,0.417 1.667,1.667 2.083,2.083c0.417,0.417 1.25,0.417 1.25,0.833c0.833,0.417 2.083,0.417 2.917,0.833c1.25,0 2.5,0.417 3.333,-0.417l0.833,0c1.25,-0.417 2.083,-0.833 2.5,-1.667l0.833,0c0.417,-0.417 2.083,-2.083 2.083,-2.5c0,-0.417 0.833,-0.833 0.833,-0.833l0,-0.833c0,-0.417 0.417,-0.417 0.833,-0.833c0.417,-0.417 0.417,-0.417 0.833,-0.833l0,-0.833l0.417,0l0,-0.833l0.417,0l0,-0.833l0.417,0l0,-0.833l0.417,0l0,-0.833c0.417,-0.833 0.417,-1.25 0.833,-1.667c0,-0.833 0.417,-2.917 0,-4.583c0,-0.417 -1.25,-3.75 -1.667,-4.167l0,-0.833l-0.417,0l0,-0.833c0,0 -0.417,-0.417 -0.833,-0.417l0,-0.833l-0.417,0l0,-0.833l-0.417,0l0,-0.833c0,-0.417 -0.833,-0.417 -0.833,-0.833c-0.417,-0.417 -0.417,-1.25 -0.833,-1.25c-0.417,-0.417 -1.25,-0.833 -1.667,-1.25c-0.417,-0.417 -0.833,-1.25 -1.25,-1.667l-0.833,0c0,0 -0.417,-0.417 -0.833,-0.833c-0.417,-0.417 -0.833,-0.417 -1.25,-0.833c-1.25,-0.417 -1.667,0.417 -2.083,0.833c-1.25,0.833 -2.5,1.667 -3.333,2.5c-0.833,0.833 -1.25,1.667 -1.667,2.5c-0.417,0.417 -0.833,0.833 -0.833,0.833l0,0.417c0,0.417 -0.417,0 -0.417,0.417c-0.833,1.25 -1.25,1.667 -2.083,2.5l0,0.833l-0.417,0l0,0.833c0,0.417 -0.833,0.417 -0.833,0.833c0,0.417 -0.417,0 -0.417,0.417c-0.417,0.833 -0.833,1.25 -0.833,1.667c-0.417,0.417 -0.417,1.25 -0.833,2.083c-0.417,1.667 -0.417,3.333 -0.833,5c-0,1.25 -0,2.083 0.417,2.5Zm220.417,28.333c-0.417,-0.417 -0.833,-0.833 -1.25,-1.25c-0.417,-0.417 -0.417,0 -0.833,-0.417c0,0 -0.417,-0.417 -0.833,-0.833c-0.417,-0.417 -1.25,-0.417 -1.25,-0.833c-0.417,-0.417 -1.667,-0.417 -2.917,-0.833c-0.833,0 -1.667,-0.417 -2.5,-0.417c-0.417,0 -0.833,0.417 -0.833,0.417c-0.417,0 0,0.417 -0.417,0.417c-0.417,0 -0.833,0 -1.667,0.417l0,0.417l-0.833,0c0,0 -1.667,1.667 -2.083,2.083c-2.5,2.5 -5.833,6.667 -5.833,9.583c0,1.25 0.417,2.5 1.25,3.75c0,0 0.417,0.417 0.833,0.833c0,0.417 0,0.833 0.417,0.833c0.833,0.833 1.667,1.25 2.5,1.667l0,0.417l0.833,0c1.25,0.417 2.5,0.833 3.75,0.833c2.5,0.417 5.417,0.833 7.083,0.833c0,-0.417 0,-0.417 0.417,-0.417c0.417,0 0,-0.417 0.417,-0.417c0.417,-0.417 0.833,-0.417 1.25,-0.833c0.417,-0.417 0.417,-0.833 0.833,-0.833l0.417,0c0.417,0 0,-0.417 0.417,-0.417c1.25,-0.833 2.083,-1.25 2.917,-2.083c0.417,-0.417 1.667,-1.25 1.667,-1.667c0,-0.417 0.417,-1.25 0.833,-2.083c0.417,-1.667 0.417,-2.5 0,-3.75c0,-0.833 -0.417,-1.25 -0.833,-2.083c0,0 -0.417,-0.417 -0.833,-0.417c0,-0.417 0,-0.833 -0.417,-0.833c0,0 -0.417,-0.417 -0.833,-0.833c0,-0.417 0,-0.833 -0.417,-0.833c0,0 -0.833,-0.417 -1.25,-0.417Z"/></svg>