<?xml version="1.0" encoding="UTF-8" standalone="no"?><!DOCTYPE svg PUBLIC "-//W3C//DTD SVG 1.1//EN" "http://www.w3.org/Graphics/SVG/1.1/DTD/svg11.dtd"><svg width="100%" height="100%" viewBox="0 0 340 205" version="1.1" xmlns="http://www.w3.org/2000/svg" xmlns:xlink="http://www.w3.org/1999/xlink" xml:space="preserve" xmlns:serif="http://www.serif.com/" style="fill-rule:evenodd;clip-rule:evenodd;stroke-linejoin:round;stroke-miterlimit:2;"><path d="M336.667,63.722c0,-14.583 6.25,-42.917 -1.25,-56.25c-5,-9.167 -14.167,-7.5 -23.333,-7.083c-100.833,2.917 -202.083,-0.833 -302.917,4.167c-4.167,0 -6.667,2.917 -7.5,5.833c-1.25,0.833 -1.667,2.083 -1.667,4.167c0,51.25 4.583,103.333 12.083,154.167c1.25,9.583 1.25,27.083 10.417,32.917c8.75,5.417 25,2.083 34.583,1.25c23.333,-2.083 46.667,-3.333 70,-4.583c43.75,-2.083 87.917,-2.083 131.667,-0.417c20.833,0.833 67.5,14.583 75.833,-13.333c5,-16.667 1.667,-37.5 1.667,-54.583c-0,-22.083 -0,-44.167 0.417,-66.25Zm-51.25,-46.667c4.167,0 20.833,-2.5 30,-2.083c-24.167,19.583 -47.5,40 -72.5,58.75c-12.917,9.583 -26.25,18.75 -40.417,27.5c-17.083,10.417 -28.333,17.083 -45.833,4.583c-39.167,-27.917 -72.917,-62.917 -114.583,-86.25c80.833,-2.917 162.083,-0.833 243.333,-2.5Zm-274.583,4.583c34.583,13.333 63.75,37.083 92.083,60.833c1.25,1.25 2.5,2.083 4.167,3.333c-26.25,32.917 -54.583,66.25 -78.75,101.25c-0.833,-2.083 -1.25,-5.417 -2.083,-10c-9.167,-51.25 -14.167,-104.167 -15.417,-155.417Zm260.833,162.917c-11.667,-0.417 -23.333,-0.833 -35,-1.25c-43.75,-1.25 -87.917,-0.417 -131.667,2.083c-20.417,1.25 -40.833,3.333 -61.667,4.583c27.5,-28.75 48.75,-65.417 72.5,-96.667c16.667,15.417 37.917,35 56.667,36.25c12.5,0.833 24.583,-7.917 35,-14.167c11.667,-7.083 22.917,-14.583 33.75,-22.083c12.917,15.833 24.167,32.917 35,50.417c8.75,14.167 17.083,30.417 29.167,42.5c-9.167,2.5 -25.417,-1.25 -33.75,-1.667Zm44.167,-5c-9.167,-17.5 -22.5,-34.167 -32.917,-50.417c-9.583,-15 -20,-29.167 -31.25,-42.917c24.583,-17.917 47.917,-37.5 70.833,-57.5c-0.417,8.75 -1.667,19.167 -1.667,22.5c0,23.75 -0.417,47.083 -0.417,70.833c0,14.167 5.417,43.333 -4.583,57.5Z" style="fill-rule:nonzero;"/></svg>