<?xml version="1.0" encoding="UTF-8" standalone="no"?><!DOCTYPE svg PUBLIC "-//W3C//DTD SVG 1.1//EN" "http://www.w3.org/Graphics/SVG/1.1/DTD/svg11.dtd"><svg width="100%" height="100%" viewBox="0 0 324 345" version="1.1" xmlns="http://www.w3.org/2000/svg" xmlns:xlink="http://www.w3.org/1999/xlink" xml:space="preserve" xmlns:serif="http://www.serif.com/" style="fill-rule:evenodd;clip-rule:evenodd;stroke-linejoin:round;stroke-miterlimit:2;"><path d="M107.569,254.307c-0.618,0.081 -1.107,0.195 -1.416,0.374c-1.986,1.139 -1.823,9.554 -2.035,10.921c-0.781,5.029 -0.244,11.328 -0.163,13.232c0.277,6.706 0.228,11.768 0.846,15.544c0.635,3.825 1.953,6.706 4.069,8.952c1.253,1.318 2.897,2.474 5.095,3.385c-0.423,1.253 -0.602,2.653 -0.846,4.004c-0.863,4.883 -0.195,9.815 1.676,12.956c0.993,1.628 4.232,5.192 7.715,8.496c3.532,3.369 7.308,6.445 8.935,7.324c4.834,2.572 15.739,4.834 27.523,5.045c9.522,0.179 19.564,-0.96 27.263,-3.874c4.248,-1.611 7.764,-3.499 10.758,-5.745c3.434,-2.588 6.201,-5.68 8.48,-9.44c1.318,-2.165 2.311,-4.492 2.946,-6.983c0.586,-2.344 0.863,-4.85 0.749,-7.503c-0.065,-1.562 -0.016,-3.239 0.016,-4.948c1.172,-0.391 2.311,-0.863 3.353,-1.4c1.27,-0.651 2.702,-1.855 3.678,-4.004c1.302,-2.816 2.148,-9.147 2.279,-16.146c0.163,-8.382 -0.439,-17.79 -1.253,-22.038c-0.716,-3.776 -2.669,-5.615 -3.467,-6.071c-0.098,-0.049 -0.212,-0.114 -0.342,-0.179c1.888,-1.351 3.548,-2.946 5.208,-4.508c7.926,-7.438 13.688,-16.65 20.02,-27.783c2.865,-5.176 8.447,-20.442 11.247,-39.502c2.734,-18.685 2.848,-40.999 -4.33,-60.742c-9.928,-27.279 -33.333,-50.246 -82.846,-52.133c-23.063,-1.058 -45.15,8.203 -61.896,23.421c-16.78,15.234 -28.19,36.41 -29.915,58.937c-0.586,7.699 -0.342,17.008 0.863,26.155c1.221,9.375 3.45,18.571 6.69,25.765c6.787,14.779 13.395,27.62 22.396,39.86c2.132,2.897 4.297,5.827 6.738,8.626l-0.034,-0.001Zm90.558,53.792c-5.729,0.423 -11.686,0.277 -16.358,0.765c-6.999,0.732 -14.632,1.042 -22.396,1.091c-11.295,0.081 -22.852,-0.407 -33.105,-0.911c-0.96,-0.049 -1.855,-0.114 -2.734,-0.195c0,3.353 -1.237,7.145 0.179,9.261c0.781,1.221 3.451,3.743 6.152,6.218c2.702,2.474 5.469,4.899 6.69,5.534c3.955,2.083 12.972,3.467 22.591,3.613c8.073,0.13 16.618,-0.667 23.161,-3.141c3.158,-1.188 5.794,-2.555 8.024,-4.232c2.311,-1.742 4.15,-3.809 5.697,-6.347c0.749,-1.221 1.318,-2.539 1.676,-3.955c0.342,-1.351 0.488,-2.783 0.423,-4.313c-0.049,-1.074 -0.016,-2.23 0.016,-3.402l-0.017,0.016Zm-81.363,-44.417c0,0 -0.7,0.179 -0.537,0.96c0.146,0.684 -0.049,1.481 -0.114,2.295c-0.293,4.362 -0.146,9.749 -0.065,11.377c0.228,5.078 0.212,9.147 0.521,12.386c0.179,1.839 0.212,3.272 1.107,4.232c1.514,1.579 4.362,1.676 9.18,1.904c10.043,0.488 21.37,0.928 32.422,0.863c7.357,-0.049 14.6,-0.326 21.24,-0.993c4.98,-0.505 11.442,-0.228 17.513,-0.749c2.816,-0.244 5.55,-0.618 7.861,-1.514c0.065,-0.716 0.081,-1.628 0.179,-2.36c0.977,-7.129 0.814,-18.685 0.146,-25.114c-1.416,-0.293 -3.206,-0.732 -4.964,-0.83c-19.45,-1.025 -63.996,-1.025 -84.488,-2.458l-0.001,-0Zm82.258,-8.903c1.579,-2.214 2.946,-4.378 4.655,-6.51c1.156,-1.432 2.409,-2.702 3.63,-4.004c2.881,-3.076 5.68,-6.103 8.187,-9.505c3.825,-5.208 7.227,-11.035 10.775,-17.66c2.49,-4.558 6.982,-18.05 9.44,-34.766c2.441,-16.585 2.832,-36.361 -3.337,-53.954c-8.154,-23.308 -28.19,-42.271 -70.263,-44.663c-19.857,-0.977 -38.851,7.047 -53.304,20.101c-14.583,13.168 -24.593,31.478 -26.123,50.992c-0.553,6.983 -0.326,15.43 0.749,23.73c1.058,8.17 2.897,16.211 5.713,22.477c4.02,9.05 8.17,17.236 12.63,25.163c4.492,7.992 9.831,15.365 15.088,23.6c0.798,1.253 1.937,2.393 2.165,3.89c0.033,0.195 0.049,0.374 0.049,0.521c20.426,-0.391 59.979,0.016 79.95,0.586l-0.003,0.001Zm-180.338,-3.288c0.944,1.79 3.385,1.074 4.02,0.977c3.906,-0.635 6.885,-3.532 10.091,-5.387c4.264,-2.474 8.447,-4.834 12.516,-7.503c3.923,-2.572 7.65,-5.469 11.995,-8.073c0.895,-0.423 1.27,-1.497 0.846,-2.393c-0.423,-0.895 -1.497,-1.27 -2.393,-0.846c-2.8,0.944 -5.453,1.839 -8.024,2.978c-2.637,1.172 -5.111,2.49 -7.536,3.89c-6.347,3.695 -12.272,7.845 -19.043,11.865c-0.423,0.244 -3.711,2.165 -2.49,4.492l0.016,0Zm246.338,-21.37c-0.798,1.888 3.32,4.606 4.688,5.599c1.953,1.432 4.004,2.523 5.973,3.711c2.572,1.546 5.062,3.027 7.552,4.492c2.572,1.497 5.127,2.962 7.731,4.346c1.888,0.993 3.743,2.067 5.745,2.832c0.846,0.326 1.644,0.586 2.539,0.716c0.977,0.146 5.697,1.367 6.608,-0.309c1.253,-2.295 -2.637,-4.964 -3.255,-5.713c-0.57,-0.684 -1.204,-1.237 -1.904,-1.774c-2.376,-1.839 -4.964,-3.304 -7.503,-4.834c-1.709,-1.025 -3.467,-1.986 -5.257,-2.897c-4.378,-2.214 -8.887,-4.378 -13.933,-6.055c-0.83,-0.277 -1.66,-0.537 -2.539,-0.7c-1.383,-0.244 -5.648,-1.286 -6.445,0.602l0,-0.016Zm-101.758,-54.233c-2.93,-0.26 -6.478,0 -10.547,1.335c-6.575,2.148 -10.889,6.885 -14.192,11.816c-3.874,5.81 -3.32,14.258 0.553,21.257c3.63,6.575 10.042,11.605 17.252,12.109c14.697,1.025 22.022,-9.7 23.047,-21.484c0.732,-8.398 -1.79,-17.399 -7.08,-21.989c-0.277,-0.244 -1.172,-0.846 -2.588,-1.465c2.832,-3.89 5.778,-7.829 8.398,-11.865c2.686,-4.134 4.964,-8.366 6.885,-12.337c0.163,-0.342 1.676,-5.29 -1.628,-6.82c-2.881,-1.335 -5.68,2.1 -5.892,2.36c-1.4,1.595 -2.018,3.841 -3.109,5.859c-1.709,3.206 -3.532,6.559 -5.355,9.961c-1.986,3.743 -3.923,7.536 -5.745,11.263l0,0Zm2.018,10.417c0,0 -2.799,-0.505 -3.825,-0.521c-3.369,-0.049 -5.957,0.098 -8.073,1.253c-3.092,1.693 -5.111,4.574 -6.868,7.275c-2.018,3.109 -1.025,7.552 1.058,11.247c2.051,3.63 5.387,6.755 9.391,6.999c8.187,0.521 11.832,-5.908 12.353,-12.467c0.423,-5.225 -1.042,-10.645 -4.053,-13.77l0.016,-0.016Zm114.421,-17.611c-0.081,1.676 2.62,2.214 3.255,2.409c1.318,0.374 3.092,0.212 5.078,0.342c4.411,0.309 10.01,0.814 15.511,1.156c3.662,0.228 7.259,0.456 10.4,0.472c1.042,0 2.035,0.033 2.946,-0.098c0.749,-0.114 1.367,-0.26 1.969,-0.521c1.628,-0.651 5.111,-1.286 5.111,-3.613c0,-2.327 -3.776,-3.109 -4.671,-3.581c-0.586,-0.309 -1.188,-0.488 -1.921,-0.618c-2.1,-0.374 -4.623,-0.374 -7.308,-0.391c-8.903,-0.081 -19.743,0.553 -25.814,1.286c-0.651,0.081 -1.27,0.049 -1.774,0.277c-0.618,0.277 -2.686,0.944 -2.783,2.897l-0.001,-0.016Zm-157.846,-25.293c0.521,0.521 1.058,1.009 1.66,1.449c1.969,1.465 4.346,2.181 6.999,3.695c0.765,0.618 1.904,0.505 2.539,-0.26c0.619,-0.765 0.505,-1.904 -0.26,-2.539c-2.067,-2.344 -3.516,-4.395 -5.517,-5.908c-0.57,-0.423 -1.139,-0.781 -1.758,-1.123c3.63,-4.264 8.04,-8.447 13.281,-12.288c4.427,-3.206 9.359,-5.485 14.86,-6.364c1.579,-0.244 3.19,-0.391 4.85,-0.391c-0.016,0.277 -0.033,0.537 -0.033,0.814c0,2.458 0.83,4.785 1.204,7.829c-0.049,0.993 0.732,1.839 1.725,1.872c0.993,0.049 1.839,-0.732 1.872,-1.725c0.651,-3.06 1.432,-5.436 1.449,-7.959l0,-0.326c1.644,0.277 3.337,0.667 5.078,1.172c9.326,2.816 16.488,7.877 21.94,13.705c1.693,1.807 3.206,3.695 4.574,5.615c-1.221,1.107 -2.295,2.458 -3.825,3.825c-0.846,0.505 -1.139,1.611 -0.618,2.474c0.505,0.846 1.611,1.139 2.474,0.618c1.969,-0.716 3.678,-1.156 5.192,-1.855c4.655,8.187 6.771,16.227 7.877,20.703c0.228,0.944 0.521,1.676 0.635,2.197c1.546,7.65 13.77,3.857 13.412,-1.302c-0.033,-0.586 -0.033,-1.367 -0.179,-2.311c-0.765,-5.013 -4.411,-15.43 -11.475,-25.879c-7.65,-11.328 -19.515,-22.754 -37.484,-27.083c-7.357,-1.872 -14.079,-2.018 -20.231,-0.879c-6.852,1.286 -13.021,4.15 -18.473,8.285c-11.279,8.48 -19.206,18.392 -23.567,27.539c-4.297,9.017 -5.273,17.317 -3.63,22.64c0.212,0.7 2.279,3.743 4.867,2.913c3.027,-0.96 1.562,-4.427 1.481,-4.997c-0.358,-2.913 0.391,-6.592 1.937,-10.808c1.237,-3.353 2.962,-7.015 5.338,-10.726c0.553,-0.879 1.156,-1.758 1.79,-2.637l0.016,0.015Zm-121.858,25.537c-0,1.986 2.181,2.116 2.686,2.295c0.7,0.277 1.497,-0.065 2.262,-0.114c8.48,-0.521 17.269,0.13 25.912,-0.179c4.28,-0.146 8.463,-0.749 12.597,-1.383c0.993,-0.065 1.742,-0.911 1.676,-1.904c-0.065,-0.993 -0.928,-1.742 -1.904,-1.676c-4.736,-0.065 -9.522,-0.651 -14.388,-0.879c-4.866,-0.228 -9.766,-0.163 -14.616,-0.016c-3.857,0.114 -7.699,0.26 -11.426,0.895c-0.26,0.049 -2.783,0.765 -2.783,2.962l-0.016,-0Zm17.058,-82.942c-0.928,1.416 0.342,2.865 0.553,3.288c0.26,0.537 0.895,0.765 1.367,1.123c5.29,3.939 10.97,7.243 16.78,10.433c3.792,2.083 7.666,4.085 11.702,5.925c1.058,0.488 2.116,0.96 3.223,1.351c1.709,0.586 3.385,0.911 5.143,1.383c0.895,0.439 1.969,0.081 2.409,-0.814c0.439,-0.895 0.081,-1.969 -0.814,-2.409c-1.432,-1.123 -2.686,-2.279 -4.183,-3.271c-2.181,-1.465 -4.492,-2.669 -6.755,-3.89c-7.178,-3.857 -14.274,-7.438 -21.257,-11.345c-1.579,-0.879 -2.962,-2.393 -4.752,-2.588c-0.488,-0.049 -2.506,-0.553 -3.402,0.814l-0.016,0Zm250.588,21.55c0.716,1.546 4.313,0.602 5.225,0.309c0.505,-0.163 0.928,-0.505 1.4,-0.765c6.169,-3.532 12.386,-7.048 18.538,-10.661c2.051,-1.204 4.069,-2.458 6.055,-3.76c2.018,-1.318 3.906,-2.734 5.908,-4.085c0.879,-0.456 1.237,-1.53 0.781,-2.425c-0.456,-0.879 -1.53,-1.237 -2.425,-0.781c-3.158,1.188 -6.299,2.262 -9.375,3.662c-3.044,1.383 -5.957,3.011 -8.887,4.639c-4.671,2.588 -9.278,5.322 -13.753,8.187c-0.456,0.293 -0.944,0.505 -1.335,0.895c-0.684,0.684 -2.832,3.255 -2.116,4.785l-0.016,0Zm-189.308,-81.854c-0.814,0.57 -0.684,2.962 -0.619,3.369c0.277,1.693 1.644,3.19 2.637,4.964c2.181,3.89 4.736,8.268 7.357,12.663c1.807,3.06 3.646,6.12 5.534,8.935c2.165,3.223 4.395,6.038 6.25,8.561c0.505,0.863 1.611,1.156 2.474,0.651c0.863,-0.505 1.156,-1.611 0.651,-2.474c-1.237,-2.751 -2.458,-5.957 -4.118,-9.278c-2.165,-4.362 -4.785,-8.935 -7.422,-13.265c-2.539,-4.183 -5.143,-8.105 -7.568,-11.295c-0.586,-0.765 -0.993,-1.676 -1.758,-2.132c-0.374,-0.228 -2.604,-1.237 -3.418,-0.667l0,-0.033Zm166.504,-1.855c-1.221,-0.651 -3.19,0.879 -3.597,1.204c-2.165,1.807 -2.946,4.623 -4.313,6.852c-3.76,6.136 -7.455,11.686 -10.791,18.18c-1.156,2.246 -2.393,4.574 -3.174,7.194c-0.26,0.911 -1.058,4.33 -1.351,5.176c-0.439,0.879 -0.081,1.953 0.798,2.409c0.879,0.439 1.953,0.081 2.409,-0.798c0.391,-0.618 2.783,-3.32 3.483,-4.215c1.156,-1.449 2.067,-2.978 2.962,-4.46c1.937,-3.174 3.597,-6.282 5.273,-9.326c3.06,-5.566 6.022,-11.019 8.854,-17.399c0.212,-0.472 1.237,-3.857 -0.57,-4.818l0.016,-0Zm-86.246,-21.745c0.016,1.172 -0.098,2.311 -0.065,3.467c0.374,10.58 -0.146,20.931 0.277,31.38c0.114,2.978 0.553,5.925 0.977,8.887c0.065,0.993 0.911,1.758 1.904,1.693c0.993,-0.065 1.758,-0.911 1.693,-1.904c0.065,-3.06 0.374,-6.071 0.488,-9.115c0.26,-7.21 0.277,-14.388 0.033,-21.598c-0.098,-3.125 -0.13,-6.282 -0.684,-9.391c-0.244,-1.351 -0.651,-2.62 -1.025,-3.955c-0.146,-0.993 -1.09,-1.693 -2.083,-1.53c-0.993,0.146 -1.693,1.09 -1.53,2.083l0.016,-0.016Z"/></svg>