<?xml version="1.0" encoding="UTF-8" standalone="no"?><!DOCTYPE svg PUBLIC "-//W3C//DTD SVG 1.1//EN" "http://www.w3.org/Graphics/SVG/1.1/DTD/svg11.dtd"><svg width="100%" height="100%" viewBox="0 0 417 416" version="1.1" xmlns="http://www.w3.org/2000/svg" xmlns:xlink="http://www.w3.org/1999/xlink" xml:space="preserve" xmlns:serif="http://www.serif.com/" style="fill-rule:evenodd;clip-rule:evenodd;stroke-linejoin:round;stroke-miterlimit:2;"><path d="M248.729,414.727c-13.07,-2.067 -24.332,-7.617 -32.861,-16.195l-5.257,-5.29l-5.973,5.029c-6.592,5.55 -17.252,11.214 -25.293,13.428c-2.865,0.798 -9.945,1.628 -15.722,1.872c-12.435,0.521 -21.029,-1.221 -31.657,-6.413c-12.565,-6.136 -24.088,-20.264 -27.067,-33.154l-1.025,-4.476l-9.196,0.521c-16.927,0.944 -31.038,-3.434 -41.292,-12.825c-16.162,-14.779 -20.166,-37.549 -11.312,-64.158c1.66,-4.964 2.913,-9.115 2.783,-9.196c-0.13,-0.081 -3.271,-2.23 -6.966,-4.753c-8.496,-5.794 -21.745,-19.612 -26.367,-27.49c-8.919,-15.185 -12.142,-27.783 -11.426,-44.646c0.505,-11.849 2.246,-19.499 6.706,-29.313c5.697,-12.565 17.188,-26.579 28.939,-35.319c4.102,-3.044 5.81,-4.85 5.501,-5.794c-0.26,-0.749 -1.432,-4.118 -2.637,-7.503c-5.99,-16.96 -4.98,-35.71 2.799,-51.675c2.327,-4.769 4.932,-8.285 9.717,-13.053c11.035,-11.051 24.56,-16.358 42.983,-16.862l9.538,-0.26l1.172,-6.429c2.572,-13.997 11.312,-25.797 23.714,-31.999c9.017,-4.508 14.486,-5.55 26.807,-5.095c17.415,0.651 31.218,6.787 44.988,20.003c4.004,3.857 7.422,6.852 7.585,6.657c0.163,-0.195 1.969,-2.848 4.004,-5.892c10.563,-15.755 26.009,-24.447 43.408,-24.447c24.577,0 50.588,18.766 59.358,42.821l1.823,4.997l7.129,0c15.82,0 28.695,5.599 40.934,17.79c6.641,6.624 8.513,9.147 11.93,16.113c2.23,4.541 4.655,10.808 5.371,13.916c2.686,11.507 1.09,23.812 -4.346,33.724c-1.644,3.011 -2.995,5.599 -2.995,5.762c0,0.163 2.637,2.018 5.859,4.102c15.43,9.993 27.865,27.083 33.854,46.583c2.181,7.096 2.36,8.789 2.393,23.73c0.049,14.209 -0.195,16.943 -1.969,23.47c-2.425,8.903 -7.389,19.743 -12.679,27.702c-4.606,6.934 -15.251,17.806 -21.908,22.396c-2.604,1.79 -4.558,3.678 -4.33,4.183c7.145,15.869 8.236,28.272 3.613,41.016c-2.946,8.105 -6.266,13.216 -13.021,19.971c-10.808,10.791 -23.356,16.715 -45.817,21.582c-1.888,0.407 -2.36,1.09 -2.751,4.02c-0.716,5.322 -5.925,15.478 -10.612,20.654c-11.084,12.272 -27.393,19.629 -45.525,20.524c-4.623,0.228 -10.433,0.098 -12.907,-0.293l0.003,-0.035Zm-70.917,-31.462c5.778,-1.872 15.007,-8.057 16.96,-11.361c0.96,-1.611 1.058,-7.422 0.57,-31.103c-0.326,-16.016 -0.879,-61.883 -1.237,-101.937c-0.505,-57.421 -0.879,-72.804 -1.725,-72.804c-0.602,0 -2.799,0.635 -4.899,1.416c-2.588,0.96 -6.771,1.449 -13.086,1.497l-9.277,0.065l-0.57,3.939c-2.653,18.245 -15.869,37.256 -31.153,44.808c-15.82,7.829 -32.975,3.646 -41.293,-10.043c-2.539,-4.183 -2.848,-5.338 -2.572,-9.587c0.212,-3.174 0.977,-5.762 2.214,-7.503c4.346,-6.087 13.705,-7.21 19.808,-2.36c1.742,1.383 3.678,2.881 4.28,3.32c2.832,2.051 10.498,-3.988 16.146,-12.744c3.223,-4.997 8.626,-17.773 8.626,-20.394c0,-0.732 -2.051,-3.548 -4.558,-6.266c-8.301,-8.968 -12.825,-20.248 -12.825,-31.95c0,-10.319 4.752,-15.95 13.477,-15.95c8.561,0 12.842,4.801 14.225,15.999c0.651,5.273 1.432,7.699 3.337,10.4c3.272,4.655 8.643,8.675 14.583,10.889c5.42,2.018 18.359,3.76 22.233,2.978l2.555,-0.505l0.195,-31.836c0.26,-42.104 0.374,-39.648 -2.214,-46.925c-4.069,-11.442 -9.342,-18.571 -18.082,-24.414c-16.667,-11.133 -35.498,-8.513 -39.42,5.469c-0.684,2.458 -1.514,7.096 -1.839,10.319c-0.619,6.201 -3.939,14.372 -7.259,17.822c-3.581,3.743 -7.015,4.883 -13.558,4.541c-12.468,-0.651 -24.447,-0.358 -27.897,0.684c-7.926,2.393 -14.665,9.131 -17.09,17.074c-1.156,3.792 -1.546,26.872 -0.472,27.93c0.342,0.342 3.874,-0.212 7.845,-1.237c9.082,-2.311 12.175,-2.311 16.96,0c5.176,2.506 8.236,7.243 8.236,12.76c0,8.22 -4.15,12.663 -15.169,16.293c-16.634,5.469 -28.222,12.321 -37.728,22.347c-16.927,17.838 -19.922,40.674 -8.008,60.954c8.073,13.737 20.296,22.9 43.162,32.357c4.932,2.034 10.482,4.752 12.321,6.038c8.008,5.55 7.877,14.99 -0.244,19.612c-3.092,1.758 -4.867,2.083 -11.41,2.1l-7.748,0.033l-1.514,3.581c-2.8,6.608 -4.574,16.667 -3.988,22.803c0.749,8.057 3.809,12.777 10.53,16.211c4.932,2.523 5.632,2.637 18.473,2.93c9.424,0.212 14.127,0 15.999,-0.781c11.491,-4.753 22.998,5.208 21.191,18.376c-2.588,18.847 19.971,31.559 42.821,24.154l0.086,0.003Zm92.642,0.114c12.516,-3.874 22.152,-15.251 24.121,-28.499c0.765,-5.127 3.825,-9.863 7.683,-11.865c1.335,-0.684 5.925,-1.855 10.221,-2.604c10.628,-1.839 16.195,-3.581 23.145,-7.21c13.9,-7.259 18.571,-16.764 14.616,-29.769l-1.888,-6.185l-5.176,0.586c-11.832,1.335 -19.955,-4.704 -19.955,-14.86c0,-8.089 5.306,-13.477 15.332,-15.576c19.01,-4.004 33.48,-14.893 41.504,-31.25c4.378,-8.919 6.022,-16.032 6.055,-26.188c0.049,-15.169 -5.062,-27.8 -15.511,-38.265c-9.408,-9.424 -18.327,-13.525 -36.002,-16.52c-13.249,-2.246 -18.327,-6.12 -18.343,-13.981c0,-7.455 6.185,-12.549 17.415,-14.339c6.364,-1.009 6.592,-1.139 11.491,-6.331c2.751,-2.913 5.436,-6.624 5.973,-8.252c2.441,-7.373 -1.644,-18.197 -9.668,-25.618c-8.285,-7.666 -14.648,-8.87 -30.876,-5.827c-7.471,1.4 -12.012,0.391 -16.65,-3.678c-3.857,-3.385 -5.192,-6.445 -6.771,-15.462c-1.546,-8.854 -3.874,-13.59 -9.798,-20.003c-9.212,-9.961 -22.266,-13.786 -32.259,-9.489c-6.494,2.8 -12.549,9.782 -19.124,22.135c-6.445,12.093 -6.152,9.472 -4.671,42.188c0.553,12.191 1.27,46.696 1.595,76.675c0.326,29.98 0.879,54.963 1.204,55.5c1.058,1.725 12.272,4.297 18.685,4.297c13.053,0 20.41,-6.706 26.839,-24.479c2.474,-6.82 6.999,-10.287 13.412,-10.287c4.704,0 8.903,2.62 11.295,7.048c1.725,3.223 1.986,4.655 1.595,9.098c-0.781,8.903 -6.006,21.077 -13.005,30.29c-0.439,0.57 1.172,2.881 4.183,5.973c12.647,13.005 17.22,36.345 10.091,51.579c-4.639,9.896 -11.637,15.12 -20.296,15.12c-13.59,0 -19.043,-14.355 -9.587,-25.277c3.272,-3.792 3.825,-6.071 2.8,-11.588c-0.684,-3.646 -7.942,-20.54 -8.822,-20.508c-0.146,0 -2.409,0.586 -5.029,1.286c-6.185,1.66 -19.124,1.66 -25.505,0c-2.751,-0.716 -5.436,-1.302 -5.973,-1.302c-0.7,0 -0.83,13.835 -0.472,50.438l0.505,50.438l2.62,2.995c1.449,1.644 3.451,4.867 4.46,7.145c4.264,9.652 12.207,13.997 25.781,14.095c4.785,0.049 8.919,-0.505 12.76,-1.693l0,0.023Z" style="fill-rule:nonzero;"/></svg>