<?xml version="1.0" encoding="UTF-8"?><svg id="Layer_1" xmlns="http://www.w3.org/2000/svg" width="520" height="520" viewBox="0 0 520 520"><defs><style>.cls-1,.cls-2,.cls-3,.cls-4,.cls-5,.cls-6{fill:#231f20;}.cls-7{fill:#242021;}.cls-8{opacity:.25;}.cls-2{opacity:.1;}.cls-3{opacity:.3;}.cls-4{opacity:.55;}.cls-5{opacity:.45;}.cls-6{opacity:.4;}</style></defs><path class="cls-2" d="M172.02,253.81s11.17,5.33,12.25,7.39c1.07,2.07,2.92,5.88,5.06,6.66,2.14.78,9.12,3.11,10.37-.48,1.25-3.59,7.47-3.56,7.47-3.56l1.28-.88s-7.13-9.23-3.53-9.15,6.54-2.58,3.53-3.73-6.86-4.13-9.51-3.38c-2.65.74-8.35,3.6-8.35,3.6l-10.13-3.6-8.44,7.11Z"/><path class="cls-2" d="M102.7,136.44c3.68-15.83-16.1-49.08-16.1-49.08,0,0,22.15,4.19,26.89.24,4.73-3.95,12.05-4.11,12.05-4.11,0,0,1.17,10.1,5.67,14.12,4.5,4.02,9.92,5.5,9.92,5.5l-.92,5.36s1.36,4.93,1.28,10.38c-.08,5.46-2.84,16.77-7.2,19.97-4.37,3.2-22.84,10.63-33.85,9.35-11.84-1.37,2.27-11.74,2.27-11.74Z"/><path class="cls-1" d="M128.29,151.77c-.17-.8-.54-1.51-.87-2.24-.13-.26-.34-.47-.48-.73-.56-.87-1.33-1.57-2.25-2.14-.44-.18-.87-.41-1.36-.46-.61-.12-1.22-.19-1.87-.36-.2-.05-.18-.09-.02-.19.17-.09.48-.32.88-.45,1.39-.21,2.99.07,4.17,1.01.33.31.71.55,1.02.88l.49.47c.15.17.28.35.42.53.62.78.95,1.72,1.24,2.62.14.57.28,1.14.35,1.71.14.87.14,1.74.14,2.6-.02.67.02,1.33-.07,2-.02.15,0,.3-.05.44-.14.54-.27.69-.63.7-.08,0-.16.01-.24,0-.26-.03-.41-.3-.4-.67.02-1.1.04-2.2-.07-3.31-.1-.81-.21-1.64-.46-2.41h.04Z"/><path class="cls-1" d="M117.16,91.98c.22-.37.47-.73.72-1.08.14-.2-.03.03.06-.08.07-.08.14-.17.2-.25.14-.17.28-.33.43-.49.29-.32.6-.63.92-.92.16-.15.32-.29.49-.43.08-.07.17-.14.25-.2.19-.15-.25.18.08-.06.69-.5,1.4-.94,2.17-1.32.1-.05.2-.09.29-.14,0,0,.33-.15.19-.09-.14.06.17-.07.2-.08.1-.04.2-.08.3-.12.43-.16.86-.29,1.3-.4.7-.18,1.19-.99.96-1.69s-.95-1.15-1.69-.96c-3.85,1-7.21,3.53-9.26,6.93-.37.62-.16,1.54.49,1.88s1.48.16,1.88-.49h0Z"/><path class="cls-1" d="M412.81,465.03c-.34,0-.64-.17-.89-.24-.08-.03-.07-.09.03-.12.19-.06.38-.13.58-.22.12-.09,2.01-.37,2.66-.53.62-.15,1.25-.24,1.88-.25l3.83-.21c.28-.01.57,0,.85.02.97.08,1.94.14,2.91.11.16,0,.33.01.48-.05.26-.11,2.89-.06,3.23,0,.84.15,1.68.25,2.53.37.12.02.25,0,.36.09.25.2.51.18.77.21.36.04.72.08,1.08.15.18.04.35.14.53.23.16.08.07.33.01.36-.16.08-.03.2-.02.31,0,.04,0,.08,0,.11-.02.06-2.11.53-2.34.54-.01,0-.21.01-.51.03-.3,0-.69.02-1.1.03-.81.03-1.65.06-1.83.07-.18.02-.36-.03-.54-.06-.09-.01-2.52.09-2.61.09-.5-.03-1.01.03-1.5-.14-.1-.03-.2-.03-.3-.02-.86,0-1.72-.13-2.59-.2-.44-.04-.88-.04-1.32-.06-.08,0-.16-.03-.24-.04-.1-.02-.2-.04-.3-.04-1.04-.04-2.09-.1-3.13-.16-.24-.02-1.39-.23-1.67-.22-.16,0-.67-.17-.81-.15Z"/><path class="cls-1" d="M308.27,442.71c-1.69.28-5.77-.46-6.8,1.91s15.53,7.6,15.53,7.6l-7.44-5-1.29-4.52Z"/><path class="cls-1" d="M212.52,469.9c0,.62-3.92,1.12-8.75,1.12s-4.75-.5-4.75-1.12-.08-1.12,4.75-1.12,8.75.5,8.75,1.12Z"/><path class="cls-1" d="M98.08,467.37c-1.74-.42-10.52,1.59-8.19,3.29s14.31.95,14.31.95l-6.13-4.25Z"/><path class="cls-1" d="M188.04,78.85s5.99-.26,9.8-1.99c2.69-1.22-5.37,8.58-5.36,10.51s-4.44-8.52-4.44-8.52Z"/><path class="cls-1" d="M378.49,313.54c1.08-1.7-7.7-.45-6.36,1.17,1.34,1.61,9.73,3.74,14.51,2.88,4.77-.85-8.15-4.05-8.15-4.05Z"/><path class="cls-1" d="M337.38,369.42c-1.1.56-5.48,1.87-3.51,3.84,1.98,1.97,9.84,6,16.06,6.83,6.21.83-10.54-8.75-10.54-8.75l-2.01-1.92Z"/><path class="cls-1" d="M92.35,446.69c.6.21,1.2.4,1.82.55.23.04.45.08.68.12.8.17,1.61.38,2.44.46.37.04.74.05,1.1.05.47,0,.94-.05,1.42.04.15.02.14.07.02.17-.12.08-.33.31-.61.35-.97.19-1.96.31-2.96.21-.59-.05-1.22-.04-1.82-.12-.67-.08-1.33-.21-1.98-.36-.4-.09-.8-.2-1.2-.3-.6-.18-1.2-.35-1.79-.52-.46-.12-.92-.14-1.3-.09-.08,0-.16.04-.23.05-.25.02-.31-.08-.5-.52l-.13-.3c-.14-.33-.04-.69.35-.84.58-.22,1.16-.13,1.63-.03.49.12.86.27,1.26.41.59.21,1.18.44,1.79.63v.04Z"/><path class="cls-1" d="M209.47,451.22c.79-.29,1.58-.58,2.36-.89.28-.11.54-.29.82-.4,1.01-.39,2.02-.78,3.02-1.17.44-.18.87-.4,1.28-.62.27-.14.52-.31.8-.43.28-.11.58-.21.89-.28.19-.04.26.13.23.4-.03.27-.13.69-.38.96-.96.81-1.96,1.55-3.13,2-.71.26-1.32.75-1.98,1.12-.73.41-1.48.79-2.22,1.17l-1.38.69c-.7.36-1.41.66-1.94,1.12-.41.35-.65.85-.73,1.23-.02.08,0,.17-.02.24-.09.23-.27.25-.95.28l-.46.03c-.5.03-.96-.24-1.01-.84-.07-.88.39-1.67.86-2.24.49-.57,1.06-.98,1.6-1.3.84-.49,1.54-.78,2.32-1.15l.03.05Z"/><path class="cls-1" d="M121.99,334.16l22.35,33.71s2.82,5.84,3.03,9.14-10.31,34.68-10.31,34.68c0,0-12.19,31.94-15.42,35.53-3.23,3.59-8.16,3.91-8.16,3.91,0,0-32.46-10.59-37.77-13.78-5.31-3.2,0-14.44,0-14.44l16.03-32.24,13.93-25.5,16.32-31Z"/><path class="cls-1" d="M99.08,258.97s-2.08,12.12-1.18,18.3c.9,6.18,6.67,24.22,12.4,32.26,5.74,8.04,36.36,49.38,36.36,49.38l15.16,35.24,17.7,50.37s1.27,12.15,12.42,10.95c11.15-1.21,26.25-7.63,31.63-10.95,5.38-3.32,19.39-14,19.39-14l6.45-9.72s-3.91-8.81-5.62-11.86c-1.71-3.04-23.05-36.01-23.05-36.01l-24.47-44.49-17.06-41.72s-11.29-21.86-10.54-27.77c.75-5.91-3.76,2.14-6.78,5.08s-13.08-6.24-15.86-8.73c-2.78-2.49-6.36-9.09-26.31-1.72-19.95,7.37-20.64,5.37-20.64,5.37Z"/><path class="cls-1" d="M205.17,254.92c.28-.89.89-1.41,1.31-1.71.16-.12.26-.27.41-.34.52-.29,1.07-.54,1.59-.81.23-.13.41-.3.6-.47.23-.23.42-.5.79-.57.11-.02.35.27.54.61.19.34.35.75.25.91-.36.55-.77,1.04-1.38,1.33-.37.16-.6.52-.89.77-.31.27-.53.46-.63.62-.06.09-.11.2-.11.34-.02.2.04.52.27.77.18.19.49.26.76.37.06.02.14.03.19.06.19.12.14.3-.27.87l-.28.39c-.32.43-.69.7-.96.68-.78-.06-1.41-.53-1.9-1.35-.18-.31-.33-.68-.41-1.1-.07-.43-.04-.91.07-1.35h.06Z"/><path class="cls-1" d="M160.34,263.77c-.79.06-1.58.04-2.32-.12-.27-.06-.54-.07-.8-.16-.91-.29-1.73-.71-2.53-1.1-.35-.19-.69-.37-1.03-.56-.44-.23-.87-.47-1.27-.78-.12-.1-.08-.15.08-.18.16-.03.44-.09.73-.05,1.02.16,2,.27,2.85.71.53.23,1.13.25,1.68.31.61.05,1.21.1,1.82.06.37-.03.75-.09,1.12-.19.56-.15,1.14-.34,1.65-.65.4-.24.72-.61,1.07-.93.08-.07.14-.16.22-.22.31-.23.49-.18.87.26.09.1.18.19.26.3.28.35.34.75.16,1.02-.52.83-1.36,1.37-2.3,1.75-.7.29-1.47.47-2.25.59v-.05Z"/><path class="cls-1" d="M176.01,250.51c.39-.53.87-.99,1.36-1.4.17-.16.32-.34.51-.47.68-.47,1.37-.89,2.13-1.15.33-.13.64-.26.96-.4.4-.16.82-.31,1.27-.3.14,0,.17.18.12.4-.05.22-.15.52-.33.65-.67.46-1.17,1.04-1.89,1.34-.44.19-.72.61-1.04.94-.36.37-.69.77-1.01,1.19-.2.25-.39.52-.55.8-.24.43-.47.88-.58,1.36-.07.38.01.77.08,1.14,0,.08.04.16.05.24.03.29-.13.37-.75.43l-.42.04c-.48.03-.86-.12-.98-.42-.35-.86-.22-1.81.1-2.65.23-.64.57-1.22.94-1.77l.05.03Z"/><path class="cls-1" d="M131.65,244.65c-.23-.77-.67-1.56-1.09-2.42-.15-.31-.37-.58-.52-.88-.55-1.09-1.16-2.16-1.85-3.17-.3-.45-.68-.84-1.01-1.27-.44-.53-.88-1.07-1.27-1.66-.12-.19-.02-.25.23-.24.24.02.65.09,1.01.31,1.28.76,2.32,1.8,3.15,3,.49.73,1.17,1.35,1.72,2.06.61.77,1.15,1.6,1.62,2.54.29.57.54,1.19.72,1.83.28.96.34,2.1.06,3.13-.2.79-.45,1.63-1.07,2.34-.13.16-.3.29-.48.4-.71.37-1.07.2-1.32-.29-.06-.11-.13-.22-.17-.34-.13-.39-.01-.78.09-1.09.1-.22.09-.49.15-.64.05-.17.1-.35.14-.53.09-.35.09-.74.14-1.08.06-.5-.03-1.24-.32-1.97l.06-.03Z"/><path class="cls-1" d="M131.26,246.81c.09-.85,0-1.62-.41-2.52-.12-.34-.29-.65-.44-1-.49-1.25-1.31-2.37-2.09-3.5-.36-.5-.73-1-1.07-1.51-.43-.66-.86-1.37-1-2.18-.04-.25.05-.23.23-.07.16.17.44.43.69.76.44.61,1,1.15,1.52,1.73.51.59,1.03,1.19,1.51,1.84.54.8,1.34,1.46,1.97,2.29.16.24.34.47.49.72.12.27.26.53.37.82.21.55.4,1.21.43,1.8.07.73.06,1.52-.22,2.31-.2.59-.59,1.12-1.04,1.52-.46.38-.94.67-1.42.92-.73.39-1.44.75-2.17.99-.16.06-.31.12-.48.17-.62.13-.87,0-1.1-.22-.05-.05-.11-.1-.15-.16-.13-.17.04-.45.41-.82.56-.48,1.16-.87,1.71-1.29.57-.34,1.11-.67,1.45-1,.28-.24.37-.47.5-.68.14-.21.25-.52.26-.91h.06Z"/><path class="cls-1" d="M133.39,247.11c.08-.07.21-.15.29-.24.03-.03.02-.07.05-.11.12-.12.25-.27.31-.43.03-.07.01-.14,0-.2-.03-.08-.11-.14,0-.27.06-.08,1.13-.34,1.24-.2.14.24.19.52.04.79-.09.16,0,.32-.03.48-.03.17-.08.34-.15.5-.05.1-.1.2-.15.28-.07.14-.18.27-.21.42-.03.12.03.29.04.44,0,.03,0,.07,0,.1-.05.1-.18.05-.57-.2l-.27-.17c-.3-.2-.53-.4-.61-.5-.27-.32-.21-.38-.17-.5.04-.07.12-.14.17-.21h.04Z"/><path class="cls-1" d="M103.82,207.36c-.62-.94-1.25-1.89-1.91-2.82-.24-.34-.53-.64-.77-.98-.85-1.2-1.58-2.51-2.31-3.81-.32-.58-.67-1.14-1.02-1.69-.44-.72-.92-1.41-1.15-2.26-.08-.26-.05-.23.16-.11.11.06.27.14.47.23.21.08.43.2.59.37.63.59,1.25,1.17,1.85,1.77.3.3.59.61.87.92.26.33.49.68.72,1.04.57.85,1.27,1.64,1.9,2.48.68.93,1.34,1.88,2,2.83l1.21,1.77c.62.89,1.18,1.83,1.81,2.7.46.7,1.02,1.33,1.39,2.08.08.16.17.32.23.5.23.66.2.92-.01,1.2-.05.06-.09.13-.14.18-.16.16-.49.02-.9-.31-.3-.24-.61-.49-.93-.72-.33-.23-.54-.52-.82-.79-.56-.52-.96-1.14-1.39-1.76-.63-.92-1.25-1.86-1.92-2.78l.05-.04Z"/><path class="cls-1" d="M126.91,168.2c.39.5.78,1,1.16,1.5.14.18.31.33.45.52.47.66.97,1.29,1.37,2,.19.3.41.59.62.87.27.36.54.73.75,1.14.07.13,0,.16-.17.14-.15-.03-.41-.1-.61-.27-.71-.6-1.45-1.15-1.99-1.9-.3-.46-.75-.83-1.13-1.24-.42-.45-.84-.9-1.25-1.36-.26-.28-.52-.55-.79-.82-.41-.41-.79-.84-1.23-1.2-.34-.28-.75-.48-1.12-.71-.08-.05-.18-.09-.25-.14-.27-.24-.23-.47-.06-.79.04-.07.07-.15.1-.21.11-.18.42-.33.74-.29.85.24,1.49.8,2.13,1.36.48.42.9.9,1.31,1.38l-.03.03Z"/><path class="cls-1" d="M129.08,154.56c.11-.93.13-1.9.02-2.82-.04-.32-.16-.61-.25-.92-.31-1.09-.99-2.14-1.8-3.12-.37-.43-.8-.81-1.24-1.17-.59-.43-1.12-.98-1.56-1.62-.04-.32-.06-.25.25-.31.3-.06.77-.07,1.19.1.77.27,1.33.81,1.96,1.31.6.53,1.18,1.12,1.62,1.84.52.85,1.14,1.74,1.45,2.77.33,1.15.35,2.21.35,3.31,0,.67-.11,1.33-.22,1.99-.18.99-.48,1.96-.82,2.89-.27.72-.52,1.46-.93,2.13-.08.16-.2.28-.31.41-.44.48-.69.54-.95.46-.06-.02-.13-.03-.18-.05-.17-.09-.14-.39.03-.79.19-.63.43-1.19.62-1.78.18-.59.36-1.19.47-1.82.18-.92.28-1.86.28-2.81h.05Z"/><path class="cls-1" d="M92.27,91.07s6.57,10.46,8.82,23.83c2.26,13.36,2.49,29.67.59,34.4s-3.58,7.87-9.42,9.61-32.76,3.45-32.76,3.45l-22.45-4.68s2.87-9.77,3.44-11.12,3.01-20.44,3.01-20.44c0,0,.75-23.26,2.26-27.22s2.34-13.29,6.39-17.18c4.04-3.89,17.16-8.99,17.16-8.99h16.37s2.48-10.84,6.09-13.55,13.15-14.47,25.76-9.95c6.37,2.28,13.16,9.8,10.24,22.13-3.19,13.43-12.36,15-15.93,16-3.58,1-20.5,1.79-20.5,1.79l.94,1.92Z"/><path class="cls-1" d="M173.01,113.48c-.17-1.28-.2-2.42-.27-3.63-.02-.43-.08-.87-.09-1.3-.04-1.53.04-3.07.12-4.59.02-.68.05-1.35.07-2.02.01-.43.01-.86.06-1.29.05-.43.13-.86.22-1.28.06-.26.15-.22.27.01.11.23.3.66.37,1.15.1,1.74.13,3.46.11,5.21,0,1.05.1,2.13.19,3.19.09,1.17.19,2.35.33,3.5.09.7.21,1.39.47,1.98.37.92,1.1,1.57,2.09,1.84.76.22,1.59.2,2.47.29.19.02.39.03.59.06.75.13.94.43.91.9,0,.11,0,.22-.03.33-.09.35-.44.51-.9.53-.68-.05-1.41-.08-2.23-.21-.81-.13-1.74-.36-2.62-.93-.65-.42-1.21-1.07-1.53-1.74-.34-.67-.5-1.35-.61-1.99h.04Z"/><path class="cls-6" d="M176.35,87.37c.47,3.07-2.9,19.19,4.57,24.27,5.35,3.64,12.37,1.67,12.37,1.67,0,0,2.47,4.02-1.57,4.14-4.04.12-17.17,5.44-17.94-5.28-.78-10.72-1.44-21.98-1.44-21.98l4.02-2.82Z"/><path class="cls-1" d="M177.07,86.28c-1.47-.61-3.01-1.27-4.34-2.43-.45-.38-.93-.74-1.32-1.17-1.42-1.52-2.45-3.27-3.36-5.01-.39-.78-.82-1.54-1.19-2.32-.23-.5-.47-1-.67-1.51-.09-.26-.22-.5-.24-.79-.02-.29-.04-.58-.03-.88.08-.4,0-.32.31-.14.16.09.38.22.67.36.14.07.32.14.44.24.11.11.2.22.28.36,1.22,1.83,2.12,3.73,3.21,5.56.64,1.11,1.62,2.01,2.58,2.82.53.47,1.09.88,1.63,1.2.59.32,1.23.62,1.9.86.82.31,1.68.57,2.55.77,1.32.3,2.67.57,4.02.62,1.05.03,2.08-.17,3.07-.32l.64-.13c.79-.11,1.01.03,1.37.79.08.17.17.34.24.52.23.58-.03,1.18-.74,1.48-1.03.43-2.1.63-3.18.71-1.08.03-2.15-.1-3.21-.27-1.57-.27-3.12-.7-4.64-1.24l.02-.07Z"/><path class="cls-1" d="M246,82.97c-.8.52-1.63.98-2.5,1.34-.31.14-.62.29-.95.4-1.15.36-2.33.6-3.51.69-.52.07-1.04.09-1.56.14-.33,0-.67.05-1,.02-.33-.07-.66-.17-.97-.33-.19-.1-.16-.14.02-.27.18-.13.52-.46.87-.55,1.24-.17,2.45-.27,3.69-.48.75-.1,1.46-.47,2.16-.79.39-.17.76-.38,1.14-.55.36-.22.75-.41,1.1-.65l.65-.44.61-.5c.61-.51,1.18-1.08,1.65-1.72.36-.5.6-1.07.82-1.62.06-.12.09-.25.14-.37.2-.44.41-.52.84-.45.1.02.2.02.3.05.32.08.48.38.44.81-.21,1.23-.84,2.45-1.73,3.4-.31.37-.69.68-1.04,1.02-.38.3-.75.62-1.15.89l-.03-.03Z"/><path class="cls-1" d="M195.23,83.9c-.42-.67-.54-1.58-.36-2.27.16-.71.48-1.23.79-1.69.23-.34.4-.65.62-.95.77-1.05,1.55-2.1,2.33-3.14.35-.46.66-.95.97-1.43.39-.62.76-1.26,1.26-1.81.16-.17.31-.05.39.23.08.27.11.71-.07,1.1-.65,1.36-1.28,2.73-2.24,3.92-.55.72-.96,1.57-1.45,2.36-.54.84-.99,1.64-.83,2.24.08.37.39.75.81,1.01.58.38,1.59.45,2.5.53.72.04,1.44-.05,2.16-.11.16-.01.31-.05.47-.05.58-.02.73.12.86.69.03.13.07.26.1.39.1.44-.19.82-.66.93-1.37.32-2.73.23-4.15.04-.27-.04-.53-.08-.82-.14-.15-.03-.3-.06-.51-.13-.19-.06-.35-.13-.51-.2-.65-.31-1.25-.78-1.68-1.46l.04-.03Z"/><path class="cls-1" d="M182.62,86.84c-1.23-.04-2.46-.1-3.71-.21-.46-.04-.92-.07-1.39-.17-1.61-.37-3.16-.94-4.58-1.7-.63-.34-1.26-.69-1.84-1.09-.77-.49-1.44-1.16-1.91-1.93-.15-.24-.03-.29.24-.22.27.07.73.2,1.15.43,1.44.91,2.93,1.59,4.54,2.15.96.35,2.06.41,3.08.45,1.14.05,2.35.12,3.55.11.74,0,1.48,0,2.22-.03,1.12-.04,2.26-.08,3.37-.21.86-.1,1.69-.34,2.53-.54.18-.04.36-.11.55-.14.69-.1.93.03,1.16.59.05.13.12.25.16.38.14.43-.1.85-.61,1.08-1.5.64-3.14.88-4.79,1-1.23.08-2.47.09-3.7.1v-.05Z"/><path class="cls-1" d="M168.85,70.16c2.83-.56,5.62-.95,8.43-1.29,1.03-.12,2.04-.32,3.08-.4l1.31-.08.66-.03h.75c.71,0,1.43,0,2.01.24.68.16.78.93,1.04,1.45l.2,1.12.14.66c.08.44.2.88.32,1.32.23.88.53,1.75.86,2.6.57,1.42,1.27,2.82,2.1,4.09.51.83,1.15,1.57,1.73,2.33.57.77,1.2,1.49,1.87,2.02.4.28.43.53-.26.71-.68.17-2.03-.05-3.07-.86-3.39-3.07-5.37-7.13-6.22-11.47l-.15-.72c-.02-.15,0-.16-.01-.26l-.02-.25c-.03-.08-.13-.07-.21-.09-.08,0-.16,0-.25,0h-.17s-.37.04-.37.04c-.99.09-2,.23-3.01.36-2.74.35-5.49.78-8.21,1.31-.83.17-1.67.34-2.48.54l-.91.23c-.21.06-.43.12-.64.21-.08.04-.16.07-.22.14-.06.07.02.16.03.23l.17.48c.06.18.1.28.21.53l.37.9c.49,1.19,1.07,2.35,1.69,3.46.97,1.72,2.17,3.29,3.46,4.59.28.3.59.51.86.78.52.43.81.67.96.89.07.11.12.25.16.42.03.16.06.33.1.54.03.2.12.41.16.61.08.34-.05.62-.53.79-.25.09-.54.11-.86.05-.36-.04-.68-.17-1.04-.34-1.01-.54-1.82-1.23-2.52-1.96-.71-.73-1.33-1.51-1.9-2.32-1.13-1.62-2.08-3.34-2.93-5.09-.32-.65-.65-1.29-.96-1.95l-.39-.85c-.13-.32-.32-.65-.41-.95l-.18-1.71c0-.14-.07-.3,0-.41.05-.14.12-.27.19-.39.15-.23.32-.44.54-.63.43-.38,1.06-.66,1.7-.88.6-.21,1.48-.45,1.7-.5l1.08-.26.02.08Z"/><path class="cls-1" d="M174.36,88.68c-.21.03-.19-.29-.26,1.48-.04,1.31-.06,2.63-.07,3.95,0,.97.08,1.93.07,2.9-.05,3.41-.19,6.83-.2,10.25,0,1.52.06,3.04.14,4.54.03.97.08,1.93.09,2.9.02.97-.02,1.94-.28,2.92-.44.62-.29.53-.78.03-.27-.25-.49-.6-.75-1.03-.27-.43-.48-.93-.53-1.48l-.34-2.94c-.09-.98-.12-1.97-.16-2.95-.07-1.97-.08-3.95-.01-5.95.1-2.38-.2-4.85-.21-7.29v-4.03s.02-2.02.02-2.02l.03-1.02c0-.41.04-1.02.12-1.47.08-.29.16-.55.28-.8.02-.16.19-.21.3-.28l.37-.2c.54-.22,1.22-.29,1.78-.38l2.49-.28c2.5-.24,5-.46,7.46-.75,1.91-.23,3.78-.61,5.67-.9.42-.06.82-.15,1.25-.2,1.57-.17,2.09,0,2.47.75.09.17.2.34.25.52.17.59-.43,1.11-1.54,1.36-3.32.74-6.86,1.13-10.42,1.51-1.32.14-2.64.27-3.95.46l-1.95.28-.96.16-.24.04c-.09.02-.04,0-.07,0-.02,0-.04,0-.05,0l-.04-.07Z"/><path class="cls-1" d="M238.09,69.31c-4.66-.17-9.33-.32-13.99-.43-1.7-.04-3.41.02-5.11-.03l-9-.24c-1.5-.06-3,0-4.49-.02h-.55s-.24-.02-.24-.02h-.25c-.08,0-.2-.05-.22.05-.16.31-.22.46-.58,1.32-1.06,2.49-2.21,4.99-3.59,7.34-.89,1.51-1.85,3-3.05,4.34-.28.35-.61.65-.96.94-.35.29-.68.59-1.04.86-.75.51-1.52.98-2.39,1.27-1.14.25-.94.21-.45-.68.11-.24.27-.47.43-.75.17-.27.31-.64.49-.98.38-.66.77-1.45,1.29-2.17.97-1.26,1.88-2.59,2.68-4.01.8-1.42,1.51-2.91,2.18-4.44.33-.76.65-1.53.96-2.32l.49-1.18.17-.43c.08-.19.17-.37.26-.55.18-.35.32-.76.58-.99l.35-.41c.13-.12.21-.31.39-.33.34-.09.67-.25,1.09-.24h1.21s.23,0,.23,0h.17s.33.02.33.02c.88.04,1.76.14,2.63.21,4.19.28,8.55.1,12.83.18,4.71.08,9.42.21,14.12.34,2.9.09,5.8.18,8.69.27,2.2.07,4.4.15,6.6.29l2.13.15c.78.08,1.44.23,1.86.64.18.56.04,1.29-.11,2.02-.06.37-.2.72-.3,1.09l-.16.53-.13.4c-1.11,3.28-2.29,6.47-4.03,9.52-.37.68-.78,1.32-1.25,1.96-1.76,2.36-2.9,2.71-3.88,2.44-.23-.06-.49-.1-.66-.2-.58-.37-.1-1.46.93-2.97,1.51-2.32,2.86-4.89,4.09-7.59.6-1.36,1.17-2.74,1.67-4.14l.17-.49v-.06c.03-.05.02-.03.02-.04h0c-1.86-.06-3.72-.12-5.58-.18l-7.05-.19v-.08Z"/><path class="cls-1" d="M232.73,86.95l-17.51-.26h-6.39s-8.06-.11-8.06-.11l-6.98-.03c-.08-.02-.08.05-.08.1l-.02.16-.02.33c-.01.09-.02.81-.03,1.3v3.18c0,3.32.07,6.67.2,9.97.1,2.12.14,4.24.16,6.37.03,2.12.02,4.25-.2,6.38-.22.67-.31.97-.33.95-.03-.02-.06-.34-.35-.88-.3-.54-.54-1.33-.87-2.28-.33-.95-.6-2.07-.72-3.29-.2-1.95-.45-3.9-.56-5.86-.1-1.96-.18-3.92-.25-5.88-.07-1.96-.11-3.93-.08-5.9l.05-2.97.02-.75v-.59s.05-.67.05-.67c0-.23.02-.45.09-.63.06-.19.08-.41.17-.56.17-.31.3-.65.49-.89.62-.17,1.3-.2,1.96-.25.62-.04,1.44-.13,1.76-.08,5.25.24,10.68.02,16.03.06,5.88.05,11.76.09,17.64.14,3.62.03,7.24.06,10.86.09l4.24.03h.75c.23.04.44.09.66.13.11.03.22.03.32.07.1.05.18.14.25.23.13.18.23.39.3.61.15.44.22.94.28,1.43l.05.6.04.53c.15,2.8.12,5.53.12,8.26.03,4.24.05,8.39.08,12.58,0,.92.02,1.83,0,2.75-.08,3.44-.32,4.53-1.18,5.24-.19.16-.38.37-.56.47-.6.31-1.12-1.12-1.19-3.64-.28-7.47-.02-15.37-.16-23.15-.02-.72-.04-1.43-.08-2.13l-.07-.97h0s0-.02,0-.02h-2.03s-8.84-.08-8.84-.08v-.07Z"/><path class="cls-1" d="M101.89,471.09c-2.39-.94-4.25-2.69-5.63-4.51-1.41-1.86-2.37-3.92-3.19-5.89l-1.79-4.2c-.84-1.95-1.74-4.05-2.69-5.9-.49-.94-1.01-1.83-1.61-2.69l-.45-.65c-.14-.19-.29-.39-.45-.59-.24.23-.5.61-.77.96-.63.89-1.35,1.92-2,2.89-.65.99-1.28,1.98-1.89,2.99-.39.64-.76,1.3-1.13,1.95l-1.18,1.93c-.78,1.29-1.61,2.56-2.7,3.7-.3.18-.45.27-.67.4,0-.02.14-.2.08-.69-.07-.49-.02-1.1.02-1.87.03-.38.04-.8.12-1.21.1-.4.23-.82.4-1.23.93-2.41,2.23-4.64,3.56-6.82.68-1.09,1.35-2.17,2.09-3.22,1.23-1.71,2.47-3.43,3.71-5.15.74.9,1.46,1.75,2.13,2.61.32.44.67.91.94,1.32l.43.63.29.45c1.08,1.68,2.02,3.48,2.87,5.23l1.26,2.61c.43.9.82,1.8,1.18,2.7.8,1.97,1.53,3.89,2.48,5.63.94,1.72,2.14,3.32,3.62,4.48.91.7,1.93,1.22,3.04,1.52,1.12.29,2.32.39,3.55.35.93-.02,1.88-.11,2.84-.23l1.47-.17c.48-.06.95-.13,1.16-.2.27-.08.48-.28.6-.53.14-.29.15-.4.08-.69-.16-.56-.79-1.26-1.47-1.84-2.18-1.86-4.99-2.98-7.54-4.64-.57-.36-1.15-.7-1.71-1.11-1.05-.76-1.68-1.43-1.98-2.03-.32-.6-.32-1.09-.15-1.57.08-.22.14-.45.25-.6.19-.25.53-.23.97-.11.46.12,1.02.4,1.74.81,2.07,1.33,4.59,2.41,6.92,4.04,1.2.79,2.38,1.64,3.61,2.71.61.55,1.23,1.14,1.82,2.04.29.44.57,1.01.73,1.73.18.7.07,1.66-.22,2.35-.37.96-1.08,1.83-2.03,2.26-.44.22-1.06.37-1.4.43-.35.06-.63.09-.91.12l-1.57.18c-.54.07-1.1.13-1.66.17-2.22.18-4.74.17-7.17-.77l.02-.08Z"/><path class="cls-1" d="M234.88,459.63c-3.96,1.7-8.12,1.95-12.02,1.93h-2.13c-.74,0-1.49-.03-2.22-.11-2.58-.3-5.05-.91-7.45-1.57l-3.57-.99c-.74-.19-.77-.22-1.1-.31l-.87-.23h-.03s-.1-.03-.1-.03c-.04-.02-.07-.02-.05.03l.03.18c.02.12.05.25.08.37.06.25.13.51.23.75.03.06.04.12.06.18.02.06.09.23.13.33.1.24.19.49.28.73.19.49.39.97.61,1.45.27.62.57,1.24.87,1.86l.82,1.91c.26.65.54,1.29.75,1.97l.29,1.03c.08.35.05.75.09,1.12,0,.96.11.77-.53.26-.71-.49-2.2-1.26-3.02-2.64-.5-.79-1.04-1.58-1.49-2.42-.42-.85-.83-1.73-1.21-2.63-.19-.45-.37-.91-.54-1.37-.08-.27-.09-.38-.25-.92-.11-.45-.17-.88-.24-1.28l-.2-1.22-.15-1.13-.14-1.1c-.05-.37-.09-.72-.1-1.01,1.89.4,3.68.78,5.47,1.23l.53.14.36.11.72.22,1.43.44c3.28,1,6.73,1.66,10.04,1.73,3.78.06,7.59-.01,11.09-1.05,2.14-.64,4.16-1.68,5.86-3.1.72-.63,1.44-1.36,2.04-2.1l.34-.45c.08-.12.16-.24.23-.37.12-.25.25-.57.07-.83-.22-.38-.66-.55-1.07-.63-.16-.04-.56-.08-.89-.09-.34-.01-.69,0-1.04.01-2.65.17-5.29.93-8.02,1.44-.6.11-1.2.25-1.82.33-2.32.29-3.13.04-3.62-.81-.11-.2-.26-.39-.32-.58-.19-.67.69-1.16,2.24-1.49,2.31-.48,4.71-1.1,7.27-1.6,1.28-.25,2.6-.47,4.05-.57.73-.05,1.48-.06,2.33.03,1.19.15,2.55.56,3.36,1.43.34.3.55.68.8,1.05.29.77.49,1.58.24,2.4-.2.82-.7,1.62-1.2,2.34-.7.92-1.37,1.62-2.12,2.32-1.56,1.43-3.27,2.51-5.13,3.35l-.04-.07Z"/><path class="cls-1" d="M74.48,433.42c.37.46.99,1.01,1.65,1.5.66.5,1.38.99,2.12,1.45,1.49.93,3.06,1.8,4.67,2.62,3.22,1.63,6.56,3.11,9.95,4.44,3.39,1.34,6.84,2.54,10.31,3.58,3.48.99,7.01,1.93,10.47,2.31,1.24.13,2.52.19,3.56,0,.21-.06.53-.12.62-.16.04-.02.07-.03.11-.07.05-.02.15-.13.23-.19.35-.32.73-.79,1.09-1.27,1.45-2.02,2.7-4.39,3.91-6.74,4.23-8.38,7.79-17.21,11.21-26.05,3.37-8.86,6.55-17.82,9.26-26.89.59-2.01,1.16-4.04,1.65-6.06.25-1.01.48-2.03.66-3.04.2-1.01.34-2.04.3-2.88-.09-1.82-.89-3.74-1.78-5.53-.92-1.81-2.04-3.54-3.21-5.24-1.51-2.18-3.15-4.29-4.79-6.43l-1.23-1.63-1.18-1.66c-.77-1.07-1.59-2.13-2.4-3.2-3.19-4.31-6.54-8.78-8.23-14.1-.11-.42-.2-.78-.28-1.08-.04-.31-.08-.56-.1-.76-.04-.4-.04-.57.01-.56.05.01.16.22.33.57.15.36.4.87.77,1.48.72,1.22,1.88,2.85,3.48,4.65,1.56,1.85,3.38,4,5.34,6.33.88,1.05,1.69,2.15,2.55,3.25.84,1.09,1.71,2.34,2.45,3.34,1.61,2.14,3.36,4.32,4.99,6.59,1.64,2.28,3.23,4.63,4.55,7.27.64,1.34,1.26,2.71,1.62,4.28.12.37.16.8.23,1.21.06.42.14.81.11,1.27,0,.44,0,.91-.04,1.31-.04.39-.1.76-.16,1.12-.5,2.89-1.23,5.56-1.98,8.25-.76,2.68-1.59,5.33-2.45,7.97-1.72,5.28-3.59,10.5-5.55,15.71-2.36,6.22-4.78,12.55-7.39,18.87-1.3,3.16-2.65,6.31-4.1,9.43-1.46,3.12-2.95,6.21-4.82,9.2-.52.82-1.07,1.63-1.74,2.44-.35.4-.69.8-1.19,1.2-.23.19-.57.43-.93.58-.38.19-.61.2-.91.29-.58.18-1.08.18-1.62.27-.51.01-1.04.06-1.54.04-1.01-.01-1.99-.09-2.95-.21-3.86-.46-7.52-1.44-11.14-2.54-7.21-2.25-14.22-5.01-20.94-8.52-1.62-.86-3.21-1.77-4.77-2.82-.78-.52-1.54-1.08-2.28-1.72-.37-.3-.73-.69-1.09-1.06l-.51-.65c-.16-.25-.32-.55-.47-.86-.17-.48-.25-1.08-.22-1.51,0-.45.07-.84.14-1.23.14-.77.35-1.47.55-2.17.44-1.39.95-2.71,1.49-4.02,1.08-2.61,2.27-5.16,3.49-7.68,6.14-12.53,12.96-24.71,19.51-36.85,5.11-9.43,9.97-18.75,14.83-28.15,1.06-2.08,2.09-4.11,3.16-6.2,3.99-7.74,5.39-10.11,7.06-11.38.38-.29.81-.7,1.11-.83,1-.45,0,3.04-2.76,8.83-8.2,17.15-17.96,34.6-27.46,52.23-3.43,6.39-6.88,12.78-10.11,19.26-1.61,3.24-3.18,6.5-4.6,9.78-.71,1.64-1.38,3.28-1.94,4.91-.28.81-.53,1.62-.7,2.38-.09.38-.14.73-.18,1.03v.28s0,.02,0,.04c.02,0,.03,0,.05.06.02.05.13.16.19.23l-.06.06Z"/><path class="cls-1" d="M173.74,422.16c1.9,5.66,3.81,11.32,5.88,16.87,1.04,2.78,2.12,5.53,3.31,8.18.6,1.32,1.23,2.62,1.92,3.83.34.61.71,1.18,1.08,1.7.37.52.78.98,1.09,1.22l.2.13.35.16c.25.09.5.2.78.26.55.15,1.17.23,1.81.27,1.29.07,2.66-.04,4.04-.25,2.77-.43,5.57-1.24,8.31-2.18,5.5-1.92,10.86-4.44,16.05-7.23,3.8-2.03,7.5-4.25,11.08-6.64,3.57-2.39,7.05-4.93,10.27-7.69,1.42-1.22,2.78-2.49,4.03-3.83,1.23-1.33,2.39-2.76,3.13-4.21.36-.71.59-1.44.59-1.96-.01-.14-.08-.52-.21-.9-.12-.39-.28-.8-.45-1.21-.69-1.66-1.57-3.35-2.46-5.02-3.64-6.67-7.74-13.18-11.83-19.66-4.11-6.48-8.31-12.92-12.5-19.37-4.21-6.43-8.33-12.97-12.24-19.61-6.96-11.79-13.39-23.97-19.15-36.27-3.69-7.91-7.1-15.97-10.17-24.16-3.09-8.18-5.75-16.53-7.91-24.98-1.22-5.31-.73-4.67,1.16-.45.93,2.12,2.22,5.12,3.71,8.76,1.55,3.62,3.25,7.89,4.99,12.56,6.3,16.5,13.63,32.59,21.99,48.19,4.18,7.8,8.61,15.47,13.28,23.02,4.68,7.52,9.63,14.99,14.43,22.55,2.87,4.53,5.77,9.11,8.69,13.72,2.89,4.64,5.78,9.31,8.47,14.18.67,1.22,1.32,2.46,1.94,3.74.3.65.6,1.3.88,1.99.27.71.54,1.38.69,2.37.13,1.08-.08,1.95-.34,2.75-.28.79-.63,1.51-1.02,2.17-.78,1.33-1.69,2.47-2.64,3.57-3.84,4.3-8.27,7.73-12.8,10.95-5,3.5-10.22,6.66-15.62,9.49-5.41,2.8-10.99,5.31-16.87,7.17-2.95.91-5.97,1.67-9.17,1.91-1.6.09-3.25.1-4.95-.33-.42-.09-.85-.25-1.27-.41-.41-.19-.83-.37-1.3-.7-.82-.61-1.35-1.29-1.84-1.95-1.89-2.69-3.08-5.49-4.3-8.3-1.18-2.81-2.25-5.65-3.28-8.49-2.53-7.01-4.84-14.06-7.18-21.09-2.34-7.04-4.7-14.06-7.18-21.03-3.77-10.55-7.72-21.08-12.65-31.09-4.88-10.02-11.59-18.99-18.49-27.7-5.37-6.78-10.91-13.35-16.1-20.2-5.18-6.84-10.05-14.09-13.39-22.21-1.49-3.56-2.67-7.18-3.45-11.02-.69-3.56-1.02-6.57-1.05-9.09-.07-1.26-.02-2.4.02-3.43.02-1.03.11-1.95.21-2.78.17-1.66.44-2.95.72-4.01.26-1.06.59-1.88.96-2.6.33-.65.69-1.51.96-1.87.47-.6.62.55.48,3.07-.05,2.53-.33,6.47.02,11.47.49,7.42,2.47,14.75,5.74,21.63,3.24,6.9,7.6,13.34,12.39,19.62,4.76,6.3,9.89,12.47,14.91,18.82,5.02,6.35,9.99,12.87,14.35,19.91,3.24,5.27,5.91,10.8,8.37,16.38,2.44,5.59,4.66,11.25,6.76,16.94,4.22,11.38,7.94,22.9,11.82,34.32l-.07.06Z"/><path class="cls-1" d="M131.96,172.36c.8,1.08,1.61,2.17,2.49,3.22.31.39.69.71,1.01,1.1,1.12,1.36,2.17,2.81,3.29,4.2.5.61.97,1.25,1.48,1.85.61.81,1.18,1.65,1.66,2.56.15.28.05.32-.26.23-.3-.09-.87-.24-1.37-.55l-1.32-.86c-.42-.3-.81-.63-1.2-.96-.78-.66-1.37-1.49-2.01-2.31-.74-.99-1.72-1.83-2.56-2.77-.93-1.04-1.83-2.11-2.71-3.21l-1.6-2.04c-.8-1.04-1.53-2.14-2.31-3.18-.61-.81-1.31-1.54-1.94-2.33-.15-.17-.29-.34-.42-.52-.47-.69-.4-1.03.13-1.54.12-.11.23-.24.36-.33.41-.32,1.02-.29,1.47.12,1.29,1.22,2.35,2.64,3.45,4.06.82,1.05,1.58,2.16,2.42,3.22l-.05.05Z"/><path class="cls-1" d="M132.77,96.86c.53.82,1.16,1.59,1.88,2.29.27.25.58.44.85.69.23.23.49.43.74.65l.32.26c.12.07.23.16.37.23.53.29,1.16.53,1.8.71.58.16,1.17.29,1.77.36.77,0,1.52.35,2.32.56.25.08.23.16.03.36-.2.19-.59.6-1.08.84l-.65.26c-.22.08-.44.06-.66.08-.44.03-.87.03-1.31,0-.88-.05-1.74-.36-2.59-.76-.49-.25-1.09-.5-1.61-.82-.46-.27-.93-.56-1.36-.89-.92-.76-1.74-1.63-2.46-2.56-.45-.57-.84-1.19-1.22-1.81-.56-.95-.97-1.98-1.36-2.99-.32-.78-.67-1.57-.87-2.41-.04-.18-.11-.36-.13-.55-.08-.71.11-.95.77-1.09.15-.03.3-.08.45-.09.51-.06.95.19,1.14.61.28.62.55,1.2.8,1.79.25.58.44,1.17.72,1.75.39.85.83,1.71,1.41,2.49l-.05.04Z"/><path class="cls-1" d="M132.18,152.21c.1,1.64-.17,3.26-.56,4.81-.17.56-.3,1.13-.51,1.67-.89,1.87-2.12,3.49-3.54,4.84-.71.52-1.28,1.18-2,1.63-.87.66-1.85,1.2-2.98,1.29-.35.03-.32-.03-.18-.36.07-.17.16-.41.25-.72.11-.27.27-.52.46-.73.4-.31.62-.82,1-1.11l.52-.49c.16-.17.3-.37.46-.54.63-.7,1.22-1.4,1.9-2.1.74-.89,1.13-2.05,1.43-3.17.08-.31.18-.62.28-.92l.18-.95c.16-.63.14-1.29.2-1.94-.03-.8-.02-1.62-.24-2.41-.21-1.21-.69-2.38-1.35-3.4-.27-.39-.63-.7-.96-1.02-.34-.32-.77-.53-1.12-.8-.16-.12-.33-.21-.51-.3-.16-.09-.28-.18-.37-.28-.08-.1-.11-.24-.14-.36-.03-.26.02-.54.15-.92.06-.17.1-.35.16-.5.2-.51.77-.77,1.55-.65,2.04.72,3.81,2.47,4.76,4.54.68,1.55,1.14,3.21,1.22,4.87h-.08Z"/><path class="cls-1" d="M85.77,221.69c-.36-5.3-.85-10.62-1.3-15.97-.15-1.97-.37-3.94-.42-5.91-.19-6.97.33-14.02,2.18-20.82.81-3.01,1.86-6.01,3.42-8.73l.74-1.32.87-1.24c.3-.41.57-.84.9-1.23l1.02-1.13c.65-.78,1.49-1.38,2.29-2,.77-.65,1.69-1.11,2.58-1.57,1.18-.45,1.08-.23.49.73-.29.49-.76,1.06-1.29,1.74-.47.76-1.1,1.5-1.75,2.32-1.18,1.43-2.26,2.92-3.11,4.58-.41.83-.87,1.63-1.2,2.52-.38.86-.79,1.7-1.07,2.6-1.3,3.55-2.13,7.33-2.7,11.2-.67,4.64-.52,9.58-.26,14.4.33,5.3.91,10.69,1.33,16.07.27,3.31.5,6.64.66,9.96.25,5.04.26,10.12.01,15.15-.19,3.9-.41,7.76-1.18,11.61-.14.85-.32,1.68-.57,2.52-.22.78-.41,1.42-.6,1.96-.22.52-.43.93-.62,1.26-.39.65-.77.97-1.23,1.15-.21.08-.44.21-.63.23-.63.06-.64-1.32-.07-3.47.3-1.65.68-3.28.89-4.97.31-1.67.46-3.39.68-5.1.32-3.46.49-6.99.53-10.55.02-5.29-.23-10.64-.66-15.98h.07Z"/><path class="cls-1" d="M183.12,258.05c.67.49,1.26.88,2.06,1.62.22.27.48.51.64.84.13.23.23.45.31.64l.45,1.1c.2.5.49.93.7,1.38.75,1.59,1.79,2.94,3.31,3.75.71.36,1.53.56,2.31.67.5.1,1.01.13,1.5.15.47-.08.99.25,1.57.19.36-.04.3-.09.14.21-.08.16-.21.4-.41.76-.1.16-.24.33-.39.48-.07.08-.16.14-.24.24-.09.04-.19.08-.28.1-.68.18-1.35.27-2.01.29-.66,0-1.29-.12-1.92-.26-.63-.15-1.25-.35-1.88-.66-.67-.34-1.2-.74-1.71-1.22-1.12-1.2-2.17-2.44-2.84-3.81-.37-.74-.66-1.5-.95-2.13l-.17-.36c-.05-.07-.05-.11-.17-.21-.2-.2-.5-.42-.79-.64-.73-.53-1.52-1.05-2.32-1.55-1.21-.75-2.43-1.53-3.7-2.19-.98-.52-2.05-.85-3.06-1.33-.22-.11-.46-.18-.67-.31-.41-.22-.64-.43-.71-.72-.09-.27-.06-.54.05-.88.05-.16.08-.31.14-.45.2-.45.77-.66,1.48-.61.95.26,1.93.54,2.84.98.92.42,1.83.91,2.73,1.42,1.35.76,2.67,1.59,4.01,2.46l-.04.07Z"/><path class="cls-1" d="M200.21,267.81c-1-.04-2.05-.3-2.92-.68-.31-.14-.64-.22-.93-.39-1.02-.59-1.93-1.3-2.71-2.13-.36-.36-.71-.71-1.06-1.07-.5-.44-.53-1.25-.72-1.83-.09-.4.26.04,1.11.19l.5.12c.09.01.17.03.26.04l.15.13.62.5c.41.34.85.66,1.25,1.06.48.5,1.17.72,1.78.99.7.3,1.33.51,2.04.57.44.03.89.03,1.34-.04.69-.1,1.4-.28,2.06-.6.51-.25.93-.68,1.36-1.06.1-.08.18-.19.28-.26.38-.28.62-.17,1.07.43.1.14.21.27.3.41.31.46.38,1,.15,1.32-.72.93-1.8,1.51-3.01,1.9-.9.29-1.89.44-2.91.45v-.06Z"/><path class="cls-1" d="M118.82,254.17c-2.4.62-4.79,1.37-7.17,2.15-.87.28-1.7.67-2.57.95l-4.61,1.53-4.64,1.5c-1.37.45-2.73.96-4.07,1.47-1.73.62-3.46,1.31-5.34,1.47-.58.06-.57-.15-.21-.62.18-.23.43-.55.75-.9.33-.32.74-.61,1.21-.83,1.67-.85,3.39-1.53,5.12-2.22,1.73-.68,3.48-1.34,5.28-1.93,2.15-.7,4.29-1.67,6.46-2.48,2.39-.89,4.81-1.71,7.25-2.49,1.51-.46,3.02-.92,4.55-1.33,2.3-.64,4.67-1.11,7-1.62,1.82-.36,3.59-.86,5.43-1.14.4-.07.8-.18,1.21-.2,1.53-.11,2.03.09,2.36.91.07.19.17.37.21.56.14.64-.46,1.2-1.49,1.42-3.08.68-6.27,1.21-9.5,1.98-2.39.58-4.8,1.18-7.2,1.89l-.03-.07Z"/><path class="cls-3" d="M154.31,132.33l14.42-14.02,2.84,62.49-17.88,9.62c-1.04-7.1.61-58.09.61-58.09Z"/><path class="cls-1" d="M249.87,174.22c-.52.72-1.1,1.44-1.93,1.98-.39.25-.9.5-1.29.62-.41.13-.81.23-1.22.31-.59.12-1.16.24-1.74.28-1.01.08-1.98.06-2.95.04-.97-.01-1.94-.01-2.91,0-.86.01-1.72.07-2.57.12l-1.64.1c-.55,0-1.1-.06-1.65-.08-.34-.02-.3-.01-.02-.1.28-.07.79-.33,1.4-.55,2.2-.44,4.4-.82,6.64-.97.67-.04,1.35-.13,2.03-.22.68-.08,1.34-.18,1.98-.29.7-.12,1.38-.28,2.01-.53.55-.25,1.04-.57,1.45-1.1.5-.63.91-1.39,1.22-2.21.48-1.24.77-2.6.96-3.95.13-1.05.06-2.11.03-3.16,0-.23-.03-.46-.02-.69.02-.86.18-1.13.77-1.32.13-.04.27-.1.4-.12.45-.09.82.28.97.95.23.99.32,2.02.3,3.07-.02,1.05-.1,2.12-.34,3.18-.38,1.57-.92,3.16-1.86,4.67l-.05-.03Z"/><path class="cls-1" d="M251.64,173.59c-.15.29-.34.55-.52.8-.06.09-.1.19-.18.27-.27.29-.56.54-.85.76-.13.09-.26.19-.38.29-.15.12-.32.25-.53.28-.07.01-.12-.09-.16-.23-.03-.13-.06-.32-.02-.4.18-.32.27-.62.55-.81.16-.12.19-.35.27-.52.09-.2.17-.4.23-.61.04-.13.09-.25.12-.39.04-.2.09-.41.04-.61-.04-.16-.19-.29-.3-.41-.02-.03-.06-.05-.08-.08-.06-.1.05-.17.49-.34l.3-.12c.35-.13.65-.16.8-.06.43.3.53.79.48,1.23-.03.33-.13.65-.24.96h-.04Z"/><path class="cls-1" d="M170.45,121.02c-.91.33-1.82.72-2.7,1.18-.32.17-.62.37-.94.55-1.13.61-2.26,1.27-3.37,1.96-.5.3-.99.61-1.48.92-.62.4-1.26.81-1.96,1.08-.22.09-.26-.06-.18-.3.08-.24.27-.61.6-.87,1.15-.95,2.26-1.96,3.62-2.68.8-.45,1.54-1.06,2.34-1.56.89-.54,1.79-1.07,2.74-1.51.57-.29,1.19-.51,1.79-.75.93-.32,1.88-.58,2.83-.79.74-.19,1.46-.38,2.22-.52.17-.04.33-.06.5-.07.63-.03.83.08.94.54.03.1.06.21.07.31.04.35-.21.65-.62.75-1.22.29-2.44.52-3.67.86-.92.23-1.82.58-2.72.93l-.02-.04Z"/><path class="cls-1" d="M171.96,142.45c-.04,3.19-.08,6.38-.08,9.58,0,1.16.08,2.33.07,3.49l-.06,12.32c0,1.82.05,3.65.13,5.46.06,1.16.09,2.32.1,3.48-.01,1.16.04,2.33-.14,3.5-.11.73-.29.64-.65.05-.39-.59-.93-1.7-1.12-3.03-.38-2.36-.55-4.73-.68-7.1-.14-2.37-.21-4.76-.1-7.15.1-2.87-.13-5.84-.18-8.77l-.08-9.66-.02-5.94c-.02-3,.02-6.02-.06-8.99-.06-2.31-.28-4.58-.41-6.87-.03-.5-.08-1-.1-1.51-.05-1.89.15-2.49.93-2.89.17-.09.35-.21.52-.26.57-.17,1.09.6,1.24,1.97.5,4.07.62,8.37.69,12.69.05,3.21.06,6.43.07,9.65h-.07Z"/><path class="cls-1" d="M228.05,118.58c-10.95,0-21.91.12-32.87.31-4,.08-7.99.23-11.99.34l-10.55.31-2.62.11-.59.03c-.08,0-.15,0-.21.03-.08.05-.07.04-.24.17-.16.11-.32.24-.49.38-1.33,1.07-2.66,2.23-3.97,3.38-2.6,2.33-5.21,4.71-7.56,7.21-.55.6-1.19,1.32-1.48,1.82-.1.12-.11.24-.16.35l-.11.54c-.06.4-.12.8-.15,1.23-.16,1.69-.21,3.45-.25,5.2-.1,6.22.1,12.51.24,18.71.1,3.99.24,7.98.3,11.98.02,2-.03,4-.08,6.01l-.12,3c0,.5-.12,1-.18,1.5l-.11.75c-.02.12-.04.25-.05.37-.02.06.04.13-.06.19l-.05.19c-.34,1.24-.49,1.77-.51,1.73-.03-.04,0-.65-.26-1.71-.24-1.06-.72-2.55-.94-4.35-.26-1.8-.51-3.9-.62-6.19-.21-8.12-.49-16.25-.59-24.43-.02-4.1-.05-8.17.24-12.39.04-.53.09-1.07.16-1.62.05-.29.07-.55.14-.87l.1-.47c.04-.16.12-.4.19-.59.15-.39.37-.7.57-1.03l.55-.7c.37-.43.73-.84,1.09-1.23,1.46-1.54,2.97-2.96,4.5-4.37,1.83-1.67,3.69-3.33,5.61-4.98l1.46-1.23c.26-.21.49-.41.77-.62.12-.08.32-.26.55-.39l.34-.2.17-.09c.07,0,.13-.02.19-.03.25-.05.51-.12.76-.12l.51-.03.96-.05,1.9-.08c5.05-.19,10.12-.34,15.14-.44,11.05-.26,22.1-.43,33.16-.51,6.81-.05,13.61-.06,20.43.05,1.29.03,2.58.06,3.88.11l1.95.1.99.08c.39.01.89.14,1.33.21.24.02.44.1.62.2l.29.13c.01.13.11.18.15.28.23.33.29.8.34,1.26l.1,1.18.06.97.19,3.88c.2,5.16.34,10.3.49,15.41.26,7.95.51,15.74.76,23.59.04,1.73.11,3.42.13,5.17.07,6.47-.17,8.54-.96,9.92-.18.31-.36.73-.54.91-.61.61-1.05-2.03-1.22-6.75-.54-14.01-.9-28.81-1.41-43.62-.11-2.75-.21-5.51-.37-8.22l-.1-1.53s0-.02,0-.02c.28.02-.74-.07-1.33-.1l-2.03-.09c-5.46-.18-11.01-.17-16.53-.15v-.07Z"/><path class="cls-1" d="M43.02,139.98c-.63,3.03-1.47,6.01-2.38,8.94-.45,1.47-.94,2.93-1.46,4.37l-.79,2.14-.14.36c-.01.05-.07.12-.04.17.03.06.09.09.15.13.09.05-.02.01.44.21.67.28,1.4.54,2.15.76,1.5.46,3.06.84,4.63,1.19,3.16.66,6.37,1.17,9.6,1.53,4.51.51,9.06.71,13.59.72,7.97.02,16.02-.74,23.52-3.2,8.33-1.48,9.06-10.87,9.24-18.57.04-7.1-.92-14.27-2.31-21.23-.9-4.47-2.06-8.9-3.31-13.29-1.21-4.41-2.66-8.73-4.2-13.02-.38-1.39-.56-2-.49-1.99.07,0,.42.61,1.22,1.58,1.51,1.97,4.01,5.88,5.82,10.95.4,1.12.81,2.24,1.16,3.38.34,1.14.66,2.29.97,3.43.61,2.3,1.18,4.61,1.68,6.94,1.01,4.65,1.79,9.36,2.28,14.12.48,4.76.7,9.59.2,14.49-.25,2.44-.67,4.91-1.51,7.36-.41,1.22-.99,2.44-1.74,3.6-.76,1.16-1.83,2.26-2.99,3-1.38.91-2.83,1.5-4.24,2.01-1.4.49-2.81.92-4.24,1.3-2.86.77-5.78,1.33-8.71,1.75-5.87.82-11.82,1.04-17.68.8-4.79-.19-9.56-.68-14.29-1.49-2.37-.4-4.72-.88-7.07-1.49-1.17-.32-2.34-.65-3.52-1.08-.29-.1-.59-.22-.88-.34-.32-.13-.51-.21-1.02-.46-.44-.2-.78-.48-1.16-.73-.21-.11-.31-.3-.46-.46-.14-.15-.28-.33-.4-.51l-.09-.2c.05-.09,0-.15.01-.22v-.41c0-.14,0-.28.03-.43l.13-.45.58-1.57.87-2.28c.57-1.52,1.1-3.05,1.59-4.59,1.15-3.69,2.06-7.45,2.66-11.26.62-3.8.77-7.65.85-11.56.13-5.91.08-11.91.85-17.9.18-1.49.45-3,.76-4.47.31-1.46.64-2.92.99-4.37.73-2.9,1.57-5.79,2.74-8.58,1.79-4.32,4.39-8.44,8.04-11.48,3.56-3.07,7.82-5.35,12.39-6.55,2-.57,4.02-.91,6.11-1.1,3.9-.25,6.5.19,8.26.73,1.76.54,2.69,1.3,3.23,2.05.26.34.53.83.57,1.08.04.23-.12.31-.41.29-.29-.02-.67-.15-1.29-.27-1.18-.28-3.13-.65-5.71-.76-1.9-.08-3.84,0-5.76.31-1.92.25-3.81.76-5.65,1.36-3.67,1.28-7.1,3.24-10,5.85-2.87,2.55-4.98,5.88-6.53,9.57-1.57,3.69-2.61,7.71-3.5,11.83-1.37,5.95-1.5,12.18-1.63,18.55-.06,3.18-.11,6.4-.3,9.66-.2,3.3-.66,6.57-1.32,9.79h-.08Z"/><path class="cls-1" d="M431.97,439.93c-.06.65-.11,1.3-.12,1.95,0,.24.08.46.07.7-.02.84-.14,1.7-.1,2.55,0,.38.13.73.17,1.1.09.46.21.92.08,1.44-.04.16-.4.24-.82.22-.41-.02-.94-.12-1.12-.37-.68-.85-.88-1.85-.8-2.89.04-.62-.23-1.21-.29-1.82-.07-.67-.1-1.35-.13-2.03-.01-.42-.03-.84-.04-1.25-.04-.63,0-1.26-.12-1.88-.08-.48-.38-.93-.54-1.41-.04-.1-.1-.2-.12-.31-.03-.2,0-.33.18-.43.24-.1.53-.17.93-.23l.52-.08c.28-.03.54-.01.82.05.27.06.63.15.69.28.7.78.8,1.62.83,2.48.03.64-.02,1.28,0,1.93h-.08Z"/><path class="cls-1" d="M462.72,437.63c-.08.73-.16,1.47-.22,2.2-.02.27.05.53.02.79-.1.94-.22,1.89-.28,2.83-.02.42.03.83.06,1.24.04.53.22,1.04-.11,1.6-.09.17-.5.19-.99.1-.45-.1-1.16-.29-1.24-.58-.17-.52-.34-1.05-.39-1.58-.01-.54.03-1.09.14-1.64.14-.66-.07-1.32-.1-1.99-.03-.73-.03-1.46-.04-2.19,0-.45,0-.9-.02-1.35-.03-.69-.01-1.35-.13-2.05-.1-.54-.37-1.1-.45-1.74,0-.14-.04-.28-.02-.43.2-.52.54-.63,1.27-.54.17.02.33.03.49.06.52.11.95.38,1.25.66.49.42.6.72.74,1.11.1.38.12.81.14,1.29.03.73-.03,1.47-.04,2.2h-.08Z"/><path class="cls-1" d="M431.3,439.25v-1.46s-.01-.73-.01-.73v-.36s0-.18,0-.18c0-.02.01-.02.02-.03.03-.08.06-.2.02-.29-.06-.1-.17-.09-.27-.13-.1-.01-.34-.04-.48-.04-.17-.01-.13,0-.2,0-.08,0-.16.01-.26.03-.17.04-.27.2-.3.38,0,.07-.02.04-.02.2v.47s-.01.93-.01.93c0,1.24.02,2.48.03,3.72.02,1.1.14,2.2.27,3.29.1.69.2,1.39.22,2.1.04.7.06,1.41-.12,2.15-.17.47-.24.42-.65.1-.21-.16-.47-.39-.78-.67-.27-.29-.48-.64-.62-1.03-.53-1.4-.64-2.85-.85-4.29-.17-1.45-.27-2.91-.2-4.38.02-.44.01-.88,0-1.33l-.03-.67-.03-.38c-.01-.19-.02-.37-.02-.56,0-.74.19-1.48.67-2.03.47-.56,1.17-.86,1.9-.91.39-.03.84,0,1.18.04l.38.05.19.03.3.03c.8.05,1.53.23,1.98.87.43.59.46,1.39.49,2.17l.05,1.47.13,3.61c.04,1.82.05,3.65.17,5.46l.03.52.05.65c.03.26.01.51,0,.74-.02.24-.09.47-.24.67-.29.4-.77.55-1.26.73-.23.09-.56.14-.75.2-.19.04-.39.08-.59.11-.35.05-.7.1-1.06.09-1.34-.04-1.72-.46-1.71-1.2,0-.16-.03-.32-.01-.45.03-.22.19-.38.44-.55.26-.19.56-.25.91-.25.52,0,1.03-.02,1.53-.1.1-.01.31-.05.29-.06.02-.02.03-.03.04-.05.02-.03.02-.05.01-.08,0-.01-.01-.03-.02-.03l-.05-.02h-.02s-.04-.23-.04-.23l-.09-.48c-.11-.65-.17-1.3-.25-1.95-.22-1.94-.38-3.9-.41-5.85h.07Z"/><path class="cls-1" d="M461.85,437.44l.07-2.19.02-.55v-.27s.01-.12.01-.12v-.02c.02-.07.03-.15,0-.22-.05-.08-.14-.12-.24-.14-.02,0-.04,0-.06,0h-.19c-.15,0-.3,0-.43.02-.28.02-.53.07-.72.11-.16.04-.2.05-.26.08-.06.03-.12.08-.15.14-.1.06-.09.43-.08.95v1.44c0,.96.02,1.92.07,2.88.05,1.07.23,2.13.35,3.18.16,1.36.63,2.65.14,4.13-.21.47-.26.43-.73.14-.22-.14-.7-.32-.96-.6-.3-.27-.58-.6-.74-.99-.2-.7-.33-1.41-.47-2.12-.13-.71-.26-1.42-.26-2.15-.05-1.45,0-2.9.13-4.35.05-.49.06-.98.09-1.48.04-.45-.03-1.1.3-1.92.27-.58.75-1.04,1.31-1.34.52-.28.99-.38,1.45-.45.26-.04.51-.05.75-.06h.37c.17,0,.36,0,.53,0,.71.04,1.38.3,1.81.83.26.32.4.7.47,1.11.03.2.05.41.06.62v.43s.05,1.57.05,1.57c.04,1.18.01,2.35.03,3.53.02,1.78,0,3.57.11,5.34l.1,1.19c.04.49-.02,1.01-.38,1.36-.33.35-.8.57-1.29.8-.37.16-.75.29-1.15.38-.35.08-.69.15-1.06.16-.68.02-1.12-.11-1.39-.32-.13-.1-.23-.21-.29-.35-.06-.15-.08-.32-.1-.48-.01-.15-.04-.29-.03-.4.02-.32.63-.78,1.26-.86.48-.05.95-.16,1.39-.32.11-.04.21-.08.32-.13.1-.04.24-.11.2-.11.02-.03.02-.06.02-.08-.02-.14-.04.23-.1-.68-.04-.64-.09-1.28-.13-1.92-.12-1.91-.17-3.82-.25-5.73h.07Z"/><path class="cls-1" d="M477.17,436.94c-.68-.79-1.54-1.46-2.5-1.95-.24-.13-.49-.23-.73-.34,0-.02-.34-.09-.58-.13-.55-.08-1.16-.14-1.76-.19-2.45-.18-4.96-.24-7.46-.28-1.83-.03-3.66.03-5.49.02-1.61,0-3.23-.04-4.84.02-1.61.1-3.23.07-4.84.11-3.23,0-6.46.02-9.69.09-2.87.08-5.74.27-8.58.49-3.64.26-7.28.86-10.89.62-.25-.02-.43-.04-.58-.05-.1-.02-.13-.04-.17-.07-.08-.05.12-.28.56-.61.44-.34,1.09-.73,1.88-1.21.8-.4,1.78-.65,2.83-.82.94-.15,1.88-.24,2.81-.3l2.81-.18c1.88-.11,3.75-.19,5.63-.24,3.76-.08,7.51-.26,11.29-.24,1.13,0,2.27,0,3.42,0,1.15,0,2.3-.03,3.46.01,2.32-.03,4.65-.06,6.96-.09,2.54,0,5.09.02,7.64.1,1.28.04,2.55.09,3.85.2.65.06,1.29.11,2.01.25l.29.07c.11.03.24.07.33.11l.48.21c.31.14.62.3.92.47,1.48.83,2.79,2.01,3.72,3.47.94,1.44,1.44,3.25,1.3,4.98-.09,1.32-.55,2.67-1.36,3.73-.8,1.07-1.86,1.88-2.97,2.48-.15.07-.26.15-.43.22-.2.07-.44.15-.61.18-.31.05-.63.11-.93.14-.6.08-1.2.14-1.79.2-1.18.1-2.36.21-3.54.31-1.82.16-3.63.31-5.44.47-1.8.13-3.6.26-5.42.33-.8.04-1.58.08-2.39.09-3,.03-3.98-.3-4.56-1.12-.13-.16-.32-.31-.39-.44-.12-.22.12-.39.67-.65.55-.28,1.38-.41,2.45-.47,3.2-.22,6.46-.44,9.78-.67,3.31-.17,6.73-.28,9.99-.6.31-.03.59-.07.84-.12l.2-.03c.1-.01,0,0,.02,0h-.01c.09.23.19.45.29.66l.17.32.09.16.04.08.02.04c.15.29-1.18-2.33-.62-1.22l.18-.09c.48-.25.92-.52,1.31-.84.78-.62,1.34-1.36,1.63-2.22.3-.83.3-1.9.08-2.81-.24-.93-.73-1.84-1.43-2.62l.04-.05Z"/><path class="cls-1" d="M433.21,447.81c1.79-.04,3.58-.09,5.38-.16.65-.03,1.3-.13,1.96-.15.58-.03,1.16,0,1.73-.08.57-.11,1.15-.09,1.73-.13l3.48-.03c1.03-.04,2.05-.17,3.06-.29.65-.08,1.3-.22,1.95-.25.33,0,.66,0,.99.02.16-.01.33.06.5.14.17.08.34.12.51.23.43.35.37.28.06.74-.16.24-.38.55-.65.94-.27.32-.6.5-.97.6-.33.09-.66.13-.99.14l-.99.06c-.66.04-1.33.07-2,.09-1.34,0-2.67.15-4.02.11h-1.22c-.41.01-.82.04-1.24,0-.83.02-1.65.15-2.47.19l-5.43.28-3.35.14c-1.69.09-3.39.1-5.08.24-.66.05-1.31.14-1.96.23-.66.07-1.31.13-2,.15-.3.01-.6.03-.91.02-1.16-.07-1.67-.52-1.59-1.36.01-.17.02-.32.06-.43.07-.19.26-.31.47-.54.22-.25.44-.36.77-.39.98-.11,2.13-.26,3.28-.36,1.15-.03,2.35-.01,3.55-.02,1.78-.06,3.59-.09,5.39-.19v.06Z"/><path class="cls-1" d="M122.29,47.51c3.31,1.32,6.31,3.49,8.53,6.35,1.11,1.42,1.97,3.07,2.54,4.77.59,1.7.92,3.46,1,5.2.15,2.54-.05,5.06-.7,7.47-1.15,4.21-3.29,8.24-6.53,11.21-1.53,1.54-3.34,2.74-5.16,3.86-1.88,1.02-3.81,1.94-5.84,2.56-3.57,1.17-7.29,1.86-10.98,2.06-2.37.08-4.75.11-7.11-.17-2.37-.19-4.7-.82-6.82-1.95-1.33-.68-1.16-.49.1-.52.63-.02,1.55-.14,2.64-.38.54-.12,1.1-.08,1.7-.14.3-.02.61-.04.92-.06.31.02.62.04.94.08,4.54.38,9.1.17,13.51-.7,2.2-.45,4.36-1.05,6.41-1.94,1.05-.39,2.01-.95,3.01-1.44.94-.59,1.92-1.13,2.79-1.84l.81-.6c.25-.22.49-.45.74-.68.49-.46,1.01-.91,1.42-1.43.89-.99,1.63-2.14,2.28-3.34.66-1.2,1.14-2.49,1.58-3.79.36-1.32.69-2.66.82-4.02.36-2.96.08-6-1.01-8.67-1.1-2.64-3.06-4.97-5.52-6.62-1.5-1.03-3.19-1.81-4.95-2.35-.89-.25-1.79-.46-2.7-.59-.93-.09-1.87-.14-2.8-.21-2.83,0-5.67.46-8.36,1.42-2.68,1-5.15,2.52-7.35,4.35-3.4,2.89-6.01,6.52-7.98,10.44-.44.86-.83,1.72-1.2,2.62-1.42,3.31-1.89,4.34-3.02,4.84-.25.12-.52.29-.75.34-.39.08-.61-.28-.66-1.02-.06-.75.02-1.9.47-3.27,1.22-4.09,3.23-8.09,6.01-11.66,2.76-3.57,6.29-6.75,10.5-8.96,3.14-1.6,6.64-2.63,10.2-2.84,1.78-.18,3.55,0,5.32.14,1.8.24,3.56.7,5.24,1.36l-.03.09Z"/><path class="cls-1" d="M133.43,136.34c1.88-1.6,3.52-3.5,4.65-5.67.24-.38.36-.81.52-1.22.16-.41.32-.83.46-1.28,1.13-3.09,1.6-6.32,1.42-9.7-.06-1.49-.3-3-.49-4.5-.12-.96-.26-1.93-.35-2.9-.04-.49-.11-.97-.09-1.47.03-.5.05-.99.12-1.49.19-.63.28-.56.75-.1.25.23.52.56.83.96.14.2.32.42.44.66.11.24.2.5.26.77.43,1.94.92,3.87,1.06,5.9.2,2.01.27,4.12,0,6.23-.32,2.52-.68,5.12-1.57,7.54-1.01,2.74-2.69,5.14-4.66,7.15-.58.65-1.27,1.18-1.9,1.77-.69.52-1.34,1.08-2.06,1.56-2.13,1.49-4.47,2.65-6.85,3.62-1.85.73-3.69,1.47-5.66,1.95-.43.09-.86.19-1.3.26-.82.14-1.38.09-1.77-.04-.39-.13-.61-.38-.79-.78-.08-.18-.18-.35-.23-.53-.14-.58.48-1.17,1.54-1.4,3.14-.86,6.35-1.75,9.38-3.26,2.24-1.1,4.39-2.44,6.25-4.1l.05.05Z"/><path class="cls-1" d="M209.14,258.86c.13.13.25.28.38.46.13.17.25.31.38.54.24.34.55,1.05.6,1.6.21,1.14-.12,2.33-1.05,2.96-.61.46-1.57.74-1.99.8-1.34.17-2.17-.22-3.03-.52-.84-.33-1.62-.7-2.35-1.15-.66-.37-1.31-.75-1.96-1.12-.81-.49-1.71-.95-2.18-1.96-.06-.38-.02-.3.32-.3.22,0,.45,0,.63,0,.23.02.56-.06.76.07,1.61.74,3.41,1.18,4.97,1.99.47.22.99.37,1.46.4.24.03.45.01.62.01.08-.02.11,0,.24-.03l.32-.07c.22-.03.5-.1.56-.36.03-.12.03-.25.02-.38,0-.08-.04-.11-.04-.17-.02-.07-.1-.17-.14-.26-.33-.5-.9-1.05-1.47-1.53-.88-.74-1.82-1.48-2.83-2.09-.79-.47-1.65-.79-2.49-1.17-.19-.08-.37-.17-.54-.28-.64-.41-.72-.75-.48-1.39.05-.15.1-.3.16-.43.21-.44.72-.67,1.29-.55.86.15,1.64.48,2.4.88.76.4,1.51.86,2.25,1.37,1.1.77,2.15,1.57,3.23,2.67l-.05.05Z"/><path class="cls-1" d="M205.3,250.56l-1.49-.49-.76-.26c-.29-.1-.58-.22-.86-.35-.56-.26-1.07-.58-1.48-.83-.42-.26-.74-.42-1.06-.53-.23-.07-.52-.1-.78-.08-.23.01-.5.05-.8.12-1.07.23-2.26.8-3.45,1.38-1.22.57-2.37,1.23-3.92,1.62-.85.14-1.5-.04-2.14-.2-.63-.17-1.21-.41-1.77-.67-1.43-.65-2.82-1.55-3.68-2.98-.13-.55-.08-.44.38-.32.46.13,1.19.3,1.93.61.66.27,1.31.56,1.97.79.66.23,1.33.41,1.93.49.3.05.56.03.75.02.04,0,.38-.05.69-.17.63-.21,1.31-.51,2.01-.81.84-.36,1.68-.83,2.58-1.28.91-.44,1.86-.91,3.08-1.04.7-.07,1.31,0,1.98.19.65.18,1.2.51,1.65.77.9.57,1.59.85,2.65,1.17,1.21.39,2.45.75,3.72,1.22.9.35,2.62,1,2.51,2.3-.03,1.42-1.6,2.54-2.47,2.95-1.48.72-2.96,1.26-4.54,1.48-.35.06-.69.1-1.05.12-1.33.02-1.81-.28-1.95-.96-.03-.15-.08-.3-.09-.44.01-.46.53-.81,1.3-.93,1.19-.2,2.4-.56,3.56-.91.58-.17,1.13-.4,1.62-.63.22-.11.51-.28.58-.34.01,0,0,0,0,0h0s.01,0,.01-.01c-.04-.02.13.03-.24-.12-.73-.28-1.55-.53-2.38-.78v-.06Z"/><path class="cls-1" d="M143.19,255.43c-4.82-4.48-9.34-9.22-13.71-14.09-1.59-1.78-3.23-3.51-4.76-5.34-5.4-6.44-10.48-13.15-15.13-20.16-2.06-3.11-4.09-6.27-5.99-9.45-2.37-4.11-4.86-8.29-5.76-13.08-.36-1.45-.38-1.22.32-.16.37.52.86,1.27,1.72,2.05.77.81,1.44,1.86,2.22,2.97,1.21,2.05,2.42,4.09,3.69,6.1,1.22,2.04,2.49,4.06,3.8,6.06,2.63,3.99,5.31,7.97,8.07,11.93,3.32,4.74,7.26,9.3,11.16,13.76,4.28,4.9,8.72,9.67,13.39,14.21,2.88,2.78,5.83,5.49,8.94,7.97,1.17.94,2.38,1.84,3.61,2.68,1.23.8,2.52,1.63,3.77,2.06l.36.1c.1.04.21.04.31,0,.21-.05.36-.14.7-.33.59-.36,1.18-.8,1.77-1.26,1.17-.92,2.31-1.91,3.45-2.9,3.52-3.11,6.82-6.37,10.51-9.34.82-.65,1.6-1.31,2.48-1.91,3.25-2.25,4.71-2.51,5.78-2.05.25.11.55.21.71.35.53.53-.69,1.39-2.86,2.92-3.26,2.29-6.41,5.09-9.61,7.94-1.61,1.44-3.24,2.89-4.87,4.35-1.69,1.46-3.28,2.92-5.35,4.33-.41.26-.76.52-1.62.86-.77.24-1.58.29-2.38.02-.61-.14-1-.35-1.47-.54-.48-.19-.83-.42-1.25-.63-1.58-.89-2.98-1.86-4.34-2.88-2.71-2.04-5.23-4.22-7.69-6.46l.05-.06Z"/><path class="cls-1" d="M416.15,387.57c-.83.09-1.66.19-2.49.28-.3.04-.59.11-.9.13-1.07.05-2.14.11-3.2.16-.47.04-.94.07-1.41.08-.6.04-1.2.05-1.81-.03-.19-.02-.17-.12-.03-.27.14-.14.4-.39.73-.53.58-.23,1.16-.46,1.74-.65.6-.09,1.19-.15,1.81-.17.73-.02,1.46-.26,2.18-.4.8-.14,1.61-.27,2.42-.41.5-.09.99-.18,1.48-.29l1.12-.25.55-.14c.16-.05.31-.1.46-.18.46-.22.83-.67.89-.97.01-.06-.01-.11-.02-.13,0-.02.04.01.16-.03.17-.04.32-.14.55-.27.1-.06.19-.13.28-.19.15-.1.31-.14.52-.07.21.05.51.26.55.63.12.56-.08,1.11-.32,1.49-.24.39-.53.67-.83.91-.3.23-.62.41-.95.55-.16.07-.33.13-.51.19l-.27.08-.21.05c-.82.2-1.65.33-2.48.47v-.05Z"/><path class="cls-1" d="M419.96,384.05c-.58-.52-1.17-1.03-1.79-1.52-.22-.18-.49-.3-.71-.48-.78-.64-1.51-1.41-2.32-2.04-.35-.3-.72-.57-1.09-.83-.24-.17-.48-.33-.71-.51-.24-.16-.41-.44-.61-.66-.12-.15-.07-.19.14-.23.19-.02.61-.16.95-.1,1.15.36,2.3.73,3.22,1.53.56.45,1.28.71,1.87,1.15.66.47,1.31.96,1.95,1.47l1.17.94c.6.47,1.16,1,1.76,1.45.46.36,1.03.61,1.52.96.11.08.23.14.33.23.19.17.26.33.22.52-.03.18-.13.36-.3.58-.08.1-.15.21-.23.3-.27.3-.69.41-1.1.36-1.02-.33-1.74-.97-2.54-1.62-.59-.48-1.16-1-1.77-1.48l.03-.05Z"/><polygon class="cls-4" points="307.5 377.81 307.99 446.22 346.11 467.51 346.31 398 307.5 377.81"/><path class="cls-1" d="M312.42,374.63c.7-.94,1.6-1.42,2.46-1.72.31-.11.6-.21.91-.26,1.07-.09,2,.01,2.89-.02.39-.01.77-.09,1.12-.2.45-.15.84-.35,1.3-.45.15-.02.34.26.42.62.08.36.02.87-.29,1.06-1.08.69-2.23.95-3.27.96-.63,0-1.2.27-1.68.46-.54.2-1.02.35-1.39.69-.2.18-.38.42-.48.72-.15.44-.2.99-.04,1.48.14.39.51.61.76.81.06.04.13.07.18.11.1.07.14.17.14.3-.01.15-.06.34-.15.61l-.11.36c-.07.2-.17.35-.33.47-.16.11-.4.21-.61.15-.66-.13-1.35-.5-1.77-1.07-.44-.55-.73-1.23-.85-1.94-.18-1.06.11-2.21.73-3.18l.06.03Z"/><path class="cls-1" d="M413,381.09c-1.3-.51-2.67-.89-4.07-1.16-.51-.09-1.04-.11-1.56-.19-1.83-.28-3.71-.4-5.61-.45-.84-.03-1.69.02-2.52.07-1.07.05-2.17-.02-3.27-.23-.34-.06-.3-.05-.02-.18.28-.1.76-.55,1.36-.83.54-.19,1.08-.41,1.62-.55.55-.08,1.11-.16,1.67-.21.56-.05,1.12-.09,1.69-.11.57,0,1.14.05,1.7.1,1.36.14,2.78.06,4.18.21,1.53.17,3.07.46,4.56.89.92.25,1.82.59,2.7.96,1.34.56,2.61,1.28,3.82,2.05.96.61,1.88,1.13,2.82,1.92.21.19.42.39.6.66.34.49.43,1.01.31,1.36-.11.35-.35.51-.64.55-.14.02-.27.03-.39,0-.2-.04-.35-.18-.5-.29-.15-.11-.32-.16-.45-.23-.16-.14-.42-.36-.72-.57l-1.1-.73c-.76-.49-1.53-.97-2.35-1.39-1.21-.63-2.49-1.18-3.83-1.6l.02-.06Z"/><path class="cls-1" d="M309.34,442.75c-.55-1.69-.89-3.44-1.07-5.15-.07-.63-.17-1.24-.21-1.87-.11-2.2-.08-4.37.01-6.53.03-.96.02-1.92,0-2.86-.04-1.21-.07-2.38-.11-3.65,0-.38.07-.34.22-.03.14.31.37.88.5,1.58.42,2.48.72,4.98.77,7.46,0,1.49.21,3.02.42,4.51.22,1.64.5,3.25,1,4.8.29.96.66,1.9,1.11,2.79.67,1.36,1.49,2.66,2.54,3.72.82.82,1.82,1.39,2.82,1.83.22.1.45.17.66.27.78.42,1,.61.98,1.3,0,.15.01.31,0,.45-.05.48-.57.73-1.4.6-1.22-.19-2.32-.84-3.32-1.6-1-.77-1.84-1.72-2.55-2.74-1.07-1.51-1.84-3.18-2.42-4.87l.05-.02Z"/><path class="cls-1" d="M324.23,384.31c1.85,1.21,3.71,2.4,5.62,3.54.69.42,1.43.75,2.13,1.17,2.44,1.48,4.89,2.96,7.39,4.38,1.11.61,2.25,1.21,3.37,1.78.73.36,1.46.71,2.15,1.15.35.21.69.44,1.03.67l.5.36c.16.13.28.34.43.5.33.46.22.52-.35.7-.61.26-1.61.48-2.51.2-1.64-.42-3.11-1.18-4.62-1.87-1.45-.82-2.87-1.69-4.27-2.63-1.67-1.13-3.58-1.97-5.37-2.99-1.96-1.12-3.9-2.29-5.82-3.48l-3.53-2.23c-1.78-1.13-3.51-2.36-5.27-3.49-1.37-.89-2.8-1.62-4.18-2.47-.31-.18-.6-.37-.89-.59-1.04-.84-1.25-1.26-1-2.03.05-.17.08-.35.15-.49.2-.46.99-.6,1.87-.19.66.3,1.34.57,1.97.92.64.35,1.26.72,1.88,1.1,1.26.75,2.5,1.56,3.75,2.35,1.86,1.18,3.72,2.41,5.61,3.58l-.04.07Z"/><path class="cls-1" d="M390.21,464.24l-9.99,1.53c-1.22.18-2.42.45-3.64.63-4.3.6-8.62,1.11-12.94,1.56l-2.88.32c-.96.1-1.92.19-2.88.29-2.45.22-4.94.62-7.41-.06-.77-.3-.66-.25-.02-.65.65-.36,1.79-1.21,3.16-1.39,2.45-.24,4.89-.53,7.35-.83,2.46-.25,4.94-.5,7.44-.72,2.99-.27,6.05-.93,9.08-1.45l10.01-1.71,6.16-1.08c3.11-.56,6.25-1.06,9.33-1.67,2.4-.47,4.72-1.1,7.08-1.63.52-.12,1.02-.26,1.55-.36.98-.19,1.64-.23,2.12-.11.24.05.44.13.6.25.17.14.32.32.45.48.12.15.27.28.34.4.23.29-.44,1.3-1.83,1.72-4.15,1.18-8.58,2.01-13.06,2.82-3.33.57-6.68,1.15-10.02,1.72l-.02-.07Z"/><path class="cls-1" d="M335.37,459.76c2.15,1.23,4.32,2.43,6.48,3.61l2.1,1.14c.07.04.15.08.23.11.05-.04.02-.14.04-.21-.01-.06,0-.1,0-.15v-.07s.03-.09.03-.18l.02-.26.16-2.09c.05-1.39.02-2.79.04-4.18l.03-8.37.06-16.74c0-5.89,0-11.78.01-17.66l.09-7.79.16-8.16c-.03-.52.15-1,.3-1.46.06-.24.34-.32.51-.47l.3-.2c.11-.05.25-.08.37-.12.24-.09.52-.13.79-.18.26-.06.57-.11.69-.13l.98-.16,3.87-.55,7.71-1.05c5.13-.71,10.25-1.46,15.37-2.25l15.35-2.5c9.11-1.42,18.26-2.81,27.33-4.06l2.97-.39.76-.09,1.1-.09.55-.05c.18,0,.33.04.5.05.33.05.66.09.96.15.19.35.34.67.49,1.07.11.42.15.91.19,1.38l.14,2.07c.07,1.23.12,2.46.16,3.68.08,2.45.12,4.9.12,7.36,0,2.45-.03,4.91-.2,7.36-.07,1.23-.16,2.45-.26,3.67l-.8,3.63c-.42,1.81-.61,2.58-.62,2.53-.02-.05.1-.95-.03-2.51-.06-1.56-.76-3.78-.9-6.42-.12-1.32-.27-2.76-.36-4.28-.07-1.52-.13-3.13-.16-4.81-.04-2.28-.1-4.56-.19-6.84l-.17-3.4-.06-.84-.02-.34h0s0,0,0,0c0,0,.01,0-.08,0l-1.38.16-3.59.43-7.19.92c-4.79.63-9.58,1.3-14.37,2.03-4.8.71-9.56,1.48-14.37,2.27-4.82.78-9.66,1.49-14.51,2.11-3.59.47-7.21.94-10.85,1.42-1.82.25-3.64.5-5.47.74-.9.13-1.83.27-2.69.41-.15.03-.29.05-.44.09-.09.01-.05.13-.07.19l-.02.26-.05,1.08c-.04.46-.02.92-.04,1.38l-.04,2.78-.04,5.56c-.01,3.71-.03,7.42-.04,11.11l-.07,22.18-.03,11.1-.02,5.55c-.02.92.03,1.85.07,2.78l.07,1.55v2.18s-.16.69-.16.69c-.05.23-.09.49-.18.61l-.23.46c-.15.16-.38.14-.55.17-.74.09-1.79-.31-2.8-.8l-1.25-.61-.85-.43-1.67-.88-3.3-1.82-6.54-3.71c-4.34-2.5-8.66-5.03-12.97-7.58l-4.89-2.92-2.44-1.48-1.24-.77c-.29-.19-.59-.37-.86-.58-.13-.11-.26-.21-.35-.34-.03-.17-.1-.31-.13-.48-.11-.31-.13-.65-.15-.98l-.05-.82-.05-1.43-.08-2.85-.1-5.69c-.07-7.58-.15-15.15-.22-22.67-.06-11.69-.32-23.16-.1-34.73l.03-.65c.03-.3-.01-.64.08-.92-.04-.22.06-.39.09-.58.05-.18.05-.4.21-.54.26-.28.61-.46,1.01-.61.4-.14.83-.25,1.25-.35l.81-.18c1.08-.23,2.14-.42,3.22-.59,9.46-1.45,12.49-1.51,14.61-1.02.48.12,1.11.22,1.4.36.98.49-2.82,1.4-9.68,2.5-1.99.33-4,.66-6.01,1.03-1,.18-2.02.38-3.01.59l-.73.17-.14.05s-.09.03-.12.06c-.05.03.05.12-.06.12.11.06.03.06.06.09v.15s.03.79.03.79c.01.52.05,1.05.04,1.58,0,1.05,0,2.11,0,3.16,0,2.11.01,4.24.02,6.37.03,4.27.05,8.58.08,12.91.07,8.66.16,17.43.29,26.21.08,4.05.16,8.1.25,12.16l.1,3.03.08,1.86h0s0,0,0,0l.27.17,1.29.79,2.6,1.56c6.97,4.16,14.01,8.27,21.08,12.25l-.02.08Z"/><path class="cls-5" d="M353.03,376.55c0,8.85-15.57-8.5-15.57-8.5l-.08-53.35,16.49,13.76-.84,48.09Z"/><path class="cls-1" d="M337.98,363.03c-.23-2.09-.3-4.17-.35-6.22l-.08-2.24c-.04-2.63-.07-5.27-.11-7.9-.02-1.17-.08-2.34-.13-3.5-.12-1.49-.05-2.99,0-4.48.02-.47.03-.4.12-.02.08.39.3,1.1.47,1.95.17.75.23,1.51.28,2.27l.16,2.28c.09,1.52.17,3.05.2,4.58.04,1.83.2,3.74.29,5.61.1,2.06.17,4.11.39,6.14.14,1.25.33,2.48.63,3.69.44,1.83,1.09,3.62,2.05,5.2.75,1.23,1.73,2.26,2.81,3.12.24.19.49.35.74.53.46.33.77.52.94.74.17.23.23.43.25.68,0,.11.04.22.03.32-.01.16-.15.23-.42.24-.27.02-.67-.01-1.09-.25-2.55-1.3-4.49-3.79-5.67-6.47-.86-2.02-1.3-4.17-1.57-6.27h.04Z"/><path class="cls-1" d="M337.71,367.76c-.2-.7-.38-1.41-.53-2.13-.06-.26-.17-.5-.2-.77-.17-.93-.13-1.9-.07-2.84,0-.41.03-.83.03-1.24.01-.52.02-1.06.26-1.56.07-.15.34-.08.61.09.27.18.56.44.57.71.07.96.22,1.86.23,2.83.01.58.22,1.16.36,1.74.16.64.32,1.29.53,1.93.13.4.26.79.42,1.18.24.59.48,1.18.79,1.74.24.43.58.8.88,1.19.07.09.14.17.19.26.2.35.14.53-.26.86-.09.07-.18.15-.27.22-.31.22-.68.23-.95.04-.8-.57-1.4-1.34-1.82-2.21-.31-.65-.56-1.34-.81-2.03l.05-.02Z"/><path class="cls-1" d="M368.3,328.52c-1.66.02-3.32-.01-4.89.1-.58.04-1.14.16-1.7.25-1.96.3-3.89.95-5.19,2.41-.6.63-1.04,1.41-1.29,2.22-.25,1.05-.42,2.14-.11,3.26.09.35-.02.37-.32.16-.31-.2-.84-.71-1.09-1.51-.23-.7-.21-1.45-.05-2.15.14-.7.39-1.37.73-2,.66-1.25,1.76-2.27,3.02-2.89,1.46-.73,3.03-1.31,4.59-1.57,1.72-.28,3.42-.33,5.07-.4l3.07-.14c1.55-.09,3.11-.14,4.64-.29,1.19-.1,2.35-.34,3.53-.51.26-.04.51-.11.77-.09.49.01.81.06,1.05.17.24.15.38.32.5.53.05.1.12.19.16.28.06.15,0,.29-.17.47-.17.18-.43.42-.78.54-1.03.49-2.11.59-3.2.78-1.09.17-2.21.27-3.33.3-1.66.07-3.34.08-5,.13v-.05Z"/><path class="cls-1" d="M344.32,312.37c.64,0,1.27.01,1.91,0,.23,0,.45-.09.68-.09.82-.01,1.66.11,2.47.1.37.03.73,0,1.09-.01.45-.04.91-.06,1.39.01.15.03.15.15.07.33-.09.18-.25.48-.48.65-.84.52-1.67,1.11-2.64,1.03-.57,0-1.11.27-1.68.34-.62.09-1.25.16-1.88.23-.38.04-.78.08-1.15.14-.53.09-1.02.13-1.26.38-.16.15-.03.45.08.5,0,0,.04,0,.03,0-.04,0-.08.01-.12.03-.14.05-.17.08-.18.08.06-.07-.18.17-.33.42-.08.12-.15.25-.22.37-.12.2-.26.37-.49.45-.22.08-.56.06-.8-.18-.74-.72-.83-1.73-.54-2.56.07-.22.18-.43.31-.63.14-.21.32-.41.45-.54.3-.29.64-.5.96-.66.47-.23.91-.34,1.29-.38.39-.04.68-.05,1-.08v.07Z"/><path class="cls-1" d="M349.49,325.24c-.96-.79-1.86-1.64-2.72-2.5-.32-.31-.67-.58-.97-.9-1.06-1.17-2.04-2.28-3.04-3.56-.44-.58-.92-1.22-1.18-2.02-.15-.52-.27-1.09-.08-1.65.15-.54.52-1.07,1.04-1.34.35-.15.42.18.49.57.06.42.34.85.43,1.09.09.23.11.45.16.66.06.19.19.47.36.73.33.54.95,1.18,1.45,1.93.61.87,1.46,1.57,2.22,2.32.83.83,1.67,1.64,2.56,2.39.55.46,1.11.91,1.69,1.32.89.61,1.81,1.19,2.79,1.6.77.29,1.58.43,2.38.53.18.02.35.02.52.06.16.03.29.05.4.09.11.05.18.13.25.21.13.16.18.36.22.64.01.13.04.25.05.37.01.38-.32.7-.92.86-1.69.09-3.41-.46-4.94-1.26-1.15-.59-2.19-1.33-3.19-2.09l.03-.05Z"/><path class="cls-1" d="M415.97,317.95c-.89-1.17-1.79-2.33-2.71-3.47-.34-.42-.73-.77-1.06-1.18-.4-.44-.3-.48-.47-.56,0-.05-.59-.13-1.01-.17-.91-.09-1.85-.16-2.8-.23-.84-.05-1.68-.02-2.52.01-.54.01-1.08.1-1.62.03-.27-.03-.55-.06-.82-.12-.28-.04-.55-.21-.82-.33-.34-.18-.26-.42.04-.82.15-.2.35-.45.6-.73.24-.24.51-.41.81-.49.53-.15,1.07-.18,1.61-.19.54-.02,1.08-.04,1.63-.04,1.1,0,2.2.03,3.34.24.34.06.68.09,1.04.13l.55.05c.24.01.55.06.8.14.55.09,1.02.53,1.34.88.25.26.47.51.7.77.98,1.14,1.91,2.3,2.85,3.46l1.73,2.14c.88,1.07,1.73,2.18,2.65,3.21.72.8,1.55,1.48,2.32,2.24.17.17.36.33.52.51.3.34.45.66.46.91,0,.11-.01.31-.09.44-.08.15-.21.28-.36.41-.14.12-.26.23-.4.3-.23.13-.5.15-.79.18-.16.02-.26.04-.36.01-.13-.04-.26-.11-.37-.2-1.42-1.09-2.78-2.57-4.04-4.07-.93-1.14-1.87-2.28-2.81-3.42l.05-.05Z"/><path class="cls-1" d="M337.78,315.13c-.03-.18-.17-.4-.11-.56l.05-.49c.12-.42.35-.64.64-.88.59-.49,1.78-.7,2.9-.87l.86-.12c.14-.01.3-.05.41-.06.08,0,.16-.06.24-.07.32-.14.65-.1.98-.14l1.95-.1c.95-.04,1.89-.17,2.83-.2,3.33-.08,6.65-.05,9.97-.06,1.47.01,2.95-.03,4.41-.09.94-.07,1.88-.02,2.82.06l.71.07.71.22c.47.16.94.31,1.41.36.58.12.5.13.01.31-.25.1-.6.19-1.01.5-.23.16-.45.31-.68.47-.12.09-.24.15-.37.28-.13.03-.26.08-.39.1l-1.42.33-.71.17-.71.05-2.85.16c-1.9.12-3.81,0-5.74-.09-2.3-.13-4.68.15-7.01.27l-3.84.22c-.16,0-.32.03-.48.03l-.49-.05c-.18.03-.28.02-.43.03-.28.02-.58.04-.89.1-.08.02-.16.03-.23.07-.1.05,0,.12.01.18.06.13.15.24.23.36.14.16.28.33.44.5l.25.25.48.44c1.76,1.59,3.62,3.16,5.5,4.66,1.46,1.16,3,2.19,4.48,3.36.32.26.66.49.98.77,1.18,1.03,1.34,1.6.98,2.37-.08.17-.13.36-.22.49-.28.44-1.17.43-2.02-.22-2.59-1.88-5.26-4.01-7.93-6.25-.96-.81-1.91-1.62-2.86-2.48l-.71-.65-.35-.33c-.06-.04-.11-.12-.24-.24l-.32-.32c-.41-.43-.9-.85-1.23-1.28-.32-.43-.67-.86-.96-1.29l-.1-.34h.08Z"/><path class="cls-1" d="M335.04,360.66l.19-10.92c.02-1.33-.05-2.65-.03-3.98.07-4.68.26-9.35.27-14.02,0-2.07-.07-4.16-.2-6.21-.06-1.32-.23-2.63-.23-3.96v-1.98c-.01-.66.15-1.33.24-2,.19-.84.42-.75.97-.08.28.33.62.81,1.01,1.39.33.58.57,1.28.68,2.04.22,1.35.3,2.71.34,4.07.05,1.36.1,2.72.1,4.08.03,2.72-.02,5.44-.16,8.17-.16,3.27,0,6.66-.04,10l-.19,11c-.04,2.25-.09,4.51-.07,6.75,0,.42,0,.84.02,1.25l.02.6c.01.12.01.23.04.34.1.22.6.75,1.01,1.19.43.45.89.89,1.34,1.33.93.87,1.87,1.72,2.85,2.52,2.01,1.67,4.15,3.1,6.32,4.46.48.29.96.57,1.44.86,1.77,1.1,2.26,1.51,2.26,2.48,0,.21.05.42.03.6-.03.54-1.17.75-2.63,0-2.19-1.05-4.25-2.4-6.25-3.86-2-1.47-3.92-3.07-5.79-4.79-.51-.48-1.02-.96-1.53-1.48-.25-.25-.51-.54-.77-.81l-.2-.23-.26-.31c-.21-.26-.36-.57-.54-.85l-.16-.83c-.02-.13-.06-.29-.07-.4v-.24s-.04-.92-.04-.92l-.03-1.76v-3.48s.06,0,.06,0Z"/><path class="cls-1" d="M355.27,350.49c-.18,6.19-.34,12.38-.41,18.56-.03,3.08-.07,6.19,0,9.22.01.16-.03.34.05.48h.74s4.63-.13,4.63-.13c4.5-.15,9.01-.42,13.51-.63,7.94-.37,15.88-.85,23.81-1.4,3.96-.29,7.93-.6,11.88-.98,3.94-.39,7.91-.79,11.75-1.47.42-.08.84-.17,1.25-.26l.59-.15.33-.11c.22-.07.3-.29.36-.49.02-.07.09-.32.12-.51.04-.2.08-.39.11-.61.26-1.67.38-3.43.48-5.17.18-3.5.22-7.03.23-10.52,0-4.49-.09-9-.17-13.51-.09-4.51-.15-9.01.04-13.52.2-1.41.36-2.02.5-1.99.15.04.33.72.73,1.9.41,1.18.75,2.86,1.11,4.89.17,1.02.35,2.12.46,3.3.1,1.18.18,2.43.2,3.73.1,4.61.15,9.22.13,13.84-.03,4.63-.09,9.24-.44,13.94-.09,1.18-.21,2.36-.41,3.6-.04.3-.12.64-.19.96-.08.26-.2.94-.5,1.37-.23.5-.6.91-1.08,1.17-.23.14-.49.22-.73.33l-.37.16c-.1.04-.17.05-.25.07-1.28.35-2.42.54-3.6.74-1.17.19-2.33.35-3.49.5-4.63.59-9.25,1-13.89,1.36-11.09.85-22.61,1.82-33.97,2.36-3.12.14-6.25.28-9.38.36l-2.35.06-1.17.03h-.75c-.28,0-.57-.01-.85-.03-.57-.04-1.12-.13-1.64-.22-.3.02-.43-.27-.54-.47-.11-.23-.2-.49-.25-.78-.1-.59-.12-1.24-.14-1.86l-.02-1.25c-.04-6.29.13-12.52.27-18.77.22-7.68.44-15.37.66-23.05l.15-4.37.09-2.29c.03-.52.01-1.09.14-1.55.03-.12.07-.22.11-.32l.03-.07.02-.04v-.02s.01,0,.01,0c-.02-.02.16.13.09.06.03-.05.08-.09.12-.12.16-.14.34-.27.58-.34.47-.14,1.02-.18,1.55-.22l1.17-.07,2.2-.1,4.37-.19c5.82-.24,11.63-.4,17.4-.58,8.97-.32,17.77-.63,26.65-.95,1.95-.06,3.87-.12,5.84-.18,7.31-.14,9.64.07,11.21.91.36.19.83.38,1.04.58.7.66-2.27,1.18-7.61,1.39-15.84.66-32.56.98-49.31,1.5-3.11.12-6.22.18-9.31.4l-2.3.23-.86.1h-.01s0,0,0,0h0s0,.01,0,.01h0s0,.15,0,.15l-.08,2.33c-.17,6.25-.35,12.49-.52,18.74h-.08Z"/><path class="cls-1" d="M421.55,456.57c.27-1.15.77-2.25,1.46-3.2.25-.35.48-.71.77-1.02,1.09-1.04,2.41-1.76,3.77-2.21.3-.11.6-.2.91-.29.31-.07.63-.11.94-.15.8-.1,1.62-.06,2.38.18.24.07.19.17-.03.31-.21.13-.58.36-.97.49-.71.2-1.34.56-1.97.81-.65.19-1.29.44-1.93.72-.78.34-1.36,1.04-1.93,1.66-.63.69-1.13,1.51-1.45,2.42-.2.56-.34,1.15-.39,1.75-.08.9-.06,1.85.21,2.73.2.69.58,1.29.97,1.85.08.13.18.24.28.36.33.45.33.67.14,1.01-.04.08-.08.16-.13.23-.16.23-.51.2-.94-.09-1.12-.98-1.89-2.47-2.18-4.03-.24-1.16-.21-2.38.04-3.55h.04Z"/><path class="cls-1" d="M475.03,453.72c.02.98.03,1.95.05,2.93,0,.36.06.71.05,1.07-.05,1.27-.13,2.53-.15,3.8,0,.56.07,1.12.09,1.67.03.35.07.71.09,1.06v.27s-.09.28-.09.28c-.07.18-.14.36-.22.55-.11.23-.28.22-.61.06-.16-.08-.38-.19-.61-.34-.12-.07-.24-.15-.35-.23-.06-.04-.1-.09-.17-.13-.02-.05-.04-.1-.06-.15-.17-.71-.4-1.42-.42-2.15-.03-.73-.02-1.46.07-2.2.1-.89-.11-1.78-.16-2.68-.07-.98-.02-1.97-.03-2.96,0-.62,0-1.24,0-1.85,0-.94.08-1.91.14-2.86.05-.73,0-1.43-.09-2.05-.02-.14-.06-.26-.08-.39-.04-.46.06-.59.67-.85l.35-.17c.34-.16.94-.03,1.13.49.33.74.39,1.53.4,2.21,0,.62-.01,1.23-.02,1.85,0,.88.02,1.81.08,2.77h-.06Z"/><path class="cls-1" d="M444.54,454.15l5.62.06c.69,0,1.37-.06,2.05-.05,2.42,0,4.85-.01,7.27-.08,1.08-.03,2.16-.06,3.22-.09l2.06-.06c.69,0,1.38.05,2.07.07.43.02.37.02.01.1-.36.07-1.01.31-1.79.51-1.38.25-2.77.48-4.16.68-1.39.2-2.8.23-4.21.29-1.69.04-3.44.27-5.16.39-1.9.12-3.8.21-5.71.2h-3.52c-1.78-.04-3.56-.07-5.32-.1-1.37,0-2.72.09-4.08.13-.3,0-.59.03-.89.03-1.12-.03-1.45-.33-1.66-.83-.05-.12-.11-.23-.14-.34-.08-.34.39-.71,1.21-.87,2.42-.28,4.93-.19,7.46-.15,1.88.04,3.76.08,5.65.08v.05Z"/><path class="cls-1" d="M446.31,458.65c1.3.07,2.61.14,3.92.18.48.02.95-.03,1.43,0,1.68.08,3.37.13,5.06.23.75.04,1.5.04,2.24.03.95-.02,1.91.06,2.86.23.3.06.26.21,0,.41-.25.19-.71.49-1.26.61-.97.23-1.93.28-2.9.33-.97.05-1.94.07-2.92-.03-1.17-.1-2.39.03-3.59.04-1.32.01-2.64,0-3.96-.02l-2.44-.05c-1.23-.03-2.47-.1-3.7-.09-.95,0-1.89.11-2.84.15-.21.01-.41.02-.62.01-.78-.05-1.02-.2-1.15-.7-.03-.11-.07-.22-.09-.33-.05-.37.28-.67.85-.78,1.68-.36,3.41-.29,5.17-.31,1.31.02,2.62.04,3.93.05v.05Z"/><path class="cls-1" d="M429.59,465.99c-1.54-.08-3.09-.19-4.68-.39-.83-.12-1.52-.17-2.65-.56-.34-.08-.59-.37-.91-.51-.14-.1-.24-.24-.36-.37l-.24-.27c-.3-.36-.59-.74-.81-1.15-.98-1.62-1.31-3.51-1.22-5.29.14-1.81.65-3.52,1.77-5.11.15-.16.28-.33.44-.48.17-.14.34-.29.48-.37.3-.2.58-.34.85-.47,1.31-.59,2.51-.9,3.73-1.21,1.21-.3,2.42-.54,3.62-.73,8.5-1.31,16.97-1.76,25.45-2.19,3.76-.2,7.54-.41,11.27-.61l4.12-.21,2.07-.07h1.06s.56.01.56.01c.23,0,.53.06.78.14.86.28,1.85.42,2.89.66,1.03.27,2.11.65,3.06,1.39.66.57.8.97.7,1.05-.11.11-.5-.03-1.17,0-.67.03-1.54.19-2.58.34-.53.09-1.08.07-1.71.05-.32-.02-.65-.04-1.01-.09-.34-.05-.82-.15-1.13-.25h0s.05,0-.1,0h-.4s-.87,0-.87,0l-1.8.03-3.63.11c-2.43.09-4.86.19-7.3.28-4.87.21-9.76.43-14.67.64-5.85.3-11.97.99-17.75,2.11-.94.19-1.87.41-2.75.67-.43.14-.87.28-1.23.45-.18.08-.36.17-.48.25-.14.09-.16.11-.23.19-1.08,1.5-1.59,3.73-1.15,5.65.2.97.63,1.88,1.28,2.61.12.15.18.21.32.26.1.04.38.12.63.17.51.11,1.07.19,1.63.25,3.96.43,8.07.5,12.13.59,6.17.1,12.38.14,18.52.08,4.77-.05,9.45-.25,14.18-.32,1.04-.01,2.06-.05,3.11-.04,3.9.03,5.14.28,5.94,1.03.18.17.42.34.53.51.34.57-1.25.93-4.08,1.02-8.4.28-17.27.47-26.2.5-6.64.02-13.3,0-20.01-.27v-.07Z"/><path class="cls-1" d="M427.51,425.86c.07-1.19.46-2.3.99-3.26.2-.35.35-.72.6-1.03.91-1.07,2-1.97,3.24-2.52.56-.23,1.12-.44,1.7-.56.73-.18,1.52-.16,2.23.07.22.07.17.13-.03.21-.2.07-.54.22-.9.34-.65.18-1.22.5-1.75.86-.27.18-.51.38-.76.57-.26.18-.53.36-.8.54-.65.45-1.06,1.19-1.48,1.86-.48.73-.85,1.54-1.01,2.38-.09.52-.11,1.06-.03,1.6.12.81.39,1.65.82,2.4.34.58.83,1.06,1.22,1.62.09.12.19.23.28.35.31.47.33.69.05,1.04-.06.08-.11.16-.17.23-.19.21-.59.22-.95-.05-.53-.4-1.08-.82-1.52-1.37-.42-.56-.79-1.19-1.09-1.87-.45-1.01-.71-2.2-.68-3.4h.05Z"/><path class="cls-1" d="M478.87,422.12c.01.93.02,1.86.04,2.79,0,.34.06.67.04,1.01-.06,1.2-.15,2.4-.17,3.59-.01.53.06,1.05.09,1.58.02.33.07.67.08,1v.25s-.09.26-.09.26c-.07.17-.14.34-.22.52-.11.22-.28.21-.61.06-.16-.07-.38-.18-.61-.31-.12-.07-.24-.14-.35-.22-.06-.04-.1-.08-.17-.12-.02-.04-.04-.09-.06-.14-.17-.67-.39-1.34-.41-2.03-.03-.69,0-1.38.08-2.08.11-.84-.1-1.68-.15-2.53-.06-.93,0-1.87-.02-2.8,0-.58,0-1.12-.02-1.71-.05-.91.06-1.88.13-2.75.05-.68-.02-1.34-.11-1.92-.02-.13-.07-.24-.08-.36-.04-.43.06-.56.67-.81l.36-.16c.34-.15.94-.04,1.12.45.33.7.4,1.45.42,2.1.01.67-.02,1.23-.03,1.78,0,.41,0,.76.02,1.17l.11,1.37h-.06Z"/><path class="cls-1" d="M459.88,424.26c-1.78-.03-3.56-.05-5.34-.04l-1.95.06c-2.29-.02-4.59.05-6.89,0-1.02-.02-2.04,0-3.05.03-1.3.09-2.61-.09-3.91-.14-.41-.03-.35-.03-.01-.11.34-.08.96-.26,1.7-.46,1.31-.39,2.63-.46,3.94-.64,1.32-.15,2.64-.27,3.98-.22,1.6.03,3.26-.15,4.89-.22,1.8-.07,3.6-.12,5.4-.15l3.33-.04c1.68-.02,3.37.02,5.03-.02,1.3-.01,2.57-.18,3.85-.2.28,0,.56-.03.85-.01,1.06.04,1.39.2,1.6.68.05.11.11.22.14.33.09.36-.35.66-1.12.78-2.28.44-4.66.38-7.06.42-1.79,0-3.58.01-5.37.02v-.05Z"/><path class="cls-1" d="M454.17,428.67l-3.85-.11c-.47,0-.93,0-1.4,0-1.65-.05-3.3-.09-4.95-.14-.73,0-1.47,0-2.19,0l-1.4.02c-.47-.02-.94-.09-1.41-.16-.29-.05-.26-.15-.02-.31.24-.15.68-.42,1.22-.55.95-.11,1.9-.17,2.86-.22.96-.02,1.92.02,2.88.07,1.15.07,2.35-.02,3.53-.03h3.88s2.39,0,2.39,0c1.21,0,2.42,0,3.61-.03.93-.03,1.84-.16,2.76-.21.2,0,.4-.01.6,0,.76.03,1,.13,1.16.42.04.07.09.13.11.19.07.21-.24.41-.79.55-.42.1-.83.2-1.25.29-.42.05-.84.1-1.27.13-.85.07-1.72.11-2.59.14-1.29.02-2.59-.02-3.88-.02v-.04Z"/><path class="cls-1" d="M435.63,433.74c-1.11-.07-2.23-.16-3.37-.29-.57-.07-1.16-.16-1.76-.27-.33-.08-.61-.13-1-.26-.44-.11-.89-.44-1.28-.72l-.38-.42c-.1-.12-.21-.23-.29-.35-.17-.25-.37-.49-.52-.75-.32-.52-.59-1.07-.78-1.64-.4-1.14-.57-2.33-.53-3.5.04-1.17.27-2.33.69-3.42.22-.54.48-1.08.81-1.58l.25-.38c.08-.13.29-.33.44-.48.36-.37.63-.48.93-.66,1.29-.67,2.41-.96,3.56-1.27,1.14-.29,2.27-.51,3.41-.69,7.97-1.17,15.89-1.44,23.82-1.71,3.52-.13,7.05-.26,10.54-.39l4.11-.13c.69-.02,1.38-.03,2.07-.03.35,0,.7,0,1.06.02.17,0,.37.02.57.03.19,0,.52.08.76.14.77.27,1.56.42,2.46.67.86.31,1.8.72,2.54,1.4.55.56.67.91.6,1.01-.09.12-.41.02-.99.01-.29,0-.64.03-1.01.06-.19.03-.38.04-.6.1-.2.01-.42.05-.64.08-.45.08-.93.11-1.48.08-.28-.01-.57-.04-.89-.08-.16-.02-.32-.05-.5-.09l-.26-.06c-.07-.02-.24-.07-.2-.05h0s-.19,0-.19,0c-.98-.05-2.17-.03-3.28-.03l-3.39.04c-2.27.05-4.54.09-6.82.14-4.55.12-9.11.23-13.7.35-5.46.19-11.19.75-16.56,1.79-1.24.26-2.55.56-3.5,1.02-.61.12-1.21,1.37-1.54,2.42-.33,1.1-.41,2.29-.21,3.41.1.56.29,1.1.52,1.61.14.24.26.5.43.72.08.11.15.24.25.34l.23.27c.13.2,1.08.38,1.84.5,3.66.47,7.51.54,11.29.63,5.76.1,11.56.14,17.29.08,4.46-.05,8.83-.24,13.24-.31.97-.01,1.93-.05,2.91-.04,3.64.03,4.8.28,5.55,1.03.17.17.4.34.49.51.32.57-1.17.94-3.81,1.03-7.84.28-16.13.46-24.47.49-6.2.02-12.42.02-18.71-.29v-.07Z"/><g class="cls-8"><path class="cls-7" d="M387.55,283.61l-.02-.18c-.43-3.29-.7-6.6-.97-9.9-.25-3.27-.39-6.54-.43-9.82-.02-1.64,0-3.28.02-4.91,0-1.64.03-3.28.09-4.91.11-3.27.33-6.55.66-9.81.33-3.25.84-6.45,1.85-9.47h0c.12-.36.2-.67.19-.73-.09-.25-.15-.49-.21-.73-.11-.8-.07-1.58.09-2.31.02-.08-.05-.02-.19.16l-1.12,1.41c-.19.25-.55.74-.74,1.35-1.34,3.57-1.97,7.3-2.43,10.96-.45,3.66-.78,7.34-.97,11.03-.22,3.69-.13,7.39.01,11.08.19,3.69.41,7.38.94,11.03.07.53.17.99.25,1.13l.38.68c.1.19.19.25.26.19l.22-.21s.05.04.08.17l.29,1.12c.08.31.15.46.2.43.12-.08.34.59.55,1.7l.09.48c.06.34.14.59.19.7.05.11.09.07.09-.12,0-.17.05-.11.11.15.13.54.21.62.21.19v-.44c0-.14.02-.18.05-.11.03.07.08.25.11.47l.19,1.27c.05.34.1.57.13.56.02-.01.04-.27,0-.62l-.06-.78c-.03-.39-.09-.79-.14-1.2"/></g><g class="cls-8"><path class="cls-7" d="M378.96,264.13h-.07c-1.22-.19-2.35-.42-3.2-.85-.83-.46-1.32-1-1.67-1.92-.36-.91-.47-2.1-.7-3.35-.19-1.23-.29-2.49-.31-3.75-.02-1.26.07-2.52.07-3.83h0c0-.15-.01-.29-.04-.32l-.33-.32c-.28-.35-.49-.7-.66-1.04-.02-.04-.06-.01-.12.07-.14.2-.3.4-.46.61-.08.11-.2.32-.29.56-.61,1.42-.88,2.94-1.1,4.46-.21,1.52-.31,3.07-.29,4.63-.02.78.12,1.6.31,2.45.2.85.5,1.74,1.02,2.6.51.86,1.25,1.63,2.06,2.18.81.56,1.66.94,2.49,1.2.24.08.47.08.55.01l.42-.34c.12-.1.18-.21.18-.34l.02-.41s.04-.06.09-.08l.51-.12c.14-.04.22-.1.22-.19.02-.22.33-.37.78-.39h.19c.14-.02.25-.06.3-.12.06-.06.05-.13-.01-.2-.06-.06-.02-.12.09-.15.22-.05.28-.19.13-.32l-.15-.13s-.05-.09-.02-.12c.03-.03.11-.06.2-.06h.5c.14,0,.24-.05.24-.11,0-.06-.08-.13-.22-.17l-.29-.08c-.15-.04-.3-.07-.45-.09"/></g><path class="cls-1" d="M382.1,264.07c-.14-2.99-.16-5.99-.12-8.99.03-1.09-.01-2.19.05-3.28.16-3.86.61-7.7,1.43-11.52.35-1.69.81-3.43,1.63-5.03.28-.51.58-1.02.96-1.49.41-.46.89-.89,1.49-1.18.61-.28,1.32-.38,1.97-.28.65.12,1.18.5,1.61.88.54.5.37.51-.25.46-.3-.03-.75,0-1.19.12-.43.08-.77.22-1.1.37-.3.13-.58.39-.84.71-.26.31-.55.67-.78,1.09-.47.83-.88,1.77-1.14,2.77-.58,1.98-.97,4.15-1.32,6.32-.42,2.6-.56,5.36-.72,8.07-.19,2.98-.26,5.97-.27,8.96.02,1.84.02,3.68.12,5.52.1,2.79.31,5.59.63,8.34.25,2.14.61,4.22,1.04,6.3.09.46.19.91.28,1.37.4,1.7.44,2.26.33,2.68-.03.09-.04.22-.08.28-.1.2-.41-.46-.76-1.71-.27-.92-.49-1.87-.69-2.83-.21-.96-.42-1.93-.58-2.92-.38-1.96-.68-3.97-.95-5.98-.36-2.99-.65-6.01-.79-9.04h.04Z"/><path class="cls-1" d="M379.47,264.81c-.04-.51-.09-1.05-.16-1.55-.03-.18-.1-.34-.13-.52-.11-.6-.2-1.22-.55-1.7-.15-.21-.36-.39-.58-.51-.29-.16-.6-.24-.94-.31-.11-.02-.12-.13-.03-.28.09-.14.31-.32.58-.32.95,0,1.87.59,2.3,1.39.26.47.55.92.73,1.39.19.52.32,1.01.47,1.52.09.31.17.63.24.95.12.48.19.98.33,1.46.1.37.34.72.46,1.11.02.08.06.17.07.26.05.33-.13.45-.61.55-.11.02-.21.05-.32.06-.34.05-.7-.05-.87-.24-.55-.55-.62-1.14-.77-1.78-.09-.47-.19-.96-.27-1.47h.04Z"/><path class="cls-1" d="M382.65,278.2s-4.67.42-7.07,2.12c-2.4,1.69,3.27,4.71,3.53,4.79s6.23,2.56,5.67,0c-.56-2.56-2.14-6.91-2.14-6.91Z"/><path class="cls-1" d="M391.34,277.28s7.61,2.78,9.06,4.95-9.33,4.51-9.33,4.51c0,0-.12-1.72.01-3.79s.26-5.68.26-5.68Z"/><path class="cls-1" d="M378.97,313.41c-.46-.42-.93-.82-1.33-1.3-.43-.45-.81-.94-1.18-1.44-.38-.49-.67-1.06-.98-1.58-.25-.54-.54-1.07-.76-1.62-.35-.79-.69-1.59-.96-2.41-.93-2.89-1.41-5.87-1.69-8.83-.14-1.31-.26-2.64-.32-3.94-.04-.84-.07-1.68-.07-2.52.05-.84.19-1.68.3-2.52.08-.52.09-.45.21,0,.1.44.43,1.25.69,2.19.12.84.19,1.68.3,2.51.1.84.22,1.67.29,2.5.16,1.67.35,3.34.58,5.01.29,2,.9,4.01,1.62,5.92.38,1.05.85,2.08,1.37,3.06.29.46.53.94.89,1.36.17.21.33.44.51.64l.58.59c.98.92,2.07,1.76,3.29,2.35,1.82.94,3.89,1.48,5.9,1.39,1.57-.07,3.05-.57,4.31-1.38.3-.14.52-.4.79-.57.51-.33.84-.55,1.14-.64.3-.09.56-.04.89.11.15.07.31.12.44.2.44.27.29.94-.45,1.78-1.18,1.13-2.74,1.98-4.43,2.4-1.7.4-3.49.39-5.19.07-2.52-.52-4.85-1.67-6.77-3.29l.03-.04Z"/><path class="cls-1" d="M368.37,257.93c0-2.55.15-5.02.95-7.65.16-.48.32-.98.59-1.5.29-.59.85-1.28,1.5-1.61,1.18-.66,2.71-.34,3.63.59.23.2.47.53.6.72.13.22.26.44.36.66.21.44.35.86.46,1.28.44,1.67.57,3.24.72,4.79.06.69.14,1.37.24,2.03.05.33.11.65.18.95.07.29.16.61.22.7.04.09.14.15.22.2.09.05.16.07.32.14.29.1.63.16.98.19.18.01.36.02.54.02.19.02.38.04.57.04.19,0,.39.01.59,0,.2,0,.42.07.64.09.55.08.57.17.27.74-.27.6-1.06,1.67-2.38,1.77-.57.01-1.17-.04-1.79-.21-.34-.1-.57-.19-1-.39-.38-.23-.75-.49-1.03-.83-.29-.31-.46-.8-.6-1.12-.11-.31-.16-.57-.21-.82-.1-.51-.17-.97-.22-1.43-.22-1.82-.3-3.56-.55-5.19-.07-.48-.19-.95-.35-1.36-.08-.2-.17-.4-.27-.55-.05-.07-.1-.16-.15-.21-.01-.02-.04-.06-.08-.09-.25-.28-.73-.2-.92.12-.05.06-.21.32-.31.52-.1.22-.21.46-.29.71-.16.51-.29,1.05-.39,1.61-.2,1.12-.31,2.29-.35,3.45-.05,1.46-.03,2.86.28,4.22.42,2.04,1.43,4.03,3.19,4.92.69.36,1.38.47,2.25.57.84.1,1.66.16,2.47.18.36,0,.7-.02,1.05-.02,1.3-.01,1.69.06,2.08.77.09.15.2.29.26.44.21.45-.31,1.12-1.45,1.3-1.68.3-3.42.19-5.06-.06l-.62-.1-.73-.17c-.49-.14-.98-.32-1.45-.56-.94-.48-1.78-1.16-2.44-1.95-.99-1.18-1.6-2.53-1.98-3.86-.2-.67-.33-1.34-.43-2.01-.11-.66-.16-1.38-.18-2.01h.07Z"/><path class="cls-1" d="M393.67,316.26c-2.04,1.03-4.33,1.46-6.49,1.37-2.14-.06-4.31-.54-6.27-1.5-1.43-.69-2.78-1.57-3.89-2.68-.96-.99-1.78-2.08-2.49-3.23-.68-1.16-1.26-2.35-1.73-3.58-.92-2.46-1.51-4.99-1.88-7.52-.33-2.25-.58-4.52-.66-6.76-.06-1.44-.09-2.89-.02-4.33.02-.72.09-1.44.23-2.16.06-.36.12-.71.2-1.07.08-.35.28-.69.39-1.04.32-.86.42-.71.69.07.35.8.92,2.21.93,3.79-.04,2.82.13,5.63.41,8.42.29,2.79.77,5.55,1.55,8.23.93,3.19,2.8,6.24,5.38,8.18,1.4,1.08,3.04,1.85,4.81,2.19,1.77.34,3.65.38,5.37-.04,1.06-.26,2.07-.69,3-1.29.92-.6,1.74-1.38,2.45-2.25,2.18-2.66,3.42-6.15,4.16-9.61.56-2.72.7-5.46.8-8.22.02-.61.03-1.2.05-1.82.11-2.27.32-3,1.12-3.45.18-.1.35-.24.52-.3.55-.19,1.06.76,1.14,2.47.14,2.53.1,5.16-.21,7.82-.3,2.66-.83,5.38-1.73,8.05-.68,1.98-1.54,3.95-2.81,5.76-1.24,1.82-2.92,3.46-4.97,4.56l-.04-.06Z"/><path class="cls-1" d="M397.2,261.29c-.48.49-1.16.83-1.93.89-.74.04-1.53-.13-2.12-.51-.57-.38-.99-.88-1.31-1.71-.16-.4-.27-.89-.39-1.34-.14-.47-.21-.87-.27-1.27-.16-1.23-.16-2.18-.18-3.23v-3.04c.05-4.01.14-7.99-.13-11.88-.11-1.41-.29-2.81-.61-4.1-.16-.64-.36-1.26-.61-1.73-.06-.13-.13-.23-.19-.32-.06-.11-.13-.18-.18-.23-.09-.12-.15-.11-.24-.15-.29-.04-.57,0-.86.15-.3.15-.62.51-.91.92-.59.85-1.02,1.97-1.41,3.1-.76,2.3-1.22,4.8-1.58,7.29-.69,5.01-.97,10.14-.96,15.23.07,4.52.41,9.1.81,13.59.27,2.88.61,5.77,1.05,8.61.11.71.23,1.41.37,2.09.13.65.34,1.47.43,1.58.07.14.24.17.37.22.22.07.6.15.91.21.33.06.67.11,1.01.14l.5.05h.25s.08-.05.13.07l.12.05c.88.35,1.09.29,1.15.34.01.02,0,.12-.18.26-.17.14-.46.31-.85.54l-.15.09c-.05.1-.11.06-.16.1-.11.04-.23.09-.35.12-.25.08-.51.15-.8.21-.58.11-1.23.21-2.02.18-.54-.03-1.2-.2-1.71-.59-.23-.22-.44-.48-.62-.77-.16-.3-.33-.68-.39-.84-.34-.84-.54-1.66-.71-2.52-.56-3.03-.89-6-1.2-8.99-.29-2.98-.53-5.97-.67-8.97-.14-2.98-.23-6.03-.12-9.07.1-3.03.31-6.05.66-9.07.45-3.62.91-7.31,2.04-11.03.28-.93.66-1.86,1.15-2.77.5-.9,1.11-1.85,2.19-2.58.27-.18.55-.34.89-.45.31-.14.66-.18,1.01-.22.34-.05.67.02,1.01.04.35.12.75.19,1.07.42,1.33.91,1.66,1.99,2.03,2.95.69,2.15.86,4.2,1.03,6.26.15,2.05.18,4.09.2,6.12v6.06c0,1,0,2,.03,2.99.02.49.04.98.08,1.46l.07.66c.02.16.04.3.07.39.08.27.12.56.23.82.11.28.43.41.71.4.3,0,.53-.26.62-.53.1-.27.15-.56.19-.87.04-.31.11-1.07.16-1.65.06-.62.12-1.25.2-1.89.17-1.26.36-2.59,1.03-3.91.26-.49.62-.99,1.11-1.39.51-.41,1.11-.67,1.78-.74.68-.07,1.41.12,1.92.48.53.34.93.76,1.25,1.19.64.84,1.09,1.84,1.37,2.82.28.97.43,1.94.56,2.91.21,1.94.24,3.87.06,5.81-.09.97-.22,1.94-.49,2.93-.14.49-.3.99-.59,1.52-.28.48-.59.85-.9,1.28-1.01,1.25-2.48,2.21-4.04,2.64-1.56.47-3.15.45-4.56.42-.34,0-.7,0-1,.02-.2.02-.35.04-.5.1-.15.06-.29.17-.31.35-.04.19-.04.26-.06.54-.11,1.34-.12,2.78-.15,4.2-.01,1.26-.02,2.5-.03,3.77-.13,4.73-.5,6.36-1.52,7.23-.21.2-.43.46-.59.54-.28.12-.32-.26-.46-1.09-.1-.42-.11-.95-.12-1.59,0-.65-.01-1.4-.02-2.24-.03-2.56-.05-5.15-.08-7.76,0-.66,0-1.33.01-2.02l.04-1.05.04-.61c.05-.31.07-.63.15-.93.19-1.27,1.32-2.01,2.51-2.3.31-.06.62-.13.93-.13.22-.01.43-.03.6-.03h1.04c2.62.04,4.4-.43,5.67-1.99.18-.17.31-.41.47-.61.06-.09.19-.23.21-.29.03-.07.06-.12.1-.19.15-.4.31-.91.41-1.49.22-1.15.31-2.41.33-3.66,0-1.85-.1-3.78-.49-5.44-.1-.4-.22-.79-.35-1.09-.13-.33-.35-.71-.54-.96-.19-.26-.38-.46-.47-.48-.1-.03-.02,0-.12.02-.14.05-.18.09-.31.24-.12.15-.26.41-.39.74-.27.66-.45,1.53-.57,2.47-.13.94-.21,1.91-.31,2.95-.05.48-.16,1.56-.39,2.45-.21.93-.61,1.63-1.11,2.14l-.05-.06Z"/><path class="cls-1" d="M391.81,287.81c-2.5.07-5.01-.07-7.48-.43-.9-.13-1.81-.23-2.7-.44-1.57-.37-3.12-.86-4.65-1.54-.76-.36-1.52-.78-2.22-1.39-.35-.31-.68-.69-.94-1.17-.26-.47-.4-1.07-.34-1.64.04-.52.25-.95.42-1.3.19-.37.41-.74.69-1.05.54-.65,1.24-1.13,1.95-1.46,1.86-.78,3.75-.9,5.52-.39.56.18.49.15.04.45-.44.31-1.26,1.05-2.16,1.37-.81.21-1.56.51-2.16.83-.62.26-1.09.57-1.4,1-.06.12-.17.21-.22.35-.06.13-.14.27-.15.31-.04.12-.06.14-.05.29.03.32.55.91,1.17,1.36,1.56,1.15,3.8,1.57,5.89,1.93,2.33.4,4.7.59,7.08.55,1.47-.02,2.93-.1,4.37-.31,1.09-.16,2.17-.37,3.17-.71.49-.18.98-.38,1.37-.64.1-.06.2-.13.27-.2.07-.07.13-.1.18-.17.11-.12.19-.26.22-.42.08-.54-.27-.83-.93-1.28-.63-.41-1.38-.74-2.14-1.05-.34-.13-.68-.26-1.03-.39-1.28-.54-1.69-.85-1.68-1.63,0-.16-.03-.32-.01-.45.06-.38.78-.72,1.79-.43,1.53.4,3.12.83,4.79,1.96.21.14.43.32.63.52.1.09.21.2.31.34.12.14.27.34.37.51.36.69.65,1.49.43,2.26-.15.77-.56,1.49-1.18,2.04-.28.26-.49.4-.74.55-.24.17-.47.27-.7.39-1.37.66-2.66.91-3.95,1.14-1.29.21-2.56.32-3.83.39v-.06Z"/><path class="cls-1" d="M162.18,226.66c-2.7-1.94-5.37-4-7.89-6.26-.92-.83-1.89-1.59-2.73-2.5l-1.13-1.18-1.06-1.24-1.06-1.24-.98-1.3c-1.36-1.73-2.44-3.47-3.69-5.2-1.09-1.53-2.23-3.05-3.27-4.63-.34-.5-.67-1.01-.99-1.52-.31-.53-.6-1.06-.87-1.61-.61-1.05-.85-2.31-1.33-3.4-.26-.71-.21-.62.2-.12.21.24.49.6.94.96.24.19.47.39.72.59.14.1.25.22.41.31.1.13.22.25.33.38.4.46.81.9,1.22,1.35.41.44.76.92,1.15,1.38.76.93,1.57,1.81,2.32,2.76,1.49,1.89,3.04,3.82,4.4,5.86,1.58,2.39,3.73,4.48,5.85,6.5,2.36,2.2,4.9,4.22,7.56,6.13,1.63,1.18,3.31,2.33,5,3.47,2.56,1.73,5.1,3.56,7.6,5.41,1.91,1.48,3.9,2.82,5.7,4.45.4.35.81.68,1.21,1.05,1.39,1.44,1.58,2.12,1.17,3.01-.09.2-.16.42-.28.59-.2.28-.53.36-.96.27-.43-.09-.97-.33-1.49-.79-3.16-2.63-6.38-5.31-9.94-7.81-2.62-1.87-5.38-3.68-8.14-5.58l.04-.07Z"/><path class="cls-1" d="M212.22,258.17l-1.03-.17-1.16-.17c-.34-.06-.77-.09-1.19-.33-.78-.42-1.16-1.23-1.26-1.87-.1-.66-.01-1.27.19-1.82.18-.47.39-.88.63-1.26.3-.48.61-.92,1.09-1.17.15-.08.4.17.59.51.19.34.34.78.23,1.02-.21.42-.36.8-.44,1.1-.05.16-.07.28-.09.39-.02.12-.04.24-.07.37-.03.15.05.28.12.32.09.03.07.04.18.09.21.12,1.07.16,1.72.23.42.04.85.09,1.27.11.64.03,1.29.15,1.93.12.5-.02.98-.19,1.47-.28.11-.02.21-.07.32-.07.4-.03.53.15.63.82.02.15.05.3.06.46.04.51-.11.94-.41,1.11-.87.49-1.79.63-2.72.69-.69.07-1.38-.04-2.07-.1v-.07Z"/><path class="cls-1" d="M178.76,199.99l-.21,8.97c-.02,1.09.04,2.18.02,3.27-.11,3.85-.18,7.69-.33,11.54-.05,1.71-.04,3.42-.02,5.12-.03,2.18-.04,4.36-.45,6.54-.12.68-.18.59-.4.01-.14-.37-.3-.77-.45-1.18-.21-.49-.38-1.06-.45-1.69-.14-1.11-.31-2.21-.42-3.32l-.15-3.33c-.06-2.22-.14-4.44,0-6.68.14-2.68-.07-5.46-.1-8.2l-.02-9.04.05-5.57c.01-2.81.08-5.63.03-8.42-.04-2.17-.24-4.3-.35-6.45-.02-.47-.08-.94-.08-1.41-.02-1.77.23-2.33,1.01-2.69.18-.08.36-.19.54-.24.6-.15,1.09.58,1.27,1.86.46,3.81.55,7.83.58,11.87,0,3,.01,6.02.02,9.03h-.08Z"/><polygon class="cls-4" points="154.03 217.93 153.7 190.42 177.35 178.61 177.5 235.9 154.03 217.93"/><path class="cls-1" d="M178.08,220.52c-.15,1.22-.4,2.44-.65,3.65-.1.44-.13.89-.25,1.33-.43,1.54-.89,3.11-1.85,4.53-.43.61-.94,1.28-1.77,1.58-.53.21-1.13.12-1.58-.1-.45-.22-.81-.55-1.11-.89-.19-.21-.13-.21.12-.17.18.03.36.06.51.08.2.03.44,0,.65.03.19-.02.36-.02.5-.07.14-.08.25-.11.34-.16.1-.02.19-.15.29-.2.09-.12.19-.2.28-.34.37-.54.68-1.29,1.05-2.04.43-.92.55-2.02.73-3.07.2-1.16.36-2.34.48-3.53.08-.73.17-1.46.23-2.2.08-1.11.16-2.24.12-3.35-.02-.86-.22-1.7-.33-2.53-.03-.18-.07-.36-.09-.54-.07-.68.04-.86.49-1.1.1-.06.2-.13.31-.18.34-.19.75.1.96.64.64,1.57.74,3.23.76,4.9.01,1.24-.06,2.48-.15,3.72h-.05Z"/><path class="cls-1" d="M177.45,186.37c.34,1.3.45,2.58.49,3.81.01.45.07.89.06,1.34-.03.78-.08,1.55-.16,2.32l-.35,2.29c-.11.67-.16,1.35-.27,2.02-.13.86-.37,1.7-.67,2.52-.1.25-.13.21-.21-.03-.06-.24-.24-.68-.32-1.18-.28-1.77-.19-3.45-.08-5.17.08-1.02,0-2.1-.06-3.14-.05-1.14-.15-2.26-.41-3.33-.16-.66-.37-1.3-.67-1.89-.44-.89-1.06-1.7-1.89-2.23-.64-.42-1.4-.54-2.06-.54-.15.02-.29,0-.43.01-.51-.02-.67-.16-.91-.8-.05-.14-.12-.29-.17-.43-.17-.47.07-.98.72-1.18.96-.33,2.03-.18,2.96.19.93.38,1.76.97,2.43,1.69.5.53.93,1.14,1.27,1.78.33.63.58,1.28.78,1.93l-.05.02Z"/><path class="cls-1" d="M174.31,180.09c.26.28.48.58.68.88.08.1.19.17.25.28.23.4.34.86.45,1.26.06.18.13.34.22.49.11.2.26.4.16.67-.03.08-.36.17-.71.23-.35.06-.73.11-.79.05-.24-.24-.42-.44-.47-.81-.03-.22-.26-.29-.39-.44-.15-.16-.29-.33-.46-.49-.1-.1-.21-.19-.33-.26-.18-.11-.36-.25-.58-.27-.17,0-.36.14-.51.22-.03.02-.07.06-.1.07-.12.03-.14-.15-.14-.83v-.46c0-.52.08-.95.25-1.1.25-.23.52-.33.79-.36.26,0,.52.06.76.16.36.14.66.41.95.65l-.03.05Z"/><path class="cls-1" d="M172.46,183.64c-.53.03-1.07.03-1.65.15-.21.04-.4.12-.61.15-.74.12-1.48.23-2.21.38-.33.08-.64.15-.97.22-.41.11-.82.22-1.25.24-.14,0-.16-.11-.1-.28.06-.17.19-.41.4-.54.38-.22.77-.44,1.16-.63.41-.16.84-.25,1.27-.33.52-.08,1.02-.33,1.53-.49.56-.18,1.13-.34,1.75-.44.38-.06.76-.09,1.14-.11.58-.03,1.18.01,1.78.1.47.07.98.11,1.48.35.11.05.22.1.31.18.35.29.32.52.03.85-.07.08-.14.16-.21.23-.26.23-.57.32-.77.28-.16-.02-.29-.03-.43-.04-.12-.02-.23-.05-.36-.07-.24-.05-.5-.11-.81-.14-.44-.05-.96-.07-1.48-.02v-.04Z"/><path class="cls-1" d="M241.05,257.93l-9.02-.03c-1.1,0-2.19.1-3.28.1-3.86,0-7.73-.02-11.59.09-1.71.04-3.43.19-5.12.3-1.09.09-2.18.19-3.27.28l-.82.05-.83-.07c-.55-.05-1.11-.11-1.66-.19-.69-.11-.63-.39-.09-.88.27-.25.65-.56,1.12-.89.24-.16.49-.33.77-.48.14-.08.28-.14.43-.23.15-.03.3-.07.46-.09,2.23-.28,4.46-.55,6.7-.66,2.25-.08,4.5-.1,6.76-.02,2.71.09,5.51-.18,8.27-.24l9.1-.13,5.6-.06c2.82-.05,5.66-.05,8.46-.19,2.18-.12,4.3-.42,6.44-.65.47-.05.93-.13,1.41-.17,1.77-.13,2.34.05,2.76.91.1.19.22.38.28.57.2.62-.5,1.26-1.79,1.5-3.83.74-7.9.96-11.97,1.09-3.03.1-6.07.11-9.11.15v-.08Z"/><path class="cls-1" d="M263.62,180.34s-.04-.03-.07-.04l-.04-.02c-.06-.01-.22-.06-.34-.08-.52-.11-1.09-.2-1.67-.27-1.16-.15-2.35-.26-3.55-.36-2.41-.18-4.84-.3-7.28-.39-4.88-.18-9.78-.25-14.67-.29-3.58-.02-7.15.07-10.73.07-12.61.02-25.23.15-37.84.43-2.8.06-5.6.15-8.4.26l-1.05.04-.34.02c-.08.01-.15.07-.22.11l-1.86.94c-1.25.63-2.49,1.26-3.73,1.89-3.18,1.63-6.38,3.24-9.6,4.81-3.21,1.58-6.44,3.14-9.8,4.39-2.15.67-1.96.36-.55-1.04.7-.71,1.76-1.6,3.05-2.64,1.31-1,2.93-2,4.74-2.97,3.24-1.67,6.43-3.42,9.71-5l4.9-2.41,1.23-.6.79-.39c.21-.09.41-.21.62-.26l.68-.02,2.78-.08c7.31-.2,14.63-.3,21.99-.29,8.8.01,17.95-.33,26.96-.38,4.95-.02,9.9,0,14.86.08,4.96.09,9.92.21,14.91.6,1.2.1,2.41.22,3.64.4.31.05.61.1.93.16.16.03.31.06.48.1.16.04.43.1.63.17l.63.23c.19.11.39.2.56.34l.24.22c.07.08.08.21.2.26l.22.6.32,1.71c.1.49.13.95.19,1.42.1.94.23,1.88.29,2.81.14,1.86.29,3.72.38,5.58.51,9.24.6,18.51.76,27.67.11,7.12.33,14.1.34,21.15,0,1.55.02,3.07-.01,4.64-.14,5.81-.55,7.7-1.51,8.86-.22.26-.44.61-.65.75-.71.43-.92-1.87-.91-6.07-.07-12.5-.24-25.74-.55-39-.13-4.81-.28-9.62-.51-14.42-.13-2.39-.24-4.8-.45-7.17-.1-1.19-.18-2.38-.33-3.53l-.2-1.74-.21-1.12s0-.03,0-.04l.07-.06Z"/><path class="cls-1" d="M175.41,227.42c.18-.84.28-1.84.39-2.78.04-.35.02-.69.06-1.04.14-1.22.28-2.44.36-3.67.03-.54.04-1.09.08-1.62.03-.69.09-1.38.19-2.08.03-.22.07-.19.15,0,.08.18.25.51.35.91.16.7.35,1.4.44,2.1.05.7.07,1.41.04,2.12-.04.85.09,1.73.13,2.6.04.96.06,1.9.06,2.88,0,.61-.03,1.24-.13,1.88-.13.99-.58,1.98-1.15,2.8-.44.65-.88,1.33-1.52,1.89-.14.13-.27.26-.43.36-.61.34-.93.17-1.26-.47-.08-.14-.15-.28-.21-.42-.18-.47-.13-1.02.06-1.31.6-.81,1.18-1.37,1.6-2.12.3-.5.61-1.16.73-2.03h.06Z"/><path class="cls-1" d="M399.93,353.66c-1.35,1.03-2.69,2.06-4.01,3.12-.48.38-.91.83-1.4,1.21-1.72,1.34-3.45,2.68-5.11,4.09-.74.62-1.44,1.3-2.12,1.98-.85.89-1.74,1.75-2.77,2.46-.33.22-.55-.08-.59-.59-.04-.51.07-1.25.52-1.81.78-1.01,1.72-1.86,2.64-2.74.93-.86,1.89-1.69,2.91-2.47,1.22-.93,2.3-2.1,3.47-3.13,1.3-1.12,2.63-2.21,3.96-3.3l2.46-2c1.23-1.02,2.51-1.99,3.7-3.04.92-.82,1.76-1.71,2.64-2.56.19-.19.37-.39.58-.57.76-.65,1.13-.71,1.72-.31.14.09.28.17.4.28.4.35.36.95-.1,1.54-1.38,1.74-3.05,3.29-4.84,4.72-1.33,1.06-2.66,2.13-4,3.19l-.04-.05Z"/><path class="cls-1" d="M405.65,359.49c-.4.2-.8.4-1.18.63-.14.08-.24.21-.38.29-.5.29-1,.59-1.46.93-.22.13-.41.31-.6.48-.22.24-.59.34-.92.48-.11.04-.12.01-.13-.11,0-.12-.07-.4-.06-.65l.04-.31c0-.05.02-.1.02-.16l.07-.11c.09-.15.19-.29.29-.43.19-.29.49-.48.8-.66.38-.21.63-.56.95-.83.36-.3.74-.57,1.12-.84.24-.16.47-.33.7-.49.35-.25.73-.47,1.05-.75.25-.22.42-.54.64-.82.05-.06.09-.13.14-.18.21-.18.37-.1.73.36l.25.31c.26.36.38.73.3.95-.22.67-.72.96-1.21,1.29-.37.23-.76.43-1.14.66l-.03-.04Z"/><path class="cls-1" d="M395.57,434.36l-3.21,2.64c-.39.32-.74.69-1.14,1-1.4,1.1-2.81,2.21-4.21,3.31-.64.47-1.24.99-1.84,1.49-.38.33-.76.66-1.15.98-.41.3-.85.57-1.28.84-.28.16-.3.08-.22-.22.09-.29.23-.85.53-1.38.62-.84,1.27-1.64,1.95-2.43.35-.38.67-.79,1.06-1.12.4-.33.8-.65,1.22-.96,1-.74,1.85-1.72,2.79-2.57,1.02-.95,2.1-1.84,3.15-2.75l1.94-1.69c.97-.86,1.97-1.71,2.88-2.62.71-.71,1.3-1.51,1.94-2.28.14-.17.26-.35.41-.51.56-.59.87-.65,1.47-.26.14.09.28.17.41.27.43.34.49.89.16,1.41-.98,1.54-2.3,2.86-3.67,4.14-1.02.95-2.09,1.85-3.13,2.78l-.04-.04Z"/><path class="cls-1" d="M240.6,220.78l-5.18,3.53c-.63.43-1.21.93-1.84,1.36-2.22,1.52-4.44,3.04-6.61,4.62-.97.69-1.87,1.48-2.81,2.21-.61.46-1.19.95-1.82,1.39-.63.43-1.29.83-1.96,1.21-.42.23-.52,0-.41-.48.12-.48.4-1.31.96-2.01,1.05-1.18,2.16-2.29,3.43-3.2,1.24-.95,2.51-1.86,3.84-2.72,1.58-1.03,3.05-2.32,4.59-3.47,1.7-1.26,3.42-2.49,5.15-3.7l3.2-2.23c1.61-1.14,3.26-2.24,4.82-3.41,1.22-.9,2.31-1.94,3.49-2.88.26-.21.5-.43.77-.63,1-.73,1.43-.81,2.03-.4.14.09.29.17.41.28.39.36.23,1-.41,1.66-1.88,1.98-4.15,3.64-6.45,5.29-1.72,1.21-3.44,2.42-5.17,3.64l-.04-.05Z"/><path class="cls-1" d="M245.38,229.7c-.45.27-.91.55-1.36.84-.16.11-.28.26-.45.36-.59.37-1.21.7-1.84,1.02-.26.17-.55.29-.82.45-.34.2-.7.37-1.11.46-.13.03-.17-.06-.17-.24,0-.17,0-.49.1-.71.19-.39.36-.77.57-1.11.24-.3.57-.5.92-.69.45-.19.74-.59,1.12-.89.42-.32.85-.64,1.27-.96.27-.2.53-.4.79-.59.39-.31.82-.59,1.17-.94.28-.28.48-.64.73-.96.05-.07.09-.16.16-.22.24-.22.42-.15.84.32l.29.32c.3.38.44.78.36,1.03-.25.74-.7,1.22-1.26,1.63-.4.32-.84.6-1.27.91l-.04-.04Z"/><path class="cls-1" d="M182.33,151.42l.05-5.79c0-.7-.05-1.41-.04-2.11.06-2.48.12-4.96.14-7.44,0-1.1-.03-2.2,0-3.3,0-1.4.15-2.82.15-4.22.02-.44.09-.38.2-.02.13.37.23,1.04.42,1.84.13.71.28,1.42.4,2.14.08.71.21,1.43.23,2.14.05,1.43.07,2.87.04,4.31-.04,1.73.13,3.52.17,5.28l.08,5.82.05,3.58c.04,1.81.05,3.63.14,5.42.07,1.39.28,2.76.4,4.13.03.3.08.6.09.91.07,1.13-.06,1.5-.6,1.76-.12.06-.24.14-.37.17-.42.12-.78-.33-.93-1.16-.48-2.45-.58-5.05-.64-7.66-.04-1.94-.03-3.89-.05-5.83h.05Z"/><path class="cls-1" d="M118,97.87c.58,2.04,2.07,3.84,4.04,4.68,2.19.94,4.73.79,6.76-.48.63-.39.94-1.29.51-1.95s-1.27-.93-1.95-.51c-.18.11-.36.21-.54.31-.07.04-.29.12-.1.05-.09.03-.17.07-.26.09-.22.07-.44.13-.67.18-.09.02-.18.04-.27.05.21-.03,0,0-.1,0-.21.02-.42.02-.63.02-.12,0-.23,0-.35-.02-.03,0-.3-.04-.16-.02.17.03-.19-.04-.22-.05-.09-.02-.18-.04-.27-.07-.11-.03-.22-.06-.33-.1-.05-.02-.34-.13-.09-.03-.36-.15-.69-.35-1.01-.57-.09-.06-.13-.1-.02-.01-.08-.07-.16-.14-.24-.21-.14-.13-.28-.27-.41-.41-.07-.08-.14-.16-.21-.25-.15-.18.17.26-.05-.07-.11-.16-.21-.32-.31-.49-.04-.08-.08-.15-.12-.23-.05-.09-.12-.26-.04-.07-.08-.2-.15-.4-.21-.61-.2-.72-1.02-1.23-1.75-1s-1.21.98-1,1.75h0Z"/><path class="cls-1" d="M129.93,121.94c1.16,2.7,4.49,4.15,7.28,3.38.69-.19,1.19-.98.96-1.69s-.95-1.17-1.69-.96c-.14.04-.28.07-.42.1-.12.02-.26-.01.1,0-.06,0-.13.01-.19.02-.27.02-.54,0-.81-.01-.24-.02.27.05.1.01-.06-.01-.13-.02-.19-.03-.14-.03-.28-.06-.42-.1-.12-.04-.25-.08-.37-.12-.21-.08-.01,0,.08.04-.07-.04-.14-.06-.21-.1-.23-.11-.46-.25-.67-.39-.1-.07-.23-.22.03.03-.05-.04-.1-.08-.15-.12-.1-.08-.19-.17-.29-.26-.1-.1-.19-.21-.29-.31-.16-.18.14.2.05.07-.04-.05-.08-.1-.11-.16-.16-.24-.29-.49-.41-.75-.13-.29-.53-.55-.82-.63-.33-.09-.77-.05-1.06.14s-.55.47-.63.82c-.09.39-.02.7.14,1.06h0Z"/><path class="cls-1" d="M268.61,64.19c0,.25-.32.24-.83.08-.16-.05-.57-.34-.59-.42-.05-.17-.09-.34-.11-.49,0-.09.41-1.18.54-1.57.12-.37.3-.7.51-1.02l1.23-1.98c.1-.15.21-.28.35-.39.48-.39.84-.88,1.16-1.39.05-.09.13-.16.12-.29-.02-.22.99-1.52,1.19-1.62.47-.29.89-.61,1.34-.9.07-.04.09-.12.22-.09.3.06.37-.08.5-.18.17-.14.35-.27.57-.37.11-.05.29-.03.44-.02.14,0,.39.3.39.36.02.15.21.22.33.32.04.03.1.08.12.11.06.07-.28,1.45-.37,1.55,0,.01-.28.38-.56.77-.28.39-.57.79-.62.88-.05.09-.17.13-.26.19-.05.03-.81,1.22-.84,1.27-.21.21-.32.49-.67.58-.07.02-.1.07-.13.12-.28.42-.65.77-1,1.15-.18.2-.31.42-.46.64-.03.04-.08.06-.12.09-.05.04-.11.07-.14.12-.34.52-.8.97-1.08,1.54-.07.13-.66.56-.73.72-.04.09-.5.15-.5.25Z"/><path class="cls-1" d="M271.49,66.4c-.13.1-.29-.05-.45-.32-.05-.09-.1-.38-.07-.43.07-.1.13-.2.2-.28.04-.04.81-.42,1.06-.59.25-.15.5-.25.76-.33.52-.19,1.06-.3,1.6-.45.12-.03.24-.04.37-.03.43.04.84-.05,1.25-.18.07-.02.14-.03.19-.11.09-.14,1.19-.41,1.35-.38.38.06.76.07,1.14.1.05,0,.1-.04.17.04.15.19.25.13.37.12.16-.01.32,0,.49.03.08.02.18.13.27.21.09.08.11.41.09.45-.05.12.04.26.07.4.01.05.02.11.03.14,0,.09-.78.79-.88.8-.01,0-.33.1-.67.19-.34.1-.69.2-.76.23-.07.03-.16,0-.24-.02-.04,0-1.05.31-1.09.31-.22.01-.42.11-.67-.02-.05-.03-.09-.01-.13,0-.37.08-.75.08-1.13.09-.19,0-.38.06-.57.09-.03,0-.07-.01-.11-.02-.05,0-.09-.02-.14-.01-.45.08-.92.02-1.36.13-.1.02-.63-.09-.75-.06-.07.02-.33-.17-.38-.13Z"/><path class="cls-1" d="M271.15,73.37c-.16.07-.2-.18-.18-.62,0-.14.12-.54.18-.58.11-.09.22-.18.32-.23.06-.04.91-.04,1.21-.04.29-.01.56.05.82.13.52.17,1.07.3,1.57.55.11.05.21.13.3.22.3.33.66.54,1.04.72.06.03.12.08.22.04.17-.07,1.14.56,1.22.7.2.34.44.64.64.97.03.05.09.06.06.16-.07.25.04.29.12.37.1.11.19.25.25.4.03.08,0,.23-.02.36-.02.12-.29.36-.33.37-.12.04-.2.2-.3.31-.03.04-.07.09-.1.12-.07.06-1.07,0-1.13-.06-.01-.02-1.02-.58-1.15-.61-.07-.02-.09-.1-.13-.17-.01-.04-.87-.38-.9-.4-.14-.12-.35-.14-.41-.41-.01-.05-.05-.06-.08-.08-.3-.13-.54-.35-.81-.55-.13-.1-.29-.16-.44-.24-.03-.02-.04-.06-.06-.08-.03-.03-.05-.07-.08-.09-.36-.16-.68-.44-1.07-.52-.09-.03-.42-.39-.53-.4-.06-.01-.15-.36-.22-.33Z"/></svg>