<?xml version="1.0" encoding="UTF-8" standalone="no"?><!DOCTYPE svg PUBLIC "-//W3C//DTD SVG 1.1//EN" "http://www.w3.org/Graphics/SVG/1.1/DTD/svg11.dtd"><svg width="100%" height="100%" viewBox="0 0 276 264" version="1.1" xmlns="http://www.w3.org/2000/svg" xmlns:xlink="http://www.w3.org/1999/xlink" xml:space="preserve" xmlns:serif="http://www.serif.com/" style="fill-rule:evenodd;clip-rule:evenodd;stroke-linejoin:round;stroke-miterlimit:2;"><path d="M275.5,38.634c0,-9.625 -3.417,-12.5 -12.5,-12.5c-9.083,0 -60.5,0.208 -70.833,0l0,-17.875c0,-4.667 -1.875,-8.333 -6.292,-8c-4.417,0.333 -6.25,3.417 -6.292,7.708l0,18.167l-83.333,0l0,-17.792c0,-5 -0.667,-8.125 -6.042,-8.333c-5.375,-0.208 -6.542,3.25 -6.542,8.333l0,17.625l-70.833,0c-8.833,0 -12.833,2.958 -12.833,12.5l0,212.875c0,10.333 3.875,12.167 12.5,12.167l250,0c10.417,0 12.5,-2.125 12.5,-12.5c0.5,-19.583 0.5,-210.375 0.5,-212.375Zm-262.5,212.5l-0,-212.375c16.958,0 53,-0.292 70.833,0l0,13.542c-0.009,0.139 -0.014,0.278 -0.014,0.417c0,3.471 2.835,6.337 6.305,6.375c4.167,0 5.958,-2.792 6.083,-7l0,-13.5c32.292,-0.708 50.583,0 83.333,0c0,3.333 0,10.708 0.292,13.625c0,4.583 1.958,6.167 6,6.083c0.258,0.037 0.518,0.055 0.778,0.055c3.04,0 5.542,-2.502 5.542,-5.542c0,-0.185 -0.009,-0.37 -0.028,-0.555l0,-13.5l70.583,0c0.417,66.917 0,181.167 0,212.5c-15.083,-0.167 -243.25,-0.25 -249.625,-0.25l-0.083,0.125Z" style="fill-rule:nonzero;"/><path d="M111.125,226.342c-20.833,-0.292 -20.833,-0.292 -21.542,-20.833l0,-2c-0.583,-12.792 2.833,-16.667 15.708,-17.375c4.024,0.009 8.044,0.245 12.042,0.708c8.083,0.583 11.333,3.25 12.5,11.333c0.958,6.292 1.333,12.5 1.708,19c0.375,6.5 -1.5,9.167 -8.333,9.792c-4.037,0.044 -8.073,-0.165 -12.083,-0.625Zm-8.042,-12.75l15.292,0c-0.875,-6.292 -1.583,-11.417 -2.292,-16.667l-14.458,0c0.542,6.042 0.958,11.208 1.458,16.667Z" style="fill-rule:nonzero;"/><path d="M167.875,225.092c-20.833,-0.292 -20.833,-0.292 -21.583,-20.833l0,-2c-0.583,-12.792 2.875,-16.667 15.708,-17.375c4.024,0.008 8.044,0.244 12.042,0.708c8.083,0.583 11.333,3.25 12.5,11.333c0.917,6.292 1.292,12.5 1.667,19c0.375,6.5 -1.5,9.167 -8.333,9.792c-4.009,0.043 -8.017,-0.166 -12,-0.625Zm-8.083,-12.75l15.333,0c-0.875,-6.292 -1.583,-11.417 -2.333,-16.667l-14.625,0c0.708,6.042 1.167,11.208 1.625,16.667Z" style="fill-rule:nonzero;"/><path d="M55,226.342c-20.833,-0.292 -20.833,-0.292 -21.583,-20.833l0,-2c-0.583,-12.792 2.875,-16.667 15.708,-17.375c4.024,0.008 8.044,0.244 12.042,0.708c8.083,0.583 11.333,3.25 12.5,11.333c0.917,6.292 1.292,12.5 1.667,19c0.375,6.5 -1.5,9.167 -8.333,9.792c-4.009,0.043 -8.017,-0.166 -12,-0.625Zm-8.083,-12.75l15.417,0c-0.875,-6.292 -1.583,-11.417 -2.333,-16.667l-14.333,0c0.333,6.042 0.792,11.208 1.25,16.667Z" style="fill-rule:nonzero;"/><path d="M224.833,222.301c-20.833,-0.292 -20.833,-0.292 -21.583,-20.833l0,-2c-0.583,-12.792 2.875,-16.667 15.708,-17.333c4.023,-0.006 8.044,0.216 12.042,0.667c8.083,0.583 11.333,3.292 12.5,11.333c0.917,6.292 1.333,12.5 1.667,19c0.333,6.5 -1.458,9.167 -8.333,9.792c-4.01,0.063 -8.019,-0.145 -12,-0.625Zm-8.333,-12.75l15.333,0c-0.875,-6.25 -1.583,-11.417 -2.333,-16.667l-14.292,0c0.542,6.042 1,11.208 1.292,16.667Z" style="fill-rule:nonzero;"/><path d="M106.958,176.342c-20.833,-0.292 -20.833,-0.292 -21.542,-20.833l0,-2c-0.583,-12.792 2.833,-16.667 15.708,-17.375c4.024,0.009 8.044,0.245 12.042,0.708c8.083,0.583 11.333,3.25 12.5,11.333c0.958,6.292 1.333,12.5 1.708,19c0.375,6.5 -1.5,9.167 -8.333,9.792c-4.037,0.044 -8.073,-0.165 -12.083,-0.625Zm-8.042,-12.75l15.292,0c-0.875,-6.292 -1.583,-11.417 -2.292,-16.667l-14.458,0c0.542,6.042 0.958,11.208 1.458,16.667Z" style="fill-rule:nonzero;"/><path d="M163.708,175.092c-20.833,-0.292 -20.833,-0.292 -21.583,-20.833l0,-2c-0.583,-12.792 2.875,-16.667 15.708,-17.375c4.024,0.008 8.044,0.244 12.042,0.708c8.083,0.583 11.333,3.25 12.5,11.333c0.917,6.292 1.292,12.5 1.667,19c0.375,6.5 -1.5,9.167 -8.333,9.792c-4.009,0.043 -8.017,-0.166 -12,-0.625Z" style="fill-rule:nonzero;"/><path d="M50.833,176.342c-20.833,-0.292 -20.833,-0.292 -21.583,-20.833l0,-2c-0.583,-12.792 2.875,-16.667 15.708,-17.375c4.024,0.008 8.044,0.244 12.042,0.708c8.083,0.583 11.333,3.25 12.5,11.333c0.917,6.292 1.292,12.5 1.667,19c0.375,6.5 -1.5,9.167 -8.333,9.792c-4.009,0.043 -8.017,-0.166 -12,-0.625Zm-8.083,-12.75l15.417,0c-0.875,-6.292 -1.583,-11.417 -2.333,-16.667l-14.333,0c0.333,6.042 0.792,11.208 1.25,16.667Z" style="fill-rule:nonzero;"/><path d="M220.667,172.301c-20.833,-0.292 -20.833,-0.292 -21.583,-20.833l0,-2c-0.583,-12.792 2.875,-16.667 15.708,-17.333c4.023,-0.006 8.044,0.216 12.042,0.667c8.083,0.583 11.333,3.292 12.5,11.333c0.917,6.292 1.333,12.5 1.667,19c0.333,6.5 -1.458,9.167 -8.333,9.792c-4.01,0.063 -8.019,-0.145 -12,-0.625Z" style="fill-rule:nonzero;"/><path d="M106.958,126.342c-20.833,-0.292 -20.833,-0.292 -21.542,-20.833l0,-2c-0.583,-12.792 2.833,-16.667 15.708,-17.375c4.024,0.009 8.044,0.245 12.042,0.708c8.083,0.583 11.333,3.25 12.5,11.333c0.958,6.292 1.333,12.5 1.708,19c0.375,6.5 -1.5,9.167 -8.333,9.792c-4.037,0.044 -8.073,-0.165 -12.083,-0.625Zm-8.042,-12.75l15.292,0c-0.875,-6.292 -1.583,-11.417 -2.292,-16.667l-14.458,0c0.542,6.042 0.958,11.208 1.458,16.667Z" style="fill-rule:nonzero;"/><path d="M163.708,125.092c-20.833,-0.292 -20.833,-0.292 -21.583,-20.833l0,-2c-0.583,-12.792 2.875,-16.667 15.708,-17.375c4.024,0.008 8.044,0.244 12.042,0.708c8.083,0.583 11.333,3.25 12.5,11.333c0.917,6.292 1.292,12.5 1.667,19c0.375,6.5 -1.5,9.167 -8.333,9.792c-4.009,0.043 -8.017,-0.166 -12,-0.625Zm-8.083,-12.75l15.333,0c-0.875,-6.292 -1.583,-11.417 -2.333,-16.667l-14.625,0c0.708,6.042 1.167,11.208 1.625,16.667Z" style="fill-rule:nonzero;"/><path d="M50.833,126.342c-20.833,-0.292 -20.833,-0.292 -21.583,-20.833l0,-2c-0.583,-12.792 2.875,-16.667 15.708,-17.375c4.024,0.008 8.044,0.244 12.042,0.708c8.083,0.583 11.333,3.25 12.5,11.333c0.917,6.292 1.292,12.5 1.667,19c0.375,6.5 -1.5,9.167 -8.333,9.792c-4.009,0.043 -8.017,-0.166 -12,-0.625Zm-8.083,-12.75l15.417,0c-0.875,-6.292 -1.583,-11.417 -2.333,-16.667l-14.333,0c0.333,6.042 0.792,11.208 1.25,16.667Z" style="fill-rule:nonzero;"/><path d="M220.667,122.301c-20.833,-0.292 -20.833,-0.292 -21.583,-20.833l0,-2c-0.583,-12.792 2.875,-16.667 15.708,-17.333c4.023,-0.006 8.044,0.216 12.042,0.667c8.083,0.583 11.333,3.292 12.5,11.333c0.917,6.292 1.333,12.5 1.667,19c0.333,6.5 -1.458,9.167 -8.333,9.792c-4.01,0.063 -8.019,-0.145 -12,-0.625Zm-8.333,-12.75l15.333,0c-0.875,-6.25 -1.583,-11.417 -2.333,-16.667l-14.292,0c0.542,6.042 1,11.208 1.292,16.667Z" style="fill-rule:nonzero;"/></svg>