<?xml version="1.0" encoding="UTF-8" standalone="no"?><!DOCTYPE svg PUBLIC "-//W3C//DTD SVG 1.1//EN" "http://www.w3.org/Graphics/SVG/1.1/DTD/svg11.dtd"><svg width="100%" height="100%" viewBox="0 0 302 301" version="1.1" xmlns="http://www.w3.org/2000/svg" xmlns:xlink="http://www.w3.org/1999/xlink" xml:space="preserve" xmlns:serif="http://www.serif.com/" style="fill-rule:evenodd;clip-rule:evenodd;stroke-linejoin:round;stroke-miterlimit:2;"><path d="M260.848,100.833c-9.167,-6.667 -18.333,-13.333 -27.917,-19.583c-7.083,-4.583 -15.417,-6.667 -23.75,-4.583c-7.5,2.083 -15,5.417 -22.083,8.75c-8.75,4.167 -17.5,6.667 -27.5,5c-3.333,-0.417 -6.667,-1.667 -6.667,-5.417c0,-2.083 1.667,-4.167 3.333,-5.833c3.75,-3.333 7.5,-6.25 11.667,-9.583c-2.083,-2.083 -3.333,-3.333 -4.583,-5c-5,-6.667 -2.5,-14.167 5.833,-15.833c4.167,-0.833 8.333,0 12.917,0.417c5,0.417 10.417,1.25 15.417,0.417c2.5,-0.417 6.667,-2.917 6.25,-4.167c-0.833,-5.417 3.333,-8.333 5.833,-12.083c-40.417,-24.167 -108.333,-16.25 -133.333,10l9.167,0c10.833,-0.417 21.25,0.833 31.25,5.417c5.417,2.5 11.25,5 11.667,10.833c0.417,6.25 0,12.5 -1.25,18.75c-1.25,5.417 -5,6.667 -10.417,3.75c-2.917,-1.667 -5.417,-3.75 -8.333,-5.833c-1.25,0.833 -2.5,1.667 -3.75,2.5c-6.667,4.167 -12.5,9.167 -21.25,10.417c-3.333,0.417 -6.25,3.333 -8.75,6.25c-2.5,2.5 -4.583,5.833 -5.417,9.167c-1.667,5.417 -5.833,7.083 -10.833,7.5c-9.167,1.25 -17.5,-3.75 -22.5,-12.5c-1.25,-2.083 -2.5,-4.583 -4.583,-7.917c-2.5,6.25 -5,11.667 -7.083,17.083l0,13.75c13.333,4.167 25,3.333 36.25,-5.833c2.917,-2.5 6.667,-4.583 10,-6.667c5,-3.333 11.25,-4.583 17.5,-4.167c6.667,0.417 8.75,2.5 10,8.75c0.833,4.583 2.5,9.167 4.167,13.333c5.833,0.833 10,1.667 14.583,2.5c6.25,0.833 10.417,3.75 10.833,10c0.417,5.833 -0.417,11.667 -1.25,17.083c0,1.25 -1.667,2.917 -2.917,3.75c-3.333,1.667 -6.25,3.75 -10,5c-7.083,2.5 -8.333,3.333 -8.333,10.417c0,2.083 0.417,4.167 0.833,6.25c1.667,7.5 3.333,14.583 2.5,22.5c-0.833,6.667 0,13.75 0,21.25c-10.833,6.667 -17.083,5 -23.333,-6.25c-2.083,-3.75 -5.417,-7.083 -8.75,-9.583c-7.5,-5.417 -13.75,-11.667 -17.917,-19.583c-4.583,-7.5 -5,-15.417 -3.333,-23.75c0.833,-5 2.5,-10 3.75,-15c1.667,-7.083 -0.833,-10 -8.333,-8.75c-8.75,1.667 -16.667,0.417 -24.167,-3.333l-0.417,0l0,52.5c6.667,17.5 15.833,33.75 29.583,47.917c26.25,26.25 58.333,40.417 96.25,39.583c53.75,-1.25 92.917,-26.25 118.333,-70.833c10.417,-18.333 14.583,-37.917 15.417,-58.333c-1.25,-23.75 -7.5,-37.5 -24.583,-50.417Zm-114.167,-40.417c-2.917,0 -6.25,-1.25 -7.083,-5c-1.25,-5 -2.917,-10 -5,-14.583c-4.583,-10 -1.667,-14.167 10,-14.583c2.083,0 4.167,0 5.833,-0.417c4.583,0.417 9.583,-1.25 13.75,2.917c4.167,4.583 4.167,7.5 0.417,12.5c-4.167,5.417 -10.833,8.75 -12.083,16.25c-0.417,1.667 -3.75,2.917 -5.833,2.917Zm114.167,112.917c-0.833,2.917 -4.583,6.25 -7.917,7.917c-8.75,4.167 -13.333,11.667 -19.167,18.333c-9.583,11.25 -20,21.667 -37.917,20.833c-6.667,-0.417 -11.667,2.917 -15,8.333c-1.25,1.667 -2.083,3.75 -3.333,5.833c-3.75,6.25 -9.583,7.083 -15,2.083c-8.333,-7.917 -9.583,-16.667 -4.167,-27.917c1.667,-3.333 4.167,-5.833 5.833,-9.167c5,-8.75 9.583,-17.083 14.167,-25.833c3.333,-6.25 2.083,-11.667 -2.917,-16.25c-3.333,-3.333 -6.667,-6.667 -10.417,-9.583c-9.583,-7.083 -11.25,-17.083 -10.833,-27.083c0.417,-7.5 7.083,-12.917 13.75,-15.833c8.75,-3.75 18.333,-5.833 27.5,-8.333c2.083,-0.417 4.583,-0.833 6.667,-0.833l0,0.833c7.083,-0.417 13.75,-0.833 20.833,-0.833c3.333,0 6.25,0 9.583,0.417c5,0.833 7.083,4.167 5,8.333c-2.083,4.167 -4.583,7.917 -2.083,12.917c3.333,5.833 7.5,10.417 14.167,12.5c1.25,0.417 2.5,0.833 4.167,1.25c7.5,2.083 10.833,7.917 10.833,14.167c0,9.583 -1.667,18.75 -3.75,27.917Z" style="fill:none;fill-rule:nonzero;"/><path d="M297.098,112.917c-5.417,-27.5 -27.5,-63.75 -46.667,-78.75c-35,-27.083 -57.5,-34.167 -104.167,-34.167c-26.667,0 -53.333,7.917 -78.75,23.333c-21.25,12.917 -36.25,29.583 -48.75,51.25c-10.417,17.083 -19.167,42.5 -18.75,80.833c0.417,21.25 2.5,35 7.917,48.75c8.333,20.833 15.833,37.083 29.583,51.25c23.333,23.333 48.333,33.75 61.667,38.333c19.167,6.25 42.5,8.333 63.75,6.25c15.417,-1.25 32.917,-4.583 51.25,-12.917c42.5,-19.167 62.5,-45 76.667,-76.667c8.333,-18.75 15,-53.333 6.25,-97.5Zm-15,37.083c-0.833,20.417 -4.583,42.917 -14.583,61.25c-25,44.583 -64.167,69.583 -118.333,70.833c-37.917,0.833 -70.417,-13.333 -96.25,-39.583c-13.75,-13.75 -24.583,-33.333 -29.583,-51.25c-3.333,-11.25 -7.917,-25.417 -5.833,-49.167c0,-0.833 0.833,-5.833 2.083,-5.833c0.417,0 0.833,0.417 1.667,0.833c3.333,2.917 8.333,7.083 8.333,7.083c7.917,4.167 10,2.917 18.75,1.667c7.5,-1.25 10,1.667 8.333,8.75c-0.833,5 -2.5,10 -3.75,15c-1.667,8.333 -1.25,16.25 3.333,23.75c4.583,7.5 10.417,14.167 17.917,19.583c3.75,2.5 6.667,5.833 8.75,9.583c6.25,11.25 12.5,12.917 23.333,6.25c0,-7.5 -0.833,-14.583 0,-21.25c0.833,-7.917 -0.833,-15 -2.5,-22.5c-0.417,-2.083 -0.833,-4.167 -0.833,-6.25c0,-7.083 1.25,-7.917 8.333,-10.417c3.333,-1.25 6.667,-2.917 10,-5c1.25,-0.833 2.917,-2.5 2.917,-3.75c0.833,-5.833 1.25,-11.667 1.25,-17.083c-0.417,-5.833 -4.167,-9.167 -10.833,-10c-4.583,-0.417 -9.167,-1.25 -14.583,-2.5c-1.25,-4.167 -2.917,-8.75 -4.167,-13.333c-1.25,-6.25 -3.333,-8.75 -10,-8.75c-6.25,0 -12.083,0.833 -17.5,4.167c-3.333,2.083 -6.667,4.167 -10,6.667c-10,8.333 -24.167,10 -36.25,7.083c-2.083,-0.417 -2.5,-2.917 -1.667,-5l2.083,-7.917c2.083,-5.417 5.417,-11.25 7.917,-17.5c2.083,3.75 2.5,4.167 3.75,6.667c5,8.75 13.333,13.333 22.5,12.5c5,-0.417 9.167,-2.083 10.833,-7.5c0.833,-3.333 2.917,-6.667 5.417,-9.167c2.5,-2.5 5.417,-5.417 8.75,-6.25c8.75,-1.25 14.583,-6.25 21.25,-10.417c1.25,-0.833 2.083,-1.667 3.75,-2.5c2.917,2.083 5.417,4.167 8.333,5.833c5.417,2.917 9.167,1.667 10.417,-3.75c1.25,-6.25 2.083,-12.5 1.25,-18.75c-0.417,-5.833 -6.25,-8.75 -11.667,-10.833c-10,-4.583 -20.417,-5.417 -31.25,-5.417l-9.167,0c25,-26.25 95.833,-35 136.25,-10.833c-2.5,3.75 -9.167,7.5 -8.75,12.917c0,1.25 -4.167,4.167 -6.25,4.167c-5,0.417 -10.417,-0.417 -15.417,-0.417c-4.167,0 -8.75,-1.25 -12.917,-0.417c-8.333,2.083 -10.833,9.167 -5.833,15.833c1.25,1.667 2.5,2.917 4.583,5c-4.167,3.333 -7.917,6.25 -11.667,9.583c-1.667,1.667 -3.333,4.167 -3.333,5.833c0,3.333 3.333,4.583 6.667,5.417c10,1.25 18.75,-0.833 27.5,-5c7.083,-3.333 14.583,-6.667 22.083,-8.75c8.333,-2.083 16.667,0 23.75,4.583c9.583,6.25 18.75,12.5 27.917,19.583c18.75,12.5 24.167,23.333 22.917,46.667Z" style="fill-rule:nonzero;"/><path d="M254.181,131.667c-1.25,-0.417 -2.917,-0.833 -4.167,-1.25c-6.667,-2.5 -10.833,-7.083 -14.167,-12.5c-2.917,-5.417 -0.417,-9.167 2.083,-13.333c2.083,-4.167 0,-7.5 -5,-8.333c-2.917,-0.417 -6.25,-0.833 -9.583,-0.417c-7.083,0 -13.75,0.417 -20.833,0.833l0,-0.833c-2.083,0.417 -4.583,0.417 -6.667,0.833c-9.167,2.5 -18.75,4.583 -27.5,8.333c-6.667,2.917 -13.333,8.333 -13.75,15.833c-0.833,10 1.25,20 10.833,27.083c3.75,2.917 7.083,6.25 10.417,9.583c5,4.583 6.25,10.417 2.917,16.25c-4.583,8.75 -9.583,17.083 -14.167,25.833c-1.667,2.917 -4.167,5.833 -5.833,9.167c-5.417,11.25 -4.167,20 4.167,27.917c5,5 11.25,4.167 15,-2.083c1.25,-2.083 2.083,-3.75 3.333,-5.833c3.333,-5.417 8.333,-8.75 15,-8.333c17.917,1.25 28.333,-9.583 37.917,-20.833c5.833,-6.667 10.417,-14.167 19.167,-18.333c3.333,-1.667 7.5,-5 7.917,-7.917c2.083,-8.75 3.75,-18.333 3.75,-27.5c-0.417,-6.25 -3.333,-12.083 -10.833,-14.167Z" style="fill-rule:nonzero;"/><path d="M164.598,41.667c4.167,-5 4.167,-7.917 -0.417,-12.5c-4.167,-4.167 -9.167,-2.5 -13.75,-2.917c-2.083,0 -4.167,0 -5.833,0.417c-11.667,0.417 -14.167,4.583 -10,14.583c2.083,4.583 3.75,9.583 5,14.583c0.833,3.75 4.167,4.583 7.083,5c1.667,0 5.417,-1.25 5.417,-2.5c1.25,-7.917 7.917,-11.25 12.5,-16.667Z" style="fill-rule:nonzero;"/></svg>