<?xml version="1.0" encoding="UTF-8" standalone="no"?><!DOCTYPE svg PUBLIC "-//W3C//DTD SVG 1.1//EN" "http://www.w3.org/Graphics/SVG/1.1/DTD/svg11.dtd"><svg width="100%" height="100%" viewBox="0 0 299 333" version="1.1" xmlns="http://www.w3.org/2000/svg" xmlns:xlink="http://www.w3.org/1999/xlink" xml:space="preserve" xmlns:serif="http://www.serif.com/" style="fill-rule:evenodd;clip-rule:evenodd;stroke-linejoin:round;stroke-miterlimit:2;"><path d="M232.34,146.637l-17.415,177.588l-14.974,-3.776l32.39,-173.811Zm12.695,-59.083l-18.18,185.433l71.354,18.327l-53.174,-203.76Zm-52.375,234.621l4.167,-2.507c-1.839,-0.456 -3.711,0.667 -4.167,2.507Zm46.908,-251.708l-46.908,251.708c-0.033,0.13 -0.065,0.277 -0.081,0.407l-1.904,10.237l-190.675,-49.512l45.604,-272.283l21.207,6.494c3.109,-8.854 9.619,-16.732 17.236,-17.464c5.469,-0.521 15.104,2.409 18.034,27.946c0.033,0.212 -0.049,0.407 -0.049,0.618c0.163,-0.065 0.342,-0.065 0.488,-0.146l2.604,0.798c3.109,-8.854 9.619,-16.732 17.236,-17.464c5.485,-0.521 15.104,2.409 18.034,27.946c0.033,0.212 -0.049,0.407 -0.049,0.619c0.163,-0.065 0.342,-0.065 0.488,-0.146l4.264,1.302c3.109,-8.854 9.619,-16.732 17.236,-17.464c5.127,-0.488 13.851,2.051 17.383,23.21c3.483,-6.966 9.066,-12.549 15.43,-13.151c5.485,-0.521 15.104,2.409 18.05,27.946c0.033,0.212 -0.049,0.407 -0.049,0.618c0.163,-0.065 0.342,-0.065 0.505,-0.146l25.879,7.926l0.037,0.003Zm-88.283,-16.911c0.553,7.373 5.794,10.84 15.576,10.303c2.23,-0.13 4.118,1.579 4.248,3.792c0,0.13 -0.049,0.244 -0.049,0.374c1.872,-0.732 3.174,-2.555 3.06,-4.671c-0.146,-2.653 -2.409,-4.688 -5.062,-4.541c-10.482,0.586 -14.47,-4.167 -14.779,-9.88c-0.081,-1.465 0.033,-2.978 0.293,-4.508l17.464,5.355c-2.002,-13.395 -5.941,-17.953 -8.854,-17.676c-5.42,0.521 -12.597,11.914 -11.882,21.468l-0.016,-0.017Zm-39.99,-12.256c0.553,7.373 5.794,10.84 15.576,10.303c2.23,-0.114 4.118,1.579 4.248,3.792c0,0.13 -0.049,0.244 -0.049,0.374c1.872,-0.732 3.174,-2.555 3.06,-4.671c-0.146,-2.653 -2.409,-4.688 -5.062,-4.541c-10.482,0.586 -14.47,-4.167 -14.779,-9.88c-0.081,-1.465 0.033,-2.978 0.293,-4.508l17.464,5.355c-2.002,-13.395 -5.925,-17.953 -8.854,-17.676c-5.42,0.521 -12.597,11.914 -11.882,21.468l-0.016,-0.017Zm-38.346,-11.751c0.553,7.373 5.794,10.84 15.576,10.303c2.214,-0.13 4.118,1.579 4.248,3.792c0,0.13 -0.049,0.244 -0.049,0.374c1.872,-0.732 3.174,-2.555 3.06,-4.671c-0.146,-2.653 -2.409,-4.688 -5.062,-4.541c-10.482,0.586 -14.47,-4.167 -14.779,-9.88c-0.081,-1.465 0.033,-2.978 0.293,-4.508l17.464,5.355c-2.002,-13.395 -5.925,-17.953 -8.854,-17.676c-5.42,0.521 -12.597,11.914 -11.882,21.468l-0.016,-0.017Zm45.946,217.092c0.342,-1.855 -0.911,-3.646 -2.767,-3.971c-2.686,-0.488 -5.273,-1.628 -7.877,-2.783c-3.776,-1.676 -7.585,-3.369 -12.419,-3.662c-20.345,-1.172 -23.03,-2.978 -30.957,-8.268c-4.541,-3.044 -10.661,-7.129 -21.712,-12.647c-1.693,-0.846 -3.76,-0.146 -4.606,1.546c-0.846,1.693 -0.146,3.76 1.546,4.606c10.791,5.388 16.618,9.278 20.963,12.175c9.098,6.087 12.191,8.138 34.407,9.424c3.581,0.212 6.803,1.644 9.993,3.06c2.979,1.318 5.941,2.637 9.456,3.272c1.855,0.342 3.646,-0.911 3.971,-2.767l0.001,0.016Zm9.001,-31.462c-1.579,-0.618 -8.301,-3.792 -12.598,-5.81c-1.497,-0.7 -2.734,-1.286 -3.532,-1.628c-0.244,-0.146 -0.521,-0.244 -0.814,-0.326l-0.098,-0.033c-20.248,-4.525 -27.8,-8.691 -36.019,-13.216c-6.494,-3.581 -13.395,-7.373 -26.742,-11.735c-1.807,-0.586 -3.744,0.407 -4.33,2.197c-0.586,1.807 0.407,3.744 2.197,4.33c12.728,4.15 19.336,7.796 25.553,11.23c8.626,4.752 16.569,9.131 37.809,13.883c0.326,0.081 1.09,0.586 3.027,1.497c4.395,2.067 11.263,5.306 13.021,6.006c1.774,0.684 3.76,-0.179 4.443,-1.953c0.684,-1.774 -0.179,-3.76 -1.953,-4.443l0.033,-0Zm43.683,-30.16c-0.863,-1.253 -17.838,-7.78 -35.27,-13.981c-16.569,-5.892 -33.822,-11.751 -37.63,-12.581c-20.898,-4.541 -23.893,-6.397 -27.734,-8.757c-3.011,-1.855 -6.478,-4.004 -16.813,-7.471c-1.79,-0.602 -3.743,0.374 -4.346,2.165c-0.602,1.79 0.374,3.744 2.165,4.346c9.603,3.223 12.695,5.143 15.397,6.803c4.427,2.734 7.878,4.867 29.883,9.652c3.532,0.765 20.442,6.543 36.8,12.337c16.341,5.81 31.852,11.328 31.885,11.361c1.074,1.562 3.206,1.969 4.769,0.895c1.562,-1.074 1.969,-3.206 0.895,-4.769l0,0Zm9.993,-35.498c0.146,-1.888 -1.27,-3.548 -3.158,-3.695c-10.889,-0.863 -30.322,-5.55 -50.796,-11.41c-25.472,-7.292 -52.392,-16.374 -66.583,-22.266c-1.758,-0.716 -3.76,0.114 -4.476,1.872c-0.716,1.758 0.114,3.76 1.872,4.476c14.486,5.99 41.7,15.185 67.317,22.526c20.85,5.973 40.772,10.758 52.15,11.654c1.888,0.146 3.548,-1.27 3.695,-3.158l-0.021,0Zm5.388,-38.59c-3.76,-1.693 -8.073,-4.102 -12.614,-6.657c-11.784,-6.592 -25.097,-14.046 -37.158,-13.753c-19.401,0.472 -29.346,-4.46 -41.602,-10.514c-8.757,-4.33 -18.636,-9.212 -33.61,-13.265c-1.839,-0.488 -3.711,0.602 -4.215,2.441c-0.488,1.839 0.602,3.711 2.441,4.215c14.355,3.874 23.893,8.594 32.357,12.777c13.07,6.462 23.698,11.719 44.792,11.214c10.173,-0.244 22.624,6.722 33.643,12.891c4.671,2.62 9.098,5.095 13.151,6.918c1.725,0.781 3.76,0.016 4.541,-1.725c0.781,-1.725 0.016,-3.76 -1.725,-4.541l0.001,-0Zm19.938,-37.532c-0.146,-2.653 -2.409,-4.688 -5.062,-4.541c-10.482,0.586 -14.47,-4.167 -14.779,-9.88c-0.081,-1.465 0.033,-2.978 0.293,-4.508l17.464,5.355c-2.002,-13.395 -5.941,-17.953 -8.854,-17.676c-5.42,0.521 -12.597,11.914 -11.882,21.468c0.553,7.373 5.794,10.856 15.576,10.303c2.214,-0.114 4.118,1.579 4.248,3.792c0,0.13 -0.049,0.244 -0.049,0.374c1.872,-0.732 3.174,-2.555 3.06,-4.671l-0.016,-0.017Z" style="fill-rule:nonzero;"/></svg>