<?xml version="1.0" encoding="UTF-8" standalone="no"?><!DOCTYPE svg PUBLIC "-//W3C//DTD SVG 1.1//EN" "http://www.w3.org/Graphics/SVG/1.1/DTD/svg11.dtd"><svg width="100%" height="100%" viewBox="0 0 1424 993" version="1.1" xmlns="http://www.w3.org/2000/svg" xmlns:xlink="http://www.w3.org/1999/xlink" xml:space="preserve" xmlns:serif="http://www.serif.com/" style="fill-rule:evenodd;clip-rule:evenodd;stroke-linejoin:round;stroke-miterlimit:2;"><path d="M1378.375,330.362c-3.471,-39.929 -65.971,-31.25 -62.5,8.679c15.625,204.863 31.25,409.721 45.138,614.583c3.471,39.929 65.971,31.25 62.5,-8.679c-15.625,-204.862 -31.25,-409.721 -45.138,-614.583Z" style="fill-rule:nonzero;"/><path d="M1083.237,726.196c-39.929,-236.113 -92.012,-468.75 -152.779,-699.654c-10.417,-38.196 -72.917,-31.25 -62.5,8.679c62.5,230.904 112.846,463.542 152.779,699.654c6.946,39.929 69.446,31.25 62.5,-8.679Z" style="fill-rule:nonzero;"/><path d="M711.708,894.596c-39.929,-180.554 -92.013,-355.904 -156.25,-529.513c-13.888,-38.196 -72.917,-13.888 -57.292,24.304c62.5,168.404 112.846,338.542 152.779,513.888c6.946,38.196 69.446,29.513 60.763,-8.679Z" style="fill-rule:nonzero;"/><path d="M367.958,865.083c-109.375,-241.321 -210.071,-486.113 -303.821,-734.375c-13.887,-38.196 -72.917,-13.887 -57.292,24.304c93.75,248.263 196.179,493.054 303.821,734.375c15.625,36.458 72.917,12.154 57.292,-24.304Z" style="fill-rule:nonzero;"/><path d="M529.416,349.458c-163.196,-78.125 -324.654,-156.25 -487.846,-234.375c-36.458,-17.362 -59.029,39.929 -24.304,59.029c163.196,78.125 324.654,156.25 487.846,234.375c38.196,17.363 60.763,-41.667 24.304,-59.029Z" style="fill-rule:nonzero;"/><path d="M873.166,12.654c-100.696,135.417 -218.75,251.738 -354.167,350.696c-32.988,24.304 5.208,72.917 38.196,50.346c140.625,-102.429 263.888,-222.221 366.321,-362.846c22.571,-32.988 -26.042,-71.179 -50.346,-38.196l-0.004,0Z" style="fill-rule:nonzero;"/><path d="M1359.279,313c-154.512,-83.333 -298.613,-182.292 -434.029,-296.875c-31.25,-26.042 -67.708,24.304 -38.196,50.346c138.888,116.321 288.196,218.75 447.917,303.821c36.458,20.833 59.029,-38.196 24.304,-57.292l0.004,0Z" style="fill-rule:nonzero;"/><path d="M1404.416,936.262c-109.375,-74.654 -218.75,-151.042 -326.387,-225.696c-32.988,-22.571 -71.179,27.779 -38.196,50.346c109.375,74.654 218.75,151.042 326.387,225.696c32.988,22.571 71.179,-27.779 38.196,-50.346Z" style="fill-rule:nonzero;"/><path d="M1027.683,698.417l-338.542,180.554c-34.721,19.096 -12.154,76.387 24.304,57.292l338.542,-180.554c34.721,-17.362 10.417,-76.387 -24.304,-57.292Z" style="fill-rule:nonzero;"/><path d="M696.083,878.971c-116.321,-6.946 -234.375,-13.888 -350.696,-20.833c-39.929,-1.737 -48.612,59.029 -8.679,62.5l350.696,20.833c41.667,1.737 50.346,-60.763 8.679,-62.5Z" style="fill-rule:nonzero;"/><path d="M329.766,387.654c-8.679,-22.571 -31.25,-34.721 -55.554,-34.721c-24.304,1.738 -43.404,20.833 -45.137,45.138c-1.738,13.888 3.471,29.513 12.154,39.929c1.738,1.737 3.471,5.208 6.946,6.946c36.458,34.721 100.696,-8.679 81.596,-57.292l-0.004,0Z" style="fill-rule:nonzero;"/><path d="M1291.57,682.792c-3.471,-39.929 -52.083,-65.971 -86.804,-43.404c-26.042,17.362 -31.25,57.292 -10.417,81.596c3.471,6.946 8.679,13.888 17.363,17.362c38.196,15.625 83.333,-13.888 79.862,-55.554l-0.004,0Z" style="fill-rule:nonzero;"/><path d="M428.725,566.471c-15.625,-22.571 -31.25,-45.138 -46.875,-67.708c-10.417,-13.887 -31.25,-15.625 -45.138,-6.946c-13.887,10.417 -15.625,29.513 -5.208,43.404c15.625,22.571 31.25,45.138 46.875,67.708c10.417,13.888 31.25,15.625 43.404,5.208c15.625,-8.679 17.363,-27.779 6.946,-41.667l-0.004,0Z" style="fill-rule:nonzero;"/><path d="M600.6,738.346c-34.721,-13.888 -65.971,-34.721 -92.013,-62.5c-27.779,-29.513 -78.125,8.679 -50.346,38.196c32.988,36.458 72.917,64.237 118.054,81.596c38.196,15.625 60.763,-41.667 24.304,-57.292Z" style="fill-rule:nonzero;"/><path d="M786.362,637.654c-3.471,39.929 -29.513,72.917 -67.708,86.804c-38.196,13.888 -13.888,71.179 24.304,57.292c59.029,-20.833 100.696,-76.387 105.904,-137.154c3.471,-39.929 -59.029,-46.875 -62.5,-6.946l0,0.004Z" style="fill-rule:nonzero;"/><path d="M852.333,498.762c-12.154,-31.25 -12.154,-64.237 0,-97.221c13.887,-38.196 -45.138,-60.762 -59.029,-24.304c-17.362,46.875 -17.362,97.221 0,144.096c15.625,39.929 72.917,15.625 59.029,-22.571Z" style="fill-rule:nonzero;"/><path d="M1093.654,292.167c-53.821,-46.875 -133.679,-57.292 -197.917,-24.304c-36.458,17.363 -12.154,76.388 24.304,57.292c46.875,-24.304 97.221,-17.363 137.154,17.362c29.513,26.042 65.971,-24.304 36.458,-50.346l0,-0.004Z" style="fill-rule:nonzero;"/><path d="M1263.791,538.696c-5.208,-57.292 -27.779,-111.112 -65.971,-154.512c-26.042,-31.25 -76.387,6.946 -50.346,38.196c31.25,36.458 48.612,78.125 53.821,125c3.471,39.929 65.971,31.25 62.5,-8.679l-0.004,-0.004Z" style="fill-rule:nonzero;"/></svg>