<?xml version="1.0" encoding="UTF-8" standalone="no"?><!DOCTYPE svg PUBLIC "-//W3C//DTD SVG 1.1//EN" "http://www.w3.org/Graphics/SVG/1.1/DTD/svg11.dtd"><svg width="100%" height="100%" viewBox="0 0 262 300" version="1.1" xmlns="http://www.w3.org/2000/svg" xmlns:xlink="http://www.w3.org/1999/xlink" xml:space="preserve" xmlns:serif="http://www.serif.com/" style="fill-rule:evenodd;clip-rule:evenodd;stroke-linejoin:round;stroke-miterlimit:2;"><g><g><path d="M252.686,153.782c-3.333,-49.167 -7.917,-98.333 -12.5,-147.5c-0.417,-2.917 -2.5,-6.667 -6.25,-6.25c-75.833,8.333 -151.667,12.5 -227.917,12.917c-7.5,0 -7.917,10.417 -1.667,12.083c-0.417,0.833 -0.833,2.083 -0.417,2.917c6.25,87.917 12.5,176.25 18.75,264.167c0.417,3.333 2.5,6.25 6.25,6.25l141.25,0c23.333,0 47.917,2.083 70.833,0c9.583,-0.833 15.833,-3.75 18.333,-13.75c4.583,-17.083 -0.833,-40 -2.083,-57.5c-1.25,-24.167 -2.917,-48.75 -4.583,-73.333Zm-14.167,132.5c-4.583,2.083 -19.167,0 -24.167,0l-180,0c-6.25,-85.833 -12.083,-172.083 -18.333,-257.917c0,-1.25 -0.417,-2.083 -0.833,-2.917c71.25,-0.417 142.5,-4.583 213.333,-12.083c7.917,79.583 13.75,159.167 17.917,238.75c0.417,11.25 5.833,28.333 -7.917,34.167Z" style="fill-rule:nonzero;"/><path d="M84.353,69.199c-3.75,-4.583 -9.167,-4.583 -15,-4.583c-7.5,0 -15,0.417 -22.5,0.417c-1.667,0 -2.917,0.833 -4.167,1.667c-2.917,0 -5.833,2.083 -5.833,5.833c0,7.5 -1.25,16.667 0,24.167c0.833,4.583 3.333,7.917 8.333,8.75c6.667,1.25 14.583,-0.833 21.667,-1.25c5.417,-0.417 12.917,0 17.5,-3.333c5,-3.75 4.583,-10 4.167,-15.417c-0.417,-5.417 -0.833,-11.667 -4.167,-16.25Zm-9.583,22.083c-2.917,1.25 -9.167,0.833 -12.083,0.833c-4.167,0.417 -8.333,0.833 -12.083,0.833l-0.833,0l0,-0.417c-0.417,-2.083 0,-4.167 0,-6.25l0,-9.167c6.667,-0.417 13.333,-0.417 20,-0.417c4.583,0 5.417,0 6.25,4.583c0.417,2.083 0.833,4.167 0.833,6.25c-0.417,3.75 -0,2.5 -2.083,3.75Z" style="fill-rule:nonzero;"/><path d="M210.186,67.949c-33.75,4.167 -67.5,7.083 -101.25,7.917c-7.917,0.417 -7.917,12.917 0,12.5c33.75,-1.25 67.5,-3.75 101.25,-7.917c7.917,-1.25 7.917,-13.333 0,-12.5Z" style="fill-rule:nonzero;"/><path d="M84.353,120.449c-3.75,-4.583 -9.167,-4.583 -15,-4.583c-7.5,0 -15,0.417 -22.5,0.417c-1.667,0 -2.917,0.833 -4.167,1.667c-2.917,0 -5.833,2.083 -5.833,5.833c0,7.5 -1.25,16.667 0,24.167c0.833,4.583 3.333,7.917 8.333,8.75c6.667,1.25 14.583,-0.833 21.667,-1.25c5.417,-0.417 12.917,0 17.5,-3.333c5,-3.75 4.583,-10 4.167,-15.417c-0.417,-5.417 -0.833,-11.667 -4.167,-16.25Zm-9.583,22.083c-2.917,1.25 -9.167,0.833 -12.083,0.833c-4.167,0.417 -8.333,0.833 -12.083,0.833l-0.833,0l0,-0.417c-0.417,-2.083 0,-4.167 0,-6.25l0,-9.167c6.667,-0.417 13.333,-0.417 20,-0.417c4.583,0 5.417,0 6.25,4.583c0.417,2.083 0.833,4.167 0.833,6.25c-0.417,3.75 -0,2.5 -2.083,3.75Z" style="fill-rule:nonzero;"/><path d="M210.186,119.199c-33.75,4.167 -67.5,7.083 -101.25,7.917c-7.917,0.417 -7.917,12.917 0,12.5c33.75,-1.25 67.5,-3.75 101.25,-7.917c7.917,-1.25 7.917,-13.75 0,-12.5Z" style="fill-rule:nonzero;"/><path d="M84.353,171.699c-3.75,-4.583 -9.167,-4.583 -15,-4.583c-7.5,0 -15,0.417 -22.5,0.417c-1.667,0 -2.917,0.833 -4.167,1.667c-2.917,0 -5.833,2.083 -5.833,5.833c0,7.5 -1.25,16.667 0,24.167c0.833,4.583 3.333,7.917 8.333,8.75c6.667,1.25 14.583,-0.833 21.667,-1.25c5.417,-0.417 12.917,0 17.5,-3.333c5,-3.75 4.583,-10 4.167,-15.417c-0.417,-5.417 -0.833,-11.667 -4.167,-16.25Zm-9.583,22.083c-2.917,1.25 -9.167,0.833 -12.083,0.833c-4.167,0.417 -8.333,0.833 -12.083,0.833l-0.833,0l0,-0.417c-0.417,-2.083 0,-4.167 0,-6.25l0,-9.167c6.667,-0.417 13.333,-0.417 20,-0.417c4.583,0 5.417,0 6.25,4.583c0.417,2.083 0.833,4.167 0.833,6.25c-0.417,3.333 -0,2.5 -2.083,3.75Z" style="fill-rule:nonzero;"/><path d="M210.186,170.449c-33.75,4.167 -67.5,7.083 -101.25,7.917c-7.917,0.417 -7.917,12.917 0,12.5c33.75,-1.25 67.5,-3.75 101.25,-7.917c7.917,-1.25 7.917,-13.75 0,-12.5Z" style="fill-rule:nonzero;"/><path d="M84.353,222.949c-3.75,-4.583 -9.167,-4.583 -15,-4.583c-7.5,0 -15,0.417 -22.5,0.417c-1.667,0 -2.917,0.833 -4.167,1.667c-2.917,0 -5.833,2.083 -5.833,5.833c0,7.5 -1.25,16.667 0,24.167c0.833,4.583 3.333,7.917 8.333,8.75c6.667,1.25 14.583,-0.833 21.667,-1.25c5.417,-0.417 12.917,0 17.5,-3.333c5,-3.75 4.583,-10 4.167,-15.417c-0.417,-5.417 -0.833,-12.083 -4.167,-16.25Zm-9.583,22.083c-2.917,1.25 -9.167,0.833 -12.083,0.833c-4.167,0.417 -8.333,0.833 -12.083,0.833l-0.833,0l0,-0.417c-0.417,-2.083 0,-4.167 0,-6.25l0,-9.167c6.667,-0.417 13.333,-0.417 20,-0.417c4.583,0 5.417,0 6.25,4.583c0.417,2.083 0.833,4.167 0.833,6.25c-0.417,3.333 -0,2.5 -2.083,3.75Z" style="fill-rule:nonzero;"/><path d="M210.186,221.282c-33.75,4.167 -67.5,7.083 -101.25,7.917c-7.917,0.417 -7.917,12.917 0,12.5c33.75,-1.25 67.5,-3.75 101.25,-7.917c7.917,-0.833 7.917,-13.333 0,-12.5Z" style="fill-rule:nonzero;"/></g></g></svg>