<?xml version="1.0" encoding="UTF-8" standalone="no"?><!DOCTYPE svg PUBLIC "-//W3C//DTD SVG 1.1//EN" "http://www.w3.org/Graphics/SVG/1.1/DTD/svg11.dtd"><svg width="100%" height="100%" viewBox="0 0 323 243" version="1.1" xmlns="http://www.w3.org/2000/svg" xmlns:xlink="http://www.w3.org/1999/xlink" xml:space="preserve" xmlns:serif="http://www.serif.com/" style="fill-rule:evenodd;clip-rule:evenodd;stroke-linejoin:round;stroke-miterlimit:2;"><path d="M12.261,80.846c8.667,1.958 18.5,-2.583 20.708,-11.75c0.5,-2.042 1.125,-4.042 1.75,-6.042c0.083,-0.25 0.083,-0.292 0.167,-0.458c0.417,-0.875 0.875,-1.792 1.333,-2.667c1,-1.833 2.125,-3.583 3.25,-5.333c0.333,-0.5 0.208,-0.292 0.333,-0.542c0.958,-1.167 1.917,-2.292 2.958,-3.375c1.25,-1.333 2.583,-2.583 4,-3.792c0.292,-0.25 2.875,-2.292 1.333,-1.167c-1.5,1.125 1.167,-0.75 1.5,-1c1.75,-1.167 3.542,-2.25 5.417,-3.208c0.917,-0.5 1.875,-0.958 2.833,-1.375c0.25,-0.125 0.208,-0.125 0.25,-0.125c0.167,-0.042 0.292,-0.083 0.792,-0.25c2,-0.625 3.958,-1.292 6,-1.75c0.917,-0.208 1.792,-0.375 2.708,-0.542c0.208,0 0.417,-0.083 0.542,-0.083c2.083,-0.125 4.167,-0.208 6.292,-0.125c0.625,0 1.25,0.083 1.875,0.125c0,0.042 2.667,0.458 2.958,0.5c2.042,0.458 4,1.125 6,1.75c0.208,0.083 0.708,0.292 1.083,0.458c0.667,0.333 1.375,0.667 2.042,1c1.875,0.958 3.667,2.042 5.417,3.208c0.667,0.417 1.292,0.875 1.917,1.333c1.417,1.042 -1.25,-1.25 0.917,0.792c1.542,1.458 3.083,2.833 4.542,4.375c0.458,0.5 4.083,5.167 2.333,2.667c1.208,1.708 2.333,3.458 3.375,5.292c0.5,0.917 0.958,1.875 1.458,2.75c0.333,0.625 0.417,0.625 0.542,0.833c0.042,0.25 0,0.25 0.25,0.917c0.667,2 1.292,3.958 1.792,6c0.208,0.958 0.417,1.917 0.583,2.875l0,0.375c0.125,2.167 0.208,4.292 0.083,6.458c-0.042,1.083 -0.125,2.167 -0.25,3.25c0.333,-2.458 -0.083,0 -0.375,1.125c-0.5,2.125 -1.083,4.167 -1.833,6.208l0,0.125c-0.083,0.125 -0.042,0.042 -0.167,0.292c-0.375,0.708 -0.708,1.417 -1.125,2.125c-0.333,0.625 -3.833,5.292 -1.917,3.125c-0.708,0.792 -1.417,1.583 -2.167,2.333c-0.167,0.167 -2.125,1.75 -2.292,1.917c-1,0.583 -2.417,1.375 -2.667,1.625c-1.625,0.583 -3.292,1.083 -5,1.458c-0.417,0.083 -0.833,0.083 -1.167,0.042c-0.625,0 -1.292,0.083 -1.917,0.042c-0.625,0 -1.292,-0.042 -1.917,-0.125c-0.292,-0.042 -1.042,-0.208 -1.792,-0.375c-0.875,-0.208 -1.708,-0.5 -2.542,-0.792c-0.083,-0.083 -0.292,-0.208 -0.958,-0.583c-0.667,-0.333 -0.5,-0.25 -0.667,-0.333c-0.792,-0.667 -1.542,-1.458 -2.25,-2.208c-0.083,-0.208 0.042,0.042 -0.167,-0.333c-0.167,-0.333 -0.208,-0.292 -0.292,-0.458c-0.167,-0.75 -0.417,-1.5 -0.667,-2.208c0.208,0 0.333,0.125 0.542,0.083c8.25,-0.375 17.917,-7.458 16.833,-16.833c-0.917,-7.875 -3.208,-14.125 -8.667,-20c-5.542,-5.958 -13.625,-5.625 -20.417,-2.625c-25.583,11.25 -29,49.708 -9.417,67.833c11.292,10.458 26.375,13.958 41.333,11.75c14.125,-2.083 25.792,-10.417 34.083,-21.75c34.833,-47.625 -13.167,-116.75 -68.792,-109.708c-30.333,3.833 -57.25,25.833 -64.5,56.083c-2.042,8.542 2.708,18.625 11.75,20.708l0.042,0.083Zm99.25,-9c-0.083,-0.792 -0.083,-1.625 0,0Zm-44.042,-34.375c-1.417,0.25 -0.75,0.125 0,0Zm-32.5,24.875c0.458,-1.417 0.25,-0.708 0,0Z" style="fill-rule:nonzero;"/><path d="M215.261,135.013c7.333,4.917 18.958,1.667 23.042,-6.042c4.458,-8.458 1.792,-17.792 -6.042,-23.042c0,0 -0.958,-0.708 -1.625,-1.167c-0.625,-0.542 -1.5,-1.25 -1.5,-1.25c-1.375,-1.25 -2.667,-2.542 -3.875,-3.917c0,0 -0.792,-1 -1.333,-1.625c-0.458,-0.667 -1.083,-1.542 -1.083,-1.542c-1.25,-1.917 -2.417,-3.917 -3.458,-5.958c-0.208,-0.375 -0.375,-0.792 -0.542,-1.167c-0.167,-0.375 -0.542,-1.333 -0.708,-1.792c-0.708,-1.958 -1.292,-3.958 -1.792,-5.958c-0.333,-1.375 -0.583,-2.792 -0.833,-4.208c-0.042,-0.5 -0.125,-1.167 -0.167,-1.542c-0.083,-1.375 -0.125,-2.75 -0.125,-4.125c0,-2.083 0.167,-4.125 0.333,-6.167c-0.333,4.125 0.458,-1.833 0.75,-2.958c0.458,-1.833 1.083,-3.583 1.708,-5.375c0.042,-0.125 0.083,-0.25 0.167,-0.333c0.667,-1.208 1.25,-2.458 1.958,-3.625c0.583,-1 1.208,-1.958 1.875,-2.917c0.208,-0.292 0.583,-0.708 0.875,-1.083c1,-1.167 2,-2.292 3.125,-3.375c0.833,-0.792 1.667,-1.583 2.542,-2.333c0.25,-0.208 0.708,-0.583 1.083,-0.917c1.625,-1.167 3.292,-2.292 5.042,-3.292c0.792,-0.458 1.625,-0.917 2.417,-1.333c0,0 0.625,-0.333 1.25,-0.625c0.5,-0.167 2.292,-0.958 2.333,-0.958c0.875,-0.292 1.75,-0.583 2.625,-0.875c2,-0.625 4,-1.125 6.042,-1.5c0.417,-0.083 1.083,-0.167 1.583,-0.25c0.958,-0.083 1.875,-0.167 2.833,-0.208c1.833,-0.083 3.667,-0.042 5.5,0.083c0.375,0 0.708,0.083 1.083,0.083c0.417,0.083 1.458,0.208 1.958,0.333c2.083,0.458 4.125,1.083 6.167,1.708c0.292,0.083 0.333,0.125 0.542,0.167c1.167,0.542 2.333,1.125 3.5,1.75c1.083,0.583 2.125,1.25 3.125,1.917c0.333,0.208 1,0.708 1.417,1.042c1.25,1.083 2.458,2.167 3.583,3.333c0,0 0.792,0.917 1.375,1.583c0.458,0.708 1.333,1.875 1.333,1.875c0.5,0.833 0.958,1.667 1.458,2.5c0.292,0.5 0.333,0.5 0.458,0.667c0.042,0.208 0,0.167 0.167,0.625c0.292,0.917 0.583,1.833 0.833,2.792c0,0.125 0.208,1.458 0.333,2.167c0,0.625 0.042,1.25 0.042,1.333c0,0.833 -0.042,1.667 -0.083,2.458c-0.25,1 -0.417,2 -0.708,3c-0.292,1.083 -0.667,2.125 -1.083,3.167c1.042,-2.708 0.167,-0.583 -0.625,0.75c-0.458,0.75 -1,1.458 -1.417,2.208c1.75,-3.042 0.083,-0.167 -0.75,0.625c-0.25,0.25 -0.5,0.458 -0.75,0.667c0.25,-0.292 -1.5,1.042 -2.083,1.417c-0.208,0.125 0,0 -0.167,0.125c-0.667,0.208 -1.333,0.375 -2,0.542c-0.292,0 -0.625,0.083 -0.917,0.083l-1.083,0c-0.208,-0.083 -0.417,-0.125 -0.625,-0.167c0.25,-0.625 0.708,-1.125 0.875,-1.792c1.958,-8.667 -2.625,-18.458 -11.75,-20.708c-5.833,-1.417 -12.208,-1.667 -17.875,0.708c-6.625,2.75 -12.792,8.25 -12.375,16.25c1.708,30.542 37.667,49.833 64.042,33.458c24.875,-15.417 29.708,-50.417 12.667,-73.375c-17.042,-22.917 -46.917,-31.917 -74.208,-24.25c-24.958,7 -46.708,27.167 -52.292,52.958c-6.583,30.375 6.042,62.167 31.875,79.458l-0.042,-0.083Zm62.167,-62.625c0.583,-0.125 0.458,-0.083 0,0Zm9.042,-12.042c-0.083,1.958 -0.083,0.917 0,0Zm-68.542,-2.958c-0.458,1.25 -0.292,0.708 0,0Z" style="fill-rule:nonzero;"/><path d="M288.636,183.929c0.417,12.792 -9.417,25.75 -23.125,25.5c-12.875,-0.25 -25.083,-11.542 -35.292,-18.208c-26.125,-17.083 -51.833,-19.125 -77.292,0.333c-8,6.125 -19.167,18.958 -30.25,17.167c-11.292,-1.792 -21.417,-15.333 -30.375,-21.625c-28.5,-20.083 -60.708,-8.5 -83.833,14c-15.542,15.125 8.25,38.958 23.792,23.792c11.833,-11.542 26.333,-20.333 41.583,-9.792c12,8.292 21.417,19.708 35.542,24.708c13.792,4.875 28,2.625 40.583,-4.458c11.917,-6.667 21.625,-20.125 34.833,-24.167c12.667,-3.875 24.875,6.708 34.708,13.333c12.792,8.625 26.375,16.875 42.083,18.25c32.958,2.875 61.667,-26.5 60.625,-58.875c-0.667,-21.625 -34.333,-21.708 -33.667,0l0.083,0.042Z" style="fill-rule:nonzero;"/></svg>