<?xml version="1.0" encoding="UTF-8" standalone="no"?><!DOCTYPE svg PUBLIC "-//W3C//DTD SVG 1.1//EN" "http://www.w3.org/Graphics/SVG/1.1/DTD/svg11.dtd"><svg width="100%" height="100%" viewBox="0 0 378 202" version="1.1" xmlns="http://www.w3.org/2000/svg" xmlns:xlink="http://www.w3.org/1999/xlink" xml:space="preserve" xmlns:serif="http://www.serif.com/" style="fill-rule:evenodd;clip-rule:evenodd;stroke-linejoin:round;stroke-miterlimit:2;"><path d="M218.936,10.154c-13.117,-2.063 -18.767,18.008 -5.538,20.088c42.838,6.733 66.55,48.354 57.338,89.825c-8.762,39.458 -54.9,60.579 -92.296,60.654c-40.725,0.079 -81.979,-28.546 -82.188,-72.179c-0.092,-18.9 8.317,-41.304 19.567,-56.492c12.521,-16.9 42.304,-34.354 63.35,-29.75c13.067,2.858 18.65,-17.221 5.538,-20.087c-54.8,-11.992 -100.892,44.333 -108.275,93.3c-8.217,54.479 36.487,98.983 88.279,105.179c48.958,5.854 112.208,-20.921 125.388,-72.208c13.383,-52.092 -15.767,-109.625 -71.163,-118.329Z" style="fill-rule:nonzero;"/><path d="M222.777,93.162c-10.488,-0.033 -20.875,0.704 -31.221,2.042c0.525,-13.638 0.621,-27.279 0.258,-40.938c-0.354,-13.379 -21.188,-13.433 -20.833,0c0.467,17.717 0.192,35.4 -0.833,53.092c-0.421,7.279 6.963,11.188 13.188,10.046c13.075,-2.404 26.154,-3.45 39.442,-3.408c13.408,0.042 13.425,-20.792 0,-20.833Z" style="fill-rule:nonzero;"/><path d="M119.402,119.687c13.404,0 13.429,-20.833 0,-20.833c-13.408,0 -13.429,20.833 0,20.833Z" style="fill-rule:nonzero;"/><path d="M181.519,167.579c13.404,0 13.429,-20.833 0,-20.833c-13.404,0 -13.425,20.833 0,20.833Z" style="fill-rule:nonzero;"/><path d="M43.369,64.662c-7.046,19.763 -7.871,40.483 -3.054,60.858c1.95,8.246 11.717,9.3 17.408,4.596c0.338,-0.279 0.675,-0.558 1.013,-0.833c4.892,-4.038 4.129,-9.425 0.912,-13.108c-2.975,-15.6 -1.575,-30.862 3.812,-45.971c4.508,-12.654 -15.612,-18.1 -20.092,-5.542Z" style="fill-rule:nonzero;"/><path d="M34.527,160.408c-5.542,-6.85 -9.262,-21.85 -11.008,-28.712c-2.583,-10.167 -3.021,-20.383 -2.504,-30.808c0.962,-19.487 4.096,-47.387 17.192,-62.971c8.571,-10.2 -6.092,-25.012 -14.733,-14.733c-17.338,20.633 -22.025,51.546 -23.292,77.704c-0.721,14.858 0.625,29.379 5.5,43.496c3.292,9.533 8.371,26.75 16.162,32.85c6.013,4.708 15.046,3.6 17.408,-4.596c0.05,-0.171 0.096,-0.337 0.146,-0.508c1.321,-4.583 -0.946,-9.371 -4.871,-11.721Z" style="fill-rule:nonzero;"/><path d="M308.402,60.296c9.783,21.225 11.562,44.075 5.846,66.671c-3.292,13 16.796,18.55 20.088,5.537c7.171,-28.329 4.267,-56.237 -7.946,-82.721c-5.608,-12.162 -23.571,-1.592 -17.988,10.513Z" style="fill-rule:nonzero;"/><path d="M338.931,15.871c21.779,45.929 22.979,97.217 4.913,144.542c-4.783,12.537 15.346,17.958 20.087,5.537c20.121,-52.713 17.083,-109.771 -7.013,-160.596c-5.742,-12.104 -23.708,-1.546 -17.987,10.517Z" style="fill-rule:nonzero;"/></svg>