<?xml version="1.0" encoding="UTF-8" standalone="no"?><!DOCTYPE svg PUBLIC "-//W3C//DTD SVG 1.1//EN" "http://www.w3.org/Graphics/SVG/1.1/DTD/svg11.dtd"><svg width="100%" height="100%" viewBox="0 0 311 347" version="1.1" xmlns="http://www.w3.org/2000/svg" xmlns:xlink="http://www.w3.org/1999/xlink" xml:space="preserve" xmlns:serif="http://www.serif.com/" style="fill-rule:evenodd;clip-rule:evenodd;stroke-linejoin:round;stroke-miterlimit:2;"><path d="M214.878,345.51c-9.961,1.237 -51.954,1.595 -75.408,1.286c-1.986,-0.033 -7.422,0.033 -10.661,-1.318c-2.897,-1.204 -3.727,-3.776 -3.792,-4.46c-0.163,-1.481 -0.228,-2.23 -0.423,-18.669c-0.016,-1.253 -0.146,-12.614 -0.114,-15.641c0.13,-14.486 7.715,-30.111 25.065,-38.086c-1.042,-1.042 -2.083,-2.23 -3.141,-3.564c-6.136,-7.715 -14.307,-23.795 -7.145,-39.99c5.827,-13.168 15.69,-17.22 18.197,-18.262c5.843,-2.441 12.109,-2.865 14.209,-2.978c2.897,-0.163 6.234,0 8.773,0.228c2.751,0.065 5.729,0.374 8.61,1.09c0.456,0.114 6.657,1.481 11.947,5.827c4.378,3.613 6.641,8.073 7.047,8.87c1.318,2.604 3.418,7.34 4.004,16.065c0.993,14.779 -4.346,25.879 -13.021,32.878c8.089,4.525 13.525,11.198 16.895,17.529c4.053,-7.162 10.482,-13.477 19.629,-17.676c-1.042,-1.042 -2.083,-2.23 -3.141,-3.564c-6.136,-7.715 -14.307,-23.795 -7.145,-39.99c5.827,-13.168 15.69,-17.22 18.197,-18.262c5.843,-2.441 12.109,-2.865 14.209,-2.978c2.897,-0.163 6.234,0 8.773,0.228c2.751,0.065 5.729,0.374 8.61,1.09c0.456,0.114 6.657,1.481 11.947,5.827c4.378,3.613 6.641,8.073 7.047,8.87c1.318,2.604 3.418,7.34 4.004,16.065c0.993,14.779 -4.346,25.879 -13.021,32.878c13.412,7.503 19.531,20.898 21.029,28.857c1.986,10.498 0.814,18.669 2.067,38.786c0.065,1.123 0.146,1.123 0.016,2.23c-0.391,3.434 -2.799,5.143 -3.206,5.436c-1.074,0.765 -2.132,1.074 -2.327,1.123c-5.062,1.481 -51.838,1.921 -77.117,1.579c-1.969,-0.033 -7.324,0.033 -10.58,-1.286l-0.031,-0.016Zm6.918,-15.137c0.977,-0.016 7.633,-0.065 8.122,-0.065c9.88,-0.033 38.883,0.26 52.329,0.195c4.427,-0.016 7.715,-0.065 10.173,-0.13c-0.293,-15.788 0.488,-21.452 -0.488,-29.004c0,0 -0.244,-4.508 -3.646,-10.384c-8.838,-15.332 -24.577,-14.779 -30.078,-14.6c-5.469,0.195 -28.63,1.042 -35.449,23.258c-1.025,3.369 -1.335,6.006 -1.53,8.887c0.244,5.745 0.146,12.288 0.57,21.875l-0.001,-0.033Zm42.417,-67.075c11.442,-1.872 22.591,-9.88 20.377,-30.062c-1.074,-9.717 -5.192,-13.493 -5.582,-13.916c-0.179,-0.195 -3.711,-4.59 -12.484,-5.745c-0.814,-0.114 -1.611,-0.179 -2.376,-0.212c-2.409,0.065 -5.29,0.358 -8.398,1.123c-7.324,1.823 -16.309,7.357 -19.401,18.18c-3.141,11.002 5.485,25.391 13.005,29.558c1.107,0.618 1.807,0.895 5.062,1.27c0.277,0.033 0.553,0.065 0.83,0.081c2.409,-0.228 5.599,-0.407 9.001,-0.309l-0.033,0.032Zm-85.988,0c11.442,-1.872 22.591,-9.88 20.377,-30.062c-1.074,-9.717 -5.192,-13.493 -5.582,-13.916c-0.179,-0.195 -3.711,-4.59 -12.484,-5.745c-0.814,-0.114 -1.611,-0.179 -2.376,-0.212c-2.409,0.065 -5.29,0.358 -8.398,1.123c-7.324,1.823 -16.309,7.357 -19.401,18.18c-3.141,11.002 5.485,25.391 13.005,29.558c1.107,0.618 1.807,0.895 5.062,1.27c0.277,0.033 0.553,0.065 0.83,0.081c2.409,-0.228 5.599,-0.407 9.001,-0.309l-0.033,0.032Zm-43.163,47.917c-0.309,4.72 0.423,19.271 0.635,19.141c0,0 7.715,-0.065 8.252,-0.065c9.88,-0.033 38.883,0.26 52.329,0.195c4.427,-0.016 7.715,-0.065 10.173,-0.13c-0.293,-15.788 0.488,-21.452 -0.488,-29.004c0,0 -0.244,-4.508 -3.646,-10.384c-8.838,-15.332 -24.577,-14.779 -30.078,-14.6c-5.469,0.195 -28.63,1.042 -35.449,23.258c-1.351,4.395 -1.449,7.536 -1.709,11.605l-0.018,-0.017Zm-1.188,-154.313c-8.773,7.91 -13.9,12.809 -14.909,18.262c-0.407,2.262 -0.098,2.279 -0.326,10.156c-0.293,10.124 -0.993,26.433 -0.033,48.925c0.016,0.456 0.065,0.928 0.065,1.383c0,1.253 -0.212,2.018 -0.277,2.197c-0.83,2.816 -3.076,3.939 -3.467,4.134c-0.667,0.326 -0.944,0.391 -1.025,0.407c-1.074,0.228 -1.107,0.065 -2.148,0.293l0,0.016c-7.829,0.114 -69.237,2.165 -102.717,1.058c-0.146,0 -1.335,-0.049 -1.888,-0.146c-0.488,-0.098 -3.451,-0.684 -4.883,-3.89c-1.758,-3.939 -2.572,-24.284 -2.165,-40.69c0.993,-40.527 8.154,-48.65 10.14,-51.204c7.324,-9.44 16.309,-14.99 24.837,-18.213c-20.085,-13.655 -18.864,-38.737 -5.322,-55.796c7.422,-9.343 22.103,-18.148 45.767,-11.849c9.375,2.507 14.323,8.105 15.837,9.863c0.309,0.358 3.45,3.988 5.664,9.684c5.697,14.632 2.913,32.096 -1.156,38.184c-3.385,5.062 -7.455,8.545 -11.393,10.97c2.295,0.977 4.411,2.1 6.885,3.646c0.83,0.521 1.579,1.025 2.246,1.514c3.418,-4.004 9.733,-11.084 22.51,-24.626c3.988,-4.232 9.245,-10.189 17.545,-14.079l0.081,-0.033c-0.212,-16.65 -4.069,-57.538 1.888,-88.542c0.146,-0.749 0.114,-0.749 0.374,-1.465c1.025,-2.669 3.304,-3.532 3.695,-3.678c0.163,-0.065 0.96,-0.358 2.1,-0.407c2.441,-0.098 3.255,-0.016 58.075,-1.514c74.967,-2.051 92.221,-2.702 100.783,3.174c5.843,4.02 6.348,10.465 6.722,14.388c2.718,28.76 3.076,159.783 2.767,162.858c-0.033,0.391 -0.065,0.798 -0.146,1.188c-0.749,3.825 -3.792,5.225 -4.297,5.452c-1.107,0.505 -2.116,0.619 -2.311,0.651c-1.595,0.179 -3.109,-0.342 -39.323,-0.618c-16.715,-0.13 -69.533,0.146 -101.271,0.537c-9.635,0.114 -9.619,0.114 -19.255,0.146c-1.969,0 -1.969,0.033 -2.148,0.016c-0.033,0 -0.716,-0.163 -0.846,-0.179c-1.318,-0.081 -1.335,0.049 -2.604,-0.309c-0.684,-0.195 -4.834,-1.383 -5.957,-6.445c0,-0.016 -0.114,-5.062 0.521,-13.037c0.423,-5.29 0.977,-9.277 1.367,-12.402l-0.003,0.019Zm31.283,-52.492c4.167,8.089 2.523,19.889 -9.05,31.575c-4.769,4.817 -9.115,8.952 -13.037,12.565c0.179,0.521 0.244,0.944 0.277,1.091c0.505,3.027 -0.439,8.984 1.449,18.343c0.277,1.383 0.619,2.702 0.96,3.89c7.194,-0.163 18.034,-0.163 47.463,0.081c4.167,0.033 37.256,0.374 68,0.977c8.757,0.179 21.094,0.326 33.805,0.765c0.407,-32.275 0.488,-142.725 -2.018,-156.754c-0.13,-0.407 -0.114,-0.423 -0.277,-0.798c-3.857,-2.604 -25.391,-2.572 -46.108,-2.311c-24.43,0.309 -45.442,0.895 -99.413,1.807c-4.33,25.944 -2.148,58.95 -1.742,77.962l0.016,0.456c5.208,-0.26 9.863,1.058 13.525,3.499c3.776,-3.711 11.312,-11.067 26.807,-26.627l5.582,-5.599c3.597,-3.581 9.766,-5.013 11.947,-2.669c2.279,2.425 0.537,7.259 -0.993,8.561c-8.512,7.227 -28.125,24.512 -37.223,33.203l0.029,-0.017Zm85.775,-69.517c0.13,-0.228 3.711,-0.911 7.455,-0.928c3.467,-0.016 7.064,0.602 8.252,0.977c3.027,0.96 9.717,3.272 13.151,11.035c6.592,14.893 -7.292,34.115 -22.249,32.666c-18.343,-1.774 -25.114,-22.852 -16.764,-36.1c3.092,-4.899 7.536,-6.868 10.14,-7.65l0.016,0Zm14.47,12.305c-0.049,-0.049 -2.148,-1.79 -4.688,-2.311c-2.604,-0.537 -5.68,0.163 -6.478,0.749c-0.049,0.033 -2.702,1.644 -3.776,5.534c-1.416,5.078 0.439,13.59 8.122,14.307c0.57,0.049 3.011,0.277 6.299,-3.32c2.539,-2.783 5.404,-8.594 2.1,-13.037c-0.212,-0.293 -0.326,-0.57 -1.579,-1.904l0,-0.016Zm-20.361,96.338c-1.595,-0.033 -4.443,-0.081 -9.831,-0.081c-13.037,0 -13.037,0.016 -14.16,0.016c-0.977,0 -8.626,0 -12.288,-0.049c-2.018,-0.016 -4.036,-0.065 -6.038,-0.098c-1.188,-0.016 -23.438,-2.897 -23.861,-3.092c-0.098,-0.049 -0.814,-0.358 -1.253,-0.716c-1.953,-1.595 -0.391,-4.639 0.505,-7.503c1.107,-3.564 3.906,-9.684 10.384,-21.55c2.881,-5.273 17.269,-30.843 21.468,-34.766c2.1,-1.953 6.103,-3.223 9.782,0.993c3.272,3.76 11.638,17.838 19.173,31.006c3.971,-7.683 8.854,-17.432 9.652,-18.766c0.065,-0.114 0.472,-0.781 0.977,-1.253c1.921,-1.758 4.102,-1.221 4.46,-1.139c1.188,0.293 1.953,0.977 2.1,1.107c1.774,1.579 8.138,11.247 8.805,12.256c9.359,14.192 21.875,34.863 22.07,35.238c0.537,0.993 0.667,1.742 0.7,1.904c0.472,2.669 -1.009,4.46 -1.253,4.769c-0.195,0.244 -1.351,1.628 -3.434,2.018c-0.521,0.098 -1.595,0.13 -8.529,0.244c-10.693,0.179 -20.247,0.114 -22.022,0.098c-1.807,-0.016 -1.807,0.016 -3.613,-0.114c-0.277,-0.016 -2.1,-0.146 -3.499,-0.456l-0.293,-0.064Zm-56.396,-12.923c2.93,-0.472 35.303,-1.839 46.354,-1.66c-3.76,-7.21 -8.919,-17.041 -14.03,-26.465c-3.206,-5.925 -5.452,-9.896 -7.031,-12.581c-4.15,5.778 -10.514,15.202 -16.455,24.919c-0.781,1.27 -4.346,7.064 -7.243,12.581c-0.651,1.237 -1.172,2.295 -1.611,3.19l0.016,0.016Zm55.696,-13.362c3.63,6.445 6.608,11.8 7.992,14.323l0.26,0.016l19.238,0.423c-5.517,-9.847 -12.907,-22.803 -18.522,-31.478c-3.239,6.006 -6.201,11.719 -8.952,16.732l-0.017,-0.016Zm-154.604,27.213c-2.978,-2.49 -7.52,-3.809 -8.382,-4.085c-0.081,-0.033 -4.525,-1.66 -12.76,-2.23c-1.562,-0.114 -7.747,-0.439 -13.249,0.016c-16.195,1.335 -28.06,8.643 -35.14,18.327c-4.801,6.575 -7.455,31.836 -6.592,60.333c0.146,4.639 0.407,9.684 0.749,13.477c29.98,0.635 73.175,-0.586 90.558,-1.009c-0.602,-20.28 -0.049,-30.957 0.423,-45.542c0.212,-6.755 -0.065,-7.08 0.439,-10.238c2.474,-15.413 16.846,-22.396 41.26,-46.583c11.491,-11.393 9.424,-21.045 -0.83,-21.338c-10.319,-0.277 -19.71,9.798 -19.775,9.863c-4.199,4.118 -18.229,17.595 -26.742,27.458c-5.713,5.713 -9.896,1.66 -9.945,1.546l-0.015,0.005Zm-45.037,-71.825c-13.314,9.505 -20.654,32.227 -6.25,44.175c4.036,3.337 8.22,4.834 10.205,5.534c1.139,0.244 6.852,1.481 14.535,0.684c14.144,-1.481 19.141,-9.31 20.442,-11.295c1.904,-4.427 3.206,-16.52 -0.423,-25.83c-0.179,-0.439 -0.993,-2.881 -3.272,-6.071c-4.525,-6.315 -11.214,-7.861 -13.053,-8.285c-9.001,-2.034 -18.783,0.195 -22.184,1.091l0,-0.002Z"/></svg>