<?xml version="1.0" encoding="UTF-8" standalone="no"?><!DOCTYPE svg PUBLIC "-//W3C//DTD SVG 1.1//EN" "http://www.w3.org/Graphics/SVG/1.1/DTD/svg11.dtd"><svg width="100%" height="100%" viewBox="0 0 302 286" version="1.1" xmlns="http://www.w3.org/2000/svg" xmlns:xlink="http://www.w3.org/1999/xlink" xml:space="preserve" xmlns:serif="http://www.serif.com/" style="fill-rule:evenodd;clip-rule:evenodd;stroke-linejoin:round;stroke-miterlimit:2;"><path d="M216.318,225.981c-0.921,8.471 -1.533,14.75 -2.304,21.017c-1.134,11.388 -9.235,20.942 -20.283,23.925c-18.403,5.946 -37.837,8.031 -57.083,6.125c-12.129,-0.833 -24.425,1.021 -36.642,0.892c-20.171,-0.221 -40.383,-0.417 -60.496,-1.825c-20.272,-0.548 -36.588,-17.505 -36.354,-37.783c-1.454,-51.75 -2.812,-103.512 -3.154,-155.275c-0.192,-28.75 24.008,-67.621 62.163,-77.746c24.258,-6.438 48.683,-4.821 73.204,-3.987c6.994,0.568 14.028,0.435 20.996,-0.396c16.479,-2.8 31.933,1.25 47.5,5.396c6.807,1.679 11.601,7.877 11.517,14.888c1.225,15.717 1.804,31.483 2.542,47.233c0.204,4.383 0.113,8.783 0.025,13.171c-0.246,11.854 0.533,21.612 10.471,31.942c18.421,19.167 19.762,43.75 8.75,67.833c-3.479,7.604 -1.192,10.467 4.146,14.917c16.596,13.846 33.025,27.917 48.846,42.642c7.262,6.754 13.312,14.921 9.879,26.383c-3.479,11.621 -12.196,16.567 -22.983,19.125c-9.892,2.35 -16.904,-2.121 -22.662,-9.696c-10.242,-13.467 -20.55,-26.886 -30.925,-40.258c-1.867,-2.425 -3.929,-4.692 -7.15,-8.521Zm-202.142,-139.008c-0.417,3.804 -0.721,5.217 -0.679,6.621c1.425,47.662 2.675,95.338 4.45,142.988c0.554,14.837 8.475,23.146 23.425,24.629c13.946,1.379 28.037,1.667 42.083,1.733c19.242,0.096 38.521,0.121 57.725,-0.925c15.637,-0.913 31.208,-2.734 46.633,-5.454c4.662,-1.259 8.457,-4.666 10.208,-9.167c1.583,-9.659 2.47,-19.418 2.654,-29.204c-33.333,9.546 -61.004,5.188 -81.213,-21.558c-15.836,-19.563 -17.717,-47.116 -4.688,-68.65c19.367,-34.808 50.138,-44.775 87.996,-34.792c0,-18.913 0.071,-37.033 -0.058,-55.15c0.226,-3.514 -0.284,-7.037 -1.5,-10.342c-1.399,-3.406 -3.939,-6.222 -7.183,-7.963c-12.109,-4.469 -25.154,-5.802 -37.917,-3.875c-9.631,0.688 -19.297,0.73 -28.933,0.125c-12.787,-0.025 -25.571,0 -39.271,0l0,9.167c0.029,15.517 -0.2,31.037 0.2,46.542c0.221,8.721 -3.75,13.333 -11.979,14.167c-7.242,0.746 -14.554,0.975 -21.837,1.063c-13.383,0.158 -26.742,0.046 -40.117,0.046Zm107.829,71.621c0.05,27.241 22.43,49.651 49.671,49.738c30.312,0.417 57.679,-25.333 56.933,-54.929c-0.7,-27.917 -20.579,-48.333 -50.204,-48.996c-30.3,-0.513 -55.701,23.891 -56.4,54.188Zm-53.613,55.692c-6.7,0 -13.404,-0.108 -20.1,0.038c-5.029,0.112 -10.083,1.437 -9.375,7.654c0.683,6.025 5.867,6.012 10.858,5.942c9.583,-0.129 19.167,0.138 28.75,0.35c9.908,0.221 19.817,0.75 29.725,0.796c4.612,0 9.754,-1.446 8.621,-7.117c-1.573,-3.315 -4.704,-5.631 -8.333,-6.167c-13.362,-0.667 -26.775,-0.287 -40.171,-0.287l0.025,-1.208Zm-8.75,-25.225c5.811,-0.09 11.597,-0.789 17.262,-2.083c2.942,-0.954 4.763,-5.346 7.083,-8.188c-3.158,-1.667 -6.25,-4.554 -9.496,-4.754c-8.14,-0.261 -16.288,-0.084 -24.408,0.529c-2.894,-0.29 -5.812,0.248 -8.412,1.55c-2.444,2.082 -3.872,5.123 -3.912,8.333c0.229,1.85 4.479,4.263 7.113,4.512c4.91,0.113 9.822,-0.183 14.683,-0.883l0.088,0.983Zm138.75,-26.4c3.333,-1.029 7.821,-4.971 8.092,-7.942c0.538,-5.929 -5.092,-5.796 -9.583,-5.771c-5.988,0.033 -11.979,0 -18.588,0c0.524,-4.917 0.421,-9.88 -0.304,-14.771c-0.887,-3.146 -4.583,-5.492 -7.05,-8.196c-2.133,2.917 -5.417,5.563 -6.125,8.788c-0.627,5.227 -0.716,10.505 -0.267,15.75c-4.608,0 -8.625,-0.071 -12.642,0c-4.712,0.104 -10.242,-0.246 -10.363,6.446c-0.133,7.333 5.771,6.812 10.75,6.921c4.317,0.096 8.633,0.021 13.804,0.021c0.575,7.317 1.2,13.642 1.525,19.979c0.254,4.921 1.854,9.642 7.242,8.583c2.671,-0.521 5.833,-5.342 6.35,-8.613c0.606,-6.464 0.703,-12.966 0.292,-19.446c5.661,0.012 11.308,-0.575 16.846,-1.75l0.021,0Z" style="fill-rule:nonzero;"/></svg>