<svg width="100%" height="100%" xmlns="http://www.w3.org/2000/svg" data-name="Layer 1" viewBox="0 0 24 24"><path fill="none" stroke="#CB5928" stroke-miterlimit="10" stroke-width="1.5" d="M16.77 22.52a2.86 2.86 0 0 1 2.87-2.86 2.86 2.86 0 0 1 2.86 2.86"/><circle cx="19.64" cy="15.84" r="1.91" fill="none" stroke="#CB5928" stroke-miterlimit="10" stroke-width="1.5"/><path fill="none" stroke="#CB5928" stroke-miterlimit="10" stroke-width="1.5" d="M9.14 22.52A2.86 2.86 0 0 1 12 19.66a2.86 2.86 0 0 1 2.86 2.86"/><circle cx="12" cy="15.84" r="1.91" fill="none" stroke="#CB5928" stroke-miterlimit="10" stroke-width="1.5"/><path fill="none" stroke="#CB5928" stroke-miterlimit="10" stroke-width="1.5" d="M13 11.07a2.88 2.88 0 0 1 2.82-2.87 2.87 2.87 0 0 1 2.86 2.87"/><circle cx="15.82" cy="4.39" r="1.91" fill="none" stroke="#CB5928" stroke-miterlimit="10" stroke-width="1.5"/><path fill="none" stroke="#CB5928" stroke-miterlimit="10" stroke-width="1.5" d="M5.32 11.07A2.87 2.87 0 0 1 8.18 8.2a2.88 2.88 0 0 1 2.87 2.87"/><circle cx="8.18" cy="4.39" r="1.91" fill="none" stroke="#CB5928" stroke-miterlimit="10" stroke-width="1.5"/><path fill="none" stroke="#CB5928" stroke-miterlimit="10" stroke-width="1.5" d="M1.5 22.52a2.86 2.86 0 0 1 2.86-2.86 2.86 2.86 0 0 1 2.87 2.86"/><circle cx="4.36" cy="15.84" r="1.91" fill="none" stroke="#CB5928" stroke-miterlimit="10" stroke-width="1.5"/></svg>