<?xml version="1.0" encoding="UTF-8"?><svg id="Layer_1" xmlns="http://www.w3.org/2000/svg" width="520" height="520" viewBox="0 0 520 520"><defs><style>.cls-1{opacity:.15;}.cls-1,.cls-2,.cls-3{fill:#231f20;}.cls-1,.cls-2,.cls-3,.cls-4{stroke-width:0px;}.cls-2,.cls-5{opacity:.45;}.cls-4{fill:#242021;}</style></defs><path class="cls-3" d="m443.18,385.11c.92-.8,1.79-1.68,2.59-2.65.29-.35.52-.75.8-1.11,1-1.28,2.01-2.6,2.85-4.03.39-.63.69-1.3,1.04-1.95.43-.84.84-1.69,1.38-2.48.17-.25.31-.14.4.17.08.31.16.85.02,1.38-.47,1.91-1.22,3.72-2.27,5.41-.64,1-1.12,2.16-1.81,3.17-.74,1.12-1.58,2.2-2.5,3.2-.56.62-1.16,1.21-1.78,1.77-.95.85-1.98,1.59-3.02,2.32-.8.56-1.55,1.22-2.43,1.7-.19.11-.37.24-.58.32-.76.33-1.09.21-1.45-.4-.08-.14-.18-.28-.24-.42-.22-.49-.07-1.02.36-1.35,1.23-1.05,2.52-1.84,3.81-2.8.95-.71,1.88-1.47,2.78-2.3l.05.04Z"/><path class="cls-3" d="m112.57,154.35c-.27.05-.43-.23-.55-.67-.04-.14.04-.52.12-.57.17-.08.35-.16.52-.22.1-.04,1.71.02,2.27.1.55.03,1.06.19,1.57.35.51.18,1.02.37,1.52.59.49.24.97.49,1.44.79.21.13.4.27.56.46.56.63,1.2,1.14,1.85,1.67.11.09.2.2.37.22.33-.02,1.88,1.74,1.96,2.06.23.76.49,1.47.66,2.22.03.1.11.19.03.33-.19.33-.06.51,0,.73.1.3.13.61.12.94,0,.16-.13.35-.21.52-.08.16-.53.19-.59.16-.17-.09-.34.06-.52.12-.06.02-.14.04-.19.05-.06,0-.38-.3-.69-.59-.33-.29-.67-.56-.69-.63,0-.02-.3-.45-.61-.89-.35-.42-.73-.84-.82-.92-.09-.08-.1-.22-.14-.35,0-.08-1.23-1.19-1.29-1.23-.2-.29-.53-.43-.61-.87-.02-.08-.08-.12-.13-.17-.48-.36-.89-.82-1.36-1.23-.23-.21-.53-.34-.78-.52-.05-.03-.07-.1-.11-.15-.05-.06-.1-.12-.16-.16-.64-.39-1.25-.88-1.98-1.1-.15-.07-.86-.6-1.07-.63-.11-.03-.39-.44-.51-.41Z"/><path class="cls-3" d="m296.17,107.1c-.33-.12-.44-.52-.55-.91-.03-.13.09-.36.21-.36.26-.01.51-.02.7-.03.09-.03.61.13,1.23.31.59.22,1.28.45,1.61.61.65.28,1.21.72,1.78,1.13.55.46,1.09.94,1.62,1.44.48.54,1.03,1.04,1.45,1.63.2.26.37.53.51.82.23.51.44,1.02.7,1.5.24.49.47.99.74,1.47.09.16.13.35.3.47.12.11.51.85.75,1.66.28.8.42,1.64.43,1.84-.01.99-.03,1.96-.15,2.93-.02.14.03.29-.11.41-.32.29-.27.58-.31.87-.08.41-.15.81-.33,1.2-.09.19-.3.36-.48.52-.16.15-.6-.04-.65-.11-.12-.19-.36-.1-.56-.13-.07,0-.15-.02-.2-.04-.07-.03-.19-.54-.4-1.07-.18-.53-.43-1.05-.41-1.16,0-.01,0-.19-.03-.47-.04-.27-.08-.64-.14-1-.13-.74-.33-1.49-.4-1.64-.06-.16-.01-.34,0-.51,0-.04-.2-.59-.4-1.14-.23-.53-.46-1.07-.48-1.11-.15-.44-.41-.82-.37-1.35,0-.1-.05-.18-.1-.26-.39-.7-.71-1.44-1.1-2.17-.22-.35-.5-.67-.74-1-.04-.06-.06-.15-.1-.21-.05-.08-.09-.18-.16-.24-.66-.74-1.32-1.52-2.15-2.08-.21-.09-.91-1.06-1.16-1.19-.13-.08-.41-.61-.55-.64Z"/><path class="cls-3" d="m320.77,108.13c.3-.07.57.17.77.41.07.08.05.3-.03.35-.17.1-.34.2-.47.27-.05.04-.44.17-.85.37-.42.19-.84.48-1.04.64-.2.16-.39.31-.58.44-.2.12-.4.23-.59.35-.4.24-.78.5-1.15.8-.37.29-.74.56-1.1.86-.16.14-.33.24-.52.34-.66.32-1.19.85-1.63,1.46-.07.1-.17.19-.16.35,0,.26-1.21,1.89-1.44,2.07-.56.42-1.06.91-1.61,1.38-.08.07-.1.18-.26.18-.38,0-.46.21-.6.38-.2.23-.4.46-.66.66-.12.1-.35.13-.55.18-.18.05-.52-.26-.53-.32-.05-.19-.28-.21-.45-.3-.06-.03-.13-.07-.17-.1-.09-.07.17-2,.28-2.17.01-.02.32-.62.64-1.25.35-.62.72-1.26.81-1.41.07-.15.23-.23.37-.33.02-.07,1.3-1.88,1.4-1.92.35-.31.61-.71,1.14-.84.1-.02.16-.1.23-.16.58-.57,1.3-.98,2.01-1.38.37-.19.69-.46,1.08-.63.07-.03.15-.03.23-.05.09-.02.2-.03.28-.07.44-.21.91-.37,1.39-.5.47-.15.95-.25,1.43-.34.23-.04,1.34.08,1.59.08.15,0,.63.23.74.21Z"/><polygon class="cls-3" points="416.77 400.41 448.68 390.86 429.73 393.2 416.77 400.41"/><path class="cls-2" d="m276.99,370.72c-51.14,16-67.98-3.71-64.7-31.38,1.87-15.81,14.91-39.84,20.97-45.98l-23.81-4.31s-3.59-.75-5.47,11.37c-1.88,12.12-10,70.74-14.91,76.18-4.91,5.44-5.63,13.92-8.1,13.78-2.47-.14,91.16-1,91.16-1l4.85-18.66Z"/><path class="cls-1" d="m283.85,339.53c.02-.06,5.88,6.04,9.59-13.18.06-.3,2.39-10.61,0-12.07s-20.16-7.17-20.44-6.69,6.93,7.75,6.93,7.75c0,0-5.43-.92-7.21,1.13s2.47,6.27,2.47,6.27c0,0-4.66-.4-5.05,2.65l2.42,8.63s-1.74,1.91,1.3,3.93c3.04,2.02,9.99,1.58,9.99,1.58Z"/><path class="cls-1" d="m150.48,322.74s6.25-1.9,8.28-2.62,2.68-6.98,2.68-6.98c0,0,4.28-3.06,2.94-4.62-1.34-1.56-1.36-8.1-1.36-8.1l-9.28-4.64s8.99.18,8.69-2.27-11.25-4.46-11.25-4.46c0,0-15.46,6.3-19.35,13.57-3.89,7.27-7.44,22.72-8.02,26.19s-3.83,18.26-3.83,18.26c0,0,12.69,8.71,14.4,9.35s5.94-18.47,5.94-18.47c0,0,7.72-3.57,8.5-6.5s1.65-8.71,1.65-8.71Z"/><path class="cls-1" d="m169.38,193.52s8.8,14.04,10.19,27.07c1.39,13.04.23,31.97-5.38,37.44s-22.34,10.84-28.4,9.17-20.92-8.52-25.71-24.94c0,0-8.97,3.66-14.29-2.07-5.31-5.72-3.72-15.98,0-17.91s14.19,7.15,14.19,7.15c0,0,5.35-2.4,2.1-7.15-3.25-4.76-6.24-12.13-6.24-12.13,0,0,21.98-4.62,27.31-8.08,5.33-3.46,26.22-8.55,26.22-8.55Z"/><path class="cls-3" d="m264.25,391.13c.99.32,18.71,11.62,18.71,11.62v-3.76l-4.5-3.4,1.47-4.47h-15.68Z"/><path class="cls-3" d="m353.79,383c-.15-1.01-.34-2.02-.6-3.01-.09-.37-.25-.7-.35-1.06-.32-1.29-.66-2.59-1.17-3.82-.21-.56-.51-1.07-.77-1.6-.35-.67-.72-1.33-.93-2.1-.07-.24.04-.27.3-.2.24.08.75.21,1.09.52,1.16,1.17,1.89,2.63,2.42,4.16.3.92.82,1.8,1.12,2.74.34,1.03.62,2.09.86,3.15.15.65.27,1.31.39,1.96.19.99.26,2.01.43,2.99.11.77.34,1.51.47,2.28.03.17.08.33.1.5.06.64-.08.85-.63,1-.12.03-.25.08-.37.1-.42.07-.79-.17-.95-.6-.46-1.29-.69-2.63-.95-3.98-.21-1-.33-2.01-.53-3.02h.05Z"/><path class="cls-3" d="m347.77,390.49c-1.21,1.93.85,17.72,3.66,19.76,4.73,3.43,5.56-10.8,5.12-14.38s-.53-8.66-.53-8.66l-8.24,3.28Z"/><path class="cls-3" d="m346.76,388.98c.76-.22,1.52-.45,2.27-.67.27-.08.52-.22.8-.29.99-.23,2-.38,2.98-.58.43-.1.86-.22,1.29-.32.52-.22,1.15-.08,1.74-.05.19.02.18.09.08.27-.1.18-.28.54-.52.84-.86,1.01-1.95,1.18-3.06,1.41-.68.1-1.27.51-1.91.73-.71.26-1.42.52-2.13.77-.44.17-.87.33-1.3.52-.64.29-1.32.53-1.92.9-.47.29-.84.7-1.25,1.06-.09.08-.17.18-.26.25-.36.26-.57.18-1-.35-.1-.12-.2-.24-.3-.36-.31-.43-.38-.89-.17-1.2.61-.92,1.5-1.52,2.43-2.04.69-.4,1.45-.66,2.19-.95l.03.06Z"/><path class="cls-3" d="m450.19,362.56c.07-2.72-.08-5.47-.43-8.22l-.46-3c-.47-3.54-1.19-7.07-2.02-10.59-.4-1.55-.85-3.1-1.31-4.63-.62-1.95-1.23-3.89-1.86-5.87-.19-.61-.11-.55.19-.09.3.46.89,1.3,1.44,2.36.96,1.88,1.88,3.8,2.7,5.76.75,1.99,1.41,4.01,1.9,6.09.52,2.5,1.27,5.07,1.72,7.66.47,2.85.68,5.75.72,8.65,0,1.79-.08,3.58-.27,5.36-.29,2.7-.93,5.38-1.88,7.92-.74,1.97-1.61,3.89-2.86,5.63-.28.38-.52.78-.86,1.12-.6.65-1.04,1.03-1.43,1.2-.38.18-.68.18-1.02.07-.15-.05-.32-.09-.44-.17-.41-.27-.16-1,.57-1.89,2.08-2.72,3.65-5.85,4.53-9.33.63-2.58.96-5.29.99-8.03h.06Z"/><path class="cls-3" d="m400.46,336.2c-.28-1.14-.61-2.28-1.02-3.39-.14-.41-.38-.78-.53-1.18-.55-1.43-1.14-2.86-1.8-4.27-.28-.63-.7-1.19-1.02-1.79-.46-.75-.94-1.49-1.18-2.41-.08-.28-.01-.29.28-.22.21.05.43.11.6.15.15.04.28.08.4.12.07.02.13.05.21.07.05.04.1.08.16.12,1.5,1.19,2.61,2.72,3.38,4.45.41,1.06,1.07,2.03,1.56,3.07.53,1.15.98,2.34,1.38,3.53.25.74.47,1.48.69,2.23.32,1.13.53,2.3.83,3.42.1.44.25.87.41,1.3.11.44.21.87.3,1.32.04.19.09.38.1.59.02.75-.15,1-.68,1.21-.12.05-.24.11-.36.14-.4.11-.8-.15-1.08-.63-.41-.71-.78-1.43-1.12-2.15-.24-.74-.43-1.5-.64-2.25-.31-1.13-.62-2.26-.92-3.39l.07-.03Z"/><path class="cls-3" d="m322.34,250.2c1.25-.8,2.45-1.7,3.64-2.64.43-.35.82-.73,1.25-1.09,1.51-1.24,2.93-2.6,4.46-3.86.65-.59,1.28-1.2,1.89-1.83.78-.8,1.57-1.6,2.4-2.35.26-.23.28-.16.15.13-.13.28-.36.8-.73,1.34-.67.94-1.33,1.88-2.04,2.78-.71.9-1.42,1.83-2.29,2.6-1.06.9-2.02,1.99-3.09,2.94-1.18,1.04-2.39,2.04-3.7,2.93-.79.57-1.62,1.08-2.46,1.58-.64.36-1.28.74-1.96,1.04-.66.34-1.34.62-2.02.9-1.06.43-2.11.85-3.23,1.11-.25.06-.48.16-.73.18-.94.12-1.26-.02-1.48-.37-.05-.08-.12-.16-.15-.25-.1-.28.24-.58.85-.81,1.83-.57,3.58-1.36,5.37-2.17,1.31-.64,2.6-1.37,3.84-2.21l.03.04Z"/><path class="cls-3" d="m308.02,243.88c-.38.57-5.76,12.03-.61,13.15,5.15,1.12,7.81-3.57,7.81-3.57l-7.2-9.58Z"/><path class="cls-1" d="m229.97,194.59s5.24,12.94,12.09,15.3c6.85,2.37,10.95-.66,10.95-.66,0,0,5.03-14.95,1.97-20.79-3.07-5.84-5.11-7.09-5.11-7.09l-19.9,13.24Z"/><path class="cls-1" d="m253.15,184.47c-4.38-5.34,22.61-20.62,26.58-19.75,5.45,1.2,7.37,19.11,4.86,23.39s-7.69,9.13-16.61,7.96c-3.05-.4-11.28-7.26-14.84-11.6Z"/><path class="cls-3" d="m254.15,120.03c-12.09,8.28-29.85,43.15-24.18,47.88,7.36,6.13,23.04-9.12,23.04-9.12,0,0,19.73-14.53,23.96-14.92s7.67-1,9.16,3.11,9.01,26.58,11.96,25.58,3.21-6.43,5.6-11.31c2.39-4.88,3.74-9.65,9.14-7.4s10.5,8.1,10.9,11.61-3.59,13.55-3.59,13.55c0,0,5.05,17.71,8.57,17.29s17.94-7.81,21.74-13.01c3.8-5.2,8.19-15.38,8.19-15.38,0,0-8.87-16.82-9.04-17.29s-8.22-20.06-10.96-23.47-12.51-11.41-17.3-10.89c-4.79.52-15.52,6.2-15.52,6.2,0,0-9.11-9.65-15.32-10.68s-16.09-.52-19.64.59-16.71,7.67-16.71,7.67Z"/><path class="cls-3" d="m288.83,290.72c0,1,0,2.01-.03,3,0,.36.02.73,0,1.09-.13,1.28-.26,2.56-.38,3.83-.06.56-.06,1.13-.12,1.69-.04.72-.2,1.43-.38,2.14-.06.22-.1.19-.19,0-.08-.19-.27-.55-.37-.96-.38-1.47-.34-2.89-.26-4.35.07-.87-.09-1.77-.15-2.66l-.12-2.93c-.03-.6-.06-1.2-.12-1.8-.08-.91-.16-1.82-.34-2.71-.14-.69-.4-1.35-.63-2.01-.05-.15-.12-.29-.16-.43-.09-.56.02-.77.55-1.01.11-.05.22-.11.33-.15.35-.13.81.01,1.05.4.4.57.58,1.21.78,1.85.19.65.32,1.31.39,1.99.12,1,.16,2.02.21,3.03h-.05Z"/><path class="cls-3" d="m272.87,378.95c.71-1.59,1.37-3.21,1.96-4.85.23-.6.37-1.22.59-1.82.74-2.13,1.47-4.27,2.11-6.44.29-.96.5-1.95.71-2.93.11-.63.28-1.25.46-1.87.17-.62.4-1.23.69-1.82.25-.36.26-.3.43.08.09.19.18.46.28.77.11.32.18.69.16,1.06l-.06,1-.03.5-.1.49c-.13.65-.28,1.29-.43,1.94-.32,1.29-.68,2.56-1.12,3.83-.53,1.51-.91,3.13-1.41,4.68-.56,1.71-1.19,3.39-1.86,5.06-.41,1.03-.85,2.04-1.3,3.05-.67,1.54-1.45,3.03-2.16,4.53-.57,1.16-1.04,2.35-1.62,3.51-.12.26-.23.51-.39.76-.55.91-.86,1.11-1.46.99-.14-.03-.28-.04-.4-.09-.42-.16-.49-.71-.22-1.42.8-2.11,1.94-4.12,2.94-6.25.76-1.56,1.51-3.15,2.18-4.77l.05.02Z"/><path class="cls-3" d="m271.33,322.74c-.24-.51-.48-1-.64-1.52-.06-.19-.18-.34-.22-.53-.17-.68-.21-1.38-.18-2.06,0-.3-.05-.58-.02-.87.01-.37.09-.74.3-1.07.06-.1.17-.06.33.04.15.11.4.27.51.43.44.56.71.98.79,1.55.02.36.3.64.48.94.21.33.37.7.59,1.04.13.22.27.42.43.62.25.28.49.59.82.76.27.13.6.11.9.11.06,0,.14-.02.19-.01.19.07.12.39-.1,1.07l-.15.47c-.18.51-.46.91-.8,1.08-.93.28-1.7-.12-2.24-.66-.42-.39-.74-.88-1.05-1.34l.05-.05Z"/><path class="cls-3" d="m273.29,333.12c-.56-.4-1.12-.81-1.67-1.26-.2-.17-.44-.25-.63-.44l-.49-.5c-.15-.19-.28-.39-.42-.58-.14-.18-.25-.41-.37-.61-.12-.2-.23-.41-.32-.63-.19-.36-.33-.75-.48-1.12-.06-.25-.13-.5-.17-.76,0-.26-.02-.52.14-.76.1-.15.22-.12.47,0,.28.12.62.28.7.47.35.69.83,1.09,1.28,1.71.29.36.78.55,1.2.83.47.3.96.62,1.49.89.32.18.65.34.99.5.52.21,1.03.51,1.59.64.44.11.93.03,1.39.07.1.02.2.01.3.05.35.15.39.39.23,1.09-.04.16-.07.32-.11.47-.15.52-.45.91-.77,1.04-.24.09-.47.18-.7.24-.22.01-.42,0-.64-.02-.42-.05-.83-.18-1.25-.33-.62-.2-1.2-.58-1.79-.91l.03-.07Z"/><path class="cls-3" d="m273.53,341.54c-.99-.44-2.08-.95-2.98-1.95-.31-.39-.69-.7-.9-1.19-.22-.39-.29-.85-.39-1.26-.01-.42-.08-.85,0-1.22.06-.37.09-.73.26-1.2.16-.43.42-.78.69-1.07.48-.51,1-.88,1.56-1.12.68-.33,1.44-.58,2.22-.35.24.07.21.3.09.63-.14.31-.31.86-.55,1.08-.47.33-.84.76-1.09,1.05-.14.13-.24.24-.32.32-.04.04-.07.07-.1.11-.02.04-.07.04-.09.19-.2.61.11,1.04.41,1.36.34.38.91.81,1.63,1.15.45.19.94.38,1.45.51.78.2,1.6.36,2.43.42.65.03,1.29-.15,1.94-.25.14-.02.28-.07.43-.08.53.06.69.33.79,1.12.02.18.05.36.06.54.04.6-.2,1.11-.61,1.38-.3.22-.61.33-.93.42-.32.09-.63.17-.96.22-.65.09-1.32.14-1.99.06-1-.14-2.01-.42-3.06-.78l.02-.08Z"/><path class="cls-3" d="m239.1,286.42s5.29,5.02,2.96,5.14c-4.73.26,28.8-4.45,28.8-4.45l-31.75-.7Z"/><path class="cls-3" d="m138.53,339.87c.02.28.06.56.07.85,0,.1.06.19.05.29-.01.37-.04.74-.04,1.1,0,.16.03.31.06.45.05.18.13.36.03.59-.03.07-.28.13-.55.15-.27.02-.58.02-.66-.07-.26-.31-.48-.62-.41-1.04.03-.25-.15-.43-.22-.65-.09-.23-.12-.49-.17-.74-.03-.15-.06-.31-.11-.46-.07-.23-.11-.47-.24-.67-.1-.15-.32-.25-.49-.36-.04-.02-.08-.05-.1-.08-.08-.13.04-.23.51-.51l.32-.19c.37-.21.71-.31.89-.27.57.1.71.45.86.79.1.26.15.54.22.8l-.05.02Z"/><path class="cls-3" d="m127.77,353.61c-.91-.51-1.81-1.04-2.68-1.6-.32-.2-.67-.34-.99-.56-1.1-.77-2.12-1.65-3.11-2.54-.46-.38-.91-.75-1.37-1.12-.26-.28-.56-.51-.77-.83-.22-.32-.39-.68-.56-1.03-.1-.23.05-.31.36-.35.31-.03.86-.09,1.28.04.39.1.71.26,1.02.44.34.14.58.4.85.62.54.45,1.07.92,1.6,1.42.63.62,1.48.96,2.24,1.43.84.51,1.69,1.01,2.56,1.47.54.28,1.08.57,1.64.81.84.38,1.69.77,2.58,1.03.69.19,1.41.22,2.12.29.16.02.31.01.47.04.57.11.69.34.63,1.07-.01.17-.02.33-.04.5-.08.55-.44.94-.91.98-1.4.13-2.76-.25-4.08-.74-.98-.37-1.93-.82-2.87-1.29l.02-.06Z"/><path class="cls-3" d="m144.84,365.75c0-1.1-.14-2.2-.5-3.15-.13-.36-.34-.65-.51-.96-.67-1.08-1.94-1.97-3.3-2.57-.61-.27-1.26-.49-1.9-.71-.41-.14-.83-.26-1.24-.44-.4-.19-.79-.41-1.17-.64-.24-.15-.18-.19.08-.22.25-.02.73-.09,1.23-.04.88.13,1.72.38,2.6.6.87.24,1.76.55,2.6,1.04.98.6,2.07,1.2,2.84,2.29.79,1.15,1.14,2.45,1.35,3.7.11.77.18,1.55.21,2.32.03,1.17-.07,2.32-.14,3.46-.04.89,0,1.77-.04,2.66-.01.2,0,.39-.04.59-.11.72-.33.92-.97.93-.15,0-.29.01-.43,0-.48-.05-.81-.41-.85-.93-.16-1.53.02-3.03.08-4.56.05-1.13.08-2.25.05-3.36h.05Z"/><path class="cls-3" d="m162.42,281.58c1.19-.04,2.37-.28,3.53-.63.41-.16.79-.38,1.21-.53,1.41-.64,2.87-1.35,4.04-2.47.25-.25.5-.51.73-.78.2-.29.39-.59.6-.88.27-.37.42-.8.66-1.19.13-.19.18-.41.3-.62.12-.2.24-.4.37-.62.17-.26.27-.2.4.09.07.15.15.36.23.62.09.26.14.58.07.87-.41,2.14-1.75,4.05-3.49,5.29-.55.34-1.02.79-1.57,1.14-.56.34-1.09.74-1.69.98l-.98.43-1.02.33c-.67.24-1.38.34-2.07.5-.42.11-.87.1-1.29.16-.43.04-.86.1-1.3.08-.66,0-1.31.03-1.96-.08-.65-.07-1.3-.13-1.93-.26-1-.12-1.99-.27-3.01-.47-.22-.06-.43-.11-.65-.19-.78-.31-.95-.59-.76-1.33.04-.17.08-.34.14-.5.21-.54.71-.84,1.25-.78,1.6.23,3.11.51,4.66.68.58.05,1.16.12,1.74.12.29,0,.59.04.88.02l.88-.07v.07Z"/><path class="cls-3" d="m165.37,265.2s-1.92,7.67-10.76,8.05c-11.46.5-24.6-11.3-24.6-11.3,0,0,17.43,5.38,22.3,5.64,4.88.26,13.05-2.39,13.05-2.39Z"/><path class="cls-3" d="m135.17,153.84c13.19-.1,33.17,7.84,40.02,34.36,0,0-20.55,13.25-40.8,18.47-20.25,5.22-18.54,3.49-18.54,3.49,0,0,7.66,12.44,7.5,15.52-.16,3.08-1.63,4.72-3.36,3.76-1.73-.96-6.79-8.27-9.24-7.15s-6.12.91-7.29,5.05c-1.16,4.14-1.92,10.1,2.34,12.86,4.26,2.76,4.67,5.29,9.48,3.68,4.81-1.61,9.5,10.92,9.5,10.92l12.06,16.14s-54.87,15.04-60.81,19.03c-5.94,4-11.39,4.45-12.62,2.21s-6.49-39.25-6.49-39.25c0,0,2.56-42.47,5.86-51.51,3.3-9.04,12.14-25.46,16.68-29.47,4.54-4.01,12.09-9.55,20.37-10.4s15.72-1.03,18.59,0,5.87-.29,5.87-.29c0,0,5.48-7.36,10.88-7.4Z"/><path class="cls-3" d="m261.78,287.44c-1.87.12-3.75.24-5.63.28-1.88.08-3.76.1-5.65.11-1.37.04-2.75.07-4.12.04-4.85-.16-9.69-.53-14.47-1.33-1.07-.13-2.12-.34-3.18-.53-1.05-.21-2.12-.35-3.15-.61-1.33-.32-2.67-.61-4-.95-1.32-.39-2.59-.92-3.86-1.43-.79-.33-.58-.59.22-.73.79-.13,2.2-.28,3.7.04,2.67.54,5.34,1.04,8.04,1.39,1.33.27,2.69.42,4.04.62l2.03.3,2.05.23c.82.09,1.65.19,2.48.24.84.02,1.68.05,2.53.07,1.69.06,3.4-.03,5.09-.03,1.86,0,3.72-.11,5.59-.15,1.86-.11,3.73-.19,5.59-.33,2.3-.15,4.6-.32,6.89-.55,3.48-.33,6.98-.67,10.42-1.13,2.68-.36,5.29-.88,7.93-1.31.58-.1,1.15-.22,1.74-.29,1.09-.15,1.83-.16,2.35-.03.52.12.84.35,1.11.7.12.16.28.32.36.48.26.54-.58,1.14-2.15,1.59-4.67,1.01-9.63,1.69-14.66,2.28-3.73.44-7.5.79-11.28,1.1v-.07Z"/><path class="cls-3" d="m468.89,392.94c-3.19-.09-6.38-.17-9.58-.2-1.17-.01-2.33.1-3.5.07-4.12-.09-8.24-.16-12.36-.3-1.83-.04-3.67.01-5.48.08-1.17.05-2.34.05-3.51.04-1.17,0-2.35-.09-3.51-.47-.73-.31-.62-.61,0-1.27.31-.33.75-.7,1.27-1.08.52-.34,1.13-.54,1.8-.63,1.18-.12,2.36-.25,3.54-.33,1.18-.05,2.37-.08,3.55-.09,2.37-.02,4.76-.02,7.16.19,2.87.23,5.85-.04,8.78-.05,3.23-.01,6.46.02,9.69.06l5.97.09c3.02.04,6.04.16,9.04.17,2.33,0,4.63-.19,6.99-.19.52,0,1.03-.03,1.56,0,1.95.13,2.57.56,2.77,1.67.05.26.12.52.13.77.01.85-.86,1.43-2.17,1.48-3.96.23-8.21.24-12.5.19-3.2-.04-6.41-.08-9.62-.12v-.1Z"/><path class="cls-3" d="m246.1,204.62c-.08.3-.11.61-.15.92-.02.17-.03.35-.02.53.02.47.09.97.25,1.41.22.6.47,1.09.88,1.57.18.21.42.38.64.54s.52.29.79.38c.06.02.12.04.18.05.2.04.43.08.64.08.46,0,.81-.11,1.21-.33.34-.18.68-.54.87-.87.24-.42.33-.85.35-1.33.02-.29-.04-.61-.09-.88-.02-.15-.06-.29-.11-.44-.14-.4-.31-.79-.56-1.13-.18-.25-.37-.5-.6-.71s-.46-.38-.7-.55c-.26-.17-.56-.29-.85-.4-.15-.06-.31-.11-.47-.14-.25-.08-.5-.09-.75-.03-.25.01-.48.09-.7.22-.39.23-.76.67-.86,1.12-.11.48-.09,1.02.19,1.44.25.39.65.78,1.12.86.16.03.32.08.47.14l-.45-.19c.2.09.39.2.56.33l-.38-.29c.17.14.33.29.46.47l-.29-.38c.12.17.23.34.31.53l-.19-.45c.08.19.14.39.17.59l-.07-.5c.02.16.03.31.01.47l.07-.5c-.01.07-.03.14-.05.21l.19-.45c-.02.05-.05.1-.09.15l.29-.38s-.06.07-.1.1l.38-.29s-.07.05-.12.06l.45-.19s-.08.02-.13.03l.5-.07c-.06,0-.11,0-.17,0l.5.07c-.09-.01-.17-.04-.25-.07l.45.19c-.12-.05-.23-.12-.34-.2l.38.29c-.09-.08-.18-.16-.25-.25l.29.38c-.13-.17-.23-.36-.31-.56l.19.45c-.11-.27-.19-.54-.22-.83l.07.5c-.03-.27-.03-.54,0-.81l-.07.5c.02-.13.04-.25.07-.38.12-.48.06-1.02-.19-1.44-.23-.39-.67-.76-1.12-.86-.48-.11-1.02-.09-1.44.19s-.74.64-.86,1.12h0Z"/><path class="cls-3" d="m266.3,192.12c-.04.47.03.96.14,1.41s.3.9.54,1.29c.54.92,1.4,1.69,2.42,2.03.05.02.1.02.15.03.16.03.38.07.55.07.23,0,.47-.03.69-.1.61-.18,1.03-.58,1.39-1.08s.51-1.16.56-1.78c.01-.15.01-.3,0-.45-.03-.31-.07-.64-.18-.93-.1-.27-.21-.56-.38-.8s-.35-.51-.58-.71c-.48-.42-1.04-.76-1.67-.9s-1.3-.16-1.93.04c-.46.14-.87.44-1.12.86s-.33.99-.19,1.44.43.89.86,1.12.96.34,1.44.19c.1-.03.19-.05.29-.07l-.5.07c.16-.02.31-.02.47,0l-.5-.07c.17.02.34.07.5.13l-.45-.19c.16.07.31.15.45.26l-.38-.29c.11.09.21.19.3.31l-.29-.38c.09.12.16.25.22.39l-.19-.45c.06.15.1.31.13.48l-.07-.5c.02.16.02.33,0,.49l.07-.5c-.02.16-.06.32-.13.48l.19-.45c-.05.11-.1.21-.17.31l.29-.38c-.05.06-.09.11-.15.16l.38-.29s-.07.05-.11.06l.45-.19s-.06.02-.09.03l.5-.07c-.05,0-.1,0-.15,0l.5.07c-.09-.01-.16-.04-.24-.07l.45.19c-.17-.08-.32-.18-.47-.29l.38.29c-.2-.16-.38-.34-.53-.54l.29.38c-.16-.22-.3-.45-.4-.7l.19.45c-.1-.24-.16-.48-.2-.73l.07.5c-.03-.21-.03-.42-.02-.62.03-.46-.23-1.01-.55-1.33s-.86-.57-1.33-.55-.99.18-1.33.55l-.29.38c-.17.29-.25.61-.26.95h0Z"/><path class="cls-3" d="m232.09,203.71l-.76-.96-.69-1.03c-.48-.66-.84-1.44-1.25-2.16-.19-.38-.34-.79-.51-1.19l-.24-.6-.18-.66c-.09-.38-.34-1-.26-1.65v-.95s0-.47,0-.47v-.03s0,0,0,0c.23.08.07.02.12.04h0s0-.02,0-.02l.02-.05.05-.1c.04-.07.06-.13.1-.2.26-.37.42-.79.8-1.11l.74-.7c.41-.38.83-.77,1.27-1.11,3.1-2.45,6.38-4.6,9.77-6.59,1.5-.88,2.99-1.82,4.56-2.58.49-.27,1-.51,1.51-.74.52-.22,1-.51,1.56-.65.55-.16,1.1-.3,1.65-.43.56-.11,1.16-.11,1.72-.16.72-.02.68.29.26.91-.43.61-1.14,1.67-2.13,2.34-.88.59-1.83,1.05-2.73,1.61-.91.55-1.8,1.12-2.75,1.63-1.87,1.04-3.75,2.12-5.65,3.24-2.28,1.33-4.33,3.19-6.37,4.91l-.76.65c-.1.08-.21.16-.31.27,0,.13,0,.26,0,.4,0,.1.11.44.18.75.39,1.23.98,2.52,1.79,3.68.45.75,1.03,1.41,1.56,2.11.62.62,1.18,1.32,1.87,1.88,1.99,1.78,4.3,3.29,6.82,4.05,1.95.67,4,.52,5.88.26.42-.1.82-.22,1.23-.3,1.5-.43,2.09-.21,2.75.51.15.17.33.32.45.49.4.55-.09,1.34-1.38,2.1-.48.26-1.01.4-1.54.53-.53.14-1.08.27-1.63.39-.56.04-1.12.08-1.69.1l-.86.03c-.28-.02-.57-.06-.85-.09-.57-.07-1.14-.14-1.71-.22l-1.66-.45c-.56-.14-1.09-.35-1.61-.58-.52-.23-1.06-.43-1.56-.7-3-1.56-5.54-3.78-7.66-6.32l.06-.06Z"/><path class="cls-3" d="m255.62,207.55c-.22,1.08-.4,2.17-.46,3.2-.07,1.03,0,2.03.22,2.8.04.13.1.25.14.38l.18.29c.08.07.12.15.2.23.1.07.17.19.26.25.3.27.64.45,1.1.51.46.06,1.04.02,1.64-.15,1.21-.35,2.47-1.08,3.59-1.97,1-.79,1.94-1.72,2.74-2.73.52-.65.99-1.33,1.44-2.02.46-.68.95-1.35,1.34-2.06.23-.43.53-.35.77.22.23.55.41,1.66.05,2.7-1.52,3.5-3.86,6.71-7.69,8.42-1.14.48-2.4.99-3.93,1-1.52.04-3.18-.69-4.15-1.85-1.2-1.37-1.44-2.92-1.56-4.27-.1-1.37.02-2.65.19-3.9.22-1.54.57-3.02.94-4.49.56-2.22,1.32-4.37,1.97-6.51.51-1.66.86-3.36,1.35-5.02.11-.37.18-.74.31-1.1.48-1.35.93-1.66,1.92-1.56.22.02.46.03.67.08.7.17,1.06.94.88,1.95-.53,3-1.5,5.98-2.37,8.97-.65,2.22-1.28,4.44-1.66,6.64h-.09Z"/><path class="cls-3" d="m325.72,199.97c-.37,1.35-.76,2.69-1.2,4.02-.15.48-.23.99-.43,1.46-.65,1.68-1.44,3.3-2.27,4.88-.38.7-.78,1.38-1.18,2.06-.25.44-.56.85-.85,1.26-.32.4-.76.7-1.13,1.03-.25.2-.28.11-.24-.19.04-.3.07-.87.21-1.41.16-.47.36-.9.52-1.34.15-.46.31-.91.47-1.35.13-.47.29-.91.51-1.34.18-.44.37-.89.59-1.32.5-1.06.66-2.29.93-3.45.31-1.28.62-2.57.87-3.87.15-.8.31-1.61.41-2.42.17-1.23.34-2.47.33-3.7-.02-.96-.26-1.9-.47-2.83-.04-.2-.12-.41-.15-.61-.1-.76.2-1.01,1.18-1.22.23-.05.45-.11.68-.14.76-.12,1.41.18,1.7.78.72,1.78.62,3.71.41,5.59-.18,1.4-.47,2.79-.78,4.16h-.08Z"/><path class="cls-3" d="m139.31,345.57c-.37.92-.72,1.85-1.03,2.81-.11.35-.15.71-.27,1.06-.41,1.23-.79,2.47-1.14,3.72-.17.55-.27,1.12-.37,1.68-.06.36-.11.73-.18,1.09-.11.36-.26.7-.45,1.05-.18.2-.25.16-.48-.07-.21-.23-.54-.64-.65-1.08,0-1.51.03-3.04.57-4.49.29-.87.34-1.83.53-2.74.21-1.01.47-2.01.75-3,.17-.61.37-1.22.56-1.83.28-.92.64-1.83.91-2.76.22-.72.29-1.49.49-2.24.04-.17.05-.34.12-.51.29-.58.58-.66,1.28-.41.16.06.32.1.48.17.52.23.82.68.82,1.12-.03,1.3-.49,2.44-.91,3.67-.31.91-.67,1.83-.96,2.78h-.06Z"/><path class="cls-3" d="m158.88,265.42c2.96-.57,5.81-1.7,8.32-3.36,2.52-1.66,4.69-3.85,6.41-6.38.35-.44.61-.94.88-1.43.27-.49.56-.97.81-1.48l.68-1.55c.24-.51.46-1.03.65-1.56,2.94-7.49,3.52-15.95,2.58-24.16-.41-3.66-1.16-7.31-2.11-10.85-.64-2.27-1.29-4.54-2-6.8-.67-2.27-1.48-4.5-1.89-6.88-.32-1.46-.12-1.33.71-.3.88,1.01,2.53,2.88,3.5,5.49,3.64,9.14,5.78,19.11,5.23,29.23-.2,3.01-.46,6.09-1.11,9.14-.62,3.03-1.42,6.12-2.83,8.95-1.5,3.12-3.52,6.03-6.05,8.44-2.52,2.41-5.54,4.3-8.78,5.51-4,1.48-8.31,2.03-12.49,1.69l-2.37-.25-2.34-.43c-1.55-.33-3.06-.73-4.57-1.21-3-.97-5.9-2.28-8.56-3.97-4.12-2.64-7.65-6.1-10.33-10.14-.59-.89-1.18-1.75-1.69-2.69-1-1.72-1.45-2.96-1.66-3.86-.2-.91-.17-1.49,0-2.01.08-.24.13-.53.23-.69.36-.55,1.38.74,2.89,3.06,1.01,1.78,2.17,3.48,3.37,5.14,1.24,1.64,2.58,3.18,4.02,4.62,1.48,1.41,3.07,2.68,4.78,3.8,1.73,1.09,3.59,2,5.51,2.77,5.81,2.17,12.2,3.33,18.16,2.06l.02.08Z"/><path class="cls-3" d="m83.02,312.19c2.73-4.17,5.59-8.26,8.67-12.2,3.1-3.92,6.38-7.71,9.91-11.28,2.63-2.55,5.22-5.16,8.19-7.37,5.16-3.92,10.89-7.36,17.29-9.13l2.4-.64c.81-.17,1.64-.27,2.45-.41l1.25-.19c.23-.06.6-.03.9-.03.31.06.62.1.92.22,1.02.37,1.69.8,2.42,1.22,2.77,1.72,5.31,3.45,8.05,4.91,4.8,2.61,10.08,4.44,15.43,4.66,1.71.08,3.43,0,5.13-.24,1.63-.17,3.1-.72,4.49-1.58,1.38-.85,2.59-2.01,3.59-3.33.5-.66.97-1.36,1.41-2.08.41-.74.8-1.5,1.07-2.3.65-2.01.91-1.8,1.03.22.03,1-.08,2.46-.61,4.2-.58,1.69-1.72,3.57-3.5,5.15-1.59,1.35-3.5,2.49-5.65,3.01l-.81.19c-.26.06-.49.07-.74.11-.49.06-.97.15-1.46.18-.98.1-1.96.13-2.95.15-3.94,0-7.86-.74-11.53-2-3.69-1.24-7.09-3.1-10.27-5.09l-4.61-2.97c-.37-.23-.72-.44-1.06-.62-.17-.09-.31-.16-.46-.23-.07-.03-.11-.04-.11-.05-.02-.01-.04-.02-.07-.03-.07,0-.05-.03-.19-.01l-.6.08-1.29.18c-4.11.62-8.18,2.19-11.98,4.32-3.83,2.1-7.33,4.86-10.67,7.72-3.67,3.17-7.1,6.65-10.28,10.37-3.18,3.72-6.22,7.58-9.01,11.63-3.46,4.96-6.68,10.11-9.65,15.4-4.51,8-8.55,16.34-11.94,24.81-2.61,6.6-4.67,13.26-6.42,20.01-.38,1.49-.68,2.96-1.05,4.46-.3,1.4-.59,2.55-.82,3.51-.22.97-.42,1.74-.65,2.37-.47,1.26-.87,1.96-1.43,2.51-.25.25-.51.59-.74.73-.38.23-.62-.26-.74-1.35-.06-.55-.1-1.25-.09-2.09.02-.83.15-1.79.29-2.86,2.07-12.68,6.59-25.44,12.09-37.74,2.07-4.56,4.3-9.06,6.67-13.49,2.41-4.41,4.94-8.76,7.63-13.02l.09.04Z"/><path class="cls-3" d="m187.33,276.22c.76.89,1.53,1.77,2.26,2.7.26.34.58.63.82.99.88,1.24,1.68,2.54,2.41,3.87.35.57.66,1.17.98,1.75.18.39.37.77.54,1.16.15.4.26.82.34,1.24.05.27-.19.31-.53.21-.33-.11-.79-.33-1.05-.71l-.72-.97c-.24-.32-.52-.62-.73-.95-.45-.66-.9-1.32-1.34-2.02-.51-.84-1.32-1.51-2.02-2.23l-2.34-2.41c-.49-.49-.98-.99-1.5-1.46-.78-.72-1.55-1.46-2.38-2.11-.65-.5-1.42-.85-2.14-1.28-.16-.09-.33-.16-.48-.27-.55-.4-.57-.71-.1-1.45.11-.17.21-.35.33-.51.41-.54.98-.78,1.47-.6,1.44.53,2.63,1.46,3.78,2.51.84.78,1.64,1.64,2.46,2.49l-.05.05Z"/><path class="cls-3" d="m146.1,332.01c.25-.3.52-.59.73-.92l.33-.49c.07-.15.17-.28.24-.45.3-.65.49-1.45.61-2.32.09-.64.05-1.31.1-1.99.1-1.21.18-2.48.39-3.8.21-1.31.57-2.72,1.42-3.97.73-1.11,1.84-2,3.01-2.45,1.49-.56,3.05-.93,4.49-.17.45.2.37.28,0,.62-.37.3-.99,1.25-1.65,1.46-.6.17-1.16.37-1.63.62-.46.26-.82.55-1.14.82-.63.55-1.04,1.45-1.44,2.68-.47,1.47-.28,3.26-.39,5.07-.06,1-.17,2.04-.43,3.1-.12.53-.31,1.07-.53,1.6-.24.55-.54,1-.82,1.45-.75,1.1-1.67,2.05-2.68,2.85-1.53,1.24-3.3,2.03-5.03,2.73-1.35.54-2.67,1.12-4.07,1.53-.31.09-.6.21-.92.27-.58.12-.98.12-1.27-.03-.29-.18-.47-.45-.63-.84-.07-.18-.16-.35-.21-.53-.08-.29-.01-.57.16-.86.17-.28.45-.59.83-.71,2.23-.88,4.5-1.48,6.55-2.47,1.5-.74,2.88-1.64,3.9-2.84l.06.05Z"/><path class="cls-3" d="m142.78,293.46s-14.24-10-15.42-12.06c-.72-1.26,2.35-3.25,3.29-3.31,1.82-.11,17.74,12.36,17.74,12.36l-5.61,3.01Z"/><path class="cls-3" d="m184.94,315l-19.73-14.58.94,3.27-.66,3.98,16.07,11.42c.62.41,6.03,1.11,6.03,1.11,0,0-1.96-4.77-2.64-5.2Z"/><path class="cls-3" d="m194.96,350.01c.94-4.65,1.71-9.37,2.42-14.1.27-1.72.41-3.47.68-5.2l1.41-9.16c.51-3.05,1.02-6.1,1.56-9.15.48-2.7.82-5.44,1.34-8.12.55-3.46,1.31-6.89,2.38-10.24.37-1.04.43-.88.57.09.17.97.42,2.74.3,4.75-.43,7.13-1.65,14.1-2.83,21.18-.79,4.22-1.18,8.68-1.77,13.04-.65,4.79-1.37,9.59-2.2,14.38l-.81,4.42-.93,4.4c-1.03,4.43-2.23,8.85-3.81,13.1-.29.83-.58,1.66-.86,2.49-.32.81-.65,1.63-.97,2.44-.33.81-.61,1.64-.98,2.43l-1.15,2.37c-.35.69-.63,1.4-1.03,2.07-1.53,2.46-2.26,3.09-3.29,3.12-.23,0-.49.05-.69,0-.67-.15-.5-1.43.4-3.24,2.71-5.36,5.09-11.14,6.87-17.22,1.38-4.49,2.44-9.15,3.33-13.85h.08Z"/><path class="cls-3" d="m276.23,372.15c.58-2.22,1.17-4.45,1.6-6.73.16-.83.24-1.67.39-2.51.58-2.93,1.12-5.9,1.56-8.89.17-1.33.36-2.66.5-3.99.11-.85.14-1.71.31-2.55.19-.84.45-1.68.81-2.5.23-.51.31-.43.56.06.18.32.36.67.54,1,.2.41.37.88.44,1.38.03.22.08.44.09.66v.65s-.02,1.31-.02,1.31c-.01.87-.04,1.75-.08,2.62-.14,1.74-.45,3.48-.8,5.22-.44,2.08-.51,4.29-.86,6.44-.4,2.36-.84,4.72-1.41,7.05-.33,1.44-.76,2.86-1.13,4.29-.33,1.07-.66,2.14-1.01,3.21-.37,1.06-.73,2.12-1.1,3.17-.3.81-.54,1.64-.78,2.47l-.84,2.45c-.12.36-.24.72-.41,1.07-.3.65-.59,1.03-.89,1.24-.33.19-.67.22-1.1.15-.2-.03-.4-.04-.57-.1-.3-.09-.49-.33-.6-.67-.11-.35-.17-.82-.03-1.29.42-1.42.85-2.85,1.38-4.26.45-1.44,1-2.86,1.45-4.33.72-2.16,1.35-4.37,1.92-6.61l.08.02Z"/><path class="cls-3" d="m273.64,288.79c-5.51,1.18-11.07,2.13-16.65,2.9-2.04.28-4.07.63-6.11.83-7.22.69-14.5.89-21.74.49-3.22-.16-6.44-.46-9.61-.9-2.03-.3-4.08-.57-6.08-1.09-1.99-.53-3.95-1.21-5.82-2.09-1.16-.55-.96-.59.15-.58.56,0,1.35-.01,2.3-.05.94-.02,2.02.02,3.17.13l1.52.15c.5.08,1,.15,1.51.22,1,.14,2.01.25,3.02.36,2.02.21,4.04.36,6.08.45,4.06.26,8.15.44,12.28.47,4.95.05,10.07-.63,15.1-1.26,5.53-.7,11.05-1.62,16.52-2.75,3.37-.68,6.74-1.43,10.09-2.26l5.65-1.43,3.16-.81c.67-.16,1.37-.34,1.9-.25.27.05.5.08.76.2h.02s0,.02,0,.02h0c-.05.07.07-.09.06-.07h0s.02.05.02.05l.05.08c.03.05.05.12.08.18l.15.37c.22.82.25,1.81.29,2.77.02.71.03,1.42.05,2.13.04,4.1,0,8.14-.54,12.21-.12.9-.21,1.78-.4,2.68-.16.83-.33,1.52-.54,2.08-.2.56-.36,1.01-.57,1.36-.45.69-.88,1.02-1.41,1.22-.24.09-.49.23-.7.25-.69.08-.86-1.38-.52-3.68.51-3.19.87-6.47,1.03-9.84.1-1.68.13-3.37.13-5.07,0-.85-.01-1.7-.04-2.55-.02-.61-.02-.35-.02-.41h0s0,0,0,0c0,0,0,0,0,0l-1.94.52-4.1,1.07c-2.75.7-5.51,1.37-8.28,2l-.03-.09Z"/><path class="cls-3" d="m282.9,317.85c-2.11-1.38-4.31-2.76-6.57-4.14l-.84-.53-1.4-.93c-.96-.67-1.85-1.41-2.37-2.13-.55-.73-.76-1.35-.8-2.06-.01-.35.1-.83.34-1.16.12-.16.25-.3.38-.44.15-.12.3-.25.46-.35.98-.57,2.24-.91,3.83-.84.79.04,1.59.11,2.43.28.56.11,1.01.21,1.51.35,3.4.97,6.54,2.37,9.55,4.12,1.49.91,2.93,1.91,4.25,3.29.33.37.65.73.93,1.25.14.21.28.59.35.82l.16.67c.11.45.21.89.25,1.34.04.45.13.9.12,1.34.13,3.19-.64,6.21-1.54,9.05-.61,1.82-1.3,3.6-2.08,5.34-.82,1.72-1.7,3.39-2.65,5.03-.6,1.02-.56.87-.38-.13.16-1.01.44-2.89,1.01-4.99,1.18-3.62,2.28-7.26,2.57-10.8.12-1.76.14-3.48-.23-5.07l-.15-.59-.07-.28s-.02-.04-.02-.07c-.09-.17-.28-.44-.54-.71-.51-.55-1.22-1.11-1.94-1.63-1.76-1.23-3.79-2.34-5.91-3.2-1.06-.44-2.14-.82-3.23-1.15-.54-.16-1.09-.31-1.63-.45l-1.14-.26c-.42-.08-.91-.16-1.39,0-.11.05-.25.09-.29.21-.04.12.02.23.08.32.13.19.3.35.48.5.18.16.38.31.59.46l.6.42.8.54c1.06.73,2.19,1.38,3.29,2.08,1.32.82,2.65,1.64,3.97,2.54.66.46,1.31.92,1.97,1.49.33.3.65.59.99,1.09.15.26.39.61.33,1.27-.03.33-.21.65-.4.86-.19.2-.37.31-.54.4l-.5.26-.57-.32c-.07-.04-.11-.07-.2-.12-.95-.5-2.09-1-3.18-1.45-1.11-.46-2.25-.84-3.39-1.21-1.14-.36-2.29-.68-3.44-.93-.28-.06-.59-.12-.84-.16-.16-.03-.34-.05-.51-.07-.34-.03-.69-.05-1.02.02-.14.04-.28.11-.34.24-.21.48.15.98.45,1.3.17.17.34.33.51.46.28.24.62.5.95.73,1.34.96,2.8,1.8,4.28,2.62.71.38,1.41.75,2.13,1.13,2.66,1.44,3.45,2.12,3.59,3.18.03.24.1.51.07.71-.13.67-1.35.5-3.41-.43-2.17-1-4.37-2.1-6.56-3.45-.55-.34-1.09-.69-1.63-1.09-.27-.19-.54-.4-.81-.61l-.4-.33-.51-.45c-.87-.84-1.64-1.79-1.97-2.76-.19-.48-.22-.95-.22-1.43.02-.48.2-.93.4-1.4.25-.31.46-.6.72-.83.28-.21.6-.37.97-.49.36-.13.8-.17,1.23-.22.47,0,.93,0,1.42.06.24.02.48.04.73.08l.62.1.79.16c.52.11,1.03.23,1.54.37,1.65.43,3.23.95,4.82,1.51.8.26,1.59.53,2.39.83.4.15.8.31,1.21.48.43.19.79.36,1.37.72l-1.73.72c.13.31.36.54.42.58.1.06.07,0-.17.04-.07.02-.26.06-.38.13-.15.07-.36.16-.52.28-.21.11-.51.33-.41.27l-.03-.04c-.12-.16-.44-.44-.76-.7-.67-.53-1.47-1.06-2.27-1.58l.04-.07Z"/><path class="cls-3" d="m271.82,329.18c-.35-.22-.71-.46-1.06-.74-.2-.15-.29-.24-.61-.5-.26-.24-.5-.5-.72-.77-.89-1.05-.99-2.46-.29-3.51.23-.29.47-.55.79-.75.45-.26.93-.49,1.49-.59.25-.07.59-.12.8-.13.19-.02.37-.02.56-.03,1.3.12,2.45.44,3.59.77,1.14.32,2.25.66,3.34,1.05.97.34,1.94.67,2.89,1.04,1.21.47,2.45,1,3.43,1.94.3.29.19.33-.19.29-.37-.06-1.05-.06-1.74-.26-2.39-.84-4.91-1.36-7.39-1.95-.74-.18-1.52-.23-2.29-.24-.38,0-.76.01-1.13.05-.18.02-.36.04-.54.04h-.42c-.2.02-.46.04-.64.2-.16.15-.19.42-.07.61.05.1.12.2.2.29.04.05.08.09.13.13.08.08.18.17.28.24.77.62,1.7,1.18,2.64,1.7,1.43.78,2.93,1.52,4.44,2.19,1.18.52,2.39.92,3.59,1.46.26.12.53.22.79.36.48.26.76.52.9.77.12.28.11.54.04.83-.03.13-.05.27-.1.38-.08.19-.26.28-.52.33-.25.04-.61.07-.94-.07-2.02-.73-4.17-1.62-6.36-2.61-1.62-.75-3.27-1.5-4.93-2.49l.03-.06Z"/><path class="cls-3" d="m273.81,339.45c-.63-.33-1.22-.73-1.86-1.21-.91-.69-1.56-1.66-1.54-2.69,0-.19.05-.38.08-.56.23-.78.81-1.42,1.63-1.74.81-.33,1.23-.35,1.72-.42.48-.06.94-.09,1.4-.11.92-.03,1.81-.02,2.7-.01.79.02,1.57-.04,2.34-.07l1.48-.05h.37s.37.08.37.08c.24.06.48.12.74.18.31.09.3.29.07.63-.12.17-.29.39-.5.61-.11.11-.23.22-.35.33-.06.05-.13.09-.2.15-.07.02-.14.04-.21.06-2.05.44-4.04.32-6,.26-.59-.02-1.18.04-1.73.16-.25.06-.58.15-.74.21-.09.03-.19.07-.29.11-.13.06-.26.18-.26.34.02.36.15.57,1.01,1.08.67.36,1.41.66,2.18.89,1.16.36,2.39.64,3.6.77.95.09,1.9-.05,2.8-.19.2-.04.39-.09.58-.12.7-.11.89.08,1.2.84.07.17.15.34.21.51.22.54-.05,1.19-.72,1.43-1.95.66-3.95.51-5.88.1-1.43-.34-2.83-.84-4.23-1.52l.02-.06Z"/><path class="cls-3" d="m294.3,238.48c-3.89-.06-8.03.25-12.24.06l-2.32-.11c-.77-.07-1.55-.14-2.32-.25-2.75-.48-5.27-1.25-7.82-2.14-2.53-.9-5-1.98-7.36-3.27-2.09-1.14-4.12-2.44-6-3.88-2.32-1.96-4.47-4.22-5.87-6.91-.45-.83-.24-.81.48-.37.42.26.9.57,1.43.9.29.18.62.37.93.59.31.23.62.47.95.72.56.47,1.12.92,1.72,1.33.57.44,1.18.82,1.79,1.21l1.78,1.19c.61.37,1.21.76,1.83,1.11,2.48,1.41,5.06,2.73,7.79,3.83,3.26,1.32,6.96,2.02,10.44,2.41,3.9.43,7.92.19,12.06.07,2.54-.06,5.16-.05,7.78.37,1.98.34,3.96.92,5.77,1.9.46.22.87.53,1.31.79l.65.41.62.49c.82.66,1.51,1.4,2.17,2.16,2,2.37,3.62,4.87,5.05,7.52.31.59.63,1.15.91,1.76,1,2.26.99,3.13.23,3.93-.18.18-.34.4-.53.53-.67.43-1.51-.28-2.32-1.78-1.21-2.22-2.45-4.48-3.84-6.61-1.38-2.12-2.89-4.15-4.66-5.26-2.86-1.96-6.46-2.58-10.37-2.58v-.09Z"/><path class="cls-3" d="m284.57,163.85c.61-.2,1.24-.42,1.85-.66.22-.1.41-.25.64-.32.84-.25,1.68-.5,2.51-.79.37-.11.71-.29,1.04-.47.42-.23.84-.5,1.38-.52.17,0,.32.33.4.74.08.41.11.92-.08,1.13-.69.7-1.32,1.45-2.33,1.67-.58.16-1,.64-1.51.96-.57.33-1.19.6-1.8.9-.38.18-.76.35-1.13.53-.56.28-1.17.5-1.7.85-.42.26-.74.71-1.13,1.07-.08.08-.16.19-.26.25-.09.05-.17.08-.25.08-.08,0-.17-.08-.25-.15-.16-.15-.33-.42-.53-.82l-.26-.52c-.25-.55-.35-1.23-.24-1.64.45-.9,1.13-1.25,1.87-1.62.55-.27,1.15-.48,1.73-.75l.04.07Z"/><path class="cls-3" d="m348.36,140.87c1.43,3.72,2.74,7.45,4.15,11.07.71,1.81,1.44,3.59,2.26,5.32.81,1.73,1.68,3.4,2.7,4.92.3.49.65.91.98,1.36.16.23.34.44.53.64l.66.74c.1.15.26.26.31.45l.3.45c.17.31.25.68.33,1.03.04.36.07.74.07,1.08l-.08.86c-.17,1.02-.43,1.94-.77,2.78-1.03,2.57-2.36,4.85-3.8,7.05-1.46,2.18-3.06,4.25-4.79,6.2-3.47,3.88-7.48,7.37-12.18,9.82-1.55.77-3.15,1.48-4.85,1.97-.41.14-.85.22-1.28.33-.43.11-.85.21-1.29.26-.44.05-.87.14-1.31.17l-.66.04-.33.02c-.15,0-.3.05-.45,0-.89.11-1.71-.71-2.18-1.19-.45-.47-.84-.95-1.21-1.44-1.8-2.4-3.25-4.97-4.38-7.71-.55-1.38-.96-2.82-1.25-4.28-.13-.74-.24-1.48-.28-2.23-.04-.75.11-1.51.22-2.25.16-.92.35-1.29.4-1.25.08.04.05.49.2,1.24.37,1.53,1.41,4.01,2.79,6.81.87,1.89,1.89,3.73,3.06,5.45.58.86,1.21,1.69,1.85,2.44.32.37.65.73.97,1.02.11.09.06.07.07.07h0s0-.03,0,.06c.03-.11.01-.02.06-.05l.3-.03.6-.06,1.2-.22c.8-.16,1.6-.32,2.38-.59,1.58-.49,3.13-1.16,4.62-2,2.99-1.66,5.77-3.86,8.33-6.33,2.44-2.37,4.64-5.14,6.48-8.11.92-1.49,1.77-3.02,2.45-4.6.36-.78.64-1.57.9-2.35.1-.38.24-.78.3-1.13.09-.34.12-.76.14-.92.02-.19-.04-.38-.17-.52l-.89-1.02-.89-1.19c-.55-.81-1.11-1.62-1.58-2.46-.99-1.66-1.81-3.38-2.58-5.1-1.54-3.44-2.82-6.93-4.11-10.39-1.71-4.58-3.42-9.13-5.59-13.4-1.64-3.24-3.53-6.35-5.92-9-1.19-1.32-2.48-2.54-3.93-3.54-.7-.54-1.47-.95-2.22-1.39-.38-.21-.79-.37-1.18-.56-.39-.19-.79-.37-1.21-.5-1.27-.47-2.58-.8-3.91-.99l-1-.13-.5-.06h-.46c-.6-.03-1.24.06-1.86.15-2.53.46-5.01,1.58-7.33,2.92-1.01.61-1.98,1.24-2.94,1.93-1.78,1.28-2.87,2.2-3.68,2.78-.84.56-1.46.8-2.09.93-.29.06-.63.19-.88.2-.41,0-.48-.44-.19-1.38.32-.89,1.02-2.24,2.34-3.51,1.91-1.93,4.1-3.58,6.53-4.92,2.43-1.33,5.09-2.42,8.17-2.86l1.19-.1c.41-.01.84.01,1.26.02.82.04,1.47.18,2.22.28,1.44.25,2.89.6,4.29,1.13,2.81,1.01,5.42,2.6,7.66,4.53,1.66,1.44,3.15,3.03,4.42,4.75,1.3,1.7,2.44,3.48,3.45,5.3,2.05,3.64,3.64,7.41,5.14,11.16l-.09.05Z"/><path class="cls-3" d="m450.67,368.84c.67-3.45.57-7.19.17-10.9l-.42-2.79c-.12-.93-.31-1.86-.51-2.78l-.59-2.78-.73-2.76c-1.98-7.35-4.77-14.53-8-21.5-2.37-5.08-5.07-10.01-7.85-14.89-9.88-17.15-22.05-33.07-36.34-46.84-6.36-6.08-13.25-11.69-20.45-16.6l-1.73-1.2-1.78-1.12-3.56-2.23c-1.2-.73-2.44-1.38-3.65-2.08-1.23-.67-2.42-1.42-3.68-2.03-2.5-1.27-4.97-2.6-7.51-3.76-2.51-1.25-5.03-2.46-7.54-3.78-3.14-1.63-2.75-1.38.22-.81.74.14,1.65.29,2.72.42,1.11.02,2.23.41,3.49.73,1.25.35,2.63.72,4.06,1.21,1.43.49,2.85,1.2,4.35,1.9,10.56,5.13,20.29,11.81,29.23,19.36,4.5,3.75,8.71,7.83,12.82,12l3,3.21,1.5,1.61,1.44,1.66,2.88,3.32,2.78,3.41c8.81,10.91,17.19,22.92,24.01,35.55,3.73,6.95,7.06,14.13,9.79,21.55.67,1.86,1.36,3.71,1.92,5.62l.89,2.84.77,2.88c.56,1.9.89,3.88,1.33,5.81l.47,2.96c.07.49.16.98.22,1.48l.13,1.5c.11,1.23.24,2.46.21,3.71l.02,1.87c0,.62-.09,1.25-.13,1.88-.06.63-.1,1.25-.18,1.88l-.38,1.87-.19.94c-.08.31-.2.61-.31.91l-.65,1.82c-2.12,4.69-5.58,8.45-9.32,11.62-5.75,4.78-12.28,8.38-18.97,11.44-6.69,3.08-13.61,5.53-20.57,7.68-10.83,3.28-21.66,5.87-32.83,7.27-2.46.3-4.88.57-7.39.7-9.31.43-12.4-.61-14.17-1.92-.4-.31-.94-.65-1.14-.92-.63-.99,2.96-.55,9.49-.72,9.71-.19,19.74-1.79,29.71-3.97,9.97-2.23,19.98-5.12,29.58-9,7.1-2.89,14.06-6.26,20.25-10.59,3.07-2.18,5.95-4.6,8.3-7.38,2.35-2.79,4.09-5.86,4.71-9.29h.09Z"/><path class="cls-3" d="m156.81,210.65c-.25,2.12-.04,4.52.56,6.82.12.42.25.83.39,1.24.16.4.32.8.46,1.22,1.03,2.88,2.6,5.61,4.77,7.82.46.51,1.02.91,1.55,1.35.58.36,1.13.78,1.75,1.04.77.41,1.59.69,2.41.99.42.11.84.24,1.26.37.43.1.86.18,1.29.36.54.2.47.42-.04.75-.26.16-.64.39-1.11.52-.47.16-1.01.15-1.59.09-2.05-.28-4.01-1.12-5.72-2.29-1.72-1.15-3.18-2.66-4.26-4.38-1.31-2.03-2.66-4.13-3.54-6.42-.96-2.52-1.55-5.14-1.63-7.9-.06-1.69.23-3.41.76-5.06.39-1.26,1.13-2.41,1.96-3.45.92-.98,1.98-1.83,3.19-2.39,1.85-.91,3.88-1.37,5.9-1.32.45-.02.88.01,1.32.07.83.09,1.33.33,1.64.6.31.27.43.61.44,1.09,0,.22.03.44,0,.65-.1.7-.85,1.1-1.85,1.07-1.49.01-2.9.04-4.19.33-1.28.28-2.41.81-3.29,1.62-.68.58-1.17,1.38-1.6,2.25-.17.46-.38.91-.47,1.43-.15.49-.2,1.02-.26,1.56h-.09Z"/><path class="cls-3" d="m145.09,221.48c-.06.27-.12.57-.09.85s.04.59.15.85c.1.24.19.53.35.76.15.2.32.47.53.64s.43.37.67.49.52.25.79.3c.22.03.45.08.67.08s.47-.05.7-.09c.27-.05.55-.18.78-.3s.45-.31.65-.48c.21-.18.38-.43.53-.65s.26-.52.34-.74c.1-.27.12-.57.15-.85s-.03-.58-.08-.83c-.05-.27-.18-.53-.3-.77-.25-.48-.67-.85-1.11-1.14-.23-.16-.52-.26-.78-.35s-.59-.12-.86-.14c-.29-.02-.59.04-.86.09s-.54.18-.78.32c-.25.13-.45.32-.6.55-.19.21-.31.45-.38.72-.09.28-.1.56-.04.85.01.28.1.55.25.79l.33.43c.27.26.58.45.94.55l.56.08c.38,0,.74-.1,1.07-.29.04-.02.07-.04.11-.06l-.51.21c.08-.03.16-.05.24-.06l-.56.08c.09-.01.18-.01.27,0l-.56-.08c.11.01.21.04.31.08l-.51-.21c.09.04.18.09.26.15l-.43-.33c.07.06.14.12.19.19l-.33-.43c.05.07.09.14.12.21l-.21-.51c.03.07.05.15.06.22l-.08-.56c.01.09,0,.18,0,.26l.08-.56c-.01.09-.04.17-.07.25l.21-.51c-.04.1-.1.19-.16.28l.33-.43c-.06.08-.13.15-.21.21l.43-.33c-.07.05-.15.1-.23.13l.51-.21c-.08.03-.17.06-.25.07l.56-.08c-.07,0-.14,0-.22,0l.56.08c-.09-.01-.18-.04-.26-.07l.51.21c-.08-.04-.16-.08-.23-.14l.43.33c-.08-.06-.15-.13-.21-.21l.33.43c-.06-.08-.11-.17-.15-.26l.21.51c-.03-.08-.06-.17-.07-.26l.08.56c-.01-.08-.01-.16,0-.24l-.08.56s0-.05.01-.08c.09-.28.1-.56.04-.85-.01-.28-.1-.55-.25-.79-.13-.25-.32-.45-.55-.6-.21-.19-.45-.31-.72-.38l-.56-.08c-.38,0-.74.1-1.07.29l-.43.33c-.26.27-.45.58-.55.94h0Z"/><path class="cls-3" d="m144.34,219.31c.27-.29.56-.55.87-.8l-.34.26c.53-.4,1.11-.74,1.72-1l-.4.17c.71-.3,1.46-.5,2.22-.6l-.45.06c.15-.02.3-.03.46-.05.45-.04.86-.16,1.18-.49.29-.29.51-.77.49-1.18-.04-.85-.74-1.75-1.68-1.68-2.42.2-4.78,1.14-6.45,2.94-.6.64-.68,1.74,0,2.37s1.73.68,2.37,0h0Z"/><path class="cls-3" d="m161.06,216.31c-.17.16-.32.34-.42.55-.09.18-.18.37-.24.57,0,.01,0,.03,0,.04l-.08.56s0,.02,0,.04c-.03.46.15.98.36,1.37s.59.76.98,1c.1.06.23.1.32.14s.22.11.33.13c.44.1.61.1,1.01.05s.52-.08.95-.3c.22-.11.41-.28.58-.43.38-.33.59-.79.76-1.25.02-.06.04-.13.05-.2.03-.21.07-.42.08-.63,0-.04,0-.08,0-.11-.02-.21-.04-.52-.12-.75-.07-.2-.16-.41-.25-.6-.02-.04-.04-.07-.06-.11-.31-.49-.63-.78-1.1-1.1-.07-.05-.15-.09-.23-.13-.24-.11-.49-.23-.75-.3-.28-.09-.56-.1-.85-.04-.28.01-.55.1-.79.25-.25.13-.45.32-.6.55-.19.21-.31.45-.38.72l-.08.56c0,.38.1.74.29,1.07l.33.43c.27.26.58.45.94.55.07.02.13.04.19.07l-.51-.21c.12.05.23.12.34.19l-.43-.33c.08.06.15.13.22.21l-.33-.43c.06.07.1.15.14.24l-.21-.51c.03.07.05.13.06.21l-.08-.56c0,.07,0,.13,0,.2l.08-.56c-.01.08-.03.15-.06.22l.21-.51c-.03.07-.07.13-.11.19l.33-.43s-.08.09-.12.12l.43-.33s-.08.06-.13.08l.51-.21s-.1.03-.15.04l.56-.08s-.08,0-.12,0l.56.08s-.07-.02-.11-.03l.51.21s-.08-.04-.12-.07l.43.33s-.08-.07-.11-.11l.33.43s-.07-.1-.09-.15l.21.51s-.03-.1-.04-.15l.08.56s0-.08,0-.13l-.08.56s.01-.06.02-.09l-.21.51s.03-.05.05-.08l-.33.43s.03-.04.05-.06c.21-.19.35-.42.44-.68.13-.25.19-.53.18-.82.01-.29-.05-.57-.18-.82-.09-.26-.23-.49-.44-.68l-.43-.33c-.33-.19-.69-.29-1.07-.29l-.56.08c-.36.1-.67.28-.94.55h0Z"/><path class="cls-3" d="m161.51,213.71c.08-.04.17-.08.25-.11l-.4.17c.43-.17.86-.29,1.32-.35l-.45.06c.53-.07,1.07-.06,1.6.01l-.45-.06c.51.07,1.01.19,1.49.39l-.4-.17s.03.01.05.02c.42.19.83.3,1.29.17.39-.11.81-.41,1-.77.21-.39.31-.86.17-1.29-.13-.39-.38-.82-.77-1-.62-.28-1.26-.48-1.93-.58s-1.3-.15-1.97-.08c-.9.1-1.68.32-2.49.7-.36.17-.67.63-.77,1-.11.4-.06.93.17,1.29s.57.67,1,.77c.46.11.86.03,1.29-.17h0Z"/><path class="cls-3" d="m147.08,244.32c1.56,4.8,7.51,7.09,12.13,5.53.84-.28,1.48-1.18,1.19-2.09-.27-.83-1.19-1.49-2.09-1.19-.45.15-.89.25-1.36.33.45-.08.03,0-.06,0-.13.01-.26.02-.39.02-.22,0-.43,0-.65,0-.26,0-.52-.03-.78-.06.22.03.21.03,0,0-.11-.02-.21-.04-.32-.06-.49-.11-.95-.3-1.43-.43-.2-.06.28.14,0,0-.12-.06-.23-.11-.35-.17-.21-.11-.41-.22-.61-.35s-.39-.25-.57-.39c.22.17.09.07-.04-.05-.08-.07-.15-.14-.23-.21-.16-.16-.31-.33-.47-.49-.24-.25.17.27-.04-.04-.06-.08-.12-.17-.17-.25-.12-.19-.23-.38-.33-.59-.05-.1-.15-.44-.03-.05-.04-.12-.08-.23-.12-.35-.27-.84-1.19-1.48-2.09-1.19-.84.27-1.48,1.19-1.19,2.09h0Z"/><path class="cls-3" d="m149.55,206.77c-5.51-1.1-11.15-.92-16.05,2.13-1.91,1.19-.15,4.22,1.77,3.02,2.1-1.31,4.44-2.11,6.91-2.28,2.24-.16,4.32.08,6.44.5.93.18,1.89-.26,2.15-1.22.24-.86-.29-1.97-1.22-2.15h0Z"/><path class="cls-3" d="m282.5,221.33c2.8-.32,5.49-1.33,7.53-3.32s3.16-5.04,2.95-8c-.07-1-.84-1.97-1.92-1.92-.98.04-2,.85-1.92,1.92.02.33.03.66.03.99,0,.18-.01.36-.03.54v.13c-.04.22-.03.18,0-.12.08.11-.14.73-.17.88-.07.28-.16.55-.26.82-.15.4-.1.03,0-.01-.06.03-.17.36-.21.43-.13.24-.27.48-.42.71-.07.1-.13.19-.2.29-.22.31.29-.33-.02.02-.18.2-.36.4-.55.59-.18.18-.37.34-.56.5-.16.13-.12.1.12-.09-.06.05-.12.09-.19.14-.09.07-.19.13-.29.2-.46.3-.94.55-1.44.79-.36.17.37-.14.03-.01-.15.06-.29.11-.44.16-.26.09-.53.17-.79.24s-.54.13-.81.19c-.12.02-.23.04-.35.06-.35.06.48-.05-.08.01-1,.11-1.98.8-1.92,1.92.04.95.85,2.05,1.92,1.92h0Z"/><path class="cls-3" d="m261.25,165.11c3.32-3.06,7.76-4.57,12.31-4.28,1.08.07,2-.97,2-2,0-1.14-.92-1.93-2-2-5.54-.36-11.08,1.69-15.14,5.45-.79.73-.74,2.09,0,2.83.79.79,2.03.74,2.83,0h0Z"/><path class="cls-3" d="m234.98,182.84c.24-.41.48-.82.75-1.21.12-.18.24-.36.37-.53.08-.11.15-.21.23-.31.22-.29-.19.24-.04.05.59-.72,1.2-1.42,1.87-2.06.33-.31.67-.61,1.02-.9.08-.07.17-.14.25-.2.05-.04.1-.08.15-.12.12-.09.07-.05-.15.11.02-.1.43-.32.52-.38.78-.55,1.59-1.04,2.44-1.47.93-.48,1.28-1.86.72-2.74-.61-.95-1.74-1.23-2.74-.72-3.69,1.88-6.8,4.89-8.85,8.48-.52.91-.24,2.23.72,2.74s2.18.25,2.74-.72h0Z"/><path class="cls-3" d="m398.92,330.62c.77,1.17,1.56,2.35,2.32,3.57.28.45.61.84.86,1.32.88,1.64,1.62,3.41,2.14,5.23.27.79.4,1.63.6,2.44.06.53.14,1.07.18,1.6.02.27-.04.54-.12.8-.08.27-.16.53-.25.78-.12.32-.3.25-.59-.03-.15-.14-.33-.33-.53-.55-.1-.11-.2-.22-.29-.34-.05-.06-.08-.12-.14-.18-.01-.06-.03-.13-.04-.19-.1-.46-.24-.9-.33-1.35-.13-.44-.31-.87-.44-1.31-.16-.43-.33-.86-.47-1.31-.14-.45-.35-.89-.49-1.35-.18-.55-.53-1.06-.84-1.57-.35-.5-.74-.98-1.08-1.48-.79-1.09-1.55-2.23-2.4-3.34l-1.55-2.06c-.8-1.04-1.56-2.13-2.39-3.15-.32-.41-.68-.77-1.04-1.15-.35-.39-.69-.78-1.03-1.18-.15-.18-.32-.34-.44-.54-.22-.37-.33-.65-.27-.9.08-.27.28-.5.61-.77.15-.12.29-.25.44-.35.26-.17.54-.24.84-.24.3,0,.65.07.86.27.65.58,1.31,1.17,1.88,1.81.59.65,1.08,1.38,1.64,2.1.8,1.12,1.61,2.24,2.42,3.35l-.06.05Z"/><path class="cls-3" d="m291.89,263.68c-.73.87-1.46,1.74-2.14,2.65-.25.33-.43.7-.68,1.03-.9,1.15-1.73,2.35-2.57,3.55-.37.53-.66,1.11-.94,1.69-.33.75-.78,1.44-1.29,2.12-.17.21-.35.11-.52-.19-.16-.3-.38-.83-.33-1.35l.1-.67.05-.34.11-.31c.16-.41.32-.82.5-1.22.38-.79.78-1.57,1.35-2.25.66-.83,1.1-1.82,1.67-2.72.64-.98,1.31-1.93,2-2.88l1.28-1.73c.63-.88,1.33-1.72,1.91-2.63.47-.69.75-1.51,1.18-2.23.09-.16.16-.34.26-.49.4-.56.7-.6,1.4-.23.16.09.33.16.48.26.51.33.73.86.59,1.36-.4,1.52-1.3,2.72-2.23,3.94-.7.89-1.41,1.79-2.11,2.68l-.06-.04Z"/><path class="cls-3" d="m304.87,271.27c-.47,1.67-1.24,2.96-2.24,3.66-.34.22-.69.48-1.11.58l-.13.02c-.82.15-1.71-.13-2.3-.7-.63-.5-1-1.33-1.16-2.07-.11-.69-.07-1.38.12-2.14.14-.48.34-1.02.68-1.51l.23-.34.18-.22c.13-.14.26-.28.41-.39.19-.15.53.14.78.55.13.21.23.45.29.68.03.11.04.23.04.33,0,.11-.03.21-.01.2,0,.04,0-.01-.08.07-.08.08-.24.3-.28.8-.03.56.34.59.57.5l.09-.02c.3-.06.53-.32.72-.7.11-.23.2-.54.16-.86-.03-.46-.42-1.04-.95-1.07-.08,0-.15.03-.2.08-.03.05-.02.08-.03.15,0,.09.01.24.06.32.02.04.13.05-.05.03-.23-.01-.32.03-.36.05h0s-.06.04-.1.07c-.12.09-.25.2-.4.35-.13.13-.25.28-.36.42-.19.24-.42.4-.76.41-.32,0-.79-.2-1.07-.68-.32-.73-.3-1.5-.08-2.18.22-.68.64-1.32,1.36-1.81.35-.23.83-.41,1.25-.48.4-.07.8-.07,1.18-.02.73.11,1.32.37,1.87.78,1.68,1.2,2.14,3.49,1.71,5.2l-.07-.02Z"/><path class="cls-3" d="m60.76,292.1c-.97-2.02-1.44-3.77-1.88-5.64-.43-1.84-.79-3.67-1.12-5.51-.64-3.67-1.14-7.34-1.54-11.03-.79-7.36-1.18-14.76-1.22-22.15-.02-5.4.06-10.8.49-16.18.78-9.49,2.3-18.95,4.97-28.14,2.69-9.16,6.56-18.11,12.32-25.86,2.58-3.41,5.46-6.63,8.76-9.4.82-.69,1.65-1.38,2.52-2.01.85-.65,1.74-1.28,2.66-1.85,1.82-1.15,3.72-2.17,5.67-3.04,5-2.24,10.38-3.79,15.98-4.02,2.79-.08,5.67.11,8.4,1.06,1.36.48,2.68,1.1,3.88,1.92,1.19.83,2.26,1.84,3.07,3.03.23.39.42.72.57,1,.13.29.23.54.3.73.14.38.17.56.09.58-.17.06-.7-.63-1.91-1.38-.07-.05-.14-.1-.23-.14-.12-.01-.17-.09-.26-.13-.16-.1-.34-.2-.51-.3-.35-.21-.77-.37-1.18-.57-.91-.28-1.8-.72-2.89-.93-1.06-.25-2.23-.41-3.46-.53-1.23-.14-2.55-.22-3.95-.25-2.48-.04-5.01.27-7.5.8-2.49.54-4.97,1.28-7.36,2.23-2.39.95-4.71,2.09-6.86,3.44-2.13,1.34-4.21,2.95-6.12,4.69-1.92,1.74-3.71,3.63-5.37,5.65-1.65,2.03-3.16,4.18-4.55,6.42-2.8,4.48-5.04,9.35-6.93,14.38-4.48,12.1-6.24,25.68-6.86,38.94-.33,7.31-.26,14.65.18,21.96.45,7.31,1.23,14.63,2.56,21.8.34,1.79.72,3.57,1.16,5.31.24.86.45,1.74.72,2.56.13.41.28.8.44,1.16.11.21.2.43.43.48.16.06.27.12.51.14.26.04.53.08.84.06.58.02,1.21-.08,1.83-.15,1.26-.21,2.53-.51,3.8-.88,2.54-.73,5.07-1.64,7.58-2.59,12.8-4.89,25.55-10.47,38.79-14.22,2.76-.8,5.53-1.51,8.31-2.13l2.09-.45,2.1-.39c.7-.14,1.4-.24,2.1-.35.37-.05.67-.13,1.02-.15l.82-.12.2-.03c.09-.02,0-.13-.03-.18-.09-.12-.18-.24-.28-.35l-1.24-1.4c-1.59-1.85-3.17-3.72-4.69-5.67-1.44-1.85-2.84-3.69-4.1-5.72-2.35-3.76-3.51-6.55-4.03-8.59-.48-2.06-.41-3.35-.12-4.35.13-.46.27-1.03.44-1.28.3-.42.55.25,1.06,1.65.52,1.41,1.44,3.54,2.9,6.19,2.05,3.68,4.69,7.15,7.45,10.58.71.85,1.42,1.7,2.13,2.55.75.87,1.51,1.75,2.27,2.63.68.82,1.46,1.65,2.04,2.49.66.84,1.03,1.65,1.07,2.27.02.32.01.58-.06.86-.02.07-.04.15-.08.25-.03.07-.12.09-.18.14l-.4.26-1.61,1.07c-1.24.15-2.6.2-3.81.41l-1.07.15c-.31.04-.62.09-.94.15-1.25.22-2.5.42-3.75.69-2.5.49-4.99,1.11-7.49,1.77-4.98,1.35-9.95,2.95-14.88,4.72-6.66,2.39-13.28,4.99-19.94,7.66-3.34,1.32-6.7,2.63-10.16,3.8-1.75.57-3.51,1.12-5.38,1.53l-1.44.27c-.5.07-1.01.12-1.52.18-.56,0-1.07.05-1.68-.02l-1.02-.13-1.25-.37-.29-.18-.07-.05c.02-.08-.03-.05-.05-.08l-.14-.1c-.2-.12-.34-.31-.5-.48-.17-.16-.28-.38-.4-.57-.1-.2-.29-.42-.33-.53l.07-.06Z"/><path class="cls-3" d="m171.11,193.53c-5.26,2.8-10.62,5.22-16.14,7.25-5.47,2.11-10.99,4.07-16.59,5.82-4.08,1.28-8.18,2.53-12.37,3.48-1.41.32-2.82.61-4.25.87-.71.14-1.44.23-2.15.35l-.54.07-.41.05c-.1.02-.21.02-.31.03l-.34.02c-.05,0-.14-.01-.14.06,0,.05,0,.11.03.16.07.21.18.41.28.62l2.17,3.79c1.5,2.67,3.04,5.33,4.02,8.46.23.79.43,1.63.44,2.58,0,.48-.05,1-.23,1.54-.09.26-.23.55-.39.79l-.43.56c-.34.36-.74.78-1.3,1.03-.26.16-.56.19-.85.27-.29.04-.6.02-.89,0-1.24-.25-1.92-.87-2.56-1.38-1.24-1.07-2.22-2.2-3.31-3.04-1.12-.86-2.37-1.61-3.63-2.09-1.39-.51-2.85-.62-4.06-.02-1.22.57-2.2,1.76-2.89,3.13-1.41,2.68-1.27,5.97.1,8.65,1.76,3.48,5.42,5.83,9.31,6.19,1.95.22,3.93,0,5.72-.73.89-.38,1.75-.83,2.55-1.4.82-.56,1.49-1.28,2.23-1.98,1.85-1.78,1.59-1.69.8.54-.43,1.1-1.35,2.56-2.97,3.97-1.64,1.36-4.14,2.38-6.9,2.43-2.42.03-4.88-.46-7.07-1.59-2.19-1.11-4.1-2.8-5.47-4.88-1.38-2.06-2.15-4.58-2.13-7.12,0-2.54.86-5.12,2.39-7.12.74-1.04,1.79-2.04,3.12-2.66,1.32-.64,2.85-.8,4.19-.6,1.35.19,2.55.66,3.64,1.21,1.1.57,2.04,1.19,3.02,1.96.96.78,1.74,1.59,2.49,2.3.37.36.74.68,1.07.94.32.25.66.43.68.42.04.01.1.02.14,0,.06.01.09-.01.15-.05.08-.08.14-.09.26-.27l.17-.21c.06-.08.04-.05.07-.1.17-.25.13-1.23-.12-2.11-.72-2.6-2.24-5.3-3.76-7.92-.8-1.35-1.61-2.71-2.42-4.06-.64-1.11-1.34-2.35-1.33-3.31,0-.24.02-.46.09-.7.03-.11.11-.26.19-.33.07-.07.21-.1.32-.16l1.35-.59c.47-.04.95-.1,1.41-.16l1.09-.16c.54-.08,1.07-.19,1.61-.28,1.07-.2,2.15-.42,3.22-.67,2.15-.48,4.28-1.04,6.4-1.64,11.16-3.14,22.14-7.23,32.65-12.14,2.69-1.25,5.34-2.56,7.9-4.01,1.28-.71,2.52-1.49,3.72-2.29.59-.41,1.17-.83,1.71-1.27.29-.21.53-.45.78-.68.11-.11.28-.25.34-.32l.19-.21c.28-.21.2-.58.16-.87-.07-.41-.24-1.03-.41-1.56-.81-2.46-1.98-4.9-3.25-7.25-1.28-2.35-2.71-4.64-4.27-6.82-3.12-4.35-6.77-8.35-11.05-11.41-3.31-2.37-7.04-4.09-10.91-4.64-1.94-.29-3.88-.28-5.73.08-1.87.36-3.72,1.04-5.48,1.9-1.55.77-2.99,1.69-4.43,2.69-2.66,1.88-4.24,3.35-5.43,4.3-.6.47-1.09.84-1.54,1.11-.49.24-.93.39-1.34.54-.37.12-.8.35-1.05.41-.44.09-.32-.48.14-1.76.22-.65.66-1.37,1.28-2.16.61-.8,1.38-1.69,2.33-2.6,2.81-2.72,6.1-5.06,9.89-6.72,1.9-.81,3.94-1.44,6.13-1.72,2.24-.27,4.37-.14,6.5.24,4.26.78,8.19,2.7,11.61,5.11,3.44,2.42,6.43,5.33,9.08,8.47,2.79,3.3,5.21,6.85,7.32,10.61,1.05,1.88,2.02,3.81,2.87,5.84.42,1.02.82,2.06,1.15,3.19.08.29.16.58.23.89.04.16.07.29.11.51.06.26.08.5.11.76.15,1.01-.07,2.03-.65,2.83l-.84.95-.57.54c-.37.36-.75.66-1.12.96-.37.31-.75.59-1.13.85-.38.27-.76.55-1.14.79-1.52,1.02-3.07,1.9-4.62,2.77l-.06-.08Z"/><path class="cls-3" d="m132.77,304.75c-.92,1.28-1.71,2.75-2.4,4.29l-.51,1.15-.44,1.19c-.31.79-.56,1.61-.82,2.42-1.01,3.27-1.7,6.69-2.31,10.16-.45,2.53-.77,5.11-1.26,7.67-.42,2.26-.92,4.53-1.52,6.79-.59,2.26-1.4,4.49-2.27,6.63-1.76,4.29-3.79,8.42-6.05,12.44-1.99,3.57-4.16,7.08-6.58,10.35-.79,1.04-1.56,2.1-2.44,3.09-.43.5-.83,1.02-1.29,1.49l-1.4,1.4c-.45.48-.97.9-1.48,1.32-.52.42-1,.87-1.55,1.25-1.11.74-2.22,1.48-3.5,1.91-.83.2-1.17.28-1.16.25,0-.04.35-.25.81-.8.21-.31.53-.56.85-.91.33-.33.65-.79,1.02-1.23.36-.47.83-.84,1.23-1.37.43-.5.89-1.01,1.39-1.51,3.4-3.76,6.4-7.95,9.02-12.4,2.68-4.42,5.14-9.03,7.31-13.78,1.31-2.85,2.41-5.81,3.15-8.89.78-3.09,1.3-6.29,1.85-9.48,1.2-6.99,2.25-14.29,5.35-21.05.23-.52.52-1.02.77-1.53.26-.51.52-1.01.85-1.5.3-.5.62-.99.98-1.44.34-.47.68-.92,1.06-1.35,1.46-1.75,3.06-3.34,4.74-4.83,2.57-2.22,5.32-4.24,8.31-5.91,1.49-.84,3.06-1.57,4.77-2.08l.65-.18.69-.11c.47-.09.9-.11,1.34-.13.87-.03,1.73,0,2.58.06,2.65.23,5.24.65,7.79,1.79.64.31,1.26.66,1.88,1.22.67.62,1.22,1.58,1.13,2.57-.03.48-.19.98-.41,1.4-.16.37-.63.92-1.03,1.16-.88.57-1.65.67-2.37.79-1.27.16-2.41.18-3.56.16-2.12-.04-3.42-.23-4.33-.36-.9-.14-1.42-.38-1.91-.75-.22-.16-.52-.3-.69-.46-.28-.27-.04-.64.76-1.05.79-.4,2.1-.63,3.68-.68,1.17-.05,2.32,0,3.43.01,1.09.01,2.2-.02,2.94-.2.11-.06.32-.1.31-.14,0,0,.02-.01.03-.01.06.05.06.1.1.14.03.04.07.09.12.13.03.02.05.04.08.06-.16-.12.37.26-.36-.26h0s0,0,0,0h0s0-.02,0-.02c.09-.14.03-.15.02-.22-.01-.02-.04-.04-.06-.06l-.25-.22c-.29-.22-.7-.44-1.15-.63-1.83-.76-4.09-1.19-6.27-1.36-1.08-.07-2.22-.1-3.18.02l-.64.11-.71.21c-.47.11-.98.38-1.46.55-2.95,1.34-5.84,3.32-8.5,5.46-2.63,2.19-5.17,4.58-7.07,7.26l-.07-.04Z"/><path class="cls-3" d="m145.26,366.35c.14-.98.26-1.97.33-2.94.03-.48.04-.96.05-1.43l-.03-.68v-.22c.02-.14-.12-.18-.23-.24-.4-.15-1.01-.33-1.54-.49-1.12-.32-2.29-.53-3.45-.85-4.07-1.12-8.16-2.42-12.05-4.23-1.72-.81-3.44-1.67-5.05-2.7-.52-.32-1.02-.69-1.53-1.04-.48-.4-.96-.79-1.39-1.24-.86-.89-1.71-1.86-2.14-3.06-.28-.74,0-.75.68-.45.69.3,1.76.81,2.7,1.61.43.35.87.69,1.34,1,.45.32.91.65,1.38.96.94.62,1.96,1.16,2.98,1.69,2.07,1.03,4.25,1.91,6.49,2.76,2.68,1.04,5.63,1.6,8.54,2.28.93.22,1.87.44,2.82.7l.73.21.39.13c.18.05.36.13.53.2.36.14.7.31.96.57.14.12.24.27.33.44.14.12.15.33.23.48l.15.8c.04.28.04.45.06.64.03.38.05.75.05,1.11.01.73-.02,1.44-.07,2.15-.15,2.09-.47,4.13-.86,6.15-.62,3.06-1.52,6.06-2.52,8.98-.77,2.28-1.53,4.53-2.51,6.74-.23.48-.44.96-.69,1.44-1,1.73-1.66,2.07-2.53,1.97-.2-.03-.42-.02-.59-.08-.57-.18-.61-1.16-.09-2.42,1.56-3.73,3.17-7.59,4.37-11.68.9-3.02,1.6-6.14,2.05-9.25h.08Z"/><path class="cls-3" d="m156.92,298.87c-1.55-.85-3.23-1.47-4.91-1.67-.3-.02-.61-.01-.91-.02-.23.05-.43.05-.73.14-1.01.23-2.14.72-3.21,1.25-1.08.53-2.14,1.16-3.17,1.81-.92.59-1.78,1.26-2.61,1.95-1.1.85-2.04,1.85-3.26,2.55-.36.24-.42.16-.37-.28.02-.23.07-.55.15-.93.04-.18.08-.42.16-.6.1-.17.21-.35.35-.51.49-.57,1-1.11,1.52-1.63.54-.51,1.11-.97,1.69-1.42,1.17-.9,2.39-1.72,3.71-2.43.8-.44,1.6-.88,2.41-1.33.84-.44,1.67-.89,2.83-1.09,2.28-.27,4.32.25,6.27.92,1.19.43,2.33.97,3.43,1.55.83.45,1.63.95,2.42,1.48.39.27.78.55,1.16.84.2.15.37.3.6.46.24.22.47.45.67.7.51.8.8,1.48,1.08,2.27.25.78.47,1.61.38,2.65-.04.45-.16.95-.45,1.44-.58.92-1.39,1.27-1.86,1.21-.52-.05-.77-.39-.99-.79-.1-.19-.19-.38-.24-.56-.08-.32,0-.63.06-.95.09-.3.09-.68,0-.76.12.1-.21-.17-.22-.16-.07-.06-.12-.16-.14-.28-.06-.27-.15-.68-.28-1.09-.11-.39-.35-.9-.41-1.04,0-.01-.01,0-.01,0h0s-.12-.1-.12-.1c-.17-.17-.4-.35-.61-.54-1.34-1.09-2.84-2.15-4.42-2.96l.03-.07Z"/><path class="cls-3" d="m153.9,300.64c.31-.06.76-.06,1.14-.07.49.02,1.15.14,1.41.27.71.26,1.26.56,1.82.86,1.07.64,2.03,1.35,2.98,2.07.69.53,1.4,1.01,2.05,1.6.58.53,1.12,1.04,1.69,1.74.29.3.65,1.04.73,1.47.12.45.18.95.15,1.47-.04.53-.23,1.07-.51,1.52-.29.44-.65.79-1.02,1.05-.37.26-.75.45-1.12.61-.37.16-.67.28-1.22.48-.11.02-.22.13-.33.08l-.32-.14c-.11-.05-.22-.08-.32-.15-.1-.08-.2-.15-.31-.22l-.84-.58c-.53-.36-1.07-.73-1.6-1.09-1.37-.9-2.77-1.7-4.3-2.24-.48-.18-.43-.16.03-.23.46-.11,1.37-.15,2.32.17,1.69.56,3.23,1.38,4.72,2.16.16.09.43.22.49.26,0,.03.02.01.03.04.02.02.02.02.08,0,0,0,.12-.06.2-.11l.25-.14c.64-.39,1.08-.8,1.19-1.12.07-.2.11-.43.06-.76-.02-.08-.03-.16-.05-.25-.03-.08-.08-.2-.08-.22,0-.04-.04-.07-.05-.11l-.15-.18c-.59-.6-1.44-1.23-2.23-1.82-.88-.66-1.79-1.3-2.72-1.88-.92-.57-1.89-1.14-2.74-1.45-.22-.11-.94-.04-1.53.05-.64.12-1.28.29-1.93.49-1.95.63-3.9,1.45-5.66,2.52-1.36.85-2.52,1.92-3.63,2.97-.24.24-.47.48-.69.72-.81.92-1.42.89-2.05.78-.15-.03-.3-.04-.42-.08-.2-.07-.28-.25-.29-.58,0-.32.02-.84.27-1.34.86-1.37,1.97-2.59,3.23-3.63,1.28-1.02,2.68-1.87,4.13-2.61,1.08-.56,2.2-1.04,3.36-1.46,1.16-.42,2.34-.78,3.73-1l.02.08Z"/><path class="cls-3" d="m159.99,314.2c-.06-.15-.39-.39-.67-.61-.32-.22-.67-.43-1.03-.63-.74-.4-1.53-.76-2.34-1.07-.59-.22-1.22-.35-1.81-.52-.53-.16-1.05-.28-1.54-.37-.25-.04-.47-.07-.67-.08-.1,0-.1.01-.16,0-.06,0-.18.05-.27.07-.86.29-1.88.95-2.8,1.61-.84.59-1.56,1.35-2.33,2.02-.48.45-.94.93-1.42,1.38-.47.47-1,.87-1.65,1.17-.58.04-.56,0-.73-.64-.1-.33-.12-.7-.12-1.12,0-.21.02-.43.08-.63.07-.19.16-.37.28-.53,1.71-2.33,3.86-4.15,6.75-5.48l.71-.29c.3-.09.5-.19.88-.26.18-.03.37-.07.54-.08h.42c.29,0,.51.04.78.05.98.11,1.87.31,2.73.58,1.88.63,3.66,1.38,5.37,2.55.5.36,1.1.82,1.53,1.55.41.71.52,1.47.52,2.15,0,1.04-.24,1.98-.55,2.87-.16.44-.34.88-.54,1.31-.1.21-.21.43-.32.64-.16.24-.3.5-.51.7-.61.68-1.4,1.1-2.13,1.37-.74.27-1.48.44-2.18.55-.31.05-.61.12-.91.15-1.11.1-1.39-.15-1.67-1.02-.06-.2-.14-.39-.19-.59-.16-.65.31-1.29,1.13-1.49,1.19-.28,2.34-.43,3.08-.7.37-.13.57-.28.65-.36.03-.02.05-.04.06-.07.01-.02.02-.01.04-.05l.09-.15c.11-.21.23-.43.33-.66.3-.68.56-1.42.65-2.06.05-.31.06-.61.04-.81-.04-.21-.05-.29-.13-.4l.05-.05Z"/><path class="cls-3" d="m183.71,392.86l-39.22-.28c-4.77.02-9.54.05-14.3.07-16.81-.09-33.61-.14-50.42-.11-7.46.01-14.95.19-22.35.37-4.75.11-9.51.22-14.27.34l-7.14.1c-2.38.02-4.76-.09-7.14-.19-2.97-.24-2.58-.58-.1-1.34,1.24-.39,3.01-.83,5.15-1.29,2.14-.42,4.66-.72,7.4-.87,4.85-.24,9.71-.47,14.56-.65,4.86-.14,9.72-.23,14.58-.31,4.87-.09,9.74-.12,14.61-.14,4.88-.03,9.77,0,14.66.09,11.71.18,23.9-.11,35.88-.12,13.17.04,26.35.08,39.52.13,8.11.04,16.22.08,24.32.13,12.27.04,24.61.15,36.79.06,9.47-.07,18.75-.4,28.12-.63,2.06-.06,4.08-.11,6.16-.17,7.7-.12,10.16.16,11.82,1.3.38.26.88.52,1.1.78.74.89-2.39,1.64-8.04,1.93-16.74.85-34.4.99-52.12,1.02-13.16-.03-26.38-.07-39.58-.1l-.02-.11Z"/><path class="cls-3" d="m223.77,163.84c-.35,1.63-.45,3.36-.13,4.46.08.24.17.46.26.57.03.08.09.09.12.15.02.02.05.02.06.04.01,0,.01.02.03.03l.11.06c.56.32,1.2.54,1.9.65,1.41.22,3.04.05,4.68-.37,1.64-.41,3.3-1.05,4.93-1.79,3.26-1.49,6.44-3.37,9.56-5.36,3.12-2,6.18-4.13,9.24-6.3,4.47-3.16,8.82-6.51,13.52-9.52,2.09-1.32,4.21-2.6,6.58-3.66,1.2-.51,2.43-1.01,3.9-1.25.73-.12,1.53-.18,2.42-.02.43.07.94.23,1.25.39.35.16.72.3,1.02.52,1.31.78,2.33,1.82,3.15,2.9.82,1.09,1.47,2.23,2.05,3.37,1.13,2.3,1.96,4.64,2.72,6.97l2.17,6.92c.74,2.25,1.5,4.52,2.59,6.39.53.92,1.2,1.71,1.84,1.98.15.1.32.11.47.15.17.02.43.04.62.03.41-.01.69-.13.95-.3.52-.33.96-1.29,1.23-2.34.28-1.06.47-2.23.65-3.43.33-2.12.66-4.36,1.57-6.56.46-1.09,1.08-2.18,1.93-3.11.85-.93,1.93-1.68,3.07-2.16,1.13-.48,2.35-.8,3.61-.82,1.25-.03,2.48.18,3.63.56,2.32.77,4.28,2.28,5.79,4.06,1.96,2.31,3.14,5.07,3.8,7.93.67,2.87.6,5.96-.33,8.81-.92,2.85-2.79,5.38-5.2,7.06-2.39,1.72-5.25,2.59-8.05,2.76-1.75.03-2.5-.09-2.45-.17.05-.11.9-.21,2.29-.57,1.37-.41,3.3-1.12,5.13-2.54,1.81-1.41,3.55-3.42,4.42-5.98.85-2.2,1.2-4.61.78-6.99-.38-2.34-1.32-4.74-2.64-6.64-1.28-1.94-3.08-3.41-5.05-4.03-.98-.32-1.98-.41-2.91-.26-.98.17-1.94.54-2.64,1.11-1.45,1.11-2.3,3.37-2.81,5.95-.26,1.3-.48,2.65-.74,4.12-.13.73-.3,1.49-.53,2.29-.24.79-.56,1.66-1.18,2.55-.59.88-1.68,1.75-2.84,2.05-.29.1-.57.15-.84.17-.27.03-.56.07-.8.05l-.75-.03c-.29-.05-.59-.11-.88-.18-1.13-.34-2.06-1-2.7-1.68-.65-.68-1.14-1.39-1.55-2.09-1.57-2.81-2.35-5.56-3.2-8.28-.98-3.25-1.9-6.49-3.12-9.55-.61-1.53-1.3-3.01-2.13-4.33-.82-1.33-1.82-2.45-2.95-3.1-.13-.1-.28-.15-.43-.21-.13-.05-.32-.16-.4-.17-.18-.07-.45-.08-.73-.09-.58,0-1.3.18-2.01.41-1.45.5-2.93,1.25-4.37,2.07-2.9,1.66-5.73,3.61-8.53,5.56-6.17,4.32-12.25,8.89-18.73,12.98-3.25,2.04-6.59,3.97-10.21,5.5-1.81.75-3.7,1.4-5.72,1.78-2,.35-4.2.46-6.34-.27-.67-.25-1.24-.48-1.92-.93-.72-.49-1.26-1.19-1.58-1.89-.63-1.42-.7-2.79-.66-4.07.13-2.56.76-4.92,1.53-7.2,1.57-4.54,3.77-8.77,6.24-12.79,3.77-6.09,8.27-11.71,13.36-16.74,5.08-5.02,10.77-9.45,17-12.9,4.84-2.68,9.97-4.8,15.34-6.05,2.68-.62,5.4-1.08,8.22-1.19,2.8-.1,5.61.14,8.37.74,2.43.52,4.78,1.26,7.04,2.4,4.21,2.11,6.47,4.43,7.8,6.13.33.44.61.84.85,1.21.21.39.39.75.53,1.08.14.34.23.65.31.94.06.3.1.59.12.86.04.49.17,1.08.13,1.38-.06.51-.67.04-1.76-1.07-.27-.28-.65-.54-.97-.91-.16-.18-.34-.37-.52-.56-.19-.18-.4-.38-.61-.58-.42-.4-.85-.85-1.38-1.27-.5-.44-1.04-.91-1.66-1.34-3.57-2.7-7.95-4.4-12.5-5.05-2.28-.34-4.6-.42-6.91-.25-2.29.17-4.69.61-7,1.16-9.31,2.27-18.03,7.27-25.47,13.74-5.54,4.8-10.49,10.37-14.68,16.43-2.09,3.04-4,6.2-5.62,9.48-1.61,3.26-3,6.68-3.67,10.05h-.09Z"/><path class="cls-3" d="m277.74,193.04c.87-.44,1.7-1.16,2.44-1.86.73-.73,1.34-1.55,1.84-2.44,1.02-1.77,1.47-3.9,1.52-6.1.02-1.61-.26-3.25-.59-4.88-.36-1.82-.9-3.64-1.53-5.44-.32-.9-.67-1.8-1.03-2.69l-.56-1.35-.29-.68-.11-.3c-.05-.1-.07-.23-.14-.33-.1-.07-.22-.06-.34-.06-.27.02-.35.02-1,.18-1.07.26-2.15.61-3.23.99-2.57.93-5.12,2.03-7.58,3.21-1.58.76-3.12,1.61-4.66,2.43-1.55.8-3.07,1.66-4.56,2.53-1.05.39-1.02.29-.64-.76.4-1.02,1.52-2.6,3.23-3.85,3-2.1,6.2-3.77,9.49-5.32,1.67-.71,3.38-1.34,5.15-1.9.45-.14.9-.27,1.36-.39l.7-.17.9-.19c.8-.15,1.61-.23,2.31-.04.33.09.71.25.93.52.21.3.47.51.62.89.11.26.23.53.34.8.45,1.07.9,2.15,1.35,3.24.44,1.05.87,2.12,1.27,3.2.8,2.18,1.51,4.44,1.85,6.79.38,2.57.42,5.29-.25,7.94-.33,1.32-.84,2.6-1.51,3.79-.68,1.19-1.54,2.26-2.5,3.21-.59.59-1.22,1.11-1.89,1.6l-1.06.67c-.35.22-.7.46-1.1.6-.77.32-1.51.71-2.32.88l-1.19.32c-.4.1-.81.12-1.21.19-2.45.35-4.95.17-7.29-.49-2.34-.64-4.6-1.61-6.58-2.97-3.13-2.03-5.81-4.69-7.74-7.89-.21-.35-.45-.68-.65-1.04-.19-.36-.34-.74-.5-1.12-.28-.71-.51-1.3-.65-1.82-.1-.52-.15-.96-.15-1.32-.01-.73.17-1.19.5-1.6.15-.19.28-.41.43-.53.49-.4,1.47.55,2.37,2.32,1.57,2.53,3.11,4.98,5.19,6.99,2.02,2.03,4.42,3.7,7.09,4.7,3.91,1.55,8.54,1.52,11.94-.56l.05.08Z"/><path class="cls-3" d="m328.3,250.19c-2.59,2-5.3,3.89-8.28,5.43-.54.29-1.07.58-1.63.85-.54.28-1.1.55-1.69.75-2.05.76-4.23,1.29-6.48,1.38-2.26.09-4.5-.28-6.64-1.2-2.02-.93-3.54-2.73-4.15-4.79-.39-1.32-.47-2.74-.19-4.04.15-.65.35-1.28.68-1.85l.58-.78c.2-.26.61-.38.86-.58.75-.42.6-.36.72.41.18.85.95,2.29.7,3.2-.29,1.76.07,3.28,1.08,4.37.24.27.52.51.83.71.16.1.3.17.49.27l.69.26c.92.36,1.91.55,2.94.7,2.5.26,5.17-.64,7.64-1.79,2.75-1.23,5.38-2.91,7.88-4.78,1.53-1.16,3.04-2.37,4.48-3.68,2.18-1.96,4.33-4.02,6.3-6.21,1.53-1.7,2.83-3.55,4.27-5.35.31-.4.61-.81.96-1.2,1.28-1.44,2.14-1.71,3.1-1.11.22.14.44.27.59.44.26.29.3.69.29,1.06-.03.39-.2.88-.59,1.38-2.25,3.17-5.06,6.53-8.13,9.62-2.29,2.31-4.72,4.51-7.28,6.61l-.06-.07Z"/><path class="cls-3" d="m357.77,390.93c.38,3,.61,6.03.4,9.1-.07,1.12-.15,2.25-.37,3.37-.43,1.96-1.11,3.99-2.56,5.68-.74.83-1.75,1.47-2.83,1.78l-.82.18c-.27.02-.55.03-.82.04-.26.03-.56,0-.86-.06-.31-.03-.56-.16-.83-.24-1.82-.81-3.01-2.21-3.93-3.68-.58-.95-1.1-1.96-1.38-3.05-.26-1.09-.34-2.23-.19-3.32.1-.68.16-.57.31,0,.12.56.57,1.53,1.11,2.54.1.23.25.45.36.67.1.23.22.45.35.67.23.44.51.86.81,1.25.58.8,1.27,1.5,1.97,2.08.7.58,1.46.97,2.03.96.86.01,1.6-.22,2.27-.68.81-.56,1.43-1.57,1.8-2.71.38-1.14.57-2.4.71-3.66.25-2.78.18-5.67-.17-8.54-.21-1.76-.51-3.53-.9-5.27-.61-2.63-1.33-5.27-2.35-7.75-.8-1.93-1.85-3.69-2.97-5.37-.25-.37-.53-.7-.77-1.08-.94-1.35-1.1-1.84-.68-2.64.09-.18.17-.38.28-.54.36-.52,1.25-.3,2.17.7,2.7,2.97,4.5,6.77,5.81,10.65,1,2.89,1.62,5.89,2.12,8.91l-.07.02Z"/><path class="cls-3" d="m285.74,399.31c-.07.05-.14.17-.09.27.04.1.15.15.28.17.05,0,.04.01.1,0,.16,0,.33-.03.51-.06.34-.04.71-.12,1.07-.19.73-.16,1.48-.37,2.23-.59,1.1-.33,2.17-.78,3.28-1.16,3.92-1.32,7.87-2.78,11.9-4.06,1.79-.55,3.6-1.12,5.43-1.58,1.18-.27,2.37-.61,3.63-.62,1.24-.05,2.56.02,3.72.67.66.55.55.39-.14.62-.33.11-.8.3-1.29.54-.25.14-.52.22-.79.31-.27.09-.57.2-.87.25-4.33.93-8.74,2.74-13.37,4.13-2.77.87-5.49,2.21-8.33,3.25-1.56.57-3.15,1.11-4.86,1.49-.42.1-.87.17-1.31.25-.11.02-.23.03-.35.04l-.48.05c-.33.04-.64.01-.95,0-1.24-.05-2.38-.56-2.99-1.56-.38-.61-.44-1.37-.27-2.04.18-.68.57-1.33,1.06-1.9.11-.15.24-.29.38-.42l.37-.36.63-.54c.42-.34.85-.66,1.28-.95,2.63-1.79,5.44-3.11,8.2-4.44,2.15-1.02,4.23-2.09,6.42-2.99.48-.2.95-.42,1.44-.59,1.85-.63,2.53-.56,3.12,0,.13.13.3.25.39.39.31.47-.31,1.1-1.54,1.73-3.68,1.8-7.59,3.6-11.33,5.64-1.38.76-2.74,1.55-4,2.4-.62.43-1.23.87-1.76,1.32l-.38.34c-.07.06-.12.11-.17.17-.04.04-.01,0-.02,0l-.05.04-.09-.02Z"/><path class="cls-3" d="m298.38,401.84c4.17-.35,8.49-1.37,12.73-2.47,1.55-.41,3.07-.93,4.63-1.34l4.15-1.12c.36-.09.7-.18,1.14-.27.26-.03.52-.05.78-.07l.67.05c.84.11,1.57.29,2.26.47,2.75.75,5.38,1.33,8.03.93,1.15-.19,2.3-.5,3.36-1.03,1.03-.45,1.99-1.23,2.93-2,1.2-1.01,2.32-2.13,3.39-3.28.54-.57,1.09-1.13,1.62-1.71.26-.29.52-.58.76-.88.25-.29.53-.57.76-.87.56-.73.72-.63.71.36.01,1-.47,2.75-1.64,4.31-1.09,1.33-2.29,2.55-3.56,3.71-.65.57-1.31,1.13-2.04,1.67-.38.26-.75.52-1.2.77-.43.25-.84.41-1.27.61-1.7.74-3.58,1.1-5.41,1.13-1.84.04-3.63-.27-5.29-.7-1-.25-1.98-.53-2.88-.7-.23-.05-.43-.07-.65-.1-.19,0-.4-.03-.54-.02-.19-.01-.7.14-1.18.28-1.91.59-3.88,1.25-5.83,1.82-4.32,1.22-8.68,2.37-13.18,3.1-1.39.22-2.79.39-4.24.45-.72.02-1.46.02-2.22-.06-.91-.08-1.99-.39-2.7-.94-.14-.11-.27-.21-.4-.33-.22-.25-.36-.55-.51-.86l-.08-.5.05-.5c.15-.65.56-1.22,1.06-1.74.25-.26.55-.48.83-.71l.69-.48c.45-.28.91-.56,1.37-.8,1.85-.99,3.73-1.78,5.62-2.52,3.03-1.18,6.01-2.33,9.13-3.23.69-.2,1.36-.41,2.07-.56,2.64-.53,3.7-.23,4.27.54.13.19.28.38.33.55.08.6-.73.9-2.49,1.45-2.6.73-5.34,1.6-8.06,2.55-2.71.96-5.47,1.99-8.03,3.21-1.07.52-2.15,1.1-2.97,1.68-.03,0-.06.01-.06.05,0,.01.01.02.02.03,0,0,.01,0,.02.01l.16.02c.09.02.19.02.29.02.78.06,1.66.02,2.54-.06v.08Z"/><path class="cls-3" d="m279.38,395.27s-.02.05-.02.07c0,.09.05.18.15.22l.08.03s.06,0,.22,0c.26.01.61-.06.92-.1,1.33-.24,2.79-.75,4.22-1.3,1.13-.44,2.21-1.02,3.34-1.49,4.01-1.68,8.06-3.49,12.22-5.08,1.84-.71,3.72-1.38,5.62-1.96,2.41-.73,5.12-1.25,7.66-.34.77.27.65.2-.02.4-.33.08-.8.31-1.32.59-.26.13-.54.28-.83.46-.14.09-.29.15-.44.27-.15.04-.31.09-.47.14-4.5,1.51-9.02,3.41-13.77,5.22-2.84,1.08-5.6,2.68-8.5,3.98-1.6.7-3.22,1.37-4.96,1.91-.87.26-1.76.51-2.75.64-.23.05-.51.05-.76.07-.27.03-.62.02-.95-.04-.33-.04-.67-.05-.97-.18-.31-.1-.61-.21-.87-.41-.69-.36-1.08-1.05-1.4-1.71-.38-1.14.12-2.34.77-3.34.54-.79,1.11-1.41,1.71-2.02,2.42-2.38,5.19-4.16,7.99-5.82,1.09-.64,2.17-1.27,3.28-1.87,1.11-.58,2.25-1.11,3.43-1.57.52-.21,1.02-.41,1.56-.58,2-.6,2.73-.48,3.3.13.13.14.29.28.38.43.29.52-.41,1.11-1.71,1.68-1.94.86-3.85,1.86-5.72,2.95-1.9,1.03-3.79,2.16-5.58,3.41-1.32.93-2.61,1.92-3.75,2.99-.57.53-1.1,1.08-1.53,1.62-.22.26-.44.61-.39.52-.02.01-.03.03-.04.06h-.1Z"/><path class="cls-3" d="m309.06,369.99c.32-.02.68-.02,1.04,0,.38,0,.63.05.94.07.6.06,1.21.1,1.79.19,1.19.14,2.34.32,3.49.5,2.29.36,4.51.75,6.74,1,4.44.51,8.91.58,13.38.14,3.27-.26,6.5-.93,9.74-1.55,11.43-2.38,22.65-6.12,33.71-10.21,4.91-1.82,9.8-3.79,14.65-5.7,3.12-1.21,6.25-2.44,9.43-3.54,1.58-.57,3.2-1.06,4.81-1.56,1.62-.47,3.29-.79,4.96-1.06,2.1-.28,1.84-.06.26.85-.79.45-1.91,1.05-3.25,1.82-1.36.68-2.97,1.39-4.76,2.04-12.64,4.84-25.23,10.28-38.43,14.48-7.9,2.49-16.08,5.22-24.51,6.79-4.63.85-9.36,1.31-14.1,1.21-4.74-.02-9.45-.8-13.98-1.5-1.4-.2-2.78-.4-4.16-.5-.73-.08-1.27-.07-1.94-.03-.65.05-1.32.15-2,.26-2.7.48-5.4,1.32-8.06,2.21-4.02,1.4-8,3.03-11.75,5.02-1.81.95-3.96,2.3-4.56,2.91-.22.21-.44.44-.59.7-.16.25-.21.63.03.85.22.22.56.25.86.24.31-.01.61-.07.91-.13.23-.05.46-.12.68-.18l1.03-.32c.76-.27,1.52-.55,2.28-.86,1.51-.61,3.01-1.28,4.51-1.95,1.5-.67,3-1.36,4.55-1.99.77-.31,1.6-.63,2.43-.87l2.37-.7c1.4-.41,2.79-.83,4.31-1.12,2.83-.53,4.84-.31,6.12,0,1.29.34,1.97.75,2.45,1.27.22.24.51.5.62.71.17.36-.31.52-1.29.51-.98.02-2.45-.14-4.27-.05-2.68.1-5.39,1.02-8.29,1.9-.71.22-1.49.44-2.08.66-.65.23-1.33.51-2.01.8-1.38.61-2.77,1.22-4.16,1.83-1.41.62-2.83,1.24-4.31,1.83-.73.29-1.49.58-2.25.84-.2.06-.38.16-.57.22l-.75.27c-.74.24-1.49.47-2.23.57-1.48.25-2.72.09-3.53-.42-.22-.12-.41-.27-.59-.44-.18-.18-.37-.38-.5-.63-.33-.48-.41-1.07-.48-1.57-.07-.99.29-2.01,1.25-3.06.19-.26.46-.51.74-.76.28-.25.54-.51.82-.75.29-.24.61-.48.94-.71.25-.18.37-.27.56-.39,4.14-2.74,8.45-4.65,12.88-6.42,2.22-.85,4.46-1.66,6.78-2.31,2.33-.64,4.65-1.24,7.33-1.41l.02.08Z"/><path class="cls-3" d="m49.25,303.61s0,.04-.01.05c0,0,0,0,0,0,0,.03-.02.06-.03.08,0,.01,0,.01.02,0,.01,0,.05-.03.01.02-.02.03-.44.42-.44.42-.01,0,0-.04.04-.11.03-.04,0-.03,0-.05,0-.02,0-.04.01-.06,0-.01,0-.03,0-.03,0-.01,0-.03,0-.04,0,0-.04.02-.06.03h-.01s.01-.02.11-.11l.06-.06c.07-.07.13-.13.16-.15.07-.06.1-.06.11-.05.01,0,.01.02.01.03h0Z"/><path class="cls-3" d="m243.34,321.34c-2.42.27-4.86.52-7.3.7-.89.08-1.77.2-2.67.24-3.15.15-6.31.12-9.45-.13-1.39-.07-2.79-.2-4.17-.3-.88-.1-1.77-.19-2.66-.29-.88-.16-1.75-.35-2.61-.59-.53-.16-.38-.5.14-.79.53-.29,1.42-.54,2.41-.42,3.5.34,7.01.4,10.57.49,2.13.06,4.35-.23,6.53-.45,2.4-.23,4.8-.53,7.19-.87,1.48-.21,2.95-.43,4.43-.68,2.23-.38,4.48-.73,6.69-1.21,1.72-.36,3.37-.91,5.06-1.34.37-.09.73-.2,1.12-.27,1.42-.25,1.9-.11,2.32.63.1.17.21.33.28.5.22.58-.27,1.17-1.26,1.55-.73.27-1.48.52-2.24.77-.76.21-1.54.39-2.32.56-1.57.35-3.17.63-4.79.9-2.4.4-4.84.74-7.27,1.07v-.07Z"/><path class="cls-3" d="m229.16,336.69c-1.45,0-2.89-.03-4.33-.06-.52,0-1.04.04-1.57.02-1.85-.09-3.69-.24-5.52-.38-.81-.05-1.63-.06-2.44-.09-.52-.02-1.04-.01-1.56-.04-.26-.02-.52-.04-.78-.08l-.39-.07c-.13-.03-.25-.15-.38-.22-.31-.23-.26-.33.03-.69.14-.16.35-.51.59-.64.24-.16.51-.29.81-.31,1.05-.07,2.09-.14,3.13-.13,1.04.04,2.08.11,3.13.23,1.26.15,2.56-.02,3.85-.06,1.41-.04,2.82-.08,4.24-.15l2.61-.15c1.31-.09,2.64-.19,3.92-.42,1-.19,1.95-.54,2.9-.85.21-.07.41-.15.63-.21.79-.21,1.09-.09,1.42.57.08.15.16.3.22.45.2.52-.03,1.04-.61,1.33-1.7.87-3.63,1.3-5.56,1.58-1.44.21-2.9.34-4.35.42v-.07Z"/><path class="cls-4" d="m366.3,267.01l-.03.02c-.6.34-1.18.69-1.75,1.07-1.15.68-2.24,1.43-3.26,2.25-.51.41-1,.84-1.48,1.27-.42.52-.82,1.05-1.2,1.59h0c-.04.06-.07.14-.05.17l.14.36c.11.34.19.65.24.92,0,.03.04.05.09.05.14,0,.28.01.42.03.08,0,.19,0,.3-.05.64-.25,1.3-.42,1.91-.65.58-.27,1.18-.51,1.77-.74,1.19-.44,2.4-.79,3.62-1.04.09-.02.14-.11.12-.22l-.07-.54c-.02-.15-.06-.31-.13-.45l-.21-.47s-.02-.08-.01-.12l.09-.34c.03-.09.02-.2-.02-.3-.11-.26-.08-.56.07-.76l.07-.08c.05-.06.07-.15.06-.24,0-.09-.04-.18-.1-.24-.05-.05-.07-.14-.04-.21.06-.15.02-.34-.1-.44l-.12-.1s-.07-.08-.07-.14c0-.06.02-.11.05-.15l.2-.2c.06-.05.07-.15.05-.23-.03-.09-.1-.13-.17-.12l-.16.03c-.08.01-.16.04-.23.08"/><g class="cls-5"><path class="cls-4" d="m368.7,325.11h-.04c-.65-.15-1.29-.34-1.95-.41-1.29-.25-2.58-.44-3.87-.58-.65-.07-1.29-.12-1.94-.17-.65-.04-1.29-.1-1.95.02h0c-.08.01-.15.07-.17.13l-.21.75-.62,1.91c-.02.07-.02.14.02.22l.24.58c.04.11.13.2.24.24.62.31,1.25.43,1.88.62.63.18,1.25.38,1.86.59.61.21,1.22.43,1.82.67.6.22,1.19.51,1.79.72.09.03.19-.03.25-.14l.31-.56c.09-.16.16-.33.2-.51l.15-.57s.04-.09.07-.12l.3-.26c.08-.07.15-.18.18-.29.09-.31.31-.56.56-.63l.11-.03c.08-.02.15-.08.2-.17.05-.08.08-.18.07-.28,0-.08.04-.17.1-.21.14-.09.23-.28.2-.45l-.03-.18c0-.06,0-.12.04-.17.03-.05.08-.09.13-.09l.28-.03c.07,0,.15-.07.18-.16.03-.09,0-.18-.05-.23l-.13-.1c-.07-.05-.14-.08-.22-.11"/></g><path class="cls-4" d="m412.63,302.83h-.04c-.73.18-1.46.36-2.17.6-2.82.8-5.46,2.07-7.78,3.73h0c-.07.05-.1.13-.08.19l.24.66.59,1.8c.02.06.07.12.14.15l.52.25c.09.05.21.05.31,0,2.49-1.08,5.14-1.65,7.74-1.73.09,0,.16-.09.17-.21l.05-.59c.01-.17,0-.34-.03-.51l-.11-.54s0-.09.02-.13l.18-.34c.05-.09.07-.21.05-.32-.05-.3.05-.6.27-.77l.09-.07c.07-.05.11-.13.13-.22s0-.19-.05-.27c-.04-.07-.04-.16.01-.22.1-.13.11-.34,0-.47l-.11-.14s-.05-.1-.04-.16c.01-.06.05-.11.09-.13l.27-.14c.07-.04.12-.13.11-.22,0-.09-.07-.16-.15-.17l-.18-.02c-.09-.01-.18,0-.27,0"/><path class="cls-4" d="m401.7,377.87l-.04-.02c-.69-.37-1.37-.75-2.07-1.1l-4.1-2.18-2.05-1.09-.51-.27c-.18-.08-.38-.12-.57-.18l-1.17-.33h0c-.09-.03-.19-.02-.22,0l-.41.34c-.39.29-.75.52-1.08.71-.04.02-.05.07-.03.14.04.17.08.36.11.55.02.1.08.24.17.36.55.7,1.05,1.49,1.74,1.98l1.95,1.67,1.95,1.67c.66.55,1.29,1.14,1.97,1.64.1.08.23.07.33-.01l.47-.4c.13-.11.25-.25.33-.4l.28-.49s.06-.07.11-.09l.4-.12c.11-.03.21-.11.27-.21.16-.27.46-.42.76-.39h.13c.09.02.19,0,.26-.07.07-.06.12-.15.14-.24.01-.08.08-.15.16-.17.18-.03.31-.19.31-.37v-.18c0-.06.03-.11.07-.15.05-.04.11-.05.16-.04l.31.07c.08.02.18-.02.23-.1.05-.08.04-.17-.01-.24l-.13-.14c-.06-.07-.14-.13-.22-.18"/><g class="cls-5"><path class="cls-4" d="m427.78,352.81l-.02.03c-.15.29-.4.54-.47.87l-.28.97c-.43,1.25-.84,2.5-1.22,3.76l-.55,1.89-.26.95-.09,1.02h0c0,.08.03.16.07.2l.55.36c.48.35.92.69,1.31,1,.04.03.1.04.18.03.18-.04.37-.08.57-.11.1-.02.22-.08.3-.17.24-.27.51-.53.73-.82l.57-.88,1.16-1.74c.79-1.15,1.59-2.28,2.42-3.4.06-.08.03-.2-.08-.28l-.53-.43c-.15-.12-.32-.23-.5-.31l-.58-.26c-.05-.02-.09-.06-.12-.1l-.23-.37c-.06-.1-.16-.19-.28-.24-.31-.15-.54-.42-.56-.68v-.11c-.02-.08-.07-.16-.14-.23-.08-.07-.17-.11-.27-.12-.09-.01-.17-.07-.2-.14-.06-.15-.24-.27-.42-.28h-.19c-.06,0-.13-.03-.17-.07s-.07-.09-.06-.14l.05-.26c.01-.07-.03-.15-.12-.19-.08-.04-.19-.04-.25,0l-.14.1c-.07.05-.13.11-.18.18"/></g><g class="cls-5"><path class="cls-4" d="m327.58,299.52l-.04-.02c-.66-.3-1.3-.64-1.98-.88-1.35-.48-2.72-.89-4.09-1.22-.69-.16-1.37-.34-2.08-.41-.72-.04-1.44-.05-2.15-.05h0c-.08,0-.17.04-.19.1l-.28.63-.8,1.56c-.03.05-.03.12,0,.19.07.18.14.36.21.55.04.1.12.2.23.26.63.36,1.25.73,1.85,1.12.63.3,1.25.6,1.86.92.61.32,1.21.66,1.79,1.01.6.33,1.13.77,1.75,1.04.09.04.21,0,.29-.11l.42-.52c.12-.14.22-.31.3-.48l.25-.55s.06-.09.1-.11l.36-.2c.1-.06.19-.15.24-.26.14-.3.41-.51.69-.53h.12c.08-.01.17-.06.24-.13.07-.07.11-.17.12-.27,0-.09.07-.17.14-.19.16-.06.28-.23.28-.41v-.19c0-.06.02-.12.06-.17.04-.04.1-.07.15-.06l.29.04c.08.01.17-.04.21-.12.05-.08.04-.18-.02-.24l-.12-.13c-.06-.07-.13-.12-.21-.16"/></g><path class="cls-4" d="m324.05,345.71l-.02.03c-.32.48-.67.92-1.04,1.34-.39.38-.79.73-1.23,1.04-.21.16-.44.3-.67.45-.23.16-.45.34-.69.5-.48.33-1.02.64-1.6.96l-.9.48c-.31.16-.62.33-.9.6h0c-.07.06-.11.15-.1.2l.11.65.18,1.6c0,.05.04.1.11.14.16.1.32.21.49.33.09.06.22.11.34.11.39.05.73-.03,1.09-.09l1.12-.18c.77-.13,1.58-.3,2.42-.54.86-.21,1.63-.69,2.41-1.13.78-.46,1.48-1,2.16-1.56.09-.08.12-.22.05-.33l-.31-.55c-.09-.15-.2-.29-.34-.41l-.43-.38s-.06-.08-.07-.12l-.06-.4c-.02-.11-.08-.21-.17-.29-.24-.21-.36-.52-.32-.78l.02-.11c.01-.08-.01-.17-.07-.25-.06-.08-.14-.14-.22-.18-.08-.03-.14-.1-.15-.18-.02-.16-.17-.31-.33-.36l-.17-.04c-.05-.01-.1-.05-.14-.1-.03-.05-.05-.11-.04-.15l.06-.25c.02-.07-.02-.16-.09-.22-.07-.06-.16-.08-.22-.05l-.12.07c-.06.04-.11.08-.16.14"/><path class="cls-3" d="m147.92,407.53c6.15.06,12.3.1,18.45.07,2.24,0,4.48-.13,6.73-.14,7.91,0,15.82.04,23.73-.13,3.51-.06,7.04-.18,10.51-.33,4.47-.24,8.96-.37,13.44-.25,1.41.19,1.22.24.07.69-1.16.43-3.3,1.06-5.87,1.42-9.11,1.06-18.24,1.56-27.47,1.57-5.52,0-11.25.43-16.89.53-6.2.12-12.41.17-18.62.2-3.82,0-7.64.02-11.46.03-5.78.02-11.59-.05-17.33.03-4.46.07-8.84.29-13.25.42-.97.03-1.92.09-2.9.09-3.63.01-4.79-.26-5.55-1.26-.17-.23-.41-.46-.51-.68-.34-.77,1.15-1.39,3.8-1.61,7.88-.65,16.17-.84,24.5-.79,6.19.02,12.4.04,18.61.05v.09Z"/><path class="cls-3" d="m212.66,425.49l9.15.22c1.11.02,2.22-.05,3.34-.02,3.92.16,7.85.34,11.77.42,1.74.04,3.49,0,5.21.01,2.22.03,4.44-.13,6.67.31.69.11.6.15.02.36-.29.11-.7.27-1.2.47-.25.09-.52.23-.81.3-.29.06-.59.12-.91.15-2.26.22-4.52.51-6.78.58-2.27.08-4.54.11-6.82.05-2.73-.08-5.57.19-8.36.23l-9.21.04-5.67.02c-2.86.03-5.74.01-8.58.14-2.21.09-4.36.38-6.54.59-.48.05-.95.12-1.43.15-1.79.1-2.37-.12-2.78-1.03-.09-.21-.21-.42-.27-.63-.19-.71.53-1.32,1.84-1.56,3.89-.69,8-.91,12.13-.92,3.07-.03,6.15.03,9.23.05v.08Z"/><path class="cls-3" d="m194.48,112.33c-.26.06-.36-.27-.36-.83,0-.18.16-.66.25-.71.17-.1.34-.19.5-.25.1-.03,1.43.08,1.89.1.45.02.87.12,1.28.24.84.25,1.69.48,2.52.75.19.06.36.15.52.27.55.41,1.17.65,1.82.83.11.03.21.09.35.03.24-.11,1.94.54,2.12.72.45.42.92.78,1.38,1.18.06.06.17.05.17.21.01.37.2.4.35.49.21.13.41.29.58.5.08.1.1.33.14.52.03.18-.26.61-.32.64-.17.09-.21.35-.3.55-.03.07-.07.15-.1.2-.08.12-1.69.23-1.81.15-.02,0-.49-.19-1-.39-.5-.19-1.03-.38-1.14-.4-.12-.03-.19-.15-.28-.24-.04-.05-1.58-.54-1.63-.58-.28-.18-.63-.22-.82-.61-.04-.07-.11-.09-.17-.12-.53-.21-1.02-.54-1.52-.83-.26-.15-.54-.23-.81-.36-.05-.02-.08-.08-.13-.11-.05-.04-.1-.1-.17-.12-.65-.25-1.25-.63-1.93-.8-.15-.04-.79-.56-.97-.59-.1-.02-.31-.48-.41-.45Z"/><path class="cls-3" d="m215.89,109.87c.28.21,0,.58-.59,1.06-.19.15-.82.39-.95.35-.25-.09-.49-.18-.69-.3-.12-.07-1.19-1.54-1.58-2.06-.38-.49-.67-1.02-.82-1.59-.35-1.14-.71-2.29-.97-3.46-.06-.26-.08-.53-.05-.8.1-.94-.03-1.83-.23-2.72-.03-.15-.03-.3-.19-.44-.29-.21-.52-2.7-.41-3.02.25-.81.4-1.6.64-2.39.03-.11-.02-.23.16-.33.42-.22.36-.46.4-.71.04-.33.14-.66.33-.98.09-.16.34-.3.55-.45.18-.13.78,0,.85.05.18.16.48.07.73.07.09,0,.2,0,.27.02.07.01.38.49.67.98.26.49.51.98.5,1.07-.03.05.26,2.6.37,2.87.05.15-.05.3-.1.46-.05.08.42,2.07.43,2.15-.02.42.18.82-.12,1.28-.06.09-.03.17-.01.26.15.71.13,1.45.17,2.18.02.38.15.73.22,1.1.01.07-.02.14-.03.21,0,.09-.03.18-.01.26.23.85.3,1.76.6,2.59.06.19-.05,1.26.06,1.48.05.12-.3.72-.18.8Z"/><path class="cls-3" d="m34.91,206.12c-.07.35-.49.35-1.11.21-.2-.05-.65-.38-.66-.5-.02-.24-.04-.49-.02-.72,0-.14.84-1.89,1.16-2.49.28-.6.67-1.11,1.08-1.6.86-.97,1.71-1.98,2.72-2.82.22-.19.47-.35.75-.45.94-.39,1.75-.94,2.56-1.52.13-.1.29-.16.36-.37.05-.17.67-.59,1.33-.97.66-.37,1.37-.68,1.55-.71.9-.12,1.76-.29,2.64-.38.12-.02.23-.11.39.02.37.3.59.15.85.1.36-.08.73-.1,1.11-.07.19.02.41.2.62.33.19.12.24.74.21.82-.11.22.08.47.15.72.02.08.06.19.06.26,0,.15-1.53,1.61-1.7,1.67-.01,0-.18.06-.41.18-.24.11-.55.26-.87.41-.63.33-1.28.68-1.4.78-.13.1-.31.08-.48.09-.1-.02-1.84,1.21-1.91,1.26-.41.17-.71.51-1.26.47-.11,0-.18.05-.25.1-.61.45-1.3.78-1.97,1.18-.35.18-.63.46-.96.69-.06.04-.15.05-.22.08-.09.04-.18.06-.25.12-.71.6-1.54,1.11-2.12,1.85-.15.15-1.1.7-1.24.92-.09.11-.72.21-.74.35Z"/><path class="cls-3" d="m31.49,185.17c-.25.16-.31-.28-.26-1.09.02-.26.22-1.01.3-1.1.16-.18.32-.35.47-.47.09-.07,1.27-.17,1.68-.24.4-.07.76-.01,1.12.07l2.21.44c.16.03.32.11.46.22.49.38,1.04.52,1.62.58.1,0,.18.05.31-.05.2-.18,1.71.16,1.88.31.42.36.87.63,1.3.95.06.05.15.01.17.18.05.4.22.38.36.44.2.09.39.2.57.37.09.09.13.32.19.52.05.18-.14.72-.19.77-.14.15-.13.43-.18.66-.02.08-.04.18-.06.24-.05.14-1.48.77-1.6.73-.02,0-.47-.05-.96-.1-.48-.04-.99-.09-1.09-.08-.11,0-.19-.1-.28-.18-.04-.04-1.5-.12-1.55-.14-.28-.12-.6-.06-.8-.45-.04-.08-.1-.07-.16-.08-.51-.08-.97-.34-1.44-.55-.24-.11-.5-.13-.76-.2-.05-.01-.08-.07-.12-.1-.05-.04-.1-.1-.16-.11-.61-.13-1.16-.45-1.79-.48-.15,0-.71-.54-.88-.53-.1,0-.25-.59-.35-.53Z"/></svg>