<?xml version="1.0" encoding="UTF-8"?><svg id="Layer_1" xmlns="http://www.w3.org/2000/svg" width="520" height="520" viewBox="0 0 520 520"><defs><style>.cls-1,.cls-2,.cls-3{fill:#231f20;}.cls-4{fill:#242021;}.cls-5{opacity:.3;}.cls-2{opacity:.35;}.cls-3{opacity:.45;}</style></defs><path class="cls-1" d="M127.15,466.74c-.54-.03-.96-.41-1.34-.69-.12-.09-.09-.31.07-.37.3-.1.61-.24.92-.38.07-.02.28-.09.59-.19.32-.07.74-.09,1.18-.16.88-.14,1.86-.19,2.36-.24.96-.09,1.93-.11,2.89-.11,1.96,0,3.92-.06,5.88-.11.44,0,.87,0,1.31.05,1.5.16,3,.14,4.5.05.25-.02.51,0,.75-.11.39-.19,4.48-.21,5.01-.13,1.32.19,2.63.31,3.95.47.19.02.39-.01.56.11.4.28.8.24,1.21.26.56.02,1.13.09,1.69.24.28.07.55.22.82.37.25.12.1.44.02.48-.26.11-.05.28-.03.42,0,.05.02.11,0,.15-.01.05-.83.28-1.69.51-.85.17-1.75.35-1.92.34-.04,0-1.24.06-2.49.11-1.25.07-2.56.14-2.83.17-.28.03-.56-.03-.84-.07-.13-.01-3.9.26-4.05.24-.78-.03-1.56.07-2.35-.17-.15-.05-.31-.03-.47-.03-1.35.04-2.69-.06-4.04-.13-.69-.03-1.38-.01-2.07-.02-.12,0-.25-.04-.37-.05-.16-.02-.31-.05-.47-.05-1.63,0-3.27-.16-4.91-.12-.19,0-.73-.07-1.28-.16-.55-.08-1.1-.23-1.32-.22-.24-.03-1.02-.39-1.23-.44Z"/><path class="cls-1" d="M192.24,464.87c-.43.05-.83-.01-1.2-.18-.37-.14-.71-.29-1.04-.38-.21-.06-.18-.2.07-.28.48-.14.96-.35,1.45-.56.15-.03,1.41-.26,2.84-.5,1.43-.13,3.02-.28,3.83-.35,1.57-.16,3.14-.22,4.71-.26,3.19-.08,6.38-.22,9.56-.26.71,0,1.42.01,2.12.06,2.42.17,4.84.15,7.26.05.4-.02.82,0,1.2-.12.64-.16,7.19-.36,8.04-.32,2.11.12,4.22.14,6.34.18.3,0,.62-.05.9.05.65.25,1.3.16,1.95.14.91-.03,1.81-.05,2.72.04.45.02.91.21,1.36.31.41.1.22.41.08.47-.4.14-.05.28,0,.41.02.05.04.11.02.15,0,.02-.34.14-.83.32-.5.14-1.16.34-1.84.52-1.37.3-2.81.56-3.1.57-.07,0-2.02.16-4.05.32-2.04.14-4.16.29-4.6.32-.45.04-.91-.01-1.37-.04-.22.01-6.33.32-6.57.33-1.27-.01-2.54.1-3.8-.14-.25-.05-.51-.03-.76-.02-2.18.05-4.35-.03-6.52-.09-1.11-.03-2.22-.02-3.33-.03-.2,0-.4-.04-.6-.06-.25-.02-.5-.06-.76-.06-2.62,0-5.25-.14-7.87-.03-.6.01-3.49-.22-4.18-.18-.39-.03-1.67-.43-2.02-.38Z"/><path class="cls-1" d="M192.23,129.29c1.3,1.27,3.01,2.2,4.87,2.02,1.47-.14,2.79-.79,3.99-1.61.54-.37.83-1.12.45-1.71-.35-.54-1.13-.84-1.71-.45-.46.31-.92.61-1.42.85-.09.05-.49.2-.19.09-.14.05-.28.11-.43.15-.13.04-.26.08-.39.11-.07.02-.15.03-.22.05-.04,0-.3.04-.1.02.18-.02-.03,0-.06,0-.08,0-.15.01-.23.01-.16,0-.31,0-.47-.01s-.04,0,.05,0c-.08-.02-.16-.03-.24-.05-.17-.04-.33-.08-.49-.14-.05-.02-.28-.12-.05-.01-.07-.03-.13-.06-.2-.09-.17-.09-.34-.18-.5-.29-.34-.22-.52-.38-.88-.73-.47-.46-1.31-.5-1.77,0s-.5,1.28,0,1.77h0Z"/><path class="cls-1" d="M181.54,104.69c.43-.47.88-.92,1.35-1.34.24-.21.48-.42.72-.62.07-.06.15-.12.22-.17-.1.08-.07.05.01,0,.13-.1.27-.2.41-.3.52-.37,1.05-.71,1.6-1.02.28-.16.55-.31.84-.45.05-.02.13-.09.18-.09-.07,0-.19.07-.03.03.27-.08-.16-.01-.02,0,.11,0,.06-.01-.15-.05-.12,0-.23-.06-.32-.14.47.46,1.31.5,1.77,0s.5-1.28,0-1.77c-.82-.8-1.88-.55-2.79-.08-.68.35-1.34.74-1.97,1.16-1.31.88-2.52,1.92-3.58,3.08-.44.48-.51,1.3,0,1.77.48.44,1.3.52,1.77,0h0Z"/><path class="cls-2" d="M327.65,176.34c0,.1,2.28,8.96,1.03,9.1s-10.44.55-10.44.55l-.64-9.65h10.05Z"/><path class="cls-1" d="M309.24,234.01c-.48-1.11-.66-2.24-.77-3.34-.04-.4-.1-.8-.11-1.2-.01-.7,0-1.39.04-2.08.07-.69.13-1.37.2-2.06.06-.61.12-1.21.18-1.81.08-.77.17-1.54.3-2.3.04-.24.04-.2.05,0,.02.44.03.81.04,1.02,0,1.57.22,3.13.25,4.69.03.94.09,1.91.22,2.84.12,1.02.31,2.03.67,2.96.22.57.5,1.11.87,1.58.55.71,1.3,1.26,2.18,1.54.68.23,1.41.2,2.13.26.16.02.32.02.48.04.6.08.79.25.88.65.02.09.05.18.06.27.03.27-.24.54-.72.64-1.41.37-3.04.05-4.54-.84-1.11-.68-1.95-1.75-2.43-2.86l.03-.02Z"/><path class="cls-1" d="M362.54,175.6c-.28-.97-.54-1.98-1.07-2.82-.09-.16-.19-.31-.3-.46-.12-.13-.24-.26-.35-.4-.77-1.01-1.88-1.75-3.17-2.17-.59-.12-1.18-.28-1.8-.24-.78,0-1.58-.06-2.4-.03-.26,0-.23-.04-.03-.15.2-.11.56-.32,1.02-.55.21-.08.41-.19.62-.24.21-.06.43-.07.65-.1.44-.06.88-.11,1.34-.05.9.02,1.83.24,2.64.7.24.14.48.28.73.41.24.14.46.32.7.48.49.3.88.72,1.28,1.12.78.95,1.41,2.01,1.79,3.14.28.68.41,1.39.59,2.09.21,1.06.39,2.13.46,3.19.06.82.22,1.62.21,2.44,0,.18,0,.35-.01.53-.05.67-.21.88-.5,1.01-.07.03-.13.07-.19.09-.18.06-.42-.21-.58-.69-.44-1.41-.86-2.82-1.1-4.21-.12-1.05-.31-2.07-.58-3.06l.05-.02Z"/><path class="cls-3" d="M370.24,88.21l1.63,10.53,8.67.24s-.04-11.75-1.15-11.75c-1.11,0-9.16.97-9.16.97Z"/><path class="cls-1" d="M359.69,82c.08-.88.22-1.76.62-2.68.14-.34.3-.7.55-.98.87-1.01,2.02-1.47,3.12-1.66.49-.09.97-.2,1.46-.16.31,0,.62.03.92.08.3.03.6.06.9.12.18.04.16.03,0,.03-.16,0-.45.05-.78.11-.6.18-1.12.57-1.64.75-.53.19-1.02.42-1.5.64-.6.23-1.07.72-1.33,1.21-.32.52-.44,1.3-.54,2.07-.06.48-.09.97-.1,1.46,0,.75.01,1.51.13,2.25.1.57.28,1.12.41,1.68.03.12.07.24.09.36.06.46-.08.64-.35.82-.06.04-.13.09-.19.12-.2.1-.46-.04-.73-.35-.34-.48-.54-1.01-.75-1.55-.17-.55-.23-1.12-.29-1.7-.08-.86-.09-1.73-.05-2.61h.04Z"/><path class="cls-1" d="M421.63,138.86c.29-1.27.52-2.62.65-4.01.05-.51.04-1.02.09-1.53.19-1.8.39-3.61.54-5.41.06-.8.14-1.61.17-2.4,0-1.02.21-2.04.45-3.06.08-.32.12-.27.24,0,.11.27.38.78.55,1.37.43,2.1.41,4.19.12,6.29-.16,1.26-.09,2.57-.13,3.86-.06,1.42-.14,2.86-.36,4.32-.14.89-.35,1.78-.61,2.66-.4,1.33-1.04,2.61-1.82,3.76-.63.88-1.33,1.72-2.24,2.36-.2.14-.39.28-.62.39-.89.29-1.22.19-1.48-.01-.06-.04-.13-.08-.16-.12-.12-.12.14-.43.54-.87.28-.36.58-.62.85-.93.27-.3.51-.63.74-.97.23-.33.41-.7.62-1.05.22-.34.43-.69.62-1.05.56-1.07.95-2.29,1.2-3.58h.05Z"/><path class="cls-1" d="M311.25,142.66c.28-.83.48-1.73.73-2.64.08-.34.12-.68.2-1.02.31-1.19.62-2.38.88-3.58.11-.53.23-1.07.32-1.6.07-.34.09-.69.23-1.02.12-.33.26-.66.34-1,.07-.21.09-.18.14.01.03.19.15.54.27.96.22,1.45.07,2.86-.25,4.25-.19.83-.21,1.72-.32,2.59-.12.95-.27,1.91-.53,2.88-.15.59-.34,1.19-.56,1.77-.34.88-.83,1.73-1.4,2.5-.44.6-.89,1.22-1.52,1.72-.13.11-.27.22-.43.32-.64.21-.91.08-1.15-.3-.05-.09-.11-.17-.15-.25-.12-.27.01-.63.24-.94.15-.27.34-.41.51-.59.17-.18.34-.35.5-.54.33-.38.65-.79.92-1.24.4-.66.75-1.44.99-2.28h.05Z"/><path class="cls-1" d="M249.42,154.95c.59-.92,1.28-1.82,2.13-2.6.31-.28.59-.6.95-.84,1.23-.83,2.79-1.38,4.29-1.15.65.06,1.28.19,1.85.4.37.14.75.23,1.05.5.32.24.6.52.92.72.19.14.15.15-.06.15-.16,0-.31.01-.44.02-.19.03-.43.11-.66.15-.2.02-.42.11-.59.1h-.53c-.34-.02-.68.04-.98.02-.62-.04-1.14.03-1.75.05-.75.02-1.43.52-2.06,1-.71.53-1.34,1.21-1.9,2-.34.48-.66.99-.95,1.53-.45.81-.84,1.67-1.17,2.54-.29.67-.43,1.37-.71,2.03-.06.14-.11.29-.19.43-.25.53-.51.64-.84.66-.07,0-.15.02-.21.02-.11,0-.17-.08-.24-.22-.06-.14-.14-.34-.12-.57.02-.68.04-1.4.19-2.08.06-.34.14-.69.21-1.03.09-.34.23-.66.34-.99.35-.97.85-1.91,1.4-2.88l.05.03Z"/><path class="cls-1" d="M257.07,149.87c-.26-.87-.25-1.73-.19-2.52.03-.29.01-.58.06-.85.09-.49.21-.97.33-1.43.15-.45.31-.91.46-1.36.14-.4.25-.8.36-1.2.16-.51.4-.99.68-1.46.09-.14.11-.11.15.04.03.15.13.45.15.76,0,.28.03.55.03.82-.03.26-.06.52-.1.78-.07.52-.15,1.03-.28,1.54-.17.61-.19,1.26-.22,1.87-.04.67-.03,1.33.11,1.95.08.38.2.74.4,1.07.29.49.72.95,1.26,1.26.42.25.91.34,1.39.48.1.04.2.07.3.12.36.19.44.36.37.78-.02.09-.02.19-.04.27-.07.28-.34.49-.69.5-.26.01-.53.01-.8,0-.25-.06-.5-.14-.75-.25-.5-.21-1-.5-1.46-.89-.69-.57-1.27-1.41-1.56-2.28l.04-.02Z"/><path class="cls-1" d="M261.61,152.5c-.74-.39-1.56-.91-2.17-1.58-.22-.25-.46-.46-.64-.73-.63-.95-.99-2-1.13-3.06-.06-.47-.1-.95-.08-1.42.07-.6.26-1.2.63-1.68.11-.15.11-.12.14.05,0,.17.11.48.16.8.02.28.06.54.12.8.03.26.02.51.04.76.04.51.14,1.02.28,1.52.17.62.61,1.14,1.04,1.59.49.5,1.05.86,1.73,1.14.44.17.88.33,1.31.5.7.24,1.42.56,2.1.85.53.23,1.07.44,1.57.7.11.06.23.1.32.19.36.32.42.5.36.79-.01.07-.02.13-.03.19-.06.19-.32.26-.69.25-.58.02-1.06-.15-1.57-.26-.51-.09-.94-.31-1.39-.5-.64-.28-1.34-.51-2.14-.85v-.04Z"/><g class="cls-5"><path class="cls-4" d="M85.52,238.59s-.02-.02-.04-.02c-.08-.06-.2-.14-.34-.35-.13-.22-.28-.51-.38-.86-.09-.36-.16-.75-.18-1.13-.01-.32.04-.89.09-1.39.25-2.08.88-4.27,1.72-6.28.88-1.96,1.94-3.86,3.25-5.21.65-.66,1.33-1.19,1.98-1.49.58-.26,1.57-.44,2.57-.54,2.09-.17,4.4-.05,6.7.19,2.31.23,4.65.59,6.98,1,4.67.84,9.33,1.93,13.95,3.16,2.32.57,4.64,1.17,6.94,1.82,1.15.32,2.29.66,3.43,1.01.58.16,1.12.39,1.71.5l1.74.39h0c.54.13,1.01.19,1.12.14.4-.22.78-.39,1.18-.59.67-.27,1.29-.41,1.89-.43.3,0,.59.01.87.1.14.04.28.1.41.16.14.07.29.21.42.33.11.12.09-.03-.21-.5l-.93-1.23c-.32-.37-.63-.76-.94-1.16-.09-.11-.19-.23-.3-.36-.14-.1-.29-.21-.45-.32-.33-.22-.72-.45-1.14-.67l-1.86-.96c-.62-.32-1.28-.51-1.92-.76-1.29-.47-2.58-.91-3.88-1.35-2.6-.85-5.19-1.7-7.83-2.39-5.28-1.37-10.61-2.56-16.07-3.4-2.74-.41-5.5-.74-8.38-.84-1.44-.06-2.91-.03-4.47.14l-1.19.16-1.26.28c-.43.11-.9.3-1.34.46-.44.17-.84.42-1.26.63-1.59.94-2.81,2.15-3.83,3.4-1.02,1.26-1.82,2.58-2.5,3.93-.68,1.36-1.21,2.75-1.66,4.17-.45,1.42-.81,2.86-1.04,4.35-.14.87-.12,1.66,0,1.92l.57,1.27c.18.38.37.5.55.4.19-.11.38-.21.57-.31.05-.03.1.08.14.29.14.62.32,1.21.59,1.76.2.45.43.64.52.56.13-.1.34.08.65.41.3.32.69.82,1.27,1.22.18.09.33.22.52.27.38.17.71.13.84.09.15-.09.1-.16-.05-.3-.14-.12-.05-.18.19-.18.27-.04.41-.09.45-.19.04-.09-.06-.15-.21-.25-.11-.06-.21-.11-.28-.2-.07-.07-.07-.13-.01-.18.06-.05.15-.04.3-.06.12.02.29-.03.44-.04.17-.03.4.1.64.15.21.03.4.08.53.09.07.02.1-.02.16.04.02-.02.03-.04.02-.05,0-.01-.03-.02-.07-.02-.08-.11-.12-.08-.21-.13-.15-.05-.38-.21-.56-.22-.3-.22-.55-.35-.67-.33-.25,0-.34-.08-.43-.11"/></g><path class="cls-1" d="M211.26,452.19c-1,.02-2.01.03-3.01.05-.37,0-.73.07-1.09.07-1.29,0-2.58-.17-3.86-.23-.57-.03-1.14-.07-1.7-.08-.72-.03-1.45.06-2.17-.4-.22-.1-.19-.1,0-.23.09-.07.23-.18.39-.32.08-.06.17-.26.26-.32.09-.05.19-.09.29-.11.73-.16,1.45-.3,2.17-.41.72-.11,1.45-.03,2.19.02.88.08,1.78-.1,2.68-.12l2.96-.11c.61-.03,1.22-.06,1.82-.11.91-.08,1.85-.14,2.73-.33.68-.15,1.29-.46,1.84-.78.12-.07.24-.14.36-.2.46-.19.66-.14,1.06.31.09.1.19.19.26.28.26.3.27.81-.11,1.18-.53.57-1.23.93-1.93,1.16-.7.24-1.41.36-2.1.46-1.01.14-2.02.2-3.03.28v-.06Z"/><path class="cls-1" d="M134.75,450.09l-3.85-1.39c-.47-.16-.95-.26-1.42-.42-1.64-.57-3.28-1.15-4.94-1.65-.74-.23-1.5-.36-2.25-.49l-1.45-.2c-.24-.03-.48-.08-.72-.15l-.36-.11c-.12-.04-.21-.29-.33-.33-.29-.14-.24-.23.04-.41.14-.05.38-.5.61-.57.24-.12.54-.3.83-.26,2.07.15,4.11.51,6.07,1.2,1.16.44,2.42.67,3.62,1.03,1.32.4,2.62.83,3.93,1.26l2.41.77c1.22.37,2.44.75,3.67,1.01.96.19,1.93.23,2.89.29.21.02.42.03.63.06.78.1.97.46,1.05,1.04.02.14.05.28.05.41,0,.43-.38.77-1.02.92-1.85.24-3.7-.23-5.5-.7-1.34-.36-2.66-.81-3.97-1.23v-.06Z"/><path class="cls-1" d="M161.17,255.87c-2.49.24-14.84-1.57-17.17,7.79-3.31,13.31-22.79,78.75-22.79,78.75,0,0-22.02,73.26-22.7,77.73-.68,4.47-2.14,10.55,1.76,13.31,3.9,2.76,18.26,8.38,31.58,11.12,13.33,2.74,26.7,4.32,28.76,3.09,4.79-2.86,9.7-39,9.76-44.12.08-6.57-8.4-67.33-6.56-68.33,2.6-1.41,9.51,43.2,9.51,43.2,0,0,4.79,56.51,10,65.37,5.2,8.86,26.3,6.6,46.31,1.39,20.02-5.21,18.3-16.5,18.3-16.5l-17.99-82.39-15.29-65.6c-1.15-3.36-.22-19.25-6.27-22.47-6.28-3.34-41-2.96-47.22-2.36Z"/><path class="cls-1" d="M135.92,262.23c.7-.63,1.43-1.09,2.24-1.57.3-.17.56-.37.87-.51,1.09-.47,2.18-.84,3.3-1.03.49-.09.98-.2,1.45-.3.61-.15,1.26-.12,1.89-.1.2.01.18.04.04.16-.14.11-.39.39-.7.61-.54.42-1.11.65-1.67.89-.56.25-1.1.48-1.71.58-.71.16-1.33.59-1.95.96-.67.39-1.32.91-1.97,1.4-.39.31-.78.62-1.11.98-.5.53-.98,1.12-1.17,1.79-.16.52-.07,1.04.09,1.48.02.1.1.19.13.29.11.36.06.54-.32.84-.08.07-.16.15-.24.21-.28.21-.64.16-.97-.19-.42-.55-.65-1.3-.65-2.06,0-.77.25-1.5.56-2.13.48-.94,1.15-1.68,1.83-2.32l.04.04Z"/><path class="cls-1" d="M84.97,229.38c.34-.91.77-1.76,1.23-2.58.17-.29.3-.61.49-.89.64-1.01,1.44-1.91,2.28-2.74.37-.37.75-.74,1.15-1.07.51-.43,1.07-.82,1.7-1.04.2-.07.19-.01.08.14-.12.14-.3.42-.55.69-.44.47-.82.98-1.18,1.5-.37.5-.74,1-1.13,1.53-.47.61-.83,1.32-1.18,2.03-.39.77-.75,1.55-1.03,2.36-.17.5-.32,1-.42,1.51-.15.77-.22,1.56-.04,2.27.15.55.52.97.91,1.21.1.05.18.09.26.16.3.23.38.37.31.84-.02.1-.02.21-.04.31-.06.33-.38.53-.89.44-.76-.13-1.43-.74-1.84-1.43-.41-.71-.58-1.49-.61-2.21-.04-1.08.17-2.08.45-3.02h.04Z"/><path class="cls-1" d="M134.18,252.79c-.5.57-1.06,1.14-1.73,1.55-.25.15-.47.33-.73.45-.93.42-1.9.59-2.84.57-.41,0-.82,0-1.22-.03-.51-.03-1.03-.13-1.5-.31-.15-.06-.12-.11.03-.16.14-.05.4-.14.68-.17,1-.08,1.91-.35,2.8-.56.55-.09,1.04-.43,1.47-.75.49-.36.93-.78,1.36-1.26.26-.29.5-.62.73-.96.34-.52.68-1.06.94-1.64.21-.45.29-.96.5-1.43.04-.1.07-.21.13-.31.2-.37.39-.42.83-.25.1.04.2.07.3.12.32.16.49.45.45.75-.07.92-.42,1.73-.9,2.57-.35.62-.76,1.24-1.23,1.85l-.04-.02Z"/><path class="cls-1" d="M134.72,251.18c-.71.71-1.51,1.33-2.37,1.83-.31.19-.61.39-.94.54-1.17.51-2.41.78-3.63.91-.54.07-1.09.11-1.63.09-.69,0-1.39-.09-2.05-.28-.21-.06-.17-.1.02-.15.19-.04.52-.14.9-.19.67-.07,1.33-.22,1.97-.35.64-.11,1.28-.25,1.92-.41.77-.19,1.48-.63,2.18-1,.77-.42,1.49-.94,2.14-1.55.4-.37.77-.78,1.1-1.22.5-.67.97-1.37,1.28-2.15.25-.6.35-1.23.43-1.86.01-.14.03-.28.04-.41.09-.51.19-.66.56-.73.08-.02.17-.04.25-.05.27-.03.47.22.52.66.08,1.29-.27,2.65-.88,3.87-.44.92-1.09,1.73-1.78,2.47l-.03-.02Z"/><path class="cls-1" d="M140.88,233.45c-.28,1.23-.59,2.42-.91,3.62-.12.43-.18.88-.31,1.31-.46,1.52-.95,3.03-1.55,4.51-.26.66-.49,1.33-.75,1.98-.17.42-.31.86-.59,1.23-.27.38-.57.74-.91,1.06-.21.2-.2.14-.16-.11.02-.13.04-.31.06-.52,0-.22,0-.48.04-.72.05-.21.02-.46.1-.66.07-.2.14-.41.19-.62.13-.42.24-.84.36-1.26.24-.84.46-1.71.77-2.55.38-1.01.53-2.13.77-3.2.26-1.18.51-2.37.73-3.56.13-.73.27-1.46.32-2.17.09-1.08.07-2.19-.16-3.26-.18-.83-.56-1.58-.94-2.3-.08-.16-.19-.3-.27-.47-.29-.6-.21-.87.2-1.26.1-.09.19-.19.29-.26.33-.26.8-.16,1.2.27,1.09,1.35,1.62,3.15,1.78,4.95.13,1.33.01,2.74-.22,4h-.05Z"/><path class="cls-1" d="M141.59,226.96c-.05.38-.1.76-.15,1.13-.02.14,0,.27-.02.41-.13.48-.27.96-.37,1.43-.04.21-.07.42-.1.63-.03.27-.07.53-.16.79-.03.08-.07.07-.12,0-.05-.07-.14-.21-.18-.36-.1-.55-.22-1.08-.19-1.62.03-.32-.1-.66-.1-.98,0-.36,0-.72,0-1.09,0-.22,0-.45-.01-.67-.02-.34-.02-.68-.09-1.01-.06-.26-.22-.49-.31-.74-.02-.05-.06-.1-.07-.16-.05-.2.05-.29.46-.4l.28-.08c.32-.07.6-.03.73.11.18.21.33.44.4.69.06.25.08.5.09.76.01.38-.02.77-.04,1.15h-.04Z"/><path class="cls-1" d="M144.3,215.31c.63-1.48,1.23-2.99,1.76-4.52.2-.56.33-1.13.51-1.69.66-1.98,1.25-3.99,1.72-6.02.2-.91.36-1.82.53-2.73l.29-1.75c.13-.58.41-1.15.48-1.74.07-.36.12-.31.17.01.03.16.03.38.11.67.07.28.18.61.24.97,0,1.23-.08,2.46-.24,3.68-.2,1.21-.45,2.42-.78,3.61-.39,1.42-.64,2.94-1.03,4.41-.43,1.61-.92,3.19-1.46,4.77-.33.97-.68,1.93-1.04,2.88-.53,1.45-1.16,2.89-1.81,4.31-.51,1.11-.96,2.24-1.62,3.33-.15.23-.27.49-.45.71-.67.81-1.14.84-1.69.54-.13-.07-.27-.13-.38-.22-.38-.29-.35-.84-.09-1.46.94-1.68,1.94-3.37,2.82-5.31.65-1.43,1.32-2.93,1.92-4.44h.05Z"/><path class="cls-1" d="M143.7,214.2c.68-1.62,1.33-3.29,1.85-5.01.19-.63.31-1.27.49-1.91.61-2.24,1.2-4.51,1.69-6.81.21-1.02.36-2.06.51-3.08.13-1.32.49-2.63.86-3.93.13-.4.15-.34.21.03.04.36.21,1.03.28,1.81.16,1.38-.03,2.73-.12,4.1-.12,1.36-.3,2.73-.58,4.08-.33,1.62-.55,3.33-.91,4.99-.41,1.82-.91,3.63-1.53,5.41-.38,1.09-.84,2.17-1.31,3.23-.74,1.61-1.65,3.15-2.72,4.59-.84,1.11-1.71,2.26-2.94,3.11-.28.17-.52.4-.83.53-1.13.54-1.62.37-1.99-.23-.09-.14-.19-.28-.25-.43-.19-.51.12-1.05.68-1.4,1.63-1.13,3-2.6,4.24-4.5.89-1.41,1.68-2.97,2.33-4.61l.06.02Z"/><path class="cls-1" d="M192.35,176.8l-3.09-.93c-.37-.11-.76-.17-1.13-.29l-1.96-.59c-.65-.22-1.3-.42-1.96-.58-.58-.14-1.18-.24-1.77-.28-.76-.02-1.5-.15-2.27-.15-.24,0-.23-.06-.05-.2.18-.14.54-.42,1.01-.58.41-.15.84-.18,1.26-.18.42,0,.83,0,1.24.03.82.06,1.63.19,2.42.39.94.24,1.93.43,2.88.66l3.12.82c.64.17,1.27.33,1.91.46.97.2,1.94.4,2.89.42.73.01,1.46-.17,1.97-.44.09-.07.2-.14.27-.21.28-.22.35-.21.88-.06l.35.08c.19.05.32.17.38.38.07.22,0,.5-.22.79-.68.86-1.66,1.11-2.47,1.24-.84.11-1.63.06-2.4-.03-1.14-.14-2.21-.43-3.28-.69v-.04Z"/><path class="cls-1" d="M197.42,172.52c-.17-.75-.41-1.5-.67-2.23-.11-.27-.22-.52-.34-.79-.38-.94-.8-1.86-1.3-2.75-.22-.39-.45-.79-.69-1.16-.33-.47-.65-.95-1-1.4-.11-.15-.06-.17.1-.11.15.06.45.18.7.42.46.41.88.85,1.27,1.32.39.47.65,1.03.93,1.57.3.66.71,1.3,1.03,1.98.35.74.64,1.51.91,2.28.15.48.31.96.42,1.46.2.74.3,1.51.39,2.28.01.32.1.56.08.96,0,.43-.26.87-.64,1.1-.15.1-.25.17-.36.23-.37.21-.48.15-.77-.07-.06-.05-.14-.1-.2-.15-.2-.17-.18-.5.14-.8.23-.19.54-.35.55-.42.01-.05,0-.08-.03-.11,0-.09-.03-.42-.04-.63,0-.24-.06-.49-.08-.73-.1-.73-.24-1.49-.45-2.24h.03Z"/><path class="cls-1" d="M197.79,176.51c.11-.09.22-.18.31-.28.03-.04.02-.08.06-.12.12-.13.29-.26.4-.4.05-.06.06-.13.06-.2,0-.09-.03-.17.1-.25.07-.05.93.07,1.01.19.09.21.13.42-.02.6-.08.11-.03.24-.06.36-.04.13-.09.26-.15.38-.04.08-.07.16-.1.23-.06.11-.14.22-.15.35,0,.1.09.22.14.34.01.03.04.06.04.08,0,.09-.12.07-.59-.06l-.32-.09c-.36-.11-.65-.24-.74-.32-.26-.24-.26-.38-.23-.52.03-.1.1-.2.18-.29h.04Z"/><path class="cls-1" d="M199.15,117.25c-.19-.36-.35-.73-.5-1.09-.05-.13-.13-.25-.17-.39-.17-.47-.32-.93-.51-1.38-.08-.2-.18-.39-.27-.59-.12-.24-.25-.49-.34-.75-.06-.16.27-.09.47.16.32.46.62.94.85,1.45.14.31.34.6.52.89.19.32.37.64.57.95.12.19.25.37.39.54.21.26.44.51.71.68.21.14.47.18.7.21.05,0,.11,0,.15,0,.18.04.2.15.16.48l-.02.22c-.03.24-.18.42-.39.46-.63.04-1.19-.37-1.59-.79-.3-.32-.53-.69-.74-1.04h.02Z"/><path class="cls-1" d="M186.83,156.66c-.62.45-1.33.86-2.13,1.16-.3.12-.52.24-.79.32-.94.26-1.94.49-2.95.47-.44,0-.88,0-1.3-.04-.27-.03-.54-.03-.8-.11-.26-.09-.51-.2-.76-.31-.15-.08-.13-.11.02-.19.15-.07.43-.26.73-.37.53-.13,1.02-.13,1.49-.24.47-.08.9-.2,1.39-.28.58-.08,1.13-.43,1.7-.7.6-.26,1.1-.61,1.67-1.01.34-.24.68-.51,1.01-.8.5-.43,1.02-.87,1.48-1.37.37-.38.61-.88.99-1.27.08-.09.15-.19.25-.27.35-.29.57-.25.96.12.09.09.18.17.27.26.27.31.35.69.22.98-.34.93-.97,1.55-1.68,2.22-.52.49-1.11.97-1.72,1.45l-.04-.04Z"/><path class="cls-1" d="M188.41,156.61c-.61.59-1.32,1.11-2.07,1.54-.27.17-.56.31-.85.43-1.07.35-2.16.53-3.22.46-.47.03-.93-.05-1.38-.08-.29-.01-.58-.06-.86-.13-.28-.06-.57-.14-.82-.32-.16-.1-.13-.11.04-.2.08-.05.2-.12.35-.22.14-.08.29-.11.45-.12.57,0,1.11-.11,1.65-.14.27,0,.53-.04.79-.05.27,0,.53-.03.79-.06.32-.03.64-.1.93-.25l.44-.19c.14-.09.28-.17.42-.24.63-.31,1.22-.73,1.77-1.22.33-.31.66-.63.96-.99.46-.54.91-1.11,1.3-1.72.31-.48.52-1.01.83-1.53.07-.11.12-.24.19-.35.32-.39.53-.42.94-.15.09.06.19.12.27.19.28.23.38.59.26.88-.34.88-.88,1.71-1.51,2.59-.47.65-1.02,1.29-1.61,1.9l-.03-.03Z"/><path class="cls-1" d="M155.24,138.07s5.62,4.58,7.55,8.8c1.93,4.22,4.56,13.28,4.06,17.16-.5,3.87-3.33,14.86-7.57,14.3s-15.78,2.04-15.78,2.04l-7-2.51s-14.8,7.07-23.54-1.5c-8.74-8.57-9.23-17.42-9.23-17.42l3.31-12.08,1.19-3.85s-6.75-15.21-5.91-22.31c.84-7.1,2.74-14.85,5.45-18.3s11.44-8.77,11.44-8.77l13.8-2h7.83s5.48-11.6,8.72-15.04c3.24-3.44,13.17-12.77,22.03-14.05,8.86-1.28,19.68,2.12,21.09,3.99,1.41,1.87,7.89,8.61,8.84,12.02.95,3.41-1.26,10.41-1.26,10.41l-6.36,8.31-1.22-7.17s-1.93,4.44-5.76,7.19c-3.84,2.75-15.12,2.6-18.91,4.66-3.79,2.06-5.22,4.52-4.29,7.33.92,2.8,1.94,14.32,1.94,14.32,0,0-.99,2.52-2.04,3.41s-8-4.25-9.33-4.4c-1.32-.15-4.4-.29-5.64,1.92-1.24,2.21-2.65,5.44-2.46,6.39s4.03,4.66,4.03,4.66l5.02,2.52Z"/><path class="cls-1" d="M146.46,466.06c-4.19-1.44-7.83-3.64-11.31-5.97-1.27-.86-2.55-1.67-3.76-2.59-4.27-3.24-8.22-6.82-12.15-10.33l-.58-.51-.38-.32-.2-.15c-.06-.03-.16-.14-.21-.05-.08.15-.17.28-.23.44-.11.21-.2.42-.33.71-.19.43-.38.87-.55,1.31-.55,1.36-.98,2.8-1.62,4.2-.32.69-.69,1.38-1.09,2.05-.2.33-.42.66-.63.98-.25.3-.5.6-.83.85-.9.56-.73.48-.76-.46-.08-.99-.02-2.49.47-4.05.09-.31.2-.6.28-.92l.34-.91.69-1.86c.24-.63.49-1.27.76-1.92l.21-.48.37-.78c.26-.55.57-1.13.88-1.69.12-.13.22-.36.35-.4l.38-.22.38-.22.1-.05h.02s.01-.02.01-.02h0c-.01-.06.02.08.02.07h0s.06-.04.06-.04c.08-.06.15-.07.22-.07.56-.05,1.23.22,1.89.74.33.25.65.51.97.78l.71.61.97.87c1.26,1.17,2.53,2.34,3.8,3.52,2.67,2.5,5.75,4.71,8.78,6.85,3.32,2.35,6.77,4.55,10.44,6.13,1.13.48,2.28.91,3.44,1.21,1.15.31,2.25.44,3.31.24.29-.05.59-.13.88-.23l.34-.12.26-.11c.18-.09.41-.16.53-.35.11-.19.08-.42.02-.62-.06-.21-.16-.39-.29-.59-.04-.08-.17-.25-.27-.39-.1-.15-.22-.29-.33-.44-.93-1.16-2.04-2.24-3.18-3.27-2.18-1.96-4.59-3.6-6.94-5.37-.52-.39-1.04-.75-1.55-1.16-1.89-1.53-2.35-2.23-2.14-3.25.04-.23.05-.47.13-.66.25-.6,1.38-.43,2.84.54,2.2,1.42,4.44,2.95,6.59,4.71,2.16,1.76,4.29,3.59,6.3,5.89.32.37.64.76.95,1.21.08.13.14.18.25.37l.33.55c.24.35.36.78.55,1.17.26.81.27,1.63,0,2.4-.13.38-.36.73-.62,1.02-.11.16-.28.28-.45.4l-.51.36-.79.37c-.13.06-.26.12-.4.17l-.35.13c-.35.12-.7.23-1.07.32-.74.18-1.53.26-2.28.24-1.52-.04-2.84-.4-4.04-.77l.02-.08Z"/><path class="cls-1" d="M230.68,464.26c-2.26.06-4.31-.31-6.31-.77-1.99-.47-3.92-1.06-5.82-1.71-1.39-.47-2.78-.9-4.13-1.43-4.77-1.88-9.34-4.12-13.93-6.27-1.25-.59-1.46-.7-2.01-.94-.06-.02-.12-.06-.19-.07-.06.02-.06.11-.08.18-.02.14-.01.28-.01.41,0,.27.03.54.05.79.09,1.42.19,2.84.28,4.27.05.72.05,1.44,0,2.17l-.08,1.09c-.06.36-.18.73-.33,1.09-.23.45-.34.64-.39.63-.06-.01-.09-.24-.34-.61-.57-.76-1.37-2.08-1.55-3.7l-.34-4.37-.04-.69c-.02-.37-.04-.73-.04-1.1-.02-.72-.02-1.47.17-2.01.09-.27.2-.49.35-.66l.54-.38c.28-.41.77-.25,1.33-.18.3.07.59.11.89.19l.97.45c.32.14.64.31.96.47l.49.25,1.94,1.01c1.29.68,2.59,1.35,3.91,1.99,3.14,1.56,6.57,2.79,9.92,3.97,3.68,1.28,7.44,2.48,11.2,2.92,2.22.29,4.97.02,5.39-.91.06-.24-.07-.47-.2-.67-.06-.1-.14-.2-.22-.29-.04-.05-.08-.09-.14-.15l-.22-.22c-.6-.6-1.33-1.12-2.06-1.63-1.48-1-3.02-1.97-4.62-2.79-2.49-1.29-5.1-2.24-7.71-3.08-.58-.19-1.15-.32-1.73-.5-2.12-.68-2.71-1.07-3.03-1.96-.07-.2-.19-.4-.22-.57-.15-.56.96-1.03,2.76-.8,2.64.39,5.17,1.28,7.68,2.3,2.5,1.05,4.94,2.3,7.32,3.79.88.57,1.7,1.23,2.53,1.94.41.37.83.73,1.25,1.14l.34.35c.16.16.3.37.46.56.33.37.55.78.77,1.19.35.82.47,1.74.1,2.56-.15.41-.5.7-.82,1.01-.16.15-.31.32-.49.46l-.62.35c-.4.21-.86.52-1.23.58-.32.09-.62.18-.93.25-.59.08-1.2.2-1.76.2v-.07Z"/><path class="cls-1" d="M127.17,204.73l4.05-4.99c.49-.61.91-1.27,1.4-1.87,1.73-2.14,3.49-4.26,5.18-6.42.75-.96,1.45-1.96,2.14-2.96l1.33-1.92c.44-.64.96-1.23,1.6-1.72.55-.2.53-.13.66.47.08.31.08.67.06,1.09-.02.21-.03.43-.08.64-.07.2-.16.4-.28.59-1.66,2.71-3.55,5.25-5.61,7.7-1.24,1.46-2.28,3.16-3.43,4.74l-3.84,5.18-2.39,3.17c-1.2,1.6-2.44,3.19-3.56,4.84-.87,1.28-1.58,2.63-2.36,3.95-.17.29-.31.59-.53.86-.39.5-.68.8-.98.94-.32.13-.6.14-.94.07-.15-.03-.31-.04-.44-.09-.22-.08-.33-.28-.37-.58-.04-.31-.03-.74.15-1.17.44-1.36,1.21-2.54,1.94-3.76.76-1.21,1.58-2.4,2.41-3.58,1.24-1.75,2.55-3.47,3.83-5.21l.06.04Z"/><path class="cls-1" d="M201.69,116.18c.08-.41-.14-.97-.39-1.57-.12-.21-.28-.39-.41-.61-.46-.78-1.06-1.55-1.71-2.28-.29-.32-.62-.6-.95-.88-.46-.31-.81-.76-1.1-1.28-.09-.17.04-.27.29-.34.25-.07.68-.16,1.01-.07.31.06.54.23.77.4.23.16.46.33.68.51.45.35.87.76,1.25,1.21.45.56,1.07.97,1.58,1.56.56.62,1.03,1.42,1.28,2.33.15.57.18,1.19.09,1.78-.09.44-.21.87-.42,1.24-.17.4-.41.71-.62,1.06-.16.28-.33.52-.48.78-.16.25-.3.56-.49.78-.08.1-.14.22-.24.32-.34.35-.58.32-1.1-.18-.12-.11-.24-.22-.35-.34-.37-.41-.52-.88-.4-1.2.41-.92.84-1.6,1.24-2.12.24-.4.39-.69.41-1.08h.06Z"/><path class="cls-1" d="M160.79,174.59c2.33-2.24,3.73-5.51,4.25-8.95.21-1.26.18-2.55.2-3.84.07-4.57-.91-9.25-2.83-13.53-.84-1.91-1.93-3.71-3.21-5.33-.83-1.03-1.72-2.01-2.71-2.88-.98-.91-1.95-1.82-2.94-2.74-.66-.54-.57-.5.16-.33.37.08.93.14,1.63.26.68.14,1.38.49,2.11.92,2.39,1.77,4.36,4.02,5.95,6.49,1.62,2.46,2.74,5.22,3.45,8.06.82,3.4,1.62,6.99,1.47,10.63-.17,3.96-1.19,8.03-3.55,11.39-1.43,2.06-3.43,3.76-5.66,4.87-3.38,1.64-7.07,2.27-10.68,2.38-2.81.05-5.62-.12-8.39-.93-.61-.16-1.19-.39-1.8-.62-2.19-.99-2.61-1.82-2.57-2.68.01-.21,0-.43.06-.6.21-.59,1.19-.43,2.58.07,4.09,1.62,8.85,1.95,13.46,1.29,3.4-.57,6.74-1.68,8.94-3.98l.06.05Z"/><path class="cls-1" d="M135.49,88.69c-.59-.48-1.22-.94-1.91-1.3-.25-.15-.52-.21-.78-.34-.9-.44-1.87-.81-2.87-1.01-.44-.1-.9-.11-1.35-.13-.58.03-1.15,0-1.75-.08-.19-.03-.19-.19-.05-.4.14-.2.41-.5.76-.62,1.26-.3,2.59-.2,3.83.14.74.21,1.54.32,2.3.56.82.27,1.62.63,2.38,1.05.47.26.92.54,1.36.84.68.44,1.28.99,1.91,1.48.48.39,1.06.69,1.58,1.07.12.08.25.15.35.25.38.37.35.61-.15,1.12-.11.12-.22.24-.35.35-.42.36-.9.49-1.21.33-.93-.47-1.59-1.16-2.35-1.81-.55-.49-1.1-1.01-1.71-1.46l.03-.05Z"/><path class="cls-1" d="M137.68,85.63c.03-.75.07-1.49.25-2.22.04-.26.05-.53.13-.79.28-.91.68-1.76,1.12-2.54.2-.34.36-.7.54-1.04.03-.12.18-.18.24-.29.08-.1.15-.2.24-.29.18-.18.38-.34.58-.49.13-.09.2-.02.27.18.06.19.18.53.16.82-.01.26-.06.49,0,.77-.09.2-.16.41-.24.6-.17.4-.33.79-.53,1.18-.26.47-.2,1.04-.24,1.56-.03.58-.05,1.17-.03,1.77,0,.37.05.74.1,1.12.11.56.19,1.14.43,1.68.18.41.54.75.84,1.11.07.08.15.15.2.23.18.32.03.51-.64.89l-.46.26c-.53.27-1.04.32-1.33.13-.88-.57-1.17-1.49-1.41-2.43-.18-.7-.22-1.45-.28-2.19h.06Z"/><path class="cls-1" d="M198.43,140.1c.28-.71.59-1.42.77-2.13l.32-1.06c.11-.35.14-.74.21-1.11.13-.74.27-1.49.29-2.26.05-.77.12-1.53.07-2.31-.02-.57-.04-1.13-.1-1.7-.08-.57-.15-1.13-.21-1.7-.08-1.01-.29-2-.43-3.01-.2-1-.42-2-.65-2.99-.49-1.99-1.05-3.98-1.81-5.9-.31-.86-.7-1.7-1.09-2.52-.36-.84-.82-1.63-1.24-2.44-.58-1.01-1.18-2.01-1.85-2.96-.65-.96-1.27-1.94-1.98-2.85-.31-.73-.31-.62.38-.44.68.19,1.91.73,2.9,1.78,3.35,3.83,5.61,8.41,6.89,13.28.78,2.9,1.61,5.93,1.9,9.03.31,3.39.17,6.9-.86,10.25-.62,2.03-1.49,3.95-2.58,5.77-1.62,2.79-4.03,5.04-6.34,7.03-1.79,1.55-3.46,3.2-4.72,4.87-.26.37-.47.77-.69,1.17-.8,1.5-1.09,1.98-2,2.1-.2.03-.41.09-.6.09-.63.01-.96-.93-.49-2.46.36-1.12.91-2.22,1.65-3.24.74-.97,1.51-1.82,2.35-2.6,1.67-1.58,3.37-2.89,4.84-4.33,1.09-1.06,2.06-2.18,2.9-3.41.83-1.24,1.52-2.58,2.11-4l.07.02Z"/><path class="cls-1" d="M103.25,150.45c.51-1.29,1.08-2.56,1.71-3.75l.93-1.73c.28-.52.6-1.17.54-1.09,0-.02,0-.15,0-.27,0-.12,0-.24-.01-.36-.03-.25-.04-.49-.1-.76-.08-.51-.22-1.04-.4-1.58-.34-1.07-.82-2.17-1.33-3.27-.52-1.11-1.08-2.24-1.61-3.43-.27-.6-.52-1.22-.75-1.86-.24-.67-.41-1.32-.57-1.96-.71-2.88-1.05-5.77-1.01-8.66.05-2.55.33-5.08.82-7.58.52-2.49,1.3-4.93,2.29-7.28,1.06-2.32,2.34-4.55,3.92-6.58,1.61-1.98,3.41-3.83,5.48-5.34,3.65-2.69,7.89-4.54,12.25-5.5,2.81-.58,5.7-.86,8.59-.65.72.06,1.45.14,2.17.26.72.14,1.43.32,2.13.55,1.39.44,2.83,1.05,3.88,2.26.61.79.66,1.26.58,1.27-.11.05-.43-.3-1.17-.49-1.48-.38-3.97-.35-6.89-.5-2.59-.2-5.25,0-7.82.51-2.58.5-5.12,1.24-7.48,2.37-2.36,1.12-4.59,2.54-6.49,4.34-1.93,1.77-3.66,3.81-5,6.14-3.33,5.54-4.45,12.62-3.98,19.26.1,1.61.34,3.2.7,4.74l.3,1.14c.12.36.23.72.38,1.09.28.73.61,1.48.96,2.23.7,1.5,1.46,3.03,2.11,4.67.63,1.66,1.18,3.37,1.11,5.46-.1.77-.38,1.35-.59,1.75l-.66,1.28c-2.2,4.05-3.61,8.44-3.37,12.93.14,3.39,1.17,6.74,3.01,9.6,1.83,2.87,4.4,5.29,7.34,6.99,2.3,1.3,4.81,2.22,7.33,2.44,2.56.23,5.16-.08,7.7-.66,1.11-.28,2.19-.6,3.27-.99,2.02-.7,3.29-1.29,4.24-1.6.94-.34,1.57-.39,2.18-.3.28.05.63.05.85.14.36.15.24.58-.35,1.24-.59.65-1.68,1.48-3.22,2.26-2.28,1.16-4.75,2.03-7.35,2.58-2.59.56-5.32.76-8.12.44-2.88-.37-5.5-1.39-7.95-2.75-2.43-1.39-4.66-3.16-6.52-5.3-1.38-1.58-2.58-3.35-3.5-5.26-.24-.47-.45-.96-.64-1.46-.21-.49-.38-1-.53-1.51-.18-.51-.29-1.02-.4-1.54-.11-.52-.25-1.02-.32-1.55-.69-4.18-.19-8.56,1.31-12.4l.08.02Z"/><path class="cls-1" d="M239.45,222.24c2.9-.5,5.73-1.39,8.31-2.76,2.49-1.36,4.79-3.33,6.83-5.56,1.51-1.62,2.82-3.44,4.14-5.24,4.65-6.41,8.42-13.56,11.71-20.87,1.46-3.25,2.76-6.6,3.91-9.95,1.55-4.28,2.8-8.65,4.36-12.94.59-1.32.53-1.15.66.11.07.63.09,1.53.08,2.6,0,.54-.02,1.12-.09,1.73-.08.61-.2,1.24-.36,1.89-.56,2.3-1.17,4.58-1.88,6.83-.75,2.24-1.56,4.45-2.42,6.65-1.72,4.4-3.69,8.71-5.98,12.89-2.72,4.99-5.52,10.24-9.09,14.94-1.96,2.58-4.13,5.03-6.7,7.14-1.26,1.07-2.68,2.01-4.16,2.79-1.48.75-3,1.42-4.58,1.9-1.93.63-3.93,1.04-5.93,1.27-2,.26-4.01.31-6.01.26-6.06-.2-11.97-1.64-17.59-3.48-4.37-1.45-8.61-3.04-12.74-4.97-.91-.42-1.81-.83-2.71-1.3-1.67-.86-2.69-1.57-3.36-2.14-.67-.57-.95-1.08-1.08-1.63-.06-.25-.17-.53-.17-.72-.01-.65,1.58-.38,4.02.74,7.2,3.35,14.85,6.72,22.86,8.69,5.92,1.42,12.08,2.14,17.94,1.06l.02.08Z"/><path class="cls-1" d="M283.57,125.36c-1.06.9-2.12,1.82-3.22,2.71-.91.75-2.02,1.64-2.93,2.07-.24.14-.45.19-.66.25-.22.08-.39.07-.58.1-.35-.02-.62-.08-1.05-.21-.29-.26-.35-.44-.49-.63-.09-.23-.16-.5-.17-.84-.03-.68.2-1.63.45-2.54l.77-2.65.61-2.02c.54-1.71,1.08-3.43,1.49-5.12.1-.37.18-.64.24-1.02.04-.36.13-.81-.09-1.18-.09-.15-.26-.08-.35,0-.1.08-.19.18-.27.28-.17.21-.32.46-.47.72-.13.23-.23.41-.38.72l-.71,1.48c-.45,1-.9,2.01-1.35,3-.58,1.28-1.1,2.61-1.79,3.86-.34.63-.7,1.25-1.09,1.86-.18.31-.43.59-.69.86-.26.27-.51.54-.8.79-.79.56-.69.42-.53-.37.07-.4.13-.97.16-1.66.08-.66.29-1.36.58-2.1l.7-1.75.78-1.73,1.59-3.51.84-1.76c.05-.08.22-.47.35-.71l.43-.82c.3-.51.59-1.07.9-1.49.3-.48.61-.84.91-1.18l.44-.38c.14-.1.28-.17.41-.26.54-.27.96-.33,1.81-.1.59.46.85.94,1.03,1.63.25.92.18,2.32-.06,3.77l-.2,1.08-.18.82-.31,1.32c-.43,1.76-.92,3.49-1.44,5.19l-.43,1.4-.14.44-.08.25-.17.54c-.03.09-.05.19-.07.29,0,.09-.06.23.04.27.36.03.65-.25.98-.46l.24-.18.35-.28,1.11-.92c1.83-1.53,3.62-3.13,5.56-4.63.37-.28.74-.56,1.14-.83l.3-.2.42-.26c.29-.14.58-.33.87-.42.58-.21,1.16-.32,1.69-.02.44.38.64.96.71,1.56.04.61-.08,1.26-.27,1.87-.17.47-.37.92-.61,1.34-.46.84-.99,1.61-1.54,2.35-1.72,2.29-3.54,4.39-5.42,6.43-.41.45-.81.89-1.23,1.35-1.57,1.64-2.12,2.08-2.88,2.06-.16,0-.35.04-.47.01-.4-.05-.14-1.09.93-2.39,1.56-1.96,3.24-3.88,4.88-5.8.83-.96,1.64-1.92,2.39-2.91.73-.98,1.43-2.01,1.8-2.97.1-.25.06-.16.07-.18h0s0,0,0-.01c0,0,0,0,0-.01h0s0,0,0,0l-.11.07-.27.19c-1.46,1.05-2.93,2.34-4.39,3.61l-.04-.04Z"/><path class="cls-1" d="M280.04,139.23l6.03-2.43c.36-.15.71-.32,1.06-.49l.27-.14s.09-.04.14-.05c.18-.06.4-.13.64-.25.12-.06.25-.12.36-.22.12-.1.13-.25.12-.37-.06-.25-.32-.3-.55-.33-.25-.03-.54,0-.85.03l-.24.04-.33.06-.89.2c-.6.15-1.2.3-1.79.45-.77.19-1.53.44-2.34.55-.41.02-.81.12-1.24.02-.43-.1-.86-.25-1.27-.38-.5-.23-.42-.13-.01-.33.2-.11.48-.34.78-.68.15-.16.3-.4.47-.54.18-.12.36-.22.57-.3.18-.07.36-.15.54-.21l.56-.15,1.13-.31c.76-.21,1.54-.41,2.35-.59l1.52-.31c.73-.13,1.51-.26,2.18-.27,1.39-.03,2.2.32,2.79.88.35.33.71.91.73,1.55.05.32-.07.56-.16.79-.09.22-.21.43-.36.64-.63.86-2.17,1.75-3.66,2.45-2.09.96-4.07,1.73-6.09,2.58-1.23.52-2.46,1.04-3.66,1.59-.91.42-1.82.85-2.68,1.33-.43.24-.85.49-1.25.75-.19.13-.41.28-.56.41-.14.12-.28.27-.41.42-.79,1.08-1.11,2.61-1.55,4.08-.1.33-.17.66-.29,1-.48,1.23-.94,1.54-1.59,1.52-.15,0-.3.01-.42-.01-.4-.09-.57-.73-.44-1.62.23-1.32.54-2.69,1.06-4.18.28-.74.6-1.52,1.19-2.33.17-.2.32-.41.52-.6.21-.2.44-.41.59-.51.34-.26.67-.49,1-.71,1.99-1.27,4.01-2.21,6.04-3.09l.03.06Z"/><path class="cls-1" d="M208.52,234.74l1.85,5.45c.23.66.54,1.29.75,1.96.72,2.38,1.33,4.8,1.96,7.2.13.54.28,1.07.44,1.6.12.54.24,1.08.35,1.62.17.68.27,1.4.36,2.1.2.69-.17,1.47-.1,2.16-.02.44-.1.38-.28.03-.1-.17-.19-.43-.41-.71-.12-.16-.23-.31-.34-.45-.07-.08-.1-.16-.2-.24l-.12-.27c-.27-.65-.48-1.28-.78-1.92-.28-.64-.58-1.26-.8-1.91-.23-.65-.44-1.31-.64-1.98-.22-.66-.43-1.34-.61-2.02-.44-1.64-1.32-3.19-1.92-4.82l-2.04-5.38-1.27-3.32c-.66-1.67-1.26-3.38-1.96-5.04-.54-1.29-1.26-2.49-1.82-3.82-.11-.3-.24-.59-.33-.9-.09-.29-.13-.53-.08-.77.03-.23.08-.42.15-.58.14-.32.38-.51.74-.68.16-.08.32-.17.48-.22.52-.16,1.12.23,1.63.84.73.96,1.21,2.03,1.69,3.16.49,1.13.93,2.3,1.39,3.49.66,1.79,1.32,3.59,1.99,5.38l-.07.03Z"/><path class="cls-1" d="M88.41,218.47c-2.66,1.98-4.98,4.95-6.29,8.02-1.24,3.23-2.03,6.92-1.47,10.13.2,1.17.65,2.23,1.23,3.11.6.88,1.39,1.54,2.28,1.76,1.8.58,3.7-.04,5.27-1.45,1.56-1.41,2.78-3.36,3.64-5.45.88-2.1,1.38-4.34,1.46-6.65.03-1.16.02-2.32-.19-3.36-.2-1.05-.65-1.89-1.24-2.05-.59-.21-1.42,0-2.18.5-.77.48-1.47,1.2-2.08,1.97-1.23,1.56-2.18,3.42-2.73,5.3-.27,1.02-.49,2.07-.42,2.99.05.93.46,1.53.97,1.64.16.03.32-.02.44-.12.07-.05.11-.09.18-.17.09-.1.22-.21.32-.33.43-.5.81-1.12,1.09-1.77.14-.32.25-.65.32-.97.07-.31.08-.63.02-.75-.08-.16-.27-.2-.45-.17l-.17.03-.25.06c-.17.04-.35.12-.52.18-1.5.69-1.36.62-.3-.46.14-.12.3-.27.49-.41.1-.07.21-.14.31-.22.15-.07.31-.16.49-.23.39-.12.85-.09,1.26.15.42.23.65.78.76,1.2.2.87.13,1.66-.02,2.5-.17.83-.45,1.67-1,2.54-.14.22-.25.38-.48.66-.27.26-.56.51-.88.7-.63.4-1.39.57-2.11.4-.31-.09-.63-.15-.92-.27-.29-.15-.53-.25-.77-.44-.48-.35-.89-.81-1.16-1.28-.56-.97-.72-1.92-.77-2.77-.1-1.71.32-3.18.84-4.55.54-1.37,1.2-2.65,2.01-3.85.82-1.2,1.76-2.35,2.99-3.34.63-.49,1.32-.95,2.17-1.29.85-.33,1.92-.51,2.99-.27.54.11,1.11.37,1.58.72.45.36.83.78,1.08,1.2.52.85.73,1.67.88,2.44.27,1.54.22,2.93.14,4.31-.04.67-.12,1.41-.2,2.1-.13.69-.23,1.39-.42,2.07-.9,3.46-2.37,6.94-5.23,9.64-1.41,1.31-3.33,2.42-5.48,2.51-.52-.02-1.07.04-1.58-.06-.52-.12-1.01-.15-1.55-.36-1.08-.39-1.96-1.05-2.68-1.81-1.62-1.68-2.28-3.9-2.52-5.96-.2-2.08,0-4.12.43-6.06.08-.49.23-.96.34-1.44.12-.48.24-.96.4-1.42l.45-1.4c.18-.48.37-.96.59-1.42.86-1.83,1.96-3.49,3.24-5,1.57-1.86,3.38-3.56,5.67-4.72,1.14-.59,2.51-.88,3.71-.96,1.23-.11,2.43-.08,3.62-.04,3.6.18,7.13.73,10.62,1.37,3.49.64,6.95,1.4,10.37,2.2,5.32,1.26,10.54,2.48,15.74,4.03,1.14.35,2.27.67,3.41,1.06,4.23,1.48,5.49,2.32,6.01,3.46.12.26.3.54.34.75.11.7-1.69.4-4.72-.58-4.52-1.44-9.25-2.74-14.04-4.03-4.8-1.27-9.7-2.48-14.62-3.49-3.66-.74-7.35-1.4-11.01-1.77-1.82-.17-3.66-.3-5.35-.15-.43.02-.82.09-1.21.16-.37.09-.68.14-1.03.31-.68.27-1.38.68-2.05,1.18l-.05-.05Z"/><path class="cls-1" d="M114.01,252.99c-2.47-.64-4.96-1.25-7.46-1.78-.91-.2-1.84-.3-2.75-.49-3.21-.69-6.44-1.38-9.7-1.86-1.44-.24-2.91-.31-4.35-.48-.93-.07-1.86-.14-2.78-.21-.92-.14-1.85-.32-2.78-.58-.57-.35-.5-.2,0-.51.5-.28,1.43-.77,2.54-1.04,1.94-.09,3.89-.15,5.81.05,1.92.21,3.84.5,5.75.91,2.28.48,4.69.68,7.02,1.13,2.56.49,5.11,1.05,7.65,1.64l4.67,1.14c2.36.57,4.7,1.24,7.05,1.8.91.22,1.82.41,2.73.58.91.19,1.81.4,2.71.62.4.1.79.17,1.19.29.73.22,1.18.46,1.48.72.27.31.4.58.47.89.03.14.09.28.1.39.01.2-.15.32-.47.44-.32.12-.83.29-1.38.21-1.66-.16-3.33-.42-5.01-.71-1.66-.38-3.33-.79-5.01-1.22-2.49-.62-4.98-1.29-7.49-1.87v-.07Z"/><path class="cls-1" d="M115.44,365.51c-4.49,13.87-8.98,27.75-12.79,41.77-1.37,5.11-2.54,10.29-3.37,15.42-.34,2.23-.63,4.58-.43,6.53.03.23.06.47.12.63.03.08.04.21.07.25.03.05.05.1.07.15.08.15.28.37.42.56.16.19.28.4.48.57.7.74,1.51,1.45,2.41,2.08,3.58,2.56,7.89,4.39,12.2,5.99,8.7,3.13,17.82,5.27,27,6.77,4.07.64,8.2,1.13,12.27,1.19,1.01.01,2.03,0,3-.1.94-.07,2.02-.27,2.49-.55.5-.29,1.03-1.17,1.43-2,.42-.86.76-1.8,1.09-2.75,1.6-4.92,2.54-10.17,3.52-15.36.98-5.21,1.83-10.46,3.19-15.64.55-1.59.91-2.25,1.02-2.17.13.08.06.91.1,2.34.05,1.43-.04,3.42-.16,5.83-.12,2.41-.37,5.22-.87,8.25-.88,5.37-1.76,10.74-3.26,16.15-.39,1.35-.81,2.71-1.4,4.09-.3.7-.63,1.38-1.11,2.11-.21.35-.54.74-.85,1.1-.2.19-.42.39-.64.57-.22.18-.51.31-.78.46-1.06.49-1.82.58-2.61.71-.77.09-1.52.17-2.23.18-1.46.07-2.85.02-4.26-.04-5.58-.3-11.02-1.13-16.43-2.16-5.41-1.05-10.75-2.44-16.03-4.11-3.15-1.02-6.32-2.13-9.45-3.44-3.13-1.31-6.24-2.81-9.15-4.88-1.43-1.07-2.86-2.23-3.97-3.88-.15-.19-.31-.56-.45-.84-.12-.29-.17-.54-.25-.82-.12-.52-.19-1.02-.21-1.49-.07-.95-.04-1.85.02-2.73.26-3.51.94-6.84,1.66-10.14,1.64-7.23,3.62-14.33,5.7-21.4,2.08-7.07,4.27-14.09,6.49-21.1,2.78-8.61,5.56-17.23,8.34-25.84,4.23-13.03,8.55-26.1,12.56-39.08,3.11-10.1,5.92-20.07,8.6-30.14.57-2.22,1.13-4.4,1.7-6.64,2.14-8.3,2.9-10.9,4.19-12.5.29-.36.61-.86.86-1.06.84-.67.73,2.92-.63,9.1-4.09,18.33-10.01,37.17-16,56.03-4.53,13.97-9.07,28.01-13.61,42.02h-.08Z"/><path class="cls-1" d="M244.09,396.62c1.01,4.48,1.97,8.97,2.83,13.5.88,4.52,1.64,9.08,2.1,13.73.14,1.16.21,2.33.27,3.52.1,1.17.07,2.38.05,3.59.02.59-.07,1.23-.14,1.86-.09.65-.07,1.19-.36,2.03-.2.81-.63,1.39-.99,2.04-.43.52-.84,1.14-1.33,1.55-1.88,1.84-3.99,3.08-6.11,4.18-2.13,1.09-4.31,1.98-6.52,2.76-3.22,1.14-6.49,2.08-9.79,2.86-3.3.79-6.63,1.42-9.99,1.86-5.08.66-10.22.98-15.38.69-2.58-.14-5.17-.46-7.74-1.08-2.56-.64-5.13-1.54-7.43-3.24-.56-.47-.9-.97-1.13-1.4-.26-.45-.44-.87-.62-1.29-.35-.84-.62-1.68-.87-2.51-.5-1.66-.9-3.32-1.27-4.97-.74-3.31-1.35-6.63-1.92-9.95-1.14-6.64-2.12-13.3-3.07-19.95-1.48-10.33-2.97-20.72-4.44-30.97-.94-6.58-1.95-13.17-2.98-19.74-.51-3.29-1.04-6.57-1.61-9.83-.29-1.63-.59-3.26-.91-4.88-.18-.8-.3-1.62-.46-2.43l-.25-1.21-.14-.6c0-.1-.09-.18-.04-.31l-.05-.3c-.34-2.03-.71-2.81-.6-2.81.1,0,.67.84,1.49,2.45,1.74,3.18,3.71,9.48,5.1,17.05,2.44,13.42,4.29,26.88,6.13,40.35.94,6.73,1.89,13.47,2.83,20.21.99,6.73,2,13.48,3.31,20.13.39,1.95.81,3.91,1.34,5.83.26.96.55,1.9.88,2.81.17.45.35.88.54,1.27.19.36.43.71.5.76,2.19,1.58,5.1,2.55,8.07,3.05,2.98.52,6.08.7,9.18.68,6.21-.05,12.47-.87,18.56-2.15,4.44-.93,8.82-2.19,13.03-3.81,2.1-.82,4.14-1.76,6.05-2.85,1.89-1.09,3.71-2.39,4.84-3.94.16-.19.22-.39.34-.58.12-.19.22-.39.25-.58.04-.21.14-.34.16-.61l.08-.79c.15-1.03.11-2.16.11-3.26,0-1.11-.13-2.24-.19-3.36l-.37-3.38c-.6-4.51-1.4-9.03-2.28-13.53-2.23-11.08-4.9-22.1-7.65-33.08-4.25-16.64-8.53-33.35-12.75-49.87-3.26-12.85-6.58-25.43-9.31-38.29-.62-2.83-1.18-5.61-1.71-8.48-.47-2.67-.84-4.89-1.06-6.77-.11-.94-.21-1.78-.3-2.55-.06-.77-.11-1.47-.14-2.1-.15-2.52.07-4,.45-5.2.17-.54.32-1.25.51-1.57.64-1.06,1.48,3.24,2.78,10.95,2,11.44,4.75,23.12,7.61,34.94,2.88,11.82,5.98,23.78,9.09,35.78,4.61,17.82,9.33,35.71,13.5,53.76l-.08.04Z"/><path class="cls-1" d="M311.74,74.13c.78,2.19,1.19,4.28,1.59,6.4.39,2.11.65,4.21.92,6.31.49,4.2.82,8.39,1.08,12.58.2,3.06.41,6.11.49,9.17.14,5.39.16,10.78.06,16.17-.1,5.39-.34,10.78-.91,16.18-.13,1.19-.28,2.38-.49,3.58-.1.6-.22,1.2-.37,1.81-.06.3-.17.61-.27.93-.07.32-.32.76-.52,1.14-.25.35-.66.56-1.1.64-.22.03-.46.08-.66.1l-.48.04c-.63.04-1.23.06-1.84.08-1.2.02-2.4.04-3.59.05-6.08.08-12.11.26-18.12.61-1.87.15-1.66.06-.14-.59.76-.29,1.84-.88,3.21-1.19,1.36-.36,2.98-.69,4.75-.86l2.19-.2,2.19-.1,4.37-.13,4.34-.09c.71-.02,1.43-.04,2.12-.08l.77-.06s.02,0,.04,0c0-.01,0,0,.01-.03l.12-.4c.1-.32.16-.72.24-1.07.13-.76.26-1.53.34-2.33.2-1.59.32-3.22.44-4.84.23-3.26.33-6.56.48-9.87.3-7.44-.05-15.2-.43-22.8-.43-8.35-.93-16.76-2.4-24.92-.24-1.25-.51-2.48-.85-3.68l-.27-.89c-.08-.3-.23-.62-.25-.69-.06-.11-.07-.33-.23-.38-.14-.06-.3-.09-.45-.11l-.37-.04-.46-.04-.94-.06-1.91-.06c-1.28-.02-2.57-.02-3.86-.01-7.83.06-15.72.15-23.53.03-6.07-.1-12.03-.17-18.06-.79-1.33-.14-2.63-.27-3.96-.48-2.47-.39-4.09-.83-5.17-1.3-1.09-.46-1.66-.9-2.05-1.41-.18-.23-.43-.48-.52-.67-.27-.63,1.74-.44,5.23.03,5.16.82,10.58,1.19,16.08,1.42,5.51.22,11.12.27,16.75.24,4.19-.05,8.4-.1,12.6-.14,2.11-.02,4.23-.05,6.37-.03,1.08.01,2.15.03,3.29.11l.43.04.54.06c.51.08,1.02.16,1.47.35.96.35,1.4,1.28,1.76,2.27l-.07.04Z"/><path class="cls-1" d="M249.57,90.54l.32,6.82c.03.83.14,1.66.16,2.49.11,2.93-.06,5.87-.15,8.8-.02,1.3-.11,2.61-.19,3.9-.09,1.66-.29,3.33-.75,4.94-.13.5-.22.41-.32-.04-.11-.46-.25-1.27-.33-2.21-.07-1.66-.23-3.32-.36-4.97-.08-.83-.07-1.66-.08-2.5-.02-.83-.03-1.67-.02-2.51.02-1.01-.08-2.03-.16-3.06-.08-1.03-.16-2.07-.24-3.09-.14-2.26-.29-4.53-.47-6.8-.1-1.39-.23-2.79-.36-4.18-.22-2.11-.41-4.23-.71-6.31-.24-1.62-.65-3.18-1-4.76-.08-.35-.18-.68-.22-1.04-.16-1.32-.05-1.76.59-2.15.14-.09.27-.2.4-.26.41-.2,1.02.25,1.37,1.2.58,1.38.9,2.85,1.23,4.34.31,1.49.55,3.01.77,4.53.28,2.27.44,4.57.63,6.86h-.07Z"/><path class="cls-1" d="M275.5,86.18c2.23.22,4.46.46,6.69.6.82.06,1.63.02,2.45.07,2.88.17,5.77.31,8.66.29,1.28.01,2.57-.13,3.84-.17l2.46-.14c.41,0,.82.03,1.24.11.42.09.84.22,1.26.28.51.01.46.14.04.34-.21.1-.5.32-.85.6-.18.14-.36.32-.57.45-.21.11-.43.22-.66.31-3.33.72-6.73.74-10.14.53-2.04-.13-4.16,0-6.25-.05-2.29-.07-4.58-.2-6.87-.4l-4.21-.41c-2.12-.21-4.24-.5-6.35-.7-1.63-.16-3.26-.14-4.88-.31-.36-.03-.71-.05-1.07-.1-1.32-.22-1.71-.52-1.91-1.13-.05-.14-.11-.28-.13-.41-.07-.44.53-.74,1.52-.86.74-.08,1.47-.06,2.22-.09.74-.02,1.49-.02,2.24.06,1.49.09,3,.26,4.51.4,2.24.23,4.49.48,6.74.66v.07Z"/><path class="cls-1" d="M287.16,97.01c1.34.1,2.7.17,4.06.2.5.01.99-.06,1.49-.05,1.76.05,3.53.12,5.31.22.4.02.79.01,1.19,0l1.19.1c1.02.11,2.06.18,3.07.67.31.15.2.25-.11.4-.19.09-.39.19-.56.27-.23.12-.49.25-.76.31-.48.1-.98.29-1.46.42l-.74.23c-.25.07-.49.16-.74.14-1,.04-2.02.03-3.05-.06-1.24-.15-2.51.05-3.78.06-1.39.01-2.79-.02-4.19-.06l-2.59-.12c-1.31-.06-2.62-.24-3.92-.32-1.01-.09-2.04-.01-3.07-.19-.23-.03-.45-.03-.68-.1-.83-.28-1.01-.63-1.01-1.19,0-.13,0-.26,0-.38.06-.4.49-.66,1.1-.79,1.73-.22,3.41-.09,5.21-.03l2,.09c.67.06,1.35.07,2.02.1v.07Z"/><path class="cls-1" d="M295.79,110.54c.74.1,1.49.2,2.23.27.27.03.54,0,.82.03.96.11,1.93.21,2.89.36.21.03.43.04.64.05l.64.1c.55.05,1.09.11,1.64.26.17.05.15.13,0,.26-.14.12-.41.34-.72.43l-.83.23c-.28.07-.55.24-.83.25-.55.03-1.11.05-1.67-.04-.67-.12-1.37,0-2.05-.02-.76-.01-1.51-.05-2.27-.08-.47-.02-.93-.05-1.4-.07-.71-.02-1.41-.1-2.11-.07-.54.01-1.08.18-1.62.24-.12.01-.24.05-.36.05-.44,0-.58-.15-.66-.71-.02-.13-.04-.26-.05-.39-.03-.43.16-.79.48-.93.97-.43,1.97-.45,2.97-.43.75,0,1.5.11,2.25.16v.05Z"/><path class="cls-1" d="M361.08,97.18l-1.17-9.34-.58-4.71c-.1-.79-.19-1.59-.26-2.4-.04-.41-.06-.82-.08-1.25v-.42c-.01-.18,0-.35,0-.52,0-.35.07-.68.17-.99.14-.48.47-.89.88-1.15.38-.19.8-.3,1.19-.46.45-.15.68-.17.96-.24.53-.09,1.06-.17,1.57-.22,1.03-.12,2.04-.19,3.05-.24,8.18-.27,16.23-.02,24.31-.05,3.58,0,7.18-.13,10.73-.24,4.56-.14,9.09-.63,13.67-.47,1.45.18,1.27.2.12.79-1.14.68-3.31,1.54-5.96,1.87-2.34.25-4.69.41-7.03.56-2.34.14-4.69.26-7.03.26-4.69.05-9.38-.01-14.09-.14-2.81-.07-5.68-.06-8.56.02-2.87.08-5.77.19-8.55.44-.54.05-1.06.11-1.57.19l-.66.11c-.09.02-.19.04-.28.08-.13.02-.18.14-.19.25-.02.12-.02.22-.02.36,0,.59.03,1.23.08,1.86.09,1.27.23,2.56.4,3.85l1.01,7.76c.5,3.87.97,7.75,1.38,11.64.62,5.89,1.03,11.83,1.25,17.71.17,4.57.3,9.07.07,13.62-.05,1-.09,1.98-.19,2.99-.17,1.87-.41,3.09-.72,3.93-.28.84-.62,1.28-1.02,1.62-.18.15-.36.36-.51.44-.47.27-.71-1.31-.56-3.98.6-7.9.51-16.28-.03-24.71-.41-6.26-1.04-12.54-1.84-18.81l.07-.02Z"/><path class="cls-1" d="M414.23,146.21c1.55-.2,3.09-.43,4.55-.77.73-.16,1.43-.38,1.96-.61l.26-.13s.05-.03.07-.08c.05-.02.19-.4.3-.64.41-1.29.66-2.85.83-4.38.18-1.55.3-3.12.39-4.69.13-2.3.12-4.62.16-6.94.14-8.18-.13-16.39-.68-24.57-.23-3.63-.6-7.28-1.06-10.85-.58-4.6-1.24-9.2-1.96-13.78-.08-1.47-.1-1.27.5-.15.58,1.12,1.56,3.25,2.22,5.88.53,2.34,1.03,4.69,1.42,7.05.36,2.37.67,4.74.93,7.12.26,2.38.49,4.76.65,7.16.13,2.39.24,4.79.29,7.2.13,5.75.46,11.73.36,17.64-.07,3.25-.19,6.49-.59,9.77-.23,1.65-.41,3.26-1.12,5.04-.17.42-.52,1.04-1.04,1.4-.5.36-.92.53-1.35.69-.85.32-1.66.52-2.48.7-4,.83-7.98,1.17-11.96,1.45-6.03.4-12.1.44-18.09.32-4.66-.1-9.23-.19-13.85-.65-1.02-.11-2.01-.18-3.04-.34-1.9-.27-3.13-.58-3.97-.93-.84-.32-1.27-.72-1.58-1.16-.14-.2-.34-.4-.41-.56-.23-.52,1.38-.68,4.07-.38,7.99.96,16.54,1.3,25.12,1.25,6.36-.06,12.8-.28,19.07-1.1l.02.07Z"/><path class="cls-1" d="M376.28,100.48c-.88.03-1.75.04-2.66.02-.72-.02-1.58-.04-2.19-.31-.14-.08-.29-.15-.42-.25-.06-.06-.12-.12-.15-.2-.12,0-.09-.12-.14-.17-.06-.15-.16-.23-.18-.43l-.08-.54-.03-.95-.03-.55c-.02-.33-.05-.66-.09-.99-.09-.84-.28-1.68-.4-2.54-.21-1.52-.48-3.03-.66-4.64-.12-1.16-.26-2.62.81-2.99.45-.2,1.1-.13,1.69-.08.15.01.3.03.45.05l.29.05.58.09c1.36.22,2.72.36,4.05.44.86.05,1.72.06,2.56.05.85.02,1.68.11,2.55.1.53-.02.5.01.12.37-.19.17-.48.43-.86.71-.38.27-.87.5-1.39.65-1.89.27-3.73.22-5.54.13l-1.35-.09-.67-.06-.33-.03c-.11,0-.25-.02-.22-.03-.05-.03-.13-.07-.23-.1-.13-.05-.16.06-.2.14-.02.06-.04.11-.04.21,0,.01.01.2.03.31l.05.39c.07.53.17,1.06.27,1.6.2,1.08.46,2.17.64,3.27.1.62.2,1.24.27,1.88.07.57.15,1.47.13,1.53.01.11-.04.26.01.36.1.06.22.07.34.08l.18.02c.07,0,.09.01.27.01h.86c1.46-.02,2.94-.1,4.4-.23l1.97-.2.96-.13c.19-.03.37-.05.55-.11.25-.12.26-.44.29-.68.01-.09.02-.36.02-.56,0-.21,0-.43-.02-.65-.04-.84-.17-1.68-.32-2.52l-.42-2.53c-.06-.37-.14-.74-.19-1.12-.1-.7-.09-1.18.02-1.53.09-.35.29-.56.56-.74.12-.08.22-.18.32-.23.28-.15.86.36,1.2,1.35.43,1.48.84,3.03,1.14,4.65.11.82.2,1.65.25,2.52.02.44.03.88,0,1.39-.05.8-.2,1.63-.66,2.22-.15.17-.31.35-.48.49-.44.28-.99.44-1.56.54l-.58.1-.45.06c-.6.08-1.19.15-1.77.2-1.17.11-2.34.2-3.52.26v-.06Z"/><path class="cls-1" d="M323.58,187.51c-.87.02-1.75.02-2.66,0-.68-.03-1.59-.03-2.18-.31-.15-.07-.29-.15-.42-.25-.05-.07-.1-.14-.13-.22v-.03s-.02,0-.02,0h0s0,0,0,0c.05-.05-.07.06-.06.05h0s-.03-.06-.03-.06l-.05-.1c-.06-.15-.16-.23-.18-.43l-.09-.54-.03-.95-.04-.54c-.02-.33-.06-.66-.1-.99-.1-.84-.31-1.67-.45-2.52l-.39-2.29-.19-1.18-.05-.39-.05-.47c-.03-.31-.04-.62-.02-.91.05-.56.19-1.11.69-1.38.43-.22,1.02-.26,1.64-.2.29.02.64.05.85.07l.58.07,1.15.18c1.36.2,2.72.33,4.06.4.86.04,1.72.04,2.57.03.85.02,1.69.11,2.55.11.53-.02.5.01.12.37-.19.17-.49.42-.87.71-.39.27-.86.5-1.39.65-1.88.28-3.71.24-5.53.18-.91-.04-1.81-.11-2.69-.19-.22-.02-.44-.06-.66-.09l-.16-.02h-.04s-.07-.05-.07-.05c-.08-.03-.21-.1-.35-.1-.11.07-.11.23-.11.39,0,.07,0,.03.02.17l.07.39.16.79c.22,1.07.51,2.15.71,3.26.12.62.22,1.25.31,1.88l.11.96.02.24v.12s0,.04,0,.04v.18c.01.11-.04.26.02.36.1.06.22.07.34.08l.18.02h.28s.86.02.86.02c1.46,0,2.94-.07,4.41-.18.83-.06,1.65-.13,2.47-.21l1.22-.14.44-.07c.12-.02.23-.04.35-.08.16-.07.22-.25.25-.41.01-.08.03-.16.03-.25v-.29c.01-.8-.11-1.64-.26-2.47l-.44-2.51c-.06-.37-.15-.73-.2-1.12-.1-.7-.1-1.18,0-1.54.08-.35.29-.57.56-.74.12-.08.22-.18.32-.23.28-.15.86.36,1.21,1.34.42,1.38.82,2.82,1.12,4.34.14.77.22,1.55.25,2.4v.66s-.03.5-.03.5c0,.21-.04.38-.09.56-.12.74-.54,1.32-1.03,1.83-.32.19-.69.35-1.1.44l-.44.09-.38.07-.48.07-.94.12c-.62.07-1.24.13-1.86.18-1.23.1-2.46.17-3.7.23v-.06Z"/><path class="cls-1" d="M389.51,111.24c1.86.03,3.72-.02,5.6-.03.68,0,1.36-.09,2.04-.1,2.41-.01,4.83-.05,7.25-.14,1.07-.05,2.15-.13,3.21-.21,1.36-.08,2.74-.35,4.14.07.43.15.38.17.03.43-.35.3-.97.83-1.74,1-1.37.22-2.74.45-4.12.64-1.39.14-2.78.23-4.19.26-1.69.03-3.42.33-5.14.48-1.89.17-3.79.24-5.7.29l-3.52.06c-1.78.02-3.57-.02-5.34-.04-1.38,0-2.75.11-4.18.03-.32-.02-.63-.05-.94-.1-1.2-.22-1.48-.77-1.49-1.41,0-.15-.02-.31,0-.44.03-.23.19-.4.45-.56.25-.15.6-.32.97-.32,1.12-.08,2.26-.07,3.45-.05.58.03,1.2.01,1.81.03.61.02,1.22.03,1.84.03,1.83.03,3.71.05,5.58.01v.07Z"/><path class="cls-1" d="M330.34,196.74c1.7.09,3.41.09,5.13.14.63.02,1.25-.05,1.88-.03,2.21.05,4.43.08,6.65.04.98-.02,1.97-.08,2.95-.13,1.25-.05,2.51-.28,3.79.12.4.14.35.16.03.41-.32.28-.9.77-1.61.92-1.26.19-2.53.38-3.8.53-1.28.1-2.56.16-3.86.15-1.55-.02-3.15.23-4.73.32-1.74.11-3.49.12-5.24.11l-3.23-.05c-1.63-.04-3.27-.14-4.91-.22-.64-.01-1.27-.02-1.91-.03-.64,0-1.28,0-1.93-.08-.29-.03-.57-.06-.86-.11-1.08-.24-1.32-.73-1.32-1.34,0-.14-.02-.29,0-.41.03-.22.18-.38.42-.52.24-.14.57-.29.91-.29.49.04,1.07-.08,1.58-.02.51.05,1.07.03,1.61.08.54.05,1.1.06,1.65.09.56.03,1.11.08,1.69.09,1.68.09,3.39.18,5.11.19v.06Z"/><path class="cls-1" d="M328.39,207.56c1.44.09,2.9.08,4.36.13.53.02,1.06-.05,1.6-.04,1.89.04,3.78.06,5.68.03.84-.03,1.68-.08,2.52-.13,1.07-.05,2.15-.26,3.24.14.34.15.3.16.02.41-.27.28-.76.77-1.36.91-1.07.19-2.14.37-3.22.51-1.09.1-2.18.16-3.29.15-1.32-.01-2.68.24-4.04.33-1.49.12-2.98.13-4.48.13-.92-.02-1.84-.02-2.77-.06-1.4-.03-2.8-.15-4.2-.24l-1.64-.05c-.55,0-1.1-.02-1.67-.09-.25-.02-.49-.05-.73-.1-.92-.25-1.09-.69-1.06-1.3,0-.14,0-.28.02-.41.04-.21.17-.38.39-.53.21-.14.51-.3.81-.31.44.02.91-.07,1.35-.03.44.04.89.06,1.35.08.93.07,1.86.14,2.8.21,1.41.08,2.85.19,4.31.2v.06Z"/><path class="cls-1" d="M326.04,218.38c1.12.1,2.26.07,3.42.11.42.01.84-.06,1.26-.05,1.5.03,3.01.03,4.52,0,.67-.02,1.34-.07,2-.12.85-.04,1.71-.24,2.58.17.27.15.24.16.02.41-.21.27-.59.77-1.06.89-.84.17-1.68.34-2.53.48-.85.09-1.71.15-2.59.15-1.05,0-2.12.25-3.19.36-1.18.13-2.38.16-3.58.16-.74-.01-1.48-.02-2.22-.06-1.12-.04-2.25-.2-3.37-.29-.87-.1-1.76-.06-2.65-.17-.2-.02-.39-.04-.58-.1-.71-.2-.82-.62-.75-1.22.02-.14.02-.28.05-.4.05-.21.17-.38.35-.53.18-.15.44-.32.69-.34.37-.01.74-.07,1.1-.05.36,0,.7.07,1.06.09.36.03.71.07,1.06.12.36.03.72.07,1.08.12,1.08.1,2.19.22,3.32.23v.06Z"/><path class="cls-1" d="M387.1,121.2c1.37.06,2.74.1,4.13.08.5,0,1.01-.08,1.51-.08,1.79-.02,3.59.05,5.4.06.8,0,1.6-.02,2.4-.03,1.02,0,2.05-.06,3.06.26.32.08.27.17,0,.36-.19.13-.38.26-.55.38-.22.16-.49.3-.77.34-1.02.19-2.02.43-3.04.55-1.02.09-2.05.14-3.09.14-1.24,0-2.53.21-3.8.3-1.4.08-2.82.14-4.23.16-.87.02-1.75,0-2.62,0-.66,0-1.33-.04-1.99-.05-.66-.05-1.32-.07-1.98-.1-.51-.02-1.02,0-1.54.02l-1.54.02c-.23,0-.45.02-.68,0-.84-.14-1.07-.37-1.12-1.07-.01-.16-.04-.32-.03-.47.02-.52.43-.89,1.03-.99,1.78-.24,3.54-.11,5.36-.07,1.35.05,2.71.15,4.09.16v.06Z"/><path class="cls-1" d="M387.13,131.25c1.18.05,2.38.07,3.58.05.44,0,.87-.09,1.31-.1,1.56-.02,3.13-.05,4.69-.07.7-.02,1.39-.09,2.07-.17.88-.08,1.77-.2,2.68.23.28.08.25.17.03.38-.11.12-.26.24-.44.49-.09.11-.19.27-.29.36-.11.07-.22.13-.35.17-.87.33-1.75.42-2.64.51-.89.09-1.79.14-2.7.13-1.09-.04-2.21.2-3.32.29-1.22.09-2.46.15-3.7.17-.76.02-1.53.01-2.29,0-1.16,0-2.32-.08-3.47-.12-.89-.04-1.79.1-2.68.04-.2,0-.39-.01-.58-.05-.72-.13-.92-.36-.98-.94-.01-.13-.04-.26-.04-.39,0-.41.35-.76.88-.88,1.58-.42,3.11-.29,4.69-.3,1.17.06,2.35.13,3.54.13v.06Z"/><path class="cls-1" d="M354.53,167.42c1.54.02,3.08.05,4.66.15.4.03.8.06,1.21.1l.63.08c.22.03.38.05.78.13.69.14,1.35.37,1.84.84.06.06.09.15.16.19l.12.21c.08.15.18.27.23.43l.3.89c.58,1.58.84,3.11,1.2,4.66.24,1.54.54,3.07.72,4.6l.44,3.35c.12,1.11.24,2.23.33,3.35.6,7.87.68,15.74.54,23.59-.07,3.48-.17,6.99-.31,10.45-.11,2.22-.2,4.45-.5,6.67-.12,1.11-.27,2.22-.49,3.33-.08.56-.24,1.1-.4,1.64-.2.54-.43,1.07-.63,1.59-.56,1.3-.43,1.12-.48-.08-.04-.61-.12-1.45-.32-2.48-.14-1.02-.06-2.16-.05-3.43.48-8.91.49-17.9.58-26.96.04-5.43-.45-11.06-1.04-16.55-.14-1.51-.38-3.01-.56-4.51-.24-1.49-.47-2.99-.78-4.44l-.51-2.17c-.08-.36-.22-.69-.33-1.04l-.27-.82c-.03-.08-.04-.16-.09-.23-.06-.06-.14-.09-.21-.12-.18-.05-.23-.07-.65-.13-.7-.1-1.44-.14-2.19-.18-3.7-.16-7.49-.1-11.25-.06-5.72.05-11.47.1-17.15.15-4.42.02-8.77.14-13.17-.03-.97-.04-1.92-.06-2.9-.14-1.81-.15-3.01-.34-3.82-.62-.81-.32-1.25-.66-1.56-1.09-.14-.2-.34-.4-.41-.58-.12-.3.2-.5.87-.63.67-.13,1.7-.25,2.99-.15,7.66.35,15.81.29,24.03.2,6.11-.07,12.24-.22,18.44-.23v.08Z"/><path class="cls-1" d="M309.69,218.31l-.19,9.05c-.02,1.5-.04,3.01-.02,4.49,0,.74.04,1.48.09,2.2.02.35.06.74.09,1.02.02.14.02.2.05.3.02.07.09.09.16.1.03,0,.06.02.1.02l.24.04c.49.07,1.02.11,1.55.15,1.06.09,2.15.14,3.23.22,7.69.44,15.46.56,23.2.47,3.44-.05,6.89-.21,10.29-.46,2.18-.16,4.36-.34,6.54-.53,1.09-.09,2.17-.22,3.25-.28l1.62-.09c.55,0,1.09.01,1.66.09.71.13,1.03.18,1.02.23,0,.05-.32.15-.84.55-1.02.83-3.08,2.1-5.64,2.35-2.26.28-4.51.5-6.77.66-2.26.12-4.52.21-6.77.26-4.52.1-9.04.06-13.58-.11-5.43-.22-11.06-.11-16.67-.54-.77-.06-1.55-.16-2.35-.28-.2-.04-.39-.06-.73-.14-.3-.08-.58-.2-.86-.29-.58-.21-.94-.72-1.08-1.31-.07-.3-.13-.61-.16-.9-.04-.32-.04-.44-.07-.67-.03-.4-.05-.79-.06-1.18l-.05-2.32c-.03-3.07.02-6.11.06-9.16.05-3.75.11-7.49.12-11.23,0-5.66-.02-11.35-.34-16.96-.25-4.36-.77-8.6-1.41-12.84-.16-.93-.31-1.84-.47-2.78-.53-3.47-.61-4.58,0-5.49.13-.2.24-.46.37-.6.41-.45,1.32.86,1.94,3.45,1.83,7.67,2.32,15.93,2.56,24.15.16,6.11.09,12.24.02,18.35h-.07Z"/><path class="cls-1" d="M168.77,61.68c5.9-1.53,12.36-1.34,18.09.85,2.07.81,4.09,1.75,5.94,2.98,3.24,2.17,6.12,4.99,8.07,8.45,1.95,3.43,2.76,7.6,1.89,11.47-.79,3.42-2.63,6.44-4.84,8.94-.37.45-.7.83-1.15,1.31-.58.66-1.21,1.22-1.85,1.81-.1.07-.22.17-.31.21l-.25.09-.49.18-.25.09s-.08.04-.13.03c-.05-.03-.07-.05-.09-.08-.08-.1-.13-.2-.2-.33-.12-.25-.25-.63-.27-1.24.03-.65.08-1.37.19-2.02.04-.67.05-.9.06-1.3,0-.37,0-.74-.03-1.1-.07-.72-.13-1.44-.33-2.14-.17-.59-.32-.84-.26-.86.05-.02.31.17.72.6.4.43.97,1.15,1.31,2.14.36.83.63,2.75.58,2.21,0-.02,0,.04.01-.05,0,.02-.01.04,0,.06h0s.22-.21.22-.21c.16-.15.32-.3.47-.46.63-.6,1.16-1.3,1.67-1.98,1.01-1.38,1.9-2.84,2.41-4.42,1.06-3.15.73-6.53-.58-9.64-.87-2.19-2.33-4.23-4.13-5.95-1.79-1.73-3.91-3.16-6.12-4.34-4.88-2.59-10.49-3.69-16.03-2.94-1.7.21-3.38.61-5.04,1.09-1.65.51-3.26,1.15-4.83,1.9-4.73,2.29-9.04,5.59-12.48,9.57-1.35,1.54-2.51,3.2-3.54,4.92-1.04,1.72-1.94,3.51-2.69,5.36-.36.8-.59,1.63-.92,2.45-1.06,3.09-1.37,4.07-2.37,4.59-.22.12-.45.3-.64.35-.34.1-.55-.21-.65-.88-.05-.34-.06-.76-.03-1.26.05-.49.15-1.06.28-1.7,1.73-7.52,6.34-14.71,12.49-20.1,4.56-4.03,10.05-7.1,16.03-8.7l.03.07Z"/><path class="cls-1" d="M165.59,108.33c.17,2.31.68,4.79,1.1,7.3.4,2.53.89,5.1.59,8.03-.1.78-.28,1.61-.67,2.44-.41.85-1,1.65-2.02,2.22-.79.42-1.73.52-2.58.29-1.2-.32-1.96-.87-2.68-1.39-.71-.52-1.35-1.06-1.95-1.54-.63-.52-1.03-.75-1.8-1.13-.68-.33-1.33-.6-1.93-.71-.6-.12-1.16-.09-1.77.09-.62.17-1.24.51-1.74.89-1.04.77-1.68,1.97-1.87,3.33-.15,1.2.03,2.5.55,3.64.53,1.16,1.25,2.12,2.27,2.93,1.26,1.06,2.83,1.72,4.42,2.15.79.23,1.61.36,2.44.41.21.03.41,0,.62.04.21.04.43.09.64.1.44.06.87.05,1.33.06,1.16.02,1.02-.11.23.65-.41.35-1.01.89-1.91,1.45-.9.47-2.07.64-3.31.54-1.1-.09-2.17-.38-3.18-.8-1.02-.41-2-.93-2.9-1.59-.89-.65-1.75-1.42-2.47-2.39-.7-.96-1.21-2.03-1.54-3.14-.67-2.21-.66-4.73.44-6.97.54-1.11,1.37-2.11,2.36-2.81,1.01-.71,2.02-1.19,3.24-1.43,1.4-.3,2.94-.03,4.09.44.59.23,1.13.49,1.65.74l.38.19.48.27c.28.18.54.36.78.53.95.7,1.78,1.39,2.61,1.91.4.25.81.45,1.12.54.23.07.38.06.56-.02.02-.03.13-.07.21-.15.52-.41.86-1.36.93-2.47.09-1.1.01-2.31-.13-3.53-.29-2.44-.83-4.92-1.25-7.46-.26-1.57-.5-3.16-.51-4.86,0-.85.06-1.73.38-2.67.17-.46.39-.97.77-1.36.17-.21.36-.4.56-.54.19-.15.39-.32.59-.42,1.22-.72,2.44-1.03,3.64-1.32,1.2-.28,2.39-.48,3.57-.66,2.36-.37,4.69-.7,6.94-1.2,3.45-.75,6.55-2.49,8.92-4.84.51-.53.96-1.08,1.4-1.66.82-1.07,1.25-1.83,1.66-2.32.4-.5.78-.74,1.27-.89.23-.07.47-.18.68-.21.36-.04.56.27.58.9.03.63-.2,1.56-.73,2.65-1.65,3.2-4.53,5.77-7.83,7.4-1.65.83-3.43,1.4-5.21,1.83-1.73.41-3.44.71-5.13,1.01-2.48.44-5.03.81-7.04,1.53-.49.18-.91.39-1.18.58-.06.05-.12.09-.18.13-.03.04-.05.07-.08.09-.06.06-.1.12-.15.28-.23.58-.27,1.75-.16,2.88h-.08Z"/><path class="cls-1" d="M194.4,166.7c-.3-.37-.61-.84-.89-1.09-.15-.14-.27-.31-.44-.45l-.54-.42c-.74-.56-1.63-1.05-2.53-1.5-.68-.31-1.39-.55-2.1-.83-2.49-1-5.12-1.82-7.79-2.44-1.19-.26-2.4-.49-3.59-.65l-2.31-.28c-.39-.06-.77-.15-1.15-.23-.38-.08-.76-.18-1.14-.35-.47-.21-.41-.32.02-.64.43-.36,1.25-.85,2.19-.94,1.65,0,3.27.14,4.9.34,1.62.25,3.21.68,4.79,1.18,1.88.63,3.9,1.03,5.83,1.75,2.1.82,4.22,1.78,6.01,3.58.99,1.08,1.76,2.21,2.52,3.38,1.11,1.78,2.01,3.68,2.83,5.57.64,1.47,1.35,2.89,1.89,4.42.12.33.26.66.35,1.01.33,1.3.19,1.78-.6,2.16-.17.09-.34.19-.51.25-.58.19-1.2-.23-1.53-1.06-1.01-2.45-1.96-5.02-3.15-7.5-.88-1.84-1.89-3.62-3.11-5.21l.05-.05Z"/><path class="cls-1" d="M198.53,177.66c1.36.51,2.7,1.04,4.03,1.6,1.34.54,2.67,1.11,4,1.68.97.42,1.97.75,2.92,1.2,3.39,1.52,6.72,3.17,10.04,4.82,1.47.74,2.95,1.49,4.41,2.22,1.86.96,3.81,1.85,5.3,3.48.47.48.36.46-.23.36-.3-.05-.71-.12-1.21-.18-.25-.03-.55-.03-.82-.09-.26-.08-.53-.17-.8-.29-3.85-1.67-7.72-3.37-11.5-5.38-2.28-1.17-4.79-2.07-7.21-3.06-2.67-1.08-5.34-2.13-8.04-3.14-1.67-.6-3.32-1.25-5-1.79-2.54-.86-5.1-1.69-7.68-2.31-1.01-.23-2.01-.43-3.01-.6l-3.02-.41c-.44-.07-.88-.09-1.33-.14-1.65-.2-2.13-.52-2.38-1.33-.06-.19-.14-.37-.17-.55-.08-.6.67-.98,1.95-.97,1.9.01,3.8.32,5.73.65,1.9.41,3.83.84,5.71,1.42,1.41.4,2.81.83,4.19,1.31,1.39.46,2.77.94,4.15,1.44l-.02.07Z"/><path class="cls-1" d="M252.19,123.76c.38.1.76.22,1.14.36l.57.2.36.15c.42.17.82.35,1.23.53.8.36,1.58.74,2.34,1.1.76.36,1.51.73,2.22,1.02.18.07.35.14.52.2l.32.11c.07.02.16.05.24.02.06-.03.11-.08.15-.13.02-.03.03-.05.06-.11.06-.1.11-.22.16-.36.21-.51.39-1.11.55-1.72.41-1.58.62-3.28.9-4.96.49-2.98.88-6,1.48-9.05l.12-.57c.04-.2.11-.58.18-.85.14-.59.28-1.19.47-1.72.36-1.09.83-1.91,1.41-2.41.07-.06.14-.13.22-.19l.26-.13c.18-.08.38-.16.62-.19.46-.03.91.21,1.23.46.69.49,1.11,1.29,1.44,2.26.27.89.39,1.93.48,2.94.03.81.06,1.43.04,2.15-.01,1.38-.07,2.75-.15,4.1-.19,3.46-.52,6.92-1.12,10.24-.17,1.01-.27.96-.73.05-.22-.45-.47-1.13-.73-1.93-.22-.81-.33-1.75-.34-2.75-.03-1.78.07-3.52.13-5.25.06-1.73.1-3.45.05-5.11l-.04-1.13s.02-.06.03-.1c.01-.08.03-.21-.01-.36-.02-.08-.06-.16-.12-.22-.07-.06-.12-.03-.17,0-.09.05-.17.16-.27.33-.03.05-.05.11-.08.17l-.04.1-.09.36c-.11.51-.22,1.02-.31,1.54-.19,1.04-.35,2.11-.5,3.18-.3,2.15-.57,4.33-.94,6.5-.21,1.21-.44,2.41-.77,3.64-.16.61-.36,1.24-.62,1.88-.12.28-.34.77-.63,1.15-.12.21-.29.37-.46.53-.16.17-.36.29-.55.43-.42.19-.88.26-1.35.21-.23-.01-.46-.06-.69-.11-.25-.05-.44-.12-.59-.16-.64-.21-1.2-.45-1.76-.7l-3.23-1.49c-.51-.23-1.03-.45-1.54-.66l-.54-.21-.39-.14c-.53-.17-1.12-.33-1.73-.23-.15.05-.33.09-.45.2-.07.16.08.3.16.41.37.41.81.77,1.25,1.16l.91.79,1.26,1.12c1.65,1.54,3.3,3.11,4.61,5.05.51.76.96,1.56,1.28,2.47.16.6.18,1.1.16,1.57,0,.48-.06.92-.11,1.37-.25,1.76-.65,3.44-1.12,5.11-.21.73-.41,1.46-.67,2.18-.96,2.69-1.67,3.42-2.65,3.6-.2.05-.39.15-.52.18-.22.03-.26-.24-.33-.82-.1-.6.09-1.35.38-2.3.87-2.79,1.81-5.78,2.26-8.61.05-.35.08-.68.1-.98,0-.15-.01-.25,0-.38-.02-.11-.01-.06-.03-.17-.19-.56-.49-1.14-.86-1.72-.75-1.15-1.75-2.28-2.84-3.34-.61-.57-1.24-1.13-1.89-1.69l-2.76-2.29c-.34-.28-.66-.56-1.02-.84-.36-.28-.73-.56-.96-.84-.58-.57-.78-1.06-.89-1.47-.09-.41-.12-.73,0-1.11.05-.19.18-.53.34-.71.14-.22.36-.38.56-.54.6-.44,1.33-.68,2.21-.8.89-.09,2.01.06,3.16.37l.02.08Z"/><path class="cls-1" d="M253.33,151.77c-.06.01-.07.02-.13.11-.2.39-.41.81-.61,1.24l-1.21,2.64c-.81,1.78-1.58,3.59-2.42,5.37-.61,1.3-1.15,2.63-1.79,3.92-2.26,4.54-4.66,9.03-7.3,13.38-1.19,1.92-2.41,3.84-3.74,5.66-.85,1.17-1.73,2.34-2.78,3.37l-.8.76-.85.7c-.26.25-.62.41-.95.58-.32.18-.64.36-.98.51-.83.38-.72.29-.19-.27.27-.27.62-.69.92-1.3.34-.56.79-1.13,1.24-1.78.83-1.12,1.64-2.28,2.42-3.45.77-1.18,1.49-2.41,2.2-3.65,1.4-2.5,2.81-5.01,4.23-7.53,1.7-3.04,3.03-6.43,4.44-9.71,1.54-3.62,3.13-7.2,4.78-10.85l.41-.85.28-.53c.1-.21.24-.39.38-.57.13-.18.27-.37.46-.49.2-.11.4-.21.62-.27.43-.14.9-.16,1.35-.14.25,0,.42.02.58.04.17.02.34.04.5.07.32.05.65.11.96.19.63.14,1.23.3,1.84.46,3.64,1.01,7.08,2.46,10.47,3.91,2.63,1.14,5.24,2.21,7.79,3.55.56.29,1.12.57,1.67.9,2.03,1.26,2.52,1.95,2.4,2.89-.03.21-.02.45-.09.63-.24.62-1.24.42-2.67-.35-4.28-2.26-9-4.45-13.81-6.36-1.79-.7-3.6-1.36-5.41-1.91-.9-.26-1.8-.55-2.69-.66-.43-.06-.87-.12-1.24-.13h-.14s-.02,0-.03,0h-.02s-.03,0-.04,0l-.04-.07Z"/><path class="cls-1" d="M146.61,220.79c-1.08,3.8-2.23,7.58-3.48,11.33-.44,1.37-.84,2.75-1.32,4.11-1.74,4.77-3.67,9.46-5.66,14.11-.88,2.06-1.71,4.16-2.56,6.22-1.14,2.62-2.06,5.35-3.74,7.73-.59.71-.64.56-.72-.3-.05-.43-.05-1.02-.02-1.71.02-.34.03-.72.1-1.09.09-.37.2-.75.35-1.13,2.03-5.44,4.22-10.78,6.48-16.17,1.38-3.21,2.35-6.72,3.49-10.1.63-1.86,1.2-3.74,1.8-5.61.55-1.89,1.15-3.76,1.65-5.66.66-2.33,1.27-4.67,1.84-7.02.41-1.79.83-3.57,1.24-5.36.36-1.8.74-3.59,1.04-5.38.22-1.4.4-2.79.56-4.18.13-1.39.27-2.78.4-4.17.05-.61.1-1.22.15-1.83.29-2.28.66-2.97,1.55-3.35.2-.09.4-.21.58-.25.58-.15,1.08.87,1.08,2.59-.08,5.08-.92,10.36-1.97,15.61-.77,3.9-1.75,7.79-2.75,11.64h-.08Z"/><path class="cls-1" d="M155.37,254.77c4.79-.37,9.56-.49,14.33-.49,1.74,0,3.48-.08,5.21-.03,6.12.16,12.22.57,18.31,1.12,2.7.24,5.42.48,8.1.72,1.73.17,3.46.32,5.19.58.43.07.87.13,1.3.22.43.11.86.23,1.28.35.21.08.43.11.64.23l.6.36c.4.24.78.55,1.18.78.5.31.67.57.6.62-.07.07-.36,0-.83.04-.48.01-1.19.26-2.03.61-.42.18-.83.16-1.28.23-.22.02-.45.04-.69.05-.23-.02-.46-.04-.7-.08-3.37-.49-6.84-.83-10.3-1.17-3.47-.32-6.95-.72-10.46-1.08-4.2-.44-8.59-.4-12.89-.44-4.74-.04-9.48,0-14.2.29-2.9.18-5.81.42-8.67.83-2.17.31-4.34.68-6.44,1.22-2.1.54-4.18,1.21-5.97,2.25-1.38.79-2.55,1.91-2.86,3.15-.15.61-.12,1.28.1,1.83.22.56.62,1.06,1.16,1.49.47.38,1.04.67,1.63.96,2.28,1.01,3.15,1.16,3.54,2.12.1.19.25.37.31.52.21.42-1.07,1.06-3.24.5-1.59-.42-3.27-1.01-4.75-2.43-.73-.71-1.36-1.69-1.63-2.81-.27-1.1-.24-2.28.13-3.38.36-1.11,1.03-2.01,1.73-2.73.71-.73,1.48-1.3,2.27-1.77,1.57-.95,3.18-1.62,4.81-2.14,4.82-1.51,9.68-2.11,14.51-2.58v.08Z"/><path class="cls-1" d="M200.04,178.3c-.3,0-.59-.03-.88-.06-.1,0-.2.01-.31,0-.36-.06-.71-.14-1.05-.22-.15-.03-.3-.05-.45-.07-.19-.02-.39-.04-.56-.15-.11-.06.14-.48.34-.51.37-.02.71-.04,1.07.02.22.04.44-.04.65-.07.24-.04.47-.07.71-.12.15-.03.29-.06.43-.1.21-.07.44-.12.62-.25.15-.09.25-.27.36-.41.02-.03.04-.08.07-.1.1-.1.19-.03.44.32l.17.24c.19.27.28.54.22.68-.18.41-.53.66-.94.73-.29.07-.6.08-.9.1v-.03Z"/><path class="cls-1" d="M189.18,111.12c-.15-.67-.49-1.43-.77-2.2-.06-.14-.17-.34-.21-.4-.03-.02-.04-.05-.06-.08-.07-.14-.21-.24-.44-.24-.41,0-.92.14-1.41.32-.44.16-.85.42-1.24.69-.26.16-.53.31-.8.47-.29.12-.63.19-.96.25-.22.03-.31-.15-.34-.48-.02-.32-.04-.89.15-1.27.21-.28.46-.5.7-.75.26-.22.56-.39.86-.56.61-.33,1.28-.63,2.09-.76.42-.06,1.2-.25,1.83-.13.66.08,1.28.44,1.65,1,.02.02.01.05.04.06.3.45.49.79.72,1.2.21.4.38.83.55,1.27.2.56.4,1.11.48,1.87,0,.16,0,.35-.02.51-.06.23-.1.45-.27.68-.09.12-.21.23-.32.32-.11.09-.23.11-.35.16-.11.04-.26.08-.35.08h-.23c-.6.02-1.3-.26-1.71-.68-.65-.64-1.03-1.27-1.35-1.89-.06-.14-.15-.26-.19-.4-.16-.52-.04-.7.62-.99.14-.06.28-.13.41-.18.42-.17,1.01-.09,1.25.22.39.45.69.9.92,1.16.1.14.24.18.2.19-.32.31-.31.47-.28.31.03-.11.01-.13.02-.33,0-.06-.01-.21-.01-.17h0s0,0,0,0h0s.14,1.08.14,1.08h0s0,.06,0,.06c0,.04,0,.07.01.11.01.04.03.08.05.11.02.04.06.09.04.06-.01-.02-.03-.02-.03-.01.01.02-.03-.02-.08-.04-.04-.02-.09-.04-.14-.05-.11-.03-.13.01-.34-.04-.17-.03-.35-.03-.51-.01-.08,0-.17.02-.25.04-.08,0-.02,0-.04-.01,0-.03.01-.04,0-.1-.02-.11-.05-.25-.1-.41l.06-.03Z"/><path class="cls-1" d="M428.57,65.59c.06.21-.15.35-.47.51-.1.05-.39.05-.43-.03-.08-.14-.16-.29-.21-.45-.09-.12-.01-1.55.03-2.06.05-.46.14-.94.29-1.36.27-.9.59-1.75,1.04-2.54.09-.18.22-.33.36-.48.49-.49.86-1.05,1.17-1.66.05-.1.13-.19.11-.34-.08-.28,1.05-1.72,1.27-1.85.52-.34.99-.71,1.49-1.06.08-.04.12-.12.27-.1.33.05.43-.1.58-.21.21-.15.42-.3.66-.41.12-.06.31-.05.47-.07.15-.01.31.22.31.27,0,.15.16.18.25.25.03.03.07.06.1.09.03.03-.05.44-.13.84-.08.41-.14.85-.18.92,0,0-.05.14-.15.32-.1.17-.24.39-.38.62-.28.46-.55.94-.6,1.05-.05.11-.17.17-.27.24-.02.02-.22.39-.41.75-.22.35-.43.7-.45.72-.23.24-.35.55-.74.68-.08.02-.11.09-.14.14-.3.47-.71.87-1.06,1.31-.19.22-.3.48-.48.7-.03.04-.09.07-.13.1-.05.04-.12.08-.15.13-.38.55-.83,1.07-1.09,1.67-.05.13-.57.71-.57.88-.02.08-.36.33-.34.43Z"/><path class="cls-1" d="M432.34,70.75c-.04.19-.28.15-.64,0-.12-.05-.38-.29-.39-.36-.01-.14-.03-.28-.02-.4,0-.07.46-.94.62-1.25.14-.3.34-.56.55-.8.43-.49.85-.99,1.31-1.45.1-.1.22-.19.35-.25.46-.21.84-.53,1.19-.89.06-.06.13-.1.14-.23.01-.2,1.07-1.09,1.28-1.08.47-.07.91-.18,1.35-.26.06-.01.1-.07.21,0,.24.17.33.07.46.03.17-.06.37-.07.58-.06.1,0,.25.1.37.16.12.06.23.4.22.44-.02.14.11.26.18.39.02.04.06.1.07.14.02.07-.48,1.23-.58,1.24-.03,0-1.12.89-1.21,1.03-.06.06-.16.05-.26.05-.05,0-.9.71-.94.73-.22.09-.36.28-.68.23-.06,0-.1.02-.13.05-.31.24-.7.4-1.05.59-.18.1-.33.24-.5.36-.03.02-.08.02-.12.04-.05.02-.1.03-.14.06-.37.31-.82.55-1.13.93-.08.08-.61.31-.69.42-.05.06-.41.05-.42.13Z"/><path class="cls-1" d="M435.91,75.27c-.06.13-.17-.08-.35-.48-.06-.13-.16-.53-.15-.6.03-.13.05-.25.09-.34.02-.06.55-.42.75-.54.19-.13.39-.18.59-.21.41-.05.83-.11,1.25-.11.09,0,.19.02.27.08.3.18.6.22.92.23.05,0,.1.03.18-.05.12-.14.99.08,1.07.19.21.24.42.45.6.7.03.03.08.02.06.14-.05.26.04.26.1.32.09.08.16.17.21.3.02.06-.01.21-.03.34-.02.11-.26.41-.29.44-.1.07-.17.24-.26.37-.03.04-.07.1-.09.14-.07.07-.81.36-.84.35-.01,0-.68-.13-.75-.12-.04,0-.06-.06-.08-.11-.01-.03-.55-.04-.56-.05-.09-.07-.21-.01-.28-.24-.01-.05-.04-.04-.06-.04-.19-.02-.36-.14-.55-.22-.1-.04-.2-.02-.3-.04-.02,0-.03-.03-.05-.05-.02-.02-.04-.04-.07-.04-.24,0-.48-.11-.72-.02-.05.01-.35-.17-.41-.13-.03.02-.21-.25-.24-.2Z"/></svg>