<?xml version="1.0" encoding="UTF-8" standalone="no"?><!DOCTYPE svg PUBLIC "-//W3C//DTD SVG 1.1//EN" "http://www.w3.org/Graphics/SVG/1.1/DTD/svg11.dtd"><svg width="100%" height="100%" viewBox="0 0 287 304" version="1.1" xmlns="http://www.w3.org/2000/svg" xmlns:xlink="http://www.w3.org/1999/xlink" xml:space="preserve" xmlns:serif="http://www.serif.com/" style="fill-rule:evenodd;clip-rule:evenodd;stroke-linejoin:round;stroke-miterlimit:2;"><path d="M74.071,152.326c-4.166,-54.069 55.954,-81.408 94.126,-62.095c31.687,16.032 43.839,40.125 34.678,80.86c-3.391,12.844 -8.904,25.031 -16.312,36.058c-9.135,14.52 -20.323,27.761 -30.814,41.41c-8.442,10.983 -19.193,12.466 -28.767,2.357c-13.432,-14.182 -26.174,-29.118 -38.135,-44.565c-12.287,-15.868 -14.936,-34.976 -14.777,-54.024Zm66.792,86.339c12.372,-17.07 24.672,-32.246 34.816,-48.749c5.286,-9.552 8.953,-19.913 10.853,-30.663c6.309,-29.119 -19.607,-59.146 -48.829,-55.183c-26.468,3.589 -46.005,19.067 -44.715,47.267c0.286,6.636 0.937,13.252 1.949,19.817c4.639,29.546 30.735,44.038 45.926,67.511Zm16.379,60.97c12.908,0 25.817,-0.002 38.725,-0.005c6.375,-0.008 12.414,-1.348 12.396,-9.13c-0.019,-8.142 -6.502,-8.571 -12.661,-8.531c-26.171,0.174 -52.348,0.12 -78.51,0.708c-9.387,0.091 -18.733,1.247 -27.859,3.446c-4.244,1.089 -10.413,6.118 -10.525,9.532c-0.248,7.565 6.581,8.006 12.973,7.531c21.792,-1.617 43.602,-2.999 65.405,-4.47l0.057,0.918Zm-85.079,-227.08c1.255,-3.497 1.112,-7.347 -0.399,-10.742c-5.415,-7.635 -11.674,-14.636 -18.656,-20.869c-2.888,-2.494 -8.673,-1.632 -13.139,-2.297c0.293,4.862 -1.081,10.811 1.23,14.357c5.087,6.908 10.827,13.312 17.14,19.122c2.199,1.793 4.582,3.347 7.109,4.638c2.543,-1.492 6.224,-2.413 6.716,-4.208Zm166.408,-31.303c-3.155,-1.178 -6.685,-0.83 -9.549,0.942c-6.711,8.02 -12.864,16.49 -18.417,25.351c-0.951,2.827 -0.355,5.954 1.569,8.233c2.265,1.777 7.961,2.967 9.215,1.629c8.093,-8.633 15.378,-18.026 23.264,-27.576c-2.719,-4.059 -3.877,-7.798 -6.082,-8.579Zm25.584,95.014c-4.278,0 -9.086,-1.224 -12.69,0.335c-3.812,1.649 -6.478,5.947 -9.644,9.088c3.265,2.667 6.285,7.158 9.844,7.636c8.485,1.063 17.069,1.066 25.555,0.009c3.232,-0.379 6.028,-4.484 9.022,-6.891c-2.703,-3.239 -4.808,-7.832 -8.267,-9.362c-3.979,-1.76 -9.156,-0.811 -13.812,-1.039l-0.008,0.223Zm-115.641,-127.382c-1.741,-3.69 -6.452,-5.977 -9.85,-8.885c-2.399,3.837 -6.134,7.441 -6.857,11.572c-0.239,5.404 0.15,10.817 1.162,16.13c0.442,6.391 -1.345,14.87 8.558,14.578c9.269,-0.274 8.35,-8.472 8.661,-15.018c0.055,-1.162 0.008,-2.328 0.008,-6.732c0.186,-3.953 -0.384,-7.906 -1.681,-11.646Zm-116.967,144.434c3.882,-0.988 6.93,-5.253 10.354,-8.041c-3.471,-2.909 -6.763,-7.975 -10.449,-8.281c-8.103,-0.588 -16.247,0.196 -24.088,2.319c-3.904,1.737 -6.677,5.334 -7.365,9.551c-0.047,2.843 5.143,5.774 6.385,7.023c8.438,-0.251 16.848,-1.11 25.163,-2.571Zm112.35,-13.414c-0.703,-0.118 -1.415,-0.178 -2.128,-0.178c-7.026,0 -12.807,5.781 -12.807,12.807c0,0.032 0,0.064 0,0.095c-0.444,7.197 1.527,14.6 10.737,15.094c10.75,0.577 11.695,-8.041 14.089,-19.209c-2.42,-2.247 -5.825,-8.109 -9.891,-8.61Z" style="fill-rule:nonzero;"/></svg>