<?xml version="1.0" encoding="UTF-8" standalone="no"?><!DOCTYPE svg PUBLIC "-//W3C//DTD SVG 1.1//EN" "http://www.w3.org/Graphics/SVG/1.1/DTD/svg11.dtd"><svg width="100%" height="100%" viewBox="0 0 305 307" version="1.1" xmlns="http://www.w3.org/2000/svg" xmlns:xlink="http://www.w3.org/1999/xlink" xml:space="preserve" xmlns:serif="http://www.serif.com/" style="fill-rule:evenodd;clip-rule:evenodd;stroke-linejoin:round;stroke-miterlimit:2;"><path d="M284.285,102.565c0.379,-2.721 -0.45,-5.613 -3.188,-8.088c-29.838,-26.937 -57.604,-55.637 -82.229,-87.454c-2.821,-3.642 -6.392,-4.233 -9.55,-3.067c-50.35,-0.033 -100.671,-1.775 -150.992,-3.375c-9.304,-0.192 -18.604,-0.383 -27.908,-0.579c-5.558,-0.117 -10.517,4.867 -10.417,10.417c0.821,45.988 12.075,90.6 16.488,136.217c4.413,45.633 3.029,91.55 1.571,137.296c-0.183,5.733 4.925,10.275 10.417,10.417c87.95,2.238 177.242,16.975 265.104,10.475c5.167,-0.383 11.025,-4.479 10.417,-10.417c-6.558,-63.888 -13.121,-127.775 -19.679,-191.658c-0.004,-0.058 -0.025,-0.121 -0.033,-0.183Zm-33.692,-8c-15.396,1.287 -30.808,2.142 -46.263,2.613c-0.512,-17.525 -1.021,-35.046 -1.533,-52.571c15.042,17.496 31.054,34.05 47.796,49.958Zm-211.388,179.317c1.313,-42.417 2.208,-84.95 -1.883,-127.242c-4.067,-42.067 -13.95,-83.354 -16.1,-125.575c5.7,0.117 11.404,0.237 17.104,0.354c47.679,1.517 95.358,3.117 143.062,3.317c0.808,27.721 1.613,55.446 2.421,83.167c0.163,5.546 4.642,10.525 10.417,10.417c23.554,-0.446 47,-1.896 70.421,-4.233c5.837,56.863 11.679,113.725 17.517,170.588c-80.596,4.325 -162.287,-7.867 -242.958,-10.792Z" style="fill-rule:nonzero;"/><path d="M70.251,90.977c23.65,-5.192 49.621,-1.688 73.662,-0.983c13.412,0.396 13.4,-20.442 0,-20.833c-26.129,-0.767 -53.458,-3.925 -79.2,1.725c-13.092,2.875 -7.55,22.967 5.537,20.092Z" style="fill-rule:nonzero;"/><path d="M74.964,122.215c-13.379,-0.938 -13.321,19.9 0,20.833c23.779,1.667 47.896,-2.171 71.312,3.363c13.037,3.079 18.6,-17.004 5.537,-20.087c-25.421,-6.008 -51.083,-2.3 -76.85,-4.108Z" style="fill-rule:nonzero;"/><path d="M252.185,186.002c-59.033,-11.108 -118.412,-0.833 -177.887,-3.354c-13.404,-0.567 -13.379,20.267 0,20.833c57.446,2.433 115.367,-8.108 172.35,2.613c13.104,2.462 18.721,-17.613 5.537,-20.092Z" style="fill-rule:nonzero;"/><path d="M243.901,234.685c-13.204,-0.408 -26.404,-0.817 -39.608,-1.225c-13.412,-0.417 -13.396,20.417 0,20.833c13.204,0.408 26.408,0.817 39.608,1.225c13.413,0.417 13.396,-20.417 0,-20.833Z" style="fill-rule:nonzero;"/></svg>