<?xml version="1.0" encoding="UTF-8" standalone="no"?><!DOCTYPE svg PUBLIC "-//W3C//DTD SVG 1.1//EN" "http://www.w3.org/Graphics/SVG/1.1/DTD/svg11.dtd"><svg width="100%" height="100%" viewBox="0 0 370 355" version="1.1" xmlns="http://www.w3.org/2000/svg" xmlns:xlink="http://www.w3.org/1999/xlink" xml:space="preserve" xmlns:serif="http://www.serif.com/" style="fill-rule:evenodd;clip-rule:evenodd;stroke-linejoin:round;stroke-miterlimit:2;"><path d="M81.431,115.74c6.25,57.917 7.917,116.25 11.25,174.583c0.833,14.167 1.667,28.333 2.917,42.5c0.417,5.833 0.833,12.083 5,16.25c4.583,5 11.25,5 17.5,5c28.333,0.417 56.667,0 84.583,-1.25c31.667,-1.667 62.917,-5.417 94.167,-9.583c3.333,-0.417 5.833,-4.583 5.833,-7.5c0.417,-62.917 -2.083,-125.833 -14.583,-187.5c0.833,-1.25 0.833,-2.917 0.833,-4.167c0,-0.417 0,-0.833 -0.417,-1.667c-0.417,-2.083 -1.667,-3.333 -3.333,-4.167l-0.417,-0.417c-20,-15.417 -44.167,-25 -64.583,-40c-0.833,-1.25 -2.5,-2.5 -4.583,-2.5l-2.5,0c-41.25,3.75 -82.917,5.833 -124.167,10.417c-4.167,0.417 -7.917,3.333 -7.917,7.917l0,0.833c0.417,0.417 0.417,0.833 0.417,1.25Zm54.583,223.333c-6.667,0 -13.333,0 -20.417,-0.417c-0.833,0 -2.5,0.417 -3.333,0l-0.417,0l0,-0.417c-1.25,-1.667 -0.833,-7.083 -0.833,-9.167c-1.25,-13.333 -2.083,-26.25 -2.5,-39.583c-1.667,-27.083 -2.5,-54.167 -4.167,-80.833c-1.667,-29.167 -3.333,-58.333 -6.667,-87.5c36.667,-3.75 73.333,-6.25 110,-9.167c2.083,15.417 5.417,30.417 7.083,45.833c0.417,5.417 4.583,8.75 10,7.5c16.25,-3.333 32.5,-6.667 48.75,-10.417c11.667,57.5 13.75,115.833 13.75,174.167c-50.417,6.667 -100.417,10 -151.25,10Zm93.333,-190.833c-1.25,-9.583 -3.333,-18.75 -4.583,-28.333c12.083,7.5 25,14.167 37.083,21.667c-10.833,2.083 -21.667,4.167 -32.5,6.667Z" style="fill-rule:nonzero;"/><path d="M141.848,63.24c0.417,4.167 3.333,7.917 7.917,7.917c4.167,0 7.917,-3.75 7.917,-7.917c-1.25,-19.167 -3.75,-38.75 -6.667,-57.5c-0.833,-4.167 -5.833,-6.667 -9.583,-5.417c-4.583,1.25 -6.25,5.417 -5.417,9.583c2.5,17.5 4.583,35.417 5.833,53.333Z" style="fill-rule:nonzero;"/><path d="M367.681,47.406c-2.917,-2.917 -8.333,-3.333 -11.25,0c-16.25,18.75 -33.75,36.25 -52.5,52.917c-3.333,2.917 -2.917,8.333 0,11.25c2.917,2.917 7.917,2.917 11.25,0c18.333,-16.667 35.833,-34.583 52.5,-52.917c2.5,-3.333 2.917,-7.917 0,-11.25Z" style="fill-rule:nonzero;"/><path d="M5.598,137.406c16.667,3.333 33.333,5.833 50,7.5c4.167,0.417 7.917,-3.75 7.917,-7.917c0,-4.583 -3.333,-7.5 -7.917,-7.917c-15.417,-1.25 -30,-3.75 -45.833,-6.667c-4.167,-0.833 -8.75,1.25 -9.583,5.417c-0.833,4.167 1.25,8.75 5.417,9.583Z" style="fill-rule:nonzero;"/><path d="M63.514,86.156c1.667,1.25 3.333,2.083 5.417,2.083c2.083,0 4.167,-0.833 5.417,-2.083c1.25,-1.667 2.5,-3.333 2.083,-5.417c0,-2.083 -0.833,-4.167 -2.083,-5.417c-2.5,-2.5 -5,-5.417 -7.5,-8.333c-1.667,-2.083 -2.917,-3.75 -4.167,-5.833c-1.25,-1.667 -2.917,-2.917 -4.583,-3.75c-1.667,-0.417 -4.167,-0.417 -5.833,0.833c-1.667,1.25 -3.333,2.5 -3.75,4.583c-0.417,2.083 -0.417,4.167 0.833,5.833c4.167,6.25 8.75,12.083 14.167,17.5Z" style="fill-rule:nonzero;"/><path d="M218.931,69.49c4.583,0.833 8.333,-1.25 9.583,-5.417c3.75,-10 7.083,-20.417 10.833,-30.417c1.25,-3.75 -1.667,-8.75 -5.417,-9.583c-4.583,-0.833 -8.333,1.25 -9.583,5.417c-3.75,10 -7.083,20.417 -10.833,30.417c-1.25,3.75 1.667,8.75 5.417,9.583Z" style="fill-rule:nonzero;"/></svg>