<?xml version="1.0" encoding="UTF-8" standalone="no"?><!DOCTYPE svg PUBLIC "-//W3C//DTD SVG 1.1//EN" "http://www.w3.org/Graphics/SVG/1.1/DTD/svg11.dtd"><svg width="100%" height="100%" viewBox="0 0 179 179" version="1.1" xmlns="http://www.w3.org/2000/svg" xmlns:xlink="http://www.w3.org/1999/xlink" xml:space="preserve" xmlns:serif="http://www.serif.com/" style="fill-rule:evenodd;clip-rule:evenodd;stroke-linejoin:round;stroke-miterlimit:2;"><path d="M115.477,132.978c1.683,0.179 3.429,0.363 6.933,0.363c1.725,0 3.125,-1.4 3.125,-3.125c0,-3.917 -0.058,-5.879 -0.113,-7.842c-0.058,-1.912 -0.113,-3.825 -0.113,-7.654c0,-2.508 -0.525,-4.879 -1.354,-7.117c0.675,-0.058 1.287,-0.125 1.85,-0.196c1.433,-0.175 2.788,-0.342 6.075,-0.342c3.492,0 5.233,-0.013 6.979,-0.029c1.733,-0.013 3.463,-0.025 6.925,-0.025c3.396,0 5.1,0.083 6.796,0.158c1.775,0.088 3.546,0.167 7.088,0.167c1.375,0 2.508,-0.904 2.925,-2.138c0.158,-0.375 0.25,-0.787 0.25,-1.221c0,-3.183 -0.183,-4.796 -0.363,-6.358c-0.167,-1.454 -0.321,-2.829 -0.321,-5.65c0,-4.533 -1.858,-8.367 -5.683,-11.712c-2.883,-2.533 -6.483,-3.963 -10.992,-5.325c-0.342,-0.104 -0.708,-0.138 -1.054,-0.233c0.233,-0.2 0.504,-0.358 0.721,-0.575c3.075,-3.075 4.913,-7.338 4.913,-11.404c0,-4.162 -1.808,-8.454 -4.833,-11.483c-2.7,-2.7 -6.783,-4.192 -11.488,-4.192c-4.033,0 -7.692,1.613 -10.875,4.8c-3.354,3.363 -5.054,7.021 -5.054,10.875c0,3.962 1.675,7.646 4.979,10.95c0.225,0.221 0.471,0.379 0.7,0.587c-0.529,0.125 -1.058,0.225 -1.588,0.383c-0.942,0.283 -1.967,0.492 -2.987,0.7c-3.6,0.742 -8.079,1.667 -9.3,5.875c-0.317,1.1 -1.1,2.233 -1.925,3.429c-1.275,1.846 -2.646,3.946 -2.871,6.612c-0.033,-0.008 -0.058,-0.025 -0.088,-0.033c-0.425,-0.129 -0.867,-0.188 -1.304,-0.283c3.904,-4.079 3.921,-10.067 3.921,-14.054c0,-5.863 -1.483,-9.967 -4.821,-13.304c-4.35,-4.35 -8.737,-6.467 -13.408,-6.467c-5.167,0 -10.271,2.142 -13.996,5.875c-3.304,3.304 -5.054,8.146 -5.054,13.996c0,5.95 1.725,10.817 4.979,14.071c0.229,0.229 0.521,0.4 0.762,0.612c-0.675,0.154 -1.362,0.271 -2.017,0.471c-0.821,0.25 -1.554,0.592 -2.317,0.904c0.4,-1.079 0.217,-2.329 -0.625,-3.221c-0.683,-0.721 -0.779,-1.367 -0.933,-2.754c-0.204,-1.812 -0.483,-4.287 -2.983,-6.479c-2.888,-2.529 -6.283,-4.333 -10.688,-5.667c-0.55,-0.167 -1.15,-0.233 -1.713,-0.371c0.329,-0.279 0.683,-0.508 0.992,-0.817c3.025,-3.025 4.621,-6.838 4.621,-11.025c0,-4.429 -1.558,-8.429 -4.388,-11.258c-2.933,-2.938 -7.033,-4.621 -11.263,-4.621c-3.921,0 -7.583,1.679 -10.887,4.987c-3.546,3.546 -5.271,7.108 -5.271,10.887c0,3.892 1.767,7.712 5.108,11.046c0.237,0.237 0.517,0.408 0.763,0.625c-0.508,0.125 -1.021,0.237 -1.513,0.383c-4.371,1.325 -7.883,3.188 -10.746,5.696c-2.754,2.417 -6.404,5.663 -7.025,10.188c-0.225,0.483 -0.375,1 -0.325,1.571c0.262,2.958 0.35,4.438 0.438,5.925c0.087,1.483 0.179,3.004 0.433,5.896c0,0.054 -0.029,0.1 -0.029,0.154c0,1.725 1.4,3.125 3.125,3.125c3.429,0 5.146,0.05 6.863,0.096c1.758,0.05 3.517,0.096 7.037,0.096c3.654,0 5.517,-0.217 7.312,-0.429c1.696,-0.196 3.296,-0.383 6.588,-0.383c3.337,0 4.958,0.138 6.675,0.279c0.45,0.038 0.908,0.079 1.396,0.113c-1.321,2.217 -2.258,4.746 -2.258,7.612c0,0.192 0.075,0.354 0.108,0.538c0.004,3.525 0.071,5.267 0.129,6.946c0.067,1.717 0.129,3.433 0.129,7.246c0,1.725 1.4,3.125 3.125,3.125c3.063,0 4.55,0.271 6.129,0.567c1.7,0.313 3.629,0.667 7.263,0.667c3.383,0 5.075,-0.037 6.767,-0.075c1.654,-0.038 3.313,-0.075 6.625,-0.075c3.488,0 5.263,-0.167 6.975,-0.325c1.646,-0.154 3.196,-0.3 6.396,-0.3c3.429,0 5.146,-0.096 6.858,-0.2c1.629,-0.092 3.254,-0.188 6.508,-0.188c3.179,0.025 4.683,0.183 6.279,0.354Zm11.808,-76.717c1.996,-1.996 4.104,-2.967 6.454,-2.967c3.037,0 5.546,0.838 7.067,2.358c1.85,1.854 3.004,4.558 3.004,7.062c0,2.446 -1.15,5.058 -3.079,6.987c-1.575,1.575 -4.121,2.479 -6.992,2.479c-2.388,0 -4.583,-0.987 -6.529,-2.933c-2.092,-2.088 -3.15,-4.287 -3.15,-6.529c0,-2.171 1.058,-4.283 3.225,-6.458Zm-14.45,31.933c1.021,-1.479 2.179,-3.162 2.783,-5.238c0.167,-0.587 3.362,-1.246 4.562,-1.492c1.204,-0.25 2.421,-0.504 3.538,-0.842c3.204,-0.971 6.708,-1.108 10.021,-1.108c3.629,0 6.783,0.446 9.933,1.4c3.733,1.129 6.637,2.25 8.679,4.046c2.463,2.15 3.558,4.312 3.558,7.013c0,3.183 0.183,4.796 0.363,6.358c0.092,0.829 0.183,1.663 0.246,2.725c-1.475,-0.029 -2.583,-0.079 -3.642,-0.125c-1.775,-0.088 -3.546,-0.167 -7.087,-0.167c-3.488,0 -5.229,0.012 -6.975,0.029c-1.733,0.013 -3.463,0.025 -6.929,0.025c-3.667,0 -5.279,0.196 -6.837,0.388c-1.208,0.146 -2.433,0.279 -4.738,0.325c-0.588,-0.671 -1.133,-1.371 -1.821,-1.975c-2.042,-1.792 -4.592,-3.775 -7.513,-5.487l0,-2.096c0,-1.087 0.862,-2.333 1.858,-3.779Zm-33.292,-20.788c2.529,-2.529 6.108,-4.042 9.575,-4.042c2.971,0 5.825,1.475 8.988,4.633c2.125,2.129 2.992,4.704 2.992,8.888c0,4.146 -0.171,7.746 -2.25,9.825c-2.317,2.312 -5.95,3.696 -9.729,3.696c-3.683,0 -7.292,-1.408 -9.654,-3.771c-2.604,-2.6 -3.146,-6.683 -3.146,-9.65c-0,-2.896 0.558,-6.912 3.225,-9.579Zm-41.513,-11.162c2.121,-2.125 4.237,-3.154 6.467,-3.154c2.579,0 5.071,1.017 6.842,2.788c1.65,1.65 2.558,4.079 2.558,6.842c0,2.529 -0.942,4.75 -2.792,6.604c-1.758,1.758 -3.983,2.65 -6.608,2.65c-2.658,0 -4.888,-0.883 -6.629,-2.625c-1.496,-1.492 -3.279,-3.854 -3.279,-6.625c0,-2.071 1.092,-4.129 3.442,-6.479Zm8.342,44.217c-3.654,0 -5.517,0.217 -7.312,0.429c-1.696,0.196 -3.296,0.383 -6.588,0.383c-3.429,0 -5.146,-0.05 -6.863,-0.096c-1.179,-0.033 -2.4,-0.067 -4.104,-0.083c-0.104,-1.354 -0.167,-2.354 -0.225,-3.317c-0.079,-1.342 -0.167,-2.75 -0.367,-5.129c0.054,-0.225 0.137,-0.438 0.137,-0.679c0,-2.217 2.275,-4.392 5.025,-6.8c2.175,-1.908 4.938,-3.354 8.438,-4.413c2.729,-0.829 5.808,-1.196 9.983,-1.196c3.737,0 6.892,0.429 9.933,1.35c3.521,1.067 6.183,2.458 8.379,4.383c0.65,0.571 0.729,1.046 0.892,2.475c0.192,1.721 0.458,4.075 2.596,6.342c0.087,0.092 0.2,0.129 0.296,0.212c-0.575,0.475 -0.942,1.142 -1.058,1.917c-1.846,1.271 -3.562,2.642 -5.158,4.042c-0.267,0.237 -0.554,0.5 -0.833,0.758c-2.833,-0.021 -4.396,-0.142 -5.975,-0.271c-1.767,-0.154 -3.592,-0.308 -7.196,-0.308Zm55.963,26.138c-1.629,0.092 -3.25,0.188 -6.504,0.188c-3.487,0 -5.262,0.167 -6.975,0.325c-1.646,0.154 -3.2,0.3 -6.396,0.3c-3.383,0 -5.071,0.037 -6.763,0.075c-1.658,0.037 -3.317,0.075 -6.629,0.075c-3.062,0 -4.554,-0.271 -6.133,-0.567c-1.125,-0.208 -2.4,-0.425 -4.154,-0.554c-0.025,-1.962 -0.071,-3.237 -0.113,-4.471c-0.067,-1.717 -0.129,-3.433 -0.129,-7.246c0,-0.104 -0.05,-0.192 -0.058,-0.296c0.117,-2.954 1.958,-5.879 6.017,-9.442c3.167,-2.775 6.704,-5.525 11.104,-6.858c3.737,-1.129 8.104,-1.363 13.517,-1.363c1.404,0 2.821,-0.054 4.221,-0.104c3.546,-0.129 6.892,-0.262 9.579,0.55c4.612,1.396 8.546,4.5 11.454,7.05c3.875,3.392 4.688,7.562 4.688,10.462c0,3.917 0.058,5.879 0.112,7.842c0.038,1.279 0.075,2.604 0.096,4.454c-1.242,-0.067 -2.192,-0.154 -3.133,-0.258c-1.683,-0.179 -3.429,-0.363 -6.938,-0.363c-3.433,-0 -5.15,0.096 -6.862,0.2Z" style="fill-rule:nonzero;"/><path d="M2.323,69.074c0.267,0.071 0.538,0.104 0.8,0.104c1.383,0 2.65,-0.925 3.021,-2.325c0.588,-2.217 1.804,-4.342 3.096,-6.592c0.904,-1.575 1.837,-3.204 2.596,-4.946c0.629,-1.45 1.183,-2.938 1.733,-4.421c0.979,-2.654 1.908,-5.158 3.275,-7.329c1.546,-2.462 3.538,-4.654 5.642,-6.971c0.854,-0.942 1.708,-1.883 2.533,-2.842c1.146,-1.333 2.192,-2.775 3.233,-4.217c1.571,-2.175 3.054,-4.233 4.862,-5.788c1.733,-1.492 3.946,-2.579 6.283,-3.733c1.625,-0.8 3.3,-1.625 4.908,-2.633c1.408,-0.888 2.771,-1.879 4.129,-2.875c2.217,-1.625 4.308,-3.163 6.592,-4.154c2.871,-1.25 6.004,-2.029 9.317,-2.858c0.992,-0.25 1.987,-0.496 2.975,-0.758c1.667,-0.442 2.662,-2.154 2.221,-3.821c-0.438,-1.667 -2.146,-2.658 -3.821,-2.221l-2.892,0.737c-3.417,0.854 -6.946,1.733 -10.296,3.192c-2.921,1.271 -5.396,3.088 -7.796,4.846c-1.237,0.908 -2.471,1.817 -3.754,2.621c-1.379,0.867 -2.862,1.592 -4.342,2.321c-2.588,1.275 -5.262,2.592 -7.596,4.6c-2.371,2.033 -4.146,4.488 -5.858,6.867c-0.938,1.296 -1.871,2.596 -2.904,3.796c-0.787,0.921 -1.608,1.817 -2.421,2.717c-2.196,2.421 -4.467,4.921 -6.308,7.85c-1.708,2.721 -2.792,5.65 -3.842,8.483c-0.508,1.375 -1.017,2.754 -1.604,4.1c-0.617,1.421 -1.425,2.833 -2.283,4.325c-1.433,2.504 -2.921,5.092 -3.717,8.104c-0.446,1.671 0.55,3.383 2.217,3.821Z" style="fill-rule:nonzero;"/><path d="M67.015,172.282c-1.996,-0.529 -3.929,-1.808 -5.979,-3.163c-1.688,-1.117 -3.429,-2.267 -5.379,-3.112c-1.396,-0.608 -2.821,-1.146 -4.242,-1.683c-2.687,-1.017 -5.221,-1.975 -7.45,-3.379c-1.333,-0.833 -2.729,-1.608 -4.125,-2.379c-2.517,-1.388 -4.896,-2.7 -6.85,-4.388c-1.608,-1.379 -2.863,-3.371 -4.192,-5.471c-1.046,-1.658 -2.129,-3.375 -3.475,-4.942c-1.383,-1.608 -2.987,-2.938 -4.538,-4.229c-1.896,-1.571 -3.683,-3.054 -4.779,-4.804c-1.146,-1.825 -1.804,-4.125 -2.5,-6.558c-0.529,-1.85 -1.075,-3.771 -1.883,-5.625c-0.613,-1.412 -1.304,-2.8 -2,-4.187c-1.283,-2.562 -2.496,-4.983 -3.167,-7.525c-0.442,-1.671 -2.137,-2.679 -3.821,-2.221c-1.667,0.438 -2.663,2.15 -2.221,3.817c0.838,3.167 2.25,5.992 3.621,8.725c0.646,1.292 1.292,2.575 1.858,3.888c0.642,1.475 1.108,3.112 1.604,4.846c0.783,2.746 1.596,5.592 3.217,8.167c1.629,2.596 3.892,4.475 6.079,6.292c1.417,1.175 2.754,2.287 3.796,3.496c1.042,1.213 1.958,2.663 2.929,4.196c1.517,2.404 3.083,4.892 5.4,6.879c2.442,2.104 5.221,3.633 7.904,5.121c1.296,0.717 2.592,1.429 3.821,2.2c2.758,1.733 5.708,2.85 8.567,3.929c1.325,0.5 2.654,1 3.958,1.567c1.446,0.629 2.892,1.588 4.425,2.6c2.379,1.571 4.838,3.196 7.825,3.983c0.267,0.075 0.537,0.104 0.8,0.104c1.383,0 2.65,-0.925 3.021,-2.329c0.438,-1.667 -0.558,-3.375 -2.225,-3.812Z" style="fill-rule:nonzero;"/><path d="M174.102,107.745c-1.65,-0.438 -3.379,0.567 -3.804,2.242c-0.567,2.171 -0.688,4.358 -0.808,6.471c-0.133,2.4 -0.262,4.671 -1.037,6.467c-0.846,1.975 -2.388,3.787 -4.025,5.708c-1.275,1.492 -2.588,3.037 -3.679,4.783c-0.754,1.208 -1.463,2.446 -2.171,3.683c-1.483,2.6 -2.892,5.058 -4.683,7.154c-3.312,3.871 -6.162,6.804 -8.975,9.233c-2.071,1.792 -4.517,3.204 -7.1,4.696c-1.254,0.721 -2.508,1.446 -3.725,2.213c-4.337,2.729 -7.792,4.608 -11.204,6.096c-3.729,1.625 -7.7,2.729 -12.133,3.908c-1.667,0.437 -2.662,2.154 -2.217,3.821c0.371,1.4 1.638,2.325 3.021,2.325c0.263,0 0.533,-0.033 0.8,-0.104c4.683,-1.242 8.9,-2.413 13.029,-4.217c3.712,-1.617 7.421,-3.629 12.042,-6.537c1.15,-0.725 2.333,-1.408 3.517,-2.088c2.721,-1.575 5.542,-3.204 8.062,-5.379c3.054,-2.642 6.117,-5.783 9.638,-9.896c2.175,-2.542 3.796,-5.379 5.362,-8.117c0.667,-1.167 1.333,-2.338 2.046,-3.479c0.842,-1.35 1.954,-2.658 3.133,-4.042c1.858,-2.183 3.787,-4.446 5.008,-7.292c1.204,-2.808 1.371,-5.742 1.533,-8.579c0.104,-1.892 0.208,-3.683 0.612,-5.263c0.433,-1.671 -0.571,-3.375 -2.242,-3.808Z" style="fill-rule:nonzero;"/><path d="M178.498,65.149c-0.788,-2.987 -2.45,-5.412 -4.058,-7.762c-1.046,-1.529 -2.033,-2.971 -2.667,-4.417c-0.512,-1.183 -0.983,-2.375 -1.458,-3.562c-1.167,-2.938 -2.371,-5.979 -4.167,-8.833c-0.604,-0.962 -1.188,-1.942 -1.775,-2.917c-1.721,-2.871 -3.5,-5.846 -5.8,-8.521c-2.879,-3.346 -6.162,-6.604 -9.75,-9.692c-1.029,-0.883 -2.037,-1.825 -3.046,-2.771c-2.308,-2.167 -4.704,-4.404 -7.517,-6.171c-4.242,-2.671 -8.833,-4.771 -12.362,-6.304c-3.7,-1.608 -7.65,-2.642 -11.467,-3.638l-1.746,-0.458c-1.671,-0.438 -3.379,0.554 -3.821,2.221c-0.442,1.667 0.55,3.379 2.217,3.821l1.771,0.463c3.588,0.938 7.296,1.908 10.554,3.325c3.325,1.446 7.638,3.417 11.529,5.863c2.304,1.45 4.383,3.388 6.579,5.446c1.075,1.004 2.146,2.004 3.238,2.946c3.354,2.883 6.413,5.925 9.092,9.033c1.95,2.267 3.517,4.883 5.171,7.65c0.608,1.017 1.217,2.029 1.846,3.033c1.487,2.371 2.533,5.012 3.646,7.812c0.496,1.25 0.996,2.508 1.537,3.75c0.867,1.996 2.071,3.754 3.233,5.458c1.371,1.996 2.663,3.883 3.179,5.829c0.371,1.4 1.633,2.325 3.021,2.325c0.263,0 0.533,-0.033 0.796,-0.104c1.675,-0.446 2.671,-2.158 2.225,-3.825Z" style="fill-rule:nonzero;"/></svg>