<svg width="24" height="24" xmlns="http://www.w3.org/2000/svg" data-name="Layer 1" viewBox="0 0 24 24"><path fill="none" stroke="#CB5928" stroke-miterlimit="10" stroke-width="1.5" d="M5.29 15.83V9.12a1.92 1.92 0 0 0-1.91-1.91 1.92 1.92 0 0 0-1.92 1.91v7.29a3.8 3.8 0 0 0 .84 2.39l3 3.74v1"/><path fill="none" stroke="#CB5928" stroke-miterlimit="10" stroke-width="1.5" d="m7.21 17.75-1.32-1.32a2 2 0 0 1-.6-1.43 2 2 0 0 1 2-2 2 2 0 0 1 1.44.59l2.67 2.61a2 2 0 0 1 .6 1.43v5.87m6.71-7.67V9.12a1.92 1.92 0 0 1 1.91-1.91 1.92 1.92 0 0 1 1.91 1.91v7.29a3.8 3.8 0 0 1-.84 2.39l-3 3.74v1"/><path fill="none" stroke="#CB5928" stroke-miterlimit="10" stroke-width="1.5" d="m16.79 17.75 1.32-1.32a2 2 0 0 0 .6-1.44 2 2 0 0 0-2-2 2 2 0 0 0-1.44.59L12.6 16.2a2 2 0 0 0-.6 1.43v5.87m0-23v10.54M8.17 4.01h7.66"/></svg>