<?xml version="1.0" encoding="UTF-8"?><svg id="Layer_1" xmlns="http://www.w3.org/2000/svg" width="520" height="520" viewBox="0 0 520 520"><defs><style>.cls-1{opacity:.1;}.cls-1,.cls-2,.cls-3,.cls-4{fill:#231f20;stroke-width:0px;}.cls-2{opacity:.15;}.cls-5{opacity:.45;}.cls-6{opacity:.55;}.cls-3{opacity:.3;}</style></defs><path class="cls-4" d="m255.28,347.93c-11.21,6.07-9.84-16.62-9.56-18.05l-3.58,3.36s-2.28,43.83,1.5,42.69c3.78-1.13,10.43-3.14,10.9-9.32s.74-18.68.74-18.68Z"/><path class="cls-4" d="m254.12,372.05c-1.33,1.62-3.46,27.74,6.16,20.77,4.75-3.44,1.7,11.87-1.22,14.6-2.92,2.73-20.57,14.28-20.57,14.28v-42.45l7.23-3.98,8.4-3.23Z"/><path class="cls-4" d="m292.14,408.56c0,1.35-2.55,20.58,6.23,21.46v18.27s-9.64-8.03-9.64-8.03l.37-31.24,3.04-.46Z"/><path class="cls-4" d="m120.64,415.64c.23-.07-9.31,2.68-5.92,4.35,3.39,1.67,13.82,3.07,13.82,3.07l-7.4-4.21-.5-3.21Z"/><path class="cls-4" d="m288.46,435.78s-9.95-.26-6.93,1.9c2.24,1.6,9.16,4.36,9.16,4.36l-2.24-6.26Z"/><path class="cls-4" d="m137.91,358.23c.94,1,1.77,2.11,2.4,3.35l.35.67c.1.24.2.47.29.72.15.43.24.88.31,1.33.04.46.07.92.04,1.36-.05.9-.28,1.82-.74,2.61-.4.71-1,1.28-1.66,1.68-.43.26-.88.47-1.35.57-.48.1-.96.12-1.43.11-.29,0-.26-.05-.03-.19.23-.12.62-.41,1.05-.68.38-.24.76-.4,1.09-.64.33-.24.6-.52.82-.81.44-.6.65-1.33.72-2.14.08-1-.26-2.01-.69-2.95-.48-1.05-1.17-2.03-2-2.91-.5-.55-1.06-1.05-1.64-1.52-.91-.69-1.85-1.36-2.88-1.84-.81-.36-1.67-.56-2.52-.73-.19-.04-.38-.06-.56-.1-.69-.16-.86-.37-.89-.95,0-.13-.03-.26-.02-.39.02-.43.39-.7,1-.71,1.76.04,3.53.69,5.13,1.6,1.2.66,2.27,1.57,3.25,2.54l-.03.04Z"/><path class="cls-4" d="m313.38,401.12c.4-.34.82-.64,1.25-.91.15-.1.28-.23.44-.31.57-.3,1.16-.53,1.76-.7.26-.09.51-.19.77-.25.33-.09.67-.17,1.03-.11.11.02.12.16.07.34-.05.18-.15.43-.3.52-.27.17-.51.38-.78.5-.27.12-.54.23-.83.33-.36.11-.61.42-.89.65-.31.26-.62.53-.89.84-.17.19-.34.38-.49.58-.23.31-.45.63-.58.99-.09.29-.04.61-.01.9,0,.06.03.13.03.2-.01.23-.2.26-.75.21l-.38-.03c-.42-.05-.75-.22-.85-.47-.23-.73.03-1.45.39-2.07.27-.46.61-.88.99-1.25l.04.03Z"/><path class="cls-4" d="m334.12,400.65c.42-.43.96-.72,1.48-.99.19-.1.35-.24.55-.31.71-.25,1.43-.39,2.14-.41.31,0,.6,0,.91,0,.38,0,.77.05,1.11.26.11.07.05.22-.07.39-.12.17-.3.41-.47.48-.62.22-1.03.65-1.63.63-.36.03-.62.33-.9.54-.31.22-.6.49-.9.77-.19.17-.38.34-.54.55-.24.31-.49.64-.62,1.02-.12.29-.07.63-.09.94,0,.07.01.14,0,.21-.06.24-.23.28-.83.2l-.41-.05c-.46-.08-.81-.28-.91-.54-.27-.76-.26-1.59.1-2.28.26-.52.63-.99,1.03-1.44l.05.04Z"/><path class="cls-4" d="m355.51,400.97c.37-.36.76-.69,1.17-1,.15-.11.26-.26.42-.35.56-.35,1.16-.6,1.77-.83.28-.1.55-.21.83-.3.36-.12.8-.07,1.15.12.11.06.07.16-.04.29-.11.12-.26.35-.4.45-.24.22-.46.3-.72.42-.25.12-.52.25-.82.38-.36.15-.62.48-.93.72-.34.27-.67.56-.98.87-.19.19-.38.39-.54.61-.25.33-.51.66-.67,1.04-.12.3-.14.63-.17.95,0,.07,0,.14-.02.21-.07.24-.21.28-.66.2l-.3-.05c-.34-.07-.58-.27-.62-.51-.12-.73.18-1.39.54-2,.27-.45.61-.85.96-1.24l.03.02Z"/><path class="cls-4" d="m295.96,406.71c.37.32.73.65,1.1.97.14.11.31.17.44.3.48.42.91.91,1.37,1.36.2.2.43.36.67.51.31.19.54.5.68.89.04.13-.12.29-.37.44-.25.15-.61.34-.83.33-.42,0-.68-.18-.95-.38-.27-.19-.53-.41-.77-.69-.29-.32-.7-.48-1.06-.72-.38-.28-.77-.56-1.16-.84-.24-.17-.48-.35-.72-.52-.37-.25-.73-.54-1.14-.73-.3-.18-.67-.25-1-.39-.07-.03-.16-.04-.22-.09-.23-.19-.21-.38.04-.83l.17-.31c.2-.33.49-.54.75-.58.38-.05.71-.01,1.03.04.16.03.32.06.46.12.14.07.27.16.4.24.39.25.76.56,1.15.85l-.03.05Z"/><path class="cls-4" d="m324.4,451.56l-5.68-.55c-.69-.06-1.39-.07-2.08-.14-2.43-.25-4.87-.5-7.3-.75-1.08-.12-2.17-.19-3.24-.25-1.38-.07-2.77-.07-4.13-.49-.42-.19-.36-.28.02-.56.19-.14.46-.28.78-.43.16-.07.34-.14.52-.2.1-.03.19-.06.28-.09.1,0,.19-.01.29-.01,2.83.03,5.65.09,8.48.56,1.69.25,3.47.27,5.2.41l5.73.48,3.53.29c1.78.13,3.57.3,5.34.37,1.38.06,2.73,0,4.1-.01.3,0,.6-.02.9,0,1.12.05,1.47.21,1.68.74.05.12.11.24.14.36.08.4-.39.71-1.22.79-2.45.26-5.02.11-7.59-.04-1.91-.12-3.83-.29-5.74-.44v-.05Z"/><path class="cls-4" d="m261.58,397.8c.04-1.02.09-2.05.13-3.07.01-.37-.02-.74,0-1.12.06-1.31.13-2.63.19-3.94.04-.58.04-1.17.04-1.75.03-.74.07-1.49.18-2.23.04-.23.11-.2.23,0,.12.19.34.55.46.97l.28,1.13c.08.38.11.75.16,1.13.11.75.09,1.51.02,2.28-.07.91.05,1.86.07,2.79l.03,3.08c0,.63,0,1.26.02,1.88.04.94.08,1.88.3,2.77.17.69.49,1.31.83,1.89.08.13.17.24.24.36.22.48.21.68-.17,1.07-.08.08-.15.17-.22.24-.22.22-.72.24-1.08-.13-1.08-1.1-1.46-2.69-1.64-4.14-.13-1.09-.12-2.16-.13-3.19h.05Z"/><path class="cls-4" d="m160.12,319.58c.55-.54,1.19-1.02,1.82-1.46.24-.15.46-.33.7-.47.89-.48,1.87-.71,2.8-.89.42-.05.83-.16,1.24-.19.52-.12,1.07-.01,1.59.08.16.03.14.09,0,.2-.13.1-.37.3-.65.41-.48.24-.97.29-1.43.46-.44.14-.89.29-1.38.45-.55.2-1.03.57-1.5.93-.53.37-1.01.83-1.48,1.31-.27.31-.55.62-.79.96-.39.5-.77,1.03-1.06,1.6-.22.45-.32.95-.46,1.44-.03.1-.05.21-.1.32-.16.38-.34.43-.85.3-.11-.03-.23-.06-.34-.1-.37-.13-.6-.43-.59-.76.01-1.01.47-1.9.99-2.78.4-.65.86-1.27,1.43-1.82l.04.03Z"/><path class="cls-4" d="m186.26,319.27c.54-.54,1.13-1.02,1.75-1.46.21-.17.43-.35.66-.49.86-.47,1.78-.83,2.76-1,.42-.11.86-.14,1.29-.21.28-.01.57.01.86.05.28.06.55.2.79.35.15.1.02.34-.2.58-.22.23-.5.52-.72.52-.21.03-.41.12-.6.09-.2.02-.4.06-.6.08-.41.08-.83.16-1.28.28-.55.12-1,.54-1.47.87-.53.36-1.03.78-1.51,1.23-.27.3-.58.57-.81.9-.19.24-.38.48-.54.75-.17.25-.32.52-.41.8-.09.21-.13.44-.14.67-.03.23-.03.44,0,.65,0,.09.03.18.02.27.02.3-.12.38-.65.51l-.35.09c-.4.09-.74-.06-.87-.46-.35-1.17.08-2.3.58-3.22.4-.69.88-1.31,1.41-1.87l.04.03Z"/><path class="cls-4" d="m214.37,320.21c.49-.47,1.03-.86,1.58-1.22.2-.14.39-.28.6-.4.76-.38,1.58-.6,2.38-.75.36-.06.7-.15,1.05-.2.23-.02.45-.1.68-.07.23.02.46.07.68.13.14.04.12.17,0,.34-.11.17-.3.42-.52.52-.79.29-1.53.46-2.31.7-.48.13-.87.47-1.27.75-.45.3-.88.65-1.27,1.04-.24.25-.47.49-.68.77-.32.41-.6.86-.81,1.34-.14.38-.17.8-.21,1.19-.01.09-.01.17-.03.26-.07.31-.23.38-.7.35-.11,0-.22,0-.33-.02-.36-.04-.62-.25-.68-.55-.18-.9.1-1.81.54-2.6.35-.59.79-1.12,1.26-1.6l.03.03Z"/><path class="cls-4" d="m134.76,326.91c.42-.31.83-.62,1.24-.93.15-.12.26-.27.42-.39.54-.41,1.15-.75,1.71-1.13.25-.16.47-.37.69-.57.27-.26.57-.51.99-.59.2.06.26.16.38.46.12.3.2.68.09.87-.18.36-.46.6-.74.85-.28.24-.58.46-.92.65-.4.23-.68.62-1.03.93-.39.33-.79.67-1.18,1.01-.25.21-.49.42-.73.63-.37.32-.76.63-1.09.98-.26.28-.46.61-.69.91-.05.07-.09.14-.15.2-.22.21-.39.18-.76-.16l-.25-.23c-.27-.27-.38-.59-.31-.83.24-.7.6-1.29,1.13-1.71.37-.34.77-.65,1.16-.98l.04.03Z"/><path class="cls-4" d="m127.99,334.23c.29-.78.67-1.56,1.21-2.26.19-.25.36-.54.62-.75.96-.74,2.11-1.01,3.1-1.04.44-.03.87-.03,1.29-.02.54,0,1.06.04,1.57.21.16.05.13.21-.01.39-.14.18-.4.42-.69.49-.51.11-1,.24-1.45.36-.41.1-.82.2-1.27.31-.5.12-.79.56-1.09.93-.36.4-.68.93-.9,1.52-.14.36-.26.75-.33,1.14-.12.61-.24,1.25-.24,1.91-.02.51.15,1.04.13,1.58,0,.12.02.24,0,.36-.06.45-.25.57-.81.55-.13,0-.25,0-.38-.02-.42-.05-.73-.28-.85-.57-.38-.88-.42-1.74-.37-2.75.03-.74.16-1.54.41-2.36h.06Z"/><path class="cls-4" d="m121.21,413.64c-.1-1.16-.14-2.31-.17-3.45-.02-.42-.06-.83-.06-1.25,0-1.47.13-2.93.22-4.38.04-.64.05-1.29.06-1.93.03-.82-.03-1.64.2-2.45.06-.25.1-.22.22,0,.08.16.16.32.23.45.11.19.18.4.19.64.14,1.67.28,3.32.26,4.99,0,1,.11,2.03.19,3.04.08,1.11.17,2.22.31,3.33.09.68.18,1.36.32,2.03.19,1.02.43,2.03.75,3,.28.75.67,1.43,1.07,2.1l.27.43c.31.55.28.79-.14,1.17-.09.09-.18.18-.28.26-.34.26-.76.17-1.1-.23-.98-1.2-1.65-2.7-2.02-4.24-.27-1.15-.44-2.33-.57-3.49h.04Z"/><path class="cls-3" d="m66.51,124.34s1.34-3.04,3.99-4.77c2.66-1.73,34.11-23,34.11-23l25.5-16.45s21.18-10.86,26.85-11.65c5.67-.79,13.48-.77,16.35.84,2.87,1.61,6.87,5.89,6.87,5.89,0,0,13.25,2.28,17.05,5.23s7.23,7.05,7.99,10.83,7.68,7.18,8.45,10.77.89,7.07-1.87,6.65c-2.76-.42-15.4-8.11-15.4-8.11,0,0-7.39-4.65-9.82-4-2.43.65-17.08,4.02-17.08,4.02l-4.74,3.59s14.64-1.99,22.94.86c8.3,2.85,14.83,8.13,18.9,10.78,4.08,2.65,8.9,9.47,8.65,13.05-.25,3.58-5.32,5.17-5.71,3.94s-14.26-14.15-23.33-14.73-24.61,2.43-27.27,7.36-5.58,8.59-3.05,13.06c2.53,4.47,13.32,14.94,13.32,14.94,0,0,7.11,7.42,7.34,11.45s-2.09,6.92-5.6,5.49-27.05-17.91-27.05-17.91l-11.16-5.86s-20.82,2.72-27.76.37-10.19-3.9-10.19-3.9c0,0-18.43,8.36-18.43,10.34s-9.85-29.07-9.85-29.07Z"/><path class="cls-4" d="m70.94,143.42c-.36-.91-.69-1.84-1.03-2.76-.3-.94-.63-1.86-.91-2.81-.18-.7-.44-1.37-.61-2.07-.55-2.48-.93-5-1.16-7.53-.03-.56-.06-1.13-.11-1.69-.02-.57-.04-1.13-.06-1.69-.05-1.44.16-2.92.71-4.28.19-.42.3-.33.52.07.26.42.61,1.12.75,1.89.32,1.38.4,2.71.57,4.07l.14,1.02c.02.34.03.69.07,1.03.05.69.11,1.39.16,2.09.15,1.69.7,3.37,1.17,5.03.53,1.83.99,3.69,1.63,5.51.36,1.13.8,2.23,1.22,3.34.68,1.66,1.38,3.33,2.22,4.9.65,1.23,1.42,2.35,2.16,3.5.16.26.34.49.49.76.55.98.62,1.36.37,1.81-.06.1-.1.22-.17.3-.22.27-.71.03-1.29-.6-1.73-1.87-3.1-4.15-4.35-6.49-.94-1.74-1.75-3.55-2.54-5.37l.06-.03Z"/><path class="cls-4" d="m84.43,149.56c.31,1.46,6.99,16.49,2.86,16.81s-9.47-12.48-9.47-12.48l6.61-4.33Z"/><path class="cls-4" d="m84.92,172.14c-.72.49-1.47.94-2.19,1.4-.27.17-.5.38-.77.54-.96.54-1.93,1.08-2.89,1.61-.42.26-.82.51-1.24.76-.26.16-.52.34-.78.49-.26.16-.55.29-.9.3-.22.02-.27-.12-.27-.42,0-.15.01-.35.03-.57.04-.2.12-.36.25-.48.46-.42.93-.83,1.41-1.21.52-.34,1.05-.64,1.61-.93.68-.33,1.23-.88,1.84-1.33.67-.49,1.34-.99,2-1.5.4-.32.81-.62,1.2-.96.58-.51,1.19-1,1.67-1.59.38-.45.63-1.01.87-1.52.06-.11.09-.24.15-.34.14-.18.23-.29.43-.28.13.02.25.05.37.09.1.02.22.06.34.11.11.04.22.07.31.11.16.07.26.18.37.36.07.13.13.24.19.35.1.16.04.22.04.34-.27,1.26-1.13,2.18-1.98,3.02-.65.62-1.35,1.16-2.05,1.69l-.04-.04Z"/><path class="cls-4" d="m62.49,123.25c-.7.08-1.4.23-2.11.41-.26.07-.49.2-.75.27-.92.23-1.86.48-2.77.82-.41.14-.79.34-1.17.53-.49.25-.97.52-1.57.56-.28-.17-.22-.12-.23-.46,0-.33.11-.71.36-.92.44-.37.94-.64,1.45-.89.51-.25,1.04-.47,1.6-.63.67-.19,1.28-.59,1.96-.83.74-.26,1.51-.47,2.28-.65.48-.09.96-.2,1.45-.25.74-.12,1.5-.11,2.25-.13.59,0,1.19-.08,1.81-.02.14.01.28,0,.41.04.49.15.58.38.45.91-.03.12-.05.25-.1.36-.14.39-.45.65-.76.71-.88.09-1.64,0-2.53.02-.65.04-1.33.05-2.02.19v-.05Z"/><path class="cls-4" d="m56.94,139.59c.2-.66.44-1.3.71-1.94l-.16.39c.53-1.24,1.17-2.42,1.92-3.53.48-.7.16-1.83-.58-2.22-.82-.43-1.71-.17-2.22.58-1.22,1.79-2.15,3.78-2.79,5.85-.25.81.3,1.81,1.13,2,.88.2,1.73-.27,2-1.13h0Z"/><g class="cls-6"><path class="cls-4" d="m60.04,153.97c2.32,1.31,4.94,2.02,7.61,2.06.85.01,1.66-.76,1.62-1.62s-.71-1.61-1.62-1.62c-.28,0-.56-.01-.84-.03-.16-.01-.32-.03-.48-.04-.08,0-.16-.02-.24-.03l.19.03c-.56-.02-1.17-.21-1.71-.35s-1.07-.34-1.6-.54c-.11-.05-.07-.03.11.05-.07-.03-.15-.06-.22-.1-.13-.06-.26-.12-.38-.18-.27-.13-.54-.27-.8-.42-.74-.42-1.81-.2-2.22.58s-.21,1.78.58,2.22h0Z"/></g><path class="cls-4" d="m70.65,172.52c.16-.55.35-1.09.57-1.62l-.16.39c.47-1.11,1.08-2.15,1.81-3.11l-.25.33c.15-.19.3-.38.46-.56.28-.33.48-.7.48-1.15,0-.4-.18-.87-.48-1.15-.61-.56-1.71-.69-2.3,0-1.5,1.75-2.62,3.77-3.25,6-.23.82.29,1.81,1.13,2s1.75-.26,2-1.13h0Z"/><path class="cls-4" d="m227.82,142.44c.04-.73.03-1.47-.06-2.2-.01-.27-.1-.53-.14-.8-.14-.95-.37-1.91-.77-2.8-.16-.41-.4-.77-.62-1.14-.3-.47-.56-.96-.87-1.45-.09-.16-.06-.15.08-.08.14.08.43.19.71.39.24.19.48.39.7.6.2.23.36.49.53.73.33.51.62,1.05.82,1.62.25.68.57,1.37.78,2.09.23.79.33,1.61.38,2.43.03.5.03,1.01.01,1.51-.02.76-.14,1.52-.23,2.27-.09.58-.06,1.18-.19,1.77-.02.13-.03.26-.08.39-.15.47-.36.56-.81.48-.1-.02-.2-.03-.3-.05-.3-.08-.55-.38-.56-.72-.06-1.01.19-1.9.34-2.86.12-.71.21-1.43.23-2.16h.04Z"/><path class="cls-4" d="m248.07,159.02c-.03-.66,0-1.38-.14-2.09-.03-.26-.15-.5-.2-.76-.21-.91-.5-1.83-.92-2.69-.18-.39-.41-.75-.62-1.12-.29-.46-.58-.93-.85-1.41-.08-.15-.04-.16.1-.08.14.08.4.21.65.42.42.39.85.79,1.21,1.24.35.46.68.94.93,1.47.31.62.72,1.24,1.02,1.9.33.73.57,1.5.73,2.3.07.5.11,1,.12,1.5.03.76-.09,1.52-.18,2.27-.06.29-.07.59-.11.89-.06.29-.13.58-.21.87-.03.13-.07.25-.13.37-.23.44-.42.51-.89.36-.11-.04-.21-.06-.31-.11-.33-.15-.52-.46-.52-.79.03-.47,0-.93.04-1.35,0-.22.05-.42.09-.62.04-.2.05-.42.09-.62.06-.31.05-.63.09-.95-.02-.33.02-.65-.03-.99h.05Z"/><path class="cls-4" d="m202.39,182.92c1.66,1.18,8.57,7.95,5.36,10.46-1.27.99,25.66,19.08,25.66,19.08l24.51-29.53-2.03-11.17-24.13,32-29.36-20.83Z"/><path class="cls-4" d="m218.72,203.27c-1.85-1.48-3.71-2.96-5.6-4.41-.69-.53-1.42-.99-2.11-1.53-2.39-1.91-4.77-3.85-7.2-5.71-1.08-.82-2.2-1.61-3.28-2.41-.7-.51-1.42-.99-2.1-1.53-.67-.55-1.32-1.14-1.96-1.74-.39-.38-.21-.52.33-.49.53.04,1.47.16,2.39.59.82.37,1.54.88,2.31,1.33.75.47,1.52.91,2.24,1.43,1.44,1.02,2.87,2.09,4.25,3.22,1.65,1.36,3.57,2.49,5.31,3.8,1.93,1.43,3.83,2.89,5.74,4.36l3.51,2.72c1.77,1.37,3.52,2.79,5.31,4.11,1.39,1.03,2.84,1.92,4.26,2.89.32.21.62.42.92.66,1.09.89,1.32,1.32,1.12,2.04-.05.16-.07.34-.14.49-.23.49-.95.47-1.87-.02-1.38-.71-2.68-1.57-3.96-2.49-1.29-.91-2.56-1.89-3.83-2.86-1.88-1.46-3.78-2.93-5.67-4.39l.04-.06Z"/><path class="cls-4" d="m251.25,193.03l-6.02,6.83c-.73.83-1.39,1.72-2.12,2.55l-3.86,4.39-1.91,2.21-1.95,2.3-1.02,1.19-.9.66c-.07.06-.16.12-.25.06-.08-.03-.14-.08-.19-.12-.11-.09-.22-.2-.32-.34-.22-.26-.41-.72-.56-1.25-.13-.53-.25-1.12-.34-1.57-.24-1.09-.47-2.17-.67-3.26l-.28-1.64c-.1-.54-.07-1.11-.11-1.67.03-.71-.07-.6.23-.07.15.26.38.63.69,1.08.27.45.49,1,.7,1.61l1.17,3.56s-.02.16.04.1c.01,0,.03,0,.04,0,0,0,.02,0,.02-.01,0,0,0,0,.01-.02l.12-.14.93-1.1c.62-.73,1.26-1.44,1.9-2.16,1.84-2.01,3.5-4.3,5.27-6.45l5.89-7.03,3.62-4.32,2.73-3.28,1.33-1.65.62-.83c.18-.27.29-.39.31-.6.05-.31.01-.9-.05-1.39-.06-.52-.14-1.04-.24-1.57l-.59-3.21c-.08-.48-.16-.95-.21-1.45-.14-1.85.11-2.51.88-2.86.17-.08.35-.19.52-.22.59-.11.99.59,1.25,1.8.4,1.82.82,3.73,1.13,5.78.08.51.15,1.04.19,1.6.04.6.11,1.07,0,1.99-.09.5-.24,1.01-.52,1.39-.28.44-.39.57-.56.81-.33.45-.64.85-.96,1.27-1.9,2.44-3.89,4.76-5.89,7.09l-.06-.04Z"/><path class="cls-4" d="m248.41,156.65c-.29-1.13-.78-2.15-1.57-3.01-.29-.33-.66-.57-1-.85-1.18-1.02-2.66-1.81-4.27-2.25-.72-.18-1.47-.23-2.21-.21-.95.07-1.87.15-2.89.11-.32-.04-.35-.25-.18-.63.16-.41.56-.98,1.17-1.22,1.07-.47,2.24-.47,3.37-.43,1.14.07,2.28.34,3.33.81,1.24.57,2.58,1.1,3.7,1.98,1.22.93,2.29,2.24,2.92,3.65.42.86.69,1.77.9,2.67.31,1.38.34,2.8.3,4.18-.04,1.08.01,2.19-.2,3.3-.03.25-.08.49-.15.74-.13.45-.32.71-.59.81-.26.11-.57.08-1-.06-.2-.06-.4-.11-.58-.19-.62-.27-.99-.84-1-1.39.08-1.59.31-3.02.33-4.57.02-1.14-.1-2.31-.45-3.4l.07-.03Z"/><path class="cls-4" d="m228.15,140.81c-.13-.9-.33-1.85-.79-2.71-.16-.32-.37-.6-.58-.88-.63-1.1-1.55-2.05-2.63-2.82l-.75-.47c-.25-.16-.54-.24-.81-.36-.7-.33-1.46-.39-2.15-.88-.22-.14-.15-.39.12-.66.26-.24.77-.66,1.28-.61.45.01.89.11,1.33.21.44.11.9.18,1.31.38.43.16.83.41,1.21.65.36.29.72.59,1.05.91.4.38.78.79,1.22,1.15.41.39.79.81,1.15,1.24.69,1.02,1.3,2.11,1.64,3.3.26.71.36,1.47.47,2.21.03.57.11,1.14.05,1.71l-.04.85c-.04.28-.08.57-.11.85-.02.45-.1.88-.14,1.34-.02.46-.13.91-.25,1.38-.06.2-.07.42-.16.61-.35.71-.76.75-1.54.33-.18-.1-.37-.19-.54-.3-.57-.38-.91-.95-.91-1.39.1-1.23.38-2.2.52-3.36.12-.85.09-1.75-.03-2.65l.07-.02Z"/><path class="cls-4" d="m199.75,87.29c3.18,1.55,6.2,3.53,8.77,6.05,2.54,2.53,4.69,5.52,5.9,9.04.35,1.08.63,2.2.7,3.43.01.63.01,1.27-.21,2-.05.2-.13.4-.23.61-.11.2-.19.41-.34.58-.25.38-.65.61-1.02.85l-.53.21c-.13.06-.28.09-.42.12-.28.07-.56.12-.84.12-1.5.09-2.71-.39-3.8-.87-1.09-.5-2.05-1.09-2.99-1.7-1.87-1.22-3.6-2.51-5.37-3.72-3.51-2.41-7.2-4.65-11.26-5.36-3.64-.6-7.45-.17-11.07.72-4.69,1.11-9.14,3.19-13.86,4.58-1.5.38-1.38.12-.35-.79.51-.46,1.27-1.03,2.21-1.67.47-.31.98-.67,1.56-.98.58-.3,1.19-.6,1.86-.86,2.35-.95,4.75-1.84,7.24-2.54,2.49-.71,5.09-1.19,7.75-1.27.66-.02,1.33-.04,2,0,.67,0,1.33.08,2,.15,1.34.14,2.71.46,3.98.88,2.57.86,4.88,2.15,7.05,3.56,2.37,1.53,4.66,3.21,6.99,4.71,1.16.74,2.34,1.45,3.52,1.94.58.24,1.17.43,1.71.49.26.03.52.03.75,0,.12,0,.22-.05.33-.06.06,0,.11-.03.16-.05.01,0,.03,0,.04-.01.17-.08.26-.19.31-.43.13-.5.1-1.25-.03-1.97-.13-.73-.35-1.47-.65-2.19-.57-1.45-1.38-2.84-2.34-4.13-1.91-2.58-4.4-4.75-7.12-6.56-3.39-2.18-7.19-3.79-11.14-4.81-2.99-.79-6.09-1.31-9.17-1.58-3.06-.23-6.17,0-9.22.5-4.74.81-9.25,2.33-13.65,4.12-.97.39-1.9.82-2.87,1.24-3.59,1.55-4.75,2-5.9,1.6-.26-.08-.57-.13-.75-.23-.59-.32.56-1.65,3.2-3.02,3.89-2.04,8.09-3.77,12.52-5.08,4.43-1.29,9.1-2.2,13.93-2.28,1.78-.03,3.65.09,5.36.32.87.09,1.74.23,2.61.38.87.13,1.74.32,2.6.5,3.46.75,6.87,1.84,10.11,3.39l-.03.07Z"/><path class="cls-4" d="m166.82,76.19c3.42-.55,6.89-.95,10.39-1.06,1.28-.04,2.56-.11,3.84-.05,4.51.21,9.04,1.16,13.18,3.06,1.82.85,3.62,1.82,5.23,3.03,2.04,1.55,4,3.4,4.95,5.83.29.76.14.71-.51.37-.66-.35-1.9-.85-2.92-1.72-3.52-3.2-7.68-5.47-12.4-6.83-2.82-.81-5.93-1-8.97-1.02-3.35-.03-6.73.26-10.09.75-2.07.3-4.14.67-6.19,1.1-3.11.65-6.23,1.39-9.23,2.36-2.34.75-4.56,1.71-6.78,2.66-.49.21-.96.45-1.46.65-1.83.78-2.5.8-3.17.31-.15-.11-.34-.22-.45-.34-.39-.43.19-1.18,1.5-1.92,3.92-2.1,8.34-3.68,12.86-4.93,3.36-.93,6.78-1.67,10.22-2.29l.02.07Z"/><path class="cls-4" d="m106.51,93.35c5.46-3.51,10.91-7.01,16.48-10.39,2.03-1.24,4.1-2.49,6.16-3.62,7.32-3.99,14.86-7.87,23-10.24,3.61-1.03,7.34-1.81,11.09-2.02,2.41-.19,4.91.01,7.3.62,2.4.59,4.69,1.75,6.49,3.44,1.01,1.19.71,1.13-.54.75-.64-.16-1.48-.44-2.48-.68-.5-.12-1.05-.22-1.6-.36-.55-.15-1.13-.3-1.74-.46-2.14-.57-4.39-.77-6.63-.67-2.29.07-4.58.38-6.85.81-2.27.47-4.53,1.09-6.78,1.81-2.23.76-4.46,1.58-6.67,2.5-5.29,2.2-10.46,5.27-15.61,8.2-5.56,3.25-11.04,6.83-16.49,10.38-3.35,2.21-6.7,4.42-10.05,6.63-5.05,3.38-10.15,6.74-15.12,10.17-3.86,2.66-7.55,5.42-11.34,8.11-.84.59-1.64,1.19-2.5,1.77-3.18,2.13-4.4,2.55-5.53,2.27-.26-.07-.56-.1-.75-.21-.63-.38.43-1.58,2.64-3.27,6.62-4.93,13.83-9.88,21.11-14.77,5.41-3.64,10.89-7.23,16.35-10.83l.05.06Z"/><path class="cls-4" d="m58.52,124.31c-1.31.61-2.6,1.27-3.87,1.96-.47.24-.89.57-1.36.82-1.65.89-3.29,1.81-4.88,2.83-.7.46-1.39.93-2.06,1.42-.43.31-.84.66-1.3.93-.47.27-.96.51-1.45.74-.31.14-.37,0-.28-.35.09-.34.25-.97.62-1.51.71-.88,1.56-1.57,2.39-2.31.87-.68,1.81-1.27,2.79-1.81,1.17-.65,2.24-1.53,3.39-2.27,1.26-.81,2.57-1.54,3.9-2.24.82-.43,1.64-.85,2.47-1.26,1.25-.63,2.54-1.18,3.78-1.8.97-.47,1.87-1.07,2.83-1.56.21-.11.41-.25.64-.32.84-.29,1.17-.2,1.57.38.09.13.19.26.26.39.24.46.05.99-.46,1.39-1.51,1.21-3.27,1.92-5.02,2.76-1.3.6-2.62,1.2-3.91,1.87l-.03-.06Z"/><path class="cls-4" d="m83.54,174c-1.11.57-2.21,1.14-3.29,1.74-.4.22-.75.5-1.14.72-1.38.79-2.82,1.5-4.18,2.34-.61.36-1.16.8-1.72,1.23-.34.29-.69.57-1.06.83-.36.27-.73.52-1.18.69-.28.11-.38-.06-.38-.42,0-.18.01-.43.05-.7.05-.26.17-.5.34-.71.62-.73,1.33-1.36,2.07-1.94.74-.58,1.51-1.12,2.34-1.59.98-.57,1.89-1.3,2.86-1.93,1.07-.67,2.16-1.31,3.25-1.95l2.01-1.17c1.01-.6,2.04-1.17,3.01-1.81.75-.5,1.41-1.12,2.1-1.69.15-.13.29-.27.45-.38.6-.43.89-.4,1.4.11.12.12.24.23.34.35.35.42.34.96-.03,1.39-1.1,1.25-2.49,2.22-3.92,3.1-1.08.64-2.19,1.22-3.28,1.84l-.04-.05Z"/><path class="cls-4" d="m81.03,149.03c.93-.48,1.88-.9,2.82-1.32.34-.15.65-.36,1-.5,1.22-.48,2.46-.89,3.67-1.33.54-.19,1.04-.46,1.56-.69.66-.3,1.3-.64,2.05-.72.24-.02.37.34.37.8,0,.45-.13,1.02-.47,1.26-1.2.9-2.55,1.42-3.97,1.85-.85.25-1.6.78-2.38,1.19-.87.45-1.72.91-2.56,1.4-.51.31-1.03.6-1.52.94-.75.5-1.5,1.02-2.15,1.65-.49.49-.84,1.11-1.22,1.7-.09.13-.14.27-.23.39-.36.43-.7.36-1.31-.02-.14-.09-.29-.17-.42-.26-.44-.31-.63-.8-.52-1.31.47-1.38,1.51-2.39,2.62-3.29.83-.67,1.73-1.24,2.63-1.79l.04.06Z"/><path class="cls-4" d="m186.67,133.67c-1.27,1.27-2.54,2.56-3.73,3.91-.44.49-.81,1.04-1.24,1.53-1.54,1.74-3.1,3.5-4.59,5.3-.66.8-1.26,1.65-1.85,2.49-.77,1.07-1.43,2.23-2.46,3.13-.31.29-.46.12-.51-.33-.03-.23-.03-.53-.01-.88.01-.35.09-.72.28-1.05,1.3-2.38,2.66-4.73,4.37-6.87,1.04-1.27,1.9-2.74,2.89-4.1,1.09-1.48,2.24-2.94,3.41-4.36.72-.88,1.47-1.74,2.2-2.61,1.13-1.31,2.35-2.54,3.45-3.85.87-1.01,1.57-2.16,2.38-3.24.17-.24.35-.47.57-.67.81-.75,1.26-.77,2.1-.2.19.13.39.25.56.4.58.49.69,1.26.34,2-.28.53-.52,1.1-.87,1.57-.34.48-.71.93-1.09,1.38-.75.9-1.57,1.76-2.39,2.64-1.24,1.29-2.49,2.59-3.73,3.88l-.07-.05Z"/><path class="cls-4" d="m255.66,168.4l.9.87c.37.37.75.75,1.01,1.15.09.1.12.2.13.31.01.11.06.22.05.32v.32s-.01.16-.01.16v.02s0,0,0,0c-.22.02.3-.03.25-.02h0s0,0,0,0h0s-.01.05-.01.05l-.02.08c-.11.43-.25.85-.34,1.28-1.21,1.75-1.48,2.2-2.07,3.02l-1.63,2.29c-1.11,1.51-2.22,3.01-3.35,4.49-2.26,2.97-4.58,5.89-6.93,8.78-1.98,2.42-3.9,4.89-5.94,7.26l-2.6,2.99-1.33,1.48-.45.5c-.19.19-.37.44-.58.58-.41.29-.82.62-1.22.86-.36-.06-.69-.14-1.08-.3-.19-.08-.38-.14-.56-.23l-.54-.35-.85-.56-.65-.45-2.58-1.8-5.1-3.65c-3.39-2.45-6.75-4.93-10.11-7.42-3.92-2.9-7.84-5.84-11.69-8.77-2.47-1.88-4.95-3.77-7.38-5.74-2.44-1.95-4.77-4.03-6.94-6.29-1.26-1.5-.91-1.49.66-.8.79.33,1.85.89,3.09,1.58.62.35,1.29.73,1.97,1.17.67.46,1.36.95,2.06,1.5,4.97,3.87,10.05,7.62,15.15,11.37,5.08,3.78,10.16,7.57,15.28,11.38,1.57,1.17,3.18,2.32,4.81,3.45.82.56,1.64,1.12,2.47,1.68l1.03.68c.17.1.28.21.43.24.11-.1.21-.22.32-.33l.8-.92,1.84-2.17c1.21-1.47,2.42-2.93,3.62-4.39,5.41-6.63,10.71-13.38,15.53-20.42l.94-1.4c.09-.11.15-.22.23-.33.04-.12-.12-.21-.19-.31l-.28-.28-.46-.43c-.82-.76-1.67-1.51-2.52-2.26-1.7-1.49-3.43-2.97-5.16-4.44-6.1-5.17-12.25-10.37-18.46-15.33-4.83-3.86-9.7-7.46-14.59-11.11-1.08-.8-2.14-1.58-3.23-2.38-2-1.52-3.28-2.55-4.1-3.39-.81-.85-1.17-1.48-1.34-2.16-.08-.31-.22-.66-.22-.9,0-.41.5-.43,1.4-.1.9.33,2.21.99,3.73,2.05,9.08,6.19,18.13,13.33,27.12,20.63,3.34,2.71,6.66,5.46,9.96,8.24,3.28,2.82,6.55,5.61,9.79,8.58l-.05.07Z"/><path class="cls-4" d="m180.2,119.72c-3.29-.13-6.58.19-9.71,1.04-1.55.44-3.08.97-4.5,1.71-1.43.72-2.78,1.55-3.93,2.59-2.33,2.06-4.11,4.79-4.71,7.73-.29,1.47-.28,2.97.04,4.42.15.75.43,1.4.7,2.06.38.66.72,1.33,1.21,1.97,1.35,1.89,3.11,3.62,4.92,5.31l5.62,5.09c1.65,1.55,3.3,3.17,4.79,5.05.38.45.73.96,1.07,1.48.36.49.65,1.08.93,1.66.55,1.14.91,2.23,1.23,3.46.28,1.22.48,2.53.22,3.98-.21,1.44-1.21,2.99-2.54,3.72-.62.37-1.37.64-2.1.76-.74.12-1.44.08-2.1,0-1.33-.18-2.47-.63-3.58-1.1-2.18-.99-4.12-2.22-6-3.5-1.88-1.29-3.68-2.64-5.46-4-3.56-2.72-7.04-5.51-10.65-8.07-1.6-1.14-3.23-2.22-4.9-3.19-1.67-.96-3.4-1.84-5.17-2.36-.44-.13-.89-.26-1.3-.28-.4-.08-.87-.08-1.34-.09-.93-.02-1.91.04-2.88.1-1.98.13-3.95.27-5.91.4-5.09.27-10.29.26-15.37-.74-1.26-.28-2.54-.47-3.78-.86-1.24-.37-2.5-.64-3.68-1.19l-1.79-.72c-.59-.25-1.16-.56-1.74-.84l-1.72-.87c-.56-.31-1.1-.66-1.64-.99-2.7-1.69-2.25-1.56.27-.64.64.21,1.37.55,2.28.76.91.21,1.89.52,2.98.8,1.12.22,2.32.43,3.57.72,1.27.21,2.58.56,3.97.76,1.23.2,2.46.42,3.71.52l1.86.18,1.87.09c1.24.08,2.5.05,3.75.09,1.26-.03,2.51-.02,3.78-.1,2.53-.1,5.05-.34,7.68-.52,1.33-.08,2.65-.17,4.21-.04.4.06.83.1,1.21.18l1.07.3c.68.23,1.37.46,2.01.75,2.59,1.11,4.86,2.54,7.07,4.01,2.2,1.48,4.3,3.05,6.37,4.64,4.14,3.16,8.14,6.46,12.34,9.3,1.26.84,2.54,1.63,3.85,2.29,1.3.65,2.68,1.16,3.87,1.22.62.06,1.07-.06,1.54-.26.49-.24.83-.54,1.05-.94.45-.8.41-2.17.04-3.53-.19-.68-.41-1.38-.71-2.07-.13-.36-.3-.65-.46-.95-.16-.3-.3-.61-.53-.9-.75-1.2-1.83-2.32-2.87-3.43-2.19-2.19-4.59-4.27-6.96-6.44-2.59-2.39-5.22-4.87-7.3-8.06-2.14-3.33-2.61-7.58-1.49-11.28,1.13-3.71,3.53-6.82,6.48-9.12,3.01-2.25,6.46-3.67,10.01-4.51,4.38-.97,8.89-1.11,13.28-.52,2.2.29,4.37.74,6.5,1.38,1.06.33,2.11.67,3.18,1.15,1.04.48,2.03,1.04,2.97,1.65,2.83,1.85,5.31,4.05,7.8,6.13,1.25,1.04,2.49,2.07,3.78,2.94.64.43,1.3.83,1.96,1.12.33.19.65.22.97.34.3.08.6.09.85.09.46-.01.9-.3,1.06-.74.16-.38.2-1.13.1-1.82-.19-1.43-.75-2.91-1.43-4.3-1.39-2.79-3.3-5.35-5.58-7.47-3.6-3.37-7.68-6.15-12.06-8.19-4.4-2.02-9.11-3.22-13.91-3.74-1.05-.13-2.11-.14-3.16-.21-1.05-.04-2.11,0-3.18-.02-1.99.07-3.64.14-5.02.29-.69.05-1.32.1-1.89.15-.57.06-1.08.11-1.54.15-1.86.11-2.96.1-3.91-.17-.43-.12-.99-.2-1.27-.35-.47-.25.08-.69,1.5-1.26.71-.29,1.63-.63,2.78-.88,1.14-.28,2.47-.59,4.01-.77,4.53-.63,9.24-.72,13.95-.09,4.71.61,9.4,2,13.77,4.15,4.38,2.12,8.43,4.96,12.02,8.29,1.87,1.67,3.53,3.66,4.92,5.78,1.38,2.15,2.57,4.43,3.22,7.18.21,1.05.4,2.13.15,3.57-.13.77-.5,1.66-1.05,2.3-.55.67-1.31,1.14-2.14,1.38-.41.13-.87.18-1.27.2-.36-.01-.73-.04-1.09-.08-.39-.03-.66-.13-.95-.21-.29-.09-.59-.18-.87-.28-.48-.23-1.01-.45-1.45-.71-.42-.26-.88-.51-1.27-.79-1.61-1.09-2.98-2.25-4.34-3.39-1.36-1.14-2.67-2.28-3.99-3.34-1.33-1.05-2.66-2.08-4.03-2.89-1.39-.84-2.67-1.38-4.32-1.88-3.16-.94-6.47-1.53-9.78-1.61v-.08Z"/><path class="cls-4" d="m73.59,144.4c1.4,3.3,3.06,6.5,4.96,9.56.69,1.12,1.49,2.16,2.24,3.23,1.32,1.89,2.73,3.73,4.27,5.42.77.84,1.57,1.65,2.4,2.4.42.36.85.71,1.29,1,.22.15.44.29.65.39.11.06.23.12.26.13.06.03.13.05.19.07.23.08.53.04.68-.18.08-.1.13-.22.18-.33.04-.12.07-.21.13-.47.2-.89.22-1.9.17-2.88-.06-1.28-.31-2.55-.54-3.82-.26-1.25-.56-2.53-1.16-3.63-.39-.64-.21-.77.5-.38.68.4,1.8,1.46,2.47,2.99.62,1.34.97,2.77,1.18,4.23.11.73.17,1.48.18,2.25,0,.39,0,.78-.05,1.19-.01.2-.05.42-.08.63-.01.11-.04.21-.07.34-.04.16-.05.33-.12.49-.38,1.29-1.36,2.35-2.65,2.48-.63.08-1.26-.05-1.9-.26-.18-.07-.31-.12-.4-.16l-.3-.15c-.2-.1-.37-.2-.56-.31-1.38-.86-2.45-1.85-3.45-2.91-2.33-2.55-4.63-5.19-6.57-8.03-2.13-3.13-3.98-6.42-5.59-9.83-.99-2.1-1.87-4.24-2.67-6.41-1.2-3.3-2.11-6.71-2.8-10.13-.53-2.66-1.04-5.29-1.22-8-.05-.6-.09-1.18-.1-1.79.04-2.24.42-2.94,1.19-3.33.18-.09.36-.21.53-.25.59-.14.95.78,1.09,2.32.31,4.56.93,9.26,2.17,13.92.91,3.45,2.09,6.87,3.56,10.17l-.07.04Z"/><path class="cls-1" d="m34.83,401.4s6.67-35.12,9.59-42.7c2.92-7.58,16.59-33.72,21.25-39.31,4.66-5.59,17.9-19.26,23.36-20.93,5.45-1.66,15.83-3.53,20.07-1.58,4.23,1.96,13.54,2.09,13.54,2.09,0,0,8.88,4.89,5.57,8.67s11.92,7.66,11.92,7.66l5.95,6.14-9.63,5.82s-6.16,1.45-6.59,5.97c-.44,4.53-2.92-.34-2.92-.34,0,0-16.19-1.61-19.28,4.9-3.09,6.51-8.83,13.2-6.85,15.31,1.98,2.11,13.36,2.66,13.36,2.66,0,0,19.38.71,22.39,4.37s5.02,9.08-4.04,9.77c-9.05.69-20.61,1.66-20.61,1.66,0,0-20.51,8.74-22.9,11.43s-16.48,6.38-16.48,6.38c0,0-2.85,6.22-3.67,12.35s-2.59,12.23-2.59,12.23l-31.45-12.54Z"/><path class="cls-4" d="m68.87,401.71c.59,0,17.2,4.69,18.33,9.17s-19.26.8-19.26.8l.92-9.98Z"/><path class="cls-4" d="m54.23,410.75c-1.74-.5-3.46-1.09-5.16-1.68-.62-.22-1.26-.39-1.88-.63-2.16-.87-4.28-1.85-6.31-2.97-.9-.51-1.84-.92-2.73-1.42-.56-.33-1.14-.64-1.69-1-.56-.35-1.04-.81-1.55-1.24-.3-.28-.18-.38.24-.42.41-.01,1.17-.09,1.88.14,2.51.84,4.78,1.99,7.13,3.15,1.38.75,2.96,1.21,4.47,1.72,1.66.59,3.35,1.11,5.06,1.6,1.05.29,2.11.58,3.17.82,1.61.37,3.24.77,4.87,1.04,1.27.2,2.54.24,3.81.35.28.02.56.02.84.06,1.03.16,1.33.39,1.46,1.05.03.15.07.3.08.45.02.49-.46.83-1.25.88-2.33.13-4.72-.19-7.12-.6-1.79-.29-3.55-.77-5.32-1.23v-.06Z"/><path class="cls-4" d="m34.64,421.69s-1.68-18.68,2.64-17.72,20.12,7.66,25.98,8.28,25.77.56,25.77.56v18.07s-10.34-3.95-15.42,1.69c-5.08,5.65-16.38,4.14-20.71-2.64-4.33-6.78-10.16-10.21-14.87-5.95-4.71,4.26-3.39-2.3-3.39-2.3Z"/><path class="cls-4" d="m116.91,318.94l-.96-.14c-.32-.04-.62-.04-.93-.06-.15,0-.2.03-.3.04-.1.02-.17,0-.34.06-.29.1-.58.17-.89.29-1.26.5-2.55,1.17-3.81,1.88-.92.52-1.79,1.14-2.7,1.7-3.21,1.99-6.36,4.14-9.36,6.47-1.34,1.03-2.62,2.15-3.84,3.28-.77.74-1.54,1.49-2.3,2.26-.38.38-.8.71-1.21,1.06-.4.36-.81.71-1.23,1.05-.55.4-.7.16-.62-.53.09-.68.39-1.87,1.16-2.91,3.02-3.38,6.42-6.33,10.17-8.86,2.25-1.5,4.42-3.27,6.75-4.78,1.29-.82,2.58-1.63,3.96-2.34.67-.38,1.4-.7,2.14-1.02.41-.14.76-.3,1.21-.41.48-.09,1.01-.21,1.39-.17,2.05,0,3.95.47,5.78,1.04,2.77.89,5.33,2.25,7.79,3.68,1.9,1.13,3.78,2.25,5.54,3.62.39.29.79.57,1.15.91,1.37,1.23,1.55,1.88,1.17,2.71-.09.19-.16.41-.28.57-.4.55-1.29.39-2.24-.37-2.95-2.18-6.01-4.4-9.41-6.12-1.25-.64-2.54-1.23-3.84-1.71-1.3-.49-2.63-.91-3.94-1.12v-.08Z"/><path class="cls-4" d="m120.14,306.24l-1.3-.3c-.43-.07-.85-.1-1.28-.16-.83-.08-1.6-.04-2.5.13-1.75.3-3.57.93-5.34,1.65-1.3.53-2.54,1.22-3.81,1.84-4.48,2.24-8.87,4.82-13.07,7.69-1.87,1.27-3.64,2.68-5.38,4.09-1.12.9-2.2,1.84-3.29,2.78-.53.48-1.09.93-1.67,1.36-.56.45-1.13.88-1.72,1.31-.73.53-.76.37-.5-.44.25-.8.76-2.34,1.9-3.63,4.16-4.4,9.01-7.96,14.18-11.09,3.1-1.85,6.25-3.91,9.6-5.57,1.85-.9,3.74-1.73,5.74-2.37,1.01-.31,2.02-.61,3.1-.78.53-.1,1.09-.15,1.64-.19l.85-.02.81.07c2.67.24,5.14,1.08,7.47,2.09,3.52,1.57,6.78,3.61,9.83,5.82,2.38,1.71,4.73,3.4,6.89,5.42.47.45.94.88,1.4,1.36.81.92,1.31,1.56,1.5,2.13.19.57.15,1-.06,1.45-.1.21-.17.44-.3.6-.43.54-1.43.09-2.6-1.04-3.5-3.37-7.55-6.65-11.91-9.41-3.22-2.05-6.69-3.81-10.21-4.72v-.08Z"/><path class="cls-4" d="m104.29,299.84c-2.3.74-4.53,1.91-6.74,3.18-.8.48-1.56,1.02-2.34,1.53-2.79,1.76-5.53,3.67-8.17,5.71-1.16.91-2.3,1.88-3.43,2.81-1.46,1.2-2.8,2.55-4.49,3.49-.52.31-.57.13-.4-.42.09-.28.23-.65.41-1.09.1-.21.19-.46.33-.68.14-.21.31-.42.5-.62,1.35-1.4,2.7-2.82,4.17-4.1,1.5-1.24,3.05-2.45,4.68-3.55,1.95-1.33,3.82-2.91,5.83-4.27,2.21-1.49,4.52-2.86,7.03-3.93,1.55-.65,3.15-1.18,4.8-1.52,2.49-.52,5.08-.6,7.57-.39,1.94.15,3.86.34,5.75.74.41.09.83.16,1.24.27,1.52.42,1.9.87,1.95,1.68.01.19.05.38.03.56-.06.59-.82.84-1.92.69-3.23-.56-6.45-1.25-9.68-1.22-2.39,0-4.79.38-7.09,1.2l-.03-.06Z"/><path class="cls-4" d="m40.85,363.63c2.61-7.73,5.65-15.32,9.4-22.56,1.34-2.65,2.79-5.26,4.23-7.86,5.39-9,11.88-17.35,19.35-24.69,3.29-3.22,6.67-6.57,10.73-9.03,2.6-1.59,5.49-2.72,8.41-3.45.73-.18,1.47-.34,2.2-.49.74-.11,1.48-.22,2.22-.3.74-.08,1.48-.15,2.22-.21.74-.04,1.49,0,2.23.02,1.87.17,1.61.1.13.74-1.47.73-4.17,1.91-7.3,2.78-2.79.72-5.44,1.7-7.83,3.1-2.39,1.43-4.68,3.14-6.86,5.08-2.17,1.93-4.34,4.02-6.36,6.17l-3.1,3.19-2.92,3.38c-.58.68-1.16,1.36-1.75,2.04-.59.68-1.09,1.44-1.63,2.17-1.06,1.48-2.12,2.96-3.19,4.45-1.91,3.13-3.97,6.2-5.66,9.45-2.04,3.47-3.72,7.13-5.5,10.75-1.56,3.71-3.23,7.39-4.53,11.22l-1.28,3.5-1.11,3.56-1.11,3.56c-.34,1.19-.63,2.4-.95,3.61-1.97,7.27-3.34,14.74-4.21,22.17-.29,2.89-.6,5.76-.66,8.63l-.17,4.29c-.04,1.43,0,2.86,0,4.3,0,1.26.01,2.5.02,3.77.16,4.72-.05,6.22-.75,7.27-.16.24-.32.55-.49.7-.55.49-1.08-1.43-1.4-4.94-.73-10.4-.07-21.47,1.72-32.38.27-2.04.71-4.05,1.12-6.06.42-2.01.78-4.04,1.33-6.03l1.54-5.99,1.81-5.91h.07Z"/><path class="cls-4" d="m66.16,405.35c.18-1.22.39-2.42.68-3.58.1-.42.14-.86.27-1.27.44-1.46.96-2.87,1.4-4.28.2-.63.32-1.27.46-1.9.09-.4.17-.81.28-1.21.14-.4.36-.78.56-1.16.14-.24.27-.18.47.08.18.25.54.73.68,1.25.06,1.77-.37,3.43-.89,5.06-.34.97-.38,2.03-.54,3.04-.15,1.11-.38,2.21-.46,3.31-.08.68-.1,1.36-.11,2.04.03,1.03.05,2.07.32,3.06.19.77.61,1.47.95,2.17.08.15.19.29.26.45.26.58.12.84-.6,1.28-.16.1-.33.21-.49.29-.57.3-1.16.22-1.52-.21-.55-.63-.93-1.37-1.25-2.16-.26-.79-.44-1.63-.52-2.48-.16-1.26-.08-2.53,0-3.78h.07Z"/><path class="cls-4" d="m90.32,418.87c-.11,1.27-.21,2.55-.28,3.84-.02.47,0,.93-.03,1.4-.15,1.65-.3,3.31-.39,4.97-.05.74.02,1.47-.03,2.2-.05.94.02,1.88-.36,2.82-.1.29-.14.25-.32,0-.13-.18-.27-.35-.38-.5-.08-.1-.18-.22-.24-.34-.05-.12-.1-.25-.13-.38l-.31-1.42c-.05-.24-.1-.47-.13-.71l-.04-.71c-.04-.95-.04-1.91.03-2.88.09-1.15-.09-2.35-.13-3.53-.02-1.3.02-2.6.06-3.9l.08-2.4c.03-1.21.12-2.43.1-3.64-.02-.94-.17-1.87-.21-2.83-.01-.21-.05-.42-.04-.63.04-.79.27-1.02,1.04-1.08.18-.02.35-.04.53-.04.59,0,1.04.37,1.16.92.18.81.28,1.63.34,2.47.03.83,0,1.68-.04,2.53-.07,1.27-.15,2.56-.22,3.84h-.07Z"/><path class="cls-4" d="m127.05,368.52c2.08,0,4.15-.06,6.12-.3.98-.12,1.93-.31,2.78-.55.84-.24,1.59-.61,1.88-.96.17-.16.21-.32.29-.52.05-.25.03-.6-.04-.97-.15-.74-.55-1.54-1.08-2.26-.53-.73-1.18-1.4-1.92-2.01-.19-.14-.37-.31-.56-.44l-.57-.36c-.36-.26-.79-.46-1.22-.65-.6-.32-1.32-.49-1.98-.73-.71-.16-1.4-.36-2.14-.48-1.45-.26-2.94-.44-4.45-.56-2.66-.23-5.36-.28-8.08-.28-2.73,0-5.45.09-8.26,0-1.37-.03-2.94-.16-4.42-.69-.75-.26-1.49-.67-2.16-1.21-.64-.58-1.2-1.3-1.51-2.12-.64-1.64-.46-3.29-.13-4.74.36-1.46.94-2.8,1.62-4.06,1.21-2.24,2.69-4.28,4.36-6.15,1.68-1.86,3.51-3.59,5.64-5,2.81-1.82,6.07-2.76,9.38-2.85,1.66-.03,3.31.21,4.9.67,1.57.47,3.15,1.09,4.35,2.24.66.85.9,1.21.86,1.22-.05.03-.45-.26-1.32-.36-1.77-.19-4.55-.69-7.72-.63-2.79-.07-5.68.57-8.07,1.89-2.4,1.39-4.64,3.49-6.55,5.75-1.89,2.27-3.62,4.82-4.47,7.45-.43,1.3-.55,2.61-.2,3.53.3.91,1.21,1.57,2.49,1.96,1.52.42,3.45.42,5.36.44,1.92,0,3.87-.04,5.84-.07,3.93-.06,7.94-.08,11.95.52,2.19.33,4.42.86,6.55,1.91.53.24,1.04.61,1.55.92.5.33.93.7,1.37,1.08.88.77,1.67,1.67,2.33,2.69.64,1.03,1.18,2.18,1.33,3.54.04.34.04.69,0,1.06-.07.37-.11.77-.29,1.12-.27.76-.81,1.31-1.33,1.78-1.09.86-2.26,1.26-3.38,1.58-1.13.3-2.25.46-3.35.58-5.43.54-10.76.06-15.94.14-.98.04-1.89.05-2.71.32l-1.38.41-1.36.5c-1.8.71-3.57,1.55-5.28,2.52-3.44,1.92-6.71,4.19-10.07,6.35-2.61,1.69-5.27,3.31-8.13,4.63-2.85,1.33-5.84,2.3-8.93,2.96-1.36.29-2.7.53-4.1.67-5.2.46-6.87-.23-7.86-1.15-.23-.22-.53-.45-.65-.65-.2-.35.23-.6,1.13-.78.91-.19,2.3-.34,4.06-.45,5.23-.36,10.51-1.6,15.38-3.86,4.87-2.24,9.44-5.64,14.43-8.76,3.69-2.33,7.72-4.5,12.25-5.72,1.52-.34,2.59-.31,3.74-.34,1.12-.01,2.21,0,3.3.03,2.16.04,4.29.1,6.39.09v.08Z"/><path class="cls-4" d="m60.23,409.49c3.58.7,7.2,1.23,10.83,1.57,1.32.12,2.65.1,3.97.16,2.32.1,4.65.11,6.9-.14,1.12-.13,2.22-.32,3.2-.66.98-.33,1.83-.82,2.1-1.35.26-.47.12-1.16-.4-1.92-.51-.75-1.24-1.46-1.99-2.1-.99-.82-2.05-1.58-3.15-2.31-.54-.37-1.12-.68-1.65-1.08-.54-.39-1.08-.78-1.64-1.17-.7-.48-.62-.46.17-.52.39-.02.98-.1,1.67-.07.35,0,.74,0,1.12.08.38.08.75.22,1.13.38.67.3,1.33.62,1.98.97l.97.55.92.64c1.21.91,2.39,1.88,3.41,3.45.49.81.95,2.04.77,3.3-.17,1.32-.99,2.41-1.78,3.03-.8.66-1.61,1.01-2.4,1.27-.79.26-1.56.43-2.31.55-3.59.52-7.11.77-10.61.65-3.83-.14-7.61-.61-11.36-1.23-2.3-.39-4.59-.84-6.87-1.34-3.45-.76-6.87-1.73-10.23-2.77-2.61-.82-5.23-1.54-7.79-2.73-.56-.26-1.13-.51-1.67-.86-2-1.31-2.41-2.22-2.06-3.19.08-.23.14-.47.26-.65.45-.6,1.33-.34,2.61.29,3.86,1.87,8.5,3.4,13.2,4.69,3.51.95,7.1,1.79,10.72,2.42v.09Z"/><path class="cls-4" d="m255.81,407.91c1.31-1.15,2.64-2.32,3.87-3.51.39-.4.35-.3.41-.4.02-.06.02-.04.03-.18l.05-.63.15-2.62c.06-1.29.03-2.58.09-3.86l.61-13.65c.09-2.02.11-4.05.11-6.06.05-1.29.1-2.58.15-3.87.04-.65.13-1.29.21-1.93l.13-.97c.05-.32.16-.64.23-.96.23-.8.1-.69.29-.01.24.68.75,1.94,1.02,3.42.16,1.32.27,2.63.39,3.95.09,1.32.07,2.63.09,3.95,0,1.32,0,2.64-.03,3.96-.05,1.32-.13,2.64-.21,3.97-.22,3.17-.09,6.48-.17,9.73-.05,1.79-.09,3.57-.18,5.39-.03.35-.02,1.25-.37,1.81-.18.27-.46.58-.65.76l-.5.49-1.98,1.85c-1.64,1.49-3.31,2.93-4.99,4.37-2.55,2.17-5.21,4.23-7.85,6.26-2.06,1.56-4.02,3.2-6.24,4.61-.48.32-.94.65-1.47.91-.48.25-.89.45-1.24.6-.35.14-.69.16-.96.19-.54.03-.9-.1-1.23-.36-.15-.12-.33-.23-.43-.36-.34-.45.28-1.2,1.47-2,3.64-2.32,7.38-5.11,11.07-8.05,2.74-2.19,5.46-4.45,8.08-6.82l.05.05Z"/><path class="cls-4" d="m202.59,425.93c-10.84-.05-21.67-.22-32.51-.5-3.95-.1-7.91-.13-11.86-.28-6.96-.27-13.93-.61-20.89-1.12-3.48-.27-6.96-.56-10.46-1.04-.87-.12-1.75-.26-2.64-.43-.44-.09-.89-.19-1.34-.3-.24-.07-.44-.12-.71-.22-.3-.12-.61-.22-.89-.4-.62-.29-.9-.96-1.02-1.59-.09-.36-.1-.55-.14-.79-.04-.23-.06-.45-.08-.68-.1-.9-.15-1.78-.2-2.66-.29-6.23-.28-12.44-.23-18.59.07-3.95.15-7.9.35-11.85.12-1.97.2-3.95.43-5.92l.39-2.95c.15-.98.41-1.95.64-2.92.72-2.4.61-2.07.94.05.38,2.13,1.16,5.99.83,10.48-.21,3.99-.35,7.98-.44,11.98-.11,4-.21,8-.22,12,0,2,0,4,.05,5.98.02.99.06,1.98.12,2.96.03.48.07.97.11,1.43l.09.77c.02.07.04.07.2.14.4.12.83.24,1.3.34.92.2,1.89.37,2.87.51,1.96.28,3.95.5,5.95.7,9.59.93,19.68,1.07,29.58,1.33,10.88.26,21.78.41,32.67.44,6.7.02,13.41,0,20.11-.1,3.42-.06,6.84-.13,10.26-.19,1.71-.05,3.41-.1,5.12-.14,1.56-.06,3.12-.12,4.67-.17l.36-.02h.18c.06-.01.04-.11.06-.16.03-.23.05-.47.07-.71.05-.75.09-1.5.14-2.24.07-1.65.15-3.29.22-4.93.28-7.82.25-15.51.25-23.25-.01-1.7-.02-3.37-.03-5.09.03-6.37.22-8.39,1.15-9.76.2-.31.39-.72.58-.9.59-.61,1.31,1.99,1.45,6.67.25,6.82.31,13.82.22,20.92-.04,3.55-.16,7.12-.29,10.72-.08,1.8-.17,3.6-.25,5.41l-.08,1.36-.12,1.69c-.03.45-.07.89-.13,1.33-.06.43-.19.83-.54.98l-.4.29-.03.02c-.21-.22.28.31.22.26h-.02s-.06.03-.06.03l-.13.05-.25.11-1,.43c-.52.02-1.06.05-1.59.07l-4.3.16-4.1.12-8.21.16c-5.47.08-10.95.1-16.42.11v-.08Z"/><path class="cls-4" d="m253.39,353.67c.15-2.15.24-4.32.36-6.49.05-.79,0-1.58.06-2.37.19-2.79.33-5.59.55-8.4.08-1.24.1-2.49.12-3.73,0-.79.01-1.59.09-2.38.04-.4.08-.79.13-1.19.04-.4.22-.79.31-1.18.16-.49.18-.42.4,0,.11.21.28.51.51.87.18.36.3.78.37,1.24.28,1.61.27,3.22.34,4.83.03,1.61.08,3.23-.06,4.86-.15,1.95.02,3.97.02,5.97.01,2.19-.09,4.39-.19,6.59l-.21,4.06c-.09,2.05-.32,4.11-.43,6.14-.09,1.58-.05,3.15-.11,4.72,0,.35,0,.69-.04,1.04-.13,1.29-.54,1.65-1.16,1.85-.14.04-.28.11-.41.13-.22.03-.4-.09-.57-.35-.17-.26-.37-.65-.41-1.12-.24-2.8-.09-5.68-.02-8.59.05-2.16.21-4.33.29-6.5h.07Z"/><path class="cls-4" d="m249.17,325.32c.06,0,.14-.03.23-.05.11-.04.29-.11.48-.19.05-.02.1-.04.14-.07,0-.03-.01-.04-.02-.05-.03-.03-.06-.05-.11-.07-.1-.05-.33-.02-.43-.07-.1-.04-.23-.09-.39-.14,0-.01-.15-.03-.3-.06l-.41-.07-.83-.13c-1.1-.17-2.21-.32-3.33-.44-.99-.11-1.98-.13-2.96-.13-1.26-.08-2.51.02-3.77-.36-.4-.23-.36-.31-.04-.73.16-.21.39-.43.68-.66.29-.24.63-.42,1-.47.66-.1,1.32-.18,1.98-.25.66-.04,1.32,0,1.98.03,1.31.07,2.63.21,3.93.44.39.07.79.12,1.19.16l.6.05.72.05c.68.04,1.36.09,2.08.11.69.06,1.43.1,1.97.26.6.15.97.38,1.25.59.3.22.49.39.67.66.08.11,0,.19-.03.25l-.11.21c-.08.14-.14.27-.25.42l-.48.53c-.16.18-.28.35-.59.54l-.2.14-2.08,1.39-1.01.65-.69.43c-1.4.88-2.85,1.7-4.23,2.59-1.07.69-2.04,1.51-3.08,2.25-.23.16-.44.35-.68.5-.44.28-.77.39-1.07.35-.31-.07-.57-.26-.84-.54-.12-.12-.25-.23-.35-.34-.16-.19-.19-.43-.16-.76.03-.34.16-.72.44-.97,1.66-1.56,3.61-2.77,5.57-4.01l2.2-1.37,1.1-.69c.06-.04.07-.04.06-.04h0s.02,0,.02,0h.04s.08.03.08.03Z"/><path class="cls-4" d="m134.91,325.44c1.03-.48,2.07-.95,3.08-1.46.37-.18.71-.42,1.08-.6l1.97-.96c.66-.31,1.32-.62,1.97-.96.58-.3,1.13-.64,1.67-.98.68-.47,1.38-.9,2.16-1.21.24-.1.3.05.24.34-.07.28-.24.75-.58,1.11-1.28,1.14-2.67,2.12-4.19,2.92-.92.46-1.78,1.08-2.68,1.61-.99.57-2,1.12-3.01,1.67l-1.86,1c-.94.51-1.89.99-2.79,1.56-.7.44-1.31.98-1.95,1.49-.14.11-.27.24-.42.34-.55.38-.81.36-1.24-.08-.1-.1-.21-.2-.29-.3-.3-.37-.26-.84.09-1.2,1.05-1.09,2.35-1.91,3.69-2.68,1-.57,2.01-1.1,3.03-1.63l.03.05Z"/><path class="cls-4" d="m156.71,325.12c-.9-1.02-.51-2.74.21-4.31.16-.39.42-.79.61-1.14.16-.24.33-.47.51-.7.36-.45.74-.87,1.15-1.27.6-.57,1.22-1.16,1.95-1.58,1.29-.75,2.76-1.15,4.19-1.27,1.41-.11,2.9.1,4.26.66,1.21.5,2.26,1.34,3.02,2.3.52.59.86,1.3,1.13,1.99.13.35.24.7.34,1.05.11.34.18.7.22,1.07.05.47.08.4-.28.17-.4-.2-1.16-.62-1.77-1.15-2.29-1.9-3.32-2.92-5.84-3.09-1.48-.19-2.91.48-4.09,1.33-.66.47-1.27,1.06-1.78,1.73l-.19.25-.15.2c-.06.08-.12.16-.18.25-.11.18-.22.38-.3.6-.03.09-.06.19-.08.29-.01.09-.04.24.06.25l.54.03.58.02c1.78.03,3.56.06,5.32.1,1.42,0,2.83-.11,4.26-.1.32,0,.63-.02.95,0,.59.05.98.13,1.22.34.24.24.35.52.4.9.03.17.07.34.07.5,0,.27-.13.48-.37.68-.24.2-.59.41-.99.41-2.42.18-4.94.12-7.51.09l-2.31-.03h-1.54c-.79.03-1.65.23-2.39.15l-.45-.12c-.13-.05-.22-.13-.33-.19-.23-.13-.38-.26-.52-.4l.06-.05Z"/><path class="cls-4" d="m183.05,325.2c-.11-.1-.19-.18-.28-.31-.11-.15-.19-.33-.26-.5-.11-.34-.16-.7-.13-1.1.02-.77.31-1.62.69-2.43.16-.39.45-.84.63-1.14.17-.25.35-.48.53-.71.37-.46.78-.89,1.21-1.29.63-.58,1.27-1.16,2.02-1.58,1.33-.73,2.79-1.16,4.23-1.3,1.38-.18,3.05-.02,4.41.64.61.29,1.19.62,1.7,1.03.52.4.95.88,1.36,1.36.52.61.89,1.34,1.15,2.08.12.37.23.75.3,1.14.04.19.06.39.09.58.01.2-.02.4-.03.6-.09.5-.04.41-.32.09-.32-.32-1-.78-1.58-1.32-1.07-.94-1.97-1.73-2.87-2.29-.9-.57-1.8-.88-3.03-.92-1.57-.12-3.08.55-4.32,1.42-.7.48-1.33,1.07-1.87,1.75-.12.15-.28.38-.36.49-.06.08-.12.17-.18.26-.11.19-.22.39-.3.62-.03.13-.11.31-.02.43.12.04.26.04.4.06.3.03.54.06.94.09,1.87.1,3.75.24,5.62.28,1.45.02,2.88-.11,4.32-.16.32-.01.63-.05.95-.04.59.02.98.06,1.25.25.26.22.4.48.5.85.04.17.11.33.13.49.04.26-.07.49-.3.72-.23.22-.58.47-1.01.49-2.56.35-5.22.3-7.91.2-1-.05-2-.1-3-.14l-.81-.04c-.51.08-1.02.02-1.53.04-.52.03-.97-.08-1.45-.12l-.18-.02s-.08-.04-.12-.06l-.23-.13c-.15-.09-.32-.17-.4-.28l.07-.06Z"/><path class="cls-4" d="m210.84,325.67c-.27-.18-.38-.36-.53-.56-.19-.3-.25-.63-.29-.95-.04-.65.16-1.38.48-2.11.32-.73.79-1.45,1.31-2.1.35-.42.73-.81,1.13-1.17.58-.53,1.16-1.08,1.84-1.49,1.2-.71,2.54-1.2,3.9-1.41,1.32-.24,2.83-.17,4.19.36.6.24,1.19.53,1.68.92.51.38.92.85,1.29,1.31.49.59.79,1.28,1.02,1.96.12.34.21.68.29,1.03.09.34.15.68.16,1.04.02.45.06.39-.29.16-.38-.21-1.12-.62-1.69-1.15-2.22-1.89-2.98-2.73-5.37-2.73-1.44-.06-2.8.68-3.96,1.53-.33.23-.64.49-.94.77-.15.14-.29.28-.44.43l-.36.4c-.25.27-.53.61-.68,1.05-.02.07-.04.16,0,.23.06.04.13.03.19.05l.42.08c.25.03.46.07.77.11,1.73.16,3.48.35,5.21.37,1.34.02,2.66-.14,3.98-.26.29-.02.57-.08.87-.1.54-.02.89,0,1.15.15.25.19.4.45.53.81.06.16.13.32.17.47.06.26-.02.5-.21.74-.2.24-.51.52-.92.58-2.43.54-4.99.52-7.54.38-.83-.04-1.65-.11-2.48-.18l-1.48-.13c-.82,0-1.7,0-2.49-.09l-.58-.19c-.19-.06-.27-.18-.42-.26l.07-.06Z"/><path class="cls-4" d="m216.9,333.6l-27.16-.78c-3.3-.1-6.61-.09-9.9-.21-11.64-.39-23.27-.88-34.9-1.06-2.38,0-4.76-.01-7.14-.02-1.19-.01-2.38-.02-3.56-.03h-1.78s-.89-.01-.89-.01c-.21-.02-.28.04-.46-.03-.13.11-.44-.08-.45.19-.11.37-.19,2.42-.24,3.99l-.16,4.94c-.07,1.65-.2,3.3-.33,4.95l-.22,2.47c-.09.82-.24,1.64-.36,2.46-.36,2.04-.63,1.74-1.09-.02-.52-1.77-1.14-4.99-1.18-8.77.01-2.05.08-4.09.13-6.16.03-1.04.07-2.07.14-3.15v-.2c.01-.11.04-.25.05-.37.03-.25.05-.51.09-.76.06-.51.17-.99.36-1.4.2-.39.44-.74.83-.96l.61-.2.3-.1.15-.05.08-.02h.04s.02-.02.02-.02h0s0,0,0,0c.01.03-.02-.07.03.07-.05-.14,0-.04-.01-.07h.04s.05,0,.05,0h.11s.22,0,.22,0h.44s.82,0,.82,0h.88s1.75,0,1.75,0l3.51.02c2.34.05,4.68.18,7.03.3,2.34.18,4.69.21,7.04.28,2.35.08,4.7.16,7.06.25,8.11.33,16.55.31,24.84.48,9.11.23,18.23.46,27.35.69,5.61.11,11.22.23,16.83.34,4.47.06,8.96.12,13.41.18l.98.2c.34.08.45.46.58.76.23.63.31,1.5.37,2.1.1,1.06.17,2.11.22,3.16.11,2.09.17,4.16.23,6.23.08,3.29.14,6.55.17,9.8.03,3.25.01,6.5-.16,9.76-.07,1.44-.12,2.84-.25,4.29-.49,5.37-1.06,7.07-2,8.07-.21.23-.43.54-.61.65-.59.39-.66-1.8-.45-5.64.3-5.72.19-11.64.23-17.63,0-3-.04-6.02-.12-9.04-.08-3.01-.18-6.08-.44-9.01l-.04-.4c0-.1,0-.07,0-.07h0s0,0,0,0c0,0,0,0,0,0-3.69-.05-7.39-.1-11.09-.15l-11.98-.22v-.08Z"/><path class="cls-4" d="m213.31,378.87c-7.68-.01-15.36-.12-23.04-.25-2.8-.06-5.6-.03-8.4-.11-9.87-.31-19.74-.82-29.6-1.49-2.19-.15-4.38-.31-6.57-.46-2.19-.13-4.37-.36-6.54-.53-1.39-.13-2.79-.19-4.19-.36l-4.18-.54c-2.78-.32-5.55-.91-8.25-1.69-1.65-.67-1.41-.61.13-.85.77-.14,1.84-.2,3.12-.28,1.28-.04,2.73.07,4.33.17,5.63.47,11.25,1.08,16.92,1.47,5.66.43,11.35.77,17.07,1.16,6.84.42,13.98.42,20.99.51,7.71.11,15.43.14,23.15.11,4.75-.03,9.5-.06,14.25-.16,3.59-.08,7.2-.17,10.79-.25,1.78-.07,3.55-.14,5.33-.2.65-.1,1.58-.39,2.38-.65.83-.28,1.66-.58,2.48-.91,2.55-1.01,5.02-2.17,7.43-3.43,1.2-.63,2.39-1.29,3.58-1.95l1.77-1.02.44-.25.24-.15.44-.28.55-.35c.18-.14.34-.26.53-.38.14-.04,0-.14-.08-.16-.08-.04-.15-.07-.22-.1-.14-.06-.26-.12-.37-.17-.22-.11-.38-.22-.54-.37-.07-.11-.61-.42-.84-.67-.27-.26-.47-.53-.62-.83-.14-.27-.34-.57-.38-.81-.07-.41.36-.58,1.21-.56.21,0,.45.02.72.05.13.02.27.04.42.06l.22.04c.12.03.23.05.35.08.98.24,2.25.59,3.48,1.1.6.25,1.07.55,1.38.86.31.31.53.57.67.95.02.04.03.14.02.18-.01.04-.05.09-.08.13l-.17.26-.34.52c-.22.36-.45.72-.68,1.08-.79.5-1.46.87-2.21,1.31-.72.42-1.45.84-2.17,1.26-.92.52-1.84,1.05-2.78,1.55-1.87,1.03-3.82,1.97-5.78,2.91-1.97.94-3.98,1.82-6.07,2.61-1.05.4-2.1.77-3.27,1.1-.14.04-.32.08-.47.12-.16.04-.31.08-.55.12l-.33.05-.23.02-.44.03c-.6.05-1.16.08-1.69.09-7.76.28-15.51.34-23.27.39v-.08Z"/><path class="cls-4" d="m331.9,449.74c4.14.09,8.29.04,12.44-.07,1.52-.03,3.02-.21,4.54-.25,2.67-.07,5.35-.2,8.02-.3,2.68-.09,5.36-.2,8.03-.35,2.38-.12,4.75-.39,7.11-.56,3.02-.27,6.05-.6,9.13-.25.96.1.84.22.08.63-.46.25-1,.55-1.58.87-.66.33-1.44.62-2.3.83-.76.2-1.52.34-2.29.46l-2.3.37c-1.53.24-3.07.49-4.62.6-3.1.28-6.21.49-9.34.57-3.75.1-7.63.52-11.46.71-4.21.21-8.44.28-12.66.33-2.6-.02-5.2,0-7.8-.09l-2.96-.07-2.96-.15c-1.97-.07-3.93-.24-5.89-.35-3.04-.21-6.04-.26-9.07-.61-.67-.07-1.33-.09-1.99-.2-2.47-.46-3.21-.86-3.51-1.9-.07-.24-.17-.48-.19-.71-.05-.76,1.06-1.16,2.82-1.01,5.24.39,10.71.84,16.28,1.1,4.13.14,8.3.35,12.47.31v.09Z"/><path class="cls-4" d="m290.65,436.63l-.02,2.7s-.01.08.01.1l.03.04s0,0,.12.12l1.11,1.06,2.27,2.12,1.15,1.04.51.45.14.14c.14.13.28.25.42.35l.22.16s.05.04.06.02v-.06s.02-.12.02-.12c.02-.08.01-.19.05-.26l.04-.49v-.15s.02-.46.02-.46v-.92s.03-3.68.03-3.68l.04-7.39c-.02-2.38-.02-4.77.02-7.14.08-3.03-.14-6.12.96-9.11.44-.92.15-.81.4,0,.14.41.34.98.68,1.68.28.69.45,1.49.59,2.36.21,3.07.42,6.13.63,9.2,0,3.08-.04,6.18-.18,9.31-.08,1.38-.1,2.78-.1,4.19,0,.74,0,1.49,0,2.23l-.04,3.49c0,.1.01.22,0,.3l-.08.16-.15.33-.31.65-.15.33-.08.16-.02.04v.02s-.01,0-.01,0h0s0,0,0,0c0,.01-.06-.11-.03-.06h0s0,.02,0,.02c-.03.03-.05.04-.07.05-.18.05-.38.01-.59,0-.45-.07-1.04-.26-1.72-.79-.67-.52-1.35-1.1-2-1.66l-2.66-2.31-2.37-2.09-1.28-1.16c-.71-.51-.82-1.32-.87-2.12-.1-2.66-.03-5.21-.03-7.8.05-3.91.09-7.85.14-11.73,0-3.02-.14-5.99-.16-8.99,0-.66-.03-1.31-.01-1.98.06-1.24.13-2.05.35-2.62.24-.56.54-.87.96-1.09.19-.1.39-.24.57-.29.31-.09.56.13.78.59.22.46.39,1.16.43,2.05.26,5.28.31,10.87.3,16.48,0,4.17-.06,8.37,0,12.53h-.08Z"/><path class="cls-4" d="m386.65,425.83l-.26,5.37c-.03.65.03,1.3,0,1.95-.13,2.29-.37,4.59-.45,6.88-.04,1.02-.07,2.04-.07,3.05,0,.65.02,1.29,0,1.94,0,.32-.01.65-.03.97.01.16-.05.33-.13.49-.06.17-.06.33-.09.49-.07.41-.15.36-.35.03-.12-.16-.2-.4-.51-.68-.22-.28-.32-.62-.41-.99-.26-1.32-.5-2.64-.67-3.97-.11-.66-.09-1.33-.09-2,0-.67.03-1.34.07-2.01.11-1.6-.1-3.27-.08-4.9l.07-5.39c.01-1.1.03-2.21.02-3.31-.01-1.67,0-3.35-.13-5-.12-1.28-.38-2.53-.6-3.78-.04-.28-.13-.54-.12-.83-.01-1.04.2-1.39.88-1.68.16-.07.31-.15.46-.19.51-.15,1,.24,1.34.99.57,1.11.73,2.29.96,3.48.21,1.19.24,2.41.28,3.63.05,1.81,0,3.63-.03,5.44h-.08Z"/><path class="cls-4" d="m315.11,401.03c-.53.36-1.04.84-1.48,1.41-.11.14-.21.29-.31.44-.09.14-.22.36-.23.34-.06.07-.13.16-.18.27-.04.08-.05.16-.05.23,0,.07.01.17.09.18-.24.17,3,.42,5.08.52,1.01.06,2.03-.02,3.03-.01.64,0,1.29-.04,1.94-.02.65-.04,1.3.16,1.95.52.41.22.35.27.02.62-.17.18-.4.45-.69.8-.14.17-.3.26-.46.38-.08.06-.17.09-.25.16-.09.02-.18.05-.27.06l-1.96.29c-.33.04-.66.09-.99.11l-.99.02c-1.32,0-2.65-.05-3.99-.2-.4-.05-.8-.07-1.21-.08-.55,0-1.09,0-1.64-.01-.32.01-.66-.05-.98-.06-.35,0-.62-.1-.88-.19-.28-.08-.5-.19-.72-.31l-.14-.12c0-.08-.09-.12-.11-.18-.09-.11-.14-.24-.18-.37-.33-1.14.19-2.64.85-3.9.52-.95,1.12-1.72,1.86-2.45.9-.88,2.02-1.59,3.25-1.97.93-.29,1.94-.36,2.85-.27.92.08,1.85.28,2.73.64,1.37.54,2.62,1.42,3.57,2.51.2.24.43.46.6.73.64.97.58,1.38-.06,1.95-.15.13-.28.27-.44.38-.52.36-1.19.21-1.68-.32-.74-.77-1.41-1.47-2.1-1.92-.7-.46-1.4-.74-2.26-.85-.31-.05-.66-.06-.99-.07-.3,0-.59.03-.88.09-.57.12-1.12.36-1.63.74l-.05-.06Z"/><path class="cls-4" d="m336.82,400.63c-.58.27-1.15.65-1.65,1.13-.26.24-.49.5-.72.78-.11.14-.22.29-.32.43l-.15.23-.07.12s-.02.03-.03.04c-.1.13-.1.27-.17.43-.03.07-.07.16-.07.25.02.08.1.09.16.12.13.05.3.1.49.15l.76.09.83.08,1.66.13c.98.08,1.98.02,2.96.04.63,0,1.26-.02,1.89,0,.63-.03,1.26.17,1.9.51.4.21.34.26.02.59-.16.17-.4.43-.68.77-.14.16-.29.25-.46.36-.09.05-.17.1-.25.15-.09.02-.18.05-.27.06-2.57.47-5.15.43-7.78.07-.2-.03-.39-.05-.6-.07-.33,0-.67-.04-1-.05-.34,0-.66-.05-.96-.11l-.46-.08-.39-.14c-.27-.09-.47-.2-.67-.36l-.07-.06-.02-.02h0s0-.02.01-.02h0s-.04-.05-.04-.05c-.05-.05-.09-.11-.13-.17-.06-.13-.1-.25-.14-.39-.13-.52-.09-1.12.07-1.73.18-.67.48-1.34.82-1.96.26-.44.53-.84.84-1.24.62-.78,1.33-1.48,2.16-2.05,1.01-.71,2.19-1.2,3.4-1.4.91-.16,1.85-.14,2.78.02.93.17,1.81.56,2.58,1.06,1.2.77,2.24,1.73,3.07,2.8.19.24.38.46.54.71.57.94.52,1.32-.1,1.87-.14.12-.27.26-.42.37-.5.35-1.16.2-1.63-.35-.71-.8-1.36-1.59-2.03-2.2-.67-.62-1.34-1.02-2.05-1.24-1.04-.29-2.43-.21-3.54.38l-.04-.07Z"/><path class="cls-4" d="m356.96,400.35c-.54.33-1.05.82-1.49,1.39-.22.29-.42.6-.61.92-.23.44-.22.36-.29.5-.07.15-.09.31-.03.45.01.01.03.02.05.03.1.06.24.1.4.16h.06s.18.04.18.04l.4.06.81.12c1.08.15,2.17.27,3.25.37,1.01.1,2.02.05,3.02.08h1.93c.32-.02.64,0,.96.07.32.04.65.25.98.36.41.19.37.24.05.59-.16.18-.39.46-.67.81-.14.17-.3.26-.47.38-.09.05-.18.11-.26.16-.09.02-.18.05-.28.07-2.69.53-5.38.42-8.08-.01-.64-.1-1.29-.16-1.95-.2l-.78-.05-.8-.09-.4-.05-.34-.12c-.22-.08-.45-.15-.66-.24-.37-.19-.66-.69-.71-1.15-.09-.62.04-1.34.25-2.03.11-.35.25-.69.39-1.03.14-.31.24-.48.37-.72.5-.88,1.11-1.71,1.86-2.42.92-.88,2.08-1.57,3.36-1.88,1.96-.47,3.91.04,5.54.92,1.27.69,2.42,1.54,3.37,2.64.21.24.42.48.6.75.63,1.03.57,1.57-.13,2.04-.16.1-.31.22-.48.29-.58.2-1.14.03-1.55-.44-1.28-1.47-2.81-2.79-4.42-3.21-1.27-.31-2.38-.23-3.42.5l-.05-.06Z"/><path class="cls-4" d="m345.95,412.46l-18.18.06-6.63.12h-11.69s-5.85,0-5.85,0h-2.93s-.73-.02-.73-.02l-.92-.04c-.75-.11-1.13-.38-1.61-.57-1.13-.52-2.22-1.08-3.3-1.65-1.55-.82-3.18-1.75-4.54-2.67-.58-.4-.91-.78-1.13-1.12-.09-.16-.19-.33-.26-.47l-.11-.23c-.02-.1.1-.13.15-.18.54-.33,1.14-.85,2.91-.99.81-.09,1.7-.15,2.6-.17l1.34-.03c.25-.01.38,0,.52,0h.42c1.11.02,2.22.05,3.33.1,1.11.06,2.22.08,3.33.31.69.21.99.33.97.4-.02.07-.36.14-.93.41-1.15.54-3.26,1.3-5.78,1.7l-1.31.19s-.13.04-.14.03c0-.01,0-.01,0,0h0s0,0,0,0c0,0,0,0,0,0,0,0-.07-.02-.07,0,0,0,0,.02,0,.03l.02.03h0s-.05-.01.06.04l.44.24,1.77.92c.58.29,1.21.6,1.7.8l.04.02h0s0,0,0,0c0,0,0-.03-.02.09l-.11.49-.13.67.28-1.24h0s.04,0,.04,0h.07c.09,0,.19,0,.28,0l.97.02,2.05.04c1.38.03,2.76.06,4.14.09,5.43.13,11.07-.12,16.62-.19,6.1-.05,12.21-.11,18.32-.16,3.76-.03,7.52-.06,11.27-.09,5.69-.06,11.41-.07,17.06-.19,1.49-.05,2.98-.1,4.46-.14l1.11-.05.37-.02.27-.02.96-.08.75-.08.32-.04c.06-.02-.08-.11-.12-.15l-.2-.14c-.37-.26-.76-.47-1.03-.65-.26-.18-.44-.31-.6-.46-.02-.03-.31-.27-.49-.43-.19-.17-.36-.33-.5-.48-.58-.6-.78-1.13-.83-1.73-.02-.27-.1-.56-.07-.78.05-.36.45-.44,1.15-.31.36.06.76.21,1.22.43.23.11.47.24.73.38.28.16.45.24.97.6.53.36,1.09.73,1.6,1.12l1.47,1.18c.5.38,1.05.78,1.41,1.16.37.38.54.71.69,1.01.14.3.17.54.18.79,0,.06,0,.12,0,.21-.02.1-.11.1-.17.15l-.38.24c-.5.33-1,.67-1.5,1.02-5.8.12-11.76.24-17.74.36-6.1.07-12.22.14-18.34.21v-.07Z"/><g class="cls-6"><path class="cls-4" d="m183.55,351.85l-3.71,2.45c-.45.3-.85.66-1.31.96-1.59,1.05-3.19,2.08-4.76,3.16-.71.46-1.38.98-2.04,1.49-.85.66-1.66,1.37-2.63,1.87-.3.16-.48-.15-.47-.62,0-.46.18-1.1.64-1.52,1.63-1.48,3.27-2.93,5.18-4.06,1.13-.69,2.14-1.63,3.22-2.45l3.59-2.65,2.21-1.62c1.1-.84,2.26-1.62,3.32-2.49.83-.68,1.54-1.46,2.3-2.2.17-.16.32-.34.49-.49.68-.54,1.02-.56,1.58-.16.13.09.27.17.38.27.38.34.37.89-.01,1.43-1.17,1.56-2.73,2.82-4.3,4.06-1.16.93-2.42,1.75-3.64,2.61l-.04-.05Z"/></g><path class="cls-4" d="m154.35,400.17l-2.91,2.12c-.35.26-.67.56-1.03.81-1.25.91-2.5,1.8-3.74,2.73-.54.43-1.07.85-1.61,1.27-.67.55-1.33,1.13-2.09,1.58-.24.14-.34-.04-.3-.35.04-.31.2-.78.56-1.13.64-.63,1.28-1.24,1.94-1.84.69-.56,1.4-1.1,2.14-1.62.88-.61,1.69-1.39,2.54-2.08l2.83-2.26,1.74-1.39c.87-.71,1.77-1.4,2.61-2.13.65-.57,1.23-1.21,1.84-1.82.13-.13.25-.28.4-.41.52-.47.77-.53,1.19-.26.1.06.2.11.28.18.29.24.26.65-.07,1.07-.98,1.23-2.19,2.29-3.43,3.34-.93.77-1.92,1.47-2.87,2.21l-.03-.03Z"/><path class="cls-4" d="m172.83,400.46l-3.32,2.39c-.4.29-.78.62-1.18.91-1.43,1.01-2.87,2.02-4.29,3.05-.63.46-1.23.96-1.82,1.45-.74.66-1.55,1.25-2.41,1.75-.27.15-.38-.05-.33-.4.05-.35.23-.9.62-1.32.68-.77,1.5-1.36,2.29-2,.8-.63,1.61-1.23,2.46-1.81,1.01-.69,1.95-1.55,2.92-2.33,1.07-.85,2.17-1.68,3.26-2.51l2.01-1.54c1.01-.79,2.04-1.56,3-2.38.75-.64,1.42-1.35,2.13-2.03.16-.15.3-.31.46-.45.6-.53.88-.59,1.33-.31.1.06.21.12.31.2.3.25.25.71-.13,1.17-1.14,1.36-2.54,2.56-3.99,3.7-1.08.85-2.19,1.67-3.28,2.5l-.03-.03Z"/><path class="cls-4" d="m307.55,317.27c-.03.42,4.74.31,5.37-3.14.64-3.45,3.05,1.8,2.08,3.09-.97,1.29-6.06,6.23-6.06,6.23l-1.39-6.18Z"/><path class="cls-4" d="m323.66,300.69l3.57-4.52s2.58,1.48,1.5,2.91c-1.09,1.44-2.63,3.47-2.63,3.47l-2.44-1.86Z"/><path class="cls-4" d="m337.77,282.44c.44-.25,7.15-6.68,7.93-7.62s-5.01,10.21-5.01,10.21l-2.92-2.59Z"/><path class="cls-2" d="m441.35,209.81c-4.55-1.56-5.93-2.33-5.93-2.33,0,0-7.75,10.74-12.78,11.52-14.61,2.28-37.84-9.07-37.84-9.07,0,0-26.77-13.05-32.69-13.23-5.92-.18-11.01-1.7-11.12,1.05-.11,2.75,7.94,8.11,7.94,8.11,0,0,9.87,2.01,11.3,3.19,1.45,1.17,7.45,5.74,5.06,5.64-2.38-.09-16.76.61-18.17,1.35-1.4.74-14.9,10.98-15.76,11.51-.85.54-9.46,11.03-9.13,12.25.33,1.22,7.99,3.02,7.99,3.02,0,0-4.79,7.29-5.6,10.32-.81,3.04-.72,6.46,2.43,5.98,3.15-.49,14.31-9.34,14.31-9.34,0,0,12.47-9.42,16.21-9.95,3.73-.53-12.65,9.16-15.5,14.35-2.86,5.19-7.31,13.89-5.87,16.03,1.43,2.13,6.47,2.24,10.59-2.27,4.12-4.51,9.58-12.26,13.82-13.68,4.25-1.41,10.38-3.49,17.85-1.71,7.47,1.77,11.99.78,11.91,5.16-.07,4.38-4.7,12.45-9.09,17.06-4.39,4.6-11.45,11.37-10.85,16.32.59,4.94-.02,9.78,3.63,8.88,3.65-.89,8.57-7.09,8.57-7.09,0,0,6.33-8.48,9.54-10.32,3.21-1.84,26.84-11.1,26.84-11.1l10.02-7.74,14.47-17.6,12.29-9.53s-9.87-25.23-14.42-26.8Zm-7.82,16.43c-1.76.57-4.42-.84-3.95-3.04.46-2.2,2.33-2.93,2.33-2.93,0,0,2.74-1.17,4.08.96,1.34,2.13-.69,4.45-2.45,5.02Zm8.14,15.18c-2.65-.5-4.46-2.79-3.44-4.06,1.02-1.27,4.54-2.35,4.54-2.35.05,0,1.11.12,1.53,3.24.43,3.2.02,3.65-2.63,3.16Z"/><path class="cls-4" d="m447.98,184.8s-17.83,17.13-17.01,19.47,10.42,4.9,15.05,11.22c4.64,6.32,12.72,19.3,13.13,25.13.42,5.83-.2,10.84,3.53,9.36,3.73-1.48,20.26-10.18,22-13.66,1.74-3.48-11.89-7.55-9.42-12.85,2.47-5.3-.86-18.73-7.33-18.09s-10.59-4.59-8.2-10.07c2.38-5.48-11.75-10.51-11.75-10.51Z"/><path class="cls-4" d="m450.29,227.05c-.44-.92-.88-1.85-1.41-2.73-.48-.91-1.05-1.77-1.61-2.63-.39-.64-.9-1.2-1.33-1.82-1.57-2.14-3.3-4.18-5.21-6.06-.83-.85-1.76-1.61-2.65-2.37-1.2-.93-2.4-1.86-3.58-2.83-.37-.31-.29-.31.09-.16.38.15,1.11.41,1.91.81,2.66,1.68,5.18,3.63,7.33,5.98.65.7,1.3,1.42,1.94,2.15.67.71,1.28,1.48,1.89,2.24.68.83,1.25,1.74,1.88,2.61.57.91,1.15,1.81,1.67,2.75l.93,1.75c.29.59.55,1.2.82,1.8.44.9.73,1.86,1.1,2.79.34.94.6,1.91.92,2.84.19.75.41,1.48.63,2.22.19.74.33,1.49.48,2.25.07.33.14.66.16,1,.12,1.26-.03,1.68-.43,1.96-.09.07-.18.15-.28.19-.31.13-.64-.36-.87-1.22-.25-1.29-.64-2.58-.98-3.88-.18-.65-.35-1.31-.51-1.97-.2-.65-.41-1.3-.61-1.96-.31-.97-.7-1.92-1.05-2.88-.43-.93-.8-1.89-1.28-2.8l.04-.02Z"/><path class="cls-4" d="m448.63,241.28c.51.79,5.17,10.65,7.45,8.93,2.28-1.72-.3-13.6-.3-13.6l-7.14,4.67Z"/><path class="cls-4" d="m419.52,211.54c.09-.27.17-.56.15-.86,0-.11-.06-.21-.07-.32-.06-.4-.2-.82-.46-1.18-.11-.17-.28-.27-.42-.4-.2-.15-.41-.28-.61-.47-.06-.06-.01-.19.11-.31.12-.12.34-.26.53-.23.69.07,1.27.52,1.59,1.1.19.35.48.65.64,1.03.18.41.28.87.29,1.32.02.28-.02.55-.06.82-.06.41-.2.79-.32,1.18-.09.3-.1.65-.22.97-.03.07-.06.14-.11.19-.18.21-.36.18-.73-.09l-.25-.19c-.27-.22-.44-.49-.48-.68-.03-.15-.06-.27-.09-.39,0-.09.02-.19.04-.27.04-.17.1-.32.17-.48.09-.24.2-.48.24-.75h.04Z"/><path class="cls-4" d="m433.22,224.32c.23-.18.44-.4.58-.67.06-.1.04-.21.09-.32.17-.38.26-.83.25-1.3,0-.21-.09-.4-.18-.58-.13-.23-.32-.39-.36-.7,0-.1.26-.34.58-.51.32-.18.74-.27.91-.11.55.58.94,1.38.81,2.2-.08.48.02.95-.08,1.43-.11.52-.33,1.01-.62,1.44-.17.27-.38.5-.59.73-.32.35-.71.6-1.08.86-.28.21-.53.5-.86.71-.07.05-.13.11-.21.14-.29.12-.44-.01-.6-.56-.04-.12-.08-.25-.11-.37-.1-.43-.08-.8.01-.96.26-.49.5-.71.77-.96.18-.19.45-.3.63-.51l.05.03Z"/><path class="cls-4" d="m443.68,237.57c-.02.64-.15,1.26-.44,1.84-.1.21-.18.42-.32.6-.52.6-1.19.97-1.86,1.19-.29.1-.6.18-.9.23-.38.07-.82.07-1.16-.17-.11-.07-.01-.27.13-.46.15-.19.32-.41.45-.44.5-.1.9-.34,1.38-.57.3-.14.41-.5.56-.75.17-.28.27-.61.29-.99.01-.22,0-.46-.05-.69-.08-.35-.21-.71-.44-1.01-.18-.23-.47-.35-.73-.46-.05-.03-.12-.04-.17-.06-.18-.11-.17-.24.05-.71l.15-.32c.18-.35.45-.56.73-.53.81.13,1.49.72,1.92,1.44.29.56.43,1.2.46,1.85h-.05Z"/><path class="cls-4" d="m445.86,265.61c.16-.23.3-.49.38-.77.04-.1.02-.21.05-.31.08-.36.19-.77.16-1.18,0-.18-.08-.35-.14-.52-.1-.21-.23-.39-.28-.63-.01-.08.12-.18.29-.23.18-.05.42-.06.55.06.42.43.73,1,.74,1.6.02.35.08.72.07,1.08-.03.4-.12.78-.25,1.15-.08.23-.18.45-.28.66-.16.33-.36.63-.57.92-.16.23-.27.51-.44.75-.04.06-.07.11-.13.15-.2.14-.33.1-.59-.2l-.17-.2c-.18-.24-.26-.49-.24-.66.05-.5.2-.74.37-1.05.15-.19.32-.4.45-.64h.04Z"/><path class="cls-4" d="m434.23,197.7c.88-.72,1.7-1.52,2.57-2.29.31-.28.58-.61.89-.9,1.11-1,2.17-2.06,3.3-3.07.49-.45.97-.92,1.44-1.39.6-.61,1.29-1.13,1.99-1.63.22-.15.2-.12.1.09-.11.21-.27.63-.51,1.06-.42.79-.93,1.47-1.45,2.16-.52.69-1.05,1.37-1.71,1.95-.76.71-1.4,1.6-2.13,2.4-.79.88-1.63,1.71-2.5,2.52-.54.49-1.08.99-1.65,1.46-.83.74-1.74,1.4-2.61,2.09-.68.53-1.32,1.12-2.07,1.58-.16.1-.31.23-.49.31-.66.31-.94.25-1.26-.12-.07-.09-.15-.17-.21-.26-.19-.31-.06-.72.29-1.06.28-.23.55-.47.82-.72.27-.25.55-.46.82-.72.58-.44,1.17-.89,1.76-1.33.86-.7,1.76-1.4,2.59-2.18l.04.04Z"/><path class="cls-4" d="m368.69,287.87c-.1-.69-.26-1.39-.56-2.05-.11-.24-.27-.45-.39-.69-.37-.89-.91-1.74-1.59-2.48-.3-.34-.65-.61-.98-.91-.45-.35-.91-.7-1.36-1.09-.14-.12-.08-.18.11-.21.19-.02.53-.05.88.05.6.2,1.2.43,1.76.74.53.35,1.03.77,1.44,1.27.49.59,1.12,1.12,1.58,1.78.45.76.86,1.55,1.1,2.41.18.51.26,1.06.37,1.58.13.81.14,1.63.11,2.43,0,.62.08,1.25.05,1.88-.01.14-.01.27-.04.41-.11.5-.31.62-.89.56-.13-.01-.27-.02-.4-.04-.44-.08-.75-.37-.83-.72-.23-1.03-.22-1.94-.27-2.85,0-.68-.02-1.36-.14-2.04l.05-.02Z"/><path class="cls-4" d="m307.92,321.58c-.08-.47-.16-.94-.27-1.4-.04-.17-.11-.33-.14-.5-.11-.61-.23-1.22-.4-1.82-.07-.26-.18-.52-.29-.76-.17-.3-.25-.65-.3-1.01-.01-.12.09-.15.25-.12.16.03.41.1.56.25.29.27.41.61.58.94.15.33.28.68.37,1.04.1.43.34.83.49,1.25.15.47.28.95.4,1.43.07.3.15.59.22.88.11.44.2.9.34,1.33.11.34.3.65.45.97.03.07.08.14.11.21.09.28.01.39-.39.54-.09.03-.18.07-.28.1-.32.09-.61.04-.74-.14-.39-.53-.55-1.14-.69-1.77-.1-.46-.2-.93-.29-1.4h.03Z"/><path class="cls-4" d="m341.06,345.16c-.83.56-1.74,1.05-2.7,1.41-.36.11-.69.29-1.06.36-1.31.29-2.65.2-3.88-.09-.55-.13-1.1-.26-1.61-.5-.66-.28-1.28-.66-1.79-1.15-.16-.15-.09-.2.13-.19.21.02.57.05.94.15.64.22,1.3.29,1.92.43.63.13,1.26.22,1.91.26.79.07,1.56-.2,2.32-.43.84-.26,1.64-.66,2.41-1.15.47-.31.93-.63,1.36-1,.66-.56,1.32-1.14,1.92-1.77.46-.5.85-1.05,1.27-1.58.09-.12.18-.24.28-.35.37-.42.57-.48.92-.31.08.04.16.07.24.12.24.16.26.49.04.84-.62,1.05-1.42,2.06-2.32,3.02-.66.72-1.45,1.34-2.27,1.95l-.02-.03Z"/><path class="cls-4" d="m325.84,301.41l-9.38,13.61s-.55-.47-1.19-1.29l9.79-12.29c.49-.02.77-.02.77-.02Z"/><path class="cls-4" d="m327.74,260.83c-1.02.13-2.24-.01-3.28-.56-.25-.14-.52-.27-.73-.45-.19-.17-.48-.33-.7-.63-.2-.29-.47-.54-.61-.86-.13-.32-.28-.66-.34-.99-.24-1.33.03-2.22.26-3.11.26-.86.59-1.64.95-2.38,1.47-2.93,3.33-5.42,5.29-7.82,1.44-1.74,2.89-3.47,4.48-5.06,2.8-2.81,5.86-5.35,9.15-7.61,1.65-1.12,3.37-2.15,5.21-3.01,1.82-.88,3.86-1.47,5.79-1.84,3.46-.69,6.94-1.11,10.41-1.31,2.23-.13,4.47-.11,6.71.08.56.06,1.12.1,1.68.18.55.12,1.11.22,1.66.36,1.09.29,2.2.57,3.21,1.12,1.19.85,1.07.54-.14.56-.6,0-1.45.08-2.44.15-.5.05-1.03.07-1.59.14-.28.03-.57.04-.87.08-.29-.02-.59,0-.9-.02-2.16-.08-4.34.02-6.52.16-2.18.09-4.36.29-6.52.58-2.15.29-4.32.66-6.35,1.22-1.93.56-3.88,1.48-5.75,2.58-4.51,2.65-8.54,6.57-12.23,10.51-2.03,2.19-3.94,4.49-5.6,6.93-.83,1.22-1.59,2.48-2.18,3.76-.28.64-.54,1.29-.67,1.91-.09.32-.1.59-.12.87.03.25.03.43.1.58.05.09.11.18.19.25.08.05.23.22.37.28.14.07.27.17.42.21.14.07.3.1.46.12.64.11,1.41-.02,2.18-.32,1.54-.61,3.03-1.69,4.42-2.84,2.11-1.78,4.08-3.8,6.04-5.85.99-1.02,1.95-2.06,3.03-3.07,1.15-1.04,2.42-1.79,3.7-2.47,3.98-2.08,8.04-3.66,12.31-4.85.94-.25,1.86-.51,2.84-.7,1.81-.34,3.04-.43,3.91-.33.44.05.78.13,1.06.25.29.14.51.32.7.51.17.18.39.36.48.53.26.58-1.11.98-3.54,1.42-3.63.73-7.36,1.88-11,3.29-1.81.71-3.61,1.49-5.3,2.39-.42.23-.84.45-1.23.7l-.59.36-.54.38c-.39.26-.62.48-.98.81-.33.32-.67.66-1.02,1.02-2.05,2.14-4.13,4.46-6.45,6.61-1.17,1.07-2.39,2.12-3.77,3.07-1.4.92-2.92,1.86-5.03,2.16l-.02-.07Z"/><path class="cls-4" d="m333.08,224.09c2.61-2.11,5.29-4.13,8.05-6.05,1.01-.7,1.98-1.46,3.05-2.11.48-.29.96-.57,1.49-.84l.42-.2c.16-.07.34-.14.52-.2l.86-.22c1.14-.28,2.24-.42,3.34-.55,2.19-.22,4.36-.27,6.51-.27,1.91-.01,3.83.04,5.72.11,2.42.09,4.9.19,7.25,1.12.72.34.58.39-.1.58-.68.23-1.88.63-3.24.71-2.42.08-4.83.05-7.25.16-2.41.04-4.83.03-7.23.16-1.44.06-2.88.3-4.21.69-.31.1-.7.21-.87.31-.27.13-.57.31-.88.49-.61.38-1.23.78-1.85,1.19-2.73,1.8-5.4,3.78-8,5.82-1.6,1.26-3.17,2.56-4.69,3.91-2.29,2.05-4.58,4.17-6.43,6.54-.58.77-1.12,1.56-1.52,2.37-.19.4-.38.81-.49,1.2-.13.38-.15.79-.14.98.03.17.12.32.24.43.15.15.48.32.82.45.65.25,1.15.33,1.48.47.33.14.55.35.81.69.12.15.28.29.4.44.19.25.14.57-.27.89-.4.31-1.13.53-2.03.46-.83-.08-1.67-.27-2.51-.78-.41-.24-.84-.6-1.23-1.12-.37-.51-.58-1.13-.65-1.77,0-.35.01-.67.04-.96l.16-.78c.14-.47.3-.95.5-1.34.37-.84.83-1.54,1.29-2.24.94-1.38,2-2.61,3.09-3.79,2.35-2.53,4.91-4.78,7.5-6.97l.05.05Z"/><path class="cls-4" d="m389.53,214.13c-6.29-2.66-12.37-5.68-18.42-8.66-2.21-1.08-4.45-2.08-6.66-3.12-1.94-.92-3.89-1.81-5.84-2.56-.99-.36-1.89-.67-2.93-.91-1.02-.24-2.05-.44-3.08-.6-2.06-.32-4.15-.48-6.2-.39-1.02.04-2.04.16-2.99.37-.21.05-.52.13-.64.16-.12.03-.24.07-.35.12-.23.09-.47.21-.63.42-.08.1-.12.24-.09.37.03.13.11.23.16.35.22.49,1.59,1.63,2.95,2.25,1.38.69,2.89,1.21,4.42,1.7,2.31.71,4.69,1.34,7.07,2.22,1.18.44,2.37.95,3.51,1.62.57.33,1.12.73,1.62,1.2.48.48,1.04.93,1.28,1.64.14.44.16.78.16.99,0,.21,0,.3-.05.31-.1.03-.3-.34-.99-.59-1.29-.59-3.34-.93-5.85-1.77-2.71-.89-5.66-1.49-8.63-2.51-1.49-.5-3.01-1.07-4.53-1.88-.76-.42-1.52-.87-2.26-1.49-.19-.14-.36-.32-.54-.48-.23-.19-.49-.48-.71-.77-.5-.55-.83-1.16-1.17-1.77-.1-.41-.26-.81-.3-1.22-.02-.4.05-.84.2-1.24.3-.79.89-1.42,1.67-1.9.37-.25.81-.44,1.25-.6.42-.17.96-.32,1.18-.37.58-.13,1.14-.23,1.7-.3,2.22-.26,4.35-.16,6.44.09,1.58.19,3.14.47,4.7.8.78.17,1.54.35,2.34.56.82.21,1.58.48,2.35.74,3.01,1.11,5.87,2.4,8.68,3.74,6.15,2.96,12.19,6.02,18.37,8.78,3.8,1.7,7.64,3.3,11.55,4.64,2.96,1.02,5.97,1.93,9.02,2.58,3.04.65,6.14,1.04,9.17.89,2.35-.11,4.64-.63,6.66-1.55,2.01-1,3.85-2.41,5.51-4,.74-.69,1.38-1.46,2.06-2.21,2.43-2.9,3.15-3.81,4.37-4.08.27-.07.56-.2.78-.21.71-.09.6,1.8-1.1,4.4-1.28,1.89-2.79,3.66-4.55,5.24-1.76,1.58-3.74,3.01-6.1,4.04-4.79,1.96-9.9,1.84-14.59,1.13-7.04-1.08-13.61-3.49-19.99-6.09l.02-.08Z"/><path class="cls-4" d="m435.02,194.74c1.38-.89,2.75-1.77,4.03-2.75.5-.33.89-.76,1.36-1.11,1.63-1.25,3.18-2.64,4.47-4.27.29-.36.53-.75.78-1.14.25-.39.49-.78.68-1.2.56-1.04,1.04-2.1,1.91-3.05.26-.3.29-.24.37.13.06.27.12.54.18.79.04.17.08.35.11.54.02.1.02.19.05.3l-.05.27c-.14.64-.38,1.24-.6,1.86-.26.6-.59,1.16-.93,1.71-.33.56-.69,1.11-1.11,1.61-.41.51-.81,1.02-1.3,1.47-.55.55-1.07,1.15-1.62,1.72-.53.6-1.09,1.16-1.67,1.68-1.28,1.17-2.71,2.12-4.1,3.08l-2.59,1.73c-1.29.87-2.61,1.71-3.81,2.67-.94.74-1.72,1.63-2.54,2.46-.19.18-.34.38-.53.56-.7.65-1.06.71-1.71.29-.15-.09-.31-.18-.45-.28-.46-.36-.47-.98-.04-1.6,1.26-1.89,3.09-3.34,4.93-4.67,1.37-1,2.79-1.9,4.16-2.84l.04.06Z"/><path class="cls-4" d="m478.21,242.61c-1.38.95-2.79,1.86-4.21,2.74-.52.32-.99.71-1.52,1.01-1.84,1.1-3.82,2.04-5.82,2.88-.89.37-1.78.75-2.69,1.07l-.88.3c-.3.07-.6.15-.91.2-.61.14-1.26.09-1.88-.02-.39-.07-.35-.2-.07-.5.19-.2.38-.41.56-.59.11-.12.23-.26.36-.36.13-.09.27-.17.42-.24,1.04-.52,2.12-.83,3.17-1.33,1.05-.47,2.11-.98,3.19-1.49,1.3-.62,2.48-1.56,3.73-2.38,1.36-.9,2.72-1.82,4.05-2.78.81-.59,1.63-1.19,2.42-1.82,1.19-.95,2.4-1.91,3.48-2.97.84-.83,1.53-1.78,2.25-2.7.16-.2.29-.42.46-.62.63-.72.97-.81,1.7-.4.16.09.34.17.49.28.52.36.61,1,.23,1.64-1.12,1.89-2.75,3.49-4.47,4.97-1.28,1.1-2.64,2.12-4,3.12l-.04-.05Z"/><path class="cls-4" d="m422.34,213.67c-.58.57-1.36.96-2.1,1.11-.75.15-1.49.11-2.16-.08-.49-.14-.99-.28-1.41-.59-.74-.53-1.31-1.33-1.51-2.14-.21-.82-.18-1.64.03-2.38.18-.66.48-1.29.92-1.8.29-.32.62-.65,1.07-.77.44-.13.89-.11,1.3-.01.25.08.17.23-.02.42-.2.18-.46.5-.63.77-.14.24-.27.39-.4.59-.12.2-.22.44-.28.66-.13.46-.14.96-.08,1.45.1.62.54,1.03,1.07,1.24.58.28,1.34.29,1.86-.02.32-.18.61-.51.76-.92.24-.6.19-1.34-.26-1.73-.35-.33-.94-.28-1.3-.18-.08.02-.15.08-.22.1-.23.09-.33-.1-.82-.77l-.34-.44c-.19-.25-.3-.51-.27-.8.02-.28.19-.57.5-.76.93-.55,2.14-.65,3.18-.19,1.03.41,2.01,1.42,2.36,2.62.51,1.77-.06,3.47-1.19,4.65l-.05-.04Z"/><path class="cls-4" d="m435.43,227.13c-1.56.8-3.26.67-4.68-.05l-.75-.47c-.22-.2-.44-.4-.63-.62-1.18-1.83-.74-3.81.04-5.16.35-.62.79-1.19,1.32-1.66.65-.59,1.67-1.05,2.55-.72.27.11.2.17-.02.32-.23.16-.54.45-.83.64-.53.36-.9.93-1.16,1.54-.25.61-.51,1.23-.62,1.85-.03.18-.04.36,0,.54.04.18.05.38.15.51.07.16.15.3.27.4.09.13.21.22.32.32.48.44,1.37.63,2.13.41.47-.12.89-.39,1.1-.76.11-.13.13-.3.22-.45,0-.18.07-.35.06-.54-.01-.41-.05-.76-.27-1.06-.32-.49-.98-.64-1.46-.71-.11-.01-.22,0-.32,0-.37-.03-.46-.19-.76-.86l-.21-.45c-.23-.48-.04-1.07.68-1.31,1.04-.32,2.29-.18,3.25.49.49.33.93.75,1.28,1.29.34.51.61,1.2.68,1.79.05.44.13.86.03,1.35-.04.24-.07.47-.13.7-.08.23-.18.46-.28.69-.42.89-1.15,1.62-1.93,2.03l-.04-.06Z"/><path class="cls-4" d="m445.46,240.21c-.35.72-.92,1.38-1.57,1.79-.65.42-1.37.64-2.07.71-.51.05-1.03.08-1.54-.06-.89-.23-1.69-.85-2.14-1.56-.47-.71-.69-1.51-.7-2.3,0-.69.14-1.4.49-2,.22-.38.5-.73.85-.99.38-.24.84-.31,1.25-.31.27.02.23.11.08.31-.15.19-.32.63-.43.97-.75.85-.7,1.89-.26,2.86.13.28.38.5.64.61.27.1.57.15.87.16.67.04,1.4-.25,1.77-.76.24-.31.4-.75.39-1.2,0-.68-.29-1.37-.86-1.67-.45-.24-1.04-.12-1.43.09-.09.04-.16.12-.24.16-.27.15-.4.01-.98-.61l-.4-.42c-.45-.46-.55-1.12.01-1.58,1.6-1.34,4.44-1.05,5.94,1.03,1.01,1.51,1.04,3.29.39,4.79l-.06-.02Z"/><path class="cls-4" d="m448.48,268.02c-1.11,1.03-2.74,1.56-4.2,1.12-.53-.14-1.09-.36-1.5-.75-.73-.69-1.04-1.55-1.16-2.33-.12-.79-.03-1.55.14-2.25.16-.62.36-1.22.65-1.78.33-.73.92-1.35,1.63-1.7.23-.11.32.08.33.39,0,.3,0,.75-.15,1.08-.55,1.15-.84,2.3-.8,3.45.02.71.53,1.24.93,1.38.45.2,1.19.18,1.76-.17.35-.22.68-.57.87-.98.3-.62.35-1.35-.03-1.92-.29-.45-.87-.64-1.31-.71-.1-.01-.21,0-.3,0-.33-.05-.37-.23-.47-1.05l-.08-.56c-.09-.61.2-1.18.89-1.26.98-.1,2.03.23,2.82.91.79.67,1.38,1.68,1.56,2.82.24,1.72-.45,3.27-1.52,4.35l-.05-.04Z"/><path class="cls-4" d="m363.22,280.89c-1.13-.84-2.28-1.65-3.44-2.47-.42-.3-.89-.52-1.31-.82-1.52-1.03-3.04-2.06-4.55-3.09-.68-.45-1.4-.84-2.1-1.23-.91-.5-1.79-1.05-2.65-1.66-.26-.2-.17-.28.15-.32.32-.03.9-.05,1.49.1.52.15,1.04.29,1.55.47.5.19.99.4,1.48.61.97.44,1.95.89,2.85,1.49,1.07.73,2.3,1.26,3.45,1.91,1.26.72,2.49,1.49,3.69,2.31l2.21,1.52c1.12.77,2.19,1.62,3.29,2.43.85.64,1.78,1.16,2.65,1.96.19.2.39.35.55.6.62.9.51,1.65-.23,1.89-.16.06-.33.11-.49.12-.28.02-.54-.08-.76-.11-.1-.01-.19-.02-.29-.05-.09-.02-.15-.04-.25-.11-.47-.32-1.15-.84-1.81-1.35-.71-.54-1.41-1.09-2.13-1.64-1.1-.83-2.22-1.68-3.38-2.48l.03-.06Z"/><path class="cls-4" d="m336.1,346.78c.81-.47,1.7-1.18,2.54-1.9.85-.73,1.7-1.51,2.52-2.32,1.66-1.61,3.27-3.31,4.84-5.05,1.15-1.27,2.2-2.63,3.33-3.92,4.02-4.53,7.96-9.17,11.71-13.95,1.66-2.13,3.27-4.31,4.81-6.5,1-1.4,1.91-2.86,2.95-4.23l1.53-2.07c.24-.35.53-.67.83-.99.3-.32.56-.65.87-.97.77-.78.65-.71.54.28-.08.58-.17,1.28-.27,2.05-.17.83-.51,1.71-.97,2.61-3.46,6.25-7.7,11.93-12.32,17.37-2.79,3.23-5.35,6.87-8.24,10.16-3.17,3.62-6.4,7.2-10.13,10.44-.59.49-1.19.98-1.83,1.43-.15.12-.32.23-.5.34l-.58.36c-.23.14-.49.25-.74.35-.26.08-.5.26-.77.22-.54.08-1.05-.18-1.55-.39l-.37-.18-.27-.14-.51-.28c-.66-.38-1.3-.78-1.93-1.18-3.8-2.45-7.37-5.2-10.91-7.89-2.74-2.1-5.51-4.09-8.16-6.29-.58-.49-1.17-.94-1.74-1.46-1.05-.96-1.69-1.65-2.02-2.25-.31-.62-.34-1.11-.22-1.64.06-.24.08-.52.17-.71.16-.33.54-.39,1.09-.23.55.17,1.3.53,2.07,1.17,4.69,3.71,9.59,7.66,14.69,11.41,1.89,1.39,3.8,2.76,5.74,4.06.97.64,1.94,1.27,2.9,1.83.23.13.48.27.69.38l.04.03s.03.02.11-.03l.05.07Z"/><path class="cls-4" d="m311.83,306.02c.22-.72.53-1.37.94-2.1.43-.66.91-1.28,1.47-1.79.39-.38.77-.79,1.24-1.08,1.63-1.03,3.51-1.5,5.31-1.49.8.03,1.59.04,2.35.15.24.04.5.05.74.12.24.07.47.15.7.24.47.15.89.44,1.25.82.23.23.09.43-.27.7-.18.14-.42.31-.68.48-.25.16-.51.24-.75.28l-.63.05c-.1,0-.2.02-.31.05h-.29c-.39-.05-.77,0-1.14-.02-.37.04-.75.02-1.12.08-.38-.01-.76.01-1.16.02-.96.05-1.79.66-2.52,1.24-.83.64-1.55,1.38-1.97,2.37-.28.63-.51,1.29-.6,1.97-.16,1.03-.14,2.12.23,3.08.29.75.86,1.33,1.43,1.82l.4.3c.48.37.43.73.13,1.37-.07.15-.13.31-.2.45-.24.46-.78.67-1.45.46-1.8-.85-3.1-2.86-3.46-4.95-.29-1.56-.14-3.15.28-4.61l.07.02Z"/><path class="cls-4" d="m325.19,288.05c.11-.4.28-.8.46-1.19.21-.39.45-.82.72-1.13.53-.69,1.14-1.18,1.76-1.65.46-.32.89-.68,1.38-.92,1.74-.86,3.65-1.17,5.48-1.18.82.02,1.64,0,2.44.14,1.01.15,2.13.28,2.83,1.22.24.23.1.42-.27.64-.25.16-.51.33-.72.46-.14.09-.27.14-.41.19-.07.03-.13.04-.2.08-.06,0-.12,0-.18,0-1.71-.2-3.3-.24-5.07-.14-1.06.09-2.05.64-2.94,1.17-.99.59-1.89,1.36-2.32,2.26-.28.6-.45,1.31-.5,2.04-.06,1.11.03,2.3.42,3.38.3.84.84,1.57,1.38,2.2.12.14.27.25.38.39.41.51.4.75-.04,1.41-.1.15-.19.31-.3.45-.35.47-.95.58-1.53.17-1.68-1.24-2.56-3.23-2.96-5.25-.29-1.51-.3-3.12.13-4.77h.07Z"/><path class="cls-4" d="m371.85,300.72c-.42-.43-.91-.81-1.22-1.32-.17-.24-.34-.49-.5-.73l-.37-.78c-.28-.52-.37-1.06-.54-1.59-.12-.53-.2-1.06-.27-1.59-.18-2.1.09-4.09.56-5.99.48-1.9,1.17-3.72,2.1-5.47.25-.44.48-.86.78-1.31.31-.47.62-.85.93-1.23.62-.75,1.25-1.43,1.88-2.1,2.53-2.67,5.06-5.2,7.4-7.87,2.32-2.64,4.6-5.44,5.86-8.41.43-1.07.7-2.17.59-3.09-.04-.44-.2-.92-.35-1.17-.19-.31-.56-.64-.97-.95-1.78-1.24-4.3-1.98-6.73-2.5-4.1-.85-8.41-1.12-12.59-.79-2.08.19-4.17.52-6.03,1.21-.94.34-1.74.77-2.56,1.36-.82.58-1.61,1.27-2.38,1.99-3.09,2.91-5.86,6.3-8.92,9.5-1.55,1.59-3.11,3.2-5.07,4.53-.98.65-2.08,1.27-3.46,1.48-.69.06-1.45.07-2.15-.22-.36-.1-.66-.31-.97-.49-.3-.2-.53-.43-.8-.67-.63-.67-.85-1.48-.95-2.16-.1-.7-.07-1.34,0-1.97.26-2.25.96-4.27,1.73-6.25.8-1.97,1.7-3.87,2.71-5.72,2.03-3.69,4.34-7.21,7.22-10.33.93-1,1.93-1.95,3.08-2.8,1.18-.84,2.32-1.47,3.54-2.12,2.42-1.25,4.96-2.24,7.56-2.98,1.3-.37,2.62-.69,3.94-.94,1.34-.21,2.67-.38,4.02-.48,2.69-.21,5.39-.09,8.03.23,1.65.24,2.34.45,2.29.54-.06.11-.88.12-2.27.27-2.8.22-7.78,1.39-13.37,2.92-3.55.92-6.97,2.25-10.08,4.06l-1.15.69c-.35.23-.67.44-1,.71-.66.5-1.31,1.1-1.93,1.73-1.24,1.26-2.41,2.67-3.49,4.15-2.16,2.97-4.06,6.19-5.6,9.53-.76,1.67-1.44,3.38-1.9,5.07-.22.84-.4,1.69-.45,2.45v.53c.02.14.01.33.04.44.04.27.12.35.12.38.33.32.62.49.95.54.34.05.81-.01,1.36-.23,1.1-.47,2.28-1.34,3.38-2.32,2.23-1.97,4.29-4.31,6.42-6.62,2.21-2.39,4.4-4.88,7.11-7.1,1.33-1.1,3.07-2.11,4.77-2.61,1.71-.56,3.43-.87,5.15-1.08,3.44-.4,6.88-.37,10.3-.02,1.71.18,3.41.45,5.1.85,1.69.41,3.37.9,5.01,1.7.9.45,1.8.96,2.63,1.74.41.4.81.85,1.11,1.44l.22.44.14.42c.09.28.18.56.21.85.19,1.15.09,2.28-.17,3.28-.26,1.01-.62,1.96-1.07,2.83-1.78,3.5-4.22,6.35-6.68,9.1-2.48,2.73-5.14,5.29-7.57,7.91-.59.65-1.19,1.33-1.64,1.97-.45.68-.87,1.44-1.23,2.22-.72,1.57-1.27,3.23-1.59,4.92-.2,1.04-.3,2.09-.26,3.11,0,1.03.22,2.01.58,2.88.35.89.95,1.6,1.72,2.09.43.3.66.4.98.4.32,0,.7-.13,1.1-.34.8-.44,1.57-1.16,2.27-1.95.71-.79,1.36-1.66,1.97-2.55.62-.9,1.19-1.83,1.74-2.78.56-.95,1-1.91,1.68-2.99,2.08-3.06,5-5.18,7.94-7,2.98-1.8,6.09-3.29,9.23-4.66,3.14-1.37,6.32-2.6,9.48-3.84,3.13-1.25,6.33-2.45,9.17-4,1.07-.57,2.06-1.42,3.09-2.17,1.02-.77,1.95-1.65,2.92-2.48,1.85-1.76,3.63-3.59,5.3-5.54,3.38-3.86,6.47-7.98,9.86-11.98,1.49-1.76,2.96-3.49,4.63-5.16,3.08-3.1,5.45-4.86,7.23-5.87.9-.49,1.62-.87,2.27-1.07.66-.19,1.22-.28,1.73-.3.47-.02,1.05-.1,1.36-.03.51.12.07.73-1.1,1.7-.29.24-.64.5-1.02.79-.37.32-.78.65-1.23,1.01-.92.68-1.92,1.59-3.08,2.56-6.76,5.92-12.02,13.84-18.6,21.18-.81.93-1.7,1.81-2.55,2.72-.88.88-1.8,1.75-2.72,2.61-.97.81-1.9,1.68-2.93,2.44l-1.54,1.15c-.27.19-.5.38-.79.57-.3.19-.61.4-.9.56-2.37,1.34-4.66,2.24-6.97,3.18-2.28.9-4.57,1.8-6.85,2.7-3.36,1.34-6.69,2.71-9.87,4.28-3.17,1.57-6.25,3.32-8.76,5.51-1.24,1.09-2.32,2.3-3.04,3.59-.88,1.59-1.88,3.29-2.97,4.85-1.12,1.58-2.3,3.13-3.96,4.53-.86.67-1.81,1.4-3.34,1.68-.75.13-1.67.04-2.42-.31-.22-.09-.34-.17-.46-.25l-.38-.25c-.25-.17-.52-.32-.74-.52l.03-.07Z"/><path class="cls-4" d="m449.41,217.9c2.3,3.07,4.29,6.37,5.94,9.8.6,1.25,1.26,2.48,1.76,3.78.88,2.29,1.61,4.64,2.13,7.05.53,2.41.8,4.9.6,7.44-.1,1.13-.29,2.28-.73,3.42-.25.56-.56,1.12-1,1.61-.44.49-1,.89-1.65,1.14-.84.3-1.69.28-2.44.15-.76-.14-1.47-.37-2.1-.73-1.26-.69-2.33-1.59-3.31-2.54-.55-.68-.49-.56.22-.33.69.24,2.04.59,3.46.91.31.08.62.14.91.19.29.08.57.13.84.17.54.06,1.02.02,1.33-.11.56-.2.93-.89,1.22-1.88.27-1,.34-2.22.3-3.47-.03-1.25-.22-2.53-.36-3.84-.4-3.14-1.69-6.28-3.01-9.27-1.47-3.3-3.23-6.51-5.32-9.47-1.31-1.81-2.67-3.61-4.2-5.26-2.28-2.53-4.76-4.92-7.45-6.97-2.1-1.58-4.38-2.84-6.67-3.9-.51-.23-1.02-.39-1.52-.63-1.88-.76-2.29-.96-2.58-1.99-.07-.22-.19-.44-.23-.65-.08-.35.1-.62.61-.84.53-.25,1.25-.21,2.15-.04,2.55.63,4.87,1.77,7.08,3.11,2.2,1.34,4.28,2.91,6.23,4.62,2.9,2.55,5.53,5.4,7.91,8.45l-.06.06Z"/><path class="cls-4" d="m331.39,298.73l-8.13,10.13c-.98,1.24-1.9,2.52-2.89,3.75l-5.24,6.5-2.62,3.25-1.3,1.63-1.85,2.36c-1.04,1.03-2.09,1.93-2.39.56-.11-.29-.25-.61-.3-1.09l-.12-1.48-.1-1.43-.09-.91c-.15-1.56-.35-3.11-.56-4.65-.17-1.55-.36-3.1-.61-4.64-.16-.96-.04-.88.46-.16.5.72,1.36,2.13,1.9,3.92.4,1.59.69,3.2.96,4.81l.19,1.2c.04.29.03.21.03.22h0s-.01.07-.02.13c-.01.13,0-.01.04-.05.02-.05.02,0,.04,0,0,0,.02,0,.03,0h.02s0,0,0,0l.09-.11c1.02-1.26,2.05-2.5,3.09-3.74,2.5-2.96,4.83-6.26,7.26-9.4l8.04-10.32,4.95-6.35c2.48-3.22,5.01-6.42,7.4-9.67,1.86-2.53,3.53-5.11,5.28-7.68.38-.56.74-1.14,1.14-1.7.75-1.04,1.28-1.69,1.77-2.06.51-.36.95-.45,1.44-.41.22.01.47,0,.65.04.31.08.4.4.34.94-.05.54-.3,1.27-.8,2.06-2.9,4.76-6.4,9.43-9.96,14.09-2.65,3.46-5.38,6.88-8.06,10.32l-.06-.04Z"/><g class="cls-5"><path class="cls-4" d="m345.7,318.03c-.94.48-1.89.98-2.83,1.49-.34.19-.65.42-1,.6-1.23.64-2.48,1.25-3.73,1.84-.55.27-1.1.57-1.63.87-.69.38-1.36.82-2.17.96-.49.09-.55-1.64.2-2.04,1.35-.71,2.7-1.43,4.16-2.05.88-.36,1.65-.98,2.48-1.48l2.76-1.65,1.72-1c.87-.51,1.77-.98,2.63-1.51.66-.42,1.29-.87,1.97-1.28.15-.09.28-.2.44-.27.59-.28.84-.22,1.18.24.08.1.16.2.23.31.22.37.13.8-.21,1.12-1.03.93-2.13,1.75-3.39,2.38-.92.5-1.85,1.01-2.78,1.51l-.03-.04Z"/></g><g class="cls-5"><path class="cls-4" d="m346.99,307.12c-.85.38-1.71.77-2.55,1.18-.31.14-.6.33-.91.47-1.1.5-2.21.99-3.29,1.53-.48.25-.95.5-1.41.77-.59.35-1.17.72-1.82.96-.2.07-.29-.12-.25-.41.04-.28.19-.68.5-.92.56-.43,1.12-.85,1.71-1.23.59-.37,1.22-.69,1.87-.98.78-.34,1.49-.86,2.25-1.28.83-.47,1.69-.88,2.54-1.3l1.57-.78c.79-.4,1.6-.77,2.37-1.19.6-.32,1.15-.73,1.72-1.09.13-.08.24-.17.38-.23.5-.23.72-.2,1.01.11.07.07.14.14.19.21.18.25.1.59-.2.89-.44.46-.95.81-1.48,1.16-.52.34-1.07.67-1.64.95-.85.41-1.7.82-2.54,1.23l-.02-.04Z"/></g><g class="cls-6"><path class="cls-4" d="m160.99,353.94l-2.51,1.58c-.3.19-.58.42-.89.6-1.1.63-2.2,1.27-3.29,1.9-.48.29-.96.58-1.44.87-.6.38-1.2.78-1.88,1.03-.21.08-.3-.12-.26-.41.04-.29.19-.7.51-.95.57-.45,1.14-.89,1.72-1.32.59-.41,1.22-.76,1.87-1.11.77-.41,1.46-1,2.18-1.51l2.39-1.7,1.47-1.05c.73-.54,1.48-1.08,2.15-1.68.53-.47.97-1.01,1.46-1.5.11-.11.2-.23.31-.33.42-.39.63-.42,1.01-.19.09.05.18.1.25.16.26.2.27.56.02.93-.71,1.1-1.67,2.03-2.7,2.89-.76.64-1.56,1.24-2.35,1.84l-.03-.03Z"/></g><path class="cls-4" d="m231.02,239.69c-.04.35-.44.45-1.01.41-.18-.01-.6-.26-.63-.38-.04-.23-.08-.46-.09-.68,0-.13.49-1.89.58-2.51.1-.6.27-1.16.47-1.7.44-1.09.8-2.19,1.13-3.29.08-.24.19-.48.32-.7.48-.76.74-1.61.89-2.49.03-.15.08-.29,0-.46-.17-.29.4-2.63.58-2.92.44-.7.77-1.43,1.14-2.16.05-.1.03-.23.21-.3.42-.15.41-.4.49-.64.12-.32.22-.66.47-.95.12-.15.37-.26.58-.39.19-.11.68.08.72.15.13.19.41.12.62.16.07.01.17.03.23.05.04.02.3.59.43,1.16.14.57.24,1.17.21,1.27,0,.03-.11.77-.22,1.55-.11.78-.24,1.6-.25,1.77,0,.18-.14.33-.24.49-.01.08-.46,2.44-.53,2.52-.21.46-.26.97-.73,1.34-.09.07-.11.17-.14.27-.27.82-.71,1.57-1.13,2.33-.21.39-.37.8-.55,1.19-.03.07-.11.12-.16.19-.07.08-.14.15-.18.24-.41.95-1.05,1.78-1.49,2.69-.1.22-.95,1.03-1.05,1.28-.06.14-.66.37-.67.52Z"/><path class="cls-4" d="m258.25,229.57c.29,0,.22.41-.04,1.04-.08.2-.48.7-.59.73-.21.07-.43.13-.61.15-.11,0-1.39-.44-1.85-.55-.45-.11-.83-.31-1.19-.53-.74-.45-1.52-.84-2.25-1.32-.16-.11-.29-.25-.4-.42-.37-.59-.9-.98-1.48-1.3-.1-.05-.17-.14-.34-.09-.28.08-1.75-.93-1.87-1.16-.29-.56-.67-1.01-.97-1.56-.04-.08-.15-.09-.1-.27.11-.43-.07-.48-.19-.62-.17-.19-.32-.39-.43-.65-.06-.13-.01-.38,0-.6.01-.2.42-.63.49-.66.2-.08.3-.36.44-.56.05-.07.11-.16.15-.21.1-.11,1.86-.09,1.99,0,.05,0,1.86,1.02,2.08,1.12.12.05.16.2.22.32.03.06,1.51.84,1.55.89.24.25.59.35.65.84.01.09.08.12.13.16.49.33.87.8,1.27,1.24.2.23.45.4.67.61.04.04.05.11.08.16.03.07.06.15.11.19.55.45.98,1.05,1.59,1.42.14.09.52.87.69.96.09.05.08.64.2.64Z"/><path class="cls-4" d="m385.19,394.53c-.17.28-.53.28-.95.18-.13-.03-.36-.29-.33-.39.05-.2.11-.4.17-.6.05-.11,1.03-1.61,1.31-2.17.27-.55.65-.98,1.03-1.42l2.29-2.68c.17-.2.36-.37.58-.52.76-.49,1.4-1.11,1.96-1.8.09-.12.22-.21.23-.4.02-.32,1.68-2.08,1.96-2.23.71-.37,1.37-.81,2.06-1.21.1-.06.14-.18.33-.13.43.12.56-.1.75-.24.28-.19.57-.37.91-.49.17-.06.44,0,.68,0,.22.02.56.49.56.58.02.24.29.35.47.52.06.06.14.13.18.18.08.11-.56,2.22-.75,2.32-.02.02-.5.54-1.01,1.08-.51.55-1.04,1.12-1.14,1.24-.1.13-.29.18-.45.25-.07.04-1.58,1.7-1.66,1.75-.38.27-.65.66-1.2.74-.11.02-.17.09-.24.15-.57.56-1.27.97-1.94,1.42-.34.23-.63.51-.95.77-.06.05-.14.06-.21.1-.09.04-.18.08-.25.14-.74.62-1.55,1.16-2.27,1.8-.17.14-1.19.6-1.37.78-.11.09-.68.17-.74.29Z"/><path class="cls-4" d="m378.23,388.7c.29.22,0,.59-.62,1.03-.2.14-.87.36-.99.31-.24-.09-.48-.18-.67-.3-.11-.07-1.04-1.45-1.41-1.89-.35-.43-.6-.9-.82-1.37-.46-.97-.98-1.91-1.48-2.85-.1-.21-.16-.45-.2-.69-.1-.84-.45-1.59-.89-2.28-.07-.11-.11-.25-.3-.31-.29-.1-1.34-2.03-1.39-2.33-.11-.74-.32-1.44-.47-2.18-.02-.1-.12-.17-.03-.34.22-.38.06-.54-.03-.75-.12-.29-.22-.58-.27-.91-.02-.16.08-.4.15-.62.06-.2.58-.43.65-.42.22.03.39-.21.58-.34.06-.04.15-.1.21-.13.12-.07,1.93.99,2.03,1.17.01.02.43.57.87,1.15.42.59.86,1.21.96,1.33.11.12.1.31.13.48.02.07,1.27,1.86,1.3,1.95.16.42.48.77.37,1.32-.02.11.03.18.08.26.37.68.59,1.43.79,2.18.11.38.28.73.42,1.1.02.07,0,.15.01.23,0,.09,0,.19.03.28.35.86.51,1.79.93,2.62.1.19.09,1.28.21,1.5.07.12-.26.72-.15.8Z"/></svg>